<svg xmlns="http://www.w3.org/2000/svg" xmlns:xlink="http://www.w3.org/1999/xlink" version="1.1" x="0" y="0" height="230" width="800" viewBox="0 0 800 230" preserveAspectRatio="none"  >
<g label="Query sequence" class="clusterblast-cluster"  >
<text x="5" y="20" class="clusterblast-acc"  >
Query sequence</text>
<line x1="10" y1="35" x2="778.0" y2="35" style="stroke-width:1; stroke:grey; "  />
<polygon points="44,35 49,30 96,30 96,40 49,40 44,35 " style="fill:#d81515; stroke-width:1; stroke:black; " description="&lt;b&gt;JNAJGP_28595&lt;/b&gt;&lt;br&gt;IclR family transcriptional regulator&lt;br&gt;Location: 6127537 - 6128356" locus_tag="JNAJGP_28595" class="clusterblast-orf" id="dummy-11_q0_0_all"  />
<polygon points="111,40 170,40 175,35 170,30 111,30 111,40 " style="fill:#77d815; stroke-width:1; stroke:black; " description="&lt;b&gt;JNAJGP_28600&lt;/b&gt;&lt;br&gt;Iron(III) transport system ATP-binding&lt;br&gt;Location: 6128596 - 6129625" locus_tag="JNAJGP_28600" class="clusterblast-orf" id="dummy-11_q1_0_all"  />
<polygon points="175,40 223,40 228,35 223,30 175,30 175,40 " style="fill:#15d8d8; stroke-width:1; stroke:black; " description="&lt;b&gt;JNAJGP_28605&lt;/b&gt;&lt;br&gt;ABC transmembrane type-1 domain-containing protein&lt;br&gt;Location: 6129621 - 6130467" locus_tag="JNAJGP_28605" class="clusterblast-orf" id="dummy-11_q2_0_all"  />
<polygon points="228,40 273,40 278,35 273,30 228,30 228,40 " style="fill:#7715d8; stroke-width:1; stroke:black; " description="&lt;b&gt;JNAJGP_28610&lt;/b&gt;&lt;br&gt;ABC-type spermidine/putrescine transport system, permease component II&lt;br&gt;Location: 6130471 - 6131266" locus_tag="JNAJGP_28610" class="clusterblast-orf" id="dummy-11_q3_0_all"  />
<polygon points="278,40 291,40 296,35 291,30 278,30 278,40 " style="fill:#d87715; stroke-width:1; stroke:black; " description="&lt;b&gt;JNAJGP_28615&lt;/b&gt;&lt;br&gt;Ferredoxin&lt;br&gt;Location: 6131265 - 6131556" locus_tag="JNAJGP_28615" class="clusterblast-orf" id="dummy-11_q4_0_all"  />
<polygon points="296,40 375,40 380,35 375,30 296,30 296,40 " style="fill:#15d815; stroke-width:1; stroke:black; " description="&lt;b&gt;JNAJGP_28620&lt;/b&gt;&lt;br&gt;FAD/NAD(P)-binding oxidoreductase&lt;br&gt;Location: 6131552 - 6132896" locus_tag="JNAJGP_28620" class="clusterblast-orf" id="dummy-11_q5_0_all"  />
<polygon points="380,40 444,40 449,35 444,30 380,30 380,40 " style="fill:#1577d8; stroke-width:1; stroke:black; " description="&lt;b&gt;JNAJGP_28625&lt;/b&gt;&lt;br&gt;FAD dependent oxidoreductase domain-containing protein&lt;br&gt;Location: 6132892 - 6133990" locus_tag="JNAJGP_28625" class="clusterblast-orf" id="dummy-11_q6_0_all"  />
<polygon points="450,40 510,40 515,35 510,30 450,30 450,40 " style="fill:#d815d8; stroke-width:1; stroke:black; " description="&lt;b&gt;JNAJGP_28630&lt;/b&gt;&lt;br&gt;ABC transporter substrate-binding protein&lt;br&gt;Location: 6134004 - 6135036" locus_tag="JNAJGP_28630" class="clusterblast-orf" id="dummy-11_q7_0_all"  />
<polygon points="515,35 520,30 565,30 565,40 520,40 515,35 " style="fill:#d8d815; stroke-width:1; stroke:black; " description="&lt;b&gt;JNAJGP_28635&lt;/b&gt;&lt;br&gt;ammonia-dependent NAD(+) synthetase&lt;br&gt;Location: 6135036 - 6135846" locus_tag="JNAJGP_28635" class="clusterblast-orf" id="dummy-11_q8_0_all"  />
<polygon points="566,35 571,30 642,30 642,40 571,40 566,35 " style="fill:#15d877; stroke-width:1; stroke:black; " description="&lt;b&gt;JNAJGP_28640&lt;/b&gt;&lt;br&gt;nicotinate phosphoribosyltransferase&lt;br&gt;Location: 6135847 - 6137065" locus_tag="JNAJGP_28640" class="clusterblast-orf" id="dummy-11_q9_0_all"  />
<polygon points="643,35 648,30 683,30 683,40 648,40 643,35 " style="fill:#1515d8; stroke-width:1; stroke:black; " description="&lt;b&gt;JNAJGP_28645&lt;/b&gt;&lt;br&gt;Isochorismatase&lt;br&gt;Location: 6137076 - 6137724" locus_tag="JNAJGP_28645" class="clusterblast-orf" id="dummy-11_q10_0_all"  />
<polygon points="692,40 717,40 722,35 717,30 692,30 692,40 " style="fill:#d81577; stroke-width:1; stroke:black; " description="&lt;b&gt;JNAJGP_28650&lt;/b&gt;&lt;br&gt;NUDIX hydrolase&lt;br&gt;Location: 6137870 - 6138347" locus_tag="JNAJGP_28650" class="clusterblast-orf" id="dummy-11_q11_0_all"  />
<polygon points="721,40 731,40 736,35 731,30 721,30 721,40 " style="fill:#d81577; stroke-width:1; stroke:black; " description="&lt;b&gt;JNAJGP_28655&lt;/b&gt;&lt;br&gt;hypothetical protein&lt;br&gt;Location: 6138330 - 6138564" locus_tag="JNAJGP_28655" class="clusterblast-orf" id="dummy-11_q12_0_all"  />
</g>
<g label="NZ_CP063073" description="NZ_CP063073 (1613404-1626129): Pseudomonas poae strain PMA22 chromosome, comp... (92% of genes show similarity), hydrogen-cyanide" class="clusterblast-cluster"  >
<text x="5" y="70" class="clusterblast-acc"  >
<a xlink:href="https://antismash-db.secondarymetabolites.org/area?record=NZ_CP063073&amp;start=1613404&amp;end=1626129" target="_blank">NZ_CP063073 (1613404-1626129)</a>: Pseudomonas poae strain PMA22 chromosome, comp... (92% of genes show similarity), hydrogen-cyanide</text>
<line x1="10" y1="85" x2="778.0" y2="85" style="stroke-width:1; stroke:grey; "  />
</g>
<g id="a11_000"  >
<polygon points="0,90 36,90 41,85 36,80 0,80 0,90 " style="fill:white; stroke-width:1; stroke:black; " description="&lt;b&gt;IMF22_RS07530&lt;/b&gt;&lt;br&gt;response regulator&lt;br&gt;Location: 1626064 - 1625399" locus_tag="IMF22_RS07530" class="clusterblast-orf" id="dummy-11_h11_5_0"  />
</g>
<g id="a11_001"  >
<polygon points="74,85 79,80 126,80 126,90 79,90 74,85 " style="fill:#d81515; stroke-width:1; stroke:black; " description="&lt;b&gt;IMF22_RS07525&lt;/b&gt;&lt;br&gt;IclR family transcriptional regulator&lt;br&gt;Location: 1624871 - 1624041&lt;br&gt;&lt;br&gt;&lt;b&gt;BlastP hit with JNAJGP_28595&lt;/b&gt;&lt;br&gt;Percentage identity: 95&lt;br&gt;Percentage coverage: 101&lt;br&gt;BLAST bit score: 503&lt;br&gt;E-value: 1.26e-180" locus_tag="IMF22_RS07525" class="clusterblast-orf" id="dummy-11_h11_5_1"  />
</g>
<g id="a11_002"  >
<polygon points="142,90 201,90 206,85 201,80 142,80 142,90 " style="fill:#77d815; stroke-width:1; stroke:black; " description="&lt;b&gt;IMF22_RS07520&lt;/b&gt;&lt;br&gt;ABC transporter ATP-binding protein&lt;br&gt;Location: 1623798 - 1622770&lt;br&gt;&lt;br&gt;&lt;b&gt;BlastP hit with JNAJGP_28600&lt;/b&gt;&lt;br&gt;Percentage identity: 93&lt;br&gt;Percentage coverage: 100&lt;br&gt;BLAST bit score: 624&lt;br&gt;E-value: 1.67e-226" locus_tag="IMF22_RS07520" class="clusterblast-orf" id="dummy-11_h11_5_2"  />
</g>
<g id="a11_003"  >
<polygon points="206,90 254,90 259,85 254,80 206,80 206,90 " style="fill:#15d8d8; stroke-width:1; stroke:black; " description="&lt;b&gt;IMF22_RS07515&lt;/b&gt;&lt;br&gt;ABC transporter permease&lt;br&gt;Location: 1622773 - 1621928&lt;br&gt;&lt;br&gt;&lt;b&gt;BlastP hit with JNAJGP_28605&lt;/b&gt;&lt;br&gt;Percentage identity: 97&lt;br&gt;Percentage coverage: 100&lt;br&gt;BLAST bit score: 508&lt;br&gt;E-value: 1.12e-182" locus_tag="IMF22_RS07515" class="clusterblast-orf" id="dummy-11_h11_5_3"  />
</g>
<g id="a11_004"  >
<polygon points="259,90 304,90 309,85 304,80 259,80 259,90 " style="fill:#7715d8; stroke-width:1; stroke:black; " description="&lt;b&gt;IMF22_RS07510&lt;/b&gt;&lt;br&gt;ABC transporter permease&lt;br&gt;Location: 1621923 - 1621129&lt;br&gt;&lt;br&gt;&lt;b&gt;BlastP hit with JNAJGP_28610&lt;/b&gt;&lt;br&gt;Percentage identity: 98&lt;br&gt;Percentage coverage: 100&lt;br&gt;BLAST bit score: 474&lt;br&gt;E-value: 1.59e-169" locus_tag="IMF22_RS07510" class="clusterblast-orf" id="dummy-11_h11_5_4"  />
</g>
<g id="a11_005"  >
<polygon points="309,90 322,90 327,85 322,80 309,80 309,90 " style="fill:#d87715; stroke-width:1; stroke:black; " description="&lt;b&gt;IMF22_RS07505&lt;/b&gt;&lt;br&gt;(2Fe-2S)-binding protein&lt;br&gt;Location: 1621129 - 1620839&lt;br&gt;&lt;br&gt;&lt;b&gt;BlastP hit with JNAJGP_28615&lt;/b&gt;&lt;br&gt;Percentage identity: 97&lt;br&gt;Percentage coverage: 100&lt;br&gt;BLAST bit score: 191&lt;br&gt;E-value: 2.9e-63" locus_tag="IMF22_RS07505" class="clusterblast-orf" id="dummy-11_h11_5_5"  />
</g>
<g id="a11_006"  >
<polygon points="327,90 406,90 411,85 406,80 327,80 327,90 " style="fill:#15d815; stroke-width:1; stroke:black; " description="&lt;b&gt;IMF22_RS07500&lt;/b&gt;&lt;br&gt;FAD-dependent oxidoreductase&lt;br&gt;Location: 1620842 - 1619499&lt;br&gt;&lt;br&gt;&lt;b&gt;BlastP hit with JNAJGP_28620&lt;/b&gt;&lt;br&gt;Percentage identity: 86&lt;br&gt;Percentage coverage: 100&lt;br&gt;BLAST bit score: 769&lt;br&gt;E-value: 2.9e-280" locus_tag="IMF22_RS07500" class="clusterblast-orf" id="dummy-11_h11_5_6"  />
</g>
<g id="a11_007"  >
<polygon points="411,90 475,90 480,85 475,80 411,80 411,90 " style="fill:#1577d8; stroke-width:1; stroke:black; " description="&lt;b&gt;IMF22_RS07495&lt;/b&gt;&lt;br&gt;FAD-dependent oxidoreductase&lt;br&gt;Location: 1619502 - 1618405&lt;br&gt;&lt;br&gt;&lt;b&gt;BlastP hit with JNAJGP_28625&lt;/b&gt;&lt;br&gt;Percentage identity: 94&lt;br&gt;Percentage coverage: 100&lt;br&gt;BLAST bit score: 693&lt;br&gt;E-value: 7.43e-253" locus_tag="IMF22_RS07495" class="clusterblast-orf" id="dummy-11_h11_5_7"  />
</g>
<g id="a11_008"  >
<polygon points="481,90 541,90 546,85 541,80 481,80 481,90 " style="fill:#d815d8; stroke-width:1; stroke:black; " description="&lt;b&gt;IMF22_RS07490&lt;/b&gt;&lt;br&gt;ABC transporter substrate-binding protein&lt;br&gt;Location: 1618390 - 1617359&lt;br&gt;&lt;br&gt;&lt;b&gt;BlastP hit with JNAJGP_28630&lt;/b&gt;&lt;br&gt;Percentage identity: 95&lt;br&gt;Percentage coverage: 100&lt;br&gt;BLAST bit score: 646&lt;br&gt;E-value: 3.71e-235" locus_tag="IMF22_RS07490" class="clusterblast-orf" id="dummy-11_h11_5_8"  />
</g>
<g id="a11_009"  >
<polygon points="553,85 558,80 603,80 603,90 558,90 553,85 " style="fill:#d8d815; stroke-width:1; stroke:black; " description="&lt;b&gt;IMF22_RS07485&lt;/b&gt;&lt;br&gt;ammonia-dependent NAD(+) synthetase&lt;br&gt;Location: 1617248 - 1616442&lt;br&gt;&lt;br&gt;&lt;b&gt;BlastP hit with JNAJGP_28635&lt;/b&gt;&lt;br&gt;Percentage identity: 90&lt;br&gt;Percentage coverage: 100&lt;br&gt;BLAST bit score: 467&lt;br&gt;E-value: 1.24e-166" locus_tag="IMF22_RS07485" class="clusterblast-orf" id="dummy-11_h11_5_9"  />
</g>
<g id="a11_0010"  >
<polygon points="608,85 613,80 686,80 686,90 613,90 608,85 " style="fill:#15d877; stroke-width:1; stroke:black; " description="&lt;b&gt;IMF22_RS07480&lt;/b&gt;&lt;br&gt;nicotinate phosphoribosyltransferase&lt;br&gt;Location: 1616366 - 1615128&lt;br&gt;&lt;br&gt;&lt;b&gt;BlastP hit with JNAJGP_28640&lt;/b&gt;&lt;br&gt;Percentage identity: 96&lt;br&gt;Percentage coverage: 99&lt;br&gt;BLAST bit score: 785&lt;br&gt;E-value: 5.77e-288" locus_tag="IMF22_RS07480" class="clusterblast-orf" id="dummy-11_h11_5_10"  />
</g>
<g id="a11_0011"  >
<polygon points="686,85 691,80 727,80 727,90 691,90 686,85 " style="fill:#1515d8; stroke-width:1; stroke:black; " description="&lt;b&gt;IMF22_RS07475&lt;/b&gt;&lt;br&gt;nicotinamidase&lt;br&gt;Location: 1615116 - 1614469&lt;br&gt;&lt;br&gt;&lt;b&gt;BlastP hit with JNAJGP_28645&lt;/b&gt;&lt;br&gt;Percentage identity: 94&lt;br&gt;Percentage coverage: 100&lt;br&gt;BLAST bit score: 419&lt;br&gt;E-value: 1.64e-149" locus_tag="IMF22_RS07475" class="clusterblast-orf" id="dummy-11_h11_5_11"  />
</g>
<g id="a11_0012"  >
<polygon points="736,90 775,90 780,85 775,80 736,80 736,90 " style="fill:#d81577; stroke-width:1; stroke:black; " description="&lt;b&gt;IMF22_RS07470&lt;/b&gt;&lt;br&gt;NUDIX hydrolase&lt;br&gt;Location: 1614322 - 1613630&lt;br&gt;&lt;br&gt;&lt;b&gt;BlastP hit with JNAJGP_28650&lt;/b&gt;&lt;br&gt;Percentage identity: 88&lt;br&gt;Percentage coverage: 96&lt;br&gt;BLAST bit score: 275&lt;br&gt;E-value: 2.65e-93&lt;br&gt;&lt;br&gt;&lt;b&gt;BlastP hit with JNAJGP_28655&lt;/b&gt;&lt;br&gt;Percentage identity: 94&lt;br&gt;Percentage coverage: 100&lt;br&gt;BLAST bit score: 148&lt;br&gt;E-value: 1.26e-44" locus_tag="IMF22_RS07470" class="clusterblast-orf" id="dummy-11_h11_5_12"  />
</g>
</svg>
