<svg xmlns="http://www.w3.org/2000/svg" xmlns:xlink="http://www.w3.org/1999/xlink" version="1.1" x="0" y="0" height="230" width="800" viewBox="0 0 800 230" preserveAspectRatio="none"  >
<g label="Query sequence" class="clusterblast-cluster"  >
<text x="5" y="20" class="clusterblast-acc"  >
Query sequence</text>
<line x1="10" y1="35" x2="778.0" y2="35" style="stroke-width:1; stroke:grey; "  />
<polygon points="54,40 114,40 119,35 114,30 54,30 54,40 " style="fill:#d81515; stroke-width:1; stroke:black; " description="&lt;b&gt;JNAJGP_13890&lt;/b&gt;&lt;br&gt;phenylacyl-CoA dehydrogenase&lt;br&gt;Location: 2957054 - 2958860" locus_tag="JNAJGP_13890" class="clusterblast-orf" id="dummy-6_q0_0_all"  />
<polygon points="126,40 167,40 172,35 167,30 126,30 126,40 " style="fill:#4dd815; stroke-width:1; stroke:black; " description="&lt;b&gt;JNAJGP_13895&lt;/b&gt;&lt;br&gt;GGDEF domain-containing protein&lt;br&gt;Location: 2959064 - 2960357" locus_tag="JNAJGP_13895" class="clusterblast-orf" id="dummy-6_q1_0_all"  />
<polygon points="175,40 233,40 238,35 233,30 175,30 175,40 " style="fill:#d81515; stroke-width:1; stroke:black; " description="&lt;b&gt;JNAJGP_13900&lt;/b&gt;&lt;br&gt;Acyl-CoA dehydrogenase&lt;br&gt;Location: 2960447 - 2962217" locus_tag="JNAJGP_13900" class="clusterblast-orf" id="dummy-6_q2_0_all"  />
<polygon points="242,40 300,40 305,35 300,30 242,30 242,40 " style="fill:#d81515; stroke-width:1; stroke:black; " description="&lt;b&gt;JNAJGP_13905&lt;/b&gt;&lt;br&gt;Acyl-CoA dehydrogenase&lt;br&gt;Location: 2962339 - 2964118" locus_tag="JNAJGP_13905" class="clusterblast-orf" id="dummy-6_q3_0_all"  />
<polygon points="313,35 318,30 345,30 345,40 318,40 313,35 " style="fill:#1585d8; stroke-width:1; stroke:black; " description="&lt;b&gt;JNAJGP_13915&lt;/b&gt;&lt;br&gt;HTH lysR-type domain-containing protein&lt;br&gt;Location: 2964345 - 2965245" locus_tag="JNAJGP_13915" class="clusterblast-orf" id="dummy-6_q4_0_all"  />
<polygon points="352,40 392,40 397,35 392,30 352,30 352,40 " style="fill:#a115d8; stroke-width:1; stroke:black; " description="&lt;b&gt;JNAJGP_13920&lt;/b&gt;&lt;br&gt;Acetylornithine and succinylornithine aminotransferase&lt;br&gt;Location: 2965442 - 2966705" locus_tag="JNAJGP_13920" class="clusterblast-orf" id="dummy-6_q5_0_all"  />
<polygon points="403,40 404,40 409,35 404,30 403,30 403,40 " style="fill:#d86915; stroke-width:1; stroke:black; " description="&lt;b&gt;JNAJGP_13925&lt;/b&gt;&lt;br&gt;Membrane putative modulator PMP3/YqaE, plasma membrane proteolipid 3 (PMP3)/Esi3/RCI2/UPF0057 family&lt;br&gt;Location: 2966887 - 2967046" locus_tag="JNAJGP_13925" class="clusterblast-orf" id="dummy-6_q6_0_all"  />
<polygon points="409,35 414,30 450,30 450,40 414,40 409,35 " style="fill:#15d831; stroke-width:1; stroke:black; " description="&lt;b&gt;JNAJGP_13930&lt;/b&gt;&lt;br&gt;pyrroloquinoline quinone biosynthesis protein PqqE&lt;br&gt;Location: 2967051 - 2968203" locus_tag="JNAJGP_13930" class="clusterblast-orf" id="dummy-6_q7_0_all"  />
<polygon points="449,35 454,30 459,30 459,40 454,40 449,35 " style="fill:#1531d8; stroke-width:1; stroke:black; " description="&lt;b&gt;JNAJGP_13935&lt;/b&gt;&lt;br&gt;pyrroloquinoline quinone biosynthesis peptide chaperone PqqD&lt;br&gt;Location: 2968174 - 2968450" locus_tag="JNAJGP_13935" class="clusterblast-orf" id="dummy-6_q8_0_all"  />
<polygon points="459,35 464,30 485,30 485,40 464,40 459,35 " style="fill:#d815bc; stroke-width:1; stroke:black; " description="&lt;b&gt;JNAJGP_13940&lt;/b&gt;&lt;br&gt;pyrroloquinoline-quinone synthase PqqC&lt;br&gt;Location: 2968446 - 2969199" locus_tag="JNAJGP_13940" class="clusterblast-orf" id="dummy-6_q9_0_all"  />
<polygon points="486,35 491,30 518,30 518,40 491,40 486,35 " style="fill:#d8bc15; stroke-width:1; stroke:black; " description="&lt;b&gt;JNAJGP_13945&lt;/b&gt;&lt;br&gt;pyrroloquinoline quinone biosynthesis protein PqqB&lt;br&gt;Location: 2969210 - 2970122" locus_tag="JNAJGP_13945" class="clusterblast-orf" id="dummy-6_q10_0_all"  />
<polygon points="521,35 523,30 523,40 521,35 " style="fill:#15d885; stroke-width:1; stroke:black; " description="&lt;b&gt;JNAJGP_13950&lt;/b&gt;&lt;br&gt;pyrroloquinoline quinone precursor peptide PqqA&lt;br&gt;Location: 2970193 - 2970268" locus_tag="JNAJGP_13950" class="clusterblast-orf" id="dummy-6_q11_0_all"  />
<polygon points="529,35 534,30 613,30 613,40 534,40 529,35 " style="fill:#4d15d8; stroke-width:1; stroke:black; " description="&lt;b&gt;JNAJGP_13955&lt;/b&gt;&lt;br&gt;pyrroloquinoline quinone biosynthesis protein PqqF&lt;br&gt;Location: 2970427 - 2972797" locus_tag="JNAJGP_13955" class="clusterblast-orf" id="dummy-6_q12_0_all"  />
<polygon points="615,35 620,30 643,30 643,40 620,40 615,35 " style="fill:#d81569; stroke-width:1; stroke:black; " description="&lt;b&gt;JNAJGP_13960&lt;/b&gt;&lt;br&gt;(R)-stereoselective amidase&lt;br&gt;Location: 2972856 - 2973651" locus_tag="JNAJGP_13960" class="clusterblast-orf" id="dummy-6_q13_0_all"  />
<polygon points="644,35 649,30 704,30 704,40 649,40 644,35 " style="fill:#a1d815; stroke-width:1; stroke:black; " description="&lt;b&gt;JNAJGP_13965&lt;/b&gt;&lt;br&gt;Monoamine oxidase&lt;br&gt;Location: 2973662 - 2975366" locus_tag="JNAJGP_13965" class="clusterblast-orf" id="dummy-6_q14_0_all"  />
<polygon points="709,35 714,30 725,30 725,40 714,40 709,35 " style="fill:#15d8d8; stroke-width:1; stroke:black; " description="&lt;b&gt;JNAJGP_13970&lt;/b&gt;&lt;br&gt;DNA-binding transcriptional regulator, Lrp family&lt;br&gt;Location: 2975511 - 2975958" locus_tag="JNAJGP_13970" class="clusterblast-orf" id="dummy-6_q15_0_all"  />
</g>
<g label="NZ_CP008896" description="NZ_CP008896 (3300886-3323034): Pseudomonas fluorescens strain UK4 chromosome,... (75% of genes show similarity), redox-cofactor" class="clusterblast-cluster"  >
<text x="5" y="70" class="clusterblast-acc"  >
<a xlink:href="https://antismash-db.secondarymetabolites.org/area?record=NZ_CP008896&amp;start=3300886&amp;end=3323034" target="_blank">NZ_CP008896 (3300886-3323034)</a>: Pseudomonas fluorescens strain UK4 chromosome,... (75% of genes show similarity), redox-cofactor</text>
<line x1="10" y1="85" x2="778.0" y2="85" style="stroke-width:1; stroke:grey; "  />
</g>
<g id="a6_000"  >
<polygon points="0,90 19,90 24,85 19,80 0,80 0,90 " style="fill:white; stroke-width:1; stroke:black; " description="&lt;b&gt;HZ99_RS14855&lt;/b&gt;&lt;br&gt;dethiobiotin synthase&lt;br&gt;Location: 3322878 - 3322198" locus_tag="HZ99_RS14855" class="clusterblast-orf" id="dummy-6_h6_3_0"  />
</g>
<g id="a6_001"  >
<polygon points="27,90 32,90 37,85 32,80 27,80 27,90 " style="fill:white; stroke-width:1; stroke:black; " description="&lt;b&gt;HZ99_RS14850&lt;/b&gt;&lt;br&gt;hypothetical protein&lt;br&gt;Location: 3322090 - 3321809" locus_tag="HZ99_RS14850" class="clusterblast-orf" id="dummy-6_h6_3_1"  />
</g>
<g id="a6_002"  >
<polygon points="47,90 106,90 111,85 106,80 47,80 47,90 " style="fill:#d81515; stroke-width:1; stroke:black; " description="&lt;b&gt;HZ99_RS14845&lt;/b&gt;&lt;br&gt;phenylacyl-CoA dehydrogenase&lt;br&gt;Location: 3321531 - 3319726&lt;br&gt;&lt;br&gt;&lt;b&gt;BlastP hit with JNAJGP_13890&lt;/b&gt;&lt;br&gt;Percentage identity: 98&lt;br&gt;Percentage coverage: 100&lt;br&gt;BLAST bit score: 1197&lt;br&gt;E-value: 0.0&lt;br&gt;&lt;br&gt;&lt;b&gt;BlastP hit with JNAJGP_13900&lt;/b&gt;&lt;br&gt;Percentage identity: 66&lt;br&gt;Percentage coverage: 102&lt;br&gt;BLAST bit score: 786&lt;br&gt;E-value: 6.21e-282&lt;br&gt;&lt;br&gt;&lt;b&gt;BlastP hit with JNAJGP_13905&lt;/b&gt;&lt;br&gt;Percentage identity: 54&lt;br&gt;Percentage coverage: 101&lt;br&gt;BLAST bit score: 622&lt;br&gt;E-value: 3.12e-217" locus_tag="HZ99_RS14845" class="clusterblast-orf" id="dummy-6_h6_3_2"  />
</g>
<g id="a6_003"  >
<polygon points="119,90 160,90 165,85 160,80 119,80 119,90 " style="fill:#4dd815; stroke-width:1; stroke:black; " description="&lt;b&gt;HZ99_RS14840&lt;/b&gt;&lt;br&gt;GGDEF domain-containing protein&lt;br&gt;Location: 3319519 - 3318227&lt;br&gt;&lt;br&gt;&lt;b&gt;BlastP hit with JNAJGP_13895&lt;/b&gt;&lt;br&gt;Percentage identity: 89&lt;br&gt;Percentage coverage: 100&lt;br&gt;BLAST bit score: 766&lt;br&gt;E-value: 1.83e-279" locus_tag="HZ99_RS14840" class="clusterblast-orf" id="dummy-6_h6_3_3"  />
</g>
<g id="a6_004"  >
<polygon points="176,90 234,90 239,85 234,80 176,80 176,90 " style="fill:#d81515; stroke-width:1; stroke:black; " description="&lt;b&gt;HZ99_RS14835&lt;/b&gt;&lt;br&gt;acyl-CoA dehydrogenase C-terminal domain-containing protein&lt;br&gt;Location: 3317907 - 3316129&lt;br&gt;&lt;br&gt;&lt;b&gt;BlastP hit with JNAJGP_13890&lt;/b&gt;&lt;br&gt;Percentage identity: 54&lt;br&gt;Percentage coverage: 100&lt;br&gt;BLAST bit score: 622&lt;br&gt;E-value: 1.58e-217&lt;br&gt;&lt;br&gt;&lt;b&gt;BlastP hit with JNAJGP_13900&lt;/b&gt;&lt;br&gt;Percentage identity: 57&lt;br&gt;Percentage coverage: 100&lt;br&gt;BLAST bit score: 641&lt;br&gt;E-value: 3.82e-225&lt;br&gt;&lt;br&gt;&lt;b&gt;BlastP hit with JNAJGP_13905&lt;/b&gt;&lt;br&gt;Percentage identity: 90&lt;br&gt;Percentage coverage: 100&lt;br&gt;BLAST bit score: 1060&lt;br&gt;E-value: 0.0" locus_tag="HZ99_RS14835" class="clusterblast-orf" id="dummy-6_h6_3_4"  />
</g>
<g id="a6_005"  >
<polygon points="247,85 252,80 280,80 280,90 252,90 247,85 " style="fill:#1585d8; stroke-width:1; stroke:black; " description="&lt;b&gt;HZ99_RS14830&lt;/b&gt;&lt;br&gt;LysR family transcriptional regulator&lt;br&gt;Location: 3315903 - 3314983&lt;br&gt;&lt;br&gt;&lt;b&gt;BlastP hit with JNAJGP_13915&lt;/b&gt;&lt;br&gt;Percentage identity: 94&lt;br&gt;Percentage coverage: 99&lt;br&gt;BLAST bit score: 540&lt;br&gt;E-value: 1.85e-194" locus_tag="HZ99_RS14830" class="clusterblast-orf" id="dummy-6_h6_3_5"  />
</g>
<g id="a6_006"  >
<polygon points="287,90 327,90 332,85 327,80 287,80 287,90 " style="fill:#a115d8; stroke-width:1; stroke:black; " description="&lt;b&gt;HZ99_RS14825&lt;/b&gt;&lt;br&gt;aminotransferase class III-fold pyridoxal phosphate-dependent enzyme&lt;br&gt;Location: 3314776 - 3313496&lt;br&gt;&lt;br&gt;&lt;b&gt;BlastP hit with JNAJGP_13920&lt;/b&gt;&lt;br&gt;Percentage identity: 81&lt;br&gt;Percentage coverage: 101&lt;br&gt;BLAST bit score: 681&lt;br&gt;E-value: 2.4e-246" locus_tag="HZ99_RS14825" class="clusterblast-orf" id="dummy-6_h6_3_6"  />
</g>
<g id="a6_007"  >
<polygon points="343,90 344,90 349,85 344,80 343,80 343,90 " style="fill:#d86915; stroke-width:1; stroke:black; " description="&lt;b&gt;HZ99_RS27860&lt;/b&gt;&lt;br&gt;YqaE/Pmp3 family membrane protein&lt;br&gt;Location: 3313197 - 3313039&lt;br&gt;&lt;br&gt;&lt;b&gt;BlastP hit with JNAJGP_13925&lt;/b&gt;&lt;br&gt;Percentage identity: 90&lt;br&gt;Percentage coverage: 100&lt;br&gt;BLAST bit score: 97&lt;br&gt;E-value: 4.65e-27" locus_tag="HZ99_RS27860" class="clusterblast-orf" id="dummy-6_h6_3_7"  />
</g>
<g id="a6_008"  >
<polygon points="349,85 354,80 390,80 390,90 354,90 349,85 " style="fill:#15d831; stroke-width:1; stroke:black; " description="&lt;b&gt;HZ99_RS14815&lt;/b&gt;&lt;br&gt;pyrroloquinoline quinone biosynthesis protein PqqE&lt;br&gt;Location: 3313034 - 3311883&lt;br&gt;&lt;br&gt;&lt;b&gt;BlastP hit with JNAJGP_13930&lt;/b&gt;&lt;br&gt;Percentage identity: 97&lt;br&gt;Percentage coverage: 100&lt;br&gt;BLAST bit score: 763&lt;br&gt;E-value: 3.87e-280" locus_tag="HZ99_RS14815" class="clusterblast-orf" id="dummy-6_h6_3_8"  />
</g>
<g id="a6_009"  >
<polygon points="389,85 394,80 398,80 398,90 394,90 389,85 " style="fill:#1531d8; stroke-width:1; stroke:black; " description="&lt;b&gt;HZ99_RS14810&lt;/b&gt;&lt;br&gt;pyrroloquinoline quinone biosynthesis peptide chaperone PqqD&lt;br&gt;Location: 3311911 - 3311636&lt;br&gt;&lt;br&gt;&lt;b&gt;BlastP hit with JNAJGP_13935&lt;/b&gt;&lt;br&gt;Percentage identity: 91&lt;br&gt;Percentage coverage: 100&lt;br&gt;BLAST bit score: 172&lt;br&gt;E-value: 8.61e-56" locus_tag="HZ99_RS14810" class="clusterblast-orf" id="dummy-6_h6_3_9"  />
</g>
<g id="a6_0010"  >
<polygon points="398,85 403,80 425,80 425,90 403,90 398,85 " style="fill:#d815bc; stroke-width:1; stroke:black; " description="&lt;b&gt;HZ99_RS14805&lt;/b&gt;&lt;br&gt;pyrroloquinoline-quinone synthase PqqC&lt;br&gt;Location: 3311639 - 3310887&lt;br&gt;&lt;br&gt;&lt;b&gt;BlastP hit with JNAJGP_13940&lt;/b&gt;&lt;br&gt;Percentage identity: 96&lt;br&gt;Percentage coverage: 100&lt;br&gt;BLAST bit score: 503&lt;br&gt;E-value: 9.87e-182" locus_tag="HZ99_RS14805" class="clusterblast-orf" id="dummy-6_h6_3_10"  />
</g>
<g id="a6_0011"  >
<polygon points="425,85 430,80 458,80 458,90 430,90 425,85 " style="fill:#d8bc15; stroke-width:1; stroke:black; " description="&lt;b&gt;HZ99_RS14800&lt;/b&gt;&lt;br&gt;pyrroloquinoline quinone biosynthesis protein PqqB&lt;br&gt;Location: 3310876 - 3309965&lt;br&gt;&lt;br&gt;&lt;b&gt;BlastP hit with JNAJGP_13945&lt;/b&gt;&lt;br&gt;Percentage identity: 95&lt;br&gt;Percentage coverage: 100&lt;br&gt;BLAST bit score: 605&lt;br&gt;E-value: 4.82e-220" locus_tag="HZ99_RS14800" class="clusterblast-orf" id="dummy-6_h6_3_11"  />
</g>
<g id="a6_0012"  >
<polygon points="460,85 463,80 463,90 460,85 " style="fill:#15d885; stroke-width:1; stroke:black; " description="&lt;b&gt;HZ99_RS14795&lt;/b&gt;&lt;br&gt;pyrroloquinoline quinone precursor peptide PqqA&lt;br&gt;Location: 3309889 - 3309815&lt;br&gt;&lt;br&gt;&lt;b&gt;BlastP hit with JNAJGP_13950&lt;/b&gt;&lt;br&gt;Percentage identity: 100&lt;br&gt;Percentage coverage: 100&lt;br&gt;BLAST bit score: 55&lt;br&gt;E-value: 3.69e-11" locus_tag="HZ99_RS14795" class="clusterblast-orf" id="dummy-6_h6_3_12"  />
</g>
<g id="a6_0013"  >
<polygon points="469,85 474,80 554,80 554,90 474,90 469,85 " style="fill:#4d15d8; stroke-width:1; stroke:black; " description="&lt;b&gt;HZ99_RS14790&lt;/b&gt;&lt;br&gt;pyrroloquinoline quinone biosynthesis protein PqqF&lt;br&gt;Location: 3309651 - 3307252&lt;br&gt;&lt;br&gt;&lt;b&gt;BlastP hit with JNAJGP_13955&lt;/b&gt;&lt;br&gt;Percentage identity: 66&lt;br&gt;Percentage coverage: 101&lt;br&gt;BLAST bit score: 1003&lt;br&gt;E-value: 0.0" locus_tag="HZ99_RS14790" class="clusterblast-orf" id="dummy-6_h6_3_13"  />
</g>
<g id="a6_0014"  >
<polygon points="556,85 561,80 584,80 584,90 561,90 556,85 " style="fill:#d81569; stroke-width:1; stroke:black; " description="&lt;b&gt;HZ99_RS14785&lt;/b&gt;&lt;br&gt;carbon-nitrogen hydrolase family protein&lt;br&gt;Location: 3307201 - 3306407&lt;br&gt;&lt;br&gt;&lt;b&gt;BlastP hit with JNAJGP_13960&lt;/b&gt;&lt;br&gt;Percentage identity: 86&lt;br&gt;Percentage coverage: 99&lt;br&gt;BLAST bit score: 456&lt;br&gt;E-value: 1.14e-162" locus_tag="HZ99_RS14785" class="clusterblast-orf" id="dummy-6_h6_3_14"  />
</g>
<g id="a6_0015"  >
<polygon points="584,85 589,80 644,80 644,90 589,90 584,85 " style="fill:#a1d815; stroke-width:1; stroke:black; " description="&lt;b&gt;HZ99_RS14780&lt;/b&gt;&lt;br&gt;NAD(P)/FAD-dependent oxidoreductase&lt;br&gt;Location: 3306395 - 3304704&lt;br&gt;&lt;br&gt;&lt;b&gt;BlastP hit with JNAJGP_13965&lt;/b&gt;&lt;br&gt;Percentage identity: 96&lt;br&gt;Percentage coverage: 99&lt;br&gt;BLAST bit score: 1124&lt;br&gt;E-value: 0.0" locus_tag="HZ99_RS14780" class="clusterblast-orf" id="dummy-6_h6_3_15"  />
</g>
<g id="a6_0016"  >
<polygon points="650,85 655,80 666,80 666,90 655,90 650,85 " style="fill:#15d8d8; stroke-width:1; stroke:black; " description="&lt;b&gt;HZ99_RS14775&lt;/b&gt;&lt;br&gt;Lrp/AsnC family transcriptional regulator&lt;br&gt;Location: 3304557 - 3304096&lt;br&gt;&lt;br&gt;&lt;b&gt;BlastP hit with JNAJGP_13970&lt;/b&gt;&lt;br&gt;Percentage identity: 99&lt;br&gt;Percentage coverage: 99&lt;br&gt;BLAST bit score: 274&lt;br&gt;E-value: 2.59e-94" locus_tag="HZ99_RS14775" class="clusterblast-orf" id="dummy-6_h6_3_16"  />
</g>
<g id="a6_0017"  >
<polygon points="671,85 676,80 692,80 692,90 676,90 671,85 " style="fill:white; stroke-width:1; stroke:black; " description="&lt;b&gt;HZ99_RS14770&lt;/b&gt;&lt;br&gt;hypothetical protein&lt;br&gt;Location: 3303961 - 3303374" locus_tag="HZ99_RS14770" class="clusterblast-orf" id="dummy-6_h6_3_17"  />
</g>
<g id="a6_0018"  >
<polygon points="710,85 715,80 733,80 733,90 715,90 710,85 " style="fill:white; stroke-width:1; stroke:black; " description="&lt;b&gt;HZ99_RS14765&lt;/b&gt;&lt;br&gt;hypothetical protein&lt;br&gt;Location: 3302839 - 3302210" locus_tag="HZ99_RS14765" class="clusterblast-orf" id="dummy-6_h6_3_18"  />
</g>
<g id="a6_0019"  >
<polygon points="745,90 775,90 780,85 775,80 745,80 745,90 " style="fill:white; stroke-width:1; stroke:black; " description="&lt;b&gt;HZ99_RS14760&lt;/b&gt;&lt;br&gt;nucleoid-associated protein&lt;br&gt;Location: 3301880 - 3300894" locus_tag="HZ99_RS14760" class="clusterblast-orf" id="dummy-6_h6_3_19"  />
</g>
</svg>
