<svg xmlns="http://www.w3.org/2000/svg" xmlns:xlink="http://www.w3.org/1999/xlink" version="1.1" x="0" y="0" height="230" width="800" viewBox="0 0 800 230" preserveAspectRatio="none"  >
<g label="Query sequence" class="clusterblast-cluster"  >
<text x="5" y="20" class="clusterblast-acc"  >
Query sequence</text>
<line x1="10" y1="35" x2="778.0" y2="35" style="stroke-width:1; stroke:grey; "  />
<polygon points="0,35 5,30 8,30 8,40 5,40 0,35 " style="fill:#d81515; stroke-width:1; stroke:black; " description="&lt;b&gt;JNAJGP_00145&lt;/b&gt;&lt;br&gt;hypothetical protein&lt;br&gt;Location: 27238 - 27385" locus_tag="JNAJGP_00145" class="clusterblast-orf" id="dummy-1_q0_0_all"  />
<polygon points="26,35 31,30 112,30 112,40 31,40 26,35 " style="fill:#d81515; stroke-width:1; stroke:black; " description="&lt;b&gt;JNAJGP_00150&lt;/b&gt;&lt;br&gt;polyphosphate:AMP phosphotransferase&lt;br&gt;Location: 27695 - 29210" locus_tag="JNAJGP_00150" class="clusterblast-orf" id="dummy-1_q1_0_all"  />
<polygon points="121,40 228,40 233,35 228,30 121,30 121,40 " style="fill:#5cd815; stroke-width:1; stroke:black; " description="&lt;b&gt;JNAJGP_00155&lt;/b&gt;&lt;br&gt;bifunctional tRNA (5-methylaminomethyl-2-thiouridine)(34)-methyltransferase MnmD/FAD-dependent 5-carboxymethylaminomethyl-2-thiouridine(34) oxidoreductase MnmC&lt;br&gt;Location: 29364 - 31350" locus_tag="JNAJGP_00155" class="clusterblast-orf" id="dummy-1_q2_0_all"  />
<polygon points="246,40 342,40 347,35 342,30 246,30 246,40 " style="fill:#15a3d8; stroke-width:1; stroke:black; " description="&lt;b&gt;JNAJGP_00160&lt;/b&gt;&lt;br&gt;N-acetylglutaminylglutamine amidotransferase&lt;br&gt;Location: 31575 - 33348" locus_tag="JNAJGP_00160" class="clusterblast-orf" id="dummy-1_q3_0_all"  />
<polygon points="347,40 441,40 446,35 441,30 347,30 347,40 " style="fill:#c715d8; stroke-width:1; stroke:black; " description="&lt;b&gt;JNAJGP_00165&lt;/b&gt;&lt;br&gt;N-acetylglutaminylglutamine synthetase&lt;br&gt;Location: 33351 - 35100" locus_tag="JNAJGP_00165" class="clusterblast-orf" id="dummy-1_q4_0_all"  />
<polygon points="455,40 518,40 523,35 518,30 455,30 455,40 " style="fill:#d88015; stroke-width:1; stroke:black; " description="&lt;b&gt;JNAJGP_00170&lt;/b&gt;&lt;br&gt;osmoprotectant NAGGN system M42 family peptidase&lt;br&gt;Location: 35263 - 36448" locus_tag="JNAJGP_00170" class="clusterblast-orf" id="dummy-1_q5_0_all"  />
<polygon points="526,40 534,40 539,35 534,30 526,30 526,40 " style="fill:#15d839; stroke-width:1; stroke:black; " description="&lt;b&gt;JNAJGP_00175&lt;/b&gt;&lt;br&gt;UPF0270 protein Pfl01 4103&lt;br&gt;Location: 36507 - 36735" locus_tag="JNAJGP_00175" class="clusterblast-orf" id="dummy-1_q6_0_all"  />
<polygon points="539,35 544,30 550,30 550,40 544,40 539,35 " style="fill:#1539d8; stroke-width:1; stroke:black; " description="&lt;b&gt;JNAJGP_00180&lt;/b&gt;&lt;br&gt;carbon storage regulator CsrA&lt;br&gt;Location: 36743 - 36941" locus_tag="JNAJGP_00180" class="clusterblast-orf" id="dummy-1_q7_0_all"  />
<polygon points="558,35 563,30 604,30 604,40 563,40 558,35 " style="fill:#d81580; stroke-width:1; stroke:black; " description="&lt;b&gt;JNAJGP_00185&lt;/b&gt;&lt;br&gt;SDR family oxidoreductase&lt;br&gt;Location: 37068 - 37884" locus_tag="JNAJGP_00185" class="clusterblast-orf" id="dummy-1_q8_0_all"  />
<polygon points="623,40 626,40 631,35 626,30 623,30 623,40 " style="fill:#c7d815; stroke-width:1; stroke:black; " description="&lt;b&gt;JNAJGP_00190&lt;/b&gt;&lt;br&gt;DUF3309 domain-containing protein&lt;br&gt;Location: 38212 - 38365" locus_tag="JNAJGP_00190" class="clusterblast-orf" id="dummy-1_q9_0_all"  />
<polygon points="634,35 639,30 753,30 753,40 639,40 634,35 " style="fill:#15d8a3; stroke-width:1; stroke:black; " description="&lt;b&gt;JNAJGP_00195&lt;/b&gt;&lt;br&gt;Phosphoglycerol transferase I&lt;br&gt;Location: 38416 - 40504" locus_tag="JNAJGP_00195" class="clusterblast-orf" id="dummy-1_q10_0_all"  />
<polygon points="769,35 774,30 780,30 780,40 774,40 769,35 " style="fill:#5c15d8; stroke-width:1; stroke:black; " description="&lt;b&gt;JNAJGP_00200&lt;/b&gt;&lt;br&gt;Cardiolipin synthase N-terminal domain-containing protein&lt;br&gt;Location: 40796 - 40988" locus_tag="JNAJGP_00200" class="clusterblast-orf" id="dummy-1_q11_0_all"  />
</g>
<g label="NZ_JACAQV010000010" description="NZ_JACAQV010000010 (696913-711756): Pseudomonas salomonii strain IPO3765 IPO ... (100% of genes show similarity), NAGGN" class="clusterblast-cluster"  >
<text x="5" y="70" class="clusterblast-acc"  >
<a xlink:href="https://antismash-db.secondarymetabolites.org/area?record=NZ_JACAQV010000010&amp;start=696913&amp;end=711756" target="_blank">NZ_JACAQV010000010 (696913-711756)</a>: Pseudomonas salomonii strain IPO3765 IPO ... (100% of genes show similarity), NAGGN</text>
<line x1="10" y1="85" x2="778.0" y2="85" style="stroke-width:1; stroke:grey; "  />
</g>
<g id="a1_000"  >
<polygon points="7,85 12,80 93,80 93,90 12,90 7,85 " style="fill:#d81515; stroke-width:1; stroke:black; " description="&lt;b&gt;HX810_RS12480&lt;/b&gt;&lt;br&gt;polyphosphate:AMP phosphotransferase&lt;br&gt;Location: 698090 - 699604&lt;br&gt;&lt;br&gt;&lt;b&gt;BlastP hit with JNAJGP_00145&lt;/b&gt;&lt;br&gt;Percentage identity: 91&lt;br&gt;Percentage coverage: 94&lt;br&gt;BLAST bit score: 81&lt;br&gt;E-value: 3.34e-18&lt;br&gt;&lt;br&gt;&lt;b&gt;BlastP hit with JNAJGP_00150&lt;/b&gt;&lt;br&gt;Percentage identity: 96&lt;br&gt;Percentage coverage: 100&lt;br&gt;BLAST bit score: 989&lt;br&gt;E-value: 0.0" locus_tag="HX810_RS12480" class="clusterblast-orf" id="dummy-1_h1_3_0"  />
</g>
<g id="a1_001"  >
<polygon points="102,90 210,90 215,85 210,80 102,80 102,90 " style="fill:#5cd815; stroke-width:1; stroke:black; " description="&lt;b&gt;HX810_RS12485&lt;/b&gt;&lt;br&gt;bifunctional tRNA (5-methylaminomethyl-2-thiouridine)(34)-methyltransferase MnmD/FAD-dependent 5-carboxymethylaminomethyl-2-thiouridine(34) oxidoreductase MnmC&lt;br&gt;Location: 699761 - 701749&lt;br&gt;&lt;br&gt;&lt;b&gt;BlastP hit with JNAJGP_00155&lt;/b&gt;&lt;br&gt;Percentage identity: 87&lt;br&gt;Percentage coverage: 100&lt;br&gt;BLAST bit score: 1156&lt;br&gt;E-value: 0.0" locus_tag="HX810_RS12485" class="clusterblast-orf" id="dummy-1_h1_3_1"  />
</g>
<g id="a1_002"  >
<polygon points="224,90 320,90 325,85 320,80 224,80 224,90 " style="fill:#15a3d8; stroke-width:1; stroke:black; " description="&lt;b&gt;HX810_RS12490&lt;/b&gt;&lt;br&gt;N-acetylglutaminylglutamine amidotransferase&lt;br&gt;Location: 701914 - 703686&lt;br&gt;&lt;br&gt;&lt;b&gt;BlastP hit with JNAJGP_00160&lt;/b&gt;&lt;br&gt;Percentage identity: 98&lt;br&gt;Percentage coverage: 100&lt;br&gt;BLAST bit score: 1179&lt;br&gt;E-value: 0.0" locus_tag="HX810_RS12490" class="clusterblast-orf" id="dummy-1_h1_3_2"  />
</g>
<g id="a1_003"  >
<polygon points="325,90 419,90 424,85 419,80 325,80 325,90 " style="fill:#c715d8; stroke-width:1; stroke:black; " description="&lt;b&gt;HX810_RS12495&lt;/b&gt;&lt;br&gt;N-acetylglutaminylglutamine synthetase&lt;br&gt;Location: 703690 - 705435&lt;br&gt;&lt;br&gt;&lt;b&gt;BlastP hit with JNAJGP_00165&lt;/b&gt;&lt;br&gt;Percentage identity: 95&lt;br&gt;Percentage coverage: 100&lt;br&gt;BLAST bit score: 1108&lt;br&gt;E-value: 0.0" locus_tag="HX810_RS12495" class="clusterblast-orf" id="dummy-1_h1_3_3"  />
</g>
<g id="a1_004"  >
<polygon points="432,90 494,90 499,85 494,80 432,80 432,90 " style="fill:#d88015; stroke-width:1; stroke:black; " description="&lt;b&gt;HX810_RS12500&lt;/b&gt;&lt;br&gt;osmoprotectant NAGGN system M42 family peptidase&lt;br&gt;Location: 705572 - 706756&lt;br&gt;&lt;br&gt;&lt;b&gt;BlastP hit with JNAJGP_00170&lt;/b&gt;&lt;br&gt;Percentage identity: 98&lt;br&gt;Percentage coverage: 100&lt;br&gt;BLAST bit score: 771&lt;br&gt;E-value: 8.17e-283" locus_tag="HX810_RS12500" class="clusterblast-orf" id="dummy-1_h1_3_4"  />
</g>
<g id="a1_005"  >
<polygon points="504,90 512,90 517,85 512,80 504,80 504,90 " style="fill:#15d839; stroke-width:1; stroke:black; " description="&lt;b&gt;HX810_RS12505&lt;/b&gt;&lt;br&gt;YheU family protein&lt;br&gt;Location: 706847 - 707074&lt;br&gt;&lt;br&gt;&lt;b&gt;BlastP hit with JNAJGP_00175&lt;/b&gt;&lt;br&gt;Percentage identity: 97&lt;br&gt;Percentage coverage: 100&lt;br&gt;BLAST bit score: 147&lt;br&gt;E-value: 1.6e-46" locus_tag="HX810_RS12505" class="clusterblast-orf" id="dummy-1_h1_3_5"  />
</g>
<g id="a1_006"  >
<polygon points="517,85 522,80 528,80 528,90 522,90 517,85 " style="fill:#1539d8; stroke-width:1; stroke:black; " description="&lt;b&gt;HX810_RS12510&lt;/b&gt;&lt;br&gt;carbon storage regulator CsrA&lt;br&gt;Location: 707082 - 707279&lt;br&gt;&lt;br&gt;&lt;b&gt;BlastP hit with JNAJGP_00180&lt;/b&gt;&lt;br&gt;Percentage identity: 83&lt;br&gt;Percentage coverage: 91&lt;br&gt;BLAST bit score: 93&lt;br&gt;E-value: 3.75e-25" locus_tag="HX810_RS12510" class="clusterblast-orf" id="dummy-1_h1_3_6"  />
</g>
<g id="a1_007"  >
<polygon points="542,85 547,80 589,80 589,90 547,90 542,85 " style="fill:#d81580; stroke-width:1; stroke:black; " description="&lt;b&gt;HX810_RS12515&lt;/b&gt;&lt;br&gt;SDR family oxidoreductase&lt;br&gt;Location: 707524 - 708339&lt;br&gt;&lt;br&gt;&lt;b&gt;BlastP hit with JNAJGP_00185&lt;/b&gt;&lt;br&gt;Percentage identity: 98&lt;br&gt;Percentage coverage: 100&lt;br&gt;BLAST bit score: 523&lt;br&gt;E-value: 8.4e-189" locus_tag="HX810_RS12515" class="clusterblast-orf" id="dummy-1_h1_3_7"  />
</g>
<g id="a1_008"  >
<polygon points="607,90 611,90 616,85 611,80 607,80 607,90 " style="fill:#c7d815; stroke-width:1; stroke:black; " description="&lt;b&gt;HX810_RS12520&lt;/b&gt;&lt;br&gt;DUF3309 family protein&lt;br&gt;Location: 708668 - 708820&lt;br&gt;&lt;br&gt;&lt;b&gt;BlastP hit with JNAJGP_00190&lt;/b&gt;&lt;br&gt;Percentage identity: 100&lt;br&gt;Percentage coverage: 100&lt;br&gt;BLAST bit score: 81&lt;br&gt;E-value: 1.5e-20" locus_tag="HX810_RS12520" class="clusterblast-orf" id="dummy-1_h1_3_8"  />
</g>
<g id="a1_009"  >
<polygon points="619,85 624,80 737,80 737,90 624,90 619,85 " style="fill:#15d8a3; stroke-width:1; stroke:black; " description="&lt;b&gt;HX810_RS12525&lt;/b&gt;&lt;br&gt;LTA synthase family protein&lt;br&gt;Location: 708876 - 710963&lt;br&gt;&lt;br&gt;&lt;b&gt;BlastP hit with JNAJGP_00195&lt;/b&gt;&lt;br&gt;Percentage identity: 96&lt;br&gt;Percentage coverage: 100&lt;br&gt;BLAST bit score: 1357&lt;br&gt;E-value: 0.0" locus_tag="HX810_RS12525" class="clusterblast-orf" id="dummy-1_h1_3_9"  />
</g>
<g id="a1_0010"  >
<polygon points="761,85 766,80 772,80 772,90 766,90 761,85 " style="fill:#5c15d8; stroke-width:1; stroke:black; " description="&lt;b&gt;HX810_RS12530&lt;/b&gt;&lt;br&gt;PLDc N-terminal domain-containing protein&lt;br&gt;Location: 711378 - 711569&lt;br&gt;&lt;br&gt;&lt;b&gt;BlastP hit with JNAJGP_00200&lt;/b&gt;&lt;br&gt;Percentage identity: 100&lt;br&gt;Percentage coverage: 100&lt;br&gt;BLAST bit score: 121&lt;br&gt;E-value: 2.36e-36" locus_tag="HX810_RS12530" class="clusterblast-orf" id="dummy-1_h1_3_10"  />
</g>
</svg>
