<svg xmlns="http://www.w3.org/2000/svg" xmlns:xlink="http://www.w3.org/1999/xlink" version="1.1" x="0" y="0" height="230" width="800" viewBox="0 0 800 230" preserveAspectRatio="none"  >
<g label="Query sequence" class="clusterblast-cluster"  >
<text x="5" y="20" class="clusterblast-acc"  >
Query sequence</text>
<line x1="10" y1="35" x2="778.0" y2="35" style="stroke-width:1; stroke:grey; "  />
<polygon points="0,40 32,40 37,35 32,30 0,30 0,40 " style="fill:#d81515; stroke-width:1; stroke:black; " description="&lt;b&gt;JNAJGP_24070&lt;/b&gt;&lt;br&gt;phage tail protein&lt;br&gt;Location: 5054663 - 5058125" locus_tag="JNAJGP_24070" class="clusterblast-orf" id="dummy-9_q0_0_all"  />
<polygon points="41,40 43,40 48,35 43,30 41,30 41,40 " style="fill:#5cd815; stroke-width:1; stroke:black; " description="&lt;b&gt;JNAJGP_24075&lt;/b&gt;&lt;br&gt;Phage tail protein&lt;br&gt;Location: 5058471 - 5059101" locus_tag="JNAJGP_24075" class="clusterblast-orf" id="dummy-9_q1_0_all"  />
<polygon points="48,40 51,40 56,35 51,30 48,30 48,40 " style="fill:#15c7d8; stroke-width:1; stroke:black; " description="&lt;b&gt;JNAJGP_24080&lt;/b&gt;&lt;br&gt;Phage tail protein&lt;br&gt;Location: 5059159 - 5059927" locus_tag="JNAJGP_24080" class="clusterblast-orf" id="dummy-9_q2_0_all"  />
<polygon points="56,40 59,35 56,30 56,40 " style="fill:white; stroke-width:1; stroke:black; " description="&lt;b&gt;JNAJGP_24085&lt;/b&gt;&lt;br&gt;hypothetical protein&lt;br&gt;Location: 5059926 - 5060217" locus_tag="JNAJGP_24085" class="clusterblast-orf" id="dummy-9_q3_0_all"  />
<polygon points="59,40 62,35 59,30 59,40 " style="fill:white; stroke-width:1; stroke:black; " description="&lt;b&gt;JNAJGP_24090&lt;/b&gt;&lt;br&gt;Phage tail protein&lt;br&gt;Location: 5060213 - 5060465" locus_tag="JNAJGP_24090" class="clusterblast-orf" id="dummy-9_q4_0_all"  />
<polygon points="63,40 63,40 68,35 63,30 63,30 63,40 " style="fill:#8015d8; stroke-width:1; stroke:black; " description="&lt;b&gt;JNAJGP_24095&lt;/b&gt;&lt;br&gt;Chitinase&lt;br&gt;Location: 5060520 - 5061054" locus_tag="JNAJGP_24095" class="clusterblast-orf" id="dummy-9_q5_0_all"  />
<polygon points="68,40 69,40 74,35 69,30 68,30 68,40 " style="fill:#d83915; stroke-width:1; stroke:black; " description="&lt;b&gt;JNAJGP_24100&lt;/b&gt;&lt;br&gt;Lysozyme&lt;br&gt;Location: 5061050 - 5061620" locus_tag="JNAJGP_24100" class="clusterblast-orf" id="dummy-9_q6_0_all"  />
<polygon points="74,35 77,30 77,40 74,35 " style="fill:white; stroke-width:1; stroke:black; " description="&lt;b&gt;JNAJGP_24105&lt;/b&gt;&lt;br&gt;NIPSNAP domain-containing protein&lt;br&gt;Location: 5061579 - 5061843" locus_tag="JNAJGP_24105" class="clusterblast-orf" id="dummy-9_q7_0_all"  />
<polygon points="78,35 82,30 82,40 78,35 " style="fill:#39d815; stroke-width:1; stroke:black; " description="&lt;b&gt;JNAJGP_24110&lt;/b&gt;&lt;br&gt;Lipoprotein&lt;br&gt;Location: 5061930 - 5062311" locus_tag="JNAJGP_24110" class="clusterblast-orf" id="dummy-9_q8_0_all"  />
<polygon points="87,40 91,40 96,35 91,30 87,30 87,40 " style="fill:#15a3d8; stroke-width:1; stroke:black; " description="&lt;b&gt;JNAJGP_24120&lt;/b&gt;&lt;br&gt;LysR family transcriptional regulator&lt;br&gt;Location: 5062760 - 5063663" locus_tag="JNAJGP_24120" class="clusterblast-orf" id="dummy-9_q9_0_all"  />
<polygon points="97,35 102,30 107,30 107,40 102,40 97,35 " style="fill:#a315d8; stroke-width:1; stroke:black; " description="&lt;b&gt;JNAJGP_24125&lt;/b&gt;&lt;br&gt;Cupin&lt;br&gt;Location: 5063700 - 5064642" locus_tag="JNAJGP_24125" class="clusterblast-orf" id="dummy-9_q10_0_all"  />
<polygon points="109,35 112,30 112,40 109,35 " style="fill:#d85c15; stroke-width:1; stroke:black; " description="&lt;b&gt;JNAJGP_24130&lt;/b&gt;&lt;br&gt;hypothetical protein&lt;br&gt;Location: 5064843 - 5065122" locus_tag="JNAJGP_24130" class="clusterblast-orf" id="dummy-9_q11_0_all"  />
<polygon points="114,35 119,30 137,30 137,40 119,40 114,35 " style="fill:#15d815; stroke-width:1; stroke:black; " description="&lt;b&gt;JNAJGP_24135&lt;/b&gt;&lt;br&gt;Ferric siderophore receptor&lt;br&gt;Location: 5065316 - 5067488" locus_tag="JNAJGP_24135" class="clusterblast-orf" id="dummy-9_q12_0_all"  />
<polygon points="138,35 143,30 149,30 149,40 143,40 138,35 " style="fill:#1580d8; stroke-width:1; stroke:black; " description="&lt;b&gt;JNAJGP_24140&lt;/b&gt;&lt;br&gt;Acyltransferase MbtK/IucB-like conserved domain-containing protein&lt;br&gt;Location: 5067586 - 5068606" locus_tag="JNAJGP_24140" class="clusterblast-orf" id="dummy-9_q13_0_all"  />
<polygon points="151,35 156,30 172,30 172,40 156,40 151,35 " style="fill:#c715d8; stroke-width:1; stroke:black; " description="&lt;b&gt;JNAJGP_24145&lt;/b&gt;&lt;br&gt;Fe(3+)-hydroxamate ABC transporter permease FhuB&lt;br&gt;Location: 5068765 - 5070754" locus_tag="JNAJGP_24145" class="clusterblast-orf" id="dummy-9_q14_0_all"  />
<polygon points="172,35 177,30 181,30 181,40 177,40 172,35 " style="fill:#d88015; stroke-width:1; stroke:black; " description="&lt;b&gt;JNAJGP_24150&lt;/b&gt;&lt;br&gt;Periplasmic binding protein&lt;br&gt;Location: 5070746 - 5071658" locus_tag="JNAJGP_24150" class="clusterblast-orf" id="dummy-9_q15_0_all"  />
<polygon points="183,40 196,40 201,35 196,30 183,30 183,40 " style="fill:#15d839; stroke-width:1; stroke:black; " description="&lt;b&gt;JNAJGP_24155&lt;/b&gt;&lt;br&gt;Putative ATP-binding cassette transporter&lt;br&gt;Location: 5071857 - 5073504" locus_tag="JNAJGP_24155" class="clusterblast-orf" id="dummy-9_q16_0_all"  />
<polygon points="203,40 206,40 211,35 206,30 203,30 203,40 " style="fill:#155cd8; stroke-width:1; stroke:black; " description="&lt;b&gt;JNAJGP_24160&lt;/b&gt;&lt;br&gt;Thioesterase&lt;br&gt;Location: 5073678 - 5074422" locus_tag="JNAJGP_24160" class="clusterblast-orf" id="dummy-9_q17_0_all"  />
<polygon points="211,40 217,40 222,35 217,30 211,30 211,40 " style="fill:#d815c7; stroke-width:1; stroke:black; " description="&lt;b&gt;JNAJGP_24165&lt;/b&gt;&lt;br&gt;TauD/TfdA-like domain-containing protein&lt;br&gt;Location: 5074461 - 5075442" locus_tag="JNAJGP_24165" class="clusterblast-orf" id="dummy-9_q18_0_all"  />
<polygon points="222,40 265,40 270,35 265,30 222,30 222,40 " style="fill:#d815c7; stroke-width:1; stroke:black; " description="&lt;b&gt;JNAJGP_24170&lt;/b&gt;&lt;br&gt;Non ribosomal peptide synthase&lt;br&gt;Location: 5075492 - 5079956" locus_tag="JNAJGP_24170" class="clusterblast-orf" id="dummy-9_q19_0_all"  />
<polygon points="270,40 298,40 303,35 298,30 270,30 270,40 " style="fill:#d815c7; stroke-width:1; stroke:black; " description="&lt;b&gt;JNAJGP_24175&lt;/b&gt;&lt;br&gt;Amino acid adenylation&lt;br&gt;Location: 5079967 - 5083114" locus_tag="JNAJGP_24175" class="clusterblast-orf" id="dummy-9_q20_0_all"  />
<polygon points="304,40 381,40 386,35 381,30 304,30 304,40 " style="fill:#d815c7; stroke-width:1; stroke:black; " description="&lt;b&gt;JNAJGP_24180&lt;/b&gt;&lt;br&gt;Carrier domain-containing protein&lt;br&gt;Location: 5083162 - 5090896" locus_tag="JNAJGP_24180" class="clusterblast-orf" id="dummy-9_q21_0_all"  />
<polygon points="386,40 512,40 517,35 512,30 386,30 386,40 " style="fill:#d815c7; stroke-width:1; stroke:black; " description="&lt;b&gt;JNAJGP_24185&lt;/b&gt;&lt;br&gt;non-ribosomal peptide synthetase&lt;br&gt;Location: 5090892 - 5103210" locus_tag="JNAJGP_24185" class="clusterblast-orf" id="dummy-9_q22_0_all"  />
<polygon points="517,40 556,40 561,35 556,30 517,30 517,40 " style="fill:#d815c7; stroke-width:1; stroke:black; " description="&lt;b&gt;JNAJGP_24190&lt;/b&gt;&lt;br&gt;Non-ribosomal peptide synthetase&lt;br&gt;Location: 5103211 - 5107270" locus_tag="JNAJGP_24190" class="clusterblast-orf" id="dummy-9_q23_0_all"  />
<polygon points="561,40 571,40 576,35 571,30 561,30 561,40 " style="fill:#d8a315; stroke-width:1; stroke:black; " description="&lt;b&gt;JNAJGP_24195&lt;/b&gt;&lt;br&gt;L-ornithine 5-monooxygenase&lt;br&gt;Location: 5107342 - 5108698" locus_tag="JNAJGP_24195" class="clusterblast-orf" id="dummy-9_q24_0_all"  />
<polygon points="577,40 580,40 585,35 580,30 577,30 577,40 " style="fill:#15d85c; stroke-width:1; stroke:black; " description="&lt;b&gt;JNAJGP_24200&lt;/b&gt;&lt;br&gt;siderophore-iron reductase FhuF&lt;br&gt;Location: 5108789 - 5109545" locus_tag="JNAJGP_24200" class="clusterblast-orf" id="dummy-9_q25_0_all"  />
<polygon points="585,35 590,30 593,30 593,40 590,40 585,35 " style="fill:#1539d8; stroke-width:1; stroke:black; " description="&lt;b&gt;JNAJGP_24205&lt;/b&gt;&lt;br&gt;Iron-hydroxamate transporter ATP-binding subunit&lt;br&gt;Location: 5109585 - 5110353" locus_tag="JNAJGP_24205" class="clusterblast-orf" id="dummy-9_q26_0_all"  />
<polygon points="596,35 598,30 598,40 596,35 " style="fill:white; stroke-width:1; stroke:black; " description="&lt;b&gt;JNAJGP_24210&lt;/b&gt;&lt;br&gt;hypothetical protein&lt;br&gt;Location: 5110578 - 5110803" locus_tag="JNAJGP_24210" class="clusterblast-orf" id="dummy-9_q27_0_all"  />
<polygon points="600,40 603,40 608,35 603,30 600,30 600,40 " style="fill:#d815a3; stroke-width:1; stroke:black; " description="&lt;b&gt;JNAJGP_24215&lt;/b&gt;&lt;br&gt;Lipoprotein&lt;br&gt;Location: 5110983 - 5111682" locus_tag="JNAJGP_24215" class="clusterblast-orf" id="dummy-9_q28_0_all"  />
<polygon points="609,40 612,35 609,30 609,40 " style="fill:#d8c715; stroke-width:1; stroke:black; " description="&lt;b&gt;JNAJGP_24220&lt;/b&gt;&lt;br&gt;EAL domain-containing protein&lt;br&gt;Location: 5111807 - 5112086" locus_tag="JNAJGP_24220" class="clusterblast-orf" id="dummy-9_q29_0_all"  />
<polygon points="613,40 622,40 627,35 622,30 613,30 613,40 " style="fill:#15d880; stroke-width:1; stroke:black; " description="&lt;b&gt;JNAJGP_24225&lt;/b&gt;&lt;br&gt;Methyl-accepting chemotaxis protein (2 PAS,MCP domains)&lt;br&gt;Location: 5112170 - 5113484" locus_tag="JNAJGP_24225" class="clusterblast-orf" id="dummy-9_q30_0_all"  />
<polygon points="629,40 647,40 652,35 647,30 629,30 629,40 " style="fill:#1515d8; stroke-width:1; stroke:black; " description="&lt;b&gt;JNAJGP_24230&lt;/b&gt;&lt;br&gt;Outer membrane siderophore receptor&lt;br&gt;Location: 5113706 - 5115821" locus_tag="JNAJGP_24230" class="clusterblast-orf" id="dummy-9_q31_0_all"  />
<polygon points="652,35 657,30 671,30 671,40 657,40 652,35 " style="fill:#d81580; stroke-width:1; stroke:black; " description="&lt;b&gt;JNAJGP_24235&lt;/b&gt;&lt;br&gt;Sigma-54 factor interaction domain-containing protein&lt;br&gt;Location: 5115830 - 5117648" locus_tag="JNAJGP_24235" class="clusterblast-orf" id="dummy-9_q32_0_all"  />
<polygon points="674,40 681,40 686,35 681,30 674,30 674,40 " style="fill:#c7d815; stroke-width:1; stroke:black; " description="&lt;b&gt;JNAJGP_24240&lt;/b&gt;&lt;br&gt;sn-glycerol-3-phosphate import ATP-binding protein UgpC&lt;br&gt;Location: 5117939 - 5119034" locus_tag="JNAJGP_24240" class="clusterblast-orf" id="dummy-9_q33_0_all"  />
<polygon points="686,40 693,40 698,35 693,30 686,30 686,40 " style="fill:#15d8a3; stroke-width:1; stroke:black; " description="&lt;b&gt;JNAJGP_24245&lt;/b&gt;&lt;br&gt;ABC transporter ATP-binding protein&lt;br&gt;Location: 5119033 - 5120131" locus_tag="JNAJGP_24245" class="clusterblast-orf" id="dummy-9_q34_0_all"  />
<polygon points="698,40 702,40 707,35 702,30 698,30 698,40 " style="fill:#3915d8; stroke-width:1; stroke:black; " description="&lt;b&gt;JNAJGP_24250&lt;/b&gt;&lt;br&gt;ABC-type sugar transport system, permease component&lt;br&gt;Location: 5120127 - 5120994" locus_tag="JNAJGP_24250" class="clusterblast-orf" id="dummy-9_q35_0_all"  />
<polygon points="707,40 710,40 715,35 710,30 707,30 707,40 " style="fill:#d8155c; stroke-width:1; stroke:black; " description="&lt;b&gt;JNAJGP_24255&lt;/b&gt;&lt;br&gt;ABC-type glycerol-3-phosphate transport system, permease component&lt;br&gt;Location: 5121004 - 5121805" locus_tag="JNAJGP_24255" class="clusterblast-orf" id="dummy-9_q36_0_all"  />
<polygon points="716,40 718,35 716,30 716,40 " style="fill:#a3d815; stroke-width:1; stroke:black; " description="&lt;b&gt;JNAJGP_24260&lt;/b&gt;&lt;br&gt;Small integral membrane protein&lt;br&gt;Location: 5121815 - 5122088" locus_tag="JNAJGP_24260" class="clusterblast-orf" id="dummy-9_q37_0_all"  />
<polygon points="719,40 732,40 737,35 732,30 719,30 719,40 " style="fill:#15d8c7; stroke-width:1; stroke:black; " description="&lt;b&gt;JNAJGP_24265&lt;/b&gt;&lt;br&gt;ABC transporter substrate-binding protein&lt;br&gt;Location: 5122120 - 5123863" locus_tag="JNAJGP_24265" class="clusterblast-orf" id="dummy-9_q38_0_all"  />
<polygon points="742,40 752,40 757,35 752,30 742,30 742,40 " style="fill:#5c15d8; stroke-width:1; stroke:black; " description="&lt;b&gt;JNAJGP_24270&lt;/b&gt;&lt;br&gt;Iron-containing redox enzyme family protein&lt;br&gt;Location: 5124300 - 5125680" locus_tag="JNAJGP_24270" class="clusterblast-orf" id="dummy-9_q39_0_all"  />
<polygon points="757,40 762,40 767,35 762,30 757,30 757,40 " style="fill:#d81539; stroke-width:1; stroke:black; " description="&lt;b&gt;JNAJGP_24275&lt;/b&gt;&lt;br&gt;Release factor glutamine methyltransferase&lt;br&gt;Location: 5125690 - 5126635" locus_tag="JNAJGP_24275" class="clusterblast-orf" id="dummy-9_q40_0_all"  />
<polygon points="767,40 774,40 779,35 774,30 767,30 767,40 " style="fill:#80d815; stroke-width:1; stroke:black; " description="&lt;b&gt;JNAJGP_24280&lt;/b&gt;&lt;br&gt;carboxylate-amine ligase&lt;br&gt;Location: 5126641 - 5127760" locus_tag="JNAJGP_24280" class="clusterblast-orf" id="dummy-9_q41_0_all"  />
</g>
<g label="NZ_CP012676" description="NZ_CP012676 (2357601-2431823): Pseudomonas versuta strain L10.10 chromosome, ... (38% of genes show similarity), NRP-metallophore,NRPS" class="clusterblast-cluster"  >
<text x="5" y="70" class="clusterblast-acc"  >
<a xlink:href="https://antismash-db.secondarymetabolites.org/area?record=NZ_CP012676&amp;start=2357601&amp;end=2431823" target="_blank">NZ_CP012676 (2357601-2431823)</a>: Pseudomonas versuta strain L10.10 chromosome, ... (38% of genes show similarity), NRP-metallophore,NRPS</text>
<line x1="10" y1="85" x2="778.0" y2="85" style="stroke-width:1; stroke:grey; "  />
</g>
<g id="a9_000"  >
<polygon points="0,85 5,80 5,80 5,90 5,90 0,85 " style="fill:white; stroke-width:1; stroke:black; " description="&lt;b&gt;AOC04_RS10635&lt;/b&gt;&lt;br&gt;urease subunit beta&lt;br&gt;Location: 2431529 - 2431005" locus_tag="AOC04_RS10635" class="clusterblast-orf" id="dummy-9_h9_8_0"  />
</g>
<g id="a9_001"  >
<polygon points="6,85 9,80 9,90 6,85 " style="fill:white; stroke-width:1; stroke:black; " description="&lt;b&gt;AOC04_RS10630&lt;/b&gt;&lt;br&gt;urease subunit gamma&lt;br&gt;Location: 2430950 - 2430648" locus_tag="AOC04_RS10630" class="clusterblast-orf" id="dummy-9_h9_8_1"  />
</g>
<g id="a9_002"  >
<polygon points="14,85 19,80 26,80 26,90 19,90 14,85 " style="fill:white; stroke-width:1; stroke:black; " description="&lt;b&gt;AOC04_RS10625&lt;/b&gt;&lt;br&gt;FUSC family protein&lt;br&gt;Location: 2430137 - 2429037" locus_tag="AOC04_RS10625" class="clusterblast-orf" id="dummy-9_h9_8_2"  />
</g>
<g id="a9_003"  >
<polygon points="30,90 34,90 39,85 34,80 30,80 30,90 " style="fill:white; stroke-width:1; stroke:black; " description="&lt;b&gt;AOC04_RS10620&lt;/b&gt;&lt;br&gt;LysR family transcriptional regulator&lt;br&gt;Location: 2428686 - 2427778" locus_tag="AOC04_RS10620" class="clusterblast-orf" id="dummy-9_h9_8_3"  />
</g>
<g id="a9_004"  >
<polygon points="41,90 53,90 58,85 53,80 41,80 41,90 " style="fill:white; stroke-width:1; stroke:black; " description="&lt;b&gt;AOC04_RS10615&lt;/b&gt;&lt;br&gt;MFS transporter&lt;br&gt;Location: 2427597 - 2426053" locus_tag="AOC04_RS10615" class="clusterblast-orf" id="dummy-9_h9_8_4"  />
</g>
<g id="a9_005"  >
<polygon points="58,90 64,90 69,85 64,80 58,80 58,90 " style="fill:white; stroke-width:1; stroke:black; " description="&lt;b&gt;AOC04_RS10610&lt;/b&gt;&lt;br&gt;HlyD family secretion protein&lt;br&gt;Location: 2426056 - 2424992" locus_tag="AOC04_RS10610" class="clusterblast-orf" id="dummy-9_h9_8_5"  />
</g>
<g id="a9_006"  >
<polygon points="69,90 79,90 84,85 79,80 69,80 69,90 " style="fill:white; stroke-width:1; stroke:black; " description="&lt;b&gt;AOC04_RS10605&lt;/b&gt;&lt;br&gt;efflux transporter outer membrane subunit&lt;br&gt;Location: 2424995 - 2423565" locus_tag="AOC04_RS10605" class="clusterblast-orf" id="dummy-9_h9_8_6"  />
</g>
<g id="a9_007"  >
<polygon points="86,90 95,90 100,85 95,80 86,80 86,90 " style="fill:white; stroke-width:1; stroke:black; " description="&lt;b&gt;AOC04_RS10600&lt;/b&gt;&lt;br&gt;MFS transporter&lt;br&gt;Location: 2423401 - 2422082" locus_tag="AOC04_RS10600" class="clusterblast-orf" id="dummy-9_h9_8_7"  />
</g>
<g id="a9_008"  >
<polygon points="101,90 103,85 101,80 101,90 " style="fill:white; stroke-width:1; stroke:black; " description="&lt;b&gt;AOC04_RS10595&lt;/b&gt;&lt;br&gt;MbtH family protein&lt;br&gt;Location: 2421972 - 2421769" locus_tag="AOC04_RS10595" class="clusterblast-orf" id="dummy-9_h9_8_8"  />
</g>
<g id="a9_009"  >
<polygon points="105,85 110,80 129,80 129,90 110,90 105,85 " style="fill:#15d815; stroke-width:1; stroke:black; " description="&lt;b&gt;AOC04_RS10590&lt;/b&gt;&lt;br&gt;TonB-dependent siderophore receptor&lt;br&gt;Location: 2421580 - 2419409&lt;br&gt;&lt;br&gt;&lt;b&gt;BlastP hit with JNAJGP_24135&lt;/b&gt;&lt;br&gt;Percentage identity: 88&lt;br&gt;Percentage coverage: 100&lt;br&gt;BLAST bit score: 1303&lt;br&gt;E-value: 0.0" locus_tag="AOC04_RS10590" class="clusterblast-orf" id="dummy-9_h9_8_9"  />
</g>
<g id="a9_0010"  >
<polygon points="130,85 135,80 141,80 141,90 135,90 130,85 " style="fill:#1580d8; stroke-width:1; stroke:black; " description="&lt;b&gt;AOC04_RS10585&lt;/b&gt;&lt;br&gt;GNAT family N-acetyltransferase&lt;br&gt;Location: 2419310 - 2418291&lt;br&gt;&lt;br&gt;&lt;b&gt;BlastP hit with JNAJGP_24140&lt;/b&gt;&lt;br&gt;Percentage identity: 90&lt;br&gt;Percentage coverage: 100&lt;br&gt;BLAST bit score: 654&lt;br&gt;E-value: 2.44e-238" locus_tag="AOC04_RS10585" class="clusterblast-orf" id="dummy-9_h9_8_10"  />
</g>
<g id="a9_0011"  >
<polygon points="142,85 147,80 163,80 163,90 147,90 142,85 " style="fill:#c715d8; stroke-width:1; stroke:black; " description="&lt;b&gt;AOC04_RS10580&lt;/b&gt;&lt;br&gt;Fe(3+)-hydroxamate ABC transporter permease FhuB&lt;br&gt;Location: 2418129 - 2416141&lt;br&gt;&lt;br&gt;&lt;b&gt;BlastP hit with JNAJGP_24145&lt;/b&gt;&lt;br&gt;Percentage identity: 90&lt;br&gt;Percentage coverage: 100&lt;br&gt;BLAST bit score: 1077&lt;br&gt;E-value: 0.0" locus_tag="AOC04_RS10580" class="clusterblast-orf" id="dummy-9_h9_8_11"  />
</g>
<g id="a9_0012"  >
<polygon points="163,85 168,80 173,80 173,90 168,90 163,85 " style="fill:#d88015; stroke-width:1; stroke:black; " description="&lt;b&gt;AOC04_RS10575&lt;/b&gt;&lt;br&gt;ABC transporter substrate-binding protein&lt;br&gt;Location: 2416148 - 2415237&lt;br&gt;&lt;br&gt;&lt;b&gt;BlastP hit with JNAJGP_24150&lt;/b&gt;&lt;br&gt;Percentage identity: 87&lt;br&gt;Percentage coverage: 99&lt;br&gt;BLAST bit score: 517&lt;br&gt;E-value: 1.9e-185" locus_tag="AOC04_RS10575" class="clusterblast-orf" id="dummy-9_h9_8_12"  />
</g>
<g id="a9_0013"  >
<polygon points="175,90 187,90 192,85 187,80 175,80 175,90 " style="fill:#15d839; stroke-width:1; stroke:black; " description="&lt;b&gt;AOC04_RS10570&lt;/b&gt;&lt;br&gt;cyclic peptide export ABC transporter&lt;br&gt;Location: 2415043 - 2413436&lt;br&gt;&lt;br&gt;&lt;b&gt;BlastP hit with JNAJGP_24155&lt;/b&gt;&lt;br&gt;Percentage identity: 93&lt;br&gt;Percentage coverage: 98&lt;br&gt;BLAST bit score: 941&lt;br&gt;E-value: 0.0" locus_tag="AOC04_RS10570" class="clusterblast-orf" id="dummy-9_h9_8_13"  />
</g>
<g id="a9_0014"  >
<polygon points="201,90 204,90 209,85 204,80 201,80 201,90 " style="fill:#155cd8; stroke-width:1; stroke:black; " description="&lt;b&gt;AOC04_RS10565&lt;/b&gt;&lt;br&gt;alpha/beta fold hydrolase&lt;br&gt;Location: 2412621 - 2411863&lt;br&gt;&lt;br&gt;&lt;b&gt;BlastP hit with JNAJGP_24160&lt;/b&gt;&lt;br&gt;Percentage identity: 83&lt;br&gt;Percentage coverage: 102&lt;br&gt;BLAST bit score: 410&lt;br&gt;E-value: 5.06e-145" locus_tag="AOC04_RS10565" class="clusterblast-orf" id="dummy-9_h9_8_14"  />
</g>
<g id="a9_0015"  >
<polygon points="209,90 215,90 220,85 215,80 209,80 209,90 " style="fill:#d815c7; stroke-width:1; stroke:black; " description="&lt;b&gt;AOC04_RS10560&lt;/b&gt;&lt;br&gt;TauD/TfdA family dioxygenase&lt;br&gt;Location: 2411823 - 2410843&lt;br&gt;&lt;br&gt;&lt;b&gt;BlastP hit with JNAJGP_24165&lt;/b&gt;&lt;br&gt;Percentage identity: 92&lt;br&gt;Percentage coverage: 100&lt;br&gt;BLAST bit score: 627&lt;br&gt;E-value: 5.89e-228" locus_tag="AOC04_RS10560" class="clusterblast-orf" id="dummy-9_h9_8_15"  />
</g>
<g id="a9_0016"  >
<polygon points="220,90 263,90 268,85 263,80 220,80 220,90 " style="fill:#d815c7; stroke-width:1; stroke:black; " description="&lt;b&gt;AOC04_RS10555&lt;/b&gt;&lt;br&gt;AMP-binding protein&lt;br&gt;Location: 2410793 - 2406321&lt;br&gt;&lt;br&gt;&lt;b&gt;BlastP hit with JNAJGP_24165&lt;/b&gt;&lt;br&gt;Percentage identity: 45&lt;br&gt;Percentage coverage: 95&lt;br&gt;BLAST bit score: 266&lt;br&gt;E-value: 3.29e-78&lt;br&gt;&lt;br&gt;&lt;b&gt;BlastP hit with JNAJGP_24170&lt;/b&gt;&lt;br&gt;Percentage identity: 88&lt;br&gt;Percentage coverage: 100&lt;br&gt;BLAST bit score: 2591&lt;br&gt;E-value: 0.0" locus_tag="AOC04_RS10555" class="clusterblast-orf" id="dummy-9_h9_8_16"  />
</g>
<g id="a9_0017"  >
<polygon points="268,90 297,90 302,85 297,80 268,80 268,90 " style="fill:#d815c7; stroke-width:1; stroke:black; " description="&lt;b&gt;AOC04_RS10550&lt;/b&gt;&lt;br&gt;amino acid adenylation domain-containing protein&lt;br&gt;Location: 2406309 - 2403169&lt;br&gt;&lt;br&gt;&lt;b&gt;BlastP hit with JNAJGP_24175&lt;/b&gt;&lt;br&gt;Percentage identity: 79&lt;br&gt;Percentage coverage: 100&lt;br&gt;BLAST bit score: 1602&lt;br&gt;E-value: 0.0" locus_tag="AOC04_RS10550" class="clusterblast-orf" id="dummy-9_h9_8_17"  />
</g>
<g id="a9_0018"  >
<polygon points="302,90 379,90 384,85 379,80 302,80 302,90 " style="fill:#d815c7; stroke-width:1; stroke:black; " description="&lt;b&gt;AOC04_RS10545&lt;/b&gt;&lt;br&gt;non-ribosomal peptide synthetase&lt;br&gt;Location: 2403120 - 2395396&lt;br&gt;&lt;br&gt;&lt;b&gt;BlastP hit with JNAJGP_24175&lt;/b&gt;&lt;br&gt;Percentage identity: 33&lt;br&gt;Percentage coverage: 89&lt;br&gt;BLAST bit score: 355&lt;br&gt;E-value: 1.57e-100&lt;br&gt;&lt;br&gt;&lt;b&gt;BlastP hit with JNAJGP_24180&lt;/b&gt;&lt;br&gt;Percentage identity: 86&lt;br&gt;Percentage coverage: 100&lt;br&gt;BLAST bit score: 4438&lt;br&gt;E-value: 0.0&lt;br&gt;&lt;br&gt;&lt;b&gt;BlastP hit with JNAJGP_24185&lt;/b&gt;&lt;br&gt;Percentage identity: 41&lt;br&gt;Percentage coverage: 99&lt;br&gt;BLAST bit score: 2483&lt;br&gt;E-value: 0.0" locus_tag="AOC04_RS10545" class="clusterblast-orf" id="dummy-9_h9_8_18"  />
</g>
<g id="a9_0019"  >
<polygon points="384,90 511,90 516,85 511,80 384,80 384,90 " style="fill:#d815c7; stroke-width:1; stroke:black; " description="&lt;b&gt;AOC04_RS10540&lt;/b&gt;&lt;br&gt;non-ribosomal peptide synthetase&lt;br&gt;Location: 2395399 - 2383085&lt;br&gt;&lt;br&gt;&lt;b&gt;BlastP hit with JNAJGP_24175&lt;/b&gt;&lt;br&gt;Percentage identity: 33&lt;br&gt;Percentage coverage: 94&lt;br&gt;BLAST bit score: 337&lt;br&gt;E-value: 3.81e-94&lt;br&gt;&lt;br&gt;&lt;b&gt;BlastP hit with JNAJGP_24180&lt;/b&gt;&lt;br&gt;Percentage identity: 40&lt;br&gt;Percentage coverage: 158&lt;br&gt;BLAST bit score: 2458&lt;br&gt;E-value: 0.0&lt;br&gt;&lt;br&gt;&lt;b&gt;BlastP hit with JNAJGP_24185&lt;/b&gt;&lt;br&gt;Percentage identity: 87&lt;br&gt;Percentage coverage: 100&lt;br&gt;BLAST bit score: 6970&lt;br&gt;E-value: 0.0&lt;br&gt;&lt;br&gt;&lt;b&gt;BlastP hit with JNAJGP_24190&lt;/b&gt;&lt;br&gt;Percentage identity: 38&lt;br&gt;Percentage coverage: 81&lt;br&gt;BLAST bit score: 571&lt;br&gt;E-value: 3.53e-170" locus_tag="AOC04_RS10540" class="clusterblast-orf" id="dummy-9_h9_8_19"  />
</g>
<g id="a9_0020"  >
<polygon points="516,90 554,90 559,85 554,80 516,80 516,90 " style="fill:#d815c7; stroke-width:1; stroke:black; " description="&lt;b&gt;AOC04_RS10535&lt;/b&gt;&lt;br&gt;non-ribosomal peptide synthetase&lt;br&gt;Location: 2383083 - 2379025&lt;br&gt;&lt;br&gt;&lt;b&gt;BlastP hit with JNAJGP_24175&lt;/b&gt;&lt;br&gt;Percentage identity: 34&lt;br&gt;Percentage coverage: 83&lt;br&gt;BLAST bit score: 318&lt;br&gt;E-value: 6.28e-89&lt;br&gt;&lt;br&gt;&lt;b&gt;BlastP hit with JNAJGP_24190&lt;/b&gt;&lt;br&gt;Percentage identity: 85&lt;br&gt;Percentage coverage: 100&lt;br&gt;BLAST bit score: 2226&lt;br&gt;E-value: 0.0" locus_tag="AOC04_RS10535" class="clusterblast-orf" id="dummy-9_h9_8_20"  />
</g>
<g id="a9_0021"  >
<polygon points="560,90 569,90 574,85 569,80 560,80 560,90 " style="fill:#d8a315; stroke-width:1; stroke:black; " description="&lt;b&gt;AOC04_RS10530&lt;/b&gt;&lt;br&gt;SidA/IucD/PvdA family monooxygenase&lt;br&gt;Location: 2378951 - 2377602&lt;br&gt;&lt;br&gt;&lt;b&gt;BlastP hit with JNAJGP_24195&lt;/b&gt;&lt;br&gt;Percentage identity: 89&lt;br&gt;Percentage coverage: 98&lt;br&gt;BLAST bit score: 774&lt;br&gt;E-value: 5.45e-282" locus_tag="AOC04_RS10530" class="clusterblast-orf" id="dummy-9_h9_8_21"  />
</g>
<g id="a9_0022"  >
<polygon points="575,90 578,90 583,85 578,80 575,80 575,90 " style="fill:#15d85c; stroke-width:1; stroke:black; " description="&lt;b&gt;AOC04_RS10525&lt;/b&gt;&lt;br&gt;siderophore-iron reductase FhuF&lt;br&gt;Location: 2377511 - 2376756&lt;br&gt;&lt;br&gt;&lt;b&gt;BlastP hit with JNAJGP_24200&lt;/b&gt;&lt;br&gt;Percentage identity: 86&lt;br&gt;Percentage coverage: 100&lt;br&gt;BLAST bit score: 443&lt;br&gt;E-value: 9.12e-158" locus_tag="AOC04_RS10525" class="clusterblast-orf" id="dummy-9_h9_8_22"  />
</g>
<g id="a9_0023"  >
<polygon points="583,85 588,80 591,80 591,90 588,90 583,85 " style="fill:#1539d8; stroke-width:1; stroke:black; " description="&lt;b&gt;AOC04_RS10520&lt;/b&gt;&lt;br&gt;ATP-binding cassette domain-containing protein&lt;br&gt;Location: 2376732 - 2375965&lt;br&gt;&lt;br&gt;&lt;b&gt;BlastP hit with JNAJGP_24205&lt;/b&gt;&lt;br&gt;Percentage identity: 94&lt;br&gt;Percentage coverage: 100&lt;br&gt;BLAST bit score: 479&lt;br&gt;E-value: 8.29e-172" locus_tag="AOC04_RS10520" class="clusterblast-orf" id="dummy-9_h9_8_23"  />
</g>
<g id="a9_0024"  >
<polygon points="593,90 594,90 599,85 594,80 593,80 593,90 " style="fill:white; stroke-width:1; stroke:black; " description="&lt;b&gt;AOC04_RS10515&lt;/b&gt;&lt;br&gt;sigma-70 family RNA polymerase sigma factor&lt;br&gt;Location: 2375787 - 2375293" locus_tag="AOC04_RS10515" class="clusterblast-orf" id="dummy-9_h9_8_24"  />
</g>
<g id="a9_0025"  >
<polygon points="599,90 604,90 609,85 604,80 599,80 599,90 " style="fill:white; stroke-width:1; stroke:black; " description="&lt;b&gt;AOC04_RS10510&lt;/b&gt;&lt;br&gt;FecR family protein&lt;br&gt;Location: 2375269 - 2374295" locus_tag="AOC04_RS10510" class="clusterblast-orf" id="dummy-9_h9_8_25"  />
</g>
<g id="a9_0026"  >
<polygon points="611,90 632,90 637,85 632,80 611,80 611,90 " style="fill:white; stroke-width:1; stroke:black; " description="&lt;b&gt;AOC04_RS10505&lt;/b&gt;&lt;br&gt;TonB-dependent receptor&lt;br&gt;Location: 2374137 - 2371720" locus_tag="AOC04_RS10505" class="clusterblast-orf" id="dummy-9_h9_8_26"  />
</g>
<g id="a9_0027"  >
<polygon points="638,85 643,80 650,80 650,90 643,90 638,85 " style="fill:white; stroke-width:1; stroke:black; " description="&lt;b&gt;AOC04_RS10500&lt;/b&gt;&lt;br&gt;MFS transporter&lt;br&gt;Location: 2371622 - 2370471" locus_tag="AOC04_RS10500" class="clusterblast-orf" id="dummy-9_h9_8_27"  />
</g>
<g id="a9_0028"  >
<polygon points="651,90 651,90 656,85 651,80 651,80 651,90 " style="fill:white; stroke-width:1; stroke:black; " description="&lt;b&gt;AOC04_RS10495&lt;/b&gt;&lt;br&gt;RidA family protein&lt;br&gt;Location: 2370322 - 2369900" locus_tag="AOC04_RS10495" class="clusterblast-orf" id="dummy-9_h9_8_28"  />
</g>
<g id="a9_0029"  >
<polygon points="657,85 662,80 679,80 679,90 662,90 657,85 " style="fill:white; stroke-width:1; stroke:black; " description="&lt;b&gt;AOC04_RS10490&lt;/b&gt;&lt;br&gt;excinuclease ABC subunit UvrB&lt;br&gt;Location: 2369787 - 2367772" locus_tag="AOC04_RS10490" class="clusterblast-orf" id="dummy-9_h9_8_29"  />
</g>
<g id="a9_0030"  >
<polygon points="682,90 690,90 695,85 690,80 682,80 682,90 " style="fill:white; stroke-width:1; stroke:black; " description="&lt;b&gt;AOC04_RS10485&lt;/b&gt;&lt;br&gt;aspartate/tyrosine/aromatic aminotransferase&lt;br&gt;Location: 2367437 - 2366241" locus_tag="AOC04_RS10485" class="clusterblast-orf" id="dummy-9_h9_8_30"  />
</g>
<g id="a9_0031"  >
<polygon points="698,85 703,80 706,80 706,90 703,90 698,85 " style="fill:white; stroke-width:1; stroke:black; " description="&lt;b&gt;AOC04_RS10475&lt;/b&gt;&lt;br&gt;hypothetical protein&lt;br&gt;Location: 2365946 - 2365224" locus_tag="AOC04_RS10475" class="clusterblast-orf" id="dummy-9_h9_8_31"  />
</g>
<g id="a9_0032"  >
<polygon points="710,85 715,80 720,80 720,90 715,90 710,85 " style="fill:white; stroke-width:1; stroke:black; " description="&lt;b&gt;AOC04_RS10470&lt;/b&gt;&lt;br&gt;LysR family transcriptional regulator&lt;br&gt;Location: 2364849 - 2363887" locus_tag="AOC04_RS10470" class="clusterblast-orf" id="dummy-9_h9_8_32"  />
</g>
<g id="a9_0033"  >
<polygon points="721,85 726,80 735,80 735,90 726,90 721,85 " style="fill:white; stroke-width:1; stroke:black; " description="&lt;b&gt;AOC04_RS10465&lt;/b&gt;&lt;br&gt;diaminopimelate decarboxylase&lt;br&gt;Location: 2363749 - 2362460" locus_tag="AOC04_RS10465" class="clusterblast-orf" id="dummy-9_h9_8_33"  />
</g>
<g id="a9_0034"  >
<polygon points="736,85 741,80 743,80 743,90 741,90 736,85 " style="fill:white; stroke-width:1; stroke:black; " description="&lt;b&gt;AOC04_RS10460&lt;/b&gt;&lt;br&gt;amino acid ABC transporter permease&lt;br&gt;Location: 2362372 - 2361701" locus_tag="AOC04_RS10460" class="clusterblast-orf" id="dummy-9_h9_8_34"  />
</g>
<g id="a9_0035"  >
<polygon points="744,85 749,80 751,80 751,90 749,90 744,85 " style="fill:white; stroke-width:1; stroke:black; " description="&lt;b&gt;AOC04_RS10455&lt;/b&gt;&lt;br&gt;amino acid ABC transporter permease&lt;br&gt;Location: 2361674 - 2360985" locus_tag="AOC04_RS10455" class="clusterblast-orf" id="dummy-9_h9_8_35"  />
</g>
<g id="a9_0036"  >
<polygon points="752,85 757,80 761,80 761,90 757,90 752,85 " style="fill:white; stroke-width:1; stroke:black; " description="&lt;b&gt;AOC04_RS10450&lt;/b&gt;&lt;br&gt;ABC transporter substrate-binding protein&lt;br&gt;Location: 2360880 - 2360083" locus_tag="AOC04_RS10450" class="clusterblast-orf" id="dummy-9_h9_8_36"  />
</g>
<g id="a9_0037"  >
<polygon points="762,85 767,80 770,80 770,90 767,90 762,85 " style="fill:white; stroke-width:1; stroke:black; " description="&lt;b&gt;AOC04_RS10445&lt;/b&gt;&lt;br&gt;amino acid ABC transporter ATP-binding protein&lt;br&gt;Location: 2359978 - 2359226" locus_tag="AOC04_RS10445" class="clusterblast-orf" id="dummy-9_h9_8_37"  />
</g>
<g id="a9_0038"  >
<polygon points="770,85 775,80 780,80 780,90 775,90 770,85 " style="fill:white; stroke-width:1; stroke:black; " description="&lt;b&gt;AOC04_RS10440&lt;/b&gt;&lt;br&gt;diaminopimelate epimerase&lt;br&gt;Location: 2359197 - 2358301" locus_tag="AOC04_RS10440" class="clusterblast-orf" id="dummy-9_h9_8_38"  />
</g>
</svg>
