<svg xmlns="http://www.w3.org/2000/svg" xmlns:xlink="http://www.w3.org/1999/xlink" version="1.1" x="0" y="0" height="230" width="800" viewBox="0 0 800 230" preserveAspectRatio="none"  >
<g label="Query sequence" class="clusterblast-cluster"  >
<text x="5" y="20" class="clusterblast-acc"  >
Query sequence</text>
<line x1="10" y1="35" x2="778.0" y2="35" style="stroke-width:1; stroke:grey; "  />
<polygon points="4,35 9,30 43,30 43,40 9,40 4,35 " style="fill:#d81515; stroke-width:1; stroke:black; " description="&lt;b&gt;JNAJGP_10370&lt;/b&gt;&lt;br&gt;Membrane fusion protein biotin-lipoyl like domain-containing protein&lt;br&gt;Location: 2187504 - 2189601" locus_tag="JNAJGP_10370" class="clusterblast-orf" id="dummy-4_q0_0_all"  />
<polygon points="43,35 48,30 67,30 67,40 48,40 43,35 " style="fill:#58d815; stroke-width:1; stroke:black; " description="&lt;b&gt;JNAJGP_10375&lt;/b&gt;&lt;br&gt;Membrane fusion protein biotin-lipoyl like domain-containing protein&lt;br&gt;Location: 2189600 - 2190920" locus_tag="JNAJGP_10375" class="clusterblast-orf" id="dummy-4_q1_0_all"  />
<polygon points="67,35 72,30 81,30 81,40 72,40 67,35 " style="fill:#15c4d8; stroke-width:1; stroke:black; " description="&lt;b&gt;JNAJGP_10380&lt;/b&gt;&lt;br&gt;Membrane fusion protein biotin-lipoyl like domain-containing protein&lt;br&gt;Location: 2190916 - 2191690" locus_tag="JNAJGP_10380" class="clusterblast-orf" id="dummy-4_q2_0_all"  />
<polygon points="84,40 118,40 123,35 118,30 84,30 84,40 " style="fill:#8115d8; stroke-width:1; stroke:black; " description="&lt;b&gt;JNAJGP_10385&lt;/b&gt;&lt;br&gt;Outer membrane assembly lipoprotein YfiO&lt;br&gt;Location: 2191852 - 2194012" locus_tag="JNAJGP_10385" class="clusterblast-orf" id="dummy-4_q3_0_all"  />
<polygon points="123,40 131,40 136,35 131,30 123,30 123,40 " style="fill:#d83e15; stroke-width:1; stroke:black; " description="&lt;b&gt;JNAJGP_10390&lt;/b&gt;&lt;br&gt;DUF3142 domain-containing protein&lt;br&gt;Location: 2194008 - 2194713" locus_tag="JNAJGP_10390" class="clusterblast-orf" id="dummy-4_q4_0_all"  />
<polygon points="141,40 145,35 141,30 141,40 " style="fill:#30d815; stroke-width:1; stroke:black; " description="&lt;b&gt;JNAJGP_10395&lt;/b&gt;&lt;br&gt;Nucleotidyl transferase AbiEii/AbiGii toxin family protein&lt;br&gt;Location: 2195001 - 2195217" locus_tag="JNAJGP_10395" class="clusterblast-orf" id="dummy-4_q5_0_all"  />
<polygon points="152,35 157,30 178,30 178,40 157,40 152,35 " style="fill:#159cd8; stroke-width:1; stroke:black; " description="&lt;b&gt;JNAJGP_10400&lt;/b&gt;&lt;br&gt;RND transporter&lt;br&gt;Location: 2195577 - 2197023" locus_tag="JNAJGP_10400" class="clusterblast-orf" id="dummy-4_q6_0_all"  />
<polygon points="178,35 183,30 198,30 198,40 183,40 178,35 " style="fill:#a915d8; stroke-width:1; stroke:black; " description="&lt;b&gt;JNAJGP_10405&lt;/b&gt;&lt;br&gt;HlyD family secretion protein&lt;br&gt;Location: 2197019 - 2198078" locus_tag="JNAJGP_10405" class="clusterblast-orf" id="dummy-4_q7_0_all"  />
<polygon points="198,35 203,30 226,30 226,40 203,40 198,35 " style="fill:#d86615; stroke-width:1; stroke:black; " description="&lt;b&gt;JNAJGP_10410&lt;/b&gt;&lt;br&gt;Major facilitator superfamily (MFS) profile domain-containing protein&lt;br&gt;Location: 2198094 - 2199630" locus_tag="JNAJGP_10410" class="clusterblast-orf" id="dummy-4_q8_0_all"  />
<polygon points="230,35 235,30 247,30 247,40 235,40 230,35 " style="fill:#15d823; stroke-width:1; stroke:black; " description="&lt;b&gt;JNAJGP_10415&lt;/b&gt;&lt;br&gt;HTH lysR-type domain-containing protein&lt;br&gt;Location: 2199845 - 2200766" locus_tag="JNAJGP_10415" class="clusterblast-orf" id="dummy-4_q9_0_all"  />
<polygon points="248,35 253,30 263,30 263,40 253,40 248,35 " style="fill:#1573d8; stroke-width:1; stroke:black; " description="&lt;b&gt;JNAJGP_10420&lt;/b&gt;&lt;br&gt;ABC transmembrane type-1 domain-containing protein&lt;br&gt;Location: 2200820 - 2201669" locus_tag="JNAJGP_10420" class="clusterblast-orf" id="dummy-4_q10_0_all"  />
<polygon points="263,35 268,30 279,30 279,40 268,40 263,35 " style="fill:#d215d8; stroke-width:1; stroke:black; " description="&lt;b&gt;JNAJGP_10425&lt;/b&gt;&lt;br&gt;Vitamin B12 import ATP-binding protein BtuD&lt;br&gt;Location: 2201680 - 2202532" locus_tag="JNAJGP_10425" class="clusterblast-orf" id="dummy-4_q11_0_all"  />
<polygon points="279,35 284,30 298,30 298,40 284,40 279,35 " style="fill:#d88e15; stroke-width:1; stroke:black; " description="&lt;b&gt;JNAJGP_10430&lt;/b&gt;&lt;br&gt;SsuA/THI5-like domain-containing protein&lt;br&gt;Location: 2202533 - 2203559" locus_tag="JNAJGP_10430" class="clusterblast-orf" id="dummy-4_q12_0_all"  />
<polygon points="298,35 303,30 314,30 314,40 303,40 298,35 " style="fill:#15d84b; stroke-width:1; stroke:black; " description="&lt;b&gt;JNAJGP_10435&lt;/b&gt;&lt;br&gt;Alpha-ketoglutarate-dependent taurine dioxygenase&lt;br&gt;Location: 2203573 - 2204467" locus_tag="JNAJGP_10435" class="clusterblast-orf" id="dummy-4_q13_0_all"  />
<polygon points="319,40 327,40 332,35 327,30 319,30 319,40 " style="fill:#154bd8; stroke-width:1; stroke:black; " description="&lt;b&gt;JNAJGP_10440&lt;/b&gt;&lt;br&gt;HTH gntR-type domain-containing protein&lt;br&gt;Location: 2204734 - 2205445" locus_tag="JNAJGP_10440" class="clusterblast-orf" id="dummy-4_q14_0_all"  />
<polygon points="338,40 347,40 352,35 347,30 338,30 338,40 " style="fill:#d815b7; stroke-width:1; stroke:black; " description="&lt;b&gt;JNAJGP_10445&lt;/b&gt;&lt;br&gt;Mangotoxin biosynthesis-involved protein MgoB&lt;br&gt;Location: 2205768 - 2206527" locus_tag="JNAJGP_10445" class="clusterblast-orf" id="dummy-4_q15_0_all"  />
<polygon points="352,40 364,40 369,35 364,30 352,30 352,40 " style="fill:#d8b715; stroke-width:1; stroke:black; " description="&lt;b&gt;JNAJGP_10450&lt;/b&gt;&lt;br&gt;p-aminobenzoate N-oxygenase AurF&lt;br&gt;Location: 2206523 - 2207462" locus_tag="JNAJGP_10450" class="clusterblast-orf" id="dummy-4_q16_0_all"  />
<polygon points="369,40 425,40 430,35 425,30 369,30 369,40 " style="fill:#15d873; stroke-width:1; stroke:black; " description="&lt;b&gt;JNAJGP_10455&lt;/b&gt;&lt;br&gt;Amino acid adenylation:thioester reductase&lt;br&gt;Location: 2207458 - 2210839" locus_tag="JNAJGP_10455" class="clusterblast-orf" id="dummy-4_q17_0_all"  />
<polygon points="431,40 434,40 439,35 434,30 431,30 431,40 " style="fill:#1523d8; stroke-width:1; stroke:black; " description="&lt;b&gt;JNAJGP_10460&lt;/b&gt;&lt;br&gt;Polyketide cyclase/dehydrase&lt;br&gt;Location: 2210858 - 2211323" locus_tag="JNAJGP_10460" class="clusterblast-orf" id="dummy-4_q18_0_all"  />
<polygon points="440,35 445,30 474,30 474,40 445,40 440,35 " style="fill:#d8158e; stroke-width:1; stroke:black; " description="&lt;b&gt;JNAJGP_10465&lt;/b&gt;&lt;br&gt;Chemotaxis protein&lt;br&gt;Location: 2211358 - 2213239" locus_tag="JNAJGP_10465" class="clusterblast-orf" id="dummy-4_q19_0_all"  />
<polygon points="585,35 590,30 607,30 607,40 590,40 585,35 " style="fill:#d2d815; stroke-width:1; stroke:black; " description="&lt;b&gt;JNAJGP_10495&lt;/b&gt;&lt;br&gt;CoA-transferase&lt;br&gt;Location: 2219310 - 2220531" locus_tag="JNAJGP_10495" class="clusterblast-orf" id="dummy-4_q20_0_all"  />
<polygon points="608,35 613,30 629,30 629,40 613,40 608,35 " style="fill:#15d89c; stroke-width:1; stroke:black; " description="&lt;b&gt;JNAJGP_10500&lt;/b&gt;&lt;br&gt;Acyl-CoA dehydrogenase related to the alkylation response protein AidB&lt;br&gt;Location: 2220543 - 2221725" locus_tag="JNAJGP_10500" class="clusterblast-orf" id="dummy-4_q21_0_all"  />
<polygon points="632,40 643,40 648,35 643,30 632,30 632,40 " style="fill:#3015d8; stroke-width:1; stroke:black; " description="&lt;b&gt;JNAJGP_10505&lt;/b&gt;&lt;br&gt;HTH lysR-type domain-containing protein&lt;br&gt;Location: 2221881 - 2222781" locus_tag="JNAJGP_10505" class="clusterblast-orf" id="dummy-4_q22_0_all"  />
<polygon points="657,40 672,40 677,35 672,30 657,30 657,40 " style="fill:#d81566; stroke-width:1; stroke:black; " description="&lt;b&gt;JNAJGP_10510&lt;/b&gt;&lt;br&gt;Re/Si-specific NAD(P)(+) transhydrogenase subunit alpha&lt;br&gt;Location: 2223233 - 2224355" locus_tag="JNAJGP_10510" class="clusterblast-orf" id="dummy-4_q23_0_all"  />
<polygon points="677,40 678,40 683,35 678,30 677,30 677,40 " style="fill:#a9d815; stroke-width:1; stroke:black; " description="&lt;b&gt;JNAJGP_10515&lt;/b&gt;&lt;br&gt;proton-translocating NAD(P)(+) transhydrogenase&lt;br&gt;Location: 2224370 - 2224691" locus_tag="JNAJGP_10515" class="clusterblast-orf" id="dummy-4_q24_0_all"  />
<polygon points="683,40 705,40 710,35 705,30 683,30 683,40 " style="fill:#15d8c4; stroke-width:1; stroke:black; " description="&lt;b&gt;JNAJGP_10520&lt;/b&gt;&lt;br&gt;NAD/NADP transhydrogenase beta subunit&lt;br&gt;Location: 2224690 - 2226127" locus_tag="JNAJGP_10520" class="clusterblast-orf" id="dummy-4_q25_0_all"  />
<polygon points="713,40 735,40 740,35 735,30 713,30 713,40 " style="fill:#5815d8; stroke-width:1; stroke:black; " description="&lt;b&gt;JNAJGP_10525&lt;/b&gt;&lt;br&gt;Propionyl CoA:succinate CoA transferase&lt;br&gt;Location: 2226306 - 2227800" locus_tag="JNAJGP_10525" class="clusterblast-orf" id="dummy-4_q26_0_all"  />
<polygon points="746,40 750,35 746,30 746,40 " style="fill:#d8153e; stroke-width:1; stroke:black; " description="&lt;b&gt;JNAJGP_10530&lt;/b&gt;&lt;br&gt;DUF1127 domain-containing protein&lt;br&gt;Location: 2228118 - 2228334" locus_tag="JNAJGP_10530" class="clusterblast-orf" id="dummy-4_q27_0_all"  />
<polygon points="755,40 756,40 761,35 756,30 755,30 755,40 " style="fill:#81d815; stroke-width:1; stroke:black; " description="&lt;b&gt;JNAJGP_10535&lt;/b&gt;&lt;br&gt;Holliday junction resolvasome, helicase subunit&lt;br&gt;Location: 2228618 - 2228939" locus_tag="JNAJGP_10535" class="clusterblast-orf" id="dummy-4_q28_0_all"  />
<polygon points="763,40 763,40 768,35 763,30 763,30 763,40 " style="fill:#81d815; stroke-width:1; stroke:black; " description="&lt;b&gt;JNAJGP_10540&lt;/b&gt;&lt;br&gt;Holliday junction resolvasome, helicase subunit&lt;br&gt;Location: 2229038 - 2229347" locus_tag="JNAJGP_10540" class="clusterblast-orf" id="dummy-4_q29_0_all"  />
<polygon points="769,40 770,40 775,35 770,30 769,30 769,40 " style="fill:#81d815; stroke-width:1; stroke:black; " description="&lt;b&gt;JNAJGP_10545&lt;/b&gt;&lt;br&gt;DUF2388 domain-containing protein&lt;br&gt;Location: 2229386 - 2229707" locus_tag="JNAJGP_10545" class="clusterblast-orf" id="dummy-4_q30_0_all"  />
</g>
<g label="NZ_CP058975" description="NZ_CP058975 (117054-160423): Pseudomonas sp. Y39-6 chromosome (93% of genes show similarity), NRPS-like" class="clusterblast-cluster"  >
<text x="5" y="70" class="clusterblast-acc"  >
<a xlink:href="https://antismash-db.secondarymetabolites.org/area?record=NZ_CP058975&amp;start=117054&amp;end=160423" target="_blank">NZ_CP058975 (117054-160423)</a>: Pseudomonas sp. Y39-6 chromosome (93% of genes show similarity), NRPS-like</text>
<line x1="10" y1="85" x2="778.0" y2="85" style="stroke-width:1; stroke:grey; "  />
</g>
<g id="a4_000"  >
<polygon points="0,85 5,80 9,80 9,90 5,90 0,85 " style="fill:white; stroke-width:1; stroke:black; " description="&lt;b&gt;HXW90_RS00730&lt;/b&gt;&lt;br&gt;GNAT family N-acetyltransferase&lt;br&gt;Location: 160255 - 159740" locus_tag="HXW90_RS00730" class="clusterblast-orf" id="dummy-4_h4_4_0"  />
</g>
<g id="a4_001"  >
<polygon points="9,85 14,80 47,80 47,90 14,90 9,85 " style="fill:#d81515; stroke-width:1; stroke:black; " description="&lt;b&gt;HXW90_RS00725&lt;/b&gt;&lt;br&gt;biotin/lipoyl-binding protein&lt;br&gt;Location: 159724 - 157628&lt;br&gt;&lt;br&gt;&lt;b&gt;BlastP hit with JNAJGP_10370&lt;/b&gt;&lt;br&gt;Percentage identity: 92&lt;br&gt;Percentage coverage: 100&lt;br&gt;BLAST bit score: 1282&lt;br&gt;E-value: 0.0" locus_tag="HXW90_RS00725" class="clusterblast-orf" id="dummy-4_h4_4_1"  />
</g>
<g id="a4_002"  >
<polygon points="47,85 52,80 72,80 72,90 52,90 47,85 " style="fill:#58d815; stroke-width:1; stroke:black; " description="&lt;b&gt;HXW90_RS00720&lt;/b&gt;&lt;br&gt;HlyD family efflux transporter periplasmic adaptor subunit&lt;br&gt;Location: 157628 - 156309&lt;br&gt;&lt;br&gt;&lt;b&gt;BlastP hit with JNAJGP_10375&lt;/b&gt;&lt;br&gt;Percentage identity: 93&lt;br&gt;Percentage coverage: 100&lt;br&gt;BLAST bit score: 772&lt;br&gt;E-value: 1.34e-281" locus_tag="HXW90_RS00720" class="clusterblast-orf" id="dummy-4_h4_4_2"  />
</g>
<g id="a4_003"  >
<polygon points="71,85 76,80 86,80 86,90 76,90 71,85 " style="fill:#15c4d8; stroke-width:1; stroke:black; " description="&lt;b&gt;HXW90_RS00715&lt;/b&gt;&lt;br&gt;efflux RND transporter periplasmic adaptor subunit&lt;br&gt;Location: 156312 - 155539&lt;br&gt;&lt;br&gt;&lt;b&gt;BlastP hit with JNAJGP_10380&lt;/b&gt;&lt;br&gt;Percentage identity: 90&lt;br&gt;Percentage coverage: 100&lt;br&gt;BLAST bit score: 439&lt;br&gt;E-value: 4.81e-156" locus_tag="HXW90_RS00715" class="clusterblast-orf" id="dummy-4_h4_4_3"  />
</g>
<g id="a4_004"  >
<polygon points="89,90 123,90 128,85 123,80 89,80 89,90 " style="fill:#8115d8; stroke-width:1; stroke:black; " description="&lt;b&gt;HXW90_RS00710&lt;/b&gt;&lt;br&gt;outer membrane assembly lipoprotein YfiO&lt;br&gt;Location: 155376 - 153208&lt;br&gt;&lt;br&gt;&lt;b&gt;BlastP hit with JNAJGP_10385&lt;/b&gt;&lt;br&gt;Percentage identity: 78&lt;br&gt;Percentage coverage: 100&lt;br&gt;BLAST bit score: 1120&lt;br&gt;E-value: 0.0" locus_tag="HXW90_RS00710" class="clusterblast-orf" id="dummy-4_h4_4_4"  />
</g>
<g id="a4_005"  >
<polygon points="128,90 136,90 141,85 136,80 128,80 128,90 " style="fill:#d83e15; stroke-width:1; stroke:black; " description="&lt;b&gt;HXW90_RS00705&lt;/b&gt;&lt;br&gt;DUF3142 domain-containing protein&lt;br&gt;Location: 153211 - 152507&lt;br&gt;&lt;br&gt;&lt;b&gt;BlastP hit with JNAJGP_10390&lt;/b&gt;&lt;br&gt;Percentage identity: 89&lt;br&gt;Percentage coverage: 100&lt;br&gt;BLAST bit score: 446&lt;br&gt;E-value: 2.13e-159" locus_tag="HXW90_RS00705" class="clusterblast-orf" id="dummy-4_h4_4_5"  />
</g>
<g id="a4_006"  >
<polygon points="143,85 148,80 170,80 170,90 148,90 143,85 " style="fill:#159cd8; stroke-width:1; stroke:black; " description="&lt;b&gt;HXW90_RS00700&lt;/b&gt;&lt;br&gt;efflux transporter outer membrane subunit&lt;br&gt;Location: 152380 - 150935&lt;br&gt;&lt;br&gt;&lt;b&gt;BlastP hit with JNAJGP_10400&lt;/b&gt;&lt;br&gt;Percentage identity: 92&lt;br&gt;Percentage coverage: 100&lt;br&gt;BLAST bit score: 841&lt;br&gt;E-value: 1.32e-307" locus_tag="HXW90_RS00700" class="clusterblast-orf" id="dummy-4_h4_4_6"  />
</g>
<g id="a4_007"  >
<polygon points="170,85 175,80 189,80 189,90 175,90 170,85 " style="fill:#a915d8; stroke-width:1; stroke:black; " description="&lt;b&gt;HXW90_RS00695&lt;/b&gt;&lt;br&gt;HlyD family secretion protein&lt;br&gt;Location: 150938 - 149880&lt;br&gt;&lt;br&gt;&lt;b&gt;BlastP hit with JNAJGP_10405&lt;/b&gt;&lt;br&gt;Percentage identity: 91&lt;br&gt;Percentage coverage: 100&lt;br&gt;BLAST bit score: 584&lt;br&gt;E-value: 2.52e-210" locus_tag="HXW90_RS00695" class="clusterblast-orf" id="dummy-4_h4_4_7"  />
</g>
<g id="a4_008"  >
<polygon points="189,85 194,80 217,80 217,90 194,90 189,85 " style="fill:#d86615; stroke-width:1; stroke:black; " description="&lt;b&gt;HXW90_RS00690&lt;/b&gt;&lt;br&gt;MFS transporter&lt;br&gt;Location: 149852 - 148317&lt;br&gt;&lt;br&gt;&lt;b&gt;BlastP hit with JNAJGP_10410&lt;/b&gt;&lt;br&gt;Percentage identity: 90&lt;br&gt;Percentage coverage: 100&lt;br&gt;BLAST bit score: 890&lt;br&gt;E-value: 0.0" locus_tag="HXW90_RS00690" class="clusterblast-orf" id="dummy-4_h4_4_8"  />
</g>
<g id="a4_009"  >
<polygon points="219,85 224,80 237,80 237,90 224,90 219,85 " style="fill:#15d823; stroke-width:1; stroke:black; " description="&lt;b&gt;HXW90_RS00685&lt;/b&gt;&lt;br&gt;LysR family transcriptional regulator&lt;br&gt;Location: 148209 - 147253&lt;br&gt;&lt;br&gt;&lt;b&gt;BlastP hit with JNAJGP_10415&lt;/b&gt;&lt;br&gt;Percentage identity: 95&lt;br&gt;Percentage coverage: 100&lt;br&gt;BLAST bit score: 574&lt;br&gt;E-value: 1.48e-207" locus_tag="HXW90_RS00685" class="clusterblast-orf" id="dummy-4_h4_4_9"  />
</g>
<g id="a4_0010"  >
<polygon points="238,85 243,80 254,80 254,90 243,90 238,85 " style="fill:#1573d8; stroke-width:1; stroke:black; " description="&lt;b&gt;HXW90_RS00680&lt;/b&gt;&lt;br&gt;ABC transporter permease&lt;br&gt;Location: 147180 - 146332&lt;br&gt;&lt;br&gt;&lt;b&gt;BlastP hit with JNAJGP_10420&lt;/b&gt;&lt;br&gt;Percentage identity: 98&lt;br&gt;Percentage coverage: 100&lt;br&gt;BLAST bit score: 531&lt;br&gt;E-value: 1.24e-191" locus_tag="HXW90_RS00680" class="clusterblast-orf" id="dummy-4_h4_4_10"  />
</g>
<g id="a4_0011"  >
<polygon points="254,85 259,80 269,80 269,90 259,90 254,85 " style="fill:#d215d8; stroke-width:1; stroke:black; " description="&lt;b&gt;HXW90_RS00675&lt;/b&gt;&lt;br&gt;ABC transporter ATP-binding protein&lt;br&gt;Location: 146319 - 145468&lt;br&gt;&lt;br&gt;&lt;b&gt;BlastP hit with JNAJGP_10425&lt;/b&gt;&lt;br&gt;Percentage identity: 94&lt;br&gt;Percentage coverage: 100&lt;br&gt;BLAST bit score: 518&lt;br&gt;E-value: 1.43e-186" locus_tag="HXW90_RS00675" class="clusterblast-orf" id="dummy-4_h4_4_11"  />
</g>
<g id="a4_0012"  >
<polygon points="269,85 274,80 288,80 288,90 274,90 269,85 " style="fill:#d88e15; stroke-width:1; stroke:black; " description="&lt;b&gt;HXW90_RS00670&lt;/b&gt;&lt;br&gt;ABC transporter substrate-binding protein&lt;br&gt;Location: 145466 - 144441&lt;br&gt;&lt;br&gt;&lt;b&gt;BlastP hit with JNAJGP_10430&lt;/b&gt;&lt;br&gt;Percentage identity: 95&lt;br&gt;Percentage coverage: 100&lt;br&gt;BLAST bit score: 651&lt;br&gt;E-value: 3.32e-237" locus_tag="HXW90_RS00670" class="clusterblast-orf" id="dummy-4_h4_4_12"  />
</g>
<g id="a4_0013"  >
<polygon points="288,85 293,80 305,80 305,90 293,90 288,85 " style="fill:#15d84b; stroke-width:1; stroke:black; " description="&lt;b&gt;HXW90_RS00665&lt;/b&gt;&lt;br&gt;TauD/TfdA family dioxygenase&lt;br&gt;Location: 144426 - 143533&lt;br&gt;&lt;br&gt;&lt;b&gt;BlastP hit with JNAJGP_10435&lt;/b&gt;&lt;br&gt;Percentage identity: 93&lt;br&gt;Percentage coverage: 100&lt;br&gt;BLAST bit score: 569&lt;br&gt;E-value: 3.2e-206" locus_tag="HXW90_RS00665" class="clusterblast-orf" id="dummy-4_h4_4_13"  />
</g>
<g id="a4_0014"  >
<polygon points="311,90 319,90 324,85 319,80 311,80 311,90 " style="fill:#154bd8; stroke-width:1; stroke:black; " description="&lt;b&gt;HXW90_RS00660&lt;/b&gt;&lt;br&gt;GntR family transcriptional regulator&lt;br&gt;Location: 143200 - 142502&lt;br&gt;&lt;br&gt;&lt;b&gt;BlastP hit with JNAJGP_10440&lt;/b&gt;&lt;br&gt;Percentage identity: 92&lt;br&gt;Percentage coverage: 98&lt;br&gt;BLAST bit score: 405&lt;br&gt;E-value: 1.52e-143" locus_tag="HXW90_RS00660" class="clusterblast-orf" id="dummy-4_h4_4_14"  />
</g>
<g id="a4_0015"  >
<polygon points="331,90 339,90 344,85 339,80 331,80 331,90 " style="fill:#d815b7; stroke-width:1; stroke:black; " description="&lt;b&gt;HXW90_RS00655&lt;/b&gt;&lt;br&gt;DUF3050 domain-containing protein&lt;br&gt;Location: 142122 - 141364&lt;br&gt;&lt;br&gt;&lt;b&gt;BlastP hit with JNAJGP_10445&lt;/b&gt;&lt;br&gt;Percentage identity: 67&lt;br&gt;Percentage coverage: 100&lt;br&gt;BLAST bit score: 348&lt;br&gt;E-value: 2.01e-120" locus_tag="HXW90_RS00655" class="clusterblast-orf" id="dummy-4_h4_4_15"  />
</g>
<g id="a4_0016"  >
<polygon points="344,90 357,90 362,85 357,80 344,80 344,90 " style="fill:#d8b715; stroke-width:1; stroke:black; " description="&lt;b&gt;HXW90_RS00650&lt;/b&gt;&lt;br&gt;diiron oxygenase&lt;br&gt;Location: 141367 - 140420&lt;br&gt;&lt;br&gt;&lt;b&gt;BlastP hit with JNAJGP_10450&lt;/b&gt;&lt;br&gt;Percentage identity: 84&lt;br&gt;Percentage coverage: 99&lt;br&gt;BLAST bit score: 514&lt;br&gt;E-value: 9.88e-184" locus_tag="HXW90_RS00650" class="clusterblast-orf" id="dummy-4_h4_4_16"  />
</g>
<g id="a4_0017"  >
<polygon points="362,90 418,90 423,85 418,80 362,80 362,90 " style="fill:#15d873; stroke-width:1; stroke:black; " description="&lt;b&gt;HXW90_RS00645&lt;/b&gt;&lt;br&gt;amino acid adenylation domain-containing protein&lt;br&gt;Location: 140423 - 137055&lt;br&gt;&lt;br&gt;&lt;b&gt;BlastP hit with JNAJGP_10455&lt;/b&gt;&lt;br&gt;Percentage identity: 71&lt;br&gt;Percentage coverage: 100&lt;br&gt;BLAST bit score: 1566&lt;br&gt;E-value: 0.0" locus_tag="HXW90_RS00645" class="clusterblast-orf" id="dummy-4_h4_4_17"  />
</g>
<g id="a4_0018"  >
<polygon points="423,90 427,90 432,85 427,80 423,80 423,90 " style="fill:#1523d8; stroke-width:1; stroke:black; " description="&lt;b&gt;HXW90_RS00640&lt;/b&gt;&lt;br&gt;SRPBCC family protein&lt;br&gt;Location: 137035 - 136577&lt;br&gt;&lt;br&gt;&lt;b&gt;BlastP hit with JNAJGP_10460&lt;/b&gt;&lt;br&gt;Percentage identity: 75&lt;br&gt;Percentage coverage: 98&lt;br&gt;BLAST bit score: 238&lt;br&gt;E-value: 6.79e-80" locus_tag="HXW90_RS00640" class="clusterblast-orf" id="dummy-4_h4_4_18"  />
</g>
<g id="a4_0019"  >
<polygon points="432,85 437,80 467,80 467,90 437,90 432,85 " style="fill:#d8158e; stroke-width:1; stroke:black; " description="&lt;b&gt;HXW90_RS00635&lt;/b&gt;&lt;br&gt;methyl-accepting chemotaxis protein&lt;br&gt;Location: 136537 - 134657&lt;br&gt;&lt;br&gt;&lt;b&gt;BlastP hit with JNAJGP_10465&lt;/b&gt;&lt;br&gt;Percentage identity: 94&lt;br&gt;Percentage coverage: 100&lt;br&gt;BLAST bit score: 988&lt;br&gt;E-value: 0.0" locus_tag="HXW90_RS00635" class="clusterblast-orf" id="dummy-4_h4_4_19"  />
</g>
<g id="a4_0020"  >
<polygon points="584,85 589,80 606,80 606,90 589,90 584,85 " style="fill:#d2d815; stroke-width:1; stroke:black; " description="&lt;b&gt;HXW90_RS00620&lt;/b&gt;&lt;br&gt;CaiB/BaiF CoA-transferase family protein&lt;br&gt;Location: 128237 - 127017&lt;br&gt;&lt;br&gt;&lt;b&gt;BlastP hit with JNAJGP_10495&lt;/b&gt;&lt;br&gt;Percentage identity: 94&lt;br&gt;Percentage coverage: 100&lt;br&gt;BLAST bit score: 759&lt;br&gt;E-value: 1.11e-277" locus_tag="HXW90_RS00620" class="clusterblast-orf" id="dummy-4_h4_4_20"  />
</g>
<g id="a4_0021"  >
<polygon points="606,85 611,80 628,80 628,90 611,90 606,85 " style="fill:#15d89c; stroke-width:1; stroke:black; " description="&lt;b&gt;HXW90_RS00615&lt;/b&gt;&lt;br&gt;acyl-CoA dehydrogenase&lt;br&gt;Location: 127003 - 125822&lt;br&gt;&lt;br&gt;&lt;b&gt;BlastP hit with JNAJGP_10500&lt;/b&gt;&lt;br&gt;Percentage identity: 99&lt;br&gt;Percentage coverage: 100&lt;br&gt;BLAST bit score: 788&lt;br&gt;E-value: 2.11e-289" locus_tag="HXW90_RS00615" class="clusterblast-orf" id="dummy-4_h4_4_21"  />
</g>
<g id="a4_0022"  >
<polygon points="631,90 642,90 647,85 642,80 631,80 631,90 " style="fill:#3015d8; stroke-width:1; stroke:black; " description="&lt;b&gt;HXW90_RS00610&lt;/b&gt;&lt;br&gt;LysR family transcriptional regulator&lt;br&gt;Location: 125665 - 124766&lt;br&gt;&lt;br&gt;&lt;b&gt;BlastP hit with JNAJGP_10505&lt;/b&gt;&lt;br&gt;Percentage identity: 93&lt;br&gt;Percentage coverage: 99&lt;br&gt;BLAST bit score: 551&lt;br&gt;E-value: 3.83e-199" locus_tag="HXW90_RS00610" class="clusterblast-orf" id="dummy-4_h4_4_22"  />
</g>
<g id="a4_0023"  >
<polygon points="656,90 671,90 676,85 671,80 656,80 656,90 " style="fill:#d81566; stroke-width:1; stroke:black; " description="&lt;b&gt;HXW90_RS00605&lt;/b&gt;&lt;br&gt;Re/Si-specific NAD(P)(+) transhydrogenase subunit alpha&lt;br&gt;Location: 124313 - 123192&lt;br&gt;&lt;br&gt;&lt;b&gt;BlastP hit with JNAJGP_10510&lt;/b&gt;&lt;br&gt;Percentage identity: 98&lt;br&gt;Percentage coverage: 100&lt;br&gt;BLAST bit score: 686&lt;br&gt;E-value: 7.65e-250" locus_tag="HXW90_RS00605" class="clusterblast-orf" id="dummy-4_h4_4_23"  />
</g>
<g id="a4_0024"  >
<polygon points="676,90 677,90 682,85 677,80 676,80 676,90 " style="fill:#a9d815; stroke-width:1; stroke:black; " description="&lt;b&gt;HXW90_RS00600&lt;/b&gt;&lt;br&gt;NAD(P) transhydrogenase subunit alpha&lt;br&gt;Location: 123176 - 122856&lt;br&gt;&lt;br&gt;&lt;b&gt;BlastP hit with JNAJGP_10515&lt;/b&gt;&lt;br&gt;Percentage identity: 100&lt;br&gt;Percentage coverage: 100&lt;br&gt;BLAST bit score: 191&lt;br&gt;E-value: 8.55e-63" locus_tag="HXW90_RS00600" class="clusterblast-orf" id="dummy-4_h4_4_24"  />
</g>
<g id="a4_0025"  >
<polygon points="682,90 703,90 708,85 703,80 682,80 682,90 " style="fill:#15d8c4; stroke-width:1; stroke:black; " description="&lt;b&gt;HXW90_RS00595&lt;/b&gt;&lt;br&gt;NAD(P)(+) transhydrogenase (Re/Si-specific) subunit beta&lt;br&gt;Location: 122856 - 121420&lt;br&gt;&lt;br&gt;&lt;b&gt;BlastP hit with JNAJGP_10520&lt;/b&gt;&lt;br&gt;Percentage identity: 99&lt;br&gt;Percentage coverage: 100&lt;br&gt;BLAST bit score: 881&lt;br&gt;E-value: 0.0" locus_tag="HXW90_RS00595" class="clusterblast-orf" id="dummy-4_h4_4_25"  />
</g>
<g id="a4_0026"  >
<polygon points="712,90 734,90 739,85 734,80 712,80 712,90 " style="fill:#5815d8; stroke-width:1; stroke:black; " description="&lt;b&gt;HXW90_RS00590&lt;/b&gt;&lt;br&gt;acetyl-CoA hydrolase/transferase family protein&lt;br&gt;Location: 121240 - 119747&lt;br&gt;&lt;br&gt;&lt;b&gt;BlastP hit with JNAJGP_10525&lt;/b&gt;&lt;br&gt;Percentage identity: 97&lt;br&gt;Percentage coverage: 100&lt;br&gt;BLAST bit score: 939&lt;br&gt;E-value: 0.0" locus_tag="HXW90_RS00590" class="clusterblast-orf" id="dummy-4_h4_4_26"  />
</g>
<g id="a4_0027"  >
<polygon points="745,90 749,85 745,80 745,90 " style="fill:#d8153e; stroke-width:1; stroke:black; " description="&lt;b&gt;HXW90_RS00585&lt;/b&gt;&lt;br&gt;DUF1127 domain-containing protein&lt;br&gt;Location: 119430 - 119215&lt;br&gt;&lt;br&gt;&lt;b&gt;BlastP hit with JNAJGP_10530&lt;/b&gt;&lt;br&gt;Percentage identity: 94&lt;br&gt;Percentage coverage: 100&lt;br&gt;BLAST bit score: 133&lt;br&gt;E-value: 7.63e-41" locus_tag="HXW90_RS00585" class="clusterblast-orf" id="dummy-4_h4_4_27"  />
</g>
<g id="a4_0028"  >
<polygon points="754,90 757,85 754,80 754,90 " style="fill:white; stroke-width:1; stroke:black; " description="&lt;b&gt;HXW90_RS00580&lt;/b&gt;&lt;br&gt;DUF1127 domain-containing protein&lt;br&gt;Location: 118949 - 118767" locus_tag="HXW90_RS00580" class="clusterblast-orf" id="dummy-4_h4_4_28"  />
</g>
<g id="a4_0029"  >
<polygon points="760,90 761,90 766,85 761,80 760,80 760,90 " style="fill:#81d815; stroke-width:1; stroke:black; " description="&lt;b&gt;HXW90_RS00575&lt;/b&gt;&lt;br&gt;DUF2388 domain-containing protein&lt;br&gt;Location: 118607 - 118287&lt;br&gt;&lt;br&gt;&lt;b&gt;BlastP hit with JNAJGP_10535&lt;/b&gt;&lt;br&gt;Percentage identity: 91&lt;br&gt;Percentage coverage: 100&lt;br&gt;BLAST bit score: 154&lt;br&gt;E-value: 5.28e-48&lt;br&gt;&lt;br&gt;&lt;b&gt;BlastP hit with JNAJGP_10540&lt;/b&gt;&lt;br&gt;Percentage identity: 47&lt;br&gt;Percentage coverage: 81&lt;br&gt;BLAST bit score: 62&lt;br&gt;E-value: 6.31e-12&lt;br&gt;&lt;br&gt;&lt;b&gt;BlastP hit with JNAJGP_10545&lt;/b&gt;&lt;br&gt;Percentage identity: 53&lt;br&gt;Percentage coverage: 90&lt;br&gt;BLAST bit score: 78&lt;br&gt;E-value: 4.72e-18" locus_tag="HXW90_RS00575" class="clusterblast-orf" id="dummy-4_h4_4_29"  />
</g>
<g id="a4_0030"  >
<polygon points="768,90 768,90 773,85 768,80 768,80 768,90 " style="fill:#81d815; stroke-width:1; stroke:black; " description="&lt;b&gt;HXW90_RS00570&lt;/b&gt;&lt;br&gt;DUF2388 domain-containing protein&lt;br&gt;Location: 118180 - 117872&lt;br&gt;&lt;br&gt;&lt;b&gt;BlastP hit with JNAJGP_10540&lt;/b&gt;&lt;br&gt;Percentage identity: 83&lt;br&gt;Percentage coverage: 100&lt;br&gt;BLAST bit score: 159&lt;br&gt;E-value: 4.14e-50" locus_tag="HXW90_RS00570" class="clusterblast-orf" id="dummy-4_h4_4_30"  />
</g>
<g id="a4_0031"  >
<polygon points="774,90 775,90 780,85 775,80 774,80 774,90 " style="fill:#81d815; stroke-width:1; stroke:black; " description="&lt;b&gt;HXW90_RS00565&lt;/b&gt;&lt;br&gt;DUF2388 domain-containing protein&lt;br&gt;Location: 117845 - 117525&lt;br&gt;&lt;br&gt;&lt;b&gt;BlastP hit with JNAJGP_10535&lt;/b&gt;&lt;br&gt;Percentage identity: 54&lt;br&gt;Percentage coverage: 75&lt;br&gt;BLAST bit score: 68&lt;br&gt;E-value: 3.98e-14&lt;br&gt;&lt;br&gt;&lt;b&gt;BlastP hit with JNAJGP_10540&lt;/b&gt;&lt;br&gt;Percentage identity: 41&lt;br&gt;Percentage coverage: 75&lt;br&gt;BLAST bit score: 53&lt;br&gt;E-value: 2.51e-08&lt;br&gt;&lt;br&gt;&lt;b&gt;BlastP hit with JNAJGP_10545&lt;/b&gt;&lt;br&gt;Percentage identity: 93&lt;br&gt;Percentage coverage: 100&lt;br&gt;BLAST bit score: 171&lt;br&gt;E-value: 1.04e-54" locus_tag="HXW90_RS00565" class="clusterblast-orf" id="dummy-4_h4_4_31"  />
</g>
</svg>
