<svg xmlns="http://www.w3.org/2000/svg" xmlns:xlink="http://www.w3.org/1999/xlink" version="1.1" x="0" y="0" height="230" width="800" viewBox="0 0 800 230" preserveAspectRatio="none"  >
<g label="Query sequence" class="clusterblast-cluster"  >
<text x="5" y="20" class="clusterblast-acc"  >
Query sequence</text>
<line x1="10" y1="35" x2="778.0" y2="35" style="stroke-width:1; stroke:grey; "  />
<polygon points="18,40 40,40 45,35 40,30 18,30 18,40 " style="fill:#d81515; stroke-width:1; stroke:black; " description="&lt;b&gt;JNAJGP_08685&lt;/b&gt;&lt;br&gt;YdiU family protein&lt;br&gt;Location: 1807450 - 1808914" locus_tag="JNAJGP_08685" class="clusterblast-orf" id="dummy-3_q0_0_all"  />
<polygon points="45,35 50,30 53,30 53,40 50,40 45,35 " style="fill:#6fd815; stroke-width:1; stroke:black; " description="&lt;b&gt;JNAJGP_08690&lt;/b&gt;&lt;br&gt;Antitoxin HigA&lt;br&gt;Location: 1808932 - 1809334" locus_tag="JNAJGP_08690" class="clusterblast-orf" id="dummy-3_q1_0_all"  />
<polygon points="53,35 58,30 59,30 59,40 58,40 53,35 " style="fill:#15c9d8; stroke-width:1; stroke:black; " description="&lt;b&gt;JNAJGP_08695&lt;/b&gt;&lt;br&gt;mRNA interferase toxin HigB&lt;br&gt;Location: 1809341 - 1809629" locus_tag="JNAJGP_08695" class="clusterblast-orf" id="dummy-3_q2_0_all"  />
<polygon points="63,40 66,40 71,35 66,30 63,30 63,40 " style="fill:#8d15d8; stroke-width:1; stroke:black; " description="&lt;b&gt;JNAJGP_08700&lt;/b&gt;&lt;br&gt;thioredoxin TrxC&lt;br&gt;Location: 1809863 - 1810298" locus_tag="JNAJGP_08700" class="clusterblast-orf" id="dummy-3_q3_0_all"  />
<polygon points="74,35 78,30 78,40 74,35 " style="fill:#d83315; stroke-width:1; stroke:black; " description="&lt;b&gt;JNAJGP_08705&lt;/b&gt;&lt;br&gt;DUF3077 domain-containing protein&lt;br&gt;Location: 1810426 - 1810660" locus_tag="JNAJGP_08705" class="clusterblast-orf" id="dummy-3_q4_0_all"  />
<polygon points="85,35 90,30 100,30 100,40 90,40 85,35 " style="fill:#51d815; stroke-width:1; stroke:black; " description="&lt;b&gt;JNAJGP_08715&lt;/b&gt;&lt;br&gt;ParA-like ATPase involved in chromosome/plasmid partitioning or cellulose biosynthesis protein BcsQ&lt;br&gt;Location: 1811037 - 1811808" locus_tag="JNAJGP_08715" class="clusterblast-orf" id="dummy-3_q5_0_all"  />
<polygon points="106,40 114,40 119,35 114,30 106,30 106,40 " style="fill:#15abd8; stroke-width:1; stroke:black; " description="&lt;b&gt;JNAJGP_08720&lt;/b&gt;&lt;br&gt;Beta-ketoacyl synthase N-terminal domain-containing protein&lt;br&gt;Location: 1812135 - 1812855" locus_tag="JNAJGP_08720" class="clusterblast-orf" id="dummy-3_q6_0_all"  />
<polygon points="119,40 129,40 134,35 129,30 119,30 119,40 " style="fill:#ab15d8; stroke-width:1; stroke:black; " description="&lt;b&gt;JNAJGP_08725&lt;/b&gt;&lt;br&gt;Phospholipid/glycerol acyltransferase domain-containing protein&lt;br&gt;Location: 1812830 - 1813643" locus_tag="JNAJGP_08725" class="clusterblast-orf" id="dummy-3_q7_0_all"  />
<polygon points="134,40 134,40 139,35 134,30 134,30 134,40 " style="fill:#d85115; stroke-width:1; stroke:black; " description="&lt;b&gt;JNAJGP_08730&lt;/b&gt;&lt;br&gt;Acyl carrier protein&lt;br&gt;Location: 1813620 - 1813890" locus_tag="JNAJGP_08730" class="clusterblast-orf" id="dummy-3_q8_0_all"  />
<polygon points="139,40 139,40 144,35 139,30 139,30 139,40 " style="fill:#33d815; stroke-width:1; stroke:black; " description="&lt;b&gt;JNAJGP_08735&lt;/b&gt;&lt;br&gt;acyl carrier protein&lt;br&gt;Location: 1813899 - 1814154" locus_tag="JNAJGP_08735" class="clusterblast-orf" id="dummy-3_q9_0_all"  />
<polygon points="144,40 149,40 154,35 149,30 144,30 144,40 " style="fill:#158dd8; stroke-width:1; stroke:black; " description="&lt;b&gt;JNAJGP_08740&lt;/b&gt;&lt;br&gt;Intracellular septation protein a&lt;br&gt;Location: 1814150 - 1814696" locus_tag="JNAJGP_08740" class="clusterblast-orf" id="dummy-3_q10_0_all"  />
<polygon points="154,40 180,40 185,35 180,30 154,30 154,40 " style="fill:#c915d8; stroke-width:1; stroke:black; " description="&lt;b&gt;JNAJGP_08745&lt;/b&gt;&lt;br&gt;Acetyl-coenzyme A synthetase&lt;br&gt;Location: 1814692 - 1816363" locus_tag="JNAJGP_08745" class="clusterblast-orf" id="dummy-3_q11_0_all"  />
<polygon points="188,40 197,40 202,35 197,30 188,30 188,40 " style="fill:#d86f15; stroke-width:1; stroke:black; " description="&lt;b&gt;JNAJGP_08750&lt;/b&gt;&lt;br&gt;Glycosyl transferase&lt;br&gt;Location: 1816530 - 1817265" locus_tag="JNAJGP_08750" class="clusterblast-orf" id="dummy-3_q12_0_all"  />
<polygon points="202,40 215,40 220,35 215,30 202,30 202,40 " style="fill:#15d815; stroke-width:1; stroke:black; " description="&lt;b&gt;JNAJGP_08755&lt;/b&gt;&lt;br&gt;Glycosyl transferase&lt;br&gt;Location: 1817261 - 1818197" locus_tag="JNAJGP_08755" class="clusterblast-orf" id="dummy-3_q13_0_all"  />
<polygon points="219,40 243,40 248,35 243,30 219,30 219,40 " style="fill:#156fd8; stroke-width:1; stroke:black; " description="&lt;b&gt;JNAJGP_08760&lt;/b&gt;&lt;br&gt;Histidine ammonia-lyase&lt;br&gt;Location: 1818180 - 1819722" locus_tag="JNAJGP_08760" class="clusterblast-orf" id="dummy-3_q14_0_all"  />
<polygon points="248,40 251,40 256,35 251,30 248,30 248,40 " style="fill:#d815c9; stroke-width:1; stroke:black; " description="&lt;b&gt;JNAJGP_08765&lt;/b&gt;&lt;br&gt;Thioesterase domain-containing protein&lt;br&gt;Location: 1819714 - 1820140" locus_tag="JNAJGP_08765" class="clusterblast-orf" id="dummy-3_q15_0_all"  />
<polygon points="256,40 262,40 267,35 262,30 256,30 256,40 " style="fill:#d88d15; stroke-width:1; stroke:black; " description="&lt;b&gt;JNAJGP_08770&lt;/b&gt;&lt;br&gt;Outer membrane lipoprotein carrier protein LolA&lt;br&gt;Location: 1820136 - 1820727" locus_tag="JNAJGP_08770" class="clusterblast-orf" id="dummy-3_q16_0_all"  />
<polygon points="267,40 305,40 310,35 305,30 267,30 267,40 " style="fill:#15d833; stroke-width:1; stroke:black; " description="&lt;b&gt;JNAJGP_08775&lt;/b&gt;&lt;br&gt;Membrane transport protein MMPL domain-containing protein&lt;br&gt;Location: 1820716 - 1823029" locus_tag="JNAJGP_08775" class="clusterblast-orf" id="dummy-3_q17_0_all"  />
<polygon points="311,40 329,40 334,35 329,30 311,30 311,40 " style="fill:#1551d8; stroke-width:1; stroke:black; " description="&lt;b&gt;JNAJGP_08780&lt;/b&gt;&lt;br&gt;FAD-binding domain-containing protein&lt;br&gt;Location: 1823062 - 1824310" locus_tag="JNAJGP_08780" class="clusterblast-orf" id="dummy-3_q18_0_all"  />
<polygon points="334,40 343,40 348,35 343,30 334,30 334,40 " style="fill:#d815ab; stroke-width:1; stroke:black; " description="&lt;b&gt;JNAJGP_08785&lt;/b&gt;&lt;br&gt;Methyltransferase type 11 domain-containing protein&lt;br&gt;Location: 1824306 - 1825041" locus_tag="JNAJGP_08785" class="clusterblast-orf" id="dummy-3_q19_0_all"  />
<polygon points="348,40 352,40 357,35 352,30 348,30 348,40 " style="fill:#d8ab15; stroke-width:1; stroke:black; " description="&lt;b&gt;JNAJGP_08790&lt;/b&gt;&lt;br&gt;Lipoprotein&lt;br&gt;Location: 1825037 - 1825520" locus_tag="JNAJGP_08790" class="clusterblast-orf" id="dummy-3_q20_0_all"  />
<polygon points="357,40 374,40 379,35 374,30 357,30 357,40 " style="fill:#15d851; stroke-width:1; stroke:black; " description="&lt;b&gt;JNAJGP_08795&lt;/b&gt;&lt;br&gt;3-oxoacyl-(Acyl carrier protein) synthase&lt;br&gt;Location: 1825516 - 1826683" locus_tag="JNAJGP_08795" class="clusterblast-orf" id="dummy-3_q21_0_all"  />
<polygon points="379,40 383,40 388,35 383,30 379,30 379,40 " style="fill:#1533d8; stroke-width:1; stroke:black; " description="&lt;b&gt;JNAJGP_08800&lt;/b&gt;&lt;br&gt;3-hydroxydecanoyl-(ACP) dehydratase&lt;br&gt;Location: 1826679 - 1827141" locus_tag="JNAJGP_08800" class="clusterblast-orf" id="dummy-3_q22_0_all"  />
<polygon points="388,40 396,40 401,35 396,30 388,30 388,40 " style="fill:#d8158d; stroke-width:1; stroke:black; " description="&lt;b&gt;JNAJGP_08805&lt;/b&gt;&lt;br&gt;3-oxoacyl-ACP reductase FabG&lt;br&gt;Location: 1827137 - 1827866" locus_tag="JNAJGP_08805" class="clusterblast-orf" id="dummy-3_q23_0_all"  />
<polygon points="401,40 419,40 424,35 419,30 401,30 401,40 " style="fill:#d8c915; stroke-width:1; stroke:black; " description="&lt;b&gt;JNAJGP_08810&lt;/b&gt;&lt;br&gt;beta-ketoacyl-ACP synthase&lt;br&gt;Location: 1827865 - 1829092" locus_tag="JNAJGP_08810" class="clusterblast-orf" id="dummy-3_q24_0_all"  />
<polygon points="425,40 428,40 433,35 428,30 425,30 425,40 " style="fill:#15d86f; stroke-width:1; stroke:black; " description="&lt;b&gt;JNAJGP_08815&lt;/b&gt;&lt;br&gt;Lipoprotein&lt;br&gt;Location: 1829118 - 1829571" locus_tag="JNAJGP_08815" class="clusterblast-orf" id="dummy-3_q25_0_all"  />
<polygon points="437,35 442,30 445,30 445,40 442,40 437,35 " style="fill:#1515d8; stroke-width:1; stroke:black; " description="&lt;b&gt;JNAJGP_08820&lt;/b&gt;&lt;br&gt;Type II toxin-antitoxin system PemK/MazF family toxin&lt;br&gt;Location: 1829787 - 1830171" locus_tag="JNAJGP_08820" class="clusterblast-orf" id="dummy-3_q26_0_all"  />
<polygon points="446,35 451,30 463,30 463,40 451,40 446,35 " style="fill:#d8156f; stroke-width:1; stroke:black; " description="&lt;b&gt;JNAJGP_08825&lt;/b&gt;&lt;br&gt;HTH lysR-type domain-containing protein&lt;br&gt;Location: 1830258 - 1831152" locus_tag="JNAJGP_08825" class="clusterblast-orf" id="dummy-3_q27_0_all"  />
<polygon points="465,40 484,40 489,35 484,30 465,30 465,40 " style="fill:#c9d815; stroke-width:1; stroke:black; " description="&lt;b&gt;JNAJGP_08830&lt;/b&gt;&lt;br&gt;Major facilitator superfamily (MFS) profile domain-containing protein&lt;br&gt;Location: 1831274 - 1832549" locus_tag="JNAJGP_08830" class="clusterblast-orf" id="dummy-3_q28_0_all"  />
<polygon points="490,35 495,30 510,30 510,40 495,40 490,35 " style="fill:#15d88d; stroke-width:1; stroke:black; " description="&lt;b&gt;JNAJGP_08835&lt;/b&gt;&lt;br&gt;uroporphyrinogen decarboxylase&lt;br&gt;Location: 1832609 - 1833677" locus_tag="JNAJGP_08835" class="clusterblast-orf" id="dummy-3_q29_0_all"  />
<polygon points="515,35 520,30 542,30 542,40 520,40 515,35 " style="fill:#3315d8; stroke-width:1; stroke:black; " description="&lt;b&gt;JNAJGP_08840&lt;/b&gt;&lt;br&gt;NADPH-dependent glutamate synthase beta chain or related oxidoreductase&lt;br&gt;Location: 1833919 - 1835338" locus_tag="JNAJGP_08840" class="clusterblast-orf" id="dummy-3_q30_0_all"  />
<polygon points="542,35 547,30 626,30 626,40 547,40 542,35 " style="fill:#d81551; stroke-width:1; stroke:black; " description="&lt;b&gt;JNAJGP_08845&lt;/b&gt;&lt;br&gt;Glutamate synthase large subunit&lt;br&gt;Location: 1835370 - 1839816" locus_tag="JNAJGP_08845" class="clusterblast-orf" id="dummy-3_q31_0_all"  />
<polygon points="632,35 637,30 662,30 662,40 637,40 632,35 " style="fill:#abd815; stroke-width:1; stroke:black; " description="&lt;b&gt;JNAJGP_08850&lt;/b&gt;&lt;br&gt;General secretion pathway protein a&lt;br&gt;Location: 1840170 - 1841733" locus_tag="JNAJGP_08850" class="clusterblast-orf" id="dummy-3_q32_0_all"  />
<polygon points="662,35 667,30 683,30 683,40 667,40 662,35 " style="fill:#15d8ab; stroke-width:1; stroke:black; " description="&lt;b&gt;JNAJGP_08855&lt;/b&gt;&lt;br&gt;3-dehydroquinate synthase&lt;br&gt;Location: 1841743 - 1842844" locus_tag="JNAJGP_08855" class="clusterblast-orf" id="dummy-3_q33_0_all"  />
<polygon points="685,35 690,30 694,30 694,40 690,40 685,35 " style="fill:#5115d8; stroke-width:1; stroke:black; " description="&lt;b&gt;JNAJGP_08860&lt;/b&gt;&lt;br&gt;shikimate kinase AroK&lt;br&gt;Location: 1842959 - 1843451" locus_tag="JNAJGP_08860" class="clusterblast-orf" id="dummy-3_q34_0_all"  />
<polygon points="695,35 700,30 721,30 721,40 700,40 695,35 " style="fill:#d81533; stroke-width:1; stroke:black; " description="&lt;b&gt;JNAJGP_08865&lt;/b&gt;&lt;br&gt;Type IV fimbriae biogenesis protein&lt;br&gt;Location: 1843482 - 1844865" locus_tag="JNAJGP_08865" class="clusterblast-orf" id="dummy-3_q35_0_all"  />
<polygon points="721,35 726,30 739,30 739,40 726,40 721,35 " style="fill:#8dd815; stroke-width:1; stroke:black; " description="&lt;b&gt;JNAJGP_08870&lt;/b&gt;&lt;br&gt;Pilus assembly protein&lt;br&gt;Location: 1844878 - 1845850" locus_tag="JNAJGP_08870" class="clusterblast-orf" id="dummy-3_q36_0_all"  />
<polygon points="739,35 744,30 749,30 749,40 744,40 739,35 " style="fill:#15d8c9; stroke-width:1; stroke:black; " description="&lt;b&gt;JNAJGP_08875&lt;/b&gt;&lt;br&gt;Type IV pilus assembly protein&lt;br&gt;Location: 1845846 - 1846401" locus_tag="JNAJGP_08875" class="clusterblast-orf" id="dummy-3_q37_0_all"  />
<polygon points="749,35 754,30 762,30 762,40 754,40 749,35 " style="fill:#6f15d8; stroke-width:1; stroke:black; " description="&lt;b&gt;JNAJGP_08880&lt;/b&gt;&lt;br&gt;Type IV pilus assembly protein&lt;br&gt;Location: 1846397 - 1847051" locus_tag="JNAJGP_08880" class="clusterblast-orf" id="dummy-3_q38_0_all"  />
</g>
<g label="NZ_CABVGU010000016" description="NZ_CABVGU010000016 (64360-107936): Pseudomonas fluorescens isolate PS664, who... (95% of genes show similarity), arylpolyene" class="clusterblast-cluster"  >
<text x="5" y="70" class="clusterblast-acc"  >
<a xlink:href="https://antismash-db.secondarymetabolites.org/area?record=NZ_CABVGU010000016&amp;start=64360&amp;end=107936" target="_blank">NZ_CABVGU010000016 (64360-107936)</a>: Pseudomonas fluorescens isolate PS664, who... (95% of genes show similarity), arylpolyene</text>
<line x1="10" y1="85" x2="778.0" y2="85" style="stroke-width:1; stroke:grey; "  />
</g>
<g id="a3_000"  >
<polygon points="0,90 22,90 27,85 22,80 0,80 0,90 " style="fill:#d81515; stroke-width:1; stroke:black; " description="&lt;b&gt;F8N47_RS16845&lt;/b&gt;&lt;br&gt;YdiU family protein&lt;br&gt;Location: 105883 - 104420&lt;br&gt;&lt;br&gt;&lt;b&gt;BlastP hit with JNAJGP_08685&lt;/b&gt;&lt;br&gt;Percentage identity: 97&lt;br&gt;Percentage coverage: 100&lt;br&gt;BLAST bit score: 954&lt;br&gt;E-value: 0.0" locus_tag="F8N47_RS16845" class="clusterblast-orf" id="dummy-3_h3_8_0"  />
</g>
<g id="a3_001"  >
<polygon points="27,85 32,80 35,80 35,90 32,90 27,85 " style="fill:#6fd815; stroke-width:1; stroke:black; " description="&lt;b&gt;F8N47_RS16840&lt;/b&gt;&lt;br&gt;transcriptional regulator&lt;br&gt;Location: 104401 - 104000&lt;br&gt;&lt;br&gt;&lt;b&gt;BlastP hit with JNAJGP_08690&lt;/b&gt;&lt;br&gt;Percentage identity: 95&lt;br&gt;Percentage coverage: 100&lt;br&gt;BLAST bit score: 258&lt;br&gt;E-value: 2.57e-88" locus_tag="F8N47_RS16840" class="clusterblast-orf" id="dummy-3_h3_8_1"  />
</g>
<g id="a3_002"  >
<polygon points="35,85 40,80 40,80 40,90 40,90 35,85 " style="fill:#15c9d8; stroke-width:1; stroke:black; " description="&lt;b&gt;F8N47_RS16835&lt;/b&gt;&lt;br&gt;type II toxin-antitoxin system HigB family toxin&lt;br&gt;Location: 103993 - 103706&lt;br&gt;&lt;br&gt;&lt;b&gt;BlastP hit with JNAJGP_08695&lt;/b&gt;&lt;br&gt;Percentage identity: 95&lt;br&gt;Percentage coverage: 100&lt;br&gt;BLAST bit score: 182&lt;br&gt;E-value: 1.76e-59" locus_tag="F8N47_RS16835" class="clusterblast-orf" id="dummy-3_h3_8_2"  />
</g>
<g id="a3_003"  >
<polygon points="45,90 48,90 53,85 48,80 45,80 45,90 " style="fill:#8d15d8; stroke-width:1; stroke:black; " description="&lt;b&gt;F8N47_RS16830&lt;/b&gt;&lt;br&gt;thioredoxin TrxC&lt;br&gt;Location: 103471 - 103037&lt;br&gt;&lt;br&gt;&lt;b&gt;BlastP hit with JNAJGP_08700&lt;/b&gt;&lt;br&gt;Percentage identity: 99&lt;br&gt;Percentage coverage: 100&lt;br&gt;BLAST bit score: 300&lt;br&gt;E-value: 1.39e-104" locus_tag="F8N47_RS16830" class="clusterblast-orf" id="dummy-3_h3_8_3"  />
</g>
<g id="a3_004"  >
<polygon points="55,85 59,80 59,90 55,85 " style="fill:#d83315; stroke-width:1; stroke:black; " description="&lt;b&gt;F8N47_RS16825&lt;/b&gt;&lt;br&gt;DUF6124 family protein&lt;br&gt;Location: 102914 - 102693&lt;br&gt;&lt;br&gt;&lt;b&gt;BlastP hit with JNAJGP_08705&lt;/b&gt;&lt;br&gt;Percentage identity: 81&lt;br&gt;Percentage coverage: 90&lt;br&gt;BLAST bit score: 116&lt;br&gt;E-value: 5.37e-34" locus_tag="F8N47_RS16825" class="clusterblast-orf" id="dummy-3_h3_8_4"  />
</g>
<g id="a3_005"  >
<polygon points="68,85 73,80 82,80 82,90 73,90 68,85 " style="fill:#51d815; stroke-width:1; stroke:black; " description="&lt;b&gt;F8N47_RS16820&lt;/b&gt;&lt;br&gt;ParA family protein&lt;br&gt;Location: 102240 - 101470&lt;br&gt;&lt;br&gt;&lt;b&gt;BlastP hit with JNAJGP_08715&lt;/b&gt;&lt;br&gt;Percentage identity: 98&lt;br&gt;Percentage coverage: 100&lt;br&gt;BLAST bit score: 494&lt;br&gt;E-value: 1.02e-177" locus_tag="F8N47_RS16820" class="clusterblast-orf" id="dummy-3_h3_8_5"  />
</g>
<g id="a3_006"  >
<polygon points="89,90 97,90 102,85 97,80 89,80 89,90 " style="fill:#15abd8; stroke-width:1; stroke:black; " description="&lt;b&gt;F8N47_RS16815&lt;/b&gt;&lt;br&gt;beta-ketoacyl synthase chain length factor&lt;br&gt;Location: 101142 - 100423&lt;br&gt;&lt;br&gt;&lt;b&gt;BlastP hit with JNAJGP_08720&lt;/b&gt;&lt;br&gt;Percentage identity: 96&lt;br&gt;Percentage coverage: 100&lt;br&gt;BLAST bit score: 469&lt;br&gt;E-value: 2.23e-168" locus_tag="F8N47_RS16815" class="clusterblast-orf" id="dummy-3_h3_8_6"  />
</g>
<g id="a3_007"  >
<polygon points="102,90 112,90 117,85 112,80 102,80 102,90 " style="fill:#ab15d8; stroke-width:1; stroke:black; " description="&lt;b&gt;F8N47_RS16810&lt;/b&gt;&lt;br&gt;1-acyl-sn-glycerol-3-phosphate acyltransferase&lt;br&gt;Location: 100447 - 99635&lt;br&gt;&lt;br&gt;&lt;b&gt;BlastP hit with JNAJGP_08725&lt;/b&gt;&lt;br&gt;Percentage identity: 93&lt;br&gt;Percentage coverage: 100&lt;br&gt;BLAST bit score: 512&lt;br&gt;E-value: 2.05e-184" locus_tag="F8N47_RS16810" class="clusterblast-orf" id="dummy-3_h3_8_7"  />
</g>
<g id="a3_008"  >
<polygon points="116,90 117,90 122,85 117,80 116,80 116,90 " style="fill:#d85115; stroke-width:1; stroke:black; " description="&lt;b&gt;F8N47_RS16805&lt;/b&gt;&lt;br&gt;phosphopantetheine-binding protein&lt;br&gt;Location: 99657 - 99388&lt;br&gt;&lt;br&gt;&lt;b&gt;BlastP hit with JNAJGP_08730&lt;/b&gt;&lt;br&gt;Percentage identity: 94&lt;br&gt;Percentage coverage: 100&lt;br&gt;BLAST bit score: 159&lt;br&gt;E-value: 8.08e-51" locus_tag="F8N47_RS16805" class="clusterblast-orf" id="dummy-3_h3_8_8"  />
</g>
<g id="a3_009"  >
<polygon points="122,90 126,85 122,80 122,90 " style="fill:#33d815; stroke-width:1; stroke:black; " description="&lt;b&gt;F8N47_RS16800&lt;/b&gt;&lt;br&gt;acyl carrier protein&lt;br&gt;Location: 99378 - 99124&lt;br&gt;&lt;br&gt;&lt;b&gt;BlastP hit with JNAJGP_08735&lt;/b&gt;&lt;br&gt;Percentage identity: 99&lt;br&gt;Percentage coverage: 100&lt;br&gt;BLAST bit score: 158&lt;br&gt;E-value: 2.3e-50" locus_tag="F8N47_RS16800" class="clusterblast-orf" id="dummy-3_h3_8_9"  />
</g>
<g id="a3_0010"  >
<polygon points="126,90 132,90 137,85 132,80 126,80 126,90 " style="fill:#158dd8; stroke-width:1; stroke:black; " description="&lt;b&gt;F8N47_RS16795&lt;/b&gt;&lt;br&gt;hypothetical protein&lt;br&gt;Location: 99127 - 98582&lt;br&gt;&lt;br&gt;&lt;b&gt;BlastP hit with JNAJGP_08740&lt;/b&gt;&lt;br&gt;Percentage identity: 98&lt;br&gt;Percentage coverage: 100&lt;br&gt;BLAST bit score: 367&lt;br&gt;E-value: 6.65e-130" locus_tag="F8N47_RS16795" class="clusterblast-orf" id="dummy-3_h3_8_10"  />
</g>
<g id="a3_0011"  >
<polygon points="137,90 163,90 168,85 163,80 137,80 137,90 " style="fill:#c915d8; stroke-width:1; stroke:black; " description="&lt;b&gt;F8N47_RS16790&lt;/b&gt;&lt;br&gt;acyl-CoA synthetase family protein&lt;br&gt;Location: 98585 - 96915&lt;br&gt;&lt;br&gt;&lt;b&gt;BlastP hit with JNAJGP_08745&lt;/b&gt;&lt;br&gt;Percentage identity: 94&lt;br&gt;Percentage coverage: 100&lt;br&gt;BLAST bit score: 1048&lt;br&gt;E-value: 0.0" locus_tag="F8N47_RS16790" class="clusterblast-orf" id="dummy-3_h3_8_11"  />
</g>
<g id="a3_0012"  >
<polygon points="168,90 177,90 182,85 177,80 168,80 168,90 " style="fill:#d86f15; stroke-width:1; stroke:black; " description="&lt;b&gt;F8N47_RS16785&lt;/b&gt;&lt;br&gt;glycosyltransferase family 2 protein&lt;br&gt;Location: 96922 - 96188&lt;br&gt;&lt;br&gt;&lt;b&gt;BlastP hit with JNAJGP_08750&lt;/b&gt;&lt;br&gt;Percentage identity: 93&lt;br&gt;Percentage coverage: 100&lt;br&gt;BLAST bit score: 475&lt;br&gt;E-value: 1.19e-170" locus_tag="F8N47_RS16785" class="clusterblast-orf" id="dummy-3_h3_8_12"  />
</g>
<g id="a3_0013"  >
<polygon points="182,90 194,90 199,85 194,80 182,80 182,90 " style="fill:#15d815; stroke-width:1; stroke:black; " description="&lt;b&gt;F8N47_RS16780&lt;/b&gt;&lt;br&gt;glycosyl transferase&lt;br&gt;Location: 96191 - 95256&lt;br&gt;&lt;br&gt;&lt;b&gt;BlastP hit with JNAJGP_08755&lt;/b&gt;&lt;br&gt;Percentage identity: 91&lt;br&gt;Percentage coverage: 100&lt;br&gt;BLAST bit score: 584&lt;br&gt;E-value: 1.53e-211" locus_tag="F8N47_RS16780" class="clusterblast-orf" id="dummy-3_h3_8_13"  />
</g>
<g id="a3_0014"  >
<polygon points="199,90 223,90 228,85 223,80 199,80 199,90 " style="fill:#156fd8; stroke-width:1; stroke:black; " description="&lt;b&gt;F8N47_RS16775&lt;/b&gt;&lt;br&gt;aromatic amino acid ammonia-lyase&lt;br&gt;Location: 95272 - 93731&lt;br&gt;&lt;br&gt;&lt;b&gt;BlastP hit with JNAJGP_08760&lt;/b&gt;&lt;br&gt;Percentage identity: 99&lt;br&gt;Percentage coverage: 100&lt;br&gt;BLAST bit score: 1003&lt;br&gt;E-value: 0.0" locus_tag="F8N47_RS16775" class="clusterblast-orf" id="dummy-3_h3_8_14"  />
</g>
<g id="a3_0015"  >
<polygon points="228,90 231,90 236,85 231,80 228,80 228,90 " style="fill:#d815c9; stroke-width:1; stroke:black; " description="&lt;b&gt;F8N47_RS16770&lt;/b&gt;&lt;br&gt;acyl-CoA thioesterase&lt;br&gt;Location: 93738 - 93313&lt;br&gt;&lt;br&gt;&lt;b&gt;BlastP hit with JNAJGP_08765&lt;/b&gt;&lt;br&gt;Percentage identity: 94&lt;br&gt;Percentage coverage: 100&lt;br&gt;BLAST bit score: 272&lt;br&gt;E-value: 7.48e-94" locus_tag="F8N47_RS16770" class="clusterblast-orf" id="dummy-3_h3_8_15"  />
</g>
<g id="a3_0016"  >
<polygon points="236,90 242,90 247,85 242,80 236,80 236,90 " style="fill:#d88d15; stroke-width:1; stroke:black; " description="&lt;b&gt;F8N47_RS16765&lt;/b&gt;&lt;br&gt;outer membrane lipoprotein carrier protein LolA&lt;br&gt;Location: 93316 - 92726&lt;br&gt;&lt;br&gt;&lt;b&gt;BlastP hit with JNAJGP_08770&lt;/b&gt;&lt;br&gt;Percentage identity: 93&lt;br&gt;Percentage coverage: 99&lt;br&gt;BLAST bit score: 346&lt;br&gt;E-value: 3.56e-121" locus_tag="F8N47_RS16765" class="clusterblast-orf" id="dummy-3_h3_8_16"  />
</g>
<g id="a3_0017"  >
<polygon points="247,90 285,90 290,85 285,80 247,80 247,90 " style="fill:#15d833; stroke-width:1; stroke:black; " description="&lt;b&gt;F8N47_RS16760&lt;/b&gt;&lt;br&gt;MMPL family transporter&lt;br&gt;Location: 92736 - 90424&lt;br&gt;&lt;br&gt;&lt;b&gt;BlastP hit with JNAJGP_08775&lt;/b&gt;&lt;br&gt;Percentage identity: 95&lt;br&gt;Percentage coverage: 100&lt;br&gt;BLAST bit score: 1382&lt;br&gt;E-value: 0.0" locus_tag="F8N47_RS16760" class="clusterblast-orf" id="dummy-3_h3_8_17"  />
</g>
<g id="a3_0018"  >
<polygon points="291,90 309,90 314,85 309,80 291,80 291,90 " style="fill:#1551d8; stroke-width:1; stroke:black; " description="&lt;b&gt;F8N47_RS16755&lt;/b&gt;&lt;br&gt;tryptophan 7-halogenase&lt;br&gt;Location: 90390 - 89143&lt;br&gt;&lt;br&gt;&lt;b&gt;BlastP hit with JNAJGP_08780&lt;/b&gt;&lt;br&gt;Percentage identity: 95&lt;br&gt;Percentage coverage: 100&lt;br&gt;BLAST bit score: 804&lt;br&gt;E-value: 3.29e-295" locus_tag="F8N47_RS16755" class="clusterblast-orf" id="dummy-3_h3_8_18"  />
</g>
<g id="a3_0019"  >
<polygon points="314,90 323,90 328,85 323,80 314,80 314,90 " style="fill:#d815ab; stroke-width:1; stroke:black; " description="&lt;b&gt;F8N47_RS16750&lt;/b&gt;&lt;br&gt;class I SAM-dependent methyltransferase&lt;br&gt;Location: 89146 - 88412&lt;br&gt;&lt;br&gt;&lt;b&gt;BlastP hit with JNAJGP_08785&lt;/b&gt;&lt;br&gt;Percentage identity: 87&lt;br&gt;Percentage coverage: 100&lt;br&gt;BLAST bit score: 458&lt;br&gt;E-value: 6.07e-164" locus_tag="F8N47_RS16750" class="clusterblast-orf" id="dummy-3_h3_8_19"  />
</g>
<g id="a3_0020"  >
<polygon points="328,90 332,90 337,85 332,80 328,80 328,90 " style="fill:#d8ab15; stroke-width:1; stroke:black; " description="&lt;b&gt;F8N47_RS16745&lt;/b&gt;&lt;br&gt;hypothetical protein&lt;br&gt;Location: 88415 - 87933&lt;br&gt;&lt;br&gt;&lt;b&gt;BlastP hit with JNAJGP_08790&lt;/b&gt;&lt;br&gt;Percentage identity: 90&lt;br&gt;Percentage coverage: 100&lt;br&gt;BLAST bit score: 293&lt;br&gt;E-value: 2.57e-101" locus_tag="F8N47_RS16745" class="clusterblast-orf" id="dummy-3_h3_8_20"  />
</g>
<g id="a3_0021"  >
<polygon points="337,90 354,90 359,85 354,80 337,80 337,90 " style="fill:#15d851; stroke-width:1; stroke:black; " description="&lt;b&gt;F8N47_RS16740&lt;/b&gt;&lt;br&gt;beta-ketoacyl-[acyl-carrier-protein] synthase family protein&lt;br&gt;Location: 87936 - 86770&lt;br&gt;&lt;br&gt;&lt;b&gt;BlastP hit with JNAJGP_08795&lt;/b&gt;&lt;br&gt;Percentage identity: 89&lt;br&gt;Percentage coverage: 100&lt;br&gt;BLAST bit score: 689&lt;br&gt;E-value: 2.1e-250" locus_tag="F8N47_RS16740" class="clusterblast-orf" id="dummy-3_h3_8_21"  />
</g>
<g id="a3_0022"  >
<polygon points="359,90 362,90 367,85 362,80 359,80 359,90 " style="fill:#1533d8; stroke-width:1; stroke:black; " description="&lt;b&gt;F8N47_RS16735&lt;/b&gt;&lt;br&gt;hotdog family protein&lt;br&gt;Location: 86773 - 86312&lt;br&gt;&lt;br&gt;&lt;b&gt;BlastP hit with JNAJGP_08800&lt;/b&gt;&lt;br&gt;Percentage identity: 90&lt;br&gt;Percentage coverage: 99&lt;br&gt;BLAST bit score: 279&lt;br&gt;E-value: 4.7e-96" locus_tag="F8N47_RS16735" class="clusterblast-orf" id="dummy-3_h3_8_22"  />
</g>
<g id="a3_0023"  >
<polygon points="367,90 376,90 381,85 376,80 367,80 367,90 " style="fill:#d8158d; stroke-width:1; stroke:black; " description="&lt;b&gt;F8N47_RS16730&lt;/b&gt;&lt;br&gt;3-oxoacyl-ACP reductase FabG&lt;br&gt;Location: 86315 - 85587&lt;br&gt;&lt;br&gt;&lt;b&gt;BlastP hit with JNAJGP_08805&lt;/b&gt;&lt;br&gt;Percentage identity: 98&lt;br&gt;Percentage coverage: 100&lt;br&gt;BLAST bit score: 459&lt;br&gt;E-value: 1.28e-164" locus_tag="F8N47_RS16730" class="clusterblast-orf" id="dummy-3_h3_8_23"  />
</g>
<g id="a3_0024"  >
<polygon points="381,90 399,90 404,85 399,80 381,80 381,90 " style="fill:#d8c915; stroke-width:1; stroke:black; " description="&lt;b&gt;F8N47_RS16725&lt;/b&gt;&lt;br&gt;beta-ketoacyl-ACP synthase&lt;br&gt;Location: 85587 - 84361&lt;br&gt;&lt;br&gt;&lt;b&gt;BlastP hit with JNAJGP_08810&lt;/b&gt;&lt;br&gt;Percentage identity: 98&lt;br&gt;Percentage coverage: 100&lt;br&gt;BLAST bit score: 805&lt;br&gt;E-value: 9.43e-296" locus_tag="F8N47_RS16725" class="clusterblast-orf" id="dummy-3_h3_8_24"  />
</g>
<g id="a3_0025"  >
<polygon points="404,90 408,90 413,85 408,80 404,80 404,90 " style="fill:#15d86f; stroke-width:1; stroke:black; " description="&lt;b&gt;F8N47_RS16720&lt;/b&gt;&lt;br&gt;hypothetical protein&lt;br&gt;Location: 84334 - 83888&lt;br&gt;&lt;br&gt;&lt;b&gt;BlastP hit with JNAJGP_08815&lt;/b&gt;&lt;br&gt;Percentage identity: 93&lt;br&gt;Percentage coverage: 99&lt;br&gt;BLAST bit score: 261&lt;br&gt;E-value: 3.62e-89" locus_tag="F8N47_RS16720" class="clusterblast-orf" id="dummy-3_h3_8_25"  />
</g>
<g id="a3_0026"  >
<polygon points="415,85 420,80 431,80 431,90 420,90 415,85 " style="fill:#d8156f; stroke-width:1; stroke:black; " description="&lt;b&gt;F8N47_RS16715&lt;/b&gt;&lt;br&gt;LysR family transcriptional regulator&lt;br&gt;Location: 83792 - 82899&lt;br&gt;&lt;br&gt;&lt;b&gt;BlastP hit with JNAJGP_08825&lt;/b&gt;&lt;br&gt;Percentage identity: 98&lt;br&gt;Percentage coverage: 99&lt;br&gt;BLAST bit score: 547&lt;br&gt;E-value: 1.56e-197" locus_tag="F8N47_RS16715" class="clusterblast-orf" id="dummy-3_h3_8_26"  />
</g>
<g id="a3_0027"  >
<polygon points="434,90 453,90 458,85 453,80 434,80 434,90 " style="fill:#c9d815; stroke-width:1; stroke:black; " description="&lt;b&gt;F8N47_RS16710&lt;/b&gt;&lt;br&gt;MFS transporter&lt;br&gt;Location: 82774 - 81500&lt;br&gt;&lt;br&gt;&lt;b&gt;BlastP hit with JNAJGP_08830&lt;/b&gt;&lt;br&gt;Percentage identity: 95&lt;br&gt;Percentage coverage: 100&lt;br&gt;BLAST bit score: 768&lt;br&gt;E-value: 1.99e-280" locus_tag="F8N47_RS16710" class="clusterblast-orf" id="dummy-3_h3_8_27"  />
</g>
<g id="a3_0028"  >
<polygon points="459,85 464,80 479,80 479,90 464,90 459,85 " style="fill:#15d88d; stroke-width:1; stroke:black; " description="&lt;b&gt;F8N47_RS16705&lt;/b&gt;&lt;br&gt;uroporphyrinogen decarboxylase&lt;br&gt;Location: 81439 - 80372&lt;br&gt;&lt;br&gt;&lt;b&gt;BlastP hit with JNAJGP_08835&lt;/b&gt;&lt;br&gt;Percentage identity: 99&lt;br&gt;Percentage coverage: 100&lt;br&gt;BLAST bit score: 712&lt;br&gt;E-value: 5.73e-261" locus_tag="F8N47_RS16705" class="clusterblast-orf" id="dummy-3_h3_8_28"  />
</g>
<g id="a3_0029"  >
<polygon points="482,85 487,80 509,80 509,90 487,90 482,85 " style="fill:#3315d8; stroke-width:1; stroke:black; " description="&lt;b&gt;F8N47_RS16700&lt;/b&gt;&lt;br&gt;FAD-dependent oxidoreductase&lt;br&gt;Location: 80187 - 78769&lt;br&gt;&lt;br&gt;&lt;b&gt;BlastP hit with JNAJGP_08840&lt;/b&gt;&lt;br&gt;Percentage identity: 99&lt;br&gt;Percentage coverage: 100&lt;br&gt;BLAST bit score: 951&lt;br&gt;E-value: 0.0" locus_tag="F8N47_RS16700" class="clusterblast-orf" id="dummy-3_h3_8_29"  />
</g>
<g id="a3_0030"  >
<polygon points="510,85 515,80 593,80 593,90 515,90 510,85 " style="fill:#d81551; stroke-width:1; stroke:black; " description="&lt;b&gt;F8N47_RS16695&lt;/b&gt;&lt;br&gt;glutamate synthase large subunit&lt;br&gt;Location: 78736 - 74291&lt;br&gt;&lt;br&gt;&lt;b&gt;BlastP hit with JNAJGP_08845&lt;/b&gt;&lt;br&gt;Percentage identity: 99&lt;br&gt;Percentage coverage: 100&lt;br&gt;BLAST bit score: 2870&lt;br&gt;E-value: 0.0" locus_tag="F8N47_RS16695" class="clusterblast-orf" id="dummy-3_h3_8_30"  />
</g>
<g id="a3_0031"  >
<polygon points="600,85 605,80 629,80 629,90 605,90 600,85 " style="fill:#abd815; stroke-width:1; stroke:black; " description="&lt;b&gt;F8N47_RS16685&lt;/b&gt;&lt;br&gt;SPOR domain-containing protein&lt;br&gt;Location: 73939 - 72377&lt;br&gt;&lt;br&gt;&lt;b&gt;BlastP hit with JNAJGP_08850&lt;/b&gt;&lt;br&gt;Percentage identity: 96&lt;br&gt;Percentage coverage: 100&lt;br&gt;BLAST bit score: 864&lt;br&gt;E-value: 1.95e-315" locus_tag="F8N47_RS16685" class="clusterblast-orf" id="dummy-3_h3_8_31"  />
</g>
<g id="a3_0032"  >
<polygon points="629,85 634,80 650,80 650,90 634,90 629,85 " style="fill:#15d8ab; stroke-width:1; stroke:black; " description="&lt;b&gt;F8N47_RS16680&lt;/b&gt;&lt;br&gt;3-dehydroquinate synthase&lt;br&gt;Location: 72366 - 71266&lt;br&gt;&lt;br&gt;&lt;b&gt;BlastP hit with JNAJGP_08855&lt;/b&gt;&lt;br&gt;Percentage identity: 98&lt;br&gt;Percentage coverage: 100&lt;br&gt;BLAST bit score: 711&lt;br&gt;E-value: 3.88e-260" locus_tag="F8N47_RS16680" class="clusterblast-orf" id="dummy-3_h3_8_32"  />
</g>
<g id="a3_0033"  >
<polygon points="652,85 657,80 662,80 662,90 657,90 652,85 " style="fill:#5115d8; stroke-width:1; stroke:black; " description="&lt;b&gt;F8N47_RS16675&lt;/b&gt;&lt;br&gt;shikimate kinase AroK&lt;br&gt;Location: 71140 - 70622&lt;br&gt;&lt;br&gt;&lt;b&gt;BlastP hit with JNAJGP_08860&lt;/b&gt;&lt;br&gt;Percentage identity: 99&lt;br&gt;Percentage coverage: 100&lt;br&gt;BLAST bit score: 318&lt;br&gt;E-value: 3.81e-111" locus_tag="F8N47_RS16675" class="clusterblast-orf" id="dummy-3_h3_8_33"  />
</g>
<g id="a3_0034"  >
<polygon points="662,85 667,80 687,80 687,90 667,90 662,85 " style="fill:#d81533; stroke-width:1; stroke:black; " description="&lt;b&gt;F8N47_RS16670&lt;/b&gt;&lt;br&gt;type IV pilus secretin PilQ family protein&lt;br&gt;Location: 70617 - 69292&lt;br&gt;&lt;br&gt;&lt;b&gt;BlastP hit with JNAJGP_08865&lt;/b&gt;&lt;br&gt;Percentage identity: 93&lt;br&gt;Percentage coverage: 96&lt;br&gt;BLAST bit score: 788&lt;br&gt;E-value: 1.89e-287" locus_tag="F8N47_RS16670" class="clusterblast-orf" id="dummy-3_h3_8_34"  />
</g>
<g id="a3_0035"  >
<polygon points="688,85 693,80 707,80 707,90 693,90 688,85 " style="fill:#8dd815; stroke-width:1; stroke:black; " description="&lt;b&gt;F8N47_RS16665&lt;/b&gt;&lt;br&gt;pilus assembly protein PilP&lt;br&gt;Location: 69222 - 68251&lt;br&gt;&lt;br&gt;&lt;b&gt;BlastP hit with JNAJGP_08870&lt;/b&gt;&lt;br&gt;Percentage identity: 72&lt;br&gt;Percentage coverage: 100&lt;br&gt;BLAST bit score: 461&lt;br&gt;E-value: 1.03e-162" locus_tag="F8N47_RS16665" class="clusterblast-orf" id="dummy-3_h3_8_35"  />
</g>
<g id="a3_0036"  >
<polygon points="707,85 712,80 717,80 717,90 712,90 707,85 " style="fill:#15d8c9; stroke-width:1; stroke:black; " description="&lt;b&gt;F8N47_RS16660&lt;/b&gt;&lt;br&gt;PilN domain-containing protein&lt;br&gt;Location: 68254 - 67703&lt;br&gt;&lt;br&gt;&lt;b&gt;BlastP hit with JNAJGP_08875&lt;/b&gt;&lt;br&gt;Percentage identity: 85&lt;br&gt;Percentage coverage: 99&lt;br&gt;BLAST bit score: 287&lt;br&gt;E-value: 2.88e-98" locus_tag="F8N47_RS16660" class="clusterblast-orf" id="dummy-3_h3_8_36"  />
</g>
<g id="a3_0037"  >
<polygon points="717,85 722,80 729,80 729,90 722,90 717,85 " style="fill:#6f15d8; stroke-width:1; stroke:black; " description="&lt;b&gt;F8N47_RS16655&lt;/b&gt;&lt;br&gt;type IV pilus assembly protein PilM&lt;br&gt;Location: 67706 - 67050&lt;br&gt;&lt;br&gt;&lt;b&gt;BlastP hit with JNAJGP_08880&lt;/b&gt;&lt;br&gt;Percentage identity: 71&lt;br&gt;Percentage coverage: 100&lt;br&gt;BLAST bit score: 293&lt;br&gt;E-value: 1.29e-99" locus_tag="F8N47_RS16655" class="clusterblast-orf" id="dummy-3_h3_8_37"  />
</g>
<g id="a3_0038"  >
<polygon points="730,85 734,80 734,90 730,85 " style="fill:white; stroke-width:1; stroke:black; " description="&lt;b&gt;F8N47_RS30465&lt;/b&gt;&lt;br&gt;hypothetical protein&lt;br&gt;Location: 66979 - 66797" locus_tag="F8N47_RS30465" class="clusterblast-orf" id="dummy-3_h3_8_38"  />
</g>
<g id="a3_0039"  >
<polygon points="733,90 775,90 780,85 775,80 733,80 733,90 " style="fill:white; stroke-width:1; stroke:black; " description="&lt;b&gt;F8N47_RS16650&lt;/b&gt;&lt;br&gt;penicillin-binding protein 1A&lt;br&gt;Location: 66831 - 64369" locus_tag="F8N47_RS16650" class="clusterblast-orf" id="dummy-3_h3_8_39"  />
</g>
</svg>
