<svg xmlns="http://www.w3.org/2000/svg" xmlns:xlink="http://www.w3.org/1999/xlink" version="1.1" x="0" y="0" height="230" width="800" viewBox="0 0 800 230" preserveAspectRatio="none"  >
<g label="Query sequence" class="clusterblast-cluster"  >
<text x="5" y="20" class="clusterblast-acc"  >
Query sequence</text>
<line x1="10" y1="35" x2="778.0" y2="35" style="stroke-width:1; stroke:grey; "  />
<polygon points="51,40 110,40 115,35 110,30 51,30 51,40 " style="fill:#d81515; stroke-width:1; stroke:black; " description="&lt;b&gt;JNAJGP_13890&lt;/b&gt;&lt;br&gt;phenylacyl-CoA dehydrogenase&lt;br&gt;Location: 2957054 - 2958860" locus_tag="JNAJGP_13890" class="clusterblast-orf" id="dummy-6_q0_0_all"  />
<polygon points="123,40 164,40 169,35 164,30 123,30 123,40 " style="fill:#4dd815; stroke-width:1; stroke:black; " description="&lt;b&gt;JNAJGP_13895&lt;/b&gt;&lt;br&gt;GGDEF domain-containing protein&lt;br&gt;Location: 2959064 - 2960357" locus_tag="JNAJGP_13895" class="clusterblast-orf" id="dummy-6_q1_0_all"  />
<polygon points="172,40 231,40 236,35 231,30 172,30 172,40 " style="fill:#d81515; stroke-width:1; stroke:black; " description="&lt;b&gt;JNAJGP_13900&lt;/b&gt;&lt;br&gt;Acyl-CoA dehydrogenase&lt;br&gt;Location: 2960447 - 2962217" locus_tag="JNAJGP_13900" class="clusterblast-orf" id="dummy-6_q2_0_all"  />
<polygon points="240,40 299,40 304,35 299,30 240,30 240,40 " style="fill:#d81515; stroke-width:1; stroke:black; " description="&lt;b&gt;JNAJGP_13905&lt;/b&gt;&lt;br&gt;Acyl-CoA dehydrogenase&lt;br&gt;Location: 2962339 - 2964118" locus_tag="JNAJGP_13905" class="clusterblast-orf" id="dummy-6_q3_0_all"  />
<polygon points="312,35 317,30 345,30 345,40 317,40 312,35 " style="fill:#1585d8; stroke-width:1; stroke:black; " description="&lt;b&gt;JNAJGP_13915&lt;/b&gt;&lt;br&gt;HTH lysR-type domain-containing protein&lt;br&gt;Location: 2964345 - 2965245" locus_tag="JNAJGP_13915" class="clusterblast-orf" id="dummy-6_q4_0_all"  />
<polygon points="352,40 392,40 397,35 392,30 352,30 352,40 " style="fill:#a115d8; stroke-width:1; stroke:black; " description="&lt;b&gt;JNAJGP_13920&lt;/b&gt;&lt;br&gt;Acetylornithine and succinylornithine aminotransferase&lt;br&gt;Location: 2965442 - 2966705" locus_tag="JNAJGP_13920" class="clusterblast-orf" id="dummy-6_q5_0_all"  />
<polygon points="404,40 404,40 409,35 404,30 404,30 404,40 " style="fill:#d86915; stroke-width:1; stroke:black; " description="&lt;b&gt;JNAJGP_13925&lt;/b&gt;&lt;br&gt;Membrane putative modulator PMP3/YqaE, plasma membrane proteolipid 3 (PMP3)/Esi3/RCI2/UPF0057 family&lt;br&gt;Location: 2966887 - 2967046" locus_tag="JNAJGP_13925" class="clusterblast-orf" id="dummy-6_q6_0_all"  />
<polygon points="409,35 414,30 451,30 451,40 414,40 409,35 " style="fill:#15d831; stroke-width:1; stroke:black; " description="&lt;b&gt;JNAJGP_13930&lt;/b&gt;&lt;br&gt;pyrroloquinoline quinone biosynthesis protein PqqE&lt;br&gt;Location: 2967051 - 2968203" locus_tag="JNAJGP_13930" class="clusterblast-orf" id="dummy-6_q7_0_all"  />
<polygon points="450,35 455,30 460,30 460,40 455,40 450,35 " style="fill:#1531d8; stroke-width:1; stroke:black; " description="&lt;b&gt;JNAJGP_13935&lt;/b&gt;&lt;br&gt;pyrroloquinoline quinone biosynthesis peptide chaperone PqqD&lt;br&gt;Location: 2968174 - 2968450" locus_tag="JNAJGP_13935" class="clusterblast-orf" id="dummy-6_q8_0_all"  />
<polygon points="459,35 464,30 487,30 487,40 464,40 459,35 " style="fill:#d815bc; stroke-width:1; stroke:black; " description="&lt;b&gt;JNAJGP_13940&lt;/b&gt;&lt;br&gt;pyrroloquinoline-quinone synthase PqqC&lt;br&gt;Location: 2968446 - 2969199" locus_tag="JNAJGP_13940" class="clusterblast-orf" id="dummy-6_q9_0_all"  />
<polygon points="487,35 492,30 520,30 520,40 492,40 487,35 " style="fill:#d8bc15; stroke-width:1; stroke:black; " description="&lt;b&gt;JNAJGP_13945&lt;/b&gt;&lt;br&gt;pyrroloquinoline quinone biosynthesis protein PqqB&lt;br&gt;Location: 2969210 - 2970122" locus_tag="JNAJGP_13945" class="clusterblast-orf" id="dummy-6_q10_0_all"  />
<polygon points="522,35 525,30 525,40 522,35 " style="fill:#15d885; stroke-width:1; stroke:black; " description="&lt;b&gt;JNAJGP_13950&lt;/b&gt;&lt;br&gt;pyrroloquinoline quinone precursor peptide PqqA&lt;br&gt;Location: 2970193 - 2970268" locus_tag="JNAJGP_13950" class="clusterblast-orf" id="dummy-6_q11_0_all"  />
<polygon points="531,35 536,30 616,30 616,40 536,40 531,35 " style="fill:#4d15d8; stroke-width:1; stroke:black; " description="&lt;b&gt;JNAJGP_13955&lt;/b&gt;&lt;br&gt;pyrroloquinoline quinone biosynthesis protein PqqF&lt;br&gt;Location: 2970427 - 2972797" locus_tag="JNAJGP_13955" class="clusterblast-orf" id="dummy-6_q12_0_all"  />
<polygon points="618,35 623,30 646,30 646,40 623,40 618,35 " style="fill:#d81569; stroke-width:1; stroke:black; " description="&lt;b&gt;JNAJGP_13960&lt;/b&gt;&lt;br&gt;(R)-stereoselective amidase&lt;br&gt;Location: 2972856 - 2973651" locus_tag="JNAJGP_13960" class="clusterblast-orf" id="dummy-6_q13_0_all"  />
<polygon points="647,35 652,30 708,30 708,40 652,40 647,35 " style="fill:#a1d815; stroke-width:1; stroke:black; " description="&lt;b&gt;JNAJGP_13965&lt;/b&gt;&lt;br&gt;Monoamine oxidase&lt;br&gt;Location: 2973662 - 2975366" locus_tag="JNAJGP_13965" class="clusterblast-orf" id="dummy-6_q14_0_all"  />
<polygon points="713,35 718,30 729,30 729,40 718,40 713,35 " style="fill:#15d8d8; stroke-width:1; stroke:black; " description="&lt;b&gt;JNAJGP_13970&lt;/b&gt;&lt;br&gt;DNA-binding transcriptional regulator, Lrp family&lt;br&gt;Location: 2975511 - 2975958" locus_tag="JNAJGP_13970" class="clusterblast-orf" id="dummy-6_q15_0_all"  />
</g>
<g label="NZ_JAAOWV010000020" description="NZ_JAAOWV010000020 (24629-46777): Pseudomonas sivasensis strain CCUG 57209 CC... (76% of genes show similarity), redox-cofactor" class="clusterblast-cluster"  >
<text x="5" y="70" class="clusterblast-acc"  >
<a xlink:href="https://antismash-db.secondarymetabolites.org/area?record=NZ_JAAOWV010000020&amp;start=24629&amp;end=46777" target="_blank">NZ_JAAOWV010000020 (24629-46777)</a>: Pseudomonas sivasensis strain CCUG 57209 CC... (76% of genes show similarity), redox-cofactor</text>
<line x1="10" y1="85" x2="778.0" y2="85" style="stroke-width:1; stroke:grey; "  />
</g>
<g id="a6_000"  >
<polygon points="0,90 59,90 64,85 59,80 0,80 0,90 " style="fill:#d81515; stroke-width:1; stroke:black; " description="&lt;b&gt;G9Q86_RS24755&lt;/b&gt;&lt;br&gt;phenylacyl-CoA dehydrogenase&lt;br&gt;Location: 24638 - 26443&lt;br&gt;&lt;br&gt;&lt;b&gt;BlastP hit with JNAJGP_13890&lt;/b&gt;&lt;br&gt;Percentage identity: 98&lt;br&gt;Percentage coverage: 100&lt;br&gt;BLAST bit score: 1197&lt;br&gt;E-value: 0.0&lt;br&gt;&lt;br&gt;&lt;b&gt;BlastP hit with JNAJGP_13900&lt;/b&gt;&lt;br&gt;Percentage identity: 65&lt;br&gt;Percentage coverage: 102&lt;br&gt;BLAST bit score: 784&lt;br&gt;E-value: 2.52e-281&lt;br&gt;&lt;br&gt;&lt;b&gt;BlastP hit with JNAJGP_13905&lt;/b&gt;&lt;br&gt;Percentage identity: 54&lt;br&gt;Percentage coverage: 101&lt;br&gt;BLAST bit score: 619&lt;br&gt;E-value: 3.59e-216" locus_tag="G9Q86_RS24755" class="clusterblast-orf" id="dummy-6_h6_7_0"  />
</g>
<g id="a6_001"  >
<polygon points="72,90 113,90 118,85 113,80 72,80 72,90 " style="fill:#4dd815; stroke-width:1; stroke:black; " description="&lt;b&gt;G9Q86_RS24760&lt;/b&gt;&lt;br&gt;GGDEF domain-containing protein&lt;br&gt;Location: 26644 - 27933&lt;br&gt;&lt;br&gt;&lt;b&gt;BlastP hit with JNAJGP_13895&lt;/b&gt;&lt;br&gt;Percentage identity: 92&lt;br&gt;Percentage coverage: 100&lt;br&gt;BLAST bit score: 779&lt;br&gt;E-value: 1.16e-284" locus_tag="G9Q86_RS24760" class="clusterblast-orf" id="dummy-6_h6_7_1"  />
</g>
<g id="a6_002"  >
<polygon points="121,90 180,90 185,85 180,80 121,80 121,90 " style="fill:#d81515; stroke-width:1; stroke:black; " description="&lt;b&gt;G9Q86_RS24765&lt;/b&gt;&lt;br&gt;acyl-CoA dehydrogenase C-terminal domain-containing protein&lt;br&gt;Location: 28024 - 29793&lt;br&gt;&lt;br&gt;&lt;b&gt;BlastP hit with JNAJGP_13890&lt;/b&gt;&lt;br&gt;Percentage identity: 65&lt;br&gt;Percentage coverage: 100&lt;br&gt;BLAST bit score: 787&lt;br&gt;E-value: 1.56e-282&lt;br&gt;&lt;br&gt;&lt;b&gt;BlastP hit with JNAJGP_13900&lt;/b&gt;&lt;br&gt;Percentage identity: 96&lt;br&gt;Percentage coverage: 100&lt;br&gt;BLAST bit score: 1152&lt;br&gt;E-value: 0.0&lt;br&gt;&lt;br&gt;&lt;b&gt;BlastP hit with JNAJGP_13905&lt;/b&gt;&lt;br&gt;Percentage identity: 58&lt;br&gt;Percentage coverage: 101&lt;br&gt;BLAST bit score: 648&lt;br&gt;E-value: 7.16e-228" locus_tag="G9Q86_RS24765" class="clusterblast-orf" id="dummy-6_h6_7_2"  />
</g>
<g id="a6_003"  >
<polygon points="189,90 248,90 253,85 248,80 189,80 189,90 " style="fill:#d81515; stroke-width:1; stroke:black; " description="&lt;b&gt;G9Q86_RS24770&lt;/b&gt;&lt;br&gt;acyl-CoA dehydrogenase C-terminal domain-containing protein&lt;br&gt;Location: 29916 - 31694&lt;br&gt;&lt;br&gt;&lt;b&gt;BlastP hit with JNAJGP_13890&lt;/b&gt;&lt;br&gt;Percentage identity: 53&lt;br&gt;Percentage coverage: 100&lt;br&gt;BLAST bit score: 622&lt;br&gt;E-value: 3.17e-217&lt;br&gt;&lt;br&gt;&lt;b&gt;BlastP hit with JNAJGP_13900&lt;/b&gt;&lt;br&gt;Percentage identity: 57&lt;br&gt;Percentage coverage: 99&lt;br&gt;BLAST bit score: 634&lt;br&gt;E-value: 2.04e-222&lt;br&gt;&lt;br&gt;&lt;b&gt;BlastP hit with JNAJGP_13905&lt;/b&gt;&lt;br&gt;Percentage identity: 96&lt;br&gt;Percentage coverage: 100&lt;br&gt;BLAST bit score: 1122&lt;br&gt;E-value: 0.0" locus_tag="G9Q86_RS24770" class="clusterblast-orf" id="dummy-6_h6_7_3"  />
</g>
<g id="a6_004"  >
<polygon points="261,85 266,80 293,80 293,90 266,90 261,85 " style="fill:#1585d8; stroke-width:1; stroke:black; " description="&lt;b&gt;G9Q86_RS24775&lt;/b&gt;&lt;br&gt;LysR family transcriptional regulator&lt;br&gt;Location: 31921 - 32820&lt;br&gt;&lt;br&gt;&lt;b&gt;BlastP hit with JNAJGP_13915&lt;/b&gt;&lt;br&gt;Percentage identity: 97&lt;br&gt;Percentage coverage: 100&lt;br&gt;BLAST bit score: 564&lt;br&gt;E-value: 5.08e-204" locus_tag="G9Q86_RS24775" class="clusterblast-orf" id="dummy-6_h6_7_4"  />
</g>
<g id="a6_005"  >
<polygon points="299,90 341,90 346,85 341,80 299,80 299,90 " style="fill:#a115d8; stroke-width:1; stroke:black; " description="&lt;b&gt;G9Q86_RS24780&lt;/b&gt;&lt;br&gt;aminotransferase class III-fold pyridoxal phosphate-dependent enzyme&lt;br&gt;Location: 32991 - 34283&lt;br&gt;&lt;br&gt;&lt;b&gt;BlastP hit with JNAJGP_13920&lt;/b&gt;&lt;br&gt;Percentage identity: 92&lt;br&gt;Percentage coverage: 100&lt;br&gt;BLAST bit score: 761&lt;br&gt;E-value: 5.82e-278" locus_tag="G9Q86_RS24780" class="clusterblast-orf" id="dummy-6_h6_7_5"  />
</g>
<g id="a6_006"  >
<polygon points="352,90 353,90 358,85 353,80 352,80 352,90 " style="fill:#d86915; stroke-width:1; stroke:black; " description="&lt;b&gt;G9Q86_RS24785&lt;/b&gt;&lt;br&gt;YqaE/Pmp3 family membrane protein&lt;br&gt;Location: 34466 - 34624&lt;br&gt;&lt;br&gt;&lt;b&gt;BlastP hit with JNAJGP_13925&lt;/b&gt;&lt;br&gt;Percentage identity: 98&lt;br&gt;Percentage coverage: 100&lt;br&gt;BLAST bit score: 102&lt;br&gt;E-value: 4.82e-29" locus_tag="G9Q86_RS24785" class="clusterblast-orf" id="dummy-6_h6_7_6"  />
</g>
<g id="a6_007"  >
<polygon points="358,85 363,80 399,80 399,90 363,90 358,85 " style="fill:#15d831; stroke-width:1; stroke:black; " description="&lt;b&gt;G9Q86_RS24790&lt;/b&gt;&lt;br&gt;pyrroloquinoline quinone biosynthesis protein PqqE&lt;br&gt;Location: 34630 - 35760&lt;br&gt;&lt;br&gt;&lt;b&gt;BlastP hit with JNAJGP_13930&lt;/b&gt;&lt;br&gt;Percentage identity: 98&lt;br&gt;Percentage coverage: 98&lt;br&gt;BLAST bit score: 768&lt;br&gt;E-value: 3.09e-282" locus_tag="G9Q86_RS24790" class="clusterblast-orf" id="dummy-6_h6_7_7"  />
</g>
<g id="a6_008"  >
<polygon points="398,85 403,80 408,80 408,90 403,90 398,85 " style="fill:#1531d8; stroke-width:1; stroke:black; " description="&lt;b&gt;G9Q86_RS24795&lt;/b&gt;&lt;br&gt;pyrroloquinoline quinone biosynthesis peptide chaperone PqqD&lt;br&gt;Location: 35753 - 36028&lt;br&gt;&lt;br&gt;&lt;b&gt;BlastP hit with JNAJGP_13935&lt;/b&gt;&lt;br&gt;Percentage identity: 95&lt;br&gt;Percentage coverage: 100&lt;br&gt;BLAST bit score: 178&lt;br&gt;E-value: 3.11e-58" locus_tag="G9Q86_RS24795" class="clusterblast-orf" id="dummy-6_h6_7_8"  />
</g>
<g id="a6_009"  >
<polygon points="408,85 413,80 435,80 435,90 413,90 408,85 " style="fill:#d815bc; stroke-width:1; stroke:black; " description="&lt;b&gt;G9Q86_RS24800&lt;/b&gt;&lt;br&gt;pyrroloquinoline-quinone synthase PqqC&lt;br&gt;Location: 36025 - 36777&lt;br&gt;&lt;br&gt;&lt;b&gt;BlastP hit with JNAJGP_13940&lt;/b&gt;&lt;br&gt;Percentage identity: 99&lt;br&gt;Percentage coverage: 100&lt;br&gt;BLAST bit score: 517&lt;br&gt;E-value: 4.54e-187" locus_tag="G9Q86_RS24800" class="clusterblast-orf" id="dummy-6_h6_7_9"  />
</g>
<g id="a6_0010"  >
<polygon points="436,85 441,80 468,80 468,90 441,90 436,85 " style="fill:#d8bc15; stroke-width:1; stroke:black; " description="&lt;b&gt;G9Q86_RS24805&lt;/b&gt;&lt;br&gt;pyrroloquinoline quinone biosynthesis protein PqqB&lt;br&gt;Location: 36789 - 37700&lt;br&gt;&lt;br&gt;&lt;b&gt;BlastP hit with JNAJGP_13945&lt;/b&gt;&lt;br&gt;Percentage identity: 99&lt;br&gt;Percentage coverage: 100&lt;br&gt;BLAST bit score: 627&lt;br&gt;E-value: 4.87e-229" locus_tag="G9Q86_RS24805" class="clusterblast-orf" id="dummy-6_h6_7_10"  />
</g>
<g id="a6_0011"  >
<polygon points="471,85 474,80 474,90 471,85 " style="fill:#15d885; stroke-width:1; stroke:black; " description="&lt;b&gt;G9Q86_RS24810&lt;/b&gt;&lt;br&gt;pyrroloquinoline quinone precursor peptide PqqA&lt;br&gt;Location: 37772 - 37846&lt;br&gt;&lt;br&gt;&lt;b&gt;BlastP hit with JNAJGP_13950&lt;/b&gt;&lt;br&gt;Percentage identity: 100&lt;br&gt;Percentage coverage: 100&lt;br&gt;BLAST bit score: 55&lt;br&gt;E-value: 3.69e-11" locus_tag="G9Q86_RS24810" class="clusterblast-orf" id="dummy-6_h6_7_11"  />
</g>
<g id="a6_0012"  >
<polygon points="480,85 485,80 564,80 564,90 485,90 480,85 " style="fill:#4d15d8; stroke-width:1; stroke:black; " description="&lt;b&gt;G9Q86_RS24815&lt;/b&gt;&lt;br&gt;pyrroloquinoline quinone biosynthesis protein PqqF&lt;br&gt;Location: 38021 - 40375&lt;br&gt;&lt;br&gt;&lt;b&gt;BlastP hit with JNAJGP_13955&lt;/b&gt;&lt;br&gt;Percentage identity: 77&lt;br&gt;Percentage coverage: 99&lt;br&gt;BLAST bit score: 1194&lt;br&gt;E-value: 0.0" locus_tag="G9Q86_RS24815" class="clusterblast-orf" id="dummy-6_h6_7_12"  />
</g>
<g id="a6_0013"  >
<polygon points="566,85 571,80 595,80 595,90 571,90 566,85 " style="fill:#d81569; stroke-width:1; stroke:black; " description="&lt;b&gt;G9Q86_RS24820&lt;/b&gt;&lt;br&gt;carbon-nitrogen hydrolase family protein&lt;br&gt;Location: 40424 - 41218&lt;br&gt;&lt;br&gt;&lt;b&gt;BlastP hit with JNAJGP_13960&lt;/b&gt;&lt;br&gt;Percentage identity: 90&lt;br&gt;Percentage coverage: 100&lt;br&gt;BLAST bit score: 482&lt;br&gt;E-value: 9.99e-173" locus_tag="G9Q86_RS24820" class="clusterblast-orf" id="dummy-6_h6_7_13"  />
</g>
<g id="a6_0014"  >
<polygon points="595,85 600,80 656,80 656,90 600,90 595,85 " style="fill:#a1d815; stroke-width:1; stroke:black; " description="&lt;b&gt;G9Q86_RS24825&lt;/b&gt;&lt;br&gt;NAD(P)/FAD-dependent oxidoreductase&lt;br&gt;Location: 41230 - 42921&lt;br&gt;&lt;br&gt;&lt;b&gt;BlastP hit with JNAJGP_13965&lt;/b&gt;&lt;br&gt;Percentage identity: 97&lt;br&gt;Percentage coverage: 99&lt;br&gt;BLAST bit score: 1133&lt;br&gt;E-value: 0.0" locus_tag="G9Q86_RS24825" class="clusterblast-orf" id="dummy-6_h6_7_14"  />
</g>
<g id="a6_0015"  >
<polygon points="661,85 666,80 677,80 677,90 666,90 661,85 " style="fill:#15d8d8; stroke-width:1; stroke:black; " description="&lt;b&gt;G9Q86_RS24830&lt;/b&gt;&lt;br&gt;Lrp/AsnC family transcriptional regulator&lt;br&gt;Location: 43068 - 43514&lt;br&gt;&lt;br&gt;&lt;b&gt;BlastP hit with JNAJGP_13970&lt;/b&gt;&lt;br&gt;Percentage identity: 98&lt;br&gt;Percentage coverage: 100&lt;br&gt;BLAST bit score: 275&lt;br&gt;E-value: 1.54e-94" locus_tag="G9Q86_RS24830" class="clusterblast-orf" id="dummy-6_h6_7_15"  />
</g>
<g id="a6_0016"  >
<polygon points="678,85 683,80 684,80 684,90 683,90 678,85 " style="fill:white; stroke-width:1; stroke:black; " description="&lt;b&gt;G9Q86_RS28625&lt;/b&gt;&lt;br&gt;LysR family transcriptional regulator&lt;br&gt;Location: 43551 - 43703" locus_tag="G9Q86_RS28625" class="clusterblast-orf" id="dummy-6_h6_7_16"  />
</g>
<g id="a6_0017"  >
<polygon points="684,90 690,90 695,85 690,80 684,80 684,90 " style="fill:white; stroke-width:1; stroke:black; " description="&lt;b&gt;G9Q86_RS28630&lt;/b&gt;&lt;br&gt;glyoxalase&lt;br&gt;Location: 43712 - 44013" locus_tag="G9Q86_RS28630" class="clusterblast-orf" id="dummy-6_h6_7_17"  />
</g>
<g id="a6_0018"  >
<polygon points="722,85 727,80 731,80 731,90 727,90 722,85 " style="fill:white; stroke-width:1; stroke:black; " description="&lt;b&gt;G9Q86_RS24840&lt;/b&gt;&lt;br&gt;hypothetical protein&lt;br&gt;Location: 44778 - 45020" locus_tag="G9Q86_RS24840" class="clusterblast-orf" id="dummy-6_h6_7_18"  />
</g>
<g id="a6_0019"  >
<polygon points="732,85 737,80 749,80 749,90 737,90 732,85 " style="fill:white; stroke-width:1; stroke:black; " description="&lt;b&gt;G9Q86_RS24845&lt;/b&gt;&lt;br&gt;hypothetical protein&lt;br&gt;Location: 45031 - 45531" locus_tag="G9Q86_RS24845" class="clusterblast-orf" id="dummy-6_h6_7_19"  />
</g>
<g id="a6_0020"  >
<polygon points="771,85 776,80 780,80 780,90 776,90 771,85 " style="fill:white; stroke-width:1; stroke:black; " description="&lt;b&gt;G9Q86_RS28635&lt;/b&gt;&lt;br&gt;site-specific integrase&lt;br&gt;Location: 46132 - 46367" locus_tag="G9Q86_RS28635" class="clusterblast-orf" id="dummy-6_h6_7_20"  />
</g>
</svg>
