<svg xmlns="http://www.w3.org/2000/svg" xmlns:xlink="http://www.w3.org/1999/xlink" version="1.1" x="0" y="0" height="230" width="800" viewBox="0 0 800 230" preserveAspectRatio="none"  >
<g label="Query sequence" class="clusterblast-cluster"  >
<text x="5" y="20" class="clusterblast-acc"  >
Query sequence</text>
<line x1="10" y1="35" x2="778.0" y2="35" style="stroke-width:1; stroke:grey; "  />
<polygon points="0,40 32,40 37,35 32,30 0,30 0,40 " style="fill:#d81515; stroke-width:1; stroke:black; " description="&lt;b&gt;JNAJGP_24070&lt;/b&gt;&lt;br&gt;phage tail protein&lt;br&gt;Location: 5054663 - 5058125" locus_tag="JNAJGP_24070" class="clusterblast-orf" id="dummy-9_q0_0_all"  />
<polygon points="41,40 42,40 47,35 42,30 41,30 41,40 " style="fill:#5cd815; stroke-width:1; stroke:black; " description="&lt;b&gt;JNAJGP_24075&lt;/b&gt;&lt;br&gt;Phage tail protein&lt;br&gt;Location: 5058471 - 5059101" locus_tag="JNAJGP_24075" class="clusterblast-orf" id="dummy-9_q1_0_all"  />
<polygon points="48,40 51,40 56,35 51,30 48,30 48,40 " style="fill:#15c7d8; stroke-width:1; stroke:black; " description="&lt;b&gt;JNAJGP_24080&lt;/b&gt;&lt;br&gt;Phage tail protein&lt;br&gt;Location: 5059159 - 5059927" locus_tag="JNAJGP_24080" class="clusterblast-orf" id="dummy-9_q2_0_all"  />
<polygon points="56,40 59,35 56,30 56,40 " style="fill:white; stroke-width:1; stroke:black; " description="&lt;b&gt;JNAJGP_24085&lt;/b&gt;&lt;br&gt;hypothetical protein&lt;br&gt;Location: 5059926 - 5060217" locus_tag="JNAJGP_24085" class="clusterblast-orf" id="dummy-9_q3_0_all"  />
<polygon points="59,40 62,35 59,30 59,40 " style="fill:white; stroke-width:1; stroke:black; " description="&lt;b&gt;JNAJGP_24090&lt;/b&gt;&lt;br&gt;Phage tail protein&lt;br&gt;Location: 5060213 - 5060465" locus_tag="JNAJGP_24090" class="clusterblast-orf" id="dummy-9_q4_0_all"  />
<polygon points="63,40 63,40 68,35 63,30 63,30 63,40 " style="fill:#8015d8; stroke-width:1; stroke:black; " description="&lt;b&gt;JNAJGP_24095&lt;/b&gt;&lt;br&gt;Chitinase&lt;br&gt;Location: 5060520 - 5061054" locus_tag="JNAJGP_24095" class="clusterblast-orf" id="dummy-9_q5_0_all"  />
<polygon points="68,40 69,40 74,35 69,30 68,30 68,40 " style="fill:#d83915; stroke-width:1; stroke:black; " description="&lt;b&gt;JNAJGP_24100&lt;/b&gt;&lt;br&gt;Lysozyme&lt;br&gt;Location: 5061050 - 5061620" locus_tag="JNAJGP_24100" class="clusterblast-orf" id="dummy-9_q6_0_all"  />
<polygon points="74,35 77,30 77,40 74,35 " style="fill:white; stroke-width:1; stroke:black; " description="&lt;b&gt;JNAJGP_24105&lt;/b&gt;&lt;br&gt;NIPSNAP domain-containing protein&lt;br&gt;Location: 5061579 - 5061843" locus_tag="JNAJGP_24105" class="clusterblast-orf" id="dummy-9_q7_0_all"  />
<polygon points="78,35 82,30 82,40 78,35 " style="fill:#39d815; stroke-width:1; stroke:black; " description="&lt;b&gt;JNAJGP_24110&lt;/b&gt;&lt;br&gt;Lipoprotein&lt;br&gt;Location: 5061930 - 5062311" locus_tag="JNAJGP_24110" class="clusterblast-orf" id="dummy-9_q8_0_all"  />
<polygon points="86,40 91,40 96,35 91,30 86,30 86,40 " style="fill:#15a3d8; stroke-width:1; stroke:black; " description="&lt;b&gt;JNAJGP_24120&lt;/b&gt;&lt;br&gt;LysR family transcriptional regulator&lt;br&gt;Location: 5062760 - 5063663" locus_tag="JNAJGP_24120" class="clusterblast-orf" id="dummy-9_q9_0_all"  />
<polygon points="96,35 101,30 106,30 106,40 101,40 96,35 " style="fill:#a315d8; stroke-width:1; stroke:black; " description="&lt;b&gt;JNAJGP_24125&lt;/b&gt;&lt;br&gt;Cupin&lt;br&gt;Location: 5063700 - 5064642" locus_tag="JNAJGP_24125" class="clusterblast-orf" id="dummy-9_q10_0_all"  />
<polygon points="109,35 112,30 112,40 109,35 " style="fill:#d85c15; stroke-width:1; stroke:black; " description="&lt;b&gt;JNAJGP_24130&lt;/b&gt;&lt;br&gt;hypothetical protein&lt;br&gt;Location: 5064843 - 5065122" locus_tag="JNAJGP_24130" class="clusterblast-orf" id="dummy-9_q11_0_all"  />
<polygon points="114,35 119,30 137,30 137,40 119,40 114,35 " style="fill:#15d815; stroke-width:1; stroke:black; " description="&lt;b&gt;JNAJGP_24135&lt;/b&gt;&lt;br&gt;Ferric siderophore receptor&lt;br&gt;Location: 5065316 - 5067488" locus_tag="JNAJGP_24135" class="clusterblast-orf" id="dummy-9_q12_0_all"  />
<polygon points="138,35 143,30 149,30 149,40 143,40 138,35 " style="fill:#1580d8; stroke-width:1; stroke:black; " description="&lt;b&gt;JNAJGP_24140&lt;/b&gt;&lt;br&gt;Acyltransferase MbtK/IucB-like conserved domain-containing protein&lt;br&gt;Location: 5067586 - 5068606" locus_tag="JNAJGP_24140" class="clusterblast-orf" id="dummy-9_q13_0_all"  />
<polygon points="150,35 155,30 172,30 172,40 155,40 150,35 " style="fill:#c715d8; stroke-width:1; stroke:black; " description="&lt;b&gt;JNAJGP_24145&lt;/b&gt;&lt;br&gt;Fe(3+)-hydroxamate ABC transporter permease FhuB&lt;br&gt;Location: 5068765 - 5070754" locus_tag="JNAJGP_24145" class="clusterblast-orf" id="dummy-9_q14_0_all"  />
<polygon points="171,35 176,30 181,30 181,40 176,40 171,35 " style="fill:#d88015; stroke-width:1; stroke:black; " description="&lt;b&gt;JNAJGP_24150&lt;/b&gt;&lt;br&gt;Periplasmic binding protein&lt;br&gt;Location: 5070746 - 5071658" locus_tag="JNAJGP_24150" class="clusterblast-orf" id="dummy-9_q15_0_all"  />
<polygon points="183,40 196,40 201,35 196,30 183,30 183,40 " style="fill:#15d839; stroke-width:1; stroke:black; " description="&lt;b&gt;JNAJGP_24155&lt;/b&gt;&lt;br&gt;Putative ATP-binding cassette transporter&lt;br&gt;Location: 5071857 - 5073504" locus_tag="JNAJGP_24155" class="clusterblast-orf" id="dummy-9_q16_0_all"  />
<polygon points="203,40 206,40 211,35 206,30 203,30 203,40 " style="fill:#155cd8; stroke-width:1; stroke:black; " description="&lt;b&gt;JNAJGP_24160&lt;/b&gt;&lt;br&gt;Thioesterase&lt;br&gt;Location: 5073678 - 5074422" locus_tag="JNAJGP_24160" class="clusterblast-orf" id="dummy-9_q17_0_all"  />
<polygon points="211,40 217,40 222,35 217,30 211,30 211,40 " style="fill:#d815c7; stroke-width:1; stroke:black; " description="&lt;b&gt;JNAJGP_24165&lt;/b&gt;&lt;br&gt;TauD/TfdA-like domain-containing protein&lt;br&gt;Location: 5074461 - 5075442" locus_tag="JNAJGP_24165" class="clusterblast-orf" id="dummy-9_q18_0_all"  />
<polygon points="222,40 265,40 270,35 265,30 222,30 222,40 " style="fill:#d815c7; stroke-width:1; stroke:black; " description="&lt;b&gt;JNAJGP_24170&lt;/b&gt;&lt;br&gt;Non ribosomal peptide synthase&lt;br&gt;Location: 5075492 - 5079956" locus_tag="JNAJGP_24170" class="clusterblast-orf" id="dummy-9_q19_0_all"  />
<polygon points="270,40 298,40 303,35 298,30 270,30 270,40 " style="fill:#d815c7; stroke-width:1; stroke:black; " description="&lt;b&gt;JNAJGP_24175&lt;/b&gt;&lt;br&gt;Amino acid adenylation&lt;br&gt;Location: 5079967 - 5083114" locus_tag="JNAJGP_24175" class="clusterblast-orf" id="dummy-9_q20_0_all"  />
<polygon points="304,40 381,40 386,35 381,30 304,30 304,40 " style="fill:#d815c7; stroke-width:1; stroke:black; " description="&lt;b&gt;JNAJGP_24180&lt;/b&gt;&lt;br&gt;Carrier domain-containing protein&lt;br&gt;Location: 5083162 - 5090896" locus_tag="JNAJGP_24180" class="clusterblast-orf" id="dummy-9_q21_0_all"  />
<polygon points="386,40 512,40 517,35 512,30 386,30 386,40 " style="fill:#d815c7; stroke-width:1; stroke:black; " description="&lt;b&gt;JNAJGP_24185&lt;/b&gt;&lt;br&gt;non-ribosomal peptide synthetase&lt;br&gt;Location: 5090892 - 5103210" locus_tag="JNAJGP_24185" class="clusterblast-orf" id="dummy-9_q22_0_all"  />
<polygon points="517,40 556,40 561,35 556,30 517,30 517,40 " style="fill:#d815c7; stroke-width:1; stroke:black; " description="&lt;b&gt;JNAJGP_24190&lt;/b&gt;&lt;br&gt;Non-ribosomal peptide synthetase&lt;br&gt;Location: 5103211 - 5107270" locus_tag="JNAJGP_24190" class="clusterblast-orf" id="dummy-9_q23_0_all"  />
<polygon points="562,40 571,40 576,35 571,30 562,30 562,40 " style="fill:#d8a315; stroke-width:1; stroke:black; " description="&lt;b&gt;JNAJGP_24195&lt;/b&gt;&lt;br&gt;L-ornithine 5-monooxygenase&lt;br&gt;Location: 5107342 - 5108698" locus_tag="JNAJGP_24195" class="clusterblast-orf" id="dummy-9_q24_0_all"  />
<polygon points="577,40 580,40 585,35 580,30 577,30 577,40 " style="fill:#15d85c; stroke-width:1; stroke:black; " description="&lt;b&gt;JNAJGP_24200&lt;/b&gt;&lt;br&gt;siderophore-iron reductase FhuF&lt;br&gt;Location: 5108789 - 5109545" locus_tag="JNAJGP_24200" class="clusterblast-orf" id="dummy-9_q25_0_all"  />
<polygon points="585,35 590,30 594,30 594,40 590,40 585,35 " style="fill:#1539d8; stroke-width:1; stroke:black; " description="&lt;b&gt;JNAJGP_24205&lt;/b&gt;&lt;br&gt;Iron-hydroxamate transporter ATP-binding subunit&lt;br&gt;Location: 5109585 - 5110353" locus_tag="JNAJGP_24205" class="clusterblast-orf" id="dummy-9_q26_0_all"  />
<polygon points="596,35 598,30 598,40 596,35 " style="fill:white; stroke-width:1; stroke:black; " description="&lt;b&gt;JNAJGP_24210&lt;/b&gt;&lt;br&gt;hypothetical protein&lt;br&gt;Location: 5110578 - 5110803" locus_tag="JNAJGP_24210" class="clusterblast-orf" id="dummy-9_q27_0_all"  />
<polygon points="600,40 603,40 608,35 603,30 600,30 600,40 " style="fill:#d815a3; stroke-width:1; stroke:black; " description="&lt;b&gt;JNAJGP_24215&lt;/b&gt;&lt;br&gt;Lipoprotein&lt;br&gt;Location: 5110983 - 5111682" locus_tag="JNAJGP_24215" class="clusterblast-orf" id="dummy-9_q28_0_all"  />
<polygon points="609,40 612,35 609,30 609,40 " style="fill:#d8c715; stroke-width:1; stroke:black; " description="&lt;b&gt;JNAJGP_24220&lt;/b&gt;&lt;br&gt;EAL domain-containing protein&lt;br&gt;Location: 5111807 - 5112086" locus_tag="JNAJGP_24220" class="clusterblast-orf" id="dummy-9_q29_0_all"  />
<polygon points="613,40 622,40 627,35 622,30 613,30 613,40 " style="fill:#15d880; stroke-width:1; stroke:black; " description="&lt;b&gt;JNAJGP_24225&lt;/b&gt;&lt;br&gt;Methyl-accepting chemotaxis protein (2 PAS,MCP domains)&lt;br&gt;Location: 5112170 - 5113484" locus_tag="JNAJGP_24225" class="clusterblast-orf" id="dummy-9_q30_0_all"  />
<polygon points="629,40 647,40 652,35 647,30 629,30 629,40 " style="fill:#1515d8; stroke-width:1; stroke:black; " description="&lt;b&gt;JNAJGP_24230&lt;/b&gt;&lt;br&gt;Outer membrane siderophore receptor&lt;br&gt;Location: 5113706 - 5115821" locus_tag="JNAJGP_24230" class="clusterblast-orf" id="dummy-9_q31_0_all"  />
<polygon points="652,35 657,30 671,30 671,40 657,40 652,35 " style="fill:#d81580; stroke-width:1; stroke:black; " description="&lt;b&gt;JNAJGP_24235&lt;/b&gt;&lt;br&gt;Sigma-54 factor interaction domain-containing protein&lt;br&gt;Location: 5115830 - 5117648" locus_tag="JNAJGP_24235" class="clusterblast-orf" id="dummy-9_q32_0_all"  />
<polygon points="674,40 681,40 686,35 681,30 674,30 674,40 " style="fill:#c7d815; stroke-width:1; stroke:black; " description="&lt;b&gt;JNAJGP_24240&lt;/b&gt;&lt;br&gt;sn-glycerol-3-phosphate import ATP-binding protein UgpC&lt;br&gt;Location: 5117939 - 5119034" locus_tag="JNAJGP_24240" class="clusterblast-orf" id="dummy-9_q33_0_all"  />
<polygon points="686,40 693,40 698,35 693,30 686,30 686,40 " style="fill:#15d8a3; stroke-width:1; stroke:black; " description="&lt;b&gt;JNAJGP_24245&lt;/b&gt;&lt;br&gt;ABC transporter ATP-binding protein&lt;br&gt;Location: 5119033 - 5120131" locus_tag="JNAJGP_24245" class="clusterblast-orf" id="dummy-9_q34_0_all"  />
<polygon points="698,40 702,40 707,35 702,30 698,30 698,40 " style="fill:#3915d8; stroke-width:1; stroke:black; " description="&lt;b&gt;JNAJGP_24250&lt;/b&gt;&lt;br&gt;ABC-type sugar transport system, permease component&lt;br&gt;Location: 5120127 - 5120994" locus_tag="JNAJGP_24250" class="clusterblast-orf" id="dummy-9_q35_0_all"  />
<polygon points="707,40 711,40 716,35 711,30 707,30 707,40 " style="fill:#d8155c; stroke-width:1; stroke:black; " description="&lt;b&gt;JNAJGP_24255&lt;/b&gt;&lt;br&gt;ABC-type glycerol-3-phosphate transport system, permease component&lt;br&gt;Location: 5121004 - 5121805" locus_tag="JNAJGP_24255" class="clusterblast-orf" id="dummy-9_q36_0_all"  />
<polygon points="716,40 719,35 716,30 716,40 " style="fill:#a3d815; stroke-width:1; stroke:black; " description="&lt;b&gt;JNAJGP_24260&lt;/b&gt;&lt;br&gt;Small integral membrane protein&lt;br&gt;Location: 5121815 - 5122088" locus_tag="JNAJGP_24260" class="clusterblast-orf" id="dummy-9_q37_0_all"  />
<polygon points="719,40 733,40 738,35 733,30 719,30 719,40 " style="fill:#15d8c7; stroke-width:1; stroke:black; " description="&lt;b&gt;JNAJGP_24265&lt;/b&gt;&lt;br&gt;ABC transporter substrate-binding protein&lt;br&gt;Location: 5122120 - 5123863" locus_tag="JNAJGP_24265" class="clusterblast-orf" id="dummy-9_q38_0_all"  />
<polygon points="742,40 752,40 757,35 752,30 742,30 742,40 " style="fill:#5c15d8; stroke-width:1; stroke:black; " description="&lt;b&gt;JNAJGP_24270&lt;/b&gt;&lt;br&gt;Iron-containing redox enzyme family protein&lt;br&gt;Location: 5124300 - 5125680" locus_tag="JNAJGP_24270" class="clusterblast-orf" id="dummy-9_q39_0_all"  />
<polygon points="757,40 762,40 767,35 762,30 757,30 757,40 " style="fill:#d81539; stroke-width:1; stroke:black; " description="&lt;b&gt;JNAJGP_24275&lt;/b&gt;&lt;br&gt;Release factor glutamine methyltransferase&lt;br&gt;Location: 5125690 - 5126635" locus_tag="JNAJGP_24275" class="clusterblast-orf" id="dummy-9_q40_0_all"  />
<polygon points="767,40 774,40 779,35 774,30 767,30 767,40 " style="fill:#80d815; stroke-width:1; stroke:black; " description="&lt;b&gt;JNAJGP_24280&lt;/b&gt;&lt;br&gt;carboxylate-amine ligase&lt;br&gt;Location: 5126641 - 5127760" locus_tag="JNAJGP_24280" class="clusterblast-orf" id="dummy-9_q41_0_all"  />
</g>
<g label="NZ_CP017432" description="NZ_CP017432 (2970560-3044788): Pseudomonas sp. Lz4W chromosome, complete genome (47% of genes show similarity), NRP-metallophore,NRPS" class="clusterblast-cluster"  >
<text x="5" y="70" class="clusterblast-acc"  >
<a xlink:href="https://antismash-db.secondarymetabolites.org/area?record=NZ_CP017432&amp;start=2970560&amp;end=3044788" target="_blank">NZ_CP017432 (2970560-3044788)</a>: Pseudomonas sp. Lz4W chromosome, complete genome (47% of genes show similarity), NRP-metallophore,NRPS</text>
<line x1="10" y1="85" x2="778.0" y2="85" style="stroke-width:1; stroke:grey; "  />
</g>
<g id="a9_000"  >
<polygon points="0,85 3,80 3,90 0,85 " style="fill:white; stroke-width:1; stroke:black; " description="&lt;b&gt;B195_RS13735&lt;/b&gt;&lt;br&gt;urease subunit gamma&lt;br&gt;Location: 3044602 - 3044300" locus_tag="B195_RS13735" class="clusterblast-orf" id="dummy-9_h9_7_0"  />
</g>
<g id="a9_001"  >
<polygon points="8,85 13,80 19,80 19,90 13,90 8,85 " style="fill:white; stroke-width:1; stroke:black; " description="&lt;b&gt;B195_RS13730&lt;/b&gt;&lt;br&gt;FUSC family protein&lt;br&gt;Location: 3043828 - 3042728" locus_tag="B195_RS13730" class="clusterblast-orf" id="dummy-9_h9_7_1"  />
</g>
<g id="a9_002"  >
<polygon points="23,90 28,90 33,85 28,80 23,80 23,90 " style="fill:white; stroke-width:1; stroke:black; " description="&lt;b&gt;B195_RS13725&lt;/b&gt;&lt;br&gt;LysR family transcriptional regulator&lt;br&gt;Location: 3042383 - 3041475" locus_tag="B195_RS13725" class="clusterblast-orf" id="dummy-9_h9_7_2"  />
</g>
<g id="a9_003"  >
<polygon points="35,90 46,90 51,85 46,80 35,80 35,90 " style="fill:white; stroke-width:1; stroke:black; " description="&lt;b&gt;B195_RS13720&lt;/b&gt;&lt;br&gt;MFS transporter&lt;br&gt;Location: 3041284 - 3039737" locus_tag="B195_RS13720" class="clusterblast-orf" id="dummy-9_h9_7_3"  />
</g>
<g id="a9_004"  >
<polygon points="51,90 58,90 63,85 58,80 51,80 51,90 " style="fill:white; stroke-width:1; stroke:black; " description="&lt;b&gt;B195_RS13715&lt;/b&gt;&lt;br&gt;HlyD family secretion protein&lt;br&gt;Location: 3039740 - 3038676" locus_tag="B195_RS13715" class="clusterblast-orf" id="dummy-9_h9_7_4"  />
</g>
<g id="a9_005"  >
<polygon points="63,90 73,90 78,85 73,80 63,80 63,90 " style="fill:white; stroke-width:1; stroke:black; " description="&lt;b&gt;B195_RS13710&lt;/b&gt;&lt;br&gt;efflux transporter outer membrane subunit&lt;br&gt;Location: 3038679 - 3037249" locus_tag="B195_RS13710" class="clusterblast-orf" id="dummy-9_h9_7_5"  />
</g>
<g id="a9_006"  >
<polygon points="86,90 95,90 100,85 95,80 86,80 86,90 " style="fill:white; stroke-width:1; stroke:black; " description="&lt;b&gt;B195_RS13700&lt;/b&gt;&lt;br&gt;MFS transporter&lt;br&gt;Location: 3036462 - 3035143" locus_tag="B195_RS13700" class="clusterblast-orf" id="dummy-9_h9_7_6"  />
</g>
<g id="a9_007"  >
<polygon points="101,90 104,85 101,80 101,90 " style="fill:white; stroke-width:1; stroke:black; " description="&lt;b&gt;B195_RS13695&lt;/b&gt;&lt;br&gt;MbtH family NRPS accessory protein&lt;br&gt;Location: 3035035 - 3034832" locus_tag="B195_RS13695" class="clusterblast-orf" id="dummy-9_h9_7_7"  />
</g>
<g id="a9_008"  >
<polygon points="106,85 111,80 129,80 129,90 111,90 106,85 " style="fill:#15d815; stroke-width:1; stroke:black; " description="&lt;b&gt;B195_RS13690&lt;/b&gt;&lt;br&gt;TonB-dependent siderophore receptor&lt;br&gt;Location: 3034648 - 3032477&lt;br&gt;&lt;br&gt;&lt;b&gt;BlastP hit with JNAJGP_24135&lt;/b&gt;&lt;br&gt;Percentage identity: 88&lt;br&gt;Percentage coverage: 100&lt;br&gt;BLAST bit score: 1304&lt;br&gt;E-value: 0.0" locus_tag="B195_RS13690" class="clusterblast-orf" id="dummy-9_h9_7_8"  />
</g>
<g id="a9_009"  >
<polygon points="130,85 135,80 141,80 141,90 135,90 130,85 " style="fill:#1580d8; stroke-width:1; stroke:black; " description="&lt;b&gt;B195_RS13685&lt;/b&gt;&lt;br&gt;acetyltransferase&lt;br&gt;Location: 3032376 - 3031357&lt;br&gt;&lt;br&gt;&lt;b&gt;BlastP hit with JNAJGP_24140&lt;/b&gt;&lt;br&gt;Percentage identity: 92&lt;br&gt;Percentage coverage: 100&lt;br&gt;BLAST bit score: 667&lt;br&gt;E-value: 1.13e-243" locus_tag="B195_RS13685" class="clusterblast-orf" id="dummy-9_h9_7_9"  />
</g>
<g id="a9_0010"  >
<polygon points="142,85 147,80 164,80 164,90 147,90 142,85 " style="fill:#c715d8; stroke-width:1; stroke:black; " description="&lt;b&gt;B195_RS13680&lt;/b&gt;&lt;br&gt;Fe(3+)-hydroxamate ABC transporter permease FhuB&lt;br&gt;Location: 3031195 - 3029207&lt;br&gt;&lt;br&gt;&lt;b&gt;BlastP hit with JNAJGP_24145&lt;/b&gt;&lt;br&gt;Percentage identity: 90&lt;br&gt;Percentage coverage: 100&lt;br&gt;BLAST bit score: 1073&lt;br&gt;E-value: 0.0" locus_tag="B195_RS13680" class="clusterblast-orf" id="dummy-9_h9_7_10"  />
</g>
<g id="a9_0011"  >
<polygon points="163,85 168,80 173,80 173,90 168,90 163,85 " style="fill:#d88015; stroke-width:1; stroke:black; " description="&lt;b&gt;B195_RS13675&lt;/b&gt;&lt;br&gt;ABC transporter substrate-binding protein&lt;br&gt;Location: 3029214 - 3028303&lt;br&gt;&lt;br&gt;&lt;b&gt;BlastP hit with JNAJGP_24150&lt;/b&gt;&lt;br&gt;Percentage identity: 86&lt;br&gt;Percentage coverage: 99&lt;br&gt;BLAST bit score: 512&lt;br&gt;E-value: 2.58e-183" locus_tag="B195_RS13675" class="clusterblast-orf" id="dummy-9_h9_7_11"  />
</g>
<g id="a9_0012"  >
<polygon points="175,90 188,90 193,85 188,80 175,80 175,90 " style="fill:#15d839; stroke-width:1; stroke:black; " description="&lt;b&gt;B195_RS13670&lt;/b&gt;&lt;br&gt;cyclic peptide export ABC transporter&lt;br&gt;Location: 3028109 - 3026457&lt;br&gt;&lt;br&gt;&lt;b&gt;BlastP hit with JNAJGP_24155&lt;/b&gt;&lt;br&gt;Percentage identity: 94&lt;br&gt;Percentage coverage: 97&lt;br&gt;BLAST bit score: 947&lt;br&gt;E-value: 0.0" locus_tag="B195_RS13670" class="clusterblast-orf" id="dummy-9_h9_7_12"  />
</g>
<g id="a9_0013"  >
<polygon points="202,90 205,90 210,85 205,80 202,80 202,90 " style="fill:#155cd8; stroke-width:1; stroke:black; " description="&lt;b&gt;B195_RS13665&lt;/b&gt;&lt;br&gt;alpha/beta fold hydrolase&lt;br&gt;Location: 3025586 - 3024828&lt;br&gt;&lt;br&gt;&lt;b&gt;BlastP hit with JNAJGP_24160&lt;/b&gt;&lt;br&gt;Percentage identity: 85&lt;br&gt;Percentage coverage: 102&lt;br&gt;BLAST bit score: 419&lt;br&gt;E-value: 1.59e-148" locus_tag="B195_RS13665" class="clusterblast-orf" id="dummy-9_h9_7_13"  />
</g>
<g id="a9_0014"  >
<polygon points="211,90 216,90 221,85 216,80 211,80 211,90 " style="fill:#d815c7; stroke-width:1; stroke:black; " description="&lt;b&gt;B195_RS13660&lt;/b&gt;&lt;br&gt;TauD/TfdA family dioxygenase&lt;br&gt;Location: 3024788 - 3023808&lt;br&gt;&lt;br&gt;&lt;b&gt;BlastP hit with JNAJGP_24165&lt;/b&gt;&lt;br&gt;Percentage identity: 93&lt;br&gt;Percentage coverage: 100&lt;br&gt;BLAST bit score: 629&lt;br&gt;E-value: 5.05e-229" locus_tag="B195_RS13660" class="clusterblast-orf" id="dummy-9_h9_7_14"  />
</g>
<g id="a9_0015"  >
<polygon points="222,90 264,90 269,85 264,80 222,80 222,90 " style="fill:#d815c7; stroke-width:1; stroke:black; " description="&lt;b&gt;B195_RS13655&lt;/b&gt;&lt;br&gt;AMP-binding protein&lt;br&gt;Location: 3023758 - 3019286&lt;br&gt;&lt;br&gt;&lt;b&gt;BlastP hit with JNAJGP_24165&lt;/b&gt;&lt;br&gt;Percentage identity: 45&lt;br&gt;Percentage coverage: 94&lt;br&gt;BLAST bit score: 264&lt;br&gt;E-value: 1.14e-77&lt;br&gt;&lt;br&gt;&lt;b&gt;BlastP hit with JNAJGP_24170&lt;/b&gt;&lt;br&gt;Percentage identity: 88&lt;br&gt;Percentage coverage: 100&lt;br&gt;BLAST bit score: 2603&lt;br&gt;E-value: 0.0" locus_tag="B195_RS13655" class="clusterblast-orf" id="dummy-9_h9_7_15"  />
</g>
<g id="a9_0016"  >
<polygon points="269,90 298,90 303,85 298,80 269,80 269,90 " style="fill:#d815c7; stroke-width:1; stroke:black; " description="&lt;b&gt;B195_RS13650&lt;/b&gt;&lt;br&gt;non-ribosomal peptide synthetase&lt;br&gt;Location: 3019275 - 3016129&lt;br&gt;&lt;br&gt;&lt;b&gt;BlastP hit with JNAJGP_24175&lt;/b&gt;&lt;br&gt;Percentage identity: 78&lt;br&gt;Percentage coverage: 100&lt;br&gt;BLAST bit score: 1588&lt;br&gt;E-value: 0.0" locus_tag="B195_RS13650" class="clusterblast-orf" id="dummy-9_h9_7_16"  />
</g>
<g id="a9_0017"  >
<polygon points="303,90 327,90 332,85 327,80 303,80 303,90 " style="fill:#d815c7; stroke-width:1; stroke:black; " description="&lt;b&gt;B195_RS13645&lt;/b&gt;&lt;br&gt;amino acid adenylation domain-containing protein&lt;br&gt;Location: 3016080 - 3013393&lt;br&gt;&lt;br&gt;&lt;b&gt;BlastP hit with JNAJGP_24180&lt;/b&gt;&lt;br&gt;Percentage identity: 86&lt;br&gt;Percentage coverage: 34&lt;br&gt;BLAST bit score: 1496&lt;br&gt;E-value: 0.0" locus_tag="B195_RS13645" class="clusterblast-orf" id="dummy-9_h9_7_17"  />
</g>
<g id="a9_0018"  >
<polygon points="333,90 381,90 386,85 381,80 333,80 333,90 " style="fill:#d815c7; stroke-width:1; stroke:black; " description="&lt;b&gt;B195_RS23100&lt;/b&gt;&lt;br&gt;amino acid adenylation domain-containing protein&lt;br&gt;Location: 3013355 - 3008355&lt;br&gt;&lt;br&gt;&lt;b&gt;BlastP hit with JNAJGP_24175&lt;/b&gt;&lt;br&gt;Percentage identity: 33&lt;br&gt;Percentage coverage: 88&lt;br&gt;BLAST bit score: 350&lt;br&gt;E-value: 5.37e-99&lt;br&gt;&lt;br&gt;&lt;b&gt;BlastP hit with JNAJGP_24180&lt;/b&gt;&lt;br&gt;Percentage identity: 85&lt;br&gt;Percentage coverage: 65&lt;br&gt;BLAST bit score: 2823&lt;br&gt;E-value: 0.0&lt;br&gt;&lt;br&gt;&lt;b&gt;BlastP hit with JNAJGP_24185&lt;/b&gt;&lt;br&gt;Percentage identity: 62&lt;br&gt;Percentage coverage: 40&lt;br&gt;BLAST bit score: 1942&lt;br&gt;E-value: 0.0" locus_tag="B195_RS23100" class="clusterblast-orf" id="dummy-9_h9_7_18"  />
</g>
<g id="a9_0019"  >
<polygon points="386,90 512,90 517,85 512,80 386,80 386,90 " style="fill:#d815c7; stroke-width:1; stroke:black; " description="&lt;b&gt;B195_RS13635&lt;/b&gt;&lt;br&gt;non-ribosomal peptide synthetase&lt;br&gt;Location: 3008358 - 2996044&lt;br&gt;&lt;br&gt;&lt;b&gt;BlastP hit with JNAJGP_24175&lt;/b&gt;&lt;br&gt;Percentage identity: 33&lt;br&gt;Percentage coverage: 94&lt;br&gt;BLAST bit score: 340&lt;br&gt;E-value: 2.67e-95&lt;br&gt;&lt;br&gt;&lt;b&gt;BlastP hit with JNAJGP_24180&lt;/b&gt;&lt;br&gt;Percentage identity: 40&lt;br&gt;Percentage coverage: 158&lt;br&gt;BLAST bit score: 2466&lt;br&gt;E-value: 0.0&lt;br&gt;&lt;br&gt;&lt;b&gt;BlastP hit with JNAJGP_24185&lt;/b&gt;&lt;br&gt;Percentage identity: 86&lt;br&gt;Percentage coverage: 100&lt;br&gt;BLAST bit score: 6943&lt;br&gt;E-value: 0.0&lt;br&gt;&lt;br&gt;&lt;b&gt;BlastP hit with JNAJGP_24190&lt;/b&gt;&lt;br&gt;Percentage identity: 37&lt;br&gt;Percentage coverage: 81&lt;br&gt;BLAST bit score: 551&lt;br&gt;E-value: 2.17e-163" locus_tag="B195_RS13635" class="clusterblast-orf" id="dummy-9_h9_7_19"  />
</g>
<g id="a9_0020"  >
<polygon points="517,90 555,90 560,85 555,80 517,80 517,90 " style="fill:#d815c7; stroke-width:1; stroke:black; " description="&lt;b&gt;B195_RS13630&lt;/b&gt;&lt;br&gt;non-ribosomal peptide synthetase&lt;br&gt;Location: 2996042 - 2991984&lt;br&gt;&lt;br&gt;&lt;b&gt;BlastP hit with JNAJGP_24175&lt;/b&gt;&lt;br&gt;Percentage identity: 33&lt;br&gt;Percentage coverage: 84&lt;br&gt;BLAST bit score: 310&lt;br&gt;E-value: 5.16e-86&lt;br&gt;&lt;br&gt;&lt;b&gt;BlastP hit with JNAJGP_24190&lt;/b&gt;&lt;br&gt;Percentage identity: 85&lt;br&gt;Percentage coverage: 100&lt;br&gt;BLAST bit score: 2224&lt;br&gt;E-value: 0.0" locus_tag="B195_RS13630" class="clusterblast-orf" id="dummy-9_h9_7_20"  />
</g>
<g id="a9_0021"  >
<polygon points="561,90 570,90 575,85 570,80 561,80 561,90 " style="fill:#d8a315; stroke-width:1; stroke:black; " description="&lt;b&gt;B195_RS13625&lt;/b&gt;&lt;br&gt;lysine N(6)-hydroxylase/L-ornithine N(5)-oxygenase family protein&lt;br&gt;Location: 2991910 - 2990561&lt;br&gt;&lt;br&gt;&lt;b&gt;BlastP hit with JNAJGP_24195&lt;/b&gt;&lt;br&gt;Percentage identity: 88&lt;br&gt;Percentage coverage: 98&lt;br&gt;BLAST bit score: 763&lt;br&gt;E-value: 7.06e-278" locus_tag="B195_RS13625" class="clusterblast-orf" id="dummy-9_h9_7_21"  />
</g>
<g id="a9_0022"  >
<polygon points="576,90 580,90 585,85 580,80 576,80 576,90 " style="fill:#15d85c; stroke-width:1; stroke:black; " description="&lt;b&gt;B195_RS13620&lt;/b&gt;&lt;br&gt;siderophore-iron reductase FhuF&lt;br&gt;Location: 2990475 - 2989711&lt;br&gt;&lt;br&gt;&lt;b&gt;BlastP hit with JNAJGP_24200&lt;/b&gt;&lt;br&gt;Percentage identity: 85&lt;br&gt;Percentage coverage: 100&lt;br&gt;BLAST bit score: 437&lt;br&gt;E-value: 1.38e-155" locus_tag="B195_RS13620" class="clusterblast-orf" id="dummy-9_h9_7_22"  />
</g>
<g id="a9_0023"  >
<polygon points="585,85 590,80 593,80 593,90 590,90 585,85 " style="fill:#1539d8; stroke-width:1; stroke:black; " description="&lt;b&gt;B195_RS13615&lt;/b&gt;&lt;br&gt;ATP-binding cassette domain-containing protein&lt;br&gt;Location: 2989695 - 2988928&lt;br&gt;&lt;br&gt;&lt;b&gt;BlastP hit with JNAJGP_24205&lt;/b&gt;&lt;br&gt;Percentage identity: 93&lt;br&gt;Percentage coverage: 100&lt;br&gt;BLAST bit score: 474&lt;br&gt;E-value: 3.94e-170" locus_tag="B195_RS13615" class="clusterblast-orf" id="dummy-9_h9_7_23"  />
</g>
<g id="a9_0024"  >
<polygon points="595,90 595,90 600,85 595,80 595,80 595,90 " style="fill:white; stroke-width:1; stroke:black; " description="&lt;b&gt;B195_RS13610&lt;/b&gt;&lt;br&gt;sigma-70 family RNA polymerase sigma factor&lt;br&gt;Location: 2988740 - 2988246" locus_tag="B195_RS13610" class="clusterblast-orf" id="dummy-9_h9_7_24"  />
</g>
<g id="a9_0025"  >
<polygon points="600,90 606,90 611,85 606,80 600,80 600,90 " style="fill:white; stroke-width:1; stroke:black; " description="&lt;b&gt;B195_RS13605&lt;/b&gt;&lt;br&gt;FecR family protein&lt;br&gt;Location: 2988222 - 2987251" locus_tag="B195_RS13605" class="clusterblast-orf" id="dummy-9_h9_7_25"  />
</g>
<g id="a9_0026"  >
<polygon points="612,90 633,90 638,85 633,80 612,80 612,90 " style="fill:white; stroke-width:1; stroke:black; " description="&lt;b&gt;B195_RS13600&lt;/b&gt;&lt;br&gt;TonB-dependent receptor&lt;br&gt;Location: 2987091 - 2984674" locus_tag="B195_RS13600" class="clusterblast-orf" id="dummy-9_h9_7_26"  />
</g>
<g id="a9_0027"  >
<polygon points="642,85 647,80 651,80 651,90 647,90 642,85 " style="fill:#15a3d8; stroke-width:1; stroke:black; " description="&lt;b&gt;B195_RS13595&lt;/b&gt;&lt;br&gt;LysR family transcriptional regulator&lt;br&gt;Location: 2984333 - 2983452&lt;br&gt;&lt;br&gt;&lt;b&gt;BlastP hit with JNAJGP_24120&lt;/b&gt;&lt;br&gt;Percentage identity: 31&lt;br&gt;Percentage coverage: 95&lt;br&gt;BLAST bit score: 124&lt;br&gt;E-value: 1.99e-31" locus_tag="B195_RS13595" class="clusterblast-orf" id="dummy-9_h9_7_27"  />
</g>
<g id="a9_0028"  >
<polygon points="652,90 658,90 663,85 658,80 652,80 652,90 " style="fill:white; stroke-width:1; stroke:black; " description="&lt;b&gt;B195_RS13590&lt;/b&gt;&lt;br&gt;NAD(P)-dependent alcohol dehydrogenase&lt;br&gt;Location: 2983346 - 2982324" locus_tag="B195_RS13590" class="clusterblast-orf" id="dummy-9_h9_7_28"  />
</g>
<g id="a9_0029"  >
<polygon points="665,85 670,80 677,80 677,90 670,90 665,85 " style="fill:white; stroke-width:1; stroke:black; " description="&lt;b&gt;B195_RS13585&lt;/b&gt;&lt;br&gt;MFS transporter&lt;br&gt;Location: 2982145 - 2980994" locus_tag="B195_RS13585" class="clusterblast-orf" id="dummy-9_h9_7_29"  />
</g>
<g id="a9_0030"  >
<polygon points="679,90 683,85 679,80 679,90 " style="fill:white; stroke-width:1; stroke:black; " description="&lt;b&gt;B195_RS13580&lt;/b&gt;&lt;br&gt;RidA family protein&lt;br&gt;Location: 2980845 - 2980423" locus_tag="B195_RS13580" class="clusterblast-orf" id="dummy-9_h9_7_30"  />
</g>
<g id="a9_0031"  >
<polygon points="685,85 690,80 706,80 706,90 690,90 685,85 " style="fill:white; stroke-width:1; stroke:black; " description="&lt;b&gt;B195_RS13575&lt;/b&gt;&lt;br&gt;excinuclease ABC subunit UvrB&lt;br&gt;Location: 2980308 - 2978293" locus_tag="B195_RS13575" class="clusterblast-orf" id="dummy-9_h9_7_31"  />
</g>
<g id="a9_0032"  >
<polygon points="710,90 718,90 723,85 718,80 710,80 710,90 " style="fill:white; stroke-width:1; stroke:black; " description="&lt;b&gt;B195_RS13570&lt;/b&gt;&lt;br&gt;aspartate/tyrosine/aromatic aminotransferase&lt;br&gt;Location: 2977958 - 2976762" locus_tag="B195_RS13570" class="clusterblast-orf" id="dummy-9_h9_7_32"  />
</g>
<g id="a9_0033"  >
<polygon points="725,85 730,80 758,80 758,90 730,90 725,85 " style="fill:white; stroke-width:1; stroke:black; " description="&lt;b&gt;B195_RS13560&lt;/b&gt;&lt;br&gt;FAD-binding oxidoreductase&lt;br&gt;Location: 2976485 - 2973414" locus_tag="B195_RS13560" class="clusterblast-orf" id="dummy-9_h9_7_33"  />
</g>
<g id="a9_0034"  >
<polygon points="760,90 765,90 770,85 765,80 760,80 760,90 " style="fill:white; stroke-width:1; stroke:black; " description="&lt;b&gt;B195_RS13555&lt;/b&gt;&lt;br&gt;LysR substrate-binding domain-containing protein&lt;br&gt;Location: 2973255 - 2972350" locus_tag="B195_RS13555" class="clusterblast-orf" id="dummy-9_h9_7_34"  />
</g>
<g id="a9_0035"  >
<polygon points="770,85 775,80 780,80 780,90 775,90 770,85 " style="fill:white; stroke-width:1; stroke:black; " description="&lt;b&gt;B195_RS13550&lt;/b&gt;&lt;br&gt;sugar ABC transporter substrate-binding protein&lt;br&gt;Location: 2972340 - 2971414" locus_tag="B195_RS13550" class="clusterblast-orf" id="dummy-9_h9_7_35"  />
</g>
</svg>
