<svg xmlns="http://www.w3.org/2000/svg" xmlns:xlink="http://www.w3.org/1999/xlink" version="1.1" x="0" y="0" height="230" width="800" viewBox="0 0 800 230" preserveAspectRatio="none"  >
<g label="Query sequence" class="clusterblast-cluster"  >
<text x="5" y="20" class="clusterblast-acc"  >
Query sequence</text>
<line x1="10" y1="35" x2="778.0" y2="35" style="stroke-width:1; stroke:grey; "  />
<polygon points="3,40 80,40 85,35 80,30 3,30 3,40 " style="fill:#d81515; stroke-width:1; stroke:black; " description="&lt;b&gt;JNAJGP_04285&lt;/b&gt;&lt;br&gt;high-affinity branched-chain amino acid ABC transporter permease LivH&lt;br&gt;Location: 851344 - 852268" locus_tag="JNAJGP_04285" class="clusterblast-orf" id="dummy-2_q0_0_all"  />
<polygon points="85,40 193,40 198,35 193,30 85,30 85,40 " style="fill:#3cd815; stroke-width:1; stroke:black; " description="&lt;b&gt;JNAJGP_04290&lt;/b&gt;&lt;br&gt;High-affinity branched-chain amino acid transport system permease LivHM N-terminal domain-containing protein&lt;br&gt;Location: 852264 - 853518" locus_tag="JNAJGP_04290" class="clusterblast-orf" id="dummy-2_q1_0_all"  />
<polygon points="197,40 261,40 266,35 261,30 197,30 197,40 " style="fill:#1563d8; stroke-width:1; stroke:black; " description="&lt;b&gt;JNAJGP_04295&lt;/b&gt;&lt;br&gt;high-affinity branched-chain amino acid ABC transporter ATP-binding protein LivG&lt;br&gt;Location: 853514 - 854282" locus_tag="JNAJGP_04295" class="clusterblast-orf" id="dummy-2_q2_0_all"  />
<polygon points="266,40 324,40 329,35 324,30 266,30 266,40 " style="fill:#1563d8; stroke-width:1; stroke:black; " description="&lt;b&gt;JNAJGP_04300&lt;/b&gt;&lt;br&gt;ABC-type branched-chain amino acid transport system, ATPase component LivF&lt;br&gt;Location: 854283 - 854985" locus_tag="JNAJGP_04300" class="clusterblast-orf" id="dummy-2_q3_0_all"  />
<polygon points="347,40 368,40 373,35 368,30 347,30 347,40 " style="fill:#b115d8; stroke-width:1; stroke:black; " description="&lt;b&gt;JNAJGP_04305&lt;/b&gt;&lt;br&gt;DUF2282 domain-containing protein&lt;br&gt;Location: 855181 - 855478" locus_tag="JNAJGP_04305" class="clusterblast-orf" id="dummy-2_q4_0_all"  />
<polygon points="376,40 447,40 452,35 447,30 376,30 376,40 " style="fill:#d88a15; stroke-width:1; stroke:black; " description="&lt;b&gt;JNAJGP_04310&lt;/b&gt;&lt;br&gt;UPF0276 protein PFWH6 1361&lt;br&gt;Location: 855504 - 856359" locus_tag="JNAJGP_04310" class="clusterblast-orf" id="dummy-2_q5_0_all"  />
<polygon points="452,40 517,40 522,35 517,30 452,30 452,40 " style="fill:#15d863; stroke-width:1; stroke:black; " description="&lt;b&gt;JNAJGP_04315&lt;/b&gt;&lt;br&gt;Putative DNA-binding domain-containing protein&lt;br&gt;Location: 856355 - 857132" locus_tag="JNAJGP_04315" class="clusterblast-orf" id="dummy-2_q6_0_all"  />
<polygon points="521,40 560,40 565,35 560,30 521,30 521,40 " style="fill:#3c15d8; stroke-width:1; stroke:black; " description="&lt;b&gt;JNAJGP_04320&lt;/b&gt;&lt;br&gt;DoxX family protein&lt;br&gt;Location: 857128 - 857614" locus_tag="JNAJGP_04320" class="clusterblast-orf" id="dummy-2_q7_0_all"  />
<polygon points="565,35 570,30 646,30 646,40 570,40 565,35 " style="fill:#d8158a; stroke-width:1; stroke:black; " description="&lt;b&gt;JNAJGP_04325&lt;/b&gt;&lt;br&gt;HTH lysR-type domain-containing protein&lt;br&gt;Location: 857610 - 858519" locus_tag="JNAJGP_04325" class="clusterblast-orf" id="dummy-2_q8_0_all"  />
<polygon points="655,40 704,40 709,35 704,30 655,30 655,40 " style="fill:#b1d815; stroke-width:1; stroke:black; " description="&lt;b&gt;JNAJGP_04330&lt;/b&gt;&lt;br&gt;short chain dehydrogenase&lt;br&gt;Location: 858623 - 859223" locus_tag="JNAJGP_04330" class="clusterblast-orf" id="dummy-2_q9_0_all"  />
<polygon points="718,40 773,40 778,35 773,30 718,30 718,40 " style="fill:#15d8d8; stroke-width:1; stroke:black; " description="&lt;b&gt;JNAJGP_04335&lt;/b&gt;&lt;br&gt;Lipoprotein&lt;br&gt;Location: 859320 - 859992" locus_tag="JNAJGP_04335" class="clusterblast-orf" id="dummy-2_q10_0_all"  />
</g>
<g label="NZ_NQKH01000010" description="NZ_NQKH01000010 (104650-115535): Pseudomonas lundensis strain L1810 Pseudomon... (100% of genes show similarity), RiPP-like" class="clusterblast-cluster"  >
<text x="5" y="70" class="clusterblast-acc"  >
<a xlink:href="https://antismash-db.secondarymetabolites.org/area?record=NZ_NQKH01000010&amp;start=104650&amp;end=115535" target="_blank">NZ_NQKH01000010 (104650-115535)</a>: Pseudomonas lundensis strain L1810 Pseudomon... (100% of genes show similarity), RiPP-like</text>
<line x1="10" y1="85" x2="778.0" y2="85" style="stroke-width:1; stroke:grey; "  />
</g>
<g id="a2_000"  >
<polygon points="0,90 77,90 82,85 77,80 0,80 0,90 " style="fill:#d81515; stroke-width:1; stroke:black; " description="&lt;b&gt;CJF36_RS13420&lt;/b&gt;&lt;br&gt;high-affinity branched-chain amino acid ABC transporter permease LivH&lt;br&gt;Location: 114734 - 113811&lt;br&gt;&lt;br&gt;&lt;b&gt;BlastP hit with JNAJGP_04285&lt;/b&gt;&lt;br&gt;Percentage identity: 92&lt;br&gt;Percentage coverage: 100&lt;br&gt;BLAST bit score: 536&lt;br&gt;E-value: 8.83e-193" locus_tag="CJF36_RS13420" class="clusterblast-orf" id="dummy-2_h2_5_0"  />
</g>
<g id="a2_001"  >
<polygon points="82,90 190,90 195,85 190,80 82,80 82,90 " style="fill:#3cd815; stroke-width:1; stroke:black; " description="&lt;b&gt;CJF36_RS13415&lt;/b&gt;&lt;br&gt;high-affinity branched-chain amino acid ABC transporter permease LivM&lt;br&gt;Location: 113814 - 112558&lt;br&gt;&lt;br&gt;&lt;b&gt;BlastP hit with JNAJGP_04290&lt;/b&gt;&lt;br&gt;Percentage identity: 85&lt;br&gt;Percentage coverage: 100&lt;br&gt;BLAST bit score: 676&lt;br&gt;E-value: 2.15e-244" locus_tag="CJF36_RS13415" class="clusterblast-orf" id="dummy-2_h2_5_1"  />
</g>
<g id="a2_002"  >
<polygon points="194,90 258,90 263,85 258,80 194,80 194,90 " style="fill:#1563d8; stroke-width:1; stroke:black; " description="&lt;b&gt;CJF36_RS13410&lt;/b&gt;&lt;br&gt;high-affinity branched-chain amino acid ABC transporter ATP-binding protein LivG&lt;br&gt;Location: 112561 - 111794&lt;br&gt;&lt;br&gt;&lt;b&gt;BlastP hit with JNAJGP_04295&lt;/b&gt;&lt;br&gt;Percentage identity: 94&lt;br&gt;Percentage coverage: 100&lt;br&gt;BLAST bit score: 474&lt;br&gt;E-value: 7.95e-170" locus_tag="CJF36_RS13410" class="clusterblast-orf" id="dummy-2_h2_5_2"  />
</g>
<g id="a2_003"  >
<polygon points="263,90 321,90 326,85 321,80 263,80 263,90 " style="fill:#1563d8; stroke-width:1; stroke:black; " description="&lt;b&gt;CJF36_RS13405&lt;/b&gt;&lt;br&gt;ABC transporter ATP-binding protein&lt;br&gt;Location: 111793 - 111092&lt;br&gt;&lt;br&gt;&lt;b&gt;BlastP hit with JNAJGP_04295&lt;/b&gt;&lt;br&gt;Percentage identity: 33&lt;br&gt;Percentage coverage: 100&lt;br&gt;BLAST bit score: 123&lt;br&gt;E-value: 2.94e-32&lt;br&gt;&lt;br&gt;&lt;b&gt;BlastP hit with JNAJGP_04300&lt;/b&gt;&lt;br&gt;Percentage identity: 94&lt;br&gt;Percentage coverage: 100&lt;br&gt;BLAST bit score: 426&lt;br&gt;E-value: 8.25e-152" locus_tag="CJF36_RS13405" class="clusterblast-orf" id="dummy-2_h2_5_3"  />
</g>
<g id="a2_004"  >
<polygon points="347,90 370,90 375,85 370,80 347,80 347,90 " style="fill:#b115d8; stroke-width:1; stroke:black; " description="&lt;b&gt;CJF36_RS13400&lt;/b&gt;&lt;br&gt;DUF2282 domain-containing protein&lt;br&gt;Location: 110860 - 110552&lt;br&gt;&lt;br&gt;&lt;b&gt;BlastP hit with JNAJGP_04305&lt;/b&gt;&lt;br&gt;Percentage identity: 74&lt;br&gt;Percentage coverage: 99&lt;br&gt;BLAST bit score: 125&lt;br&gt;E-value: 6.39e-37" locus_tag="CJF36_RS13400" class="clusterblast-orf" id="dummy-2_h2_5_4"  />
</g>
<g id="a2_005"  >
<polygon points="376,90 450,90 455,85 450,80 376,80 376,90 " style="fill:#d88a15; stroke-width:1; stroke:black; " description="&lt;b&gt;CJF36_RS13395&lt;/b&gt;&lt;br&gt;DUF692 domain-containing protein&lt;br&gt;Location: 110535 - 109651&lt;br&gt;&lt;br&gt;&lt;b&gt;BlastP hit with JNAJGP_04310&lt;/b&gt;&lt;br&gt;Percentage identity: 71&lt;br&gt;Percentage coverage: 96&lt;br&gt;BLAST bit score: 414&lt;br&gt;E-value: 5.9e-145" locus_tag="CJF36_RS13395" class="clusterblast-orf" id="dummy-2_h2_5_5"  />
</g>
<g id="a2_006"  >
<polygon points="455,90 520,90 525,85 520,80 455,80 455,90 " style="fill:#15d863; stroke-width:1; stroke:black; " description="&lt;b&gt;CJF36_RS13390&lt;/b&gt;&lt;br&gt;DNA-binding domain-containing protein&lt;br&gt;Location: 109654 - 108878&lt;br&gt;&lt;br&gt;&lt;b&gt;BlastP hit with JNAJGP_04315&lt;/b&gt;&lt;br&gt;Percentage identity: 49&lt;br&gt;Percentage coverage: 100&lt;br&gt;BLAST bit score: 231&lt;br&gt;E-value: 4.34e-74" locus_tag="CJF36_RS13390" class="clusterblast-orf" id="dummy-2_h2_5_6"  />
</g>
<g id="a2_007"  >
<polygon points="524,90 565,90 570,85 565,80 524,80 524,90 " style="fill:#3c15d8; stroke-width:1; stroke:black; " description="&lt;b&gt;CJF36_RS13385&lt;/b&gt;&lt;br&gt;DoxX family protein&lt;br&gt;Location: 108881 - 108372&lt;br&gt;&lt;br&gt;&lt;b&gt;BlastP hit with JNAJGP_04320&lt;/b&gt;&lt;br&gt;Percentage identity: 74&lt;br&gt;Percentage coverage: 89&lt;br&gt;BLAST bit score: 209&lt;br&gt;E-value: 4.13e-68" locus_tag="CJF36_RS13385" class="clusterblast-orf" id="dummy-2_h2_5_7"  />
</g>
<g id="a2_008"  >
<polygon points="569,85 574,80 651,80 651,90 574,90 569,85 " style="fill:#d8158a; stroke-width:1; stroke:black; " description="&lt;b&gt;CJF36_RS13380&lt;/b&gt;&lt;br&gt;LysR family transcriptional regulator&lt;br&gt;Location: 108381 - 107473&lt;br&gt;&lt;br&gt;&lt;b&gt;BlastP hit with JNAJGP_04325&lt;/b&gt;&lt;br&gt;Percentage identity: 79&lt;br&gt;Percentage coverage: 100&lt;br&gt;BLAST bit score: 471&lt;br&gt;E-value: 2.34e-167" locus_tag="CJF36_RS13380" class="clusterblast-orf" id="dummy-2_h2_5_8"  />
</g>
<g id="a2_009"  >
<polygon points="660,90 709,90 714,85 709,80 660,80 660,90 " style="fill:#b1d815; stroke-width:1; stroke:black; " description="&lt;b&gt;CJF36_RS13375&lt;/b&gt;&lt;br&gt;short chain dehydrogenase&lt;br&gt;Location: 107368 - 106769&lt;br&gt;&lt;br&gt;&lt;b&gt;BlastP hit with JNAJGP_04330&lt;/b&gt;&lt;br&gt;Percentage identity: 78&lt;br&gt;Percentage coverage: 100&lt;br&gt;BLAST bit score: 307&lt;br&gt;E-value: 1.09e-105" locus_tag="CJF36_RS13375" class="clusterblast-orf" id="dummy-2_h2_5_9"  />
</g>
<g id="a2_0010"  >
<polygon points="719,90 775,90 780,85 775,80 719,80 719,90 " style="fill:#15d8d8; stroke-width:1; stroke:black; " description="&lt;b&gt;CJF36_RS13370&lt;/b&gt;&lt;br&gt;membrane protein&lt;br&gt;Location: 106709 - 106038&lt;br&gt;&lt;br&gt;&lt;b&gt;BlastP hit with JNAJGP_04335&lt;/b&gt;&lt;br&gt;Percentage identity: 56&lt;br&gt;Percentage coverage: 100&lt;br&gt;BLAST bit score: 263&lt;br&gt;E-value: 1.98e-87" locus_tag="CJF36_RS13370" class="clusterblast-orf" id="dummy-2_h2_5_10"  />
</g>
</svg>
