<svg xmlns="http://www.w3.org/2000/svg" xmlns:xlink="http://www.w3.org/1999/xlink" version="1.1" x="0" y="0" height="230" width="800" viewBox="0 0 800 230" preserveAspectRatio="none"  >
<g label="Query sequence" class="clusterblast-cluster"  >
<text x="5" y="20" class="clusterblast-acc"  >
Query sequence</text>
<line x1="10" y1="35" x2="778.0" y2="35" style="stroke-width:1; stroke:grey; "  />
<polygon points="0,40 11,40 16,35 11,30 0,30 0,40 " style="fill:#d81515; stroke-width:1; stroke:black; " description="&lt;b&gt;JNAJGP_22985&lt;/b&gt;&lt;br&gt;Cytochrome b561 bacterial/Ni-hydrogenase domain-containing protein&lt;br&gt;Location: 4860170 - 4860710" locus_tag="JNAJGP_22985" class="clusterblast-orf" id="dummy-8_q0_0_all"  />
<polygon points="18,35 23,30 52,30 52,40 23,40 18,35 " style="fill:#56d815; stroke-width:1; stroke:black; " description="&lt;b&gt;JNAJGP_22990&lt;/b&gt;&lt;br&gt;Peptidase M14 carboxypeptidase A domain-containing protein&lt;br&gt;Location: 4860766 - 4861918" locus_tag="JNAJGP_22990" class="clusterblast-orf" id="dummy-8_q1_0_all"  />
<polygon points="66,35 71,30 77,30 77,40 71,40 66,35 " style="fill:#1597d8; stroke-width:1; stroke:black; " description="&lt;b&gt;JNAJGP_23000&lt;/b&gt;&lt;br&gt;DUF3077 domain-containing protein&lt;br&gt;Location: 4862380 - 4862731" locus_tag="JNAJGP_23000" class="clusterblast-orf" id="dummy-8_q2_0_all"  />
<polygon points="81,40 95,40 100,35 95,30 81,30 81,40 " style="fill:#9715d8; stroke-width:1; stroke:black; " description="&lt;b&gt;JNAJGP_23005&lt;/b&gt;&lt;br&gt;Putative prophage repressor&lt;br&gt;Location: 4862860 - 4863496" locus_tag="JNAJGP_23005" class="clusterblast-orf" id="dummy-8_q3_0_all"  />
<polygon points="100,35 105,30 158,30 158,40 105,40 100,35 " style="fill:#d85615; stroke-width:1; stroke:black; " description="&lt;b&gt;JNAJGP_23010&lt;/b&gt;&lt;br&gt;Methylcrotonyl-CoA carboxylase, alpha-subunit LiuD&lt;br&gt;Location: 4863492 - 4865418" locus_tag="JNAJGP_23010" class="clusterblast-orf" id="dummy-8_q4_0_all"  />
<polygon points="158,35 163,30 182,30 182,40 163,40 158,35 " style="fill:#15d815; stroke-width:1; stroke:black; " description="&lt;b&gt;JNAJGP_23015&lt;/b&gt;&lt;br&gt;gamma-carboxygeranoyl-CoA hydratase&lt;br&gt;Location: 4865414 - 4866221" locus_tag="JNAJGP_23015" class="clusterblast-orf" id="dummy-8_q5_0_all"  />
<polygon points="183,35 188,30 231,30 231,40 188,40 183,35 " style="fill:#1556d8; stroke-width:1; stroke:black; " description="&lt;b&gt;JNAJGP_23020&lt;/b&gt;&lt;br&gt;Acetyl-CoA carboxylase, carboxyltransferase component&lt;br&gt;Location: 4866236 - 4867844" locus_tag="JNAJGP_23020" class="clusterblast-orf" id="dummy-8_q6_0_all"  />
<polygon points="231,35 236,30 267,30 267,40 236,40 231,35 " style="fill:#d815d8; stroke-width:1; stroke:black; " description="&lt;b&gt;JNAJGP_23025&lt;/b&gt;&lt;br&gt;Acyl-CoA dehydrogenase related to the alkylation response protein AidB&lt;br&gt;Location: 4867855 - 4869019" locus_tag="JNAJGP_23025" class="clusterblast-orf" id="dummy-8_q7_0_all"  />
<polygon points="271,40 315,40 320,35 315,30 271,30 271,40 " style="fill:#d89715; stroke-width:1; stroke:black; " description="&lt;b&gt;JNAJGP_23030&lt;/b&gt;&lt;br&gt;Long-chain-fatty-acid--CoA ligase&lt;br&gt;Location: 4869168 - 4870800" locus_tag="JNAJGP_23030" class="clusterblast-orf" id="dummy-8_q8_0_all"  />
<polygon points="323,40 473,40 478,35 473,30 323,30 323,40 " style="fill:#15d856; stroke-width:1; stroke:black; " description="&lt;b&gt;JNAJGP_23035&lt;/b&gt;&lt;br&gt;RING-type E3 ubiquitin transferase&lt;br&gt;Location: 4870898 - 4876037" locus_tag="JNAJGP_23035" class="clusterblast-orf" id="dummy-8_q9_0_all"  />
<polygon points="495,35 500,30 522,30 522,40 500,40 495,35 " style="fill:#1515d8; stroke-width:1; stroke:black; " description="&lt;b&gt;JNAJGP_23045&lt;/b&gt;&lt;br&gt;hydroxymethylglutaryl-CoA lyase&lt;br&gt;Location: 4876585 - 4877485" locus_tag="JNAJGP_23045" class="clusterblast-orf" id="dummy-8_q10_0_all"  />
<polygon points="522,35 527,30 534,30 534,40 527,40 522,35 " style="fill:#d81597; stroke-width:1; stroke:black; " description="&lt;b&gt;JNAJGP_23050&lt;/b&gt;&lt;br&gt;HTH merR-type domain-containing protein&lt;br&gt;Location: 4877501 - 4877894" locus_tag="JNAJGP_23050" class="clusterblast-orf" id="dummy-8_q11_0_all"  />
<polygon points="538,35 543,30 566,30 566,40 543,40 538,35 " style="fill:#d8d815; stroke-width:1; stroke:black; " description="&lt;b&gt;JNAJGP_23055&lt;/b&gt;&lt;br&gt;DNA-binding transcriptional regulator, LysR family&lt;br&gt;Location: 4878031 - 4878967" locus_tag="JNAJGP_23055" class="clusterblast-orf" id="dummy-8_q12_0_all"  />
<polygon points="571,40 603,40 608,35 603,30 571,30 571,40 " style="fill:#15d897; stroke-width:1; stroke:black; " description="&lt;b&gt;JNAJGP_23060&lt;/b&gt;&lt;br&gt;Acyl-CoA dehydrogenase related to the alkylation response protein AidB&lt;br&gt;Location: 4879133 - 4880363" locus_tag="JNAJGP_23060" class="clusterblast-orf" id="dummy-8_q13_0_all"  />
<polygon points="612,35 617,30 652,30 652,40 617,40 612,35 " style="fill:#5615d8; stroke-width:1; stroke:black; " description="&lt;b&gt;JNAJGP_23065&lt;/b&gt;&lt;br&gt;OmpA-like domain-containing protein&lt;br&gt;Location: 4880479 - 4881811" locus_tag="JNAJGP_23065" class="clusterblast-orf" id="dummy-8_q14_0_all"  />
<polygon points="656,35 661,30 680,30 680,40 661,40 656,35 " style="fill:#d81556; stroke-width:1; stroke:black; " description="&lt;b&gt;JNAJGP_23070&lt;/b&gt;&lt;br&gt;exodeoxyribonuclease III&lt;br&gt;Location: 4881934 - 4882747" locus_tag="JNAJGP_23070" class="clusterblast-orf" id="dummy-8_q15_0_all"  />
<polygon points="685,40 700,40 705,35 700,30 685,30 685,40 " style="fill:#97d815; stroke-width:1; stroke:black; " description="&lt;b&gt;JNAJGP_23075&lt;/b&gt;&lt;br&gt;N-acetyltransferase domain-containing protein&lt;br&gt;Location: 4882916 - 4883567" locus_tag="JNAJGP_23075" class="clusterblast-orf" id="dummy-8_q16_0_all"  />
<polygon points="708,40 754,40 759,35 754,30 708,30 708,40 " style="fill:#15d8d8; stroke-width:1; stroke:black; " description="&lt;b&gt;JNAJGP_23080&lt;/b&gt;&lt;br&gt;Translocation and assembly module subunit TamA&lt;br&gt;Location: 4883660 - 4885358" locus_tag="JNAJGP_23080" class="clusterblast-orf" id="dummy-8_q17_0_all"  />
<polygon points="759,40 775,40 780,35 775,30 759,30 759,40 " style="fill:white; stroke-width:1; stroke:black; " description="&lt;b&gt;JNAJGP_23085&lt;/b&gt;&lt;br&gt;hypothetical protein&lt;br&gt;Location: 4885357 - 4886047" locus_tag="JNAJGP_23085" class="clusterblast-orf" id="dummy-8_q18_0_all"  />
</g>
<g label="NZ_CP019856" description="NZ_CP019856 (4157722-4186036): Pseudomonas azotoformans strain F77 chromosome... (100% of genes show similarity), betalactone" class="clusterblast-cluster"  >
<text x="5" y="70" class="clusterblast-acc"  >
<a xlink:href="https://antismash-db.secondarymetabolites.org/area?record=NZ_CP019856&amp;start=4157722&amp;end=4186036" target="_blank">NZ_CP019856 (4157722-4186036)</a>: Pseudomonas azotoformans strain F77 chromosome... (100% of genes show similarity), betalactone</text>
<line x1="10" y1="85" x2="778.0" y2="85" style="stroke-width:1; stroke:grey; "  />
</g>
<g id="a8_000"  >
<polygon points="0,90 12,90 17,85 12,80 0,80 0,90 " style="fill:#d81515; stroke-width:1; stroke:black; " description="&lt;b&gt;B1R45_RS19040&lt;/b&gt;&lt;br&gt;cytochrome b&lt;br&gt;Location: 4185072 - 4184533&lt;br&gt;&lt;br&gt;&lt;b&gt;BlastP hit with JNAJGP_22985&lt;/b&gt;&lt;br&gt;Percentage identity: 94&lt;br&gt;Percentage coverage: 99&lt;br&gt;BLAST bit score: 316&lt;br&gt;E-value: 7.65e-110" locus_tag="B1R45_RS19040" class="clusterblast-orf" id="dummy-8_h8_8_0"  />
</g>
<g id="a8_001"  >
<polygon points="19,85 24,80 54,80 54,90 24,90 19,85 " style="fill:#56d815; stroke-width:1; stroke:black; " description="&lt;b&gt;B1R45_RS19035&lt;/b&gt;&lt;br&gt;M14-type cytosolic carboxypeptidase&lt;br&gt;Location: 4184441 - 4183290&lt;br&gt;&lt;br&gt;&lt;b&gt;BlastP hit with JNAJGP_22990&lt;/b&gt;&lt;br&gt;Percentage identity: 91&lt;br&gt;Percentage coverage: 100&lt;br&gt;BLAST bit score: 717&lt;br&gt;E-value: 7.54e-262" locus_tag="B1R45_RS19035" class="clusterblast-orf" id="dummy-8_h8_8_1"  />
</g>
<g id="a8_002"  >
<polygon points="68,85 73,80 79,80 79,90 73,90 68,85 " style="fill:#1597d8; stroke-width:1; stroke:black; " description="&lt;b&gt;B1R45_RS19030&lt;/b&gt;&lt;br&gt;DUF3077 domain-containing protein&lt;br&gt;Location: 4182822 - 4182472&lt;br&gt;&lt;br&gt;&lt;b&gt;BlastP hit with JNAJGP_23000&lt;/b&gt;&lt;br&gt;Percentage identity: 85&lt;br&gt;Percentage coverage: 99&lt;br&gt;BLAST bit score: 179&lt;br&gt;E-value: 6.63e-58" locus_tag="B1R45_RS19030" class="clusterblast-orf" id="dummy-8_h8_8_2"  />
</g>
<g id="a8_003"  >
<polygon points="83,90 97,90 102,85 97,80 83,80 83,90 " style="fill:#9715d8; stroke-width:1; stroke:black; " description="&lt;b&gt;B1R45_RS19025&lt;/b&gt;&lt;br&gt;XRE family transcriptional regulator&lt;br&gt;Location: 4182340 - 4181708&lt;br&gt;&lt;br&gt;&lt;b&gt;BlastP hit with JNAJGP_23005&lt;/b&gt;&lt;br&gt;Percentage identity: 82&lt;br&gt;Percentage coverage: 100&lt;br&gt;BLAST bit score: 353&lt;br&gt;E-value: 1.92e-123" locus_tag="B1R45_RS19025" class="clusterblast-orf" id="dummy-8_h8_8_3"  />
</g>
<g id="a8_004"  >
<polygon points="102,85 107,80 160,80 160,90 107,90 102,85 " style="fill:#d85615; stroke-width:1; stroke:black; " description="&lt;b&gt;B1R45_RS19020&lt;/b&gt;&lt;br&gt;acetyl/propionyl/methylcrotonyl-CoA carboxylase subunit alpha&lt;br&gt;Location: 4181711 - 4179786&lt;br&gt;&lt;br&gt;&lt;b&gt;BlastP hit with JNAJGP_23010&lt;/b&gt;&lt;br&gt;Percentage identity: 92&lt;br&gt;Percentage coverage: 100&lt;br&gt;BLAST bit score: 1142&lt;br&gt;E-value: 0.0" locus_tag="B1R45_RS19020" class="clusterblast-orf" id="dummy-8_h8_8_4"  />
</g>
<g id="a8_005"  >
<polygon points="160,85 165,80 184,80 184,90 165,90 160,85 " style="fill:#15d815; stroke-width:1; stroke:black; " description="&lt;b&gt;B1R45_RS19015&lt;/b&gt;&lt;br&gt;gamma-carboxygeranoyl-CoA hydratase&lt;br&gt;Location: 4179789 - 4178983&lt;br&gt;&lt;br&gt;&lt;b&gt;BlastP hit with JNAJGP_23015&lt;/b&gt;&lt;br&gt;Percentage identity: 96&lt;br&gt;Percentage coverage: 100&lt;br&gt;BLAST bit score: 494&lt;br&gt;E-value: 1.8e-177" locus_tag="B1R45_RS19015" class="clusterblast-orf" id="dummy-8_h8_8_5"  />
</g>
<g id="a8_006"  >
<polygon points="184,85 189,80 233,80 233,90 189,90 184,85 " style="fill:#1556d8; stroke-width:1; stroke:black; " description="&lt;b&gt;B1R45_RS19010&lt;/b&gt;&lt;br&gt;methylcrotonoyl-CoA carboxylase&lt;br&gt;Location: 4178967 - 4177360&lt;br&gt;&lt;br&gt;&lt;b&gt;BlastP hit with JNAJGP_23020&lt;/b&gt;&lt;br&gt;Percentage identity: 97&lt;br&gt;Percentage coverage: 100&lt;br&gt;BLAST bit score: 1035&lt;br&gt;E-value: 0.0" locus_tag="B1R45_RS19010" class="clusterblast-orf" id="dummy-8_h8_8_6"  />
</g>
<g id="a8_007"  >
<polygon points="233,85 238,80 268,80 268,90 238,90 233,85 " style="fill:#d815d8; stroke-width:1; stroke:black; " description="&lt;b&gt;B1R45_RS19005&lt;/b&gt;&lt;br&gt;isovaleryl-CoA dehydrogenase&lt;br&gt;Location: 4177348 - 4176185&lt;br&gt;&lt;br&gt;&lt;b&gt;BlastP hit with JNAJGP_23025&lt;/b&gt;&lt;br&gt;Percentage identity: 98&lt;br&gt;Percentage coverage: 100&lt;br&gt;BLAST bit score: 757&lt;br&gt;E-value: 1.45e-277" locus_tag="B1R45_RS19005" class="clusterblast-orf" id="dummy-8_h8_8_7"  />
</g>
<g id="a8_008"  >
<polygon points="273,90 317,90 322,85 317,80 273,80 273,90 " style="fill:#d89715; stroke-width:1; stroke:black; " description="&lt;b&gt;B1R45_RS19000&lt;/b&gt;&lt;br&gt;AMP-binding protein&lt;br&gt;Location: 4176036 - 4174402&lt;br&gt;&lt;br&gt;&lt;b&gt;BlastP hit with JNAJGP_23030&lt;/b&gt;&lt;br&gt;Percentage identity: 92&lt;br&gt;Percentage coverage: 99&lt;br&gt;BLAST bit score: 1031&lt;br&gt;E-value: 0.0" locus_tag="B1R45_RS19000" class="clusterblast-orf" id="dummy-8_h8_8_8"  />
</g>
<g id="a8_009"  >
<polygon points="324,90 475,90 480,85 475,80 324,80 324,90 " style="fill:#15d856; stroke-width:1; stroke:black; " description="&lt;b&gt;B1R45_RS18995&lt;/b&gt;&lt;br&gt;NEL-type E3 ubiquitin ligase domain-containing protein&lt;br&gt;Location: 4174320 - 4169170&lt;br&gt;&lt;br&gt;&lt;b&gt;BlastP hit with JNAJGP_23035&lt;/b&gt;&lt;br&gt;Percentage identity: 51&lt;br&gt;Percentage coverage: 101&lt;br&gt;BLAST bit score: 1625&lt;br&gt;E-value: 0.0" locus_tag="B1R45_RS18995" class="clusterblast-orf" id="dummy-8_h8_8_9"  />
</g>
<g id="a8_0010"  >
<polygon points="496,85 501,80 523,80 523,90 501,90 496,85 " style="fill:#1515d8; stroke-width:1; stroke:black; " description="&lt;b&gt;B1R45_RS18990&lt;/b&gt;&lt;br&gt;hydroxymethylglutaryl-CoA lyase&lt;br&gt;Location: 4168622 - 4167723&lt;br&gt;&lt;br&gt;&lt;b&gt;BlastP hit with JNAJGP_23045&lt;/b&gt;&lt;br&gt;Percentage identity: 93&lt;br&gt;Percentage coverage: 100&lt;br&gt;BLAST bit score: 537&lt;br&gt;E-value: 2.37e-193" locus_tag="B1R45_RS18990" class="clusterblast-orf" id="dummy-8_h8_8_10"  />
</g>
<g id="a8_0011"  >
<polygon points="524,85 529,80 536,80 536,90 529,90 524,85 " style="fill:#d81597; stroke-width:1; stroke:black; " description="&lt;b&gt;B1R45_RS18985&lt;/b&gt;&lt;br&gt;MerR family DNA-binding transcriptional regulator&lt;br&gt;Location: 4167705 - 4167313&lt;br&gt;&lt;br&gt;&lt;b&gt;BlastP hit with JNAJGP_23050&lt;/b&gt;&lt;br&gt;Percentage identity: 98&lt;br&gt;Percentage coverage: 100&lt;br&gt;BLAST bit score: 240&lt;br&gt;E-value: 2.13e-81" locus_tag="B1R45_RS18985" class="clusterblast-orf" id="dummy-8_h8_8_11"  />
</g>
<g id="a8_0012"  >
<polygon points="541,85 546,80 569,80 569,90 546,90 541,85 " style="fill:#d8d815; stroke-width:1; stroke:black; " description="&lt;b&gt;B1R45_RS18980&lt;/b&gt;&lt;br&gt;LysR family transcriptional regulator&lt;br&gt;Location: 4167134 - 4166199&lt;br&gt;&lt;br&gt;&lt;b&gt;BlastP hit with JNAJGP_23055&lt;/b&gt;&lt;br&gt;Percentage identity: 97&lt;br&gt;Percentage coverage: 100&lt;br&gt;BLAST bit score: 598&lt;br&gt;E-value: 2.46e-217" locus_tag="B1R45_RS18980" class="clusterblast-orf" id="dummy-8_h8_8_12"  />
</g>
<g id="a8_0013"  >
<polygon points="574,90 606,90 611,85 606,80 574,80 574,90 " style="fill:#15d897; stroke-width:1; stroke:black; " description="&lt;b&gt;B1R45_RS18975&lt;/b&gt;&lt;br&gt;acyl-CoA dehydrogenase&lt;br&gt;Location: 4166047 - 4164818&lt;br&gt;&lt;br&gt;&lt;b&gt;BlastP hit with JNAJGP_23060&lt;/b&gt;&lt;br&gt;Percentage identity: 98&lt;br&gt;Percentage coverage: 100&lt;br&gt;BLAST bit score: 817&lt;br&gt;E-value: 1.92e-300" locus_tag="B1R45_RS18975" class="clusterblast-orf" id="dummy-8_h8_8_13"  />
</g>
<g id="a8_0014"  >
<polygon points="615,85 620,80 655,80 655,90 620,90 615,85 " style="fill:#5615d8; stroke-width:1; stroke:black; " description="&lt;b&gt;B1R45_RS18970&lt;/b&gt;&lt;br&gt;phosphate ABC transporter substrate-binding/OmpA family protein&lt;br&gt;Location: 4164686 - 4163355&lt;br&gt;&lt;br&gt;&lt;b&gt;BlastP hit with JNAJGP_23065&lt;/b&gt;&lt;br&gt;Percentage identity: 88&lt;br&gt;Percentage coverage: 100&lt;br&gt;BLAST bit score: 746&lt;br&gt;E-value: 2.07e-271" locus_tag="B1R45_RS18970" class="clusterblast-orf" id="dummy-8_h8_8_14"  />
</g>
<g id="a8_0015"  >
<polygon points="675,85 680,80 700,80 700,90 680,90 675,85 " style="fill:#d81556; stroke-width:1; stroke:black; " description="&lt;b&gt;B1R45_RS18965&lt;/b&gt;&lt;br&gt;exodeoxyribonuclease III&lt;br&gt;Location: 4162675 - 4161863&lt;br&gt;&lt;br&gt;&lt;b&gt;BlastP hit with JNAJGP_23070&lt;/b&gt;&lt;br&gt;Percentage identity: 96&lt;br&gt;Percentage coverage: 100&lt;br&gt;BLAST bit score: 547&lt;br&gt;E-value: 2.74e-198" locus_tag="B1R45_RS18965" class="clusterblast-orf" id="dummy-8_h8_8_15"  />
</g>
<g id="a8_0016"  >
<polygon points="705,90 720,90 725,85 720,80 705,80 705,90 " style="fill:#97d815; stroke-width:1; stroke:black; " description="&lt;b&gt;B1R45_RS18960&lt;/b&gt;&lt;br&gt;GNAT family N-acetyltransferase&lt;br&gt;Location: 4161693 - 4161043&lt;br&gt;&lt;br&gt;&lt;b&gt;BlastP hit with JNAJGP_23075&lt;/b&gt;&lt;br&gt;Percentage identity: 96&lt;br&gt;Percentage coverage: 100&lt;br&gt;BLAST bit score: 434&lt;br&gt;E-value: 2.84e-155" locus_tag="B1R45_RS18960" class="clusterblast-orf" id="dummy-8_h8_8_16"  />
</g>
<g id="a8_0017"  >
<polygon points="727,90 774,90 779,85 774,80 727,80 727,90 " style="fill:#15d8d8; stroke-width:1; stroke:black; " description="&lt;b&gt;B1R45_RS18955&lt;/b&gt;&lt;br&gt;autotransporter assembly complex protein TamA&lt;br&gt;Location: 4160978 - 4159251&lt;br&gt;&lt;br&gt;&lt;b&gt;BlastP hit with JNAJGP_23080&lt;/b&gt;&lt;br&gt;Percentage identity: 93&lt;br&gt;Percentage coverage: 100&lt;br&gt;BLAST bit score: 1087&lt;br&gt;E-value: 0.0" locus_tag="B1R45_RS18955" class="clusterblast-orf" id="dummy-8_h8_8_17"  />
</g>
</svg>
