<svg xmlns="http://www.w3.org/2000/svg" xmlns:xlink="http://www.w3.org/1999/xlink" version="1.1" x="0" y="0" height="230" width="800" viewBox="0 0 800 230" preserveAspectRatio="none"  >
<g label="Query sequence" class="clusterblast-cluster"  >
<text x="5" y="20" class="clusterblast-acc"  >
Query sequence</text>
<line x1="10" y1="35" x2="778.0" y2="35" style="stroke-width:1; stroke:grey; "  />
<polygon points="184,40 188,40 193,35 188,30 184,30 184,40 " style="fill:white; stroke-width:1; stroke:black; " description="&lt;b&gt;JNAJGP_22985&lt;/b&gt;&lt;br&gt;Cytochrome b561 bacterial/Ni-hydrogenase domain-containing protein&lt;br&gt;Location: 4860170 - 4860710" locus_tag="JNAJGP_22985" class="clusterblast-orf" id="dummy-8_q0_0_all"  />
<polygon points="194,35 199,30 212,30 212,40 199,40 194,35 " style="fill:white; stroke-width:1; stroke:black; " description="&lt;b&gt;JNAJGP_22990&lt;/b&gt;&lt;br&gt;Peptidase M14 carboxypeptidase A domain-containing protein&lt;br&gt;Location: 4860766 - 4861918" locus_tag="JNAJGP_22990" class="clusterblast-orf" id="dummy-8_q1_0_all"  />
<polygon points="219,35 224,30 225,30 225,40 224,40 219,35 " style="fill:white; stroke-width:1; stroke:black; " description="&lt;b&gt;JNAJGP_23000&lt;/b&gt;&lt;br&gt;DUF3077 domain-containing protein&lt;br&gt;Location: 4862380 - 4862731" locus_tag="JNAJGP_23000" class="clusterblast-orf" id="dummy-8_q2_0_all"  />
<polygon points="227,40 232,40 237,35 232,30 227,30 227,40 " style="fill:white; stroke-width:1; stroke:black; " description="&lt;b&gt;JNAJGP_23005&lt;/b&gt;&lt;br&gt;Putative prophage repressor&lt;br&gt;Location: 4862860 - 4863496" locus_tag="JNAJGP_23005" class="clusterblast-orf" id="dummy-8_q3_0_all"  />
<polygon points="237,35 242,30 268,30 268,40 242,40 237,35 " style="fill:#d81515; stroke-width:1; stroke:black; " description="&lt;b&gt;JNAJGP_23010&lt;/b&gt;&lt;br&gt;Methylcrotonyl-CoA carboxylase, alpha-subunit LiuD&lt;br&gt;Location: 4863492 - 4865418" locus_tag="JNAJGP_23010" class="clusterblast-orf" id="dummy-8_q4_0_all"  />
<polygon points="267,35 272,30 280,30 280,40 272,40 267,35 " style="fill:white; stroke-width:1; stroke:black; " description="&lt;b&gt;JNAJGP_23015&lt;/b&gt;&lt;br&gt;gamma-carboxygeranoyl-CoA hydratase&lt;br&gt;Location: 4865414 - 4866221" locus_tag="JNAJGP_23015" class="clusterblast-orf" id="dummy-8_q5_0_all"  />
<polygon points="281,35 286,30 306,30 306,40 286,40 281,35 " style="fill:#15d815; stroke-width:1; stroke:black; " description="&lt;b&gt;JNAJGP_23020&lt;/b&gt;&lt;br&gt;Acetyl-CoA carboxylase, carboxyltransferase component&lt;br&gt;Location: 4866236 - 4867844" locus_tag="JNAJGP_23020" class="clusterblast-orf" id="dummy-8_q6_0_all"  />
<polygon points="306,35 311,30 325,30 325,40 311,40 306,35 " style="fill:white; stroke-width:1; stroke:black; " description="&lt;b&gt;JNAJGP_23025&lt;/b&gt;&lt;br&gt;Acyl-CoA dehydrogenase related to the alkylation response protein AidB&lt;br&gt;Location: 4867855 - 4869019" locus_tag="JNAJGP_23025" class="clusterblast-orf" id="dummy-8_q7_0_all"  />
<polygon points="327,40 348,40 353,35 348,30 327,30 327,40 " style="fill:#1515d8; stroke-width:1; stroke:black; " description="&lt;b&gt;JNAJGP_23030&lt;/b&gt;&lt;br&gt;Long-chain-fatty-acid--CoA ligase&lt;br&gt;Location: 4869168 - 4870800" locus_tag="JNAJGP_23030" class="clusterblast-orf" id="dummy-8_q8_0_all"  />
<polygon points="355,40 431,40 436,35 431,30 355,30 355,40 " style="fill:white; stroke-width:1; stroke:black; " description="&lt;b&gt;JNAJGP_23035&lt;/b&gt;&lt;br&gt;RING-type E3 ubiquitin transferase&lt;br&gt;Location: 4870898 - 4876037" locus_tag="JNAJGP_23035" class="clusterblast-orf" id="dummy-8_q9_0_all"  />
<polygon points="445,35 450,30 459,30 459,40 450,40 445,35 " style="fill:white; stroke-width:1; stroke:black; " description="&lt;b&gt;JNAJGP_23045&lt;/b&gt;&lt;br&gt;hydroxymethylglutaryl-CoA lyase&lt;br&gt;Location: 4876585 - 4877485" locus_tag="JNAJGP_23045" class="clusterblast-orf" id="dummy-8_q10_0_all"  />
<polygon points="459,35 464,30 466,30 466,40 464,40 459,35 " style="fill:white; stroke-width:1; stroke:black; " description="&lt;b&gt;JNAJGP_23050&lt;/b&gt;&lt;br&gt;HTH merR-type domain-containing protein&lt;br&gt;Location: 4877501 - 4877894" locus_tag="JNAJGP_23050" class="clusterblast-orf" id="dummy-8_q11_0_all"  />
<polygon points="468,35 473,30 483,30 483,40 473,40 468,35 " style="fill:white; stroke-width:1; stroke:black; " description="&lt;b&gt;JNAJGP_23055&lt;/b&gt;&lt;br&gt;DNA-binding transcriptional regulator, LysR family&lt;br&gt;Location: 4878031 - 4878967" locus_tag="JNAJGP_23055" class="clusterblast-orf" id="dummy-8_q12_0_all"  />
<polygon points="485,40 500,40 505,35 500,30 485,30 485,40 " style="fill:white; stroke-width:1; stroke:black; " description="&lt;b&gt;JNAJGP_23060&lt;/b&gt;&lt;br&gt;Acyl-CoA dehydrogenase related to the alkylation response protein AidB&lt;br&gt;Location: 4879133 - 4880363" locus_tag="JNAJGP_23060" class="clusterblast-orf" id="dummy-8_q13_0_all"  />
<polygon points="507,35 512,30 528,30 528,40 512,40 507,35 " style="fill:white; stroke-width:1; stroke:black; " description="&lt;b&gt;JNAJGP_23065&lt;/b&gt;&lt;br&gt;OmpA-like domain-containing protein&lt;br&gt;Location: 4880479 - 4881811" locus_tag="JNAJGP_23065" class="clusterblast-orf" id="dummy-8_q14_0_all"  />
<polygon points="530,35 535,30 543,30 543,40 535,40 530,35 " style="fill:white; stroke-width:1; stroke:black; " description="&lt;b&gt;JNAJGP_23070&lt;/b&gt;&lt;br&gt;exodeoxyribonuclease III&lt;br&gt;Location: 4881934 - 4882747" locus_tag="JNAJGP_23070" class="clusterblast-orf" id="dummy-8_q15_0_all"  />
<polygon points="545,40 551,40 556,35 551,30 545,30 545,40 " style="fill:white; stroke-width:1; stroke:black; " description="&lt;b&gt;JNAJGP_23075&lt;/b&gt;&lt;br&gt;N-acetyltransferase domain-containing protein&lt;br&gt;Location: 4882916 - 4883567" locus_tag="JNAJGP_23075" class="clusterblast-orf" id="dummy-8_q16_0_all"  />
<polygon points="557,40 579,40 584,35 579,30 557,30 557,40 " style="fill:white; stroke-width:1; stroke:black; " description="&lt;b&gt;JNAJGP_23080&lt;/b&gt;&lt;br&gt;Translocation and assembly module subunit TamA&lt;br&gt;Location: 4883660 - 4885358" locus_tag="JNAJGP_23080" class="clusterblast-orf" id="dummy-8_q17_0_all"  />
<polygon points="584,40 590,40 595,35 590,30 584,30 584,40 " style="fill:white; stroke-width:1; stroke:black; " description="&lt;b&gt;JNAJGP_23085&lt;/b&gt;&lt;br&gt;hypothetical protein&lt;br&gt;Location: 4885357 - 4886047" locus_tag="JNAJGP_23085" class="clusterblast-orf" id="dummy-8_q18_0_all"  />
</g>
<g label="BGC0000407" description="BGC0000407_c1: plipastatin (15% of genes show similarity), NRP" class="clusterblast-cluster"  >
<text x="5" y="70" class="clusterblast-acc"  >
<a xlink:href="https://mibig.secondarymetabolites.org/go/BGC0000407/1" target="_blank">BGC0000407</a>: plipastatin                                                                      (15% of genes show similarity), NRP</text>
<line x1="10" y1="85" x2="778.0" y2="85" style="stroke-width:1; stroke:grey; "  />
</g>
<g id="a8_000"  >
<polygon points="0,90 17,90 22,85 17,80 0,80 0,90 " style="fill:white; stroke-width:1; stroke:black; " description="&lt;b&gt;AEW31016.1&lt;/b&gt;&lt;br&gt;putative efflux transporter&lt;br&gt;Location: 1 - 1392" locus_tag="AEW31016.1" class="clusterblast-orf" id="dummy-8_h8_3_0"  />
</g>
<g id="a8_001"  >
<polygon points="24,90 34,90 39,85 34,80 24,80 24,90 " style="fill:white; stroke-width:1; stroke:black; " description="&lt;b&gt;AEW31017.1&lt;/b&gt;&lt;br&gt;putative epimerase&lt;br&gt;Location: 1526 - 2503" locus_tag="AEW31017.1" class="clusterblast-orf" id="dummy-8_h8_3_1"  />
</g>
<g id="a8_002"  >
<polygon points="40,90 58,90 63,85 58,80 40,80 40,90 " style="fill:white; stroke-width:1; stroke:black; " description="&lt;b&gt;AEW31018.1&lt;/b&gt;&lt;br&gt;penicillin-binding protein&lt;br&gt;Location: 2537 - 4012" locus_tag="AEW31018.1" class="clusterblast-orf" id="dummy-8_h8_3_2"  />
</g>
<g id="a8_003"  >
<polygon points="69,90 186,90 191,85 186,80 69,80 69,90 " style="fill:white; stroke-width:1; stroke:black; " description="&lt;b&gt;AEW31019.1&lt;/b&gt;&lt;br&gt;plipastatin synthetase&lt;br&gt;Location: 4394 - 12079" locus_tag="AEW31019.1" class="clusterblast-orf" id="dummy-8_h8_3_3"  />
</g>
<g id="a8_004"  >
<polygon points="192,90 309,90 314,85 309,80 192,80 192,90 " style="fill:white; stroke-width:1; stroke:black; " description="&lt;b&gt;AEW31020.1&lt;/b&gt;&lt;br&gt;plipastatin synthetase&lt;br&gt;Location: 12104 - 19786" locus_tag="AEW31020.1" class="clusterblast-orf" id="dummy-8_h8_3_4"  />
</g>
<g id="a8_005"  >
<polygon points="314,90 431,90 436,85 431,80 314,80 314,90 " style="fill:white; stroke-width:1; stroke:black; " description="&lt;b&gt;AEW31021.1&lt;/b&gt;&lt;br&gt;plipastatin synthetase&lt;br&gt;Location: 19804 - 27471" locus_tag="AEW31021.1" class="clusterblast-orf" id="dummy-8_h8_3_5"  />
</g>
<g id="a8_006"  >
<polygon points="436,90 603,90 608,85 603,80 436,80 436,90 " style="fill:white; stroke-width:1; stroke:black; " description="&lt;b&gt;AEW31022.1&lt;/b&gt;&lt;br&gt;plipastatin synthetase&lt;br&gt;Location: 27497 - 38347" locus_tag="AEW31022.1" class="clusterblast-orf" id="dummy-8_h8_3_6"  />
</g>
<g id="a8_007"  >
<polygon points="609,90 664,90 669,85 664,80 609,80 609,90 " style="fill:white; stroke-width:1; stroke:black; " description="&lt;b&gt;AEW31015.1&lt;/b&gt;&lt;br&gt;plipastatin synthetase&lt;br&gt;Location: 38355 - 42194" locus_tag="AEW31015.1" class="clusterblast-orf" id="dummy-8_h8_3_7"  />
</g>
<g id="a8_008"  >
<polygon points="671,90 672,90 677,85 672,80 671,80 671,90 " style="fill:white; stroke-width:1; stroke:black; " description="&lt;b&gt;AEW31023.1&lt;/b&gt;&lt;br&gt;integral inner membrane protein&lt;br&gt;Location: 42302 - 42694" locus_tag="AEW31023.1" class="clusterblast-orf" id="dummy-8_h8_3_8"  />
</g>
<g id="a8_009"  >
<polygon points="680,90 699,90 704,85 699,80 680,80 680,90 " style="fill:white; stroke-width:1; stroke:black; " description="&lt;b&gt;AEW31024.1&lt;/b&gt;&lt;br&gt;hypothetical protein&lt;br&gt;Location: 42830 - 44362" locus_tag="AEW31024.1" class="clusterblast-orf" id="dummy-8_h8_3_9"  />
</g>
<g id="a8_0010"  >
<polygon points="713,90 726,90 731,85 726,80 713,80 713,90 " style="fill:white; stroke-width:1; stroke:black; " description="&lt;b&gt;AEW31025.1&lt;/b&gt;&lt;br&gt;acyl-CoA dehydrogenase&lt;br&gt;Location: 44943 - 46085" locus_tag="AEW31025.1" class="clusterblast-orf" id="dummy-8_h8_3_10"  />
</g>
<g id="a8_0011"  >
<polygon points="732,90 753,90 758,85 753,80 732,80 732,90 " style="fill:#1515d8; stroke-width:1; stroke:black; " description="&lt;b&gt;AEW31026.1&lt;/b&gt;&lt;br&gt;short-chain acyl-CoA synthetase&lt;br&gt;Location: 46130 - 47779&lt;br&gt;&lt;br&gt;&lt;b&gt;BlastP hit with JNAJGP_23030&lt;/b&gt;&lt;br&gt;Percentage identity: 46&lt;br&gt;Percentage coverage: 99&lt;br&gt;BLAST bit score: 497&lt;br&gt;E-value: 1.36e-171" locus_tag="AEW31026.1" class="clusterblast-orf" id="dummy-8_h8_3_11"  />
</g>
<g id="a8_0012"  >
<polygon points="758,90 775,90 780,85 775,80 758,80 758,90 " style="fill:#d81515; stroke-width:1; stroke:black; " description="&lt;b&gt;AEW31027.1&lt;/b&gt;&lt;br&gt;acetyl-CoA carboxylase biotin carboxylase subunit&lt;br&gt;Location: 47789 - 49123&lt;br&gt;&lt;br&gt;&lt;b&gt;BlastP hit with JNAJGP_23010&lt;/b&gt;&lt;br&gt;Percentage identity: 47&lt;br&gt;Percentage coverage: 69&lt;br&gt;BLAST bit score: 397&lt;br&gt;E-value: 1.63e-132" locus_tag="AEW31027.1" class="clusterblast-orf" id="dummy-8_h8_3_12"  />
</g>
</svg>
