<svg xmlns="http://www.w3.org/2000/svg" xmlns:xlink="http://www.w3.org/1999/xlink" version="1.1" x="0" y="0" height="230" width="800" viewBox="0 0 800 230" preserveAspectRatio="none"  >
<g label="Query sequence" class="clusterblast-cluster"  >
<text x="5" y="20" class="clusterblast-acc"  >
Query sequence</text>
<line x1="10" y1="35" x2="778.0" y2="35" style="stroke-width:1; stroke:grey; "  />
<polygon points="0,40 32,40 37,35 32,30 0,30 0,40 " style="fill:white; stroke-width:1; stroke:black; " description="&lt;b&gt;JNAJGP_24070&lt;/b&gt;&lt;br&gt;phage tail protein&lt;br&gt;Location: 5054663 - 5058125" locus_tag="JNAJGP_24070" class="clusterblast-orf" id="dummy-9_q0_0_all"  />
<polygon points="40,40 42,40 47,35 42,30 40,30 40,40 " style="fill:white; stroke-width:1; stroke:black; " description="&lt;b&gt;JNAJGP_24075&lt;/b&gt;&lt;br&gt;Phage tail protein&lt;br&gt;Location: 5058471 - 5059101" locus_tag="JNAJGP_24075" class="clusterblast-orf" id="dummy-9_q1_0_all"  />
<polygon points="48,40 51,40 56,35 51,30 48,30 48,40 " style="fill:white; stroke-width:1; stroke:black; " description="&lt;b&gt;JNAJGP_24080&lt;/b&gt;&lt;br&gt;Phage tail protein&lt;br&gt;Location: 5059159 - 5059927" locus_tag="JNAJGP_24080" class="clusterblast-orf" id="dummy-9_q2_0_all"  />
<polygon points="56,40 59,35 56,30 56,40 " style="fill:white; stroke-width:1; stroke:black; " description="&lt;b&gt;JNAJGP_24085&lt;/b&gt;&lt;br&gt;hypothetical protein&lt;br&gt;Location: 5059926 - 5060217" locus_tag="JNAJGP_24085" class="clusterblast-orf" id="dummy-9_q3_0_all"  />
<polygon points="59,40 62,35 59,30 59,40 " style="fill:white; stroke-width:1; stroke:black; " description="&lt;b&gt;JNAJGP_24090&lt;/b&gt;&lt;br&gt;Phage tail protein&lt;br&gt;Location: 5060213 - 5060465" locus_tag="JNAJGP_24090" class="clusterblast-orf" id="dummy-9_q4_0_all"  />
<polygon points="62,40 63,40 68,35 63,30 62,30 62,40 " style="fill:white; stroke-width:1; stroke:black; " description="&lt;b&gt;JNAJGP_24095&lt;/b&gt;&lt;br&gt;Chitinase&lt;br&gt;Location: 5060520 - 5061054" locus_tag="JNAJGP_24095" class="clusterblast-orf" id="dummy-9_q5_0_all"  />
<polygon points="68,40 69,40 74,35 69,30 68,30 68,40 " style="fill:white; stroke-width:1; stroke:black; " description="&lt;b&gt;JNAJGP_24100&lt;/b&gt;&lt;br&gt;Lysozyme&lt;br&gt;Location: 5061050 - 5061620" locus_tag="JNAJGP_24100" class="clusterblast-orf" id="dummy-9_q6_0_all"  />
<polygon points="73,35 76,30 76,40 73,35 " style="fill:white; stroke-width:1; stroke:black; " description="&lt;b&gt;JNAJGP_24105&lt;/b&gt;&lt;br&gt;NIPSNAP domain-containing protein&lt;br&gt;Location: 5061579 - 5061843" locus_tag="JNAJGP_24105" class="clusterblast-orf" id="dummy-9_q7_0_all"  />
<polygon points="77,35 81,30 81,40 77,35 " style="fill:white; stroke-width:1; stroke:black; " description="&lt;b&gt;JNAJGP_24110&lt;/b&gt;&lt;br&gt;Lipoprotein&lt;br&gt;Location: 5061930 - 5062311" locus_tag="JNAJGP_24110" class="clusterblast-orf" id="dummy-9_q8_0_all"  />
<polygon points="86,40 91,40 96,35 91,30 86,30 86,40 " style="fill:white; stroke-width:1; stroke:black; " description="&lt;b&gt;JNAJGP_24120&lt;/b&gt;&lt;br&gt;LysR family transcriptional regulator&lt;br&gt;Location: 5062760 - 5063663" locus_tag="JNAJGP_24120" class="clusterblast-orf" id="dummy-9_q9_0_all"  />
<polygon points="96,35 101,30 106,30 106,40 101,40 96,35 " style="fill:white; stroke-width:1; stroke:black; " description="&lt;b&gt;JNAJGP_24125&lt;/b&gt;&lt;br&gt;Cupin&lt;br&gt;Location: 5063700 - 5064642" locus_tag="JNAJGP_24125" class="clusterblast-orf" id="dummy-9_q10_0_all"  />
<polygon points="108,35 111,30 111,40 108,35 " style="fill:white; stroke-width:1; stroke:black; " description="&lt;b&gt;JNAJGP_24130&lt;/b&gt;&lt;br&gt;hypothetical protein&lt;br&gt;Location: 5064843 - 5065122" locus_tag="JNAJGP_24130" class="clusterblast-orf" id="dummy-9_q11_0_all"  />
<polygon points="113,35 118,30 136,30 136,40 118,40 113,35 " style="fill:white; stroke-width:1; stroke:black; " description="&lt;b&gt;JNAJGP_24135&lt;/b&gt;&lt;br&gt;Ferric siderophore receptor&lt;br&gt;Location: 5065316 - 5067488" locus_tag="JNAJGP_24135" class="clusterblast-orf" id="dummy-9_q12_0_all"  />
<polygon points="138,35 143,30 148,30 148,40 143,40 138,35 " style="fill:#d81515; stroke-width:1; stroke:black; " description="&lt;b&gt;JNAJGP_24140&lt;/b&gt;&lt;br&gt;Acyltransferase MbtK/IucB-like conserved domain-containing protein&lt;br&gt;Location: 5067586 - 5068606" locus_tag="JNAJGP_24140" class="clusterblast-orf" id="dummy-9_q13_0_all"  />
<polygon points="150,35 155,30 171,30 171,40 155,40 150,35 " style="fill:#3cd815; stroke-width:1; stroke:black; " description="&lt;b&gt;JNAJGP_24145&lt;/b&gt;&lt;br&gt;Fe(3+)-hydroxamate ABC transporter permease FhuB&lt;br&gt;Location: 5068765 - 5070754" locus_tag="JNAJGP_24145" class="clusterblast-orf" id="dummy-9_q14_0_all"  />
<polygon points="171,35 176,30 181,30 181,40 176,40 171,35 " style="fill:white; stroke-width:1; stroke:black; " description="&lt;b&gt;JNAJGP_24150&lt;/b&gt;&lt;br&gt;Periplasmic binding protein&lt;br&gt;Location: 5070746 - 5071658" locus_tag="JNAJGP_24150" class="clusterblast-orf" id="dummy-9_q15_0_all"  />
<polygon points="183,40 196,40 201,35 196,30 183,30 183,40 " style="fill:#1563d8; stroke-width:1; stroke:black; " description="&lt;b&gt;JNAJGP_24155&lt;/b&gt;&lt;br&gt;Putative ATP-binding cassette transporter&lt;br&gt;Location: 5071857 - 5073504" locus_tag="JNAJGP_24155" class="clusterblast-orf" id="dummy-9_q16_0_all"  />
<polygon points="203,40 205,40 210,35 205,30 203,30 203,40 " style="fill:#b115d8; stroke-width:1; stroke:black; " description="&lt;b&gt;JNAJGP_24160&lt;/b&gt;&lt;br&gt;Thioesterase&lt;br&gt;Location: 5073678 - 5074422" locus_tag="JNAJGP_24160" class="clusterblast-orf" id="dummy-9_q17_0_all"  />
<polygon points="211,40 216,40 221,35 216,30 211,30 211,40 " style="fill:#d88a15; stroke-width:1; stroke:black; " description="&lt;b&gt;JNAJGP_24165&lt;/b&gt;&lt;br&gt;TauD/TfdA-like domain-containing protein&lt;br&gt;Location: 5074461 - 5075442" locus_tag="JNAJGP_24165" class="clusterblast-orf" id="dummy-9_q18_0_all"  />
<polygon points="222,40 265,40 270,35 265,30 222,30 222,40 " style="fill:#15d863; stroke-width:1; stroke:black; " description="&lt;b&gt;JNAJGP_24170&lt;/b&gt;&lt;br&gt;Non ribosomal peptide synthase&lt;br&gt;Location: 5075492 - 5079956" locus_tag="JNAJGP_24170" class="clusterblast-orf" id="dummy-9_q19_0_all"  />
<polygon points="270,40 298,40 303,35 298,30 270,30 270,40 " style="fill:white; stroke-width:1; stroke:black; " description="&lt;b&gt;JNAJGP_24175&lt;/b&gt;&lt;br&gt;Amino acid adenylation&lt;br&gt;Location: 5079967 - 5083114" locus_tag="JNAJGP_24175" class="clusterblast-orf" id="dummy-9_q20_0_all"  />
<polygon points="304,40 381,40 386,35 381,30 304,30 304,40 " style="fill:#3c15d8; stroke-width:1; stroke:black; " description="&lt;b&gt;JNAJGP_24180&lt;/b&gt;&lt;br&gt;Carrier domain-containing protein&lt;br&gt;Location: 5083162 - 5090896" locus_tag="JNAJGP_24180" class="clusterblast-orf" id="dummy-9_q21_0_all"  />
<polygon points="386,40 513,40 518,35 513,30 386,30 386,40 " style="fill:#d8158a; stroke-width:1; stroke:black; " description="&lt;b&gt;JNAJGP_24185&lt;/b&gt;&lt;br&gt;non-ribosomal peptide synthetase&lt;br&gt;Location: 5090892 - 5103210" locus_tag="JNAJGP_24185" class="clusterblast-orf" id="dummy-9_q22_0_all"  />
<polygon points="518,40 556,40 561,35 556,30 518,30 518,40 " style="fill:#3c15d8; stroke-width:1; stroke:black; " description="&lt;b&gt;JNAJGP_24190&lt;/b&gt;&lt;br&gt;Non-ribosomal peptide synthetase&lt;br&gt;Location: 5103211 - 5107270" locus_tag="JNAJGP_24190" class="clusterblast-orf" id="dummy-9_q23_0_all"  />
<polygon points="562,40 571,40 576,35 571,30 562,30 562,40 " style="fill:#b1d815; stroke-width:1; stroke:black; " description="&lt;b&gt;JNAJGP_24195&lt;/b&gt;&lt;br&gt;L-ornithine 5-monooxygenase&lt;br&gt;Location: 5107342 - 5108698" locus_tag="JNAJGP_24195" class="clusterblast-orf" id="dummy-9_q24_0_all"  />
<polygon points="577,40 580,40 585,35 580,30 577,30 577,40 " style="fill:white; stroke-width:1; stroke:black; " description="&lt;b&gt;JNAJGP_24200&lt;/b&gt;&lt;br&gt;siderophore-iron reductase FhuF&lt;br&gt;Location: 5108789 - 5109545" locus_tag="JNAJGP_24200" class="clusterblast-orf" id="dummy-9_q25_0_all"  />
<polygon points="586,35 591,30 594,30 594,40 591,40 586,35 " style="fill:#15d8d8; stroke-width:1; stroke:black; " description="&lt;b&gt;JNAJGP_24205&lt;/b&gt;&lt;br&gt;Iron-hydroxamate transporter ATP-binding subunit&lt;br&gt;Location: 5109585 - 5110353" locus_tag="JNAJGP_24205" class="clusterblast-orf" id="dummy-9_q26_0_all"  />
<polygon points="596,35 599,30 599,40 596,35 " style="fill:white; stroke-width:1; stroke:black; " description="&lt;b&gt;JNAJGP_24210&lt;/b&gt;&lt;br&gt;hypothetical protein&lt;br&gt;Location: 5110578 - 5110803" locus_tag="JNAJGP_24210" class="clusterblast-orf" id="dummy-9_q27_0_all"  />
<polygon points="601,40 603,40 608,35 603,30 601,30 601,40 " style="fill:white; stroke-width:1; stroke:black; " description="&lt;b&gt;JNAJGP_24215&lt;/b&gt;&lt;br&gt;Lipoprotein&lt;br&gt;Location: 5110983 - 5111682" locus_tag="JNAJGP_24215" class="clusterblast-orf" id="dummy-9_q28_0_all"  />
<polygon points="609,40 612,35 609,30 609,40 " style="fill:white; stroke-width:1; stroke:black; " description="&lt;b&gt;JNAJGP_24220&lt;/b&gt;&lt;br&gt;EAL domain-containing protein&lt;br&gt;Location: 5111807 - 5112086" locus_tag="JNAJGP_24220" class="clusterblast-orf" id="dummy-9_q29_0_all"  />
<polygon points="613,40 622,40 627,35 622,30 613,30 613,40 " style="fill:white; stroke-width:1; stroke:black; " description="&lt;b&gt;JNAJGP_24225&lt;/b&gt;&lt;br&gt;Methyl-accepting chemotaxis protein (2 PAS,MCP domains)&lt;br&gt;Location: 5112170 - 5113484" locus_tag="JNAJGP_24225" class="clusterblast-orf" id="dummy-9_q30_0_all"  />
<polygon points="630,40 647,40 652,35 647,30 630,30 630,40 " style="fill:white; stroke-width:1; stroke:black; " description="&lt;b&gt;JNAJGP_24230&lt;/b&gt;&lt;br&gt;Outer membrane siderophore receptor&lt;br&gt;Location: 5113706 - 5115821" locus_tag="JNAJGP_24230" class="clusterblast-orf" id="dummy-9_q31_0_all"  />
<polygon points="652,35 657,30 672,30 672,40 657,40 652,35 " style="fill:white; stroke-width:1; stroke:black; " description="&lt;b&gt;JNAJGP_24235&lt;/b&gt;&lt;br&gt;Sigma-54 factor interaction domain-containing protein&lt;br&gt;Location: 5115830 - 5117648" locus_tag="JNAJGP_24235" class="clusterblast-orf" id="dummy-9_q32_0_all"  />
<polygon points="675,40 681,40 686,35 681,30 675,30 675,40 " style="fill:white; stroke-width:1; stroke:black; " description="&lt;b&gt;JNAJGP_24240&lt;/b&gt;&lt;br&gt;sn-glycerol-3-phosphate import ATP-binding protein UgpC&lt;br&gt;Location: 5117939 - 5119034" locus_tag="JNAJGP_24240" class="clusterblast-orf" id="dummy-9_q33_0_all"  />
<polygon points="686,40 693,40 698,35 693,30 686,30 686,40 " style="fill:white; stroke-width:1; stroke:black; " description="&lt;b&gt;JNAJGP_24245&lt;/b&gt;&lt;br&gt;ABC transporter ATP-binding protein&lt;br&gt;Location: 5119033 - 5120131" locus_tag="JNAJGP_24245" class="clusterblast-orf" id="dummy-9_q34_0_all"  />
<polygon points="698,40 702,40 707,35 702,30 698,30 698,40 " style="fill:white; stroke-width:1; stroke:black; " description="&lt;b&gt;JNAJGP_24250&lt;/b&gt;&lt;br&gt;ABC-type sugar transport system, permease component&lt;br&gt;Location: 5120127 - 5120994" locus_tag="JNAJGP_24250" class="clusterblast-orf" id="dummy-9_q35_0_all"  />
<polygon points="708,40 711,40 716,35 711,30 708,30 708,40 " style="fill:white; stroke-width:1; stroke:black; " description="&lt;b&gt;JNAJGP_24255&lt;/b&gt;&lt;br&gt;ABC-type glycerol-3-phosphate transport system, permease component&lt;br&gt;Location: 5121004 - 5121805" locus_tag="JNAJGP_24255" class="clusterblast-orf" id="dummy-9_q36_0_all"  />
<polygon points="716,40 719,35 716,30 716,40 " style="fill:white; stroke-width:1; stroke:black; " description="&lt;b&gt;JNAJGP_24260&lt;/b&gt;&lt;br&gt;Small integral membrane protein&lt;br&gt;Location: 5121815 - 5122088" locus_tag="JNAJGP_24260" class="clusterblast-orf" id="dummy-9_q37_0_all"  />
<polygon points="719,40 733,40 738,35 733,30 719,30 719,40 " style="fill:white; stroke-width:1; stroke:black; " description="&lt;b&gt;JNAJGP_24265&lt;/b&gt;&lt;br&gt;ABC transporter substrate-binding protein&lt;br&gt;Location: 5122120 - 5123863" locus_tag="JNAJGP_24265" class="clusterblast-orf" id="dummy-9_q38_0_all"  />
<polygon points="743,40 752,40 757,35 752,30 743,30 743,40 " style="fill:white; stroke-width:1; stroke:black; " description="&lt;b&gt;JNAJGP_24270&lt;/b&gt;&lt;br&gt;Iron-containing redox enzyme family protein&lt;br&gt;Location: 5124300 - 5125680" locus_tag="JNAJGP_24270" class="clusterblast-orf" id="dummy-9_q39_0_all"  />
<polygon points="758,40 763,40 768,35 763,30 758,30 758,40 " style="fill:white; stroke-width:1; stroke:black; " description="&lt;b&gt;JNAJGP_24275&lt;/b&gt;&lt;br&gt;Release factor glutamine methyltransferase&lt;br&gt;Location: 5125690 - 5126635" locus_tag="JNAJGP_24275" class="clusterblast-orf" id="dummy-9_q40_0_all"  />
<polygon points="768,40 775,40 780,35 775,30 768,30 768,40 " style="fill:white; stroke-width:1; stroke:black; " description="&lt;b&gt;JNAJGP_24280&lt;/b&gt;&lt;br&gt;carboxylate-amine ligase&lt;br&gt;Location: 5126641 - 5127760" locus_tag="JNAJGP_24280" class="clusterblast-orf" id="dummy-9_q41_0_all"  />
</g>
<g label="BGC0002001" description="BGC0002001_c1: crochelin A (32% of genes show similarity), NRP+Polyketide" class="clusterblast-cluster"  >
<text x="5" y="70" class="clusterblast-acc"  >
<a xlink:href="https://mibig.secondarymetabolites.org/go/BGC0002001/1" target="_blank">BGC0002001</a>: crochelin A                                                                      (32% of genes show similarity), NRP+Polyketide</text>
<line x1="10" y1="85" x2="778.0" y2="85" style="stroke-width:1; stroke:grey; "  />
</g>
<g id="a9_000"  >
<polygon points="122,90 124,85 122,80 122,90 " style="fill:white; stroke-width:1; stroke:black; " description="&lt;b&gt;Achr_RS19650&lt;/b&gt;&lt;br&gt;MbtH family protein&lt;br&gt;Location: 50175 - 49972" locus_tag="Achr_RS19650" class="clusterblast-orf" id="dummy-9_h9_2_0"  />
</g>
<g id="a9_001"  >
<polygon points="125,90 142,90 147,85 142,80 125,80 125,90 " style="fill:white; stroke-width:1; stroke:black; " description="&lt;b&gt;Achr_RS24430&lt;/b&gt;&lt;br&gt;condensation domain-containing protein&lt;br&gt;Location: 49899 - 47794" locus_tag="Achr_RS24430" class="clusterblast-orf" id="dummy-9_h9_2_1"  />
</g>
<g id="a9_002"  >
<polygon points="148,90 148,90 153,85 148,80 148,80 148,90 " style="fill:white; stroke-width:1; stroke:black; " description="&lt;b&gt;Achr_RS19640&lt;/b&gt;&lt;br&gt;hypothetical protein&lt;br&gt;Location: 47743 - 47222" locus_tag="Achr_RS19640" class="clusterblast-orf" id="dummy-9_h9_2_2"  />
</g>
<g id="a9_003"  >
<polygon points="155,90 164,90 169,85 164,80 155,80 155,90 " style="fill:#b1d815; stroke-width:1; stroke:black; " description="&lt;b&gt;Achr_RS19635&lt;/b&gt;&lt;br&gt;lysine N(6)-hydroxylase/L-ornithine N(5)-oxygenase family protein&lt;br&gt;Location: 47093 - 45792&lt;br&gt;&lt;br&gt;&lt;b&gt;BlastP hit with JNAJGP_24195&lt;/b&gt;&lt;br&gt;Percentage identity: 47&lt;br&gt;Percentage coverage: 93&lt;br&gt;BLAST bit score: 379&lt;br&gt;E-value: 2.79e-128" locus_tag="Achr_RS19635" class="clusterblast-orf" id="dummy-9_h9_2_3"  />
</g>
<g id="a9_004"  >
<polygon points="171,85 175,80 175,90 171,85 " style="fill:white; stroke-width:1; stroke:black; " description="&lt;b&gt;Achr_RS19630&lt;/b&gt;&lt;br&gt;hypothetical protein&lt;br&gt;Location: 45540 - 45166" locus_tag="Achr_RS19630" class="clusterblast-orf" id="dummy-9_h9_2_4"  />
</g>
<g id="a9_005"  >
<polygon points="177,85 182,80 183,80 183,90 182,90 177,85 " style="fill:white; stroke-width:1; stroke:black; " description="&lt;b&gt;Achr_RS19625&lt;/b&gt;&lt;br&gt;RNA polymerase factor sigma-70&lt;br&gt;Location: 44960 - 44415" locus_tag="Achr_RS19625" class="clusterblast-orf" id="dummy-9_h9_2_5"  />
</g>
<g id="a9_006"  >
<polygon points="186,85 191,80 201,80 201,90 191,90 186,85 " style="fill:white; stroke-width:1; stroke:black; " description="&lt;b&gt;Achr_RS19620&lt;/b&gt;&lt;br&gt;efflux transporter outer membrane subunit&lt;br&gt;Location: 44171 - 42738" locus_tag="Achr_RS19620" class="clusterblast-orf" id="dummy-9_h9_2_6"  />
</g>
<g id="a9_007"  >
<polygon points="202,85 207,80 214,80 214,90 207,90 202,85 " style="fill:white; stroke-width:1; stroke:black; " description="&lt;b&gt;Achr_RS19615&lt;/b&gt;&lt;br&gt;efflux RND transporter periplasmic adaptor subunit&lt;br&gt;Location: 42650 - 41499" locus_tag="Achr_RS19615" class="clusterblast-orf" id="dummy-9_h9_2_7"  />
</g>
<g id="a9_008"  >
<polygon points="216,85 220,80 220,90 216,85 " style="fill:white; stroke-width:1; stroke:black; " description="&lt;b&gt;Achr_RS19610&lt;/b&gt;&lt;br&gt;DUF4880 domain-containing protein&lt;br&gt;Location: 41354 - 40938" locus_tag="Achr_RS19610" class="clusterblast-orf" id="dummy-9_h9_2_8"  />
</g>
<g id="a9_009"  >
<polygon points="223,90 226,85 223,80 223,90 " style="fill:white; stroke-width:1; stroke:black; " description="&lt;b&gt;Achr_RS19605&lt;/b&gt;&lt;br&gt;MbtH family NRPS accessory protein&lt;br&gt;Location: 40650 - 40408" locus_tag="Achr_RS19605" class="clusterblast-orf" id="dummy-9_h9_2_9"  />
</g>
<g id="a9_0010"  >
<polygon points="226,90 229,90 234,85 229,80 226,80 226,90 " style="fill:white; stroke-width:1; stroke:black; " description="&lt;b&gt;Achr_RS19600&lt;/b&gt;&lt;br&gt;alpha/beta fold hydrolase&lt;br&gt;Location: 40397 - 39660" locus_tag="Achr_RS19600" class="clusterblast-orf" id="dummy-9_h9_2_10"  />
</g>
<g id="a9_0011"  >
<polygon points="235,90 240,90 245,85 240,80 235,80 235,90 " style="fill:#d88a15; stroke-width:1; stroke:black; " description="&lt;b&gt;Achr_RS19595&lt;/b&gt;&lt;br&gt;TauD/TfdA family dioxygenase&lt;br&gt;Location: 39578 - 38601&lt;br&gt;&lt;br&gt;&lt;b&gt;BlastP hit with JNAJGP_24165&lt;/b&gt;&lt;br&gt;Percentage identity: 60&lt;br&gt;Percentage coverage: 94&lt;br&gt;BLAST bit score: 375&lt;br&gt;E-value: 2.71e-130" locus_tag="Achr_RS19595" class="clusterblast-orf" id="dummy-9_h9_2_11"  />
</g>
<g id="a9_0012"  >
<polygon points="246,90 297,90 302,85 297,80 246,80 246,90 " style="fill:#3c15d8; stroke-width:1; stroke:black; " description="&lt;b&gt;Achr_RS19590&lt;/b&gt;&lt;br&gt;non-ribosomal peptide synthetase&lt;br&gt;Location: 38572 - 33275&lt;br&gt;&lt;br&gt;&lt;b&gt;BlastP hit with JNAJGP_24180&lt;/b&gt;&lt;br&gt;Percentage identity: 48&lt;br&gt;Percentage coverage: 40&lt;br&gt;BLAST bit score: 866&lt;br&gt;E-value: 5.99e-275" locus_tag="Achr_RS19590" class="clusterblast-orf" id="dummy-9_h9_2_12"  />
</g>
<g id="a9_0013"  >
<polygon points="302,90 346,90 351,85 346,80 302,80 302,90 " style="fill:white; stroke-width:1; stroke:black; " description="&lt;b&gt;Achr_RS19585&lt;/b&gt;&lt;br&gt;type I polyketide synthase&lt;br&gt;Location: 33278 - 28716" locus_tag="Achr_RS19585" class="clusterblast-orf" id="dummy-9_h9_2_13"  />
</g>
<g id="a9_0014"  >
<polygon points="355,90 386,90 391,85 386,80 355,80 355,90 " style="fill:#3c15d8; stroke-width:1; stroke:black; " description="&lt;b&gt;Achr_RS19580&lt;/b&gt;&lt;br&gt;non-ribosomal peptide synthetase&lt;br&gt;Location: 28274 - 24948&lt;br&gt;&lt;br&gt;&lt;b&gt;BlastP hit with JNAJGP_24180&lt;/b&gt;&lt;br&gt;Percentage identity: 48&lt;br&gt;Percentage coverage: 41&lt;br&gt;BLAST bit score: 907&lt;br&gt;E-value: 1.1e-298" locus_tag="Achr_RS19580" class="clusterblast-orf" id="dummy-9_h9_2_14"  />
</g>
<g id="a9_0015"  >
<polygon points="391,90 469,90 474,85 469,80 391,80 391,90 " style="fill:#3c15d8; stroke-width:1; stroke:black; " description="&lt;b&gt;Achr_RS19575&lt;/b&gt;&lt;br&gt;non-ribosomal peptide synthetase&lt;br&gt;Location: 24944 - 17133&lt;br&gt;&lt;br&gt;&lt;b&gt;BlastP hit with JNAJGP_24190&lt;/b&gt;&lt;br&gt;Percentage identity: 49&lt;br&gt;Percentage coverage: 80&lt;br&gt;BLAST bit score: 885&lt;br&gt;E-value: 2.04e-287" locus_tag="Achr_RS19575" class="clusterblast-orf" id="dummy-9_h9_2_15"  />
</g>
<g id="a9_0016"  >
<polygon points="474,90 513,90 518,85 513,80 474,80 474,90 " style="fill:#3c15d8; stroke-width:1; stroke:black; " description="&lt;b&gt;Achr_RS19570&lt;/b&gt;&lt;br&gt;non-ribosomal peptide synthetase&lt;br&gt;Location: 17136 - 13069&lt;br&gt;&lt;br&gt;&lt;b&gt;BlastP hit with JNAJGP_24180&lt;/b&gt;&lt;br&gt;Percentage identity: 46&lt;br&gt;Percentage coverage: 43&lt;br&gt;BLAST bit score: 874&lt;br&gt;E-value: 5.84e-283" locus_tag="Achr_RS19570" class="clusterblast-orf" id="dummy-9_h9_2_16"  />
</g>
<g id="a9_0017"  >
<polygon points="520,85 525,80 544,80 544,90 525,90 520,85 " style="fill:white; stroke-width:1; stroke:black; " description="&lt;b&gt;Achr_RS19560&lt;/b&gt;&lt;br&gt;TonB-dependent siderophore receptor&lt;br&gt;Location: 12854 - 10590" locus_tag="Achr_RS19560" class="clusterblast-orf" id="dummy-9_h9_2_17"  />
</g>
<g id="a9_0018"  >
<polygon points="545,85 550,80 560,80 560,90 550,90 545,85 " style="fill:white; stroke-width:1; stroke:black; " description="&lt;b&gt;Achr_RS19555&lt;/b&gt;&lt;br&gt;diaminobutyrate--2-oxoglutarate transaminase&lt;br&gt;Location: 10524 - 9082" locus_tag="Achr_RS19555" class="clusterblast-orf" id="dummy-9_h9_2_18"  />
</g>
<g id="a9_0019"  >
<polygon points="564,90 568,90 573,85 568,80 564,80 564,90 " style="fill:white; stroke-width:1; stroke:black; " description="&lt;b&gt;Achr_RS19550&lt;/b&gt;&lt;br&gt;N(5)-hydroxyornithine transformylase PvdF&lt;br&gt;Location: 8716 - 7892" locus_tag="Achr_RS19550" class="clusterblast-orf" id="dummy-9_h9_2_19"  />
</g>
<g id="a9_0020"  >
<polygon points="573,90 579,90 584,85 579,80 573,80 573,90 " style="fill:white; stroke-width:1; stroke:black; " description="&lt;b&gt;Achr_RS19545&lt;/b&gt;&lt;br&gt;histone deacetylase family protein&lt;br&gt;Location: 7879 - 6836" locus_tag="Achr_RS19545" class="clusterblast-orf" id="dummy-9_h9_2_20"  />
</g>
<g id="a9_0021"  >
<polygon points="585,90 607,90 612,85 607,80 585,80 585,90 " style="fill:white; stroke-width:1; stroke:black; " description="&lt;b&gt;Achr_RS19540&lt;/b&gt;&lt;br&gt;penicillin acylase family protein&lt;br&gt;Location: 6720 - 4234" locus_tag="Achr_RS19540" class="clusterblast-orf" id="dummy-9_h9_2_21"  />
</g>
<g id="a9_0022"  >
<polygon points="613,90 626,90 631,85 626,80 613,80 613,90 " style="fill:#1563d8; stroke-width:1; stroke:black; " description="&lt;b&gt;Achr_RS19535&lt;/b&gt;&lt;br&gt;cyclic peptide export ABC transporter&lt;br&gt;Location: 4102 - 2441&lt;br&gt;&lt;br&gt;&lt;b&gt;BlastP hit with JNAJGP_24155&lt;/b&gt;&lt;br&gt;Percentage identity: 52&lt;br&gt;Percentage coverage: 99&lt;br&gt;BLAST bit score: 498&lt;br&gt;E-value: 4.6e-172" locus_tag="Achr_RS19535" class="clusterblast-orf" id="dummy-9_h9_2_22"  />
</g>
<g id="a9_0023"  >
<polygon points="631,90 640,90 645,85 640,80 631,80 631,90 " style="fill:white; stroke-width:1; stroke:black; " description="&lt;b&gt;Achr_RS19530&lt;/b&gt;&lt;br&gt;PepSY domain-containing protein&lt;br&gt;Location: 2444 - 1101" locus_tag="Achr_RS19530" class="clusterblast-orf" id="dummy-9_h9_2_23"  />
</g>
<g id="a9_0024"  >
<polygon points="649,85 654,80 657,80 657,90 654,90 649,85 " style="fill:#15d8d8; stroke-width:1; stroke:black; " description="&lt;b&gt;Achr_RS19525&lt;/b&gt;&lt;br&gt;ATP-binding cassette domain-containing protein&lt;br&gt;Location: 768 - 1&lt;br&gt;&lt;br&gt;&lt;b&gt;BlastP hit with JNAJGP_24205&lt;/b&gt;&lt;br&gt;Percentage identity: 62&lt;br&gt;Percentage coverage: 99&lt;br&gt;BLAST bit score: 296&lt;br&gt;E-value: 2.32e-101" locus_tag="Achr_RS19525" class="clusterblast-orf" id="dummy-9_h9_2_24"  />
</g>
</svg>
