<svg xmlns="http://www.w3.org/2000/svg" xmlns:xlink="http://www.w3.org/1999/xlink" version="1.1" x="0" y="0" height="50" width="800" viewBox="0 0 800 50" preserveAspectRatio="none"  >
<g label="Query sequence" class="clusterblast-cluster"  >
<text x="5" y="20" class="clusterblast-acc"  >
Query sequence</text>
<line x1="10" y1="35" x2="778.0" y2="35" style="stroke-width:1; stroke:grey; "  />
<polygon points="0,40 79,40 84,35 79,30 0,30 0,40 " style="fill:white; stroke-width:1; stroke:black; " description="&lt;b&gt;JNAJGP_04285&lt;/b&gt;&lt;br&gt;high-affinity branched-chain amino acid ABC transporter permease LivH&lt;br&gt;Location: 851344 - 852268" locus_tag="JNAJGP_04285" class="clusterblast-orf" id="knownclusterblast-2_q0_0_all"  />
<polygon points="83,40 191,40 196,35 191,30 83,30 83,40 " style="fill:white; stroke-width:1; stroke:black; " description="&lt;b&gt;JNAJGP_04290&lt;/b&gt;&lt;br&gt;High-affinity branched-chain amino acid transport system permease LivHM N-terminal domain-containing protein&lt;br&gt;Location: 852264 - 853518" locus_tag="JNAJGP_04290" class="clusterblast-orf" id="knownclusterblast-2_q1_0_all"  />
<polygon points="196,40 260,40 265,35 260,30 196,30 196,40 " style="fill:white; stroke-width:1; stroke:black; " description="&lt;b&gt;JNAJGP_04295&lt;/b&gt;&lt;br&gt;high-affinity branched-chain amino acid ABC transporter ATP-binding protein LivG&lt;br&gt;Location: 853514 - 854282" locus_tag="JNAJGP_04295" class="clusterblast-orf" id="knownclusterblast-2_q2_0_all"  />
<polygon points="265,40 324,40 329,35 324,30 265,30 265,40 " style="fill:white; stroke-width:1; stroke:black; " description="&lt;b&gt;JNAJGP_04300&lt;/b&gt;&lt;br&gt;ABC-type branched-chain amino acid transport system, ATPase component LivF&lt;br&gt;Location: 854283 - 854985" locus_tag="JNAJGP_04300" class="clusterblast-orf" id="knownclusterblast-2_q3_0_all"  />
<polygon points="346,40 368,40 373,35 368,30 346,30 346,40 " style="fill:white; stroke-width:1; stroke:black; " description="&lt;b&gt;JNAJGP_04305&lt;/b&gt;&lt;br&gt;DUF2282 domain-containing protein&lt;br&gt;Location: 855181 - 855478" locus_tag="JNAJGP_04305" class="clusterblast-orf" id="knownclusterblast-2_q4_0_all"  />
<polygon points="376,40 448,40 453,35 448,30 376,30 376,40 " style="fill:white; stroke-width:1; stroke:black; " description="&lt;b&gt;JNAJGP_04310&lt;/b&gt;&lt;br&gt;UPF0276 protein PFWH6 1361&lt;br&gt;Location: 855504 - 856359" locus_tag="JNAJGP_04310" class="clusterblast-orf" id="knownclusterblast-2_q5_0_all"  />
<polygon points="452,40 517,40 522,35 517,30 452,30 452,40 " style="fill:white; stroke-width:1; stroke:black; " description="&lt;b&gt;JNAJGP_04315&lt;/b&gt;&lt;br&gt;Putative DNA-binding domain-containing protein&lt;br&gt;Location: 856355 - 857132" locus_tag="JNAJGP_04315" class="clusterblast-orf" id="knownclusterblast-2_q6_0_all"  />
<polygon points="522,40 561,40 566,35 561,30 522,30 522,40 " style="fill:white; stroke-width:1; stroke:black; " description="&lt;b&gt;JNAJGP_04320&lt;/b&gt;&lt;br&gt;DoxX family protein&lt;br&gt;Location: 857128 - 857614" locus_tag="JNAJGP_04320" class="clusterblast-orf" id="knownclusterblast-2_q7_0_all"  />
<polygon points="566,35 571,30 648,30 648,40 571,40 566,35 " style="fill:white; stroke-width:1; stroke:black; " description="&lt;b&gt;JNAJGP_04325&lt;/b&gt;&lt;br&gt;HTH lysR-type domain-containing protein&lt;br&gt;Location: 857610 - 858519" locus_tag="JNAJGP_04325" class="clusterblast-orf" id="knownclusterblast-2_q8_0_all"  />
<polygon points="657,40 706,40 711,35 706,30 657,30 657,40 " style="fill:white; stroke-width:1; stroke:black; " description="&lt;b&gt;JNAJGP_04330&lt;/b&gt;&lt;br&gt;short chain dehydrogenase&lt;br&gt;Location: 858623 - 859223" locus_tag="JNAJGP_04330" class="clusterblast-orf" id="knownclusterblast-2_q9_0_all"  />
<polygon points="720,40 775,40 780,35 775,30 720,30 720,40 " style="fill:white; stroke-width:1; stroke:black; " description="&lt;b&gt;JNAJGP_04335&lt;/b&gt;&lt;br&gt;Lipoprotein&lt;br&gt;Location: 859320 - 859992" locus_tag="JNAJGP_04335" class="clusterblast-orf" id="knownclusterblast-2_q10_0_all"  />
</g>
</svg>
