<svg xmlns="http://www.w3.org/2000/svg" xmlns:xlink="http://www.w3.org/1999/xlink" version="1.1" x="0" y="0" height="230" width="800" viewBox="0 0 800 230" preserveAspectRatio="none"  >
<g label="Query sequence" class="clusterblast-cluster"  >
<text x="5" y="20" class="clusterblast-acc"  >
Query sequence</text>
<line x1="10" y1="35" x2="778.0" y2="35" style="stroke-width:1; stroke:grey; "  />
<polygon points="2,40 79,40 84,35 79,30 2,30 2,40 " style="fill:#d81515; stroke-width:1; stroke:black; " description="&lt;b&gt;MFKKBJ_26540&lt;/b&gt;&lt;br&gt;Protein HflC&lt;br&gt;Location: 5781757 - 5782747" locus_tag="MFKKBJ_26540" class="clusterblast-orf" id="dummy-10_q0_0_all"  />
<polygon points="84,40 164,40 169,35 164,30 84,30 84,40 " style="fill:#15d815; stroke-width:1; stroke:black; " description="&lt;b&gt;MFKKBJ_26545&lt;/b&gt;&lt;br&gt;Modulator of FtsH protease HflK&lt;br&gt;Location: 5782743 - 5783778" locus_tag="MFKKBJ_26545" class="clusterblast-orf" id="dummy-10_q1_0_all"  />
<polygon points="169,40 319,40 324,35 319,30 169,30 169,40 " style="fill:#1597d8; stroke-width:1; stroke:black; " description="&lt;b&gt;MFKKBJ_26550&lt;/b&gt;&lt;br&gt;Cadmium-translocating P-type ATPase&lt;br&gt;Location: 5783774 - 5785661" locus_tag="MFKKBJ_26550" class="clusterblast-orf" id="dummy-10_q2_0_all"  />
<polygon points="334,40 350,40 355,35 350,30 334,30 334,40 " style="fill:#9715d8; stroke-width:1; stroke:black; " description="&lt;b&gt;MFKKBJ_26555&lt;/b&gt;&lt;br&gt;Integral membrane protein&lt;br&gt;Location: 5785778 - 5786030" locus_tag="MFKKBJ_26555" class="clusterblast-orf" id="dummy-10_q3_0_all"  />
<polygon points="360,40 425,40 430,35 425,30 360,30 360,40 " style="fill:#d89715; stroke-width:1; stroke:black; " description="&lt;b&gt;MFKKBJ_26560&lt;/b&gt;&lt;br&gt;UPF0276 protein BW43 00573&lt;br&gt;Location: 5786096 - 5786942" locus_tag="MFKKBJ_26560" class="clusterblast-orf" id="dummy-10_q4_0_all"  />
<polygon points="429,40 490,40 495,35 490,30 429,30 429,40 " style="fill:#15d897; stroke-width:1; stroke:black; " description="&lt;b&gt;MFKKBJ_26565&lt;/b&gt;&lt;br&gt;DUF2063 domain-containing protein&lt;br&gt;Location: 5786932 - 5787721" locus_tag="MFKKBJ_26565" class="clusterblast-orf" id="dummy-10_q5_0_all"  />
<polygon points="502,40 595,40 600,35 595,30 502,30 502,40 " style="fill:#1515d8; stroke-width:1; stroke:black; " description="&lt;b&gt;MFKKBJ_26570&lt;/b&gt;&lt;br&gt;C17 cyclopropane fatty acid synthase CfaB&lt;br&gt;Location: 5787808 - 5788993" locus_tag="MFKKBJ_26570" class="clusterblast-orf" id="dummy-10_q6_0_all"  />
<polygon points="606,35 611,30 725,30 725,40 611,40 606,35 " style="fill:#d81597; stroke-width:1; stroke:black; " description="&lt;b&gt;MFKKBJ_26575&lt;/b&gt;&lt;br&gt;cardiolipin synthase&lt;br&gt;Location: 5789067 - 5790507" locus_tag="MFKKBJ_26575" class="clusterblast-orf" id="dummy-10_q7_0_all"  />
<polygon points="735,40 773,40 778,35 773,30 735,30 735,40 " style="fill:#97d815; stroke-width:1; stroke:black; " description="&lt;b&gt;MFKKBJ_26580&lt;/b&gt;&lt;br&gt;DUF3617 domain-containing protein&lt;br&gt;Location: 5790638 - 5791160" locus_tag="MFKKBJ_26580" class="clusterblast-orf" id="dummy-10_q8_0_all"  />
</g>
<g label="NZ_JACAPG010000023" description="NZ_JACAPG010000023 (161755-172601): Pseudomonas reactans strain C5002 run0228... (100% of genes show similarity), RiPP-like" class="clusterblast-cluster"  >
<text x="5" y="70" class="clusterblast-acc"  >
<a xlink:href="https://antismash-db.secondarymetabolites.org/area?record=NZ_JACAPG010000023&amp;start=161755&amp;end=172601" target="_blank">NZ_JACAPG010000023 (161755-172601)</a>: Pseudomonas reactans strain C5002 run0228... (100% of genes show similarity), RiPP-like</text>
<line x1="10" y1="85" x2="778.0" y2="85" style="stroke-width:1; stroke:grey; "  />
</g>
<g id="a10_000"  >
<polygon points="0,90 76,90 81,85 76,80 0,80 0,90 " style="fill:#d81515; stroke-width:1; stroke:black; " description="&lt;b&gt;HX868_RS27240&lt;/b&gt;&lt;br&gt;protease modulator HflC&lt;br&gt;Location: 162416 - 163405&lt;br&gt;&lt;br&gt;&lt;b&gt;BlastP hit with MFKKBJ_26540&lt;/b&gt;&lt;br&gt;Percentage identity: 98&lt;br&gt;Percentage coverage: 100&lt;br&gt;BLAST bit score: 527&lt;br&gt;E-value: 2.14e-188" locus_tag="HX868_RS27240" class="clusterblast-orf" id="dummy-10_h10_8_0"  />
</g>
<g id="a10_001"  >
<polygon points="81,90 161,90 166,85 161,80 81,80 81,90 " style="fill:#15d815; stroke-width:1; stroke:black; " description="&lt;b&gt;HX868_RS27245&lt;/b&gt;&lt;br&gt;protease modulator HflK&lt;br&gt;Location: 163402 - 164436&lt;br&gt;&lt;br&gt;&lt;b&gt;BlastP hit with MFKKBJ_26545&lt;/b&gt;&lt;br&gt;Percentage identity: 97&lt;br&gt;Percentage coverage: 100&lt;br&gt;BLAST bit score: 550&lt;br&gt;E-value: 3.45e-197" locus_tag="HX868_RS27245" class="clusterblast-orf" id="dummy-10_h10_8_1"  />
</g>
<g id="a10_002"  >
<polygon points="166,90 317,90 322,85 317,80 166,80 166,90 " style="fill:#1597d8; stroke-width:1; stroke:black; " description="&lt;b&gt;HX868_RS27250&lt;/b&gt;&lt;br&gt;cadmium-translocating P-type ATPase&lt;br&gt;Location: 164433 - 166319&lt;br&gt;&lt;br&gt;&lt;b&gt;BlastP hit with MFKKBJ_26550&lt;/b&gt;&lt;br&gt;Percentage identity: 97&lt;br&gt;Percentage coverage: 100&lt;br&gt;BLAST bit score: 1076&lt;br&gt;E-value: 0.0" locus_tag="HX868_RS27250" class="clusterblast-orf" id="dummy-10_h10_8_2"  />
</g>
<g id="a10_003"  >
<polygon points="331,90 347,90 352,85 347,80 331,80 331,90 " style="fill:#9715d8; stroke-width:1; stroke:black; " description="&lt;b&gt;HX868_RS27255&lt;/b&gt;&lt;br&gt;membrane protein&lt;br&gt;Location: 166436 - 166690&lt;br&gt;&lt;br&gt;&lt;b&gt;BlastP hit with MFKKBJ_26555&lt;/b&gt;&lt;br&gt;Percentage identity: 70&lt;br&gt;Percentage coverage: 101&lt;br&gt;BLAST bit score: 80&lt;br&gt;E-value: 1.95e-19" locus_tag="HX868_RS27255" class="clusterblast-orf" id="dummy-10_h10_8_3"  />
</g>
<g id="a10_004"  >
<polygon points="358,90 423,90 428,85 423,80 358,80 358,90 " style="fill:#d89715; stroke-width:1; stroke:black; " description="&lt;b&gt;HX868_RS27260&lt;/b&gt;&lt;br&gt;DUF692 domain-containing protein&lt;br&gt;Location: 166756 - 167601&lt;br&gt;&lt;br&gt;&lt;b&gt;BlastP hit with MFKKBJ_26560&lt;/b&gt;&lt;br&gt;Percentage identity: 94&lt;br&gt;Percentage coverage: 100&lt;br&gt;BLAST bit score: 551&lt;br&gt;E-value: 1.35e-199" locus_tag="HX868_RS27260" class="clusterblast-orf" id="dummy-10_h10_8_4"  />
</g>
<g id="a10_005"  >
<polygon points="427,90 487,90 492,85 487,80 427,80 427,90 " style="fill:#15d897; stroke-width:1; stroke:black; " description="&lt;b&gt;HX868_RS27265&lt;/b&gt;&lt;br&gt;DNA-binding domain-containing protein&lt;br&gt;Location: 167592 - 168380&lt;br&gt;&lt;br&gt;&lt;b&gt;BlastP hit with MFKKBJ_26565&lt;/b&gt;&lt;br&gt;Percentage identity: 82&lt;br&gt;Percentage coverage: 100&lt;br&gt;BLAST bit score: 446&lt;br&gt;E-value: 8.96e-159" locus_tag="HX868_RS27265" class="clusterblast-orf" id="dummy-10_h10_8_5"  />
</g>
<g id="a10_006"  >
<polygon points="499,90 592,90 597,85 592,80 499,80 499,90 " style="fill:#1515d8; stroke-width:1; stroke:black; " description="&lt;b&gt;HX868_RS27270&lt;/b&gt;&lt;br&gt;C17 cyclopropane fatty acid synthase CfaB&lt;br&gt;Location: 168468 - 169652&lt;br&gt;&lt;br&gt;&lt;b&gt;BlastP hit with MFKKBJ_26570&lt;/b&gt;&lt;br&gt;Percentage identity: 97&lt;br&gt;Percentage coverage: 100&lt;br&gt;BLAST bit score: 781&lt;br&gt;E-value: 6.26e-287" locus_tag="HX868_RS27270" class="clusterblast-orf" id="dummy-10_h10_8_6"  />
</g>
<g id="a10_007"  >
<polygon points="607,85 612,80 726,80 726,90 612,90 607,85 " style="fill:#d81597; stroke-width:1; stroke:black; " description="&lt;b&gt;HX868_RS27275&lt;/b&gt;&lt;br&gt;cardiolipin synthase&lt;br&gt;Location: 169774 - 171213&lt;br&gt;&lt;br&gt;&lt;b&gt;BlastP hit with MFKKBJ_26575&lt;/b&gt;&lt;br&gt;Percentage identity: 97&lt;br&gt;Percentage coverage: 100&lt;br&gt;BLAST bit score: 923&lt;br&gt;E-value: 0.0" locus_tag="HX868_RS27275" class="clusterblast-orf" id="dummy-10_h10_8_7"  />
</g>
<g id="a10_008"  >
<polygon points="736,90 775,90 780,85 775,80 736,80 736,90 " style="fill:#97d815; stroke-width:1; stroke:black; " description="&lt;b&gt;HX868_RS27280&lt;/b&gt;&lt;br&gt;DUF3617 domain-containing protein&lt;br&gt;Location: 171344 - 171865&lt;br&gt;&lt;br&gt;&lt;b&gt;BlastP hit with MFKKBJ_26580&lt;/b&gt;&lt;br&gt;Percentage identity: 97&lt;br&gt;Percentage coverage: 100&lt;br&gt;BLAST bit score: 335&lt;br&gt;E-value: 1.16e-117" locus_tag="HX868_RS27280" class="clusterblast-orf" id="dummy-10_h10_8_8"  />
</g>
</svg>
