<svg xmlns="http://www.w3.org/2000/svg" xmlns:xlink="http://www.w3.org/1999/xlink" version="1.1" x="0" y="0" height="230" width="800" viewBox="0 0 800 230" preserveAspectRatio="none"  >
<g label="Query sequence" class="clusterblast-cluster"  >
<text x="5" y="20" class="clusterblast-acc"  >
Query sequence</text>
<line x1="10" y1="35" x2="778.0" y2="35" style="stroke-width:1; stroke:grey; "  />
<polygon points="231,35 236,30 254,30 254,40 236,40 231,35 " style="fill:#d81515; stroke-width:1; stroke:black; " description="&lt;b&gt;MFKKBJ_12140&lt;/b&gt;&lt;br&gt;Transcriptional regulator, AraC family&lt;br&gt;Location: 2624271 - 2625141" locus_tag="MFKKBJ_12140" class="clusterblast-orf" id="dummy-4_q0_0_all"  />
<polygon points="259,40 271,40 276,35 271,30 259,30 259,40 " style="fill:#3cd815; stroke-width:1; stroke:black; " description="&lt;b&gt;MFKKBJ_12145&lt;/b&gt;&lt;br&gt;Lysine transporter LysE&lt;br&gt;Location: 2625329 - 2625950" locus_tag="MFKKBJ_12145" class="clusterblast-orf" id="dummy-4_q1_0_all"  />
<polygon points="278,40 285,40 290,35 285,30 278,30 278,40 " style="fill:#1563d8; stroke-width:1; stroke:black; " description="&lt;b&gt;MFKKBJ_12150&lt;/b&gt;&lt;br&gt;PhnB-like domain-containing protein&lt;br&gt;Location: 2626025 - 2626508" locus_tag="MFKKBJ_12150" class="clusterblast-orf" id="dummy-4_q2_0_all"  />
<polygon points="293,40 309,40 314,35 309,30 293,30 293,40 " style="fill:#b115d8; stroke-width:1; stroke:black; " description="&lt;b&gt;MFKKBJ_12155&lt;/b&gt;&lt;br&gt;cysteine synthase family protein&lt;br&gt;Location: 2626609 - 2627401" locus_tag="MFKKBJ_12155" class="clusterblast-orf" id="dummy-4_q3_0_all"  />
<polygon points="314,40 324,40 329,35 324,30 314,30 314,40 " style="fill:#b115d8; stroke-width:1; stroke:black; " description="&lt;b&gt;MFKKBJ_12160&lt;/b&gt;&lt;br&gt;CBS domain-containing protein&lt;br&gt;Location: 2627401 - 2627986" locus_tag="MFKKBJ_12160" class="clusterblast-orf" id="dummy-4_q4_0_all"  />
<polygon points="329,40 355,40 360,35 355,30 329,30 329,40 " style="fill:#d88a15; stroke-width:1; stroke:black; " description="&lt;b&gt;MFKKBJ_12165&lt;/b&gt;&lt;br&gt;cystathionine gamma-synthase&lt;br&gt;Location: 2627982 - 2629149" locus_tag="MFKKBJ_12165" class="clusterblast-orf" id="dummy-4_q5_0_all"  />
<polygon points="361,35 366,30 420,30 420,40 366,40 361,35 " style="fill:#15d863; stroke-width:1; stroke:black; " description="&lt;b&gt;MFKKBJ_12170&lt;/b&gt;&lt;br&gt;OsmC domain/YcaO domain-containing protein&lt;br&gt;Location: 2629201 - 2631403" locus_tag="MFKKBJ_12170" class="clusterblast-orf" id="dummy-4_q6_0_all"  />
<polygon points="424,40 426,40 431,35 426,30 424,30 424,40 " style="fill:#3c15d8; stroke-width:1; stroke:black; " description="&lt;b&gt;MFKKBJ_12175&lt;/b&gt;&lt;br&gt;PAS domain-containing protein&lt;br&gt;Location: 2631564 - 2631834" locus_tag="MFKKBJ_12175" class="clusterblast-orf" id="dummy-4_q7_0_all"  />
<polygon points="431,35 436,30 440,30 440,40 436,40 431,35 " style="fill:#15d863; stroke-width:1; stroke:black; " description="&lt;b&gt;MFKKBJ_12180&lt;/b&gt;&lt;br&gt;Osmotically inducible protein OsmC&lt;br&gt;Location: 2631823 - 2632174" locus_tag="MFKKBJ_12180" class="clusterblast-orf" id="dummy-4_q8_0_all"  />
<polygon points="444,40 480,40 485,35 480,30 444,30 444,40 " style="fill:#3c15d8; stroke-width:1; stroke:black; " description="&lt;b&gt;MFKKBJ_12185&lt;/b&gt;&lt;br&gt;Methyl-accepting transducer domain-containing protein&lt;br&gt;Location: 2632335 - 2633901" locus_tag="MFKKBJ_12185" class="clusterblast-orf" id="dummy-4_q9_0_all"  />
<polygon points="492,40 508,40 513,35 508,30 492,30 492,40 " style="fill:#d8158a; stroke-width:1; stroke:black; " description="&lt;b&gt;MFKKBJ_12190&lt;/b&gt;&lt;br&gt;Suppressor of fused-like domain-containing protein&lt;br&gt;Location: 2634149 - 2634959" locus_tag="MFKKBJ_12190" class="clusterblast-orf" id="dummy-4_q10_0_all"  />
<polygon points="513,40 524,40 529,35 524,30 513,30 513,40 " style="fill:#b1d815; stroke-width:1; stroke:black; " description="&lt;b&gt;MFKKBJ_12195&lt;/b&gt;&lt;br&gt;hypothetical protein&lt;br&gt;Location: 2634958 - 2635540" locus_tag="MFKKBJ_12195" class="clusterblast-orf" id="dummy-4_q11_0_all"  />
<polygon points="533,40 543,40 548,35 543,30 533,30 533,40 " style="fill:#15d8d8; stroke-width:1; stroke:black; " description="&lt;b&gt;MFKKBJ_12200&lt;/b&gt;&lt;br&gt;Hydrolase, isochorismatase family&lt;br&gt;Location: 2635719 - 2636280" locus_tag="MFKKBJ_12200" class="clusterblast-orf" id="dummy-4_q12_0_all"  />
</g>
<g label="NZ_CP041236" description="NZ_CP041236 (3687579-3717828): Pseudomonas azotoformans strain P45A chromosom... (32% of genes show similarity), thiopeptide" class="clusterblast-cluster"  >
<text x="5" y="70" class="clusterblast-acc"  >
<a xlink:href="https://antismash-db.secondarymetabolites.org/area?record=NZ_CP041236&amp;start=3687579&amp;end=3717828" target="_blank">NZ_CP041236 (3687579-3717828)</a>: Pseudomonas azotoformans strain P45A chromosom... (32% of genes show similarity), thiopeptide</text>
<line x1="10" y1="85" x2="778.0" y2="85" style="stroke-width:1; stroke:grey; "  />
</g>
<g id="a4_000"  >
<polygon points="0,90 4,90 9,85 4,80 0,80 0,90 " style="fill:white; stroke-width:1; stroke:black; " description="&lt;b&gt;FKZ69_RS17110&lt;/b&gt;&lt;br&gt;VOC family protein&lt;br&gt;Location: 3687858 - 3688214" locus_tag="FKZ69_RS17110" class="clusterblast-orf" id="dummy-4_h4_3_0"  />
</g>
<g id="a4_001"  >
<polygon points="10,85 15,80 33,80 33,90 15,90 10,85 " style="fill:#d81515; stroke-width:1; stroke:black; " description="&lt;b&gt;FKZ69_RS17115&lt;/b&gt;&lt;br&gt;AraC family transcriptional regulator&lt;br&gt;Location: 3688273 - 3689142&lt;br&gt;&lt;br&gt;&lt;b&gt;BlastP hit with MFKKBJ_12140&lt;/b&gt;&lt;br&gt;Percentage identity: 82&lt;br&gt;Percentage coverage: 100&lt;br&gt;BLAST bit score: 484&lt;br&gt;E-value: 8.23e-173" locus_tag="FKZ69_RS17115" class="clusterblast-orf" id="dummy-4_h4_3_1"  />
</g>
<g id="a4_002"  >
<polygon points="36,85 41,80 41,80 41,90 41,90 36,85 " style="fill:white; stroke-width:1; stroke:black; " description="&lt;b&gt;FKZ69_RS17120&lt;/b&gt;&lt;br&gt;RidA family protein&lt;br&gt;Location: 3689240 - 3689413" locus_tag="FKZ69_RS17120" class="clusterblast-orf" id="dummy-4_h4_3_2"  />
</g>
<g id="a4_003"  >
<polygon points="41,90 47,90 52,85 47,80 41,80 41,90 " style="fill:white; stroke-width:1; stroke:black; " description="&lt;b&gt;FKZ69_RS17125&lt;/b&gt;&lt;br&gt;LysR substrate-binding domain-containing protein&lt;br&gt;Location: 3689414 - 3689836" locus_tag="FKZ69_RS17125" class="clusterblast-orf" id="dummy-4_h4_3_3"  />
</g>
<g id="a4_004"  >
<polygon points="52,90 64,90 69,85 64,80 52,80 52,90 " style="fill:white; stroke-width:1; stroke:black; " description="&lt;b&gt;FKZ69_RS17130&lt;/b&gt;&lt;br&gt;hypothetical protein&lt;br&gt;Location: 3689846 - 3690484" locus_tag="FKZ69_RS17130" class="clusterblast-orf" id="dummy-4_h4_3_4"  />
</g>
<g id="a4_005"  >
<polygon points="71,90 81,90 86,85 81,80 71,80 71,90 " style="fill:#b1d815; stroke-width:1; stroke:black; " description="&lt;b&gt;FKZ69_RS17135&lt;/b&gt;&lt;br&gt;hypothetical protein&lt;br&gt;Location: 3690559 - 3691143&lt;br&gt;&lt;br&gt;&lt;b&gt;BlastP hit with MFKKBJ_12195&lt;/b&gt;&lt;br&gt;Percentage identity: 55&lt;br&gt;Percentage coverage: 101&lt;br&gt;BLAST bit score: 218&lt;br&gt;E-value: 1.45e-70" locus_tag="FKZ69_RS17135" class="clusterblast-orf" id="dummy-4_h4_3_5"  />
</g>
<g id="a4_006"  >
<polygon points="88,85 93,80 94,80 94,90 93,90 88,85 " style="fill:white; stroke-width:1; stroke:black; " description="&lt;b&gt;FKZ69_RS17140&lt;/b&gt;&lt;br&gt;hypothetical protein&lt;br&gt;Location: 3691229 - 3691426" locus_tag="FKZ69_RS17140" class="clusterblast-orf" id="dummy-4_h4_3_6"  />
</g>
<g id="a4_007"  >
<polygon points="94,85 99,80 145,80 145,90 99,90 94,85 " style="fill:white; stroke-width:1; stroke:black; " description="&lt;b&gt;FKZ69_RS17145&lt;/b&gt;&lt;br&gt;FUSC family protein&lt;br&gt;Location: 3691423 - 3693378" locus_tag="FKZ69_RS17145" class="clusterblast-orf" id="dummy-4_h4_3_7"  />
</g>
<g id="a4_008"  >
<polygon points="145,85 150,80 169,80 169,90 150,90 145,85 " style="fill:white; stroke-width:1; stroke:black; " description="&lt;b&gt;FKZ69_RS17150&lt;/b&gt;&lt;br&gt;HlyD family secretion protein&lt;br&gt;Location: 3693378 - 3694286" locus_tag="FKZ69_RS17150" class="clusterblast-orf" id="dummy-4_h4_3_8"  />
</g>
<g id="a4_009"  >
<polygon points="169,85 174,80 174,80 174,90 174,90 169,85 " style="fill:white; stroke-width:1; stroke:black; " description="&lt;b&gt;FKZ69_RS17155&lt;/b&gt;&lt;br&gt;DUF1656 domain-containing protein&lt;br&gt;Location: 3694297 - 3694485" locus_tag="FKZ69_RS17155" class="clusterblast-orf" id="dummy-4_h4_3_9"  />
</g>
<g id="a4_0010"  >
<polygon points="177,90 195,90 200,85 195,80 177,80 177,90 " style="fill:white; stroke-width:1; stroke:black; " description="&lt;b&gt;FKZ69_RS17160&lt;/b&gt;&lt;br&gt;helix-turn-helix transcriptional regulator&lt;br&gt;Location: 3694603 - 3695457" locus_tag="FKZ69_RS17160" class="clusterblast-orf" id="dummy-4_h4_3_10"  />
</g>
<g id="a4_0011"  >
<polygon points="203,90 215,90 220,85 215,80 203,80 203,90 " style="fill:white; stroke-width:1; stroke:black; " description="&lt;b&gt;FKZ69_RS32660&lt;/b&gt;&lt;br&gt;PAS domain-containing protein&lt;br&gt;Location: 3695589 - 3696227" locus_tag="FKZ69_RS32660" class="clusterblast-orf" id="dummy-4_h4_3_11"  />
</g>
<g id="a4_0012"  >
<polygon points="224,90 231,90 236,85 231,80 224,80 224,90 " style="fill:#3c15d8; stroke-width:1; stroke:black; " description="&lt;b&gt;FKZ69_RS32665&lt;/b&gt;&lt;br&gt;methyl-accepting chemotaxis protein&lt;br&gt;Location: 3696360 - 3696812&lt;br&gt;&lt;br&gt;&lt;b&gt;BlastP hit with MFKKBJ_12185&lt;/b&gt;&lt;br&gt;Percentage identity: 45&lt;br&gt;Percentage coverage: 27&lt;br&gt;BLAST bit score: 104&lt;br&gt;E-value: 3.79e-24" locus_tag="FKZ69_RS32665" class="clusterblast-orf" id="dummy-4_h4_3_12"  />
</g>
<g id="a4_0013"  >
<polygon points="239,90 251,90 256,85 251,80 239,80 239,90 " style="fill:#3cd815; stroke-width:1; stroke:black; " description="&lt;b&gt;FKZ69_RS17170&lt;/b&gt;&lt;br&gt;LysE family translocator&lt;br&gt;Location: 3696949 - 3697569&lt;br&gt;&lt;br&gt;&lt;b&gt;BlastP hit with MFKKBJ_12145&lt;/b&gt;&lt;br&gt;Percentage identity: 90&lt;br&gt;Percentage coverage: 100&lt;br&gt;BLAST bit score: 359&lt;br&gt;E-value: 3.51e-126" locus_tag="FKZ69_RS17170" class="clusterblast-orf" id="dummy-4_h4_3_13"  />
</g>
<g id="a4_0014"  >
<polygon points="256,90 261,90 266,85 261,80 256,80 256,90 " style="fill:white; stroke-width:1; stroke:black; " description="&lt;b&gt;FKZ69_RS17175&lt;/b&gt;&lt;br&gt;ester cyclase&lt;br&gt;Location: 3697580 - 3697972" locus_tag="FKZ69_RS17175" class="clusterblast-orf" id="dummy-4_h4_3_14"  />
</g>
<g id="a4_0015"  >
<polygon points="267,90 275,90 280,85 275,80 267,80 267,90 " style="fill:#1563d8; stroke-width:1; stroke:black; " description="&lt;b&gt;FKZ69_RS17180&lt;/b&gt;&lt;br&gt;VOC family protein&lt;br&gt;Location: 3698006 - 3698485&lt;br&gt;&lt;br&gt;&lt;b&gt;BlastP hit with MFKKBJ_12150&lt;/b&gt;&lt;br&gt;Percentage identity: 87&lt;br&gt;Percentage coverage: 99&lt;br&gt;BLAST bit score: 299&lt;br&gt;E-value: 6.36e-104" locus_tag="FKZ69_RS17180" class="clusterblast-orf" id="dummy-4_h4_3_15"  />
</g>
<g id="a4_0016"  >
<polygon points="288,90 306,90 311,85 306,80 288,80 288,90 " style="fill:white; stroke-width:1; stroke:black; " description="&lt;b&gt;FKZ69_RS17185&lt;/b&gt;&lt;br&gt;4-hydroxy-tetrahydrodipicolinate synthase&lt;br&gt;Location: 3698808 - 3699671" locus_tag="FKZ69_RS17185" class="clusterblast-orf" id="dummy-4_h4_3_16"  />
</g>
<g id="a4_0017"  >
<polygon points="327,85 332,80 346,80 346,90 332,90 327,85 " style="fill:white; stroke-width:1; stroke:black; " description="&lt;b&gt;FKZ69_RS17190&lt;/b&gt;&lt;br&gt;GntR family transcriptional regulator&lt;br&gt;Location: 3700289 - 3700981" locus_tag="FKZ69_RS17190" class="clusterblast-orf" id="dummy-4_h4_3_17"  />
</g>
<g id="a4_0018"  >
<polygon points="346,85 351,80 393,80 393,90 351,90 346,85 " style="fill:white; stroke-width:1; stroke:black; " description="&lt;b&gt;FKZ69_RS17195&lt;/b&gt;&lt;br&gt;allophanate hydrolase&lt;br&gt;Location: 3700984 - 3702780" locus_tag="FKZ69_RS17195" class="clusterblast-orf" id="dummy-4_h4_3_18"  />
</g>
<g id="a4_0019"  >
<polygon points="400,90 431,90 436,85 431,80 400,80 400,90 " style="fill:#b115d8; stroke-width:1; stroke:black; " description="&lt;b&gt;FKZ69_RS17200&lt;/b&gt;&lt;br&gt;pyridoxal-phosphate dependent enzyme&lt;br&gt;Location: 3703027 - 3704403&lt;br&gt;&lt;br&gt;&lt;b&gt;BlastP hit with MFKKBJ_12155&lt;/b&gt;&lt;br&gt;Percentage identity: 96&lt;br&gt;Percentage coverage: 100&lt;br&gt;BLAST bit score: 501&lt;br&gt;E-value: 3.39e-177&lt;br&gt;&lt;br&gt;&lt;b&gt;BlastP hit with MFKKBJ_12160&lt;/b&gt;&lt;br&gt;Percentage identity: 91&lt;br&gt;Percentage coverage: 100&lt;br&gt;BLAST bit score: 349&lt;br&gt;E-value: 1.34e-118" locus_tag="FKZ69_RS17200" class="clusterblast-orf" id="dummy-4_h4_3_19"  />
</g>
<g id="a4_0020"  >
<polygon points="436,90 462,90 467,85 462,80 436,80 436,90 " style="fill:#d88a15; stroke-width:1; stroke:black; " description="&lt;b&gt;FKZ69_RS17205&lt;/b&gt;&lt;br&gt;cystathionine gamma-synthase&lt;br&gt;Location: 3704400 - 3705566&lt;br&gt;&lt;br&gt;&lt;b&gt;BlastP hit with MFKKBJ_12165&lt;/b&gt;&lt;br&gt;Percentage identity: 94&lt;br&gt;Percentage coverage: 100&lt;br&gt;BLAST bit score: 730&lt;br&gt;E-value: 7.32e-267" locus_tag="FKZ69_RS17205" class="clusterblast-orf" id="dummy-4_h4_3_20"  />
</g>
<g id="a4_0021"  >
<polygon points="468,85 473,80 526,80 526,90 473,90 468,85 " style="fill:#15d863; stroke-width:1; stroke:black; " description="&lt;b&gt;FKZ69_RS17210&lt;/b&gt;&lt;br&gt;OsmC domain/YcaO domain-containing protein&lt;br&gt;Location: 3705630 - 3707828&lt;br&gt;&lt;br&gt;&lt;b&gt;BlastP hit with MFKKBJ_12170&lt;/b&gt;&lt;br&gt;Percentage identity: 96&lt;br&gt;Percentage coverage: 99&lt;br&gt;BLAST bit score: 1404&lt;br&gt;E-value: 0.0&lt;br&gt;&lt;br&gt;&lt;b&gt;BlastP hit with MFKKBJ_12180&lt;/b&gt;&lt;br&gt;Percentage identity: 98&lt;br&gt;Percentage coverage: 99&lt;br&gt;BLAST bit score: 230&lt;br&gt;E-value: 6.48e-71" locus_tag="FKZ69_RS17210" class="clusterblast-orf" id="dummy-4_h4_3_21"  />
</g>
<g id="a4_0022"  >
<polygon points="531,90 567,90 572,85 567,80 531,80 531,90 " style="fill:#3c15d8; stroke-width:1; stroke:black; " description="&lt;b&gt;FKZ69_RS17215&lt;/b&gt;&lt;br&gt;methyl-accepting chemotaxis protein&lt;br&gt;Location: 3707992 - 3709557&lt;br&gt;&lt;br&gt;&lt;b&gt;BlastP hit with MFKKBJ_12175&lt;/b&gt;&lt;br&gt;Percentage identity: 92&lt;br&gt;Percentage coverage: 100&lt;br&gt;BLAST bit score: 171&lt;br&gt;E-value: 2.13e-50&lt;br&gt;&lt;br&gt;&lt;b&gt;BlastP hit with MFKKBJ_12185&lt;/b&gt;&lt;br&gt;Percentage identity: 89&lt;br&gt;Percentage coverage: 100&lt;br&gt;BLAST bit score: 825&lt;br&gt;E-value: 1.01e-299" locus_tag="FKZ69_RS17215" class="clusterblast-orf" id="dummy-4_h4_3_22"  />
</g>
<g id="a4_0023"  >
<polygon points="579,90 591,90 596,85 591,80 579,80 579,90 " style="fill:white; stroke-width:1; stroke:black; " description="&lt;b&gt;FKZ69_RS17220&lt;/b&gt;&lt;br&gt;LysE family translocator&lt;br&gt;Location: 3709839 - 3710459" locus_tag="FKZ69_RS17220" class="clusterblast-orf" id="dummy-4_h4_3_23"  />
</g>
<g id="a4_0024"  >
<polygon points="601,90 619,90 624,85 619,80 601,80 601,90 " style="fill:white; stroke-width:1; stroke:black; " description="&lt;b&gt;FKZ69_RS17225&lt;/b&gt;&lt;br&gt;EamA family transporter&lt;br&gt;Location: 3710667 - 3711527" locus_tag="FKZ69_RS17225" class="clusterblast-orf" id="dummy-4_h4_3_24"  />
</g>
<g id="a4_0025"  >
<polygon points="628,90 658,90 663,85 658,80 628,80 628,90 " style="fill:white; stroke-width:1; stroke:black; " description="&lt;b&gt;FKZ69_RS17230&lt;/b&gt;&lt;br&gt;MFS transporter&lt;br&gt;Location: 3711678 - 3713015" locus_tag="FKZ69_RS17230" class="clusterblast-orf" id="dummy-4_h4_3_25"  />
</g>
<g id="a4_0026"  >
<polygon points="666,85 671,80 679,80 679,90 671,90 666,85 " style="fill:white; stroke-width:1; stroke:black; " description="&lt;b&gt;FKZ69_RS17235&lt;/b&gt;&lt;br&gt;DUF2269 domain-containing protein&lt;br&gt;Location: 3713140 - 3713637" locus_tag="FKZ69_RS17235" class="clusterblast-orf" id="dummy-4_h4_3_26"  />
</g>
<g id="a4_0027"  >
<polygon points="680,85 685,80 709,80 709,90 685,90 680,85 " style="fill:white; stroke-width:1; stroke:black; " description="&lt;b&gt;FKZ69_RS17240&lt;/b&gt;&lt;br&gt;saccharopine dehydrogenase NADP-binding domain-containing protein&lt;br&gt;Location: 3713641 - 3714768" locus_tag="FKZ69_RS17240" class="clusterblast-orf" id="dummy-4_h4_3_27"  />
</g>
<g id="a4_0028"  >
<polygon points="712,85 717,80 750,80 750,90 717,90 712,85 " style="fill:white; stroke-width:1; stroke:black; " description="&lt;b&gt;FKZ69_RS17245&lt;/b&gt;&lt;br&gt;hypothetical protein&lt;br&gt;Location: 3714888 - 3716294" locus_tag="FKZ69_RS17245" class="clusterblast-orf" id="dummy-4_h4_3_28"  />
</g>
<g id="a4_0029"  >
<polygon points="753,90 763,90 768,85 763,80 753,80 753,90 " style="fill:#15d8d8; stroke-width:1; stroke:black; " description="&lt;b&gt;FKZ69_RS17250&lt;/b&gt;&lt;br&gt;cysteine hydrolase&lt;br&gt;Location: 3716423 - 3716986&lt;br&gt;&lt;br&gt;&lt;b&gt;BlastP hit with MFKKBJ_12200&lt;/b&gt;&lt;br&gt;Percentage identity: 86&lt;br&gt;Percentage coverage: 96&lt;br&gt;BLAST bit score: 318&lt;br&gt;E-value: 1.15e-110" locus_tag="FKZ69_RS17250" class="clusterblast-orf" id="dummy-4_h4_3_29"  />
</g>
<g id="a4_0030"  >
<polygon points="767,85 772,80 780,80 780,90 772,90 767,85 " style="fill:white; stroke-width:1; stroke:black; " description="&lt;b&gt;FKZ69_RS17255&lt;/b&gt;&lt;br&gt;NUDIX domain-containing protein&lt;br&gt;Location: 3716976 - 3717431" locus_tag="FKZ69_RS17255" class="clusterblast-orf" id="dummy-4_h4_3_30"  />
</g>
</svg>
