<svg xmlns="http://www.w3.org/2000/svg" xmlns:xlink="http://www.w3.org/1999/xlink" version="1.1" x="0" y="0" height="230" width="800" viewBox="0 0 800 230" preserveAspectRatio="none"  >
<g label="Query sequence" class="clusterblast-cluster"  >
<text x="5" y="20" class="clusterblast-acc"  >
Query sequence</text>
<line x1="10" y1="35" x2="778.0" y2="35" style="stroke-width:1; stroke:grey; "  />
<polygon points="0,40 79,40 84,35 79,30 0,30 0,40 " style="fill:#d81515; stroke-width:1; stroke:black; " description="&lt;b&gt;MFKKBJ_19475&lt;/b&gt;&lt;br&gt;high-affinity branched-chain amino acid ABC transporter permease LivH&lt;br&gt;Location: 4198802 - 4199726" locus_tag="MFKKBJ_19475" class="clusterblast-orf" id="dummy-7_q0_0_all"  />
<polygon points="83,40 191,40 196,35 191,30 83,30 83,40 " style="fill:#3cd815; stroke-width:1; stroke:black; " description="&lt;b&gt;MFKKBJ_19480&lt;/b&gt;&lt;br&gt;High-affinity branched-chain amino acid transport system permease LivHM N-terminal domain-containing protein&lt;br&gt;Location: 4199722 - 4200976" locus_tag="MFKKBJ_19480" class="clusterblast-orf" id="dummy-7_q1_0_all"  />
<polygon points="196,40 260,40 265,35 260,30 196,30 196,40 " style="fill:#1563d8; stroke-width:1; stroke:black; " description="&lt;b&gt;MFKKBJ_19485&lt;/b&gt;&lt;br&gt;high-affinity branched-chain amino acid ABC transporter ATP-binding protein LivG&lt;br&gt;Location: 4200972 - 4201740" locus_tag="MFKKBJ_19485" class="clusterblast-orf" id="dummy-7_q2_0_all"  />
<polygon points="265,40 324,40 329,35 324,30 265,30 265,40 " style="fill:#1563d8; stroke-width:1; stroke:black; " description="&lt;b&gt;MFKKBJ_19490&lt;/b&gt;&lt;br&gt;ABC-type branched-chain amino acid transport system, ATPase component LivF&lt;br&gt;Location: 4201741 - 4202443" locus_tag="MFKKBJ_19490" class="clusterblast-orf" id="dummy-7_q3_0_all"  />
<polygon points="346,40 368,40 373,35 368,30 346,30 346,40 " style="fill:#b115d8; stroke-width:1; stroke:black; " description="&lt;b&gt;MFKKBJ_19495&lt;/b&gt;&lt;br&gt;DUF2282 domain-containing protein&lt;br&gt;Location: 4202639 - 4202936" locus_tag="MFKKBJ_19495" class="clusterblast-orf" id="dummy-7_q4_0_all"  />
<polygon points="376,40 448,40 453,35 448,30 376,30 376,40 " style="fill:#d88a15; stroke-width:1; stroke:black; " description="&lt;b&gt;MFKKBJ_19500&lt;/b&gt;&lt;br&gt;UPF0276 protein PFWH6 1361&lt;br&gt;Location: 4202962 - 4203817" locus_tag="MFKKBJ_19500" class="clusterblast-orf" id="dummy-7_q5_0_all"  />
<polygon points="452,40 517,40 522,35 517,30 452,30 452,40 " style="fill:#15d863; stroke-width:1; stroke:black; " description="&lt;b&gt;MFKKBJ_19505&lt;/b&gt;&lt;br&gt;Putative DNA-binding domain-containing protein&lt;br&gt;Location: 4203813 - 4204590" locus_tag="MFKKBJ_19505" class="clusterblast-orf" id="dummy-7_q6_0_all"  />
<polygon points="522,40 561,40 566,35 561,30 522,30 522,40 " style="fill:#3c15d8; stroke-width:1; stroke:black; " description="&lt;b&gt;MFKKBJ_19510&lt;/b&gt;&lt;br&gt;DoxX family protein&lt;br&gt;Location: 4204586 - 4205072" locus_tag="MFKKBJ_19510" class="clusterblast-orf" id="dummy-7_q7_0_all"  />
<polygon points="566,35 571,30 648,30 648,40 571,40 566,35 " style="fill:#d8158a; stroke-width:1; stroke:black; " description="&lt;b&gt;MFKKBJ_19515&lt;/b&gt;&lt;br&gt;HTH lysR-type domain-containing protein&lt;br&gt;Location: 4205068 - 4205977" locus_tag="MFKKBJ_19515" class="clusterblast-orf" id="dummy-7_q8_0_all"  />
<polygon points="657,40 706,40 711,35 706,30 657,30 657,40 " style="fill:#b1d815; stroke-width:1; stroke:black; " description="&lt;b&gt;MFKKBJ_19520&lt;/b&gt;&lt;br&gt;short chain dehydrogenase&lt;br&gt;Location: 4206081 - 4206681" locus_tag="MFKKBJ_19520" class="clusterblast-orf" id="dummy-7_q9_0_all"  />
<polygon points="720,40 775,40 780,35 775,30 720,30 720,40 " style="fill:#15d8d8; stroke-width:1; stroke:black; " description="&lt;b&gt;MFKKBJ_19525&lt;/b&gt;&lt;br&gt;Lipoprotein&lt;br&gt;Location: 4206778 - 4207450" locus_tag="MFKKBJ_19525" class="clusterblast-orf" id="dummy-7_q10_0_all"  />
</g>
<g label="NZ_FYEE01000003" description="NZ_FYEE01000003 (400635-411532): Pseudomonas sp. Irchel 3E20 isolate Pseudomo... (100% of genes show similarity), RiPP-like" class="clusterblast-cluster"  >
<text x="5" y="70" class="clusterblast-acc"  >
<a xlink:href="https://antismash-db.secondarymetabolites.org/area?record=NZ_FYEE01000003&amp;start=400635&amp;end=411532" target="_blank">NZ_FYEE01000003 (400635-411532)</a>: Pseudomonas sp. Irchel 3E20 isolate Pseudomo... (100% of genes show similarity), RiPP-like</text>
<line x1="10" y1="85" x2="778.0" y2="85" style="stroke-width:1; stroke:grey; "  />
</g>
<g id="a7_000"  >
<polygon points="15,90 93,90 98,85 93,80 15,80 15,90 " style="fill:#d81515; stroke-width:1; stroke:black; " description="&lt;b&gt;CKW13_RS08235&lt;/b&gt;&lt;br&gt;high-affinity branched-chain amino acid ABC transporter permease LivH&lt;br&gt;Location: 410609 - 409686&lt;br&gt;&lt;br&gt;&lt;b&gt;BlastP hit with MFKKBJ_19475&lt;/b&gt;&lt;br&gt;Percentage identity: 95&lt;br&gt;Percentage coverage: 100&lt;br&gt;BLAST bit score: 546&lt;br&gt;E-value: 9.65e-197" locus_tag="CKW13_RS08235" class="clusterblast-orf" id="dummy-7_h7_6_0"  />
</g>
<g id="a7_001"  >
<polygon points="98,90 206,90 211,85 206,80 98,80 98,90 " style="fill:#3cd815; stroke-width:1; stroke:black; " description="&lt;b&gt;CKW13_RS08230&lt;/b&gt;&lt;br&gt;high-affinity branched-chain amino acid ABC transporter permease LivM&lt;br&gt;Location: 409689 - 408433&lt;br&gt;&lt;br&gt;&lt;b&gt;BlastP hit with MFKKBJ_19480&lt;/b&gt;&lt;br&gt;Percentage identity: 86&lt;br&gt;Percentage coverage: 100&lt;br&gt;BLAST bit score: 673&lt;br&gt;E-value: 3.55e-243" locus_tag="CKW13_RS08230" class="clusterblast-orf" id="dummy-7_h7_6_1"  />
</g>
<g id="a7_002"  >
<polygon points="211,90 275,90 280,85 275,80 211,80 211,90 " style="fill:#1563d8; stroke-width:1; stroke:black; " description="&lt;b&gt;CKW13_RS08225&lt;/b&gt;&lt;br&gt;high-affinity branched-chain amino acid ABC transporter ATP-binding protein LivG&lt;br&gt;Location: 408436 - 407669&lt;br&gt;&lt;br&gt;&lt;b&gt;BlastP hit with MFKKBJ_19485&lt;/b&gt;&lt;br&gt;Percentage identity: 95&lt;br&gt;Percentage coverage: 100&lt;br&gt;BLAST bit score: 479&lt;br&gt;E-value: 5.84e-172" locus_tag="CKW13_RS08225" class="clusterblast-orf" id="dummy-7_h7_6_2"  />
</g>
<g id="a7_003"  >
<polygon points="280,90 338,90 343,85 338,80 280,80 280,90 " style="fill:#1563d8; stroke-width:1; stroke:black; " description="&lt;b&gt;CKW13_RS08220&lt;/b&gt;&lt;br&gt;ABC transporter ATP-binding protein&lt;br&gt;Location: 407668 - 406967&lt;br&gt;&lt;br&gt;&lt;b&gt;BlastP hit with MFKKBJ_19485&lt;/b&gt;&lt;br&gt;Percentage identity: 31&lt;br&gt;Percentage coverage: 100&lt;br&gt;BLAST bit score: 114&lt;br&gt;E-value: 1.44e-28&lt;br&gt;&lt;br&gt;&lt;b&gt;BlastP hit with MFKKBJ_19490&lt;/b&gt;&lt;br&gt;Percentage identity: 97&lt;br&gt;Percentage coverage: 100&lt;br&gt;BLAST bit score: 437&lt;br&gt;E-value: 3.13e-156" locus_tag="CKW13_RS08220" class="clusterblast-orf" id="dummy-7_h7_6_3"  />
</g>
<g id="a7_004"  >
<polygon points="354,90 376,90 381,85 376,80 354,80 354,90 " style="fill:#b115d8; stroke-width:1; stroke:black; " description="&lt;b&gt;CKW13_RS08215&lt;/b&gt;&lt;br&gt;DUF2282 domain-containing protein&lt;br&gt;Location: 406845 - 406549&lt;br&gt;&lt;br&gt;&lt;b&gt;BlastP hit with MFKKBJ_19495&lt;/b&gt;&lt;br&gt;Percentage identity: 76&lt;br&gt;Percentage coverage: 100&lt;br&gt;BLAST bit score: 129&lt;br&gt;E-value: 2.41e-38" locus_tag="CKW13_RS08215" class="clusterblast-orf" id="dummy-7_h7_6_4"  />
</g>
<g id="a7_005"  >
<polygon points="382,90 458,90 463,85 458,80 382,80 382,90 " style="fill:#d88a15; stroke-width:1; stroke:black; " description="&lt;b&gt;CKW13_RS08210&lt;/b&gt;&lt;br&gt;DUF692 domain-containing protein&lt;br&gt;Location: 406532 - 405636&lt;br&gt;&lt;br&gt;&lt;b&gt;BlastP hit with MFKKBJ_19500&lt;/b&gt;&lt;br&gt;Percentage identity: 76&lt;br&gt;Percentage coverage: 97&lt;br&gt;BLAST bit score: 434&lt;br&gt;E-value: 8.29e-153" locus_tag="CKW13_RS08210" class="clusterblast-orf" id="dummy-7_h7_6_5"  />
</g>
<g id="a7_006"  >
<polygon points="463,90 528,90 533,85 528,80 463,80 463,90 " style="fill:#15d863; stroke-width:1; stroke:black; " description="&lt;b&gt;CKW13_RS08205&lt;/b&gt;&lt;br&gt;DNA-binding domain-containing protein&lt;br&gt;Location: 405639 - 404860&lt;br&gt;&lt;br&gt;&lt;b&gt;BlastP hit with MFKKBJ_19505&lt;/b&gt;&lt;br&gt;Percentage identity: 52&lt;br&gt;Percentage coverage: 100&lt;br&gt;BLAST bit score: 236&lt;br&gt;E-value: 6.84e-76" locus_tag="CKW13_RS08205" class="clusterblast-orf" id="dummy-7_h7_6_6"  />
</g>
<g id="a7_007"  >
<polygon points="533,90 577,90 582,85 577,80 533,80 533,90 " style="fill:#3c15d8; stroke-width:1; stroke:black; " description="&lt;b&gt;CKW13_RS08200&lt;/b&gt;&lt;br&gt;DoxX family protein&lt;br&gt;Location: 404863 - 404318&lt;br&gt;&lt;br&gt;&lt;b&gt;BlastP hit with MFKKBJ_19510&lt;/b&gt;&lt;br&gt;Percentage identity: 70&lt;br&gt;Percentage coverage: 96&lt;br&gt;BLAST bit score: 216&lt;br&gt;E-value: 7.88e-71" locus_tag="CKW13_RS08200" class="clusterblast-orf" id="dummy-7_h7_6_7"  />
</g>
<g id="a7_008"  >
<polygon points="577,85 582,80 659,80 659,90 582,90 577,85 " style="fill:#d8158a; stroke-width:1; stroke:black; " description="&lt;b&gt;CKW13_RS08195&lt;/b&gt;&lt;br&gt;LysR family transcriptional regulator&lt;br&gt;Location: 404369 - 403461&lt;br&gt;&lt;br&gt;&lt;b&gt;BlastP hit with MFKKBJ_19515&lt;/b&gt;&lt;br&gt;Percentage identity: 85&lt;br&gt;Percentage coverage: 100&lt;br&gt;BLAST bit score: 511&lt;br&gt;E-value: 4.81e-183" locus_tag="CKW13_RS08195" class="clusterblast-orf" id="dummy-7_h7_6_8"  />
</g>
<g id="a7_009"  >
<polygon points="669,90 718,90 723,85 718,80 669,80 669,90 " style="fill:#b1d815; stroke-width:1; stroke:black; " description="&lt;b&gt;CKW13_RS08190&lt;/b&gt;&lt;br&gt;short chain dehydrogenase&lt;br&gt;Location: 403355 - 402753&lt;br&gt;&lt;br&gt;&lt;b&gt;BlastP hit with MFKKBJ_19520&lt;/b&gt;&lt;br&gt;Percentage identity: 85&lt;br&gt;Percentage coverage: 100&lt;br&gt;BLAST bit score: 325&lt;br&gt;E-value: 7.83e-113" locus_tag="CKW13_RS08190" class="clusterblast-orf" id="dummy-7_h7_6_9"  />
</g>
<g id="a7_0010"  >
<polygon points="728,90 759,90 764,85 759,80 728,80 728,90 " style="fill:#15d8d8; stroke-width:1; stroke:black; " description="&lt;b&gt;CKW13_RS08185&lt;/b&gt;&lt;br&gt;hypothetical protein&lt;br&gt;Location: 402694 - 402296&lt;br&gt;&lt;br&gt;&lt;b&gt;BlastP hit with MFKKBJ_19525&lt;/b&gt;&lt;br&gt;Percentage identity: 62&lt;br&gt;Percentage coverage: 43&lt;br&gt;BLAST bit score: 134&lt;br&gt;E-value: 4.34e-38" locus_tag="CKW13_RS08185" class="clusterblast-orf" id="dummy-7_h7_6_10"  />
</g>
</svg>
