<svg xmlns="http://www.w3.org/2000/svg" xmlns:xlink="http://www.w3.org/1999/xlink" version="1.1" x="0" y="0" height="230" width="800" viewBox="0 0 800 230" preserveAspectRatio="none"  >
<g label="Query sequence" class="clusterblast-cluster"  >
<text x="5" y="20" class="clusterblast-acc"  >
Query sequence</text>
<line x1="10" y1="35" x2="778.0" y2="35" style="stroke-width:1; stroke:grey; "  />
<polygon points="5,35 10,30 93,30 93,40 10,40 5,35 " style="fill:#d81515; stroke-width:1; stroke:black; " description="&lt;b&gt;MFKKBJ_15470&lt;/b&gt;&lt;br&gt;polyphosphate:AMP phosphotransferase&lt;br&gt;Location: 3375153 - 3376668" locus_tag="MFKKBJ_15470" class="clusterblast-orf" id="dummy-6_q0_0_all"  />
<polygon points="102,40 212,40 217,35 212,30 102,30 102,40 " style="fill:#5cd815; stroke-width:1; stroke:black; " description="&lt;b&gt;MFKKBJ_15475&lt;/b&gt;&lt;br&gt;bifunctional tRNA (5-methylaminomethyl-2-thiouridine)(34)-methyltransferase MnmD/FAD-dependent 5-carboxymethylaminomethyl-2-thiouridine(34) oxidoreductase MnmC&lt;br&gt;Location: 3376822 - 3378808" locus_tag="MFKKBJ_15475" class="clusterblast-orf" id="dummy-6_q1_0_all"  />
<polygon points="230,40 328,40 333,35 328,30 230,30 230,40 " style="fill:#15a3d8; stroke-width:1; stroke:black; " description="&lt;b&gt;MFKKBJ_15480&lt;/b&gt;&lt;br&gt;N-acetylglutaminylglutamine amidotransferase&lt;br&gt;Location: 3379033 - 3380806" locus_tag="MFKKBJ_15480" class="clusterblast-orf" id="dummy-6_q2_0_all"  />
<polygon points="333,40 429,40 434,35 429,30 333,30 333,40 " style="fill:#c715d8; stroke-width:1; stroke:black; " description="&lt;b&gt;MFKKBJ_15485&lt;/b&gt;&lt;br&gt;N-acetylglutaminylglutamine synthetase&lt;br&gt;Location: 3380809 - 3382558" locus_tag="MFKKBJ_15485" class="clusterblast-orf" id="dummy-6_q3_0_all"  />
<polygon points="443,40 507,40 512,35 507,30 443,30 443,40 " style="fill:#d88015; stroke-width:1; stroke:black; " description="&lt;b&gt;MFKKBJ_15490&lt;/b&gt;&lt;br&gt;osmoprotectant NAGGN system M42 family peptidase&lt;br&gt;Location: 3382721 - 3383906" locus_tag="MFKKBJ_15490" class="clusterblast-orf" id="dummy-6_q4_0_all"  />
<polygon points="515,40 524,40 529,35 524,30 515,30 515,40 " style="fill:#15d839; stroke-width:1; stroke:black; " description="&lt;b&gt;MFKKBJ_15495&lt;/b&gt;&lt;br&gt;UPF0270 protein Pfl01 4103&lt;br&gt;Location: 3383965 - 3384193" locus_tag="MFKKBJ_15495" class="clusterblast-orf" id="dummy-6_q5_0_all"  />
<polygon points="529,35 534,30 541,30 541,40 534,40 529,35 " style="fill:#1539d8; stroke-width:1; stroke:black; " description="&lt;b&gt;MFKKBJ_15500&lt;/b&gt;&lt;br&gt;carbon storage regulator CsrA&lt;br&gt;Location: 3384201 - 3384399" locus_tag="MFKKBJ_15500" class="clusterblast-orf" id="dummy-6_q6_0_all"  />
<polygon points="548,35 553,30 595,30 595,40 553,40 548,35 " style="fill:#d81580; stroke-width:1; stroke:black; " description="&lt;b&gt;MFKKBJ_15505&lt;/b&gt;&lt;br&gt;SDR family oxidoreductase&lt;br&gt;Location: 3384526 - 3385342" locus_tag="MFKKBJ_15505" class="clusterblast-orf" id="dummy-6_q7_0_all"  />
<polygon points="614,40 618,40 623,35 618,30 614,30 614,40 " style="fill:#c7d815; stroke-width:1; stroke:black; " description="&lt;b&gt;MFKKBJ_15510&lt;/b&gt;&lt;br&gt;DUF3309 domain-containing protein&lt;br&gt;Location: 3385670 - 3385823" locus_tag="MFKKBJ_15510" class="clusterblast-orf" id="dummy-6_q8_0_all"  />
<polygon points="626,35 631,30 747,30 747,40 631,40 626,35 " style="fill:#15d8a3; stroke-width:1; stroke:black; " description="&lt;b&gt;MFKKBJ_15515&lt;/b&gt;&lt;br&gt;Phosphoglycerol transferase I&lt;br&gt;Location: 3385874 - 3387962" locus_tag="MFKKBJ_15515" class="clusterblast-orf" id="dummy-6_q9_0_all"  />
<polygon points="764,35 769,30 775,30 775,40 769,40 764,35 " style="fill:#5c15d8; stroke-width:1; stroke:black; " description="&lt;b&gt;MFKKBJ_15520&lt;/b&gt;&lt;br&gt;Cardiolipin synthase N-terminal domain-containing protein&lt;br&gt;Location: 3388254 - 3388446" locus_tag="MFKKBJ_15520" class="clusterblast-orf" id="dummy-6_q10_0_all"  />
</g>
<g label="NZ_CP019428" description="NZ_CP019428 (4715586-4730429): Pseudomonas sp. R76 chromosome, complete genome (100% of genes show similarity), NAGGN" class="clusterblast-cluster"  >
<text x="5" y="70" class="clusterblast-acc"  >
<a xlink:href="https://antismash-db.secondarymetabolites.org/area?record=NZ_CP019428&amp;start=4715586&amp;end=4730429" target="_blank">NZ_CP019428 (4715586-4730429)</a>: Pseudomonas sp. R76 chromosome, complete genome (100% of genes show similarity), NAGGN</text>
<line x1="10" y1="85" x2="778.0" y2="85" style="stroke-width:1; stroke:grey; "  />
</g>
<g id="a6_000"  >
<polygon points="0,85 5,80 87,80 87,90 5,90 0,85 " style="fill:#d81515; stroke-width:1; stroke:black; " description="&lt;b&gt;PspR76_RS21190&lt;/b&gt;&lt;br&gt;polyphosphate:AMP phosphotransferase&lt;br&gt;Location: 4716783 - 4718297&lt;br&gt;&lt;br&gt;&lt;b&gt;BlastP hit with MFKKBJ_15470&lt;/b&gt;&lt;br&gt;Percentage identity: 96&lt;br&gt;Percentage coverage: 100&lt;br&gt;BLAST bit score: 993&lt;br&gt;E-value: 0.0" locus_tag="PspR76_RS21190" class="clusterblast-orf" id="dummy-6_h6_4_0"  />
</g>
<g id="a6_001"  >
<polygon points="96,90 206,90 211,85 206,80 96,80 96,90 " style="fill:#5cd815; stroke-width:1; stroke:black; " description="&lt;b&gt;PspR76_RS21195&lt;/b&gt;&lt;br&gt;bifunctional tRNA (5-methylaminomethyl-2-thiouridine)(34)-methyltransferase MnmD/FAD-dependent 5-carboxymethylaminomethyl-2-thiouridine(34) oxidoreductase MnmC&lt;br&gt;Location: 4718452 - 4720443&lt;br&gt;&lt;br&gt;&lt;b&gt;BlastP hit with MFKKBJ_15475&lt;/b&gt;&lt;br&gt;Percentage identity: 85&lt;br&gt;Percentage coverage: 100&lt;br&gt;BLAST bit score: 1142&lt;br&gt;E-value: 0.0" locus_tag="PspR76_RS21195" class="clusterblast-orf" id="dummy-6_h6_4_1"  />
</g>
<g id="a6_002"  >
<polygon points="220,90 317,90 322,85 317,80 220,80 220,90 " style="fill:#15a3d8; stroke-width:1; stroke:black; " description="&lt;b&gt;PspR76_RS21200&lt;/b&gt;&lt;br&gt;N-acetylglutaminylglutamine amidotransferase&lt;br&gt;Location: 4720587 - 4722359&lt;br&gt;&lt;br&gt;&lt;b&gt;BlastP hit with MFKKBJ_15480&lt;/b&gt;&lt;br&gt;Percentage identity: 98&lt;br&gt;Percentage coverage: 100&lt;br&gt;BLAST bit score: 1178&lt;br&gt;E-value: 0.0" locus_tag="PspR76_RS21200" class="clusterblast-orf" id="dummy-6_h6_4_2"  />
</g>
<g id="a6_003"  >
<polygon points="323,90 419,90 424,85 419,80 323,80 323,90 " style="fill:#c715d8; stroke-width:1; stroke:black; " description="&lt;b&gt;PspR76_RS21205&lt;/b&gt;&lt;br&gt;N-acetylglutaminylglutamine synthetase&lt;br&gt;Location: 4722363 - 4724108&lt;br&gt;&lt;br&gt;&lt;b&gt;BlastP hit with MFKKBJ_15485&lt;/b&gt;&lt;br&gt;Percentage identity: 94&lt;br&gt;Percentage coverage: 100&lt;br&gt;BLAST bit score: 1097&lt;br&gt;E-value: 0.0" locus_tag="PspR76_RS21205" class="clusterblast-orf" id="dummy-6_h6_4_3"  />
</g>
<g id="a6_004"  >
<polygon points="432,90 495,90 500,85 495,80 432,80 432,90 " style="fill:#d88015; stroke-width:1; stroke:black; " description="&lt;b&gt;PspR76_RS21210&lt;/b&gt;&lt;br&gt;osmoprotectant NAGGN system M42 family peptidase&lt;br&gt;Location: 4724245 - 4725429&lt;br&gt;&lt;br&gt;&lt;b&gt;BlastP hit with MFKKBJ_15490&lt;/b&gt;&lt;br&gt;Percentage identity: 99&lt;br&gt;Percentage coverage: 100&lt;br&gt;BLAST bit score: 776&lt;br&gt;E-value: 6e-285" locus_tag="PspR76_RS21210" class="clusterblast-orf" id="dummy-6_h6_4_4"  />
</g>
<g id="a6_005"  >
<polygon points="505,90 513,90 518,85 513,80 505,80 505,90 " style="fill:#15d839; stroke-width:1; stroke:black; " description="&lt;b&gt;PspR76_RS21215&lt;/b&gt;&lt;br&gt;YheU family protein&lt;br&gt;Location: 4725505 - 4725732&lt;br&gt;&lt;br&gt;&lt;b&gt;BlastP hit with MFKKBJ_15495&lt;/b&gt;&lt;br&gt;Percentage identity: 99&lt;br&gt;Percentage coverage: 100&lt;br&gt;BLAST bit score: 149&lt;br&gt;E-value: 2.77e-47" locus_tag="PspR76_RS21215" class="clusterblast-orf" id="dummy-6_h6_4_5"  />
</g>
<g id="a6_006"  >
<polygon points="518,85 523,80 529,80 529,90 523,90 518,85 " style="fill:#1539d8; stroke-width:1; stroke:black; " description="&lt;b&gt;PspR76_RS21220&lt;/b&gt;&lt;br&gt;carbon storage regulator CsrA&lt;br&gt;Location: 4725740 - 4725931&lt;br&gt;&lt;br&gt;&lt;b&gt;BlastP hit with MFKKBJ_15500&lt;/b&gt;&lt;br&gt;Percentage identity: 83&lt;br&gt;Percentage coverage: 92&lt;br&gt;BLAST bit score: 92&lt;br&gt;E-value: 1.02e-24" locus_tag="PspR76_RS21220" class="clusterblast-orf" id="dummy-6_h6_4_6"  />
</g>
<g id="a6_007"  >
<polygon points="543,85 548,80 590,80 590,90 548,90 543,85 " style="fill:#d81580; stroke-width:1; stroke:black; " description="&lt;b&gt;PspR76_RS21225&lt;/b&gt;&lt;br&gt;SDR family oxidoreductase&lt;br&gt;Location: 4726173 - 4726988&lt;br&gt;&lt;br&gt;&lt;b&gt;BlastP hit with MFKKBJ_15505&lt;/b&gt;&lt;br&gt;Percentage identity: 98&lt;br&gt;Percentage coverage: 100&lt;br&gt;BLAST bit score: 523&lt;br&gt;E-value: 5.91e-189" locus_tag="PspR76_RS21225" class="clusterblast-orf" id="dummy-6_h6_4_7"  />
</g>
<g id="a6_008"  >
<polygon points="610,90 613,90 618,85 613,80 610,80 610,90 " style="fill:#c7d815; stroke-width:1; stroke:black; " description="&lt;b&gt;PspR76_RS21230&lt;/b&gt;&lt;br&gt;DUF3309 family protein&lt;br&gt;Location: 4727317 - 4727469&lt;br&gt;&lt;br&gt;&lt;b&gt;BlastP hit with MFKKBJ_15510&lt;/b&gt;&lt;br&gt;Percentage identity: 98&lt;br&gt;Percentage coverage: 100&lt;br&gt;BLAST bit score: 81&lt;br&gt;E-value: 1.5e-20" locus_tag="PspR76_RS21230" class="clusterblast-orf" id="dummy-6_h6_4_8"  />
</g>
<g id="a6_009"  >
<polygon points="622,85 627,80 742,80 742,90 627,90 622,85 " style="fill:#15d8a3; stroke-width:1; stroke:black; " description="&lt;b&gt;PspR76_RS21235&lt;/b&gt;&lt;br&gt;LTA synthase family protein&lt;br&gt;Location: 4727526 - 4729613&lt;br&gt;&lt;br&gt;&lt;b&gt;BlastP hit with MFKKBJ_15515&lt;/b&gt;&lt;br&gt;Percentage identity: 97&lt;br&gt;Percentage coverage: 100&lt;br&gt;BLAST bit score: 1358&lt;br&gt;E-value: 0.0" locus_tag="PspR76_RS21235" class="clusterblast-orf" id="dummy-6_h6_4_9"  />
</g>
<g id="a6_0010"  >
<polygon points="768,85 773,80 780,80 780,90 773,90 768,85 " style="fill:#5c15d8; stroke-width:1; stroke:black; " description="&lt;b&gt;PspR76_RS21240&lt;/b&gt;&lt;br&gt;PLDc N-terminal domain-containing protein&lt;br&gt;Location: 4730061 - 4730252&lt;br&gt;&lt;br&gt;&lt;b&gt;BlastP hit with MFKKBJ_15520&lt;/b&gt;&lt;br&gt;Percentage identity: 94&lt;br&gt;Percentage coverage: 100&lt;br&gt;BLAST bit score: 115&lt;br&gt;E-value: 4.6e-34" locus_tag="PspR76_RS21240" class="clusterblast-orf" id="dummy-6_h6_4_10"  />
</g>
</svg>
