<svg xmlns="http://www.w3.org/2000/svg" xmlns:xlink="http://www.w3.org/1999/xlink" version="1.1" x="0" y="0" height="230" width="800" viewBox="0 0 800 230" preserveAspectRatio="none"  >
<g label="Query sequence" class="clusterblast-cluster"  >
<text x="5" y="20" class="clusterblast-acc"  >
Query sequence</text>
<line x1="10" y1="35" x2="778.0" y2="35" style="stroke-width:1; stroke:grey; "  />
<polygon points="0,40 79,40 84,35 79,30 0,30 0,40 " style="fill:#d81515; stroke-width:1; stroke:black; " description="&lt;b&gt;MFKKBJ_19475&lt;/b&gt;&lt;br&gt;high-affinity branched-chain amino acid ABC transporter permease LivH&lt;br&gt;Location: 4198802 - 4199726" locus_tag="MFKKBJ_19475" class="clusterblast-orf" id="dummy-7_q0_0_all"  />
<polygon points="83,40 191,40 196,35 191,30 83,30 83,40 " style="fill:#3cd815; stroke-width:1; stroke:black; " description="&lt;b&gt;MFKKBJ_19480&lt;/b&gt;&lt;br&gt;High-affinity branched-chain amino acid transport system permease LivHM N-terminal domain-containing protein&lt;br&gt;Location: 4199722 - 4200976" locus_tag="MFKKBJ_19480" class="clusterblast-orf" id="dummy-7_q1_0_all"  />
<polygon points="196,40 260,40 265,35 260,30 196,30 196,40 " style="fill:#1563d8; stroke-width:1; stroke:black; " description="&lt;b&gt;MFKKBJ_19485&lt;/b&gt;&lt;br&gt;high-affinity branched-chain amino acid ABC transporter ATP-binding protein LivG&lt;br&gt;Location: 4200972 - 4201740" locus_tag="MFKKBJ_19485" class="clusterblast-orf" id="dummy-7_q2_0_all"  />
<polygon points="265,40 324,40 329,35 324,30 265,30 265,40 " style="fill:#1563d8; stroke-width:1; stroke:black; " description="&lt;b&gt;MFKKBJ_19490&lt;/b&gt;&lt;br&gt;ABC-type branched-chain amino acid transport system, ATPase component LivF&lt;br&gt;Location: 4201741 - 4202443" locus_tag="MFKKBJ_19490" class="clusterblast-orf" id="dummy-7_q3_0_all"  />
<polygon points="346,40 368,40 373,35 368,30 346,30 346,40 " style="fill:#b115d8; stroke-width:1; stroke:black; " description="&lt;b&gt;MFKKBJ_19495&lt;/b&gt;&lt;br&gt;DUF2282 domain-containing protein&lt;br&gt;Location: 4202639 - 4202936" locus_tag="MFKKBJ_19495" class="clusterblast-orf" id="dummy-7_q4_0_all"  />
<polygon points="376,40 448,40 453,35 448,30 376,30 376,40 " style="fill:#d88a15; stroke-width:1; stroke:black; " description="&lt;b&gt;MFKKBJ_19500&lt;/b&gt;&lt;br&gt;UPF0276 protein PFWH6 1361&lt;br&gt;Location: 4202962 - 4203817" locus_tag="MFKKBJ_19500" class="clusterblast-orf" id="dummy-7_q5_0_all"  />
<polygon points="452,40 517,40 522,35 517,30 452,30 452,40 " style="fill:#15d863; stroke-width:1; stroke:black; " description="&lt;b&gt;MFKKBJ_19505&lt;/b&gt;&lt;br&gt;Putative DNA-binding domain-containing protein&lt;br&gt;Location: 4203813 - 4204590" locus_tag="MFKKBJ_19505" class="clusterblast-orf" id="dummy-7_q6_0_all"  />
<polygon points="522,40 561,40 566,35 561,30 522,30 522,40 " style="fill:#3c15d8; stroke-width:1; stroke:black; " description="&lt;b&gt;MFKKBJ_19510&lt;/b&gt;&lt;br&gt;DoxX family protein&lt;br&gt;Location: 4204586 - 4205072" locus_tag="MFKKBJ_19510" class="clusterblast-orf" id="dummy-7_q7_0_all"  />
<polygon points="566,35 571,30 648,30 648,40 571,40 566,35 " style="fill:#d8158a; stroke-width:1; stroke:black; " description="&lt;b&gt;MFKKBJ_19515&lt;/b&gt;&lt;br&gt;HTH lysR-type domain-containing protein&lt;br&gt;Location: 4205068 - 4205977" locus_tag="MFKKBJ_19515" class="clusterblast-orf" id="dummy-7_q8_0_all"  />
<polygon points="657,40 706,40 711,35 706,30 657,30 657,40 " style="fill:#b1d815; stroke-width:1; stroke:black; " description="&lt;b&gt;MFKKBJ_19520&lt;/b&gt;&lt;br&gt;short chain dehydrogenase&lt;br&gt;Location: 4206081 - 4206681" locus_tag="MFKKBJ_19520" class="clusterblast-orf" id="dummy-7_q9_0_all"  />
<polygon points="720,40 775,40 780,35 775,30 720,30 720,40 " style="fill:#15d8d8; stroke-width:1; stroke:black; " description="&lt;b&gt;MFKKBJ_19525&lt;/b&gt;&lt;br&gt;Lipoprotein&lt;br&gt;Location: 4206778 - 4207450" locus_tag="MFKKBJ_19525" class="clusterblast-orf" id="dummy-7_q10_0_all"  />
</g>
<g label="NZ_CP077079" description="NZ_CP077079 (1631990-1642869): Pseudomonas asgharzadehiana strain SWRI132 chr... (91% of genes show similarity), RiPP-like" class="clusterblast-cluster"  >
<text x="5" y="70" class="clusterblast-acc"  >
<a xlink:href="https://antismash-db.secondarymetabolites.org/area?record=NZ_CP077079&amp;start=1631990&amp;end=1642869" target="_blank">NZ_CP077079 (1631990-1642869)</a>: Pseudomonas asgharzadehiana strain SWRI132 chr... (91% of genes show similarity), RiPP-like</text>
<line x1="10" y1="85" x2="778.0" y2="85" style="stroke-width:1; stroke:grey; "  />
</g>
<g id="a7_000"  >
<polygon points="0,90 78,90 83,85 78,80 0,80 0,90 " style="fill:#d81515; stroke-width:1; stroke:black; " description="&lt;b&gt;KSS96_RS07535&lt;/b&gt;&lt;br&gt;high-affinity branched-chain amino acid ABC transporter permease LivH&lt;br&gt;Location: 1642009 - 1641086&lt;br&gt;&lt;br&gt;&lt;b&gt;BlastP hit with MFKKBJ_19475&lt;/b&gt;&lt;br&gt;Percentage identity: 100&lt;br&gt;Percentage coverage: 100&lt;br&gt;BLAST bit score: 566&lt;br&gt;E-value: 1.63e-204" locus_tag="KSS96_RS07535" class="clusterblast-orf" id="dummy-7_h7_8_0"  />
</g>
<g id="a7_001"  >
<polygon points="82,90 190,90 195,85 190,80 82,80 82,90 " style="fill:#3cd815; stroke-width:1; stroke:black; " description="&lt;b&gt;KSS96_RS07530&lt;/b&gt;&lt;br&gt;high-affinity branched-chain amino acid ABC transporter permease LivM&lt;br&gt;Location: 1641089 - 1639836&lt;br&gt;&lt;br&gt;&lt;b&gt;BlastP hit with MFKKBJ_19480&lt;/b&gt;&lt;br&gt;Percentage identity: 100&lt;br&gt;Percentage coverage: 100&lt;br&gt;BLAST bit score: 776&lt;br&gt;E-value: 7.29e-284" locus_tag="KSS96_RS07530" class="clusterblast-orf" id="dummy-7_h7_8_1"  />
</g>
<g id="a7_002"  >
<polygon points="195,90 259,90 264,85 259,80 195,80 195,90 " style="fill:#1563d8; stroke-width:1; stroke:black; " description="&lt;b&gt;KSS96_RS07525&lt;/b&gt;&lt;br&gt;high-affinity branched-chain amino acid ABC transporter ATP-binding protein LivG&lt;br&gt;Location: 1639839 - 1639072&lt;br&gt;&lt;br&gt;&lt;b&gt;BlastP hit with MFKKBJ_19485&lt;/b&gt;&lt;br&gt;Percentage identity: 100&lt;br&gt;Percentage coverage: 100&lt;br&gt;BLAST bit score: 499&lt;br&gt;E-value: 4.86e-180&lt;br&gt;&lt;br&gt;&lt;b&gt;BlastP hit with MFKKBJ_19490&lt;/b&gt;&lt;br&gt;Percentage identity: 31&lt;br&gt;Percentage coverage: 107&lt;br&gt;BLAST bit score: 117&lt;br&gt;E-value: 6.21e-30" locus_tag="KSS96_RS07525" class="clusterblast-orf" id="dummy-7_h7_8_2"  />
</g>
<g id="a7_003"  >
<polygon points="265,90 323,90 328,85 323,80 265,80 265,90 " style="fill:#1563d8; stroke-width:1; stroke:black; " description="&lt;b&gt;KSS96_RS07520&lt;/b&gt;&lt;br&gt;ABC transporter ATP-binding protein&lt;br&gt;Location: 1639070 - 1638369&lt;br&gt;&lt;br&gt;&lt;b&gt;BlastP hit with MFKKBJ_19485&lt;/b&gt;&lt;br&gt;Percentage identity: 32&lt;br&gt;Percentage coverage: 100&lt;br&gt;BLAST bit score: 120&lt;br&gt;E-value: 3.19e-31&lt;br&gt;&lt;br&gt;&lt;b&gt;BlastP hit with MFKKBJ_19490&lt;/b&gt;&lt;br&gt;Percentage identity: 99&lt;br&gt;Percentage coverage: 100&lt;br&gt;BLAST bit score: 445&lt;br&gt;E-value: 3.98e-159" locus_tag="KSS96_RS07520" class="clusterblast-orf" id="dummy-7_h7_8_3"  />
</g>
<g id="a7_004"  >
<polygon points="324,90 331,90 336,85 331,80 324,80 324,90 " style="fill:white; stroke-width:1; stroke:black; " description="&lt;b&gt;KSS96_RS28090&lt;/b&gt;&lt;br&gt;hypothetical protein&lt;br&gt;Location: 1638411 - 1638280" locus_tag="KSS96_RS28090" class="clusterblast-orf" id="dummy-7_h7_8_4"  />
</g>
<g id="a7_005"  >
<polygon points="344,90 366,90 371,85 366,80 344,80 344,90 " style="fill:#b115d8; stroke-width:1; stroke:black; " description="&lt;b&gt;KSS96_RS07515&lt;/b&gt;&lt;br&gt;DUF2282 domain-containing protein&lt;br&gt;Location: 1638190 - 1637894&lt;br&gt;&lt;br&gt;&lt;b&gt;BlastP hit with MFKKBJ_19495&lt;/b&gt;&lt;br&gt;Percentage identity: 97&lt;br&gt;Percentage coverage: 100&lt;br&gt;BLAST bit score: 171&lt;br&gt;E-value: 5.82e-55" locus_tag="KSS96_RS07515" class="clusterblast-orf" id="dummy-7_h7_8_5"  />
</g>
<g id="a7_006"  >
<polygon points="373,90 447,90 452,85 447,80 373,80 373,90 " style="fill:#d88a15; stroke-width:1; stroke:black; " description="&lt;b&gt;KSS96_RS07510&lt;/b&gt;&lt;br&gt;DUF692 domain-containing protein&lt;br&gt;Location: 1637869 - 1636991&lt;br&gt;&lt;br&gt;&lt;b&gt;BlastP hit with MFKKBJ_19500&lt;/b&gt;&lt;br&gt;Percentage identity: 86&lt;br&gt;Percentage coverage: 97&lt;br&gt;BLAST bit score: 487&lt;br&gt;E-value: 6.45e-174" locus_tag="KSS96_RS07510" class="clusterblast-orf" id="dummy-7_h7_8_6"  />
</g>
<g id="a7_007"  >
<polygon points="452,90 517,90 522,85 517,80 452,80 452,90 " style="fill:#15d863; stroke-width:1; stroke:black; " description="&lt;b&gt;KSS96_RS07505&lt;/b&gt;&lt;br&gt;putative DNA-binding domain-containing protein&lt;br&gt;Location: 1636994 - 1636218&lt;br&gt;&lt;br&gt;&lt;b&gt;BlastP hit with MFKKBJ_19505&lt;/b&gt;&lt;br&gt;Percentage identity: 79&lt;br&gt;Percentage coverage: 100&lt;br&gt;BLAST bit score: 395&lt;br&gt;E-value: 1.2e-138" locus_tag="KSS96_RS07505" class="clusterblast-orf" id="dummy-7_h7_8_7"  />
</g>
<g id="a7_008"  >
<polygon points="522,90 560,90 565,85 560,80 522,80 522,90 " style="fill:#3c15d8; stroke-width:1; stroke:black; " description="&lt;b&gt;KSS96_RS07500&lt;/b&gt;&lt;br&gt;DoxX family protein&lt;br&gt;Location: 1636221 - 1635736&lt;br&gt;&lt;br&gt;&lt;b&gt;BlastP hit with MFKKBJ_19510&lt;/b&gt;&lt;br&gt;Percentage identity: 88&lt;br&gt;Percentage coverage: 100&lt;br&gt;BLAST bit score: 285&lt;br&gt;E-value: 4.41e-98" locus_tag="KSS96_RS07500" class="clusterblast-orf" id="dummy-7_h7_8_8"  />
</g>
<g id="a7_009"  >
<polygon points="565,85 570,80 647,80 647,90 570,90 565,85 " style="fill:#d8158a; stroke-width:1; stroke:black; " description="&lt;b&gt;KSS96_RS07495&lt;/b&gt;&lt;br&gt;LysR family transcriptional regulator&lt;br&gt;Location: 1635739 - 1634831&lt;br&gt;&lt;br&gt;&lt;b&gt;BlastP hit with MFKKBJ_19515&lt;/b&gt;&lt;br&gt;Percentage identity: 94&lt;br&gt;Percentage coverage: 100&lt;br&gt;BLAST bit score: 560&lt;br&gt;E-value: 2.14e-202" locus_tag="KSS96_RS07495" class="clusterblast-orf" id="dummy-7_h7_8_9"  />
</g>
<g id="a7_0010"  >
<polygon points="656,90 705,90 710,85 705,80 656,80 656,90 " style="fill:#b1d815; stroke-width:1; stroke:black; " description="&lt;b&gt;KSS96_RS07490&lt;/b&gt;&lt;br&gt;short chain dehydrogenase&lt;br&gt;Location: 1634727 - 1634128&lt;br&gt;&lt;br&gt;&lt;b&gt;BlastP hit with MFKKBJ_19520&lt;/b&gt;&lt;br&gt;Percentage identity: 95&lt;br&gt;Percentage coverage: 100&lt;br&gt;BLAST bit score: 359&lt;br&gt;E-value: 2.06e-126" locus_tag="KSS96_RS07490" class="clusterblast-orf" id="dummy-7_h7_8_10"  />
</g>
<g id="a7_0011"  >
<polygon points="719,90 775,90 780,85 775,80 719,80 719,90 " style="fill:#15d8d8; stroke-width:1; stroke:black; " description="&lt;b&gt;KSS96_RS07485&lt;/b&gt;&lt;br&gt;hypothetical protein&lt;br&gt;Location: 1634032 - 1633361&lt;br&gt;&lt;br&gt;&lt;b&gt;BlastP hit with MFKKBJ_19525&lt;/b&gt;&lt;br&gt;Percentage identity: 88&lt;br&gt;Percentage coverage: 100&lt;br&gt;BLAST bit score: 405&lt;br&gt;E-value: 9.3e-144" locus_tag="KSS96_RS07485" class="clusterblast-orf" id="dummy-7_h7_8_11"  />
</g>
</svg>
