<svg xmlns="http://www.w3.org/2000/svg" xmlns:xlink="http://www.w3.org/1999/xlink" version="1.1" x="0" y="0" height="230" width="800" viewBox="0 0 800 230" preserveAspectRatio="none"  >
<g label="Query sequence" class="clusterblast-cluster"  >
<text x="5" y="20" class="clusterblast-acc"  >
Query sequence</text>
<line x1="10" y1="35" x2="778.0" y2="35" style="stroke-width:1; stroke:grey; "  />
<polygon points="0,40 24,40 29,35 24,30 0,30 0,40 " style="fill:#d81515; stroke-width:1; stroke:black; " description="&lt;b&gt;MFKKBJ_23855&lt;/b&gt;&lt;br&gt;YdiU family protein&lt;br&gt;Location: 5154908 - 5156372" locus_tag="MFKKBJ_23855" class="clusterblast-orf" id="dummy-8_q0_0_all"  />
<polygon points="29,35 34,30 37,30 37,40 34,40 29,35 " style="fill:#6fd815; stroke-width:1; stroke:black; " description="&lt;b&gt;MFKKBJ_23860&lt;/b&gt;&lt;br&gt;Antitoxin HigA&lt;br&gt;Location: 5156390 - 5156792" locus_tag="MFKKBJ_23860" class="clusterblast-orf" id="dummy-8_q1_0_all"  />
<polygon points="37,35 42,30 43,30 43,40 42,40 37,35 " style="fill:#15c9d8; stroke-width:1; stroke:black; " description="&lt;b&gt;MFKKBJ_23865&lt;/b&gt;&lt;br&gt;mRNA interferase toxin HigB&lt;br&gt;Location: 5156799 - 5157087" locus_tag="MFKKBJ_23865" class="clusterblast-orf" id="dummy-8_q2_0_all"  />
<polygon points="47,40 51,40 56,35 51,30 47,30 47,40 " style="fill:#8d15d8; stroke-width:1; stroke:black; " description="&lt;b&gt;MFKKBJ_23870&lt;/b&gt;&lt;br&gt;thioredoxin TrxC&lt;br&gt;Location: 5157321 - 5157756" locus_tag="MFKKBJ_23870" class="clusterblast-orf" id="dummy-8_q3_0_all"  />
<polygon points="58,35 63,30 63,30 63,40 63,40 58,35 " style="fill:#d83315; stroke-width:1; stroke:black; " description="&lt;b&gt;MFKKBJ_23875&lt;/b&gt;&lt;br&gt;DUF3077 domain-containing protein&lt;br&gt;Location: 5157884 - 5158118" locus_tag="MFKKBJ_23875" class="clusterblast-orf" id="dummy-8_q4_0_all"  />
<polygon points="70,35 75,30 86,30 86,40 75,40 70,35 " style="fill:#51d815; stroke-width:1; stroke:black; " description="&lt;b&gt;MFKKBJ_23885&lt;/b&gt;&lt;br&gt;ParA-like ATPase involved in chromosome/plasmid partitioning or cellulose biosynthesis protein BcsQ&lt;br&gt;Location: 5158495 - 5159266" locus_tag="MFKKBJ_23885" class="clusterblast-orf" id="dummy-8_q5_0_all"  />
<polygon points="92,40 101,40 106,35 101,30 92,30 92,40 " style="fill:#15abd8; stroke-width:1; stroke:black; " description="&lt;b&gt;MFKKBJ_23890&lt;/b&gt;&lt;br&gt;Beta-ketoacyl synthase N-terminal domain-containing protein&lt;br&gt;Location: 5159593 - 5160313" locus_tag="MFKKBJ_23890" class="clusterblast-orf" id="dummy-8_q6_0_all"  />
<polygon points="106,40 117,40 122,35 117,30 106,30 106,40 " style="fill:#ab15d8; stroke-width:1; stroke:black; " description="&lt;b&gt;MFKKBJ_23895&lt;/b&gt;&lt;br&gt;Phospholipid/glycerol acyltransferase domain-containing protein&lt;br&gt;Location: 5160288 - 5161101" locus_tag="MFKKBJ_23895" class="clusterblast-orf" id="dummy-8_q7_0_all"  />
<polygon points="121,40 122,40 127,35 122,30 121,30 121,40 " style="fill:#d85115; stroke-width:1; stroke:black; " description="&lt;b&gt;MFKKBJ_23900&lt;/b&gt;&lt;br&gt;Acyl carrier protein&lt;br&gt;Location: 5161078 - 5161348" locus_tag="MFKKBJ_23900" class="clusterblast-orf" id="dummy-8_q8_0_all"  />
<polygon points="127,40 127,40 132,35 127,30 127,30 127,40 " style="fill:#33d815; stroke-width:1; stroke:black; " description="&lt;b&gt;MFKKBJ_23905&lt;/b&gt;&lt;br&gt;acyl carrier protein&lt;br&gt;Location: 5161357 - 5161612" locus_tag="MFKKBJ_23905" class="clusterblast-orf" id="dummy-8_q9_0_all"  />
<polygon points="132,40 137,40 142,35 137,30 132,30 132,40 " style="fill:#158dd8; stroke-width:1; stroke:black; " description="&lt;b&gt;MFKKBJ_23910&lt;/b&gt;&lt;br&gt;Intracellular septation protein a&lt;br&gt;Location: 5161608 - 5162154" locus_tag="MFKKBJ_23910" class="clusterblast-orf" id="dummy-8_q10_0_all"  />
<polygon points="142,40 170,40 175,35 170,30 142,30 142,40 " style="fill:#c915d8; stroke-width:1; stroke:black; " description="&lt;b&gt;MFKKBJ_23915&lt;/b&gt;&lt;br&gt;Acetyl-coenzyme A synthetase&lt;br&gt;Location: 5162150 - 5163821" locus_tag="MFKKBJ_23915" class="clusterblast-orf" id="dummy-8_q11_0_all"  />
<polygon points="179,40 188,40 193,35 188,30 179,30 179,40 " style="fill:#d86f15; stroke-width:1; stroke:black; " description="&lt;b&gt;MFKKBJ_23920&lt;/b&gt;&lt;br&gt;Glycosyl transferase&lt;br&gt;Location: 5163988 - 5164723" locus_tag="MFKKBJ_23920" class="clusterblast-orf" id="dummy-8_q12_0_all"  />
<polygon points="193,40 206,40 211,35 206,30 193,30 193,40 " style="fill:#15d815; stroke-width:1; stroke:black; " description="&lt;b&gt;MFKKBJ_23925&lt;/b&gt;&lt;br&gt;Glycosyl transferase&lt;br&gt;Location: 5164719 - 5165655" locus_tag="MFKKBJ_23925" class="clusterblast-orf" id="dummy-8_q13_0_all"  />
<polygon points="211,40 236,40 241,35 236,30 211,30 211,40 " style="fill:#156fd8; stroke-width:1; stroke:black; " description="&lt;b&gt;MFKKBJ_23930&lt;/b&gt;&lt;br&gt;Histidine ammonia-lyase&lt;br&gt;Location: 5165638 - 5167180" locus_tag="MFKKBJ_23930" class="clusterblast-orf" id="dummy-8_q14_0_all"  />
<polygon points="241,40 245,40 250,35 245,30 241,30 241,40 " style="fill:#d815c9; stroke-width:1; stroke:black; " description="&lt;b&gt;MFKKBJ_23935&lt;/b&gt;&lt;br&gt;Thioesterase domain-containing protein&lt;br&gt;Location: 5167172 - 5167598" locus_tag="MFKKBJ_23935" class="clusterblast-orf" id="dummy-8_q15_0_all"  />
<polygon points="250,40 256,40 261,35 256,30 250,30 250,40 " style="fill:#d88d15; stroke-width:1; stroke:black; " description="&lt;b&gt;MFKKBJ_23940&lt;/b&gt;&lt;br&gt;Outer membrane lipoprotein carrier protein LolA&lt;br&gt;Location: 5167594 - 5168185" locus_tag="MFKKBJ_23940" class="clusterblast-orf" id="dummy-8_q16_0_all"  />
<polygon points="261,40 302,40 307,35 302,30 261,30 261,40 " style="fill:#15d833; stroke-width:1; stroke:black; " description="&lt;b&gt;MFKKBJ_23945&lt;/b&gt;&lt;br&gt;Membrane transport protein MMPL domain-containing protein&lt;br&gt;Location: 5168174 - 5170487" locus_tag="MFKKBJ_23945" class="clusterblast-orf" id="dummy-8_q17_0_all"  />
<polygon points="307,40 327,40 332,35 327,30 307,30 307,40 " style="fill:#1551d8; stroke-width:1; stroke:black; " description="&lt;b&gt;MFKKBJ_23950&lt;/b&gt;&lt;br&gt;FAD-binding domain-containing protein&lt;br&gt;Location: 5170520 - 5171768" locus_tag="MFKKBJ_23950" class="clusterblast-orf" id="dummy-8_q18_0_all"  />
<polygon points="332,40 341,40 346,35 341,30 332,30 332,40 " style="fill:#d815ab; stroke-width:1; stroke:black; " description="&lt;b&gt;MFKKBJ_23955&lt;/b&gt;&lt;br&gt;Methyltransferase type 11 domain-containing protein&lt;br&gt;Location: 5171764 - 5172499" locus_tag="MFKKBJ_23955" class="clusterblast-orf" id="dummy-8_q19_0_all"  />
<polygon points="346,40 351,40 356,35 351,30 346,30 346,40 " style="fill:#d8ab15; stroke-width:1; stroke:black; " description="&lt;b&gt;MFKKBJ_23960&lt;/b&gt;&lt;br&gt;Lipoprotein&lt;br&gt;Location: 5172495 - 5172978" locus_tag="MFKKBJ_23960" class="clusterblast-orf" id="dummy-8_q20_0_all"  />
<polygon points="356,40 374,40 379,35 374,30 356,30 356,40 " style="fill:#15d851; stroke-width:1; stroke:black; " description="&lt;b&gt;MFKKBJ_23965&lt;/b&gt;&lt;br&gt;3-oxoacyl-(Acyl carrier protein) synthase&lt;br&gt;Location: 5172974 - 5174141" locus_tag="MFKKBJ_23965" class="clusterblast-orf" id="dummy-8_q21_0_all"  />
<polygon points="378,40 383,40 388,35 383,30 378,30 378,40 " style="fill:#1533d8; stroke-width:1; stroke:black; " description="&lt;b&gt;MFKKBJ_23970&lt;/b&gt;&lt;br&gt;3-hydroxydecanoyl-(ACP) dehydratase&lt;br&gt;Location: 5174137 - 5174599" locus_tag="MFKKBJ_23970" class="clusterblast-orf" id="dummy-8_q22_0_all"  />
<polygon points="387,40 397,40 402,35 397,30 387,30 387,40 " style="fill:#d8158d; stroke-width:1; stroke:black; " description="&lt;b&gt;MFKKBJ_23975&lt;/b&gt;&lt;br&gt;3-oxoacyl-ACP reductase FabG&lt;br&gt;Location: 5174595 - 5175324" locus_tag="MFKKBJ_23975" class="clusterblast-orf" id="dummy-8_q23_0_all"  />
<polygon points="402,40 421,40 426,35 421,30 402,30 402,40 " style="fill:#d8c915; stroke-width:1; stroke:black; " description="&lt;b&gt;MFKKBJ_23980&lt;/b&gt;&lt;br&gt;beta-ketoacyl-ACP synthase&lt;br&gt;Location: 5175323 - 5176550" locus_tag="MFKKBJ_23980" class="clusterblast-orf" id="dummy-8_q24_0_all"  />
<polygon points="426,40 430,40 435,35 430,30 426,30 426,40 " style="fill:#15d86f; stroke-width:1; stroke:black; " description="&lt;b&gt;MFKKBJ_23985&lt;/b&gt;&lt;br&gt;Lipoprotein&lt;br&gt;Location: 5176576 - 5177029" locus_tag="MFKKBJ_23985" class="clusterblast-orf" id="dummy-8_q25_0_all"  />
<polygon points="440,35 445,30 447,30 447,40 445,40 440,35 " style="fill:#1515d8; stroke-width:1; stroke:black; " description="&lt;b&gt;MFKKBJ_23990&lt;/b&gt;&lt;br&gt;Type II toxin-antitoxin system PemK/MazF family toxin&lt;br&gt;Location: 5177245 - 5177629" locus_tag="MFKKBJ_23990" class="clusterblast-orf" id="dummy-8_q26_0_all"  />
<polygon points="449,35 454,30 467,30 467,40 454,40 449,35 " style="fill:#d8156f; stroke-width:1; stroke:black; " description="&lt;b&gt;MFKKBJ_23995&lt;/b&gt;&lt;br&gt;HTH lysR-type domain-containing protein&lt;br&gt;Location: 5177716 - 5178610" locus_tag="MFKKBJ_23995" class="clusterblast-orf" id="dummy-8_q27_0_all"  />
<polygon points="469,40 489,40 494,35 489,30 469,30 469,40 " style="fill:#c9d815; stroke-width:1; stroke:black; " description="&lt;b&gt;MFKKBJ_24000&lt;/b&gt;&lt;br&gt;Major facilitator superfamily (MFS) profile domain-containing protein&lt;br&gt;Location: 5178732 - 5180007" locus_tag="MFKKBJ_24000" class="clusterblast-orf" id="dummy-8_q28_0_all"  />
<polygon points="495,35 500,30 516,30 516,40 500,40 495,35 " style="fill:#15d88d; stroke-width:1; stroke:black; " description="&lt;b&gt;MFKKBJ_24005&lt;/b&gt;&lt;br&gt;uroporphyrinogen decarboxylase&lt;br&gt;Location: 5180067 - 5181135" locus_tag="MFKKBJ_24005" class="clusterblast-orf" id="dummy-8_q29_0_all"  />
<polygon points="521,35 526,30 549,30 549,40 526,40 521,35 " style="fill:#3315d8; stroke-width:1; stroke:black; " description="&lt;b&gt;MFKKBJ_24010&lt;/b&gt;&lt;br&gt;NADPH-dependent glutamate synthase beta chain or related oxidoreductase&lt;br&gt;Location: 5181377 - 5182796" locus_tag="MFKKBJ_24010" class="clusterblast-orf" id="dummy-8_q30_0_all"  />
<polygon points="550,35 555,30 637,30 637,40 555,40 550,35 " style="fill:#d81551; stroke-width:1; stroke:black; " description="&lt;b&gt;MFKKBJ_24015&lt;/b&gt;&lt;br&gt;Glutamate synthase large subunit&lt;br&gt;Location: 5182828 - 5187274" locus_tag="MFKKBJ_24015" class="clusterblast-orf" id="dummy-8_q31_0_all"  />
<polygon points="644,35 649,30 675,30 675,40 649,40 644,35 " style="fill:#abd815; stroke-width:1; stroke:black; " description="&lt;b&gt;MFKKBJ_24020&lt;/b&gt;&lt;br&gt;General secretion pathway protein a&lt;br&gt;Location: 5187628 - 5189191" locus_tag="MFKKBJ_24020" class="clusterblast-orf" id="dummy-8_q32_0_all"  />
<polygon points="675,35 680,30 697,30 697,40 680,40 675,35 " style="fill:#15d8ab; stroke-width:1; stroke:black; " description="&lt;b&gt;MFKKBJ_24025&lt;/b&gt;&lt;br&gt;3-dehydroquinate synthase&lt;br&gt;Location: 5189201 - 5190302" locus_tag="MFKKBJ_24025" class="clusterblast-orf" id="dummy-8_q33_0_all"  />
<polygon points="699,35 704,30 709,30 709,40 704,40 699,35 " style="fill:#5115d8; stroke-width:1; stroke:black; " description="&lt;b&gt;MFKKBJ_24030&lt;/b&gt;&lt;br&gt;shikimate kinase AroK&lt;br&gt;Location: 5190417 - 5190909" locus_tag="MFKKBJ_24030" class="clusterblast-orf" id="dummy-8_q34_0_all"  />
<polygon points="709,35 714,30 737,30 737,40 714,40 709,35 " style="fill:#d81533; stroke-width:1; stroke:black; " description="&lt;b&gt;MFKKBJ_24035&lt;/b&gt;&lt;br&gt;Type IV fimbriae biogenesis protein&lt;br&gt;Location: 5190940 - 5192323" locus_tag="MFKKBJ_24035" class="clusterblast-orf" id="dummy-8_q35_0_all"  />
<polygon points="737,35 742,30 756,30 756,40 742,40 737,35 " style="fill:#8dd815; stroke-width:1; stroke:black; " description="&lt;b&gt;MFKKBJ_24040&lt;/b&gt;&lt;br&gt;Pilus assembly protein&lt;br&gt;Location: 5192336 - 5193308" locus_tag="MFKKBJ_24040" class="clusterblast-orf" id="dummy-8_q36_0_all"  />
<polygon points="756,35 761,30 767,30 767,40 761,40 756,35 " style="fill:#15d8c9; stroke-width:1; stroke:black; " description="&lt;b&gt;MFKKBJ_24045&lt;/b&gt;&lt;br&gt;Type IV pilus assembly protein&lt;br&gt;Location: 5193304 - 5193859" locus_tag="MFKKBJ_24045" class="clusterblast-orf" id="dummy-8_q37_0_all"  />
<polygon points="767,35 772,30 780,30 780,40 772,40 767,35 " style="fill:#6f15d8; stroke-width:1; stroke:black; " description="&lt;b&gt;MFKKBJ_24050&lt;/b&gt;&lt;br&gt;Type IV pilus assembly protein&lt;br&gt;Location: 5193855 - 5194509" locus_tag="MFKKBJ_24050" class="clusterblast-orf" id="dummy-8_q38_0_all"  />
</g>
<g label="NZ_CP018049" description="NZ_CP018049 (451597-495173): Pseudomonas orientalis strain F9 chromosome, com... (100% of genes show similarity), arylpolyene" class="clusterblast-cluster"  >
<text x="5" y="70" class="clusterblast-acc"  >
<a xlink:href="https://antismash-db.secondarymetabolites.org/area?record=NZ_CP018049&amp;start=451597&amp;end=495173" target="_blank">NZ_CP018049 (451597-495173)</a>: Pseudomonas orientalis strain F9 chromosome, com... (100% of genes show similarity), arylpolyene</text>
<line x1="10" y1="85" x2="778.0" y2="85" style="stroke-width:1; stroke:grey; "  />
</g>
<g id="a8_000"  >
<polygon points="0,90 24,90 29,85 24,80 0,80 0,90 " style="fill:#d81515; stroke-width:1; stroke:black; " description="&lt;b&gt;BOP93_RS02150&lt;/b&gt;&lt;br&gt;YdiU family protein&lt;br&gt;Location: 493164 - 491701&lt;br&gt;&lt;br&gt;&lt;b&gt;BlastP hit with MFKKBJ_23855&lt;/b&gt;&lt;br&gt;Percentage identity: 95&lt;br&gt;Percentage coverage: 100&lt;br&gt;BLAST bit score: 938&lt;br&gt;E-value: 0.0" locus_tag="BOP93_RS02150" class="clusterblast-orf" id="dummy-8_h8_5_0"  />
</g>
<g id="a8_001"  >
<polygon points="29,85 34,80 37,80 37,90 34,90 29,85 " style="fill:#6fd815; stroke-width:1; stroke:black; " description="&lt;b&gt;BOP93_RS02145&lt;/b&gt;&lt;br&gt;transcriptional regulator&lt;br&gt;Location: 491696 - 491295&lt;br&gt;&lt;br&gt;&lt;b&gt;BlastP hit with MFKKBJ_23860&lt;/b&gt;&lt;br&gt;Percentage identity: 75&lt;br&gt;Percentage coverage: 100&lt;br&gt;BLAST bit score: 199&lt;br&gt;E-value: 3.83e-65" locus_tag="BOP93_RS02145" class="clusterblast-orf" id="dummy-8_h8_5_1"  />
</g>
<g id="a8_002"  >
<polygon points="37,85 42,80 43,80 43,90 42,90 37,85 " style="fill:#15c9d8; stroke-width:1; stroke:black; " description="&lt;b&gt;BOP93_RS02140&lt;/b&gt;&lt;br&gt;type II toxin-antitoxin system HigB family toxin&lt;br&gt;Location: 491298 - 491002&lt;br&gt;&lt;br&gt;&lt;b&gt;BlastP hit with MFKKBJ_23865&lt;/b&gt;&lt;br&gt;Percentage identity: 66&lt;br&gt;Percentage coverage: 100&lt;br&gt;BLAST bit score: 135&lt;br&gt;E-value: 5.49e-41" locus_tag="BOP93_RS02140" class="clusterblast-orf" id="dummy-8_h8_5_2"  />
</g>
<g id="a8_003"  >
<polygon points="47,90 51,90 56,85 51,80 47,80 47,90 " style="fill:#8d15d8; stroke-width:1; stroke:black; " description="&lt;b&gt;BOP93_RS02135&lt;/b&gt;&lt;br&gt;thioredoxin TrxC&lt;br&gt;Location: 490780 - 490346&lt;br&gt;&lt;br&gt;&lt;b&gt;BlastP hit with MFKKBJ_23870&lt;/b&gt;&lt;br&gt;Percentage identity: 95&lt;br&gt;Percentage coverage: 100&lt;br&gt;BLAST bit score: 292&lt;br&gt;E-value: 1.1e-101" locus_tag="BOP93_RS02135" class="clusterblast-orf" id="dummy-8_h8_5_3"  />
</g>
<g id="a8_004"  >
<polygon points="59,85 63,80 63,90 59,85 " style="fill:#d83315; stroke-width:1; stroke:black; " description="&lt;b&gt;BOP93_RS02130&lt;/b&gt;&lt;br&gt;DUF6124 family protein&lt;br&gt;Location: 490157 - 489999&lt;br&gt;&lt;br&gt;&lt;b&gt;BlastP hit with MFKKBJ_23875&lt;/b&gt;&lt;br&gt;Percentage identity: 88&lt;br&gt;Percentage coverage: 66&lt;br&gt;BLAST bit score: 93&lt;br&gt;E-value: 4.43e-25" locus_tag="BOP93_RS02130" class="clusterblast-orf" id="dummy-8_h8_5_4"  />
</g>
<g id="a8_005"  >
<polygon points="71,85 76,80 86,80 86,90 76,90 71,85 " style="fill:#51d815; stroke-width:1; stroke:black; " description="&lt;b&gt;BOP93_RS02125&lt;/b&gt;&lt;br&gt;ParA family protein&lt;br&gt;Location: 489574 - 488804&lt;br&gt;&lt;br&gt;&lt;b&gt;BlastP hit with MFKKBJ_23885&lt;/b&gt;&lt;br&gt;Percentage identity: 97&lt;br&gt;Percentage coverage: 100&lt;br&gt;BLAST bit score: 490&lt;br&gt;E-value: 3.4e-176" locus_tag="BOP93_RS02125" class="clusterblast-orf" id="dummy-8_h8_5_5"  />
</g>
<g id="a8_006"  >
<polygon points="92,90 101,90 106,85 101,80 92,80 92,90 " style="fill:#15abd8; stroke-width:1; stroke:black; " description="&lt;b&gt;BOP93_RS02120&lt;/b&gt;&lt;br&gt;beta-ketoacyl synthase chain length factor&lt;br&gt;Location: 488487 - 487768&lt;br&gt;&lt;br&gt;&lt;b&gt;BlastP hit with MFKKBJ_23890&lt;/b&gt;&lt;br&gt;Percentage identity: 91&lt;br&gt;Percentage coverage: 100&lt;br&gt;BLAST bit score: 451&lt;br&gt;E-value: 3.26e-161" locus_tag="BOP93_RS02120" class="clusterblast-orf" id="dummy-8_h8_5_6"  />
</g>
<g id="a8_007"  >
<polygon points="106,90 117,90 122,85 117,80 106,80 106,90 " style="fill:#ab15d8; stroke-width:1; stroke:black; " description="&lt;b&gt;BOP93_RS02115&lt;/b&gt;&lt;br&gt;lysophospholipid acyltransferase family protein&lt;br&gt;Location: 487792 - 486980&lt;br&gt;&lt;br&gt;&lt;b&gt;BlastP hit with MFKKBJ_23895&lt;/b&gt;&lt;br&gt;Percentage identity: 91&lt;br&gt;Percentage coverage: 100&lt;br&gt;BLAST bit score: 498&lt;br&gt;E-value: 4.43e-179" locus_tag="BOP93_RS02115" class="clusterblast-orf" id="dummy-8_h8_5_7"  />
</g>
<g id="a8_008"  >
<polygon points="122,90 122,90 127,85 122,80 122,80 122,90 " style="fill:#d85115; stroke-width:1; stroke:black; " description="&lt;b&gt;BOP93_RS02110&lt;/b&gt;&lt;br&gt;phosphopantetheine-binding protein&lt;br&gt;Location: 487002 - 486733&lt;br&gt;&lt;br&gt;&lt;b&gt;BlastP hit with MFKKBJ_23900&lt;/b&gt;&lt;br&gt;Percentage identity: 96&lt;br&gt;Percentage coverage: 100&lt;br&gt;BLAST bit score: 163&lt;br&gt;E-value: 3.42e-52" locus_tag="BOP93_RS02110" class="clusterblast-orf" id="dummy-8_h8_5_8"  />
</g>
<g id="a8_009"  >
<polygon points="127,90 127,90 132,85 127,80 127,80 127,90 " style="fill:#33d815; stroke-width:1; stroke:black; " description="&lt;b&gt;BOP93_RS02105&lt;/b&gt;&lt;br&gt;acyl carrier protein&lt;br&gt;Location: 486723 - 486469&lt;br&gt;&lt;br&gt;&lt;b&gt;BlastP hit with MFKKBJ_23905&lt;/b&gt;&lt;br&gt;Percentage identity: 96&lt;br&gt;Percentage coverage: 100&lt;br&gt;BLAST bit score: 152&lt;br&gt;E-value: 6.37e-48" locus_tag="BOP93_RS02105" class="clusterblast-orf" id="dummy-8_h8_5_9"  />
</g>
<g id="a8_0010"  >
<polygon points="132,90 138,90 143,85 138,80 132,80 132,90 " style="fill:#158dd8; stroke-width:1; stroke:black; " description="&lt;b&gt;BOP93_RS02100&lt;/b&gt;&lt;br&gt;hypothetical protein&lt;br&gt;Location: 486472 - 485927&lt;br&gt;&lt;br&gt;&lt;b&gt;BlastP hit with MFKKBJ_23910&lt;/b&gt;&lt;br&gt;Percentage identity: 93&lt;br&gt;Percentage coverage: 100&lt;br&gt;BLAST bit score: 345&lt;br&gt;E-value: 1.62e-121" locus_tag="BOP93_RS02100" class="clusterblast-orf" id="dummy-8_h8_5_10"  />
</g>
<g id="a8_0011"  >
<polygon points="143,90 171,90 176,85 171,80 143,80 143,90 " style="fill:#c915d8; stroke-width:1; stroke:black; " description="&lt;b&gt;BOP93_RS02095&lt;/b&gt;&lt;br&gt;acyl-CoA synthetase family protein&lt;br&gt;Location: 485930 - 484260&lt;br&gt;&lt;br&gt;&lt;b&gt;BlastP hit with MFKKBJ_23915&lt;/b&gt;&lt;br&gt;Percentage identity: 90&lt;br&gt;Percentage coverage: 100&lt;br&gt;BLAST bit score: 1006&lt;br&gt;E-value: 0.0" locus_tag="BOP93_RS02095" class="clusterblast-orf" id="dummy-8_h8_5_11"  />
</g>
<g id="a8_0012"  >
<polygon points="175,90 185,90 190,85 185,80 175,80 175,90 " style="fill:#d86f15; stroke-width:1; stroke:black; " description="&lt;b&gt;BOP93_RS02090&lt;/b&gt;&lt;br&gt;glycosyltransferase family 2 protein&lt;br&gt;Location: 484267 - 483533&lt;br&gt;&lt;br&gt;&lt;b&gt;BlastP hit with MFKKBJ_23920&lt;/b&gt;&lt;br&gt;Percentage identity: 93&lt;br&gt;Percentage coverage: 100&lt;br&gt;BLAST bit score: 474&lt;br&gt;E-value: 3.41e-170" locus_tag="BOP93_RS02090" class="clusterblast-orf" id="dummy-8_h8_5_12"  />
</g>
<g id="a8_0013"  >
<polygon points="190,90 203,90 208,85 203,80 190,80 190,90 " style="fill:#15d815; stroke-width:1; stroke:black; " description="&lt;b&gt;BOP93_RS02085&lt;/b&gt;&lt;br&gt;glycosyl transferase&lt;br&gt;Location: 483536 - 482601&lt;br&gt;&lt;br&gt;&lt;b&gt;BlastP hit with MFKKBJ_23925&lt;/b&gt;&lt;br&gt;Percentage identity: 88&lt;br&gt;Percentage coverage: 100&lt;br&gt;BLAST bit score: 565&lt;br&gt;E-value: 4.48e-204" locus_tag="BOP93_RS02085" class="clusterblast-orf" id="dummy-8_h8_5_13"  />
</g>
<g id="a8_0014"  >
<polygon points="208,90 233,90 238,85 233,80 208,80 208,90 " style="fill:#156fd8; stroke-width:1; stroke:black; " description="&lt;b&gt;BOP93_RS02080&lt;/b&gt;&lt;br&gt;aromatic amino acid ammonia-lyase&lt;br&gt;Location: 482617 - 481076&lt;br&gt;&lt;br&gt;&lt;b&gt;BlastP hit with MFKKBJ_23930&lt;/b&gt;&lt;br&gt;Percentage identity: 96&lt;br&gt;Percentage coverage: 100&lt;br&gt;BLAST bit score: 978&lt;br&gt;E-value: 0.0" locus_tag="BOP93_RS02080" class="clusterblast-orf" id="dummy-8_h8_5_14"  />
</g>
<g id="a8_0015"  >
<polygon points="238,90 242,90 247,85 242,80 238,80 238,90 " style="fill:#d815c9; stroke-width:1; stroke:black; " description="&lt;b&gt;BOP93_RS02075&lt;/b&gt;&lt;br&gt;acyl-CoA thioesterase&lt;br&gt;Location: 481083 - 480658&lt;br&gt;&lt;br&gt;&lt;b&gt;BlastP hit with MFKKBJ_23935&lt;/b&gt;&lt;br&gt;Percentage identity: 94&lt;br&gt;Percentage coverage: 99&lt;br&gt;BLAST bit score: 268&lt;br&gt;E-value: 5.06e-92" locus_tag="BOP93_RS02075" class="clusterblast-orf" id="dummy-8_h8_5_15"  />
</g>
<g id="a8_0016"  >
<polygon points="246,90 255,90 260,85 255,80 246,80 246,90 " style="fill:#d88d15; stroke-width:1; stroke:black; " description="&lt;b&gt;BOP93_RS02070&lt;/b&gt;&lt;br&gt;outer membrane lipoprotein carrier protein LolA&lt;br&gt;Location: 480661 - 479978&lt;br&gt;&lt;br&gt;&lt;b&gt;BlastP hit with MFKKBJ_23940&lt;/b&gt;&lt;br&gt;Percentage identity: 85&lt;br&gt;Percentage coverage: 99&lt;br&gt;BLAST bit score: 326&lt;br&gt;E-value: 6.21e-113" locus_tag="BOP93_RS02070" class="clusterblast-orf" id="dummy-8_h8_5_16"  />
</g>
<g id="a8_0017"  >
<polygon points="259,90 300,90 305,85 300,80 259,80 259,90 " style="fill:#15d833; stroke-width:1; stroke:black; " description="&lt;b&gt;BOP93_RS02065&lt;/b&gt;&lt;br&gt;MMPL family transporter&lt;br&gt;Location: 480006 - 477676&lt;br&gt;&lt;br&gt;&lt;b&gt;BlastP hit with MFKKBJ_23945&lt;/b&gt;&lt;br&gt;Percentage identity: 93&lt;br&gt;Percentage coverage: 100&lt;br&gt;BLAST bit score: 1363&lt;br&gt;E-value: 0.0" locus_tag="BOP93_RS02065" class="clusterblast-orf" id="dummy-8_h8_5_17"  />
</g>
<g id="a8_0018"  >
<polygon points="306,90 325,90 330,85 325,80 306,80 306,90 " style="fill:#1551d8; stroke-width:1; stroke:black; " description="&lt;b&gt;BOP93_RS02060&lt;/b&gt;&lt;br&gt;NAD(P)/FAD-dependent oxidoreductase&lt;br&gt;Location: 477642 - 476395&lt;br&gt;&lt;br&gt;&lt;b&gt;BlastP hit with MFKKBJ_23950&lt;/b&gt;&lt;br&gt;Percentage identity: 91&lt;br&gt;Percentage coverage: 100&lt;br&gt;BLAST bit score: 777&lt;br&gt;E-value: 2.18e-284" locus_tag="BOP93_RS02060" class="clusterblast-orf" id="dummy-8_h8_5_18"  />
</g>
<g id="a8_0019"  >
<polygon points="330,90 340,90 345,85 340,80 330,80 330,90 " style="fill:#d815ab; stroke-width:1; stroke:black; " description="&lt;b&gt;BOP93_RS02055&lt;/b&gt;&lt;br&gt;class I SAM-dependent methyltransferase&lt;br&gt;Location: 476398 - 475649&lt;br&gt;&lt;br&gt;&lt;b&gt;BlastP hit with MFKKBJ_23955&lt;/b&gt;&lt;br&gt;Percentage identity: 91&lt;br&gt;Percentage coverage: 97&lt;br&gt;BLAST bit score: 456&lt;br&gt;E-value: 4.21e-163" locus_tag="BOP93_RS02055" class="clusterblast-orf" id="dummy-8_h8_5_19"  />
</g>
<g id="a8_0020"  >
<polygon points="345,90 350,90 355,85 350,80 345,80 345,90 " style="fill:#d8ab15; stroke-width:1; stroke:black; " description="&lt;b&gt;BOP93_RS02050&lt;/b&gt;&lt;br&gt;hypothetical protein&lt;br&gt;Location: 475652 - 475170&lt;br&gt;&lt;br&gt;&lt;b&gt;BlastP hit with MFKKBJ_23960&lt;/b&gt;&lt;br&gt;Percentage identity: 83&lt;br&gt;Percentage coverage: 100&lt;br&gt;BLAST bit score: 264&lt;br&gt;E-value: 4.91e-90" locus_tag="BOP93_RS02050" class="clusterblast-orf" id="dummy-8_h8_5_20"  />
</g>
<g id="a8_0021"  >
<polygon points="355,90 373,90 378,85 373,80 355,80 355,90 " style="fill:#15d851; stroke-width:1; stroke:black; " description="&lt;b&gt;BOP93_RS02045&lt;/b&gt;&lt;br&gt;beta-ketoacyl-[acyl-carrier-protein] synthase family protein&lt;br&gt;Location: 475173 - 474007&lt;br&gt;&lt;br&gt;&lt;b&gt;BlastP hit with MFKKBJ_23965&lt;/b&gt;&lt;br&gt;Percentage identity: 88&lt;br&gt;Percentage coverage: 100&lt;br&gt;BLAST bit score: 671&lt;br&gt;E-value: 2.13e-243" locus_tag="BOP93_RS02045" class="clusterblast-orf" id="dummy-8_h8_5_21"  />
</g>
<g id="a8_0022"  >
<polygon points="377,90 382,90 387,85 382,80 377,80 377,90 " style="fill:#1533d8; stroke-width:1; stroke:black; " description="&lt;b&gt;BOP93_RS02040&lt;/b&gt;&lt;br&gt;hotdog family protein&lt;br&gt;Location: 474010 - 473549&lt;br&gt;&lt;br&gt;&lt;b&gt;BlastP hit with MFKKBJ_23970&lt;/b&gt;&lt;br&gt;Percentage identity: 88&lt;br&gt;Percentage coverage: 99&lt;br&gt;BLAST bit score: 274&lt;br&gt;E-value: 3.17e-94" locus_tag="BOP93_RS02040" class="clusterblast-orf" id="dummy-8_h8_5_22"  />
</g>
<g id="a8_0023"  >
<polygon points="386,90 396,90 401,85 396,80 386,80 386,90 " style="fill:#d8158d; stroke-width:1; stroke:black; " description="&lt;b&gt;BOP93_RS02035&lt;/b&gt;&lt;br&gt;3-oxoacyl-ACP reductase FabG&lt;br&gt;Location: 473552 - 472824&lt;br&gt;&lt;br&gt;&lt;b&gt;BlastP hit with MFKKBJ_23975&lt;/b&gt;&lt;br&gt;Percentage identity: 99&lt;br&gt;Percentage coverage: 100&lt;br&gt;BLAST bit score: 462&lt;br&gt;E-value: 7.71e-166" locus_tag="BOP93_RS02035" class="clusterblast-orf" id="dummy-8_h8_5_23"  />
</g>
<g id="a8_0024"  >
<polygon points="401,90 420,90 425,85 420,80 401,80 401,90 " style="fill:#d8c915; stroke-width:1; stroke:black; " description="&lt;b&gt;BOP93_RS02030&lt;/b&gt;&lt;br&gt;beta-ketoacyl-ACP synthase&lt;br&gt;Location: 472824 - 471598&lt;br&gt;&lt;br&gt;&lt;b&gt;BlastP hit with MFKKBJ_23980&lt;/b&gt;&lt;br&gt;Percentage identity: 97&lt;br&gt;Percentage coverage: 100&lt;br&gt;BLAST bit score: 803&lt;br&gt;E-value: 7.75e-295" locus_tag="BOP93_RS02030" class="clusterblast-orf" id="dummy-8_h8_5_24"  />
</g>
<g id="a8_0025"  >
<polygon points="425,90 428,90 433,85 428,80 425,80 425,90 " style="fill:#15d86f; stroke-width:1; stroke:black; " description="&lt;b&gt;BOP93_RS02025&lt;/b&gt;&lt;br&gt;hypothetical protein&lt;br&gt;Location: 471571 - 471176&lt;br&gt;&lt;br&gt;&lt;b&gt;BlastP hit with MFKKBJ_23985&lt;/b&gt;&lt;br&gt;Percentage identity: 85&lt;br&gt;Percentage coverage: 87&lt;br&gt;BLAST bit score: 206&lt;br&gt;E-value: 8.99e-68" locus_tag="BOP93_RS02025" class="clusterblast-orf" id="dummy-8_h8_5_25"  />
</g>
<g id="a8_0026"  >
<polygon points="437,85 442,80 445,80 445,90 442,90 437,85 " style="fill:#1515d8; stroke-width:1; stroke:black; " description="&lt;b&gt;BOP93_RS02020&lt;/b&gt;&lt;br&gt;type II toxin-antitoxin system PemK/MazF family toxin&lt;br&gt;Location: 470974 - 470588&lt;br&gt;&lt;br&gt;&lt;b&gt;BlastP hit with MFKKBJ_23990&lt;/b&gt;&lt;br&gt;Percentage identity: 91&lt;br&gt;Percentage coverage: 100&lt;br&gt;BLAST bit score: 231&lt;br&gt;E-value: 8.07e-78" locus_tag="BOP93_RS02020" class="clusterblast-orf" id="dummy-8_h8_5_26"  />
</g>
<g id="a8_0027"  >
<polygon points="447,85 452,80 464,80 464,90 452,90 447,85 " style="fill:#d8156f; stroke-width:1; stroke:black; " description="&lt;b&gt;BOP93_RS02015&lt;/b&gt;&lt;br&gt;LysR family transcriptional regulator&lt;br&gt;Location: 470500 - 469607&lt;br&gt;&lt;br&gt;&lt;b&gt;BlastP hit with MFKKBJ_23995&lt;/b&gt;&lt;br&gt;Percentage identity: 94&lt;br&gt;Percentage coverage: 99&lt;br&gt;BLAST bit score: 533&lt;br&gt;E-value: 6.78e-192" locus_tag="BOP93_RS02015" class="clusterblast-orf" id="dummy-8_h8_5_27"  />
</g>
<g id="a8_0028"  >
<polygon points="467,90 487,90 492,85 487,80 467,80 467,90 " style="fill:#c9d815; stroke-width:1; stroke:black; " description="&lt;b&gt;BOP93_RS02010&lt;/b&gt;&lt;br&gt;MFS transporter&lt;br&gt;Location: 469483 - 468215&lt;br&gt;&lt;br&gt;&lt;b&gt;BlastP hit with MFKKBJ_24000&lt;/b&gt;&lt;br&gt;Percentage identity: 94&lt;br&gt;Percentage coverage: 100&lt;br&gt;BLAST bit score: 757&lt;br&gt;E-value: 3.41e-276" locus_tag="BOP93_RS02010" class="clusterblast-orf" id="dummy-8_h8_5_28"  />
</g>
<g id="a8_0029"  >
<polygon points="494,85 499,80 515,80 515,90 499,90 494,85 " style="fill:#15d88d; stroke-width:1; stroke:black; " description="&lt;b&gt;BOP93_RS02005&lt;/b&gt;&lt;br&gt;uroporphyrinogen decarboxylase&lt;br&gt;Location: 468092 - 467025&lt;br&gt;&lt;br&gt;&lt;b&gt;BlastP hit with MFKKBJ_24005&lt;/b&gt;&lt;br&gt;Percentage identity: 98&lt;br&gt;Percentage coverage: 100&lt;br&gt;BLAST bit score: 703&lt;br&gt;E-value: 3.71e-257" locus_tag="BOP93_RS02005" class="clusterblast-orf" id="dummy-8_h8_5_29"  />
</g>
<g id="a8_0030"  >
<polygon points="520,85 525,80 548,80 548,90 525,90 520,85 " style="fill:#3315d8; stroke-width:1; stroke:black; " description="&lt;b&gt;BOP93_RS02000&lt;/b&gt;&lt;br&gt;FAD-dependent oxidoreductase&lt;br&gt;Location: 466782 - 465364&lt;br&gt;&lt;br&gt;&lt;b&gt;BlastP hit with MFKKBJ_24010&lt;/b&gt;&lt;br&gt;Percentage identity: 99&lt;br&gt;Percentage coverage: 100&lt;br&gt;BLAST bit score: 952&lt;br&gt;E-value: 0.0" locus_tag="BOP93_RS02000" class="clusterblast-orf" id="dummy-8_h8_5_30"  />
</g>
<g id="a8_0031"  >
<polygon points="548,85 553,80 636,80 636,90 553,90 548,85 " style="fill:#d81551; stroke-width:1; stroke:black; " description="&lt;b&gt;BOP93_RS01995&lt;/b&gt;&lt;br&gt;glutamate synthase large subunit&lt;br&gt;Location: 465331 - 460886&lt;br&gt;&lt;br&gt;&lt;b&gt;BlastP hit with MFKKBJ_24015&lt;/b&gt;&lt;br&gt;Percentage identity: 98&lt;br&gt;Percentage coverage: 100&lt;br&gt;BLAST bit score: 2855&lt;br&gt;E-value: 0.0" locus_tag="BOP93_RS01995" class="clusterblast-orf" id="dummy-8_h8_5_31"  />
</g>
<g id="a8_0032"  >
<polygon points="643,85 648,80 674,80 674,90 648,90 643,85 " style="fill:#abd815; stroke-width:1; stroke:black; " description="&lt;b&gt;BOP93_RS01985&lt;/b&gt;&lt;br&gt;SPOR domain-containing protein&lt;br&gt;Location: 460534 - 458960&lt;br&gt;&lt;br&gt;&lt;b&gt;BlastP hit with MFKKBJ_24020&lt;/b&gt;&lt;br&gt;Percentage identity: 91&lt;br&gt;Percentage coverage: 101&lt;br&gt;BLAST bit score: 842&lt;br&gt;E-value: 1.54e-306" locus_tag="BOP93_RS01985" class="clusterblast-orf" id="dummy-8_h8_5_32"  />
</g>
<g id="a8_0033"  >
<polygon points="674,85 679,80 696,80 696,90 679,90 674,85 " style="fill:#15d8ab; stroke-width:1; stroke:black; " description="&lt;b&gt;BOP93_RS01980&lt;/b&gt;&lt;br&gt;3-dehydroquinate synthase&lt;br&gt;Location: 458949 - 457849&lt;br&gt;&lt;br&gt;&lt;b&gt;BlastP hit with MFKKBJ_24025&lt;/b&gt;&lt;br&gt;Percentage identity: 98&lt;br&gt;Percentage coverage: 100&lt;br&gt;BLAST bit score: 704&lt;br&gt;E-value: 2.15e-257" locus_tag="BOP93_RS01980" class="clusterblast-orf" id="dummy-8_h8_5_33"  />
</g>
<g id="a8_0034"  >
<polygon points="698,85 703,80 708,80 708,90 703,90 698,85 " style="fill:#5115d8; stroke-width:1; stroke:black; " description="&lt;b&gt;BOP93_RS01975&lt;/b&gt;&lt;br&gt;shikimate kinase AroK&lt;br&gt;Location: 457723 - 457205&lt;br&gt;&lt;br&gt;&lt;b&gt;BlastP hit with MFKKBJ_24030&lt;/b&gt;&lt;br&gt;Percentage identity: 99&lt;br&gt;Percentage coverage: 100&lt;br&gt;BLAST bit score: 317&lt;br&gt;E-value: 1.55e-110" locus_tag="BOP93_RS01975" class="clusterblast-orf" id="dummy-8_h8_5_34"  />
</g>
<g id="a8_0035"  >
<polygon points="709,85 714,80 735,80 735,90 714,90 709,85 " style="fill:#d81533; stroke-width:1; stroke:black; " description="&lt;b&gt;BOP93_RS01970&lt;/b&gt;&lt;br&gt;type IV pilus secretin PilQ family protein&lt;br&gt;Location: 457200 - 455875&lt;br&gt;&lt;br&gt;&lt;b&gt;BlastP hit with MFKKBJ_24035&lt;/b&gt;&lt;br&gt;Percentage identity: 92&lt;br&gt;Percentage coverage: 96&lt;br&gt;BLAST bit score: 775&lt;br&gt;E-value: 2.86e-282" locus_tag="BOP93_RS01970" class="clusterblast-orf" id="dummy-8_h8_5_35"  />
</g>
<g id="a8_0036"  >
<polygon points="736,85 741,80 755,80 755,90 741,90 736,85 " style="fill:#8dd815; stroke-width:1; stroke:black; " description="&lt;b&gt;BOP93_RS01965&lt;/b&gt;&lt;br&gt;pilus assembly protein PilP&lt;br&gt;Location: 455805 - 454834&lt;br&gt;&lt;br&gt;&lt;b&gt;BlastP hit with MFKKBJ_24040&lt;/b&gt;&lt;br&gt;Percentage identity: 60&lt;br&gt;Percentage coverage: 100&lt;br&gt;BLAST bit score: 363&lt;br&gt;E-value: 4.14e-124" locus_tag="BOP93_RS01965" class="clusterblast-orf" id="dummy-8_h8_5_36"  />
</g>
<g id="a8_0037"  >
<polygon points="755,85 760,80 766,80 766,90 760,90 755,85 " style="fill:#15d8c9; stroke-width:1; stroke:black; " description="&lt;b&gt;BOP93_RS01960&lt;/b&gt;&lt;br&gt;PilN domain-containing protein&lt;br&gt;Location: 454837 - 454286&lt;br&gt;&lt;br&gt;&lt;b&gt;BlastP hit with MFKKBJ_24045&lt;/b&gt;&lt;br&gt;Percentage identity: 76&lt;br&gt;Percentage coverage: 99&lt;br&gt;BLAST bit score: 257&lt;br&gt;E-value: 2.18e-86" locus_tag="BOP93_RS01960" class="clusterblast-orf" id="dummy-8_h8_5_37"  />
</g>
<g id="a8_0038"  >
<polygon points="766,85 771,80 779,80 779,90 771,90 766,85 " style="fill:#6f15d8; stroke-width:1; stroke:black; " description="&lt;b&gt;BOP93_RS01955&lt;/b&gt;&lt;br&gt;type IV pilus assembly protein PilM&lt;br&gt;Location: 454289 - 453633&lt;br&gt;&lt;br&gt;&lt;b&gt;BlastP hit with MFKKBJ_24050&lt;/b&gt;&lt;br&gt;Percentage identity: 68&lt;br&gt;Percentage coverage: 100&lt;br&gt;BLAST bit score: 278&lt;br&gt;E-value: 7.77e-94" locus_tag="BOP93_RS01955" class="clusterblast-orf" id="dummy-8_h8_5_38"  />
</g>
</svg>
