<svg xmlns="http://www.w3.org/2000/svg" xmlns:xlink="http://www.w3.org/1999/xlink" version="1.1" x="0" y="0" height="230" width="800" viewBox="0 0 800 230" preserveAspectRatio="none"  >
<g label="Query sequence" class="clusterblast-cluster"  >
<text x="5" y="20" class="clusterblast-acc"  >
Query sequence</text>
<line x1="10" y1="35" x2="778.0" y2="35" style="stroke-width:1; stroke:grey; "  />
<polygon points="0,40 32,40 37,35 32,30 0,30 0,40 " style="fill:#d81515; stroke-width:1; stroke:black; " description="&lt;b&gt;MFKKBJ_08925&lt;/b&gt;&lt;br&gt;phage tail protein&lt;br&gt;Location: 1859194 - 1862656" locus_tag="MFKKBJ_08925" class="clusterblast-orf" id="dummy-3_q0_0_all"  />
<polygon points="40,40 42,40 47,35 42,30 40,30 40,40 " style="fill:#5cd815; stroke-width:1; stroke:black; " description="&lt;b&gt;MFKKBJ_08930&lt;/b&gt;&lt;br&gt;Phage tail protein&lt;br&gt;Location: 1863002 - 1863632" locus_tag="MFKKBJ_08930" class="clusterblast-orf" id="dummy-3_q1_0_all"  />
<polygon points="48,40 51,40 56,35 51,30 48,30 48,40 " style="fill:#15c7d8; stroke-width:1; stroke:black; " description="&lt;b&gt;MFKKBJ_08935&lt;/b&gt;&lt;br&gt;Phage tail protein&lt;br&gt;Location: 1863690 - 1864458" locus_tag="MFKKBJ_08935" class="clusterblast-orf" id="dummy-3_q2_0_all"  />
<polygon points="59,40 62,35 59,30 59,40 " style="fill:white; stroke-width:1; stroke:black; " description="&lt;b&gt;MFKKBJ_08940&lt;/b&gt;&lt;br&gt;Phage tail protein&lt;br&gt;Location: 1864744 - 1864996" locus_tag="MFKKBJ_08940" class="clusterblast-orf" id="dummy-3_q3_0_all"  />
<polygon points="62,40 63,40 68,35 63,30 62,30 62,40 " style="fill:#8015d8; stroke-width:1; stroke:black; " description="&lt;b&gt;MFKKBJ_08945&lt;/b&gt;&lt;br&gt;Chitinase&lt;br&gt;Location: 1865051 - 1865585" locus_tag="MFKKBJ_08945" class="clusterblast-orf" id="dummy-3_q4_0_all"  />
<polygon points="68,40 69,40 74,35 69,30 68,30 68,40 " style="fill:#d83915; stroke-width:1; stroke:black; " description="&lt;b&gt;MFKKBJ_08950&lt;/b&gt;&lt;br&gt;Lysozyme&lt;br&gt;Location: 1865581 - 1866151" locus_tag="MFKKBJ_08950" class="clusterblast-orf" id="dummy-3_q5_0_all"  />
<polygon points="73,35 76,30 76,40 73,35 " style="fill:white; stroke-width:1; stroke:black; " description="&lt;b&gt;MFKKBJ_08955&lt;/b&gt;&lt;br&gt;NIPSNAP domain-containing protein&lt;br&gt;Location: 1866110 - 1866374" locus_tag="MFKKBJ_08955" class="clusterblast-orf" id="dummy-3_q6_0_all"  />
<polygon points="77,35 81,30 81,40 77,35 " style="fill:#39d815; stroke-width:1; stroke:black; " description="&lt;b&gt;MFKKBJ_08960&lt;/b&gt;&lt;br&gt;Lipoprotein&lt;br&gt;Location: 1866461 - 1866842" locus_tag="MFKKBJ_08960" class="clusterblast-orf" id="dummy-3_q7_0_all"  />
<polygon points="86,40 91,40 96,35 91,30 86,30 86,40 " style="fill:#15a3d8; stroke-width:1; stroke:black; " description="&lt;b&gt;MFKKBJ_08970&lt;/b&gt;&lt;br&gt;LysR family transcriptional regulator&lt;br&gt;Location: 1867291 - 1868194" locus_tag="MFKKBJ_08970" class="clusterblast-orf" id="dummy-3_q8_0_all"  />
<polygon points="96,35 101,30 106,30 106,40 101,40 96,35 " style="fill:#a315d8; stroke-width:1; stroke:black; " description="&lt;b&gt;MFKKBJ_08975&lt;/b&gt;&lt;br&gt;Cupin&lt;br&gt;Location: 1868231 - 1869173" locus_tag="MFKKBJ_08975" class="clusterblast-orf" id="dummy-3_q9_0_all"  />
<polygon points="108,35 111,30 111,40 108,35 " style="fill:#d85c15; stroke-width:1; stroke:black; " description="&lt;b&gt;MFKKBJ_08980&lt;/b&gt;&lt;br&gt;hypothetical protein&lt;br&gt;Location: 1869374 - 1869653" locus_tag="MFKKBJ_08980" class="clusterblast-orf" id="dummy-3_q10_0_all"  />
<polygon points="113,35 118,30 136,30 136,40 118,40 113,35 " style="fill:#15d815; stroke-width:1; stroke:black; " description="&lt;b&gt;MFKKBJ_08985&lt;/b&gt;&lt;br&gt;Ferric siderophore receptor&lt;br&gt;Location: 1869847 - 1872019" locus_tag="MFKKBJ_08985" class="clusterblast-orf" id="dummy-3_q11_0_all"  />
<polygon points="138,35 143,30 148,30 148,40 143,40 138,35 " style="fill:#1580d8; stroke-width:1; stroke:black; " description="&lt;b&gt;MFKKBJ_08990&lt;/b&gt;&lt;br&gt;Acyltransferase MbtK/IucB-like conserved domain-containing protein&lt;br&gt;Location: 1872117 - 1873137" locus_tag="MFKKBJ_08990" class="clusterblast-orf" id="dummy-3_q12_0_all"  />
<polygon points="150,35 155,30 171,30 171,40 155,40 150,35 " style="fill:#c715d8; stroke-width:1; stroke:black; " description="&lt;b&gt;MFKKBJ_08995&lt;/b&gt;&lt;br&gt;Fe(3+)-hydroxamate ABC transporter permease FhuB&lt;br&gt;Location: 1873296 - 1875285" locus_tag="MFKKBJ_08995" class="clusterblast-orf" id="dummy-3_q13_0_all"  />
<polygon points="171,35 176,30 181,30 181,40 176,40 171,35 " style="fill:#d88015; stroke-width:1; stroke:black; " description="&lt;b&gt;MFKKBJ_09000&lt;/b&gt;&lt;br&gt;Periplasmic binding protein&lt;br&gt;Location: 1875277 - 1876189" locus_tag="MFKKBJ_09000" class="clusterblast-orf" id="dummy-3_q14_0_all"  />
<polygon points="183,40 196,40 201,35 196,30 183,30 183,40 " style="fill:#15d839; stroke-width:1; stroke:black; " description="&lt;b&gt;MFKKBJ_09005&lt;/b&gt;&lt;br&gt;Putative ATP-binding cassette transporter&lt;br&gt;Location: 1876388 - 1878035" locus_tag="MFKKBJ_09005" class="clusterblast-orf" id="dummy-3_q15_0_all"  />
<polygon points="203,40 205,40 210,35 205,30 203,30 203,40 " style="fill:#155cd8; stroke-width:1; stroke:black; " description="&lt;b&gt;MFKKBJ_09010&lt;/b&gt;&lt;br&gt;Thioesterase&lt;br&gt;Location: 1878209 - 1878953" locus_tag="MFKKBJ_09010" class="clusterblast-orf" id="dummy-3_q16_0_all"  />
<polygon points="211,40 216,40 221,35 216,30 211,30 211,40 " style="fill:#d815c7; stroke-width:1; stroke:black; " description="&lt;b&gt;MFKKBJ_09015&lt;/b&gt;&lt;br&gt;TauD/TfdA-like domain-containing protein&lt;br&gt;Location: 1878992 - 1879973" locus_tag="MFKKBJ_09015" class="clusterblast-orf" id="dummy-3_q17_0_all"  />
<polygon points="222,40 265,40 270,35 265,30 222,30 222,40 " style="fill:#d815c7; stroke-width:1; stroke:black; " description="&lt;b&gt;MFKKBJ_09020&lt;/b&gt;&lt;br&gt;Non ribosomal peptide synthase&lt;br&gt;Location: 1880023 - 1884487" locus_tag="MFKKBJ_09020" class="clusterblast-orf" id="dummy-3_q18_0_all"  />
<polygon points="270,40 298,40 303,35 298,30 270,30 270,40 " style="fill:#d815c7; stroke-width:1; stroke:black; " description="&lt;b&gt;MFKKBJ_09025&lt;/b&gt;&lt;br&gt;Amino acid adenylation&lt;br&gt;Location: 1884498 - 1887645" locus_tag="MFKKBJ_09025" class="clusterblast-orf" id="dummy-3_q19_0_all"  />
<polygon points="304,40 381,40 386,35 381,30 304,30 304,40 " style="fill:#d815c7; stroke-width:1; stroke:black; " description="&lt;b&gt;MFKKBJ_09030&lt;/b&gt;&lt;br&gt;Carrier domain-containing protein&lt;br&gt;Location: 1887693 - 1895427" locus_tag="MFKKBJ_09030" class="clusterblast-orf" id="dummy-3_q20_0_all"  />
<polygon points="386,40 513,40 518,35 513,30 386,30 386,40 " style="fill:#d815c7; stroke-width:1; stroke:black; " description="&lt;b&gt;MFKKBJ_09035&lt;/b&gt;&lt;br&gt;non-ribosomal peptide synthetase&lt;br&gt;Location: 1895423 - 1907741" locus_tag="MFKKBJ_09035" class="clusterblast-orf" id="dummy-3_q21_0_all"  />
<polygon points="518,40 556,40 561,35 556,30 518,30 518,40 " style="fill:#d815c7; stroke-width:1; stroke:black; " description="&lt;b&gt;MFKKBJ_09040&lt;/b&gt;&lt;br&gt;Non-ribosomal peptide synthetase&lt;br&gt;Location: 1907742 - 1911801" locus_tag="MFKKBJ_09040" class="clusterblast-orf" id="dummy-3_q22_0_all"  />
<polygon points="562,40 571,40 576,35 571,30 562,30 562,40 " style="fill:#d8a315; stroke-width:1; stroke:black; " description="&lt;b&gt;MFKKBJ_09045&lt;/b&gt;&lt;br&gt;L-ornithine 5-monooxygenase&lt;br&gt;Location: 1911873 - 1913229" locus_tag="MFKKBJ_09045" class="clusterblast-orf" id="dummy-3_q23_0_all"  />
<polygon points="577,40 580,40 585,35 580,30 577,30 577,40 " style="fill:#15d85c; stroke-width:1; stroke:black; " description="&lt;b&gt;MFKKBJ_09050&lt;/b&gt;&lt;br&gt;siderophore-iron reductase FhuF&lt;br&gt;Location: 1913320 - 1914076" locus_tag="MFKKBJ_09050" class="clusterblast-orf" id="dummy-3_q24_0_all"  />
<polygon points="586,35 591,30 594,30 594,40 591,40 586,35 " style="fill:#1539d8; stroke-width:1; stroke:black; " description="&lt;b&gt;MFKKBJ_09055&lt;/b&gt;&lt;br&gt;Iron-hydroxamate transporter ATP-binding subunit&lt;br&gt;Location: 1914116 - 1914884" locus_tag="MFKKBJ_09055" class="clusterblast-orf" id="dummy-3_q25_0_all"  />
<polygon points="601,40 603,40 608,35 603,30 601,30 601,40 " style="fill:#d815a3; stroke-width:1; stroke:black; " description="&lt;b&gt;MFKKBJ_09060&lt;/b&gt;&lt;br&gt;Lipoprotein&lt;br&gt;Location: 1915514 - 1916213" locus_tag="MFKKBJ_09060" class="clusterblast-orf" id="dummy-3_q26_0_all"  />
<polygon points="609,40 612,35 609,30 609,40 " style="fill:#d8c715; stroke-width:1; stroke:black; " description="&lt;b&gt;MFKKBJ_09065&lt;/b&gt;&lt;br&gt;EAL domain-containing protein&lt;br&gt;Location: 1916338 - 1916617" locus_tag="MFKKBJ_09065" class="clusterblast-orf" id="dummy-3_q27_0_all"  />
<polygon points="613,40 622,40 627,35 622,30 613,30 613,40 " style="fill:#15d880; stroke-width:1; stroke:black; " description="&lt;b&gt;MFKKBJ_09070&lt;/b&gt;&lt;br&gt;Methyl-accepting chemotaxis protein (2 PAS,MCP domains)&lt;br&gt;Location: 1916701 - 1918015" locus_tag="MFKKBJ_09070" class="clusterblast-orf" id="dummy-3_q28_0_all"  />
<polygon points="630,40 647,40 652,35 647,30 630,30 630,40 " style="fill:#1515d8; stroke-width:1; stroke:black; " description="&lt;b&gt;MFKKBJ_09075&lt;/b&gt;&lt;br&gt;Outer membrane siderophore receptor&lt;br&gt;Location: 1918237 - 1920352" locus_tag="MFKKBJ_09075" class="clusterblast-orf" id="dummy-3_q29_0_all"  />
<polygon points="652,35 657,30 672,30 672,40 657,40 652,35 " style="fill:#d81580; stroke-width:1; stroke:black; " description="&lt;b&gt;MFKKBJ_09080&lt;/b&gt;&lt;br&gt;Sigma-54 factor interaction domain-containing protein&lt;br&gt;Location: 1920361 - 1922179" locus_tag="MFKKBJ_09080" class="clusterblast-orf" id="dummy-3_q30_0_all"  />
<polygon points="675,40 681,40 686,35 681,30 675,30 675,40 " style="fill:#c7d815; stroke-width:1; stroke:black; " description="&lt;b&gt;MFKKBJ_09085&lt;/b&gt;&lt;br&gt;sn-glycerol-3-phosphate import ATP-binding protein UgpC&lt;br&gt;Location: 1922470 - 1923565" locus_tag="MFKKBJ_09085" class="clusterblast-orf" id="dummy-3_q31_0_all"  />
<polygon points="686,40 693,40 698,35 693,30 686,30 686,40 " style="fill:#15d8a3; stroke-width:1; stroke:black; " description="&lt;b&gt;MFKKBJ_09090&lt;/b&gt;&lt;br&gt;ABC transporter ATP-binding protein&lt;br&gt;Location: 1923564 - 1924662" locus_tag="MFKKBJ_09090" class="clusterblast-orf" id="dummy-3_q32_0_all"  />
<polygon points="698,40 702,40 707,35 702,30 698,30 698,40 " style="fill:#3915d8; stroke-width:1; stroke:black; " description="&lt;b&gt;MFKKBJ_09095&lt;/b&gt;&lt;br&gt;ABC-type sugar transport system, permease component&lt;br&gt;Location: 1924658 - 1925525" locus_tag="MFKKBJ_09095" class="clusterblast-orf" id="dummy-3_q33_0_all"  />
<polygon points="708,40 711,40 716,35 711,30 708,30 708,40 " style="fill:#d8155c; stroke-width:1; stroke:black; " description="&lt;b&gt;MFKKBJ_09100&lt;/b&gt;&lt;br&gt;ABC-type glycerol-3-phosphate transport system, permease component&lt;br&gt;Location: 1925535 - 1926336" locus_tag="MFKKBJ_09100" class="clusterblast-orf" id="dummy-3_q34_0_all"  />
<polygon points="716,40 719,35 716,30 716,40 " style="fill:#a3d815; stroke-width:1; stroke:black; " description="&lt;b&gt;MFKKBJ_09105&lt;/b&gt;&lt;br&gt;Small integral membrane protein&lt;br&gt;Location: 1926346 - 1926619" locus_tag="MFKKBJ_09105" class="clusterblast-orf" id="dummy-3_q35_0_all"  />
<polygon points="719,40 733,40 738,35 733,30 719,30 719,40 " style="fill:#15d8c7; stroke-width:1; stroke:black; " description="&lt;b&gt;MFKKBJ_09110&lt;/b&gt;&lt;br&gt;ABC transporter substrate-binding protein&lt;br&gt;Location: 1926651 - 1928394" locus_tag="MFKKBJ_09110" class="clusterblast-orf" id="dummy-3_q36_0_all"  />
<polygon points="743,40 752,40 757,35 752,30 743,30 743,40 " style="fill:#5c15d8; stroke-width:1; stroke:black; " description="&lt;b&gt;MFKKBJ_09115&lt;/b&gt;&lt;br&gt;Iron-containing redox enzyme family protein&lt;br&gt;Location: 1928831 - 1930211" locus_tag="MFKKBJ_09115" class="clusterblast-orf" id="dummy-3_q37_0_all"  />
<polygon points="758,40 763,40 768,35 763,30 758,30 758,40 " style="fill:#d81539; stroke-width:1; stroke:black; " description="&lt;b&gt;MFKKBJ_09120&lt;/b&gt;&lt;br&gt;Release factor glutamine methyltransferase&lt;br&gt;Location: 1930221 - 1931166" locus_tag="MFKKBJ_09120" class="clusterblast-orf" id="dummy-3_q38_0_all"  />
<polygon points="768,40 775,40 780,35 775,30 768,30 768,40 " style="fill:#80d815; stroke-width:1; stroke:black; " description="&lt;b&gt;MFKKBJ_09125&lt;/b&gt;&lt;br&gt;carboxylate-amine ligase&lt;br&gt;Location: 1931172 - 1932291" locus_tag="MFKKBJ_09125" class="clusterblast-orf" id="dummy-3_q39_0_all"  />
</g>
<g label="NZ_CP022198" description="NZ_CP022198 (4054644-4128108): Pseudomonas oryzihabitans strain MS8 chromosome (29% of genes show similarity), NRP-metallophore,NRPS" class="clusterblast-cluster"  >
<text x="5" y="70" class="clusterblast-acc"  >
<a xlink:href="https://antismash-db.secondarymetabolites.org/area?record=NZ_CP022198&amp;start=4054644&amp;end=4128108" target="_blank">NZ_CP022198 (4054644-4128108)</a>: Pseudomonas oryzihabitans strain MS8 chromosome (29% of genes show similarity), NRP-metallophore,NRPS</text>
<line x1="10" y1="85" x2="778.0" y2="85" style="stroke-width:1; stroke:grey; "  />
</g>
<g id="a3_000"  >
<polygon points="9,90 13,85 9,80 9,90 " style="fill:white; stroke-width:1; stroke:black; " description="&lt;b&gt;CE139_RS18965&lt;/b&gt;&lt;br&gt;response regulator&lt;br&gt;Location: 4126169 - 4125810" locus_tag="CE139_RS18965" class="clusterblast-orf" id="dummy-3_h3_9_0"  />
</g>
<g id="a3_001"  >
<polygon points="15,90 19,85 15,80 15,90 " style="fill:white; stroke-width:1; stroke:black; " description="&lt;b&gt;CE139_RS18960&lt;/b&gt;&lt;br&gt;response regulator&lt;br&gt;Location: 4125629 - 4125261" locus_tag="CE139_RS18960" class="clusterblast-orf" id="dummy-3_h3_9_1"  />
</g>
<g id="a3_002"  >
<polygon points="24,85 29,80 39,80 39,90 29,90 24,85 " style="fill:white; stroke-width:1; stroke:black; " description="&lt;b&gt;CE139_RS18955&lt;/b&gt;&lt;br&gt;IS3 family transposase&lt;br&gt;Location: 4124771 - 4123398" locus_tag="CE139_RS18955" class="clusterblast-orf" id="dummy-3_h3_9_2"  />
</g>
<g id="a3_003"  >
<polygon points="42,85 47,80 47,80 47,90 47,90 42,85 " style="fill:white; stroke-width:1; stroke:black; " description="&lt;b&gt;CE139_RS18950&lt;/b&gt;&lt;br&gt;DNA topoisomerase&lt;br&gt;Location: 4123052 - 4122625" locus_tag="CE139_RS18950" class="clusterblast-orf" id="dummy-3_h3_9_3"  />
</g>
<g id="a3_004"  >
<polygon points="52,90 58,90 63,85 58,80 52,80 52,90 " style="fill:white; stroke-width:1; stroke:black; " description="&lt;b&gt;CE139_RS18945&lt;/b&gt;&lt;br&gt;glycoside hydrolase family 5 protein&lt;br&gt;Location: 4122155 - 4121115" locus_tag="CE139_RS18945" class="clusterblast-orf" id="dummy-3_h3_9_4"  />
</g>
<g id="a3_005"  >
<polygon points="75,85 76,80 76,90 75,85 " style="fill:white; stroke-width:1; stroke:black; " description="&lt;b&gt;CE139_RS18940&lt;/b&gt;&lt;br&gt;hypothetical protein&lt;br&gt;Location: 4120033 - 4119896" locus_tag="CE139_RS18940" class="clusterblast-orf" id="dummy-3_h3_9_5"  />
</g>
<g id="a3_006"  >
<polygon points="84,85 89,80 92,80 92,90 89,90 84,85 " style="fill:white; stroke-width:1; stroke:black; " description="&lt;b&gt;CE139_RS18935&lt;/b&gt;&lt;br&gt;response regulator&lt;br&gt;Location: 4119109 - 4118375" locus_tag="CE139_RS18935" class="clusterblast-orf" id="dummy-3_h3_9_6"  />
</g>
<g id="a3_007"  >
<polygon points="99,90 99,90 104,85 99,80 99,80 99,90 " style="fill:white; stroke-width:1; stroke:black; " description="&lt;b&gt;CE139_RS18930&lt;/b&gt;&lt;br&gt;GspH/FimT family pseudopilin&lt;br&gt;Location: 4117759 - 4117244" locus_tag="CE139_RS18930" class="clusterblast-orf" id="dummy-3_h3_9_7"  />
</g>
<g id="a3_008"  >
<polygon points="104,90 106,90 111,85 106,80 104,80 104,90 " style="fill:white; stroke-width:1; stroke:black; " description="&lt;b&gt;CE139_RS18925&lt;/b&gt;&lt;br&gt;type IV pilus modification protein PilV&lt;br&gt;Location: 4117247 - 4116663" locus_tag="CE139_RS18925" class="clusterblast-orf" id="dummy-3_h3_9_8"  />
</g>
<g id="a3_009"  >
<polygon points="111,90 113,90 118,85 113,80 111,80 111,90 " style="fill:white; stroke-width:1; stroke:black; " description="&lt;b&gt;CE139_RS18920&lt;/b&gt;&lt;br&gt;prepilin-type N-terminal cleavage/methylation domain-containing protein&lt;br&gt;Location: 4116666 - 4115941" locus_tag="CE139_RS18920" class="clusterblast-orf" id="dummy-3_h3_9_9"  />
</g>
<g id="a3_0010"  >
<polygon points="118,90 120,90 125,85 120,80 118,80 118,90 " style="fill:white; stroke-width:1; stroke:black; " description="&lt;b&gt;CE139_RS18915&lt;/b&gt;&lt;br&gt;PilX N-terminal domain-containing pilus assembly protein&lt;br&gt;Location: 4115944 - 4115351" locus_tag="CE139_RS18915" class="clusterblast-orf" id="dummy-3_h3_9_10"  />
</g>
<g id="a3_0011"  >
<polygon points="125,90 158,90 163,85 158,80 125,80 125,90 " style="fill:white; stroke-width:1; stroke:black; " description="&lt;b&gt;CE139_RS18910&lt;/b&gt;&lt;br&gt;PilC/PilY family type IV pilus protein&lt;br&gt;Location: 4115354 - 4111725" locus_tag="CE139_RS18910" class="clusterblast-orf" id="dummy-3_h3_9_11"  />
</g>
<g id="a3_0012"  >
<polygon points="163,90 163,90 168,85 163,80 163,80 163,90 " style="fill:white; stroke-width:1; stroke:black; " description="&lt;b&gt;CE139_RS18905&lt;/b&gt;&lt;br&gt;type IV pilin protein&lt;br&gt;Location: 4111713 - 4111282" locus_tag="CE139_RS18905" class="clusterblast-orf" id="dummy-3_h3_9_12"  />
</g>
<g id="a3_0013"  >
<polygon points="183,85 188,80 189,80 189,90 188,90 183,85 " style="fill:white; stroke-width:1; stroke:black; " description="&lt;b&gt;CE139_RS18900&lt;/b&gt;&lt;br&gt;RNA polymerase factor sigma-70&lt;br&gt;Location: 4109863 - 4109312" locus_tag="CE139_RS18900" class="clusterblast-orf" id="dummy-3_h3_9_13"  />
</g>
<g id="a3_0014"  >
<polygon points="192,90 194,85 192,80 192,90 " style="fill:white; stroke-width:1; stroke:black; " description="&lt;b&gt;CE139_RS18895&lt;/b&gt;&lt;br&gt;MbtH family protein&lt;br&gt;Location: 4109049 - 4108834" locus_tag="CE139_RS18895" class="clusterblast-orf" id="dummy-3_h3_9_14"  />
</g>
<g id="a3_0015"  >
<polygon points="194,90 197,90 202,85 197,80 194,80 194,90 " style="fill:#155cd8; stroke-width:1; stroke:black; " description="&lt;b&gt;CE139_RS18890&lt;/b&gt;&lt;br&gt;alpha/beta fold hydrolase&lt;br&gt;Location: 4108830 - 4108105&lt;br&gt;&lt;br&gt;&lt;b&gt;BlastP hit with MFKKBJ_09010&lt;/b&gt;&lt;br&gt;Percentage identity: 50&lt;br&gt;Percentage coverage: 92&lt;br&gt;BLAST bit score: 204&lt;br&gt;E-value: 1.32e-63" locus_tag="CE139_RS18890" class="clusterblast-orf" id="dummy-3_h3_9_15"  />
</g>
<g id="a3_0016"  >
<polygon points="202,90 207,90 212,85 207,80 202,80 202,90 " style="fill:#d815c7; stroke-width:1; stroke:black; " description="&lt;b&gt;CE139_RS18885&lt;/b&gt;&lt;br&gt;TauD/TfdA family dioxygenase&lt;br&gt;Location: 4108108 - 4107122&lt;br&gt;&lt;br&gt;&lt;b&gt;BlastP hit with MFKKBJ_09015&lt;/b&gt;&lt;br&gt;Percentage identity: 69&lt;br&gt;Percentage coverage: 97&lt;br&gt;BLAST bit score: 453&lt;br&gt;E-value: 2.16e-159" locus_tag="CE139_RS18885" class="clusterblast-orf" id="dummy-3_h3_9_16"  />
</g>
<g id="a3_0017"  >
<polygon points="213,90 264,90 269,85 264,80 213,80 213,90 " style="fill:#d815c7; stroke-width:1; stroke:black; " description="&lt;b&gt;CE139_RS18880&lt;/b&gt;&lt;br&gt;non-ribosomal peptide synthetase&lt;br&gt;Location: 4107072 - 4101853&lt;br&gt;&lt;br&gt;&lt;b&gt;BlastP hit with MFKKBJ_09020&lt;/b&gt;&lt;br&gt;Percentage identity: 44&lt;br&gt;Percentage coverage: 74&lt;br&gt;BLAST bit score: 766&lt;br&gt;E-value: 1.15e-246&lt;br&gt;&lt;br&gt;&lt;b&gt;BlastP hit with MFKKBJ_09040&lt;/b&gt;&lt;br&gt;Percentage identity: 38&lt;br&gt;Percentage coverage: 80&lt;br&gt;BLAST bit score: 557&lt;br&gt;E-value: 7.23e-170" locus_tag="CE139_RS18880" class="clusterblast-orf" id="dummy-3_h3_9_17"  />
</g>
<g id="a3_0018"  >
<polygon points="269,90 372,90 377,85 372,80 269,80 269,90 " style="fill:#d815c7; stroke-width:1; stroke:black; " description="&lt;b&gt;CE139_RS18875&lt;/b&gt;&lt;br&gt;non-ribosomal peptide synthetase&lt;br&gt;Location: 4101856 - 4091685&lt;br&gt;&lt;br&gt;&lt;b&gt;BlastP hit with MFKKBJ_09020&lt;/b&gt;&lt;br&gt;Percentage identity: 32&lt;br&gt;Percentage coverage: 68&lt;br&gt;BLAST bit score: 365&lt;br&gt;E-value: 8.36e-101&lt;br&gt;&lt;br&gt;&lt;b&gt;BlastP hit with MFKKBJ_09025&lt;/b&gt;&lt;br&gt;Percentage identity: 35&lt;br&gt;Percentage coverage: 85&lt;br&gt;BLAST bit score: 343&lt;br&gt;E-value: 2.35e-96&lt;br&gt;&lt;br&gt;&lt;b&gt;BlastP hit with MFKKBJ_09030&lt;/b&gt;&lt;br&gt;Percentage identity: 43&lt;br&gt;Percentage coverage: 92&lt;br&gt;BLAST bit score: 1536&lt;br&gt;E-value: 0.0&lt;br&gt;&lt;br&gt;&lt;b&gt;BlastP hit with MFKKBJ_09035&lt;/b&gt;&lt;br&gt;Percentage identity: 36&lt;br&gt;Percentage coverage: 95&lt;br&gt;BLAST bit score: 1809&lt;br&gt;E-value: 0.0&lt;br&gt;&lt;br&gt;&lt;b&gt;BlastP hit with MFKKBJ_09040&lt;/b&gt;&lt;br&gt;Percentage identity: 43&lt;br&gt;Percentage coverage: 78&lt;br&gt;BLAST bit score: 672&lt;br&gt;E-value: 7.15e-205" locus_tag="CE139_RS18875" class="clusterblast-orf" id="dummy-3_h3_9_18"  />
</g>
<g id="a3_0019"  >
<polygon points="378,90 433,90 438,85 433,80 378,80 378,90 " style="fill:#d815c7; stroke-width:1; stroke:black; " description="&lt;b&gt;CE139_RS18870&lt;/b&gt;&lt;br&gt;non-ribosomal peptide synthetase&lt;br&gt;Location: 4091584 - 4085972&lt;br&gt;&lt;br&gt;&lt;b&gt;BlastP hit with MFKKBJ_09025&lt;/b&gt;&lt;br&gt;Percentage identity: 33&lt;br&gt;Percentage coverage: 85&lt;br&gt;BLAST bit score: 333&lt;br&gt;E-value: 2.51e-93&lt;br&gt;&lt;br&gt;&lt;b&gt;BlastP hit with MFKKBJ_09035&lt;/b&gt;&lt;br&gt;Percentage identity: 41&lt;br&gt;Percentage coverage: 57&lt;br&gt;BLAST bit score: 1444&lt;br&gt;E-value: 0.0" locus_tag="CE139_RS18870" class="clusterblast-orf" id="dummy-3_h3_9_19"  />
</g>
<g id="a3_0020"  >
<polygon points="438,90 443,90 448,85 443,80 438,80 438,90 " style="fill:white; stroke-width:1; stroke:black; " description="&lt;b&gt;CE139_RS18865&lt;/b&gt;&lt;br&gt;alpha/beta hydrolase&lt;br&gt;Location: 4085940 - 4084996" locus_tag="CE139_RS18865" class="clusterblast-orf" id="dummy-3_h3_9_20"  />
</g>
<g id="a3_0021"  >
<polygon points="448,85 453,80 469,80 469,90 453,90 448,85 " style="fill:#c715d8; stroke-width:1; stroke:black; " description="&lt;b&gt;CE139_RS18860&lt;/b&gt;&lt;br&gt;Fe(3+)-hydroxamate ABC transporter permease FhuB&lt;br&gt;Location: 4085041 - 4083047&lt;br&gt;&lt;br&gt;&lt;b&gt;BlastP hit with MFKKBJ_08995&lt;/b&gt;&lt;br&gt;Percentage identity: 51&lt;br&gt;Percentage coverage: 99&lt;br&gt;BLAST bit score: 522&lt;br&gt;E-value: 2.83e-176" locus_tag="CE139_RS18860" class="clusterblast-orf" id="dummy-3_h3_9_21"  />
</g>
<g id="a3_0022"  >
<polygon points="469,85 474,80 479,80 479,90 474,90 469,85 " style="fill:#d88015; stroke-width:1; stroke:black; " description="&lt;b&gt;CE139_RS18855&lt;/b&gt;&lt;br&gt;ABC transporter substrate-binding protein&lt;br&gt;Location: 4083054 - 4082161&lt;br&gt;&lt;br&gt;&lt;b&gt;BlastP hit with MFKKBJ_09000&lt;/b&gt;&lt;br&gt;Percentage identity: 45&lt;br&gt;Percentage coverage: 86&lt;br&gt;BLAST bit score: 192&lt;br&gt;E-value: 1.48e-57" locus_tag="CE139_RS18855" class="clusterblast-orf" id="dummy-3_h3_9_22"  />
</g>
<g id="a3_0023"  >
<polygon points="480,85 485,80 505,80 505,90 485,90 480,85 " style="fill:#15d815; stroke-width:1; stroke:black; " description="&lt;b&gt;CE139_RS18850&lt;/b&gt;&lt;br&gt;TonB-dependent siderophore receptor&lt;br&gt;Location: 4082078 - 4079661&lt;br&gt;&lt;br&gt;&lt;b&gt;BlastP hit with MFKKBJ_08985&lt;/b&gt;&lt;br&gt;Percentage identity: 38&lt;br&gt;Percentage coverage: 97&lt;br&gt;BLAST bit score: 414&lt;br&gt;E-value: 8.56e-132" locus_tag="CE139_RS18850" class="clusterblast-orf" id="dummy-3_h3_9_23"  />
</g>
<g id="a3_0024"  >
<polygon points="507,85 512,80 525,80 525,90 512,90 507,85 " style="fill:#15d839; stroke-width:1; stroke:black; " description="&lt;b&gt;CE139_RS18845&lt;/b&gt;&lt;br&gt;cyclic peptide export ABC transporter&lt;br&gt;Location: 4079500 - 4077824&lt;br&gt;&lt;br&gt;&lt;b&gt;BlastP hit with MFKKBJ_09005&lt;/b&gt;&lt;br&gt;Percentage identity: 42&lt;br&gt;Percentage coverage: 96&lt;br&gt;BLAST bit score: 363&lt;br&gt;E-value: 2.54e-117" locus_tag="CE139_RS18845" class="clusterblast-orf" id="dummy-3_h3_9_24"  />
</g>
<g id="a3_0025"  >
<polygon points="526,85 531,80 537,80 537,90 531,90 526,85 " style="fill:white; stroke-width:1; stroke:black; " description="&lt;b&gt;CE139_RS18840&lt;/b&gt;&lt;br&gt;FecR family protein&lt;br&gt;Location: 4077694 - 4076744" locus_tag="CE139_RS18840" class="clusterblast-orf" id="dummy-3_h3_9_25"  />
</g>
<g id="a3_0026"  >
<polygon points="538,90 538,90 543,85 538,80 538,80 538,90 " style="fill:white; stroke-width:1; stroke:black; " description="&lt;b&gt;CE139_RS18835&lt;/b&gt;&lt;br&gt;sigma-70 family RNA polymerase sigma factor&lt;br&gt;Location: 4076622 - 4076149" locus_tag="CE139_RS18835" class="clusterblast-orf" id="dummy-3_h3_9_26"  />
</g>
<g id="a3_0027"  >
<polygon points="545,90 554,90 559,85 554,80 545,80 545,90 " style="fill:#d8a315; stroke-width:1; stroke:black; " description="&lt;b&gt;CE139_RS18830&lt;/b&gt;&lt;br&gt;SidA/IucD/PvdA family monooxygenase&lt;br&gt;Location: 4075985 - 4074645&lt;br&gt;&lt;br&gt;&lt;b&gt;BlastP hit with MFKKBJ_09045&lt;/b&gt;&lt;br&gt;Percentage identity: 67&lt;br&gt;Percentage coverage: 96&lt;br&gt;BLAST bit score: 580&lt;br&gt;E-value: 1.2e-205" locus_tag="CE139_RS18830" class="clusterblast-orf" id="dummy-3_h3_9_27"  />
</g>
<g id="a3_0028"  >
<polygon points="560,90 568,90 573,85 568,80 560,80 560,90 " style="fill:white; stroke-width:1; stroke:black; " description="&lt;b&gt;CE139_RS18825&lt;/b&gt;&lt;br&gt;alpha/beta hydrolase&lt;br&gt;Location: 4074583 - 4073291" locus_tag="CE139_RS18825" class="clusterblast-orf" id="dummy-3_h3_9_28"  />
</g>
<g id="a3_0029"  >
<polygon points="574,90 579,90 584,85 579,80 574,80 574,90 " style="fill:#1580d8; stroke-width:1; stroke:black; " description="&lt;b&gt;CE139_RS18820&lt;/b&gt;&lt;br&gt;acetyltransferase&lt;br&gt;Location: 4073234 - 4072251&lt;br&gt;&lt;br&gt;&lt;b&gt;BlastP hit with MFKKBJ_08990&lt;/b&gt;&lt;br&gt;Percentage identity: 54&lt;br&gt;Percentage coverage: 67&lt;br&gt;BLAST bit score: 269&lt;br&gt;E-value: 1.45e-86" locus_tag="CE139_RS18820" class="clusterblast-orf" id="dummy-3_h3_9_29"  />
</g>
<g id="a3_0030"  >
<polygon points="585,85 590,80 593,80 593,90 590,90 585,85 " style="fill:#1539d8; stroke-width:1; stroke:black; " description="&lt;b&gt;CE139_RS18815&lt;/b&gt;&lt;br&gt;ATP-binding cassette domain-containing protein&lt;br&gt;Location: 4072221 - 4071454&lt;br&gt;&lt;br&gt;&lt;b&gt;BlastP hit with MFKKBJ_09055&lt;/b&gt;&lt;br&gt;Percentage identity: 74&lt;br&gt;Percentage coverage: 100&lt;br&gt;BLAST bit score: 379&lt;br&gt;E-value: 1.67e-132" locus_tag="CE139_RS18815" class="clusterblast-orf" id="dummy-3_h3_9_30"  />
</g>
<g id="a3_0031"  >
<polygon points="596,90 599,90 604,85 599,80 596,80 596,90 " style="fill:#15d85c; stroke-width:1; stroke:black; " description="&lt;b&gt;CE139_RS18810&lt;/b&gt;&lt;br&gt;siderophore-iron reductase FhuF&lt;br&gt;Location: 4071172 - 4070429&lt;br&gt;&lt;br&gt;&lt;b&gt;BlastP hit with MFKKBJ_09050&lt;/b&gt;&lt;br&gt;Percentage identity: 42&lt;br&gt;Percentage coverage: 102&lt;br&gt;BLAST bit score: 171&lt;br&gt;E-value: 1.65e-50" locus_tag="CE139_RS18810" class="clusterblast-orf" id="dummy-3_h3_9_31"  />
</g>
<g id="a3_0032"  >
<polygon points="606,85 611,80 625,80 625,90 611,90 606,85 " style="fill:white; stroke-width:1; stroke:black; " description="&lt;b&gt;CE139_RS18805&lt;/b&gt;&lt;br&gt;ATP-dependent helicase&lt;br&gt;Location: 4070205 - 4068409" locus_tag="CE139_RS18805" class="clusterblast-orf" id="dummy-3_h3_9_32"  />
</g>
<g id="a3_0033"  >
<polygon points="625,85 630,80 648,80 648,90 630,90 625,85 " style="fill:white; stroke-width:1; stroke:black; " description="&lt;b&gt;CE139_RS18800&lt;/b&gt;&lt;br&gt;AAA family ATPase&lt;br&gt;Location: 4068408 - 4066273" locus_tag="CE139_RS18800" class="clusterblast-orf" id="dummy-3_h3_9_33"  />
</g>
<g id="a3_0034"  >
<polygon points="653,85 655,80 655,90 653,85 " style="fill:white; stroke-width:1; stroke:black; " description="&lt;b&gt;CE139_RS18795&lt;/b&gt;&lt;br&gt;hypothetical protein&lt;br&gt;Location: 4065841 - 4065620" locus_tag="CE139_RS18795" class="clusterblast-orf" id="dummy-3_h3_9_34"  />
</g>
<g id="a3_0035"  >
<polygon points="657,85 662,80 672,80 672,90 662,90 657,85 " style="fill:#15d880; stroke-width:1; stroke:black; " description="&lt;b&gt;CE139_RS18790&lt;/b&gt;&lt;br&gt;PAS domain-containing methyl-accepting chemotaxis protein&lt;br&gt;Location: 4065410 - 4064094&lt;br&gt;&lt;br&gt;&lt;b&gt;BlastP hit with MFKKBJ_09070&lt;/b&gt;&lt;br&gt;Percentage identity: 52&lt;br&gt;Percentage coverage: 100&lt;br&gt;BLAST bit score: 407&lt;br&gt;E-value: 9.63e-138" locus_tag="CE139_RS18790" class="clusterblast-orf" id="dummy-3_h3_9_35"  />
</g>
<g id="a3_0036"  >
<polygon points="678,90 686,90 691,85 686,80 678,80 678,90 " style="fill:white; stroke-width:1; stroke:black; " description="&lt;b&gt;CE139_RS18785&lt;/b&gt;&lt;br&gt;hypothetical protein&lt;br&gt;Location: 4063498 - 4062293" locus_tag="CE139_RS18785" class="clusterblast-orf" id="dummy-3_h3_9_36"  />
</g>
<g id="a3_0037"  >
<polygon points="696,90 697,85 696,80 696,90 " style="fill:white; stroke-width:1; stroke:black; " description="&lt;b&gt;CE139_RS18780&lt;/b&gt;&lt;br&gt;hypothetical protein&lt;br&gt;Location: 4061845 - 4061663" locus_tag="CE139_RS18780" class="clusterblast-orf" id="dummy-3_h3_9_37"  />
</g>
<g id="a3_0038"  >
<polygon points="698,90 700,85 698,80 698,90 " style="fill:white; stroke-width:1; stroke:black; " description="&lt;b&gt;CE139_RS18775&lt;/b&gt;&lt;br&gt;hypothetical protein&lt;br&gt;Location: 4061612 - 4061406" locus_tag="CE139_RS18775" class="clusterblast-orf" id="dummy-3_h3_9_38"  />
</g>
<g id="a3_0039"  >
<polygon points="708,85 713,80 714,80 714,90 713,90 708,85 " style="fill:white; stroke-width:1; stroke:black; " description="&lt;b&gt;CE139_RS18765&lt;/b&gt;&lt;br&gt;HNH endonuclease&lt;br&gt;Location: 4060680 - 4060093" locus_tag="CE139_RS18765" class="clusterblast-orf" id="dummy-3_h3_9_39"  />
</g>
<g id="a3_0040"  >
<polygon points="714,85 717,80 717,90 714,85 " style="fill:white; stroke-width:1; stroke:black; " description="&lt;b&gt;CE139_RS18760&lt;/b&gt;&lt;br&gt;S49 family peptidase&lt;br&gt;Location: 4060087 - 4059851" locus_tag="CE139_RS18760" class="clusterblast-orf" id="dummy-3_h3_9_40"  />
</g>
<g id="a3_0041"  >
<polygon points="725,85 729,80 729,90 725,85 " style="fill:white; stroke-width:1; stroke:black; " description="&lt;b&gt;CE139_RS18755&lt;/b&gt;&lt;br&gt;DNA binding protein&lt;br&gt;Location: 4059083 - 4058700" locus_tag="CE139_RS18755" class="clusterblast-orf" id="dummy-3_h3_9_41"  />
</g>
<g id="a3_0042"  >
<polygon points="731,90 734,90 739,85 734,80 731,80 731,90 " style="fill:white; stroke-width:1; stroke:black; " description="&lt;b&gt;CE139_RS18750&lt;/b&gt;&lt;br&gt;hypothetical protein&lt;br&gt;Location: 4058511 - 4057795" locus_tag="CE139_RS18750" class="clusterblast-orf" id="dummy-3_h3_9_42"  />
</g>
<g id="a3_0043"  >
<polygon points="739,90 740,85 739,80 739,90 " style="fill:white; stroke-width:1; stroke:black; " description="&lt;b&gt;CE139_RS25415&lt;/b&gt;&lt;br&gt;hypothetical protein&lt;br&gt;Location: 4057753 - 4057631" locus_tag="CE139_RS25415" class="clusterblast-orf" id="dummy-3_h3_9_43"  />
</g>
<g id="a3_0044"  >
<polygon points="741,90 745,90 750,85 745,80 741,80 741,90 " style="fill:white; stroke-width:1; stroke:black; " description="&lt;b&gt;CE139_RS18745&lt;/b&gt;&lt;br&gt;hypothetical protein&lt;br&gt;Location: 4057611 - 4056724" locus_tag="CE139_RS18745" class="clusterblast-orf" id="dummy-3_h3_9_44"  />
</g>
<g id="a3_0045"  >
<polygon points="754,90 757,85 754,80 754,90 " style="fill:white; stroke-width:1; stroke:black; " description="&lt;b&gt;CE139_RS18740&lt;/b&gt;&lt;br&gt;hypothetical protein&lt;br&gt;Location: 4056371 - 4056087" locus_tag="CE139_RS18740" class="clusterblast-orf" id="dummy-3_h3_9_45"  />
</g>
<g id="a3_0046"  >
<polygon points="768,90 770,85 768,80 768,90 " style="fill:white; stroke-width:1; stroke:black; " description="&lt;b&gt;CE139_RS18735&lt;/b&gt;&lt;br&gt;hypothetical protein&lt;br&gt;Location: 4055031 - 4054876" locus_tag="CE139_RS18735" class="clusterblast-orf" id="dummy-3_h3_9_46"  />
</g>
</svg>
