<svg xmlns="http://www.w3.org/2000/svg" xmlns:xlink="http://www.w3.org/1999/xlink" version="1.1" x="0" y="0" height="230" width="800" viewBox="0 0 800 230" preserveAspectRatio="none"  >
<g label="Query sequence" class="clusterblast-cluster"  >
<text x="5" y="20" class="clusterblast-acc"  >
Query sequence</text>
<line x1="10" y1="35" x2="778.0" y2="35" style="stroke-width:1; stroke:grey; "  />
<polygon points="341,35 346,30 348,30 348,40 346,40 341,35 " style="fill:#d81515; stroke-width:1; stroke:black; " description="&lt;b&gt;MFKKBJ_13420&lt;/b&gt;&lt;br&gt;IclR family transcriptional regulator&lt;br&gt;Location: 2932067 - 2932886" locus_tag="MFKKBJ_13420" class="clusterblast-orf" id="dummy-5_q0_0_all"  />
<polygon points="350,40 354,40 359,35 354,30 350,30 350,40 " style="fill:#77d815; stroke-width:1; stroke:black; " description="&lt;b&gt;MFKKBJ_13425&lt;/b&gt;&lt;br&gt;Iron(III) transport system ATP-binding&lt;br&gt;Location: 2933126 - 2934155" locus_tag="MFKKBJ_13425" class="clusterblast-orf" id="dummy-5_q1_0_all"  />
<polygon points="359,40 362,40 367,35 362,30 359,30 359,40 " style="fill:#15d8d8; stroke-width:1; stroke:black; " description="&lt;b&gt;MFKKBJ_13430&lt;/b&gt;&lt;br&gt;ABC transmembrane type-1 domain-containing protein&lt;br&gt;Location: 2934151 - 2934997" locus_tag="MFKKBJ_13430" class="clusterblast-orf" id="dummy-5_q2_0_all"  />
<polygon points="367,40 369,40 374,35 369,30 367,30 367,40 " style="fill:#7715d8; stroke-width:1; stroke:black; " description="&lt;b&gt;MFKKBJ_13435&lt;/b&gt;&lt;br&gt;ABC-type spermidine/putrescine transport system, permease component II&lt;br&gt;Location: 2935001 - 2935796" locus_tag="MFKKBJ_13435" class="clusterblast-orf" id="dummy-5_q3_0_all"  />
<polygon points="374,40 376,35 374,30 374,40 " style="fill:#d87715; stroke-width:1; stroke:black; " description="&lt;b&gt;MFKKBJ_13440&lt;/b&gt;&lt;br&gt;Ferredoxin&lt;br&gt;Location: 2935795 - 2936086" locus_tag="MFKKBJ_13440" class="clusterblast-orf" id="dummy-5_q4_0_all"  />
<polygon points="376,40 383,40 388,35 383,30 376,30 376,40 " style="fill:#15d815; stroke-width:1; stroke:black; " description="&lt;b&gt;MFKKBJ_13445&lt;/b&gt;&lt;br&gt;FAD/NAD(P)-binding oxidoreductase&lt;br&gt;Location: 2936082 - 2937426" locus_tag="MFKKBJ_13445" class="clusterblast-orf" id="dummy-5_q5_0_all"  />
<polygon points="388,40 393,40 398,35 393,30 388,30 388,40 " style="fill:#1577d8; stroke-width:1; stroke:black; " description="&lt;b&gt;MFKKBJ_13450&lt;/b&gt;&lt;br&gt;FAD dependent oxidoreductase domain-containing protein&lt;br&gt;Location: 2937422 - 2938520" locus_tag="MFKKBJ_13450" class="clusterblast-orf" id="dummy-5_q6_0_all"  />
<polygon points="398,40 402,40 407,35 402,30 398,30 398,40 " style="fill:#d815d8; stroke-width:1; stroke:black; " description="&lt;b&gt;MFKKBJ_13455&lt;/b&gt;&lt;br&gt;ABC transporter substrate-binding protein&lt;br&gt;Location: 2938534 - 2939566" locus_tag="MFKKBJ_13455" class="clusterblast-orf" id="dummy-5_q7_0_all"  />
<polygon points="407,35 412,30 414,30 414,40 412,40 407,35 " style="fill:#d8d815; stroke-width:1; stroke:black; " description="&lt;b&gt;MFKKBJ_13460&lt;/b&gt;&lt;br&gt;ammonia-dependent NAD(+) synthetase&lt;br&gt;Location: 2939566 - 2940376" locus_tag="MFKKBJ_13460" class="clusterblast-orf" id="dummy-5_q8_0_all"  />
<polygon points="414,35 419,30 425,30 425,40 419,40 414,35 " style="fill:#15d877; stroke-width:1; stroke:black; " description="&lt;b&gt;MFKKBJ_13465&lt;/b&gt;&lt;br&gt;nicotinate phosphoribosyltransferase&lt;br&gt;Location: 2940377 - 2941595" locus_tag="MFKKBJ_13465" class="clusterblast-orf" id="dummy-5_q9_0_all"  />
<polygon points="425,35 430,30 431,30 431,40 430,40 425,35 " style="fill:#1515d8; stroke-width:1; stroke:black; " description="&lt;b&gt;MFKKBJ_13470&lt;/b&gt;&lt;br&gt;Isochorismatase&lt;br&gt;Location: 2941606 - 2942254" locus_tag="MFKKBJ_13470" class="clusterblast-orf" id="dummy-5_q10_0_all"  />
<polygon points="432,40 432,40 437,35 432,30 432,30 432,40 " style="fill:#d81577; stroke-width:1; stroke:black; " description="&lt;b&gt;MFKKBJ_13475&lt;/b&gt;&lt;br&gt;NUDIX hydrolase&lt;br&gt;Location: 2942400 - 2942877" locus_tag="MFKKBJ_13475" class="clusterblast-orf" id="dummy-5_q11_0_all"  />
<polygon points="436,40 438,35 436,30 436,40 " style="fill:#d81577; stroke-width:1; stroke:black; " description="&lt;b&gt;MFKKBJ_13480&lt;/b&gt;&lt;br&gt;hypothetical protein&lt;br&gt;Location: 2942860 - 2943094" locus_tag="MFKKBJ_13480" class="clusterblast-orf" id="dummy-5_q12_0_all"  />
</g>
<g label="NZ_CP027762" description="NZ_CP027762 (3685515-3773877): Pseudomonas sp. LBUM920 chromosome, complete g... (21% of genes show similarity), NRP-metallophore,NRPS,hydrogen-cyanide" class="clusterblast-cluster"  >
<text x="5" y="70" class="clusterblast-acc"  >
<a xlink:href="https://antismash-db.secondarymetabolites.org/area?record=NZ_CP027762&amp;start=3685515&amp;end=3773877" target="_blank">NZ_CP027762 (3685515-3773877)</a>: Pseudomonas sp. LBUM920 chromosome, complete g... (21% of genes show similarity), NRP-metallophore,NRPS,hydrogen-cyanide</text>
<line x1="10" y1="85" x2="778.0" y2="85" style="stroke-width:1; stroke:grey; "  />
</g>
<g id="a5_000"  >
<polygon points="0,90 2,85 0,80 0,90 " style="fill:white; stroke-width:1; stroke:black; " description="&lt;b&gt;C4J83_RS17190&lt;/b&gt;&lt;br&gt;hypothetical protein&lt;br&gt;Location: 3685533 - 3685793" locus_tag="C4J83_RS17190" class="clusterblast-orf" id="dummy-5_h5_6_0"  />
</g>
<g id="a5_001"  >
<polygon points="3,85 8,80 10,80 10,90 8,90 3,85 " style="fill:white; stroke-width:1; stroke:black; " description="&lt;b&gt;C4J83_RS17195&lt;/b&gt;&lt;br&gt;HAD family hydrolase&lt;br&gt;Location: 3685878 - 3686702" locus_tag="C4J83_RS17195" class="clusterblast-orf" id="dummy-5_h5_6_1"  />
</g>
<g id="a5_002"  >
<polygon points="10,85 15,80 23,80 23,90 15,90 10,85 " style="fill:white; stroke-width:1; stroke:black; " description="&lt;b&gt;C4J83_RS17200&lt;/b&gt;&lt;br&gt;glucose-6-phosphate dehydrogenase&lt;br&gt;Location: 3686699 - 3688222" locus_tag="C4J83_RS17200" class="clusterblast-orf" id="dummy-5_h5_6_2"  />
</g>
<g id="a5_003"  >
<polygon points="23,85 28,80 32,80 32,90 28,90 23,85 " style="fill:white; stroke-width:1; stroke:black; " description="&lt;b&gt;C4J83_RS17205&lt;/b&gt;&lt;br&gt;decarboxylating 6-phosphogluconate dehydrogenase&lt;br&gt;Location: 3688219 - 3689202" locus_tag="C4J83_RS17205" class="clusterblast-orf" id="dummy-5_h5_6_3"  />
</g>
<g id="a5_004"  >
<polygon points="34,90 36,85 34,80 34,90 " style="fill:white; stroke-width:1; stroke:black; " description="&lt;b&gt;C4J83_RS30525&lt;/b&gt;&lt;br&gt;DUF6026 family protein&lt;br&gt;Location: 3689472 - 3689648" locus_tag="C4J83_RS30525" class="clusterblast-orf" id="dummy-5_h5_6_4"  />
</g>
<g id="a5_005"  >
<polygon points="37,90 48,90 53,85 48,80 37,80 37,90 " style="fill:white; stroke-width:1; stroke:black; " description="&lt;b&gt;C4J83_RS17210&lt;/b&gt;&lt;br&gt;phosphoethanolamine transferase CptA&lt;br&gt;Location: 3689800 - 3691542" locus_tag="C4J83_RS17210" class="clusterblast-orf" id="dummy-5_h5_6_5"  />
</g>
<g id="a5_006"  >
<polygon points="54,90 69,90 74,85 69,80 54,80 54,90 " style="fill:white; stroke-width:1; stroke:black; " description="&lt;b&gt;C4J83_RS17215&lt;/b&gt;&lt;br&gt;TonB-dependent siderophore receptor&lt;br&gt;Location: 3691670 - 3693906" locus_tag="C4J83_RS17215" class="clusterblast-orf" id="dummy-5_h5_6_6"  />
</g>
<g id="a5_007"  >
<polygon points="75,90 77,85 75,80 75,90 " style="fill:white; stroke-width:1; stroke:black; " description="&lt;b&gt;C4J83_RS17220&lt;/b&gt;&lt;br&gt;hypothetical protein&lt;br&gt;Location: 3694050 - 3694271" locus_tag="C4J83_RS17220" class="clusterblast-orf" id="dummy-5_h5_6_7"  />
</g>
<g id="a5_008"  >
<polygon points="78,85 83,80 88,80 88,90 83,90 78,85 " style="fill:white; stroke-width:1; stroke:black; " description="&lt;b&gt;C4J83_RS17225&lt;/b&gt;&lt;br&gt;cell division protein ZapE&lt;br&gt;Location: 3694444 - 3695550" locus_tag="C4J83_RS17225" class="clusterblast-orf" id="dummy-5_h5_6_8"  />
</g>
<g id="a5_009"  >
<polygon points="88,85 91,80 91,90 88,85 " style="fill:white; stroke-width:1; stroke:black; " description="&lt;b&gt;C4J83_RS17230&lt;/b&gt;&lt;br&gt;nuclear transport factor 2 family protein&lt;br&gt;Location: 3695566 - 3695901" locus_tag="C4J83_RS17230" class="clusterblast-orf" id="dummy-5_h5_6_9"  />
</g>
<g id="a5_0010"  >
<polygon points="92,85 97,80 98,80 98,90 97,90 92,85 " style="fill:white; stroke-width:1; stroke:black; " description="&lt;b&gt;C4J83_RS17235&lt;/b&gt;&lt;br&gt;YafY family transcriptional regulator&lt;br&gt;Location: 3695953 - 3696678" locus_tag="C4J83_RS17235" class="clusterblast-orf" id="dummy-5_h5_6_10"  />
</g>
<g id="a5_0011"  >
<polygon points="100,90 104,90 109,85 104,80 100,80 100,90 " style="fill:white; stroke-width:1; stroke:black; " description="&lt;b&gt;C4J83_RS17240&lt;/b&gt;&lt;br&gt;aldo/keto reductase&lt;br&gt;Location: 3696838 - 3697884" locus_tag="C4J83_RS17240" class="clusterblast-orf" id="dummy-5_h5_6_11"  />
</g>
<g id="a5_0012"  >
<polygon points="109,85 114,80 133,80 133,90 114,90 109,85 " style="fill:white; stroke-width:1; stroke:black; " description="&lt;b&gt;C4J83_RS17245&lt;/b&gt;&lt;br&gt;aminopeptidase N&lt;br&gt;Location: 3697931 - 3700588" locus_tag="C4J83_RS17245" class="clusterblast-orf" id="dummy-5_h5_6_12"  />
</g>
<g id="a5_0013"  >
<polygon points="133,85 138,80 140,80 140,90 138,90 133,85 " style="fill:white; stroke-width:1; stroke:black; " description="&lt;b&gt;C4J83_RS17250&lt;/b&gt;&lt;br&gt;DUF2797 domain-containing protein&lt;br&gt;Location: 3700602 - 3701432" locus_tag="C4J83_RS17250" class="clusterblast-orf" id="dummy-5_h5_6_13"  />
</g>
<g id="a5_0014"  >
<polygon points="140,85 143,80 143,90 140,85 " style="fill:white; stroke-width:1; stroke:black; " description="&lt;b&gt;C4J83_RS17255&lt;/b&gt;&lt;br&gt;DUF1315 family protein&lt;br&gt;Location: 3701429 - 3701689" locus_tag="C4J83_RS17255" class="clusterblast-orf" id="dummy-5_h5_6_14"  />
</g>
<g id="a5_0015"  >
<polygon points="143,85 148,80 150,80 150,90 148,90 143,85 " style="fill:white; stroke-width:1; stroke:black; " description="&lt;b&gt;C4J83_RS17260&lt;/b&gt;&lt;br&gt;rhomboid family intramembrane serine protease&lt;br&gt;Location: 3701704 - 3702573" locus_tag="C4J83_RS17260" class="clusterblast-orf" id="dummy-5_h5_6_15"  />
</g>
<g id="a5_0016"  >
<polygon points="150,85 155,80 159,80 159,90 155,90 150,85 " style="fill:white; stroke-width:1; stroke:black; " description="&lt;b&gt;C4J83_RS17265&lt;/b&gt;&lt;br&gt;metallophosphoesterase&lt;br&gt;Location: 3702570 - 3703544" locus_tag="C4J83_RS17265" class="clusterblast-orf" id="dummy-5_h5_6_16"  />
</g>
<g id="a5_0017"  >
<polygon points="159,85 164,80 167,80 167,90 164,90 159,85 " style="fill:white; stroke-width:1; stroke:black; " description="&lt;b&gt;C4J83_RS17270&lt;/b&gt;&lt;br&gt;NAD(+) kinase&lt;br&gt;Location: 3703541 - 3704431" locus_tag="C4J83_RS17270" class="clusterblast-orf" id="dummy-5_h5_6_17"  />
</g>
<g id="a5_0018"  >
<polygon points="168,90 172,90 177,85 172,80 168,80 168,90 " style="fill:white; stroke-width:1; stroke:black; " description="&lt;b&gt;C4J83_RS17275&lt;/b&gt;&lt;br&gt;DUF1853 family protein&lt;br&gt;Location: 3704576 - 3705523" locus_tag="C4J83_RS17275" class="clusterblast-orf" id="dummy-5_h5_6_18"  />
</g>
<g id="a5_0019"  >
<polygon points="177,85 182,80 191,80 191,90 182,90 177,85 " style="fill:white; stroke-width:1; stroke:black; " description="&lt;b&gt;C4J83_RS17280&lt;/b&gt;&lt;br&gt;PvdJ/PvdD/PvdP-like protein&lt;br&gt;Location: 3705516 - 3707135" locus_tag="C4J83_RS17280" class="clusterblast-orf" id="dummy-5_h5_6_19"  />
</g>
<g id="a5_0020"  >
<polygon points="192,90 199,90 204,85 199,80 192,80 192,90 " style="fill:white; stroke-width:1; stroke:black; " description="&lt;b&gt;C4J83_RS17285&lt;/b&gt;&lt;br&gt;pyoverdine-tailoring dipeptidase-like protein PvdM&lt;br&gt;Location: 3707278 - 3708627" locus_tag="C4J83_RS17285" class="clusterblast-orf" id="dummy-5_h5_6_20"  />
</g>
<g id="a5_0021"  >
<polygon points="204,90 211,90 216,85 211,80 204,80 204,90 " style="fill:white; stroke-width:1; stroke:black; " description="&lt;b&gt;C4J83_RS17290&lt;/b&gt;&lt;br&gt;aminotransferase class V-fold PLP-dependent enzyme&lt;br&gt;Location: 3708646 - 3709926" locus_tag="C4J83_RS17290" class="clusterblast-orf" id="dummy-5_h5_6_21"  />
</g>
<g id="a5_0022"  >
<polygon points="216,90 219,90 224,85 219,80 216,80 216,90 " style="fill:white; stroke-width:1; stroke:black; " description="&lt;b&gt;C4J83_RS17295&lt;/b&gt;&lt;br&gt;formylglycine-generating enzyme family protein&lt;br&gt;Location: 3709956 - 3710828" locus_tag="C4J83_RS17295" class="clusterblast-orf" id="dummy-5_h5_6_22"  />
</g>
<g id="a5_0023"  >
<polygon points="235,85 240,80 242,80 242,90 240,90 235,85 " style="fill:white; stroke-width:1; stroke:black; " description="&lt;b&gt;C4J83_RS17300&lt;/b&gt;&lt;br&gt;N(5)-hydroxyornithine transformylase PvdF&lt;br&gt;Location: 3712068 - 3712895" locus_tag="C4J83_RS17300" class="clusterblast-orf" id="dummy-5_h5_6_23"  />
</g>
<g id="a5_0024"  >
<polygon points="244,90 253,90 258,85 253,80 244,80 244,90 " style="fill:white; stroke-width:1; stroke:black; " description="&lt;b&gt;C4J83_RS17305&lt;/b&gt;&lt;br&gt;cyclic peptide export ABC transporter&lt;br&gt;Location: 3713094 - 3714746" locus_tag="C4J83_RS17305" class="clusterblast-orf" id="dummy-5_h5_6_24"  />
</g>
<g id="a5_0025"  >
<polygon points="259,90 276,90 281,85 276,80 259,80 259,90 " style="fill:white; stroke-width:1; stroke:black; " description="&lt;b&gt;C4J83_RS17310&lt;/b&gt;&lt;br&gt;TonB-dependent siderophore receptor&lt;br&gt;Location: 3714856 - 3717297" locus_tag="C4J83_RS17310" class="clusterblast-orf" id="dummy-5_h5_6_25"  />
</g>
<g id="a5_0026"  >
<polygon points="283,85 288,80 388,80 388,90 288,90 283,85 " style="fill:white; stroke-width:1; stroke:black; " description="&lt;b&gt;C4J83_RS17315&lt;/b&gt;&lt;br&gt;non-ribosomal peptide synthase/polyketide synthase&lt;br&gt;Location: 3717567 - 3729419" locus_tag="C4J83_RS17315" class="clusterblast-orf" id="dummy-5_h5_6_26"  />
</g>
<g id="a5_0027"  >
<polygon points="388,85 393,80 513,80 513,90 393,90 388,85 " style="fill:white; stroke-width:1; stroke:black; " description="&lt;b&gt;C4J83_RS17320&lt;/b&gt;&lt;br&gt;non-ribosomal peptide synthase/polyketide synthase&lt;br&gt;Location: 3729423 - 3743471" locus_tag="C4J83_RS17320" class="clusterblast-orf" id="dummy-5_h5_6_27"  />
</g>
<g id="a5_0028"  >
<polygon points="515,90 517,85 515,80 515,90 " style="fill:white; stroke-width:1; stroke:black; " description="&lt;b&gt;C4J83_RS17325&lt;/b&gt;&lt;br&gt;type II toxin-antitoxin system HicA family toxin&lt;br&gt;Location: 3743682 - 3743933" locus_tag="C4J83_RS17325" class="clusterblast-orf" id="dummy-5_h5_6_28"  />
</g>
<g id="a5_0029"  >
<polygon points="517,90 520,85 517,80 517,90 " style="fill:white; stroke-width:1; stroke:black; " description="&lt;b&gt;C4J83_RS17330&lt;/b&gt;&lt;br&gt;type II toxin-antitoxin system HicB family antitoxin&lt;br&gt;Location: 3743930 - 3744295" locus_tag="C4J83_RS17330" class="clusterblast-orf" id="dummy-5_h5_6_29"  />
</g>
<g id="a5_0030"  >
<polygon points="520,85 525,80 530,80 530,90 525,90 520,85 " style="fill:white; stroke-width:1; stroke:black; " description="&lt;b&gt;C4J83_RS17335&lt;/b&gt;&lt;br&gt;MFS transporter&lt;br&gt;Location: 3744296 - 3745468" locus_tag="C4J83_RS17335" class="clusterblast-orf" id="dummy-5_h5_6_30"  />
</g>
<g id="a5_0031"  >
<polygon points="532,90 532,90 537,85 532,80 532,80 532,90 " style="fill:white; stroke-width:1; stroke:black; " description="&lt;b&gt;C4J83_RS17340&lt;/b&gt;&lt;br&gt;TetR/AcrR family transcriptional regulator&lt;br&gt;Location: 3745610 - 3746209" locus_tag="C4J83_RS17340" class="clusterblast-orf" id="dummy-5_h5_6_31"  />
</g>
<g id="a5_0032"  >
<polygon points="537,85 542,80 549,80 549,90 542,90 537,85 " style="fill:white; stroke-width:1; stroke:black; " description="&lt;b&gt;C4J83_RS17345&lt;/b&gt;&lt;br&gt;MATE family efflux transporter&lt;br&gt;Location: 3746193 - 3747548" locus_tag="C4J83_RS17345" class="clusterblast-orf" id="dummy-5_h5_6_32"  />
</g>
<g id="a5_0033"  >
<polygon points="549,85 554,80 554,80 554,90 554,90 549,85 " style="fill:white; stroke-width:1; stroke:black; " description="&lt;b&gt;C4J83_RS17350&lt;/b&gt;&lt;br&gt;DUF2239 family protein&lt;br&gt;Location: 3747574 - 3748146" locus_tag="C4J83_RS17350" class="clusterblast-orf" id="dummy-5_h5_6_33"  />
</g>
<g id="a5_0034"  >
<polygon points="555,85 560,80 563,80 563,90 560,90 555,85 " style="fill:white; stroke-width:1; stroke:black; " description="&lt;b&gt;C4J83_RS17355&lt;/b&gt;&lt;br&gt;AAA family ATPase&lt;br&gt;Location: 3748214 - 3749170" locus_tag="C4J83_RS17355" class="clusterblast-orf" id="dummy-5_h5_6_34"  />
</g>
<g id="a5_0035"  >
<polygon points="563,85 568,80 573,80 573,90 568,90 563,85 " style="fill:white; stroke-width:1; stroke:black; " description="&lt;b&gt;C4J83_RS17360&lt;/b&gt;&lt;br&gt;aliphatic amidase&lt;br&gt;Location: 3749174 - 3750217" locus_tag="C4J83_RS17360" class="clusterblast-orf" id="dummy-5_h5_6_35"  />
</g>
<g id="a5_0036"  >
<polygon points="573,85 576,80 576,90 573,85 " style="fill:white; stroke-width:1; stroke:black; " description="&lt;b&gt;C4J83_RS17365&lt;/b&gt;&lt;br&gt;FmdB family transcriptional regulator&lt;br&gt;Location: 3750233 - 3750580" locus_tag="C4J83_RS17365" class="clusterblast-orf" id="dummy-5_h5_6_36"  />
</g>
<g id="a5_0037"  >
<polygon points="576,85 581,80 587,80 587,90 581,90 576,85 " style="fill:white; stroke-width:1; stroke:black; " description="&lt;b&gt;C4J83_RS17370&lt;/b&gt;&lt;br&gt;acetamidase/formamidase family protein&lt;br&gt;Location: 3750583 - 3751812" locus_tag="C4J83_RS17370" class="clusterblast-orf" id="dummy-5_h5_6_37"  />
</g>
<g id="a5_0038"  >
<polygon points="589,85 594,80 595,80 595,90 594,90 589,85 " style="fill:white; stroke-width:1; stroke:black; " description="&lt;b&gt;C4J83_RS17380&lt;/b&gt;&lt;br&gt;urea ABC transporter ATP-binding subunit UrtE&lt;br&gt;Location: 3752032 - 3752721" locus_tag="C4J83_RS17380" class="clusterblast-orf" id="dummy-5_h5_6_38"  />
</g>
<g id="a5_0039"  >
<polygon points="595,85 600,80 602,80 602,90 600,90 595,85 " style="fill:white; stroke-width:1; stroke:black; " description="&lt;b&gt;C4J83_RS17385&lt;/b&gt;&lt;br&gt;urea ABC transporter ATP-binding protein UrtD&lt;br&gt;Location: 3752732 - 3753490" locus_tag="C4J83_RS17385" class="clusterblast-orf" id="dummy-5_h5_6_39"  />
</g>
<g id="a5_0040"  >
<polygon points="602,85 607,80 612,80 612,90 607,90 602,85 " style="fill:white; stroke-width:1; stroke:black; " description="&lt;b&gt;C4J83_RS17390&lt;/b&gt;&lt;br&gt;urea ABC transporter permease subunit UrtC&lt;br&gt;Location: 3753487 - 3754650" locus_tag="C4J83_RS17390" class="clusterblast-orf" id="dummy-5_h5_6_40"  />
</g>
<g id="a5_0041"  >
<polygon points="612,85 617,80 620,80 620,90 617,90 612,85 " style="fill:white; stroke-width:1; stroke:black; " description="&lt;b&gt;C4J83_RS17395&lt;/b&gt;&lt;br&gt;urea ABC transporter permease subunit UrtB&lt;br&gt;Location: 3754661 - 3755578" locus_tag="C4J83_RS17395" class="clusterblast-orf" id="dummy-5_h5_6_41"  />
</g>
<g id="a5_0042"  >
<polygon points="622,85 627,80 632,80 632,90 627,90 622,85 " style="fill:white; stroke-width:1; stroke:black; " description="&lt;b&gt;C4J83_RS17400&lt;/b&gt;&lt;br&gt;urea ABC transporter substrate-binding protein&lt;br&gt;Location: 3755746 - 3756954" locus_tag="C4J83_RS17400" class="clusterblast-orf" id="dummy-5_h5_6_42"  />
</g>
<g id="a5_0043"  >
<polygon points="635,90 660,90 665,85 660,80 635,80 635,90 " style="fill:white; stroke-width:1; stroke:black; " description="&lt;b&gt;C4J83_RS17405&lt;/b&gt;&lt;br&gt;ATP-binding protein&lt;br&gt;Location: 3757266 - 3760649" locus_tag="C4J83_RS17405" class="clusterblast-orf" id="dummy-5_h5_6_43"  />
</g>
<g id="a5_0044"  >
<polygon points="665,90 666,90 671,85 666,80 665,80 665,90 " style="fill:white; stroke-width:1; stroke:black; " description="&lt;b&gt;C4J83_RS17410&lt;/b&gt;&lt;br&gt;response regulator&lt;br&gt;Location: 3760624 - 3761289" locus_tag="C4J83_RS17410" class="clusterblast-orf" id="dummy-5_h5_6_44"  />
</g>
<g id="a5_0045"  >
<polygon points="681,85 686,80 688,80 688,90 686,90 681,85 " style="fill:#d81515; stroke-width:1; stroke:black; " description="&lt;b&gt;C4J83_RS17425&lt;/b&gt;&lt;br&gt;IclR family transcriptional regulator&lt;br&gt;Location: 3762412 - 3763242&lt;br&gt;&lt;br&gt;&lt;b&gt;BlastP hit with MFKKBJ_13420&lt;/b&gt;&lt;br&gt;Percentage identity: 94&lt;br&gt;Percentage coverage: 101&lt;br&gt;BLAST bit score: 497&lt;br&gt;E-value: 1.71e-178" locus_tag="C4J83_RS17425" class="clusterblast-orf" id="dummy-5_h5_6_45"  />
</g>
<g id="a5_0046"  >
<polygon points="690,90 694,90 699,85 694,80 690,80 690,90 " style="fill:#77d815; stroke-width:1; stroke:black; " description="&lt;b&gt;C4J83_RS17430&lt;/b&gt;&lt;br&gt;ABC transporter ATP-binding protein&lt;br&gt;Location: 3763484 - 3764512&lt;br&gt;&lt;br&gt;&lt;b&gt;BlastP hit with MFKKBJ_13425&lt;/b&gt;&lt;br&gt;Percentage identity: 93&lt;br&gt;Percentage coverage: 100&lt;br&gt;BLAST bit score: 624&lt;br&gt;E-value: 1.67e-226" locus_tag="C4J83_RS17430" class="clusterblast-orf" id="dummy-5_h5_6_46"  />
</g>
<g id="a5_0047"  >
<polygon points="699,90 702,90 707,85 702,80 699,80 699,90 " style="fill:#15d8d8; stroke-width:1; stroke:black; " description="&lt;b&gt;C4J83_RS17435&lt;/b&gt;&lt;br&gt;ABC transporter permease&lt;br&gt;Location: 3764509 - 3765354&lt;br&gt;&lt;br&gt;&lt;b&gt;BlastP hit with MFKKBJ_13430&lt;/b&gt;&lt;br&gt;Percentage identity: 97&lt;br&gt;Percentage coverage: 100&lt;br&gt;BLAST bit score: 509&lt;br&gt;E-value: 5.57e-183" locus_tag="C4J83_RS17435" class="clusterblast-orf" id="dummy-5_h5_6_47"  />
</g>
<g id="a5_0048"  >
<polygon points="707,90 709,90 714,85 709,80 707,80 707,90 " style="fill:#7715d8; stroke-width:1; stroke:black; " description="&lt;b&gt;C4J83_RS17440&lt;/b&gt;&lt;br&gt;ABC transporter permease&lt;br&gt;Location: 3765359 - 3766153&lt;br&gt;&lt;br&gt;&lt;b&gt;BlastP hit with MFKKBJ_13435&lt;/b&gt;&lt;br&gt;Percentage identity: 98&lt;br&gt;Percentage coverage: 100&lt;br&gt;BLAST bit score: 473&lt;br&gt;E-value: 4.54e-169" locus_tag="C4J83_RS17440" class="clusterblast-orf" id="dummy-5_h5_6_48"  />
</g>
<g id="a5_0049"  >
<polygon points="714,90 716,85 714,80 714,90 " style="fill:#d87715; stroke-width:1; stroke:black; " description="&lt;b&gt;C4J83_RS17445&lt;/b&gt;&lt;br&gt;(2Fe-2S)-binding protein&lt;br&gt;Location: 3766153 - 3766443&lt;br&gt;&lt;br&gt;&lt;b&gt;BlastP hit with MFKKBJ_13440&lt;/b&gt;&lt;br&gt;Percentage identity: 95&lt;br&gt;Percentage coverage: 100&lt;br&gt;BLAST bit score: 188&lt;br&gt;E-value: 4.83e-62" locus_tag="C4J83_RS17445" class="clusterblast-orf" id="dummy-5_h5_6_49"  />
</g>
<g id="a5_0050"  >
<polygon points="716,90 723,90 728,85 723,80 716,80 716,90 " style="fill:#15d815; stroke-width:1; stroke:black; " description="&lt;b&gt;C4J83_RS17450&lt;/b&gt;&lt;br&gt;FAD-dependent oxidoreductase&lt;br&gt;Location: 3766440 - 3767783&lt;br&gt;&lt;br&gt;&lt;b&gt;BlastP hit with MFKKBJ_13445&lt;/b&gt;&lt;br&gt;Percentage identity: 86&lt;br&gt;Percentage coverage: 100&lt;br&gt;BLAST bit score: 763&lt;br&gt;E-value: 7.94e-278" locus_tag="C4J83_RS17450" class="clusterblast-orf" id="dummy-5_h5_6_50"  />
</g>
<g id="a5_0051"  >
<polygon points="728,90 733,90 738,85 733,80 728,80 728,90 " style="fill:#1577d8; stroke-width:1; stroke:black; " description="&lt;b&gt;C4J83_RS17455&lt;/b&gt;&lt;br&gt;FAD-binding oxidoreductase&lt;br&gt;Location: 3767780 - 3768877&lt;br&gt;&lt;br&gt;&lt;b&gt;BlastP hit with MFKKBJ_13450&lt;/b&gt;&lt;br&gt;Percentage identity: 93&lt;br&gt;Percentage coverage: 100&lt;br&gt;BLAST bit score: 685&lt;br&gt;E-value: 8.3e-250" locus_tag="C4J83_RS17455" class="clusterblast-orf" id="dummy-5_h5_6_51"  />
</g>
<g id="a5_0052"  >
<polygon points="738,90 742,90 747,85 742,80 738,80 738,90 " style="fill:#d815d8; stroke-width:1; stroke:black; " description="&lt;b&gt;C4J83_RS17460&lt;/b&gt;&lt;br&gt;ABC transporter substrate-binding protein&lt;br&gt;Location: 3768892 - 3769923&lt;br&gt;&lt;br&gt;&lt;b&gt;BlastP hit with MFKKBJ_13455&lt;/b&gt;&lt;br&gt;Percentage identity: 96&lt;br&gt;Percentage coverage: 100&lt;br&gt;BLAST bit score: 648&lt;br&gt;E-value: 6.43e-236" locus_tag="C4J83_RS17460" class="clusterblast-orf" id="dummy-5_h5_6_52"  />
</g>
<g id="a5_0053"  >
<polygon points="747,85 752,80 755,80 755,90 752,90 747,85 " style="fill:#d8d815; stroke-width:1; stroke:black; " description="&lt;b&gt;C4J83_RS17465&lt;/b&gt;&lt;br&gt;ammonia-dependent NAD(+) synthetase&lt;br&gt;Location: 3769949 - 3770761&lt;br&gt;&lt;br&gt;&lt;b&gt;BlastP hit with MFKKBJ_13460&lt;/b&gt;&lt;br&gt;Percentage identity: 91&lt;br&gt;Percentage coverage: 99&lt;br&gt;BLAST bit score: 469&lt;br&gt;E-value: 1.14e-167" locus_tag="C4J83_RS17465" class="clusterblast-orf" id="dummy-5_h5_6_53"  />
</g>
<g id="a5_0054"  >
<polygon points="755,85 760,80 766,80 766,90 760,90 755,85 " style="fill:#15d877; stroke-width:1; stroke:black; " description="&lt;b&gt;C4J83_RS17470&lt;/b&gt;&lt;br&gt;nicotinate phosphoribosyltransferase&lt;br&gt;Location: 3770839 - 3772077&lt;br&gt;&lt;br&gt;&lt;b&gt;BlastP hit with MFKKBJ_13465&lt;/b&gt;&lt;br&gt;Percentage identity: 96&lt;br&gt;Percentage coverage: 99&lt;br&gt;BLAST bit score: 788&lt;br&gt;E-value: 4.95e-289" locus_tag="C4J83_RS17470" class="clusterblast-orf" id="dummy-5_h5_6_54"  />
</g>
<g id="a5_0055"  >
<polygon points="766,85 771,80 772,80 772,90 771,90 766,85 " style="fill:#1515d8; stroke-width:1; stroke:black; " description="&lt;b&gt;C4J83_RS17475&lt;/b&gt;&lt;br&gt;nicotinamidase&lt;br&gt;Location: 3772089 - 3772736&lt;br&gt;&lt;br&gt;&lt;b&gt;BlastP hit with MFKKBJ_13470&lt;/b&gt;&lt;br&gt;Percentage identity: 92&lt;br&gt;Percentage coverage: 100&lt;br&gt;BLAST bit score: 410&lt;br&gt;E-value: 3.71e-146" locus_tag="C4J83_RS17475" class="clusterblast-orf" id="dummy-5_h5_6_55"  />
</g>
<g id="a5_0056"  >
<polygon points="773,90 775,90 780,85 775,80 773,80 773,90 " style="fill:#d81577; stroke-width:1; stroke:black; " description="&lt;b&gt;C4J83_RS17480&lt;/b&gt;&lt;br&gt;NUDIX hydrolase&lt;br&gt;Location: 3772883 - 3773575&lt;br&gt;&lt;br&gt;&lt;b&gt;BlastP hit with MFKKBJ_13475&lt;/b&gt;&lt;br&gt;Percentage identity: 93&lt;br&gt;Percentage coverage: 96&lt;br&gt;BLAST bit score: 291&lt;br&gt;E-value: 1.52e-99&lt;br&gt;&lt;br&gt;&lt;b&gt;BlastP hit with MFKKBJ_13480&lt;/b&gt;&lt;br&gt;Percentage identity: 94&lt;br&gt;Percentage coverage: 100&lt;br&gt;BLAST bit score: 146&lt;br&gt;E-value: 5.09e-44" locus_tag="C4J83_RS17480" class="clusterblast-orf" id="dummy-5_h5_6_56"  />
</g>
</svg>
