<svg xmlns="http://www.w3.org/2000/svg" xmlns:xlink="http://www.w3.org/1999/xlink" version="1.1" x="0" y="0" height="230" width="800" viewBox="0 0 800 230" preserveAspectRatio="none"  >
<g label="Query sequence" class="clusterblast-cluster"  >
<text x="5" y="20" class="clusterblast-acc"  >
Query sequence</text>
<line x1="10" y1="35" x2="778.0" y2="35" style="stroke-width:1; stroke:grey; "  />
<polygon points="0,40 24,40 29,35 24,30 0,30 0,40 " style="fill:#d81515; stroke-width:1; stroke:black; " description="&lt;b&gt;MFKKBJ_23855&lt;/b&gt;&lt;br&gt;YdiU family protein&lt;br&gt;Location: 5154908 - 5156372" locus_tag="MFKKBJ_23855" class="clusterblast-orf" id="dummy-8_q0_0_all"  />
<polygon points="29,35 34,30 37,30 37,40 34,40 29,35 " style="fill:#6fd815; stroke-width:1; stroke:black; " description="&lt;b&gt;MFKKBJ_23860&lt;/b&gt;&lt;br&gt;Antitoxin HigA&lt;br&gt;Location: 5156390 - 5156792" locus_tag="MFKKBJ_23860" class="clusterblast-orf" id="dummy-8_q1_0_all"  />
<polygon points="37,35 42,30 43,30 43,40 42,40 37,35 " style="fill:#15c9d8; stroke-width:1; stroke:black; " description="&lt;b&gt;MFKKBJ_23865&lt;/b&gt;&lt;br&gt;mRNA interferase toxin HigB&lt;br&gt;Location: 5156799 - 5157087" locus_tag="MFKKBJ_23865" class="clusterblast-orf" id="dummy-8_q2_0_all"  />
<polygon points="47,40 51,40 56,35 51,30 47,30 47,40 " style="fill:#8d15d8; stroke-width:1; stroke:black; " description="&lt;b&gt;MFKKBJ_23870&lt;/b&gt;&lt;br&gt;thioredoxin TrxC&lt;br&gt;Location: 5157321 - 5157756" locus_tag="MFKKBJ_23870" class="clusterblast-orf" id="dummy-8_q3_0_all"  />
<polygon points="58,35 63,30 63,30 63,40 63,40 58,35 " style="fill:#d83315; stroke-width:1; stroke:black; " description="&lt;b&gt;MFKKBJ_23875&lt;/b&gt;&lt;br&gt;DUF3077 domain-containing protein&lt;br&gt;Location: 5157884 - 5158118" locus_tag="MFKKBJ_23875" class="clusterblast-orf" id="dummy-8_q4_0_all"  />
<polygon points="70,35 75,30 86,30 86,40 75,40 70,35 " style="fill:#51d815; stroke-width:1; stroke:black; " description="&lt;b&gt;MFKKBJ_23885&lt;/b&gt;&lt;br&gt;ParA-like ATPase involved in chromosome/plasmid partitioning or cellulose biosynthesis protein BcsQ&lt;br&gt;Location: 5158495 - 5159266" locus_tag="MFKKBJ_23885" class="clusterblast-orf" id="dummy-8_q5_0_all"  />
<polygon points="92,40 101,40 106,35 101,30 92,30 92,40 " style="fill:#15abd8; stroke-width:1; stroke:black; " description="&lt;b&gt;MFKKBJ_23890&lt;/b&gt;&lt;br&gt;Beta-ketoacyl synthase N-terminal domain-containing protein&lt;br&gt;Location: 5159593 - 5160313" locus_tag="MFKKBJ_23890" class="clusterblast-orf" id="dummy-8_q6_0_all"  />
<polygon points="106,40 117,40 122,35 117,30 106,30 106,40 " style="fill:#ab15d8; stroke-width:1; stroke:black; " description="&lt;b&gt;MFKKBJ_23895&lt;/b&gt;&lt;br&gt;Phospholipid/glycerol acyltransferase domain-containing protein&lt;br&gt;Location: 5160288 - 5161101" locus_tag="MFKKBJ_23895" class="clusterblast-orf" id="dummy-8_q7_0_all"  />
<polygon points="121,40 122,40 127,35 122,30 121,30 121,40 " style="fill:#d85115; stroke-width:1; stroke:black; " description="&lt;b&gt;MFKKBJ_23900&lt;/b&gt;&lt;br&gt;Acyl carrier protein&lt;br&gt;Location: 5161078 - 5161348" locus_tag="MFKKBJ_23900" class="clusterblast-orf" id="dummy-8_q8_0_all"  />
<polygon points="127,40 127,40 132,35 127,30 127,30 127,40 " style="fill:#33d815; stroke-width:1; stroke:black; " description="&lt;b&gt;MFKKBJ_23905&lt;/b&gt;&lt;br&gt;acyl carrier protein&lt;br&gt;Location: 5161357 - 5161612" locus_tag="MFKKBJ_23905" class="clusterblast-orf" id="dummy-8_q9_0_all"  />
<polygon points="132,40 137,40 142,35 137,30 132,30 132,40 " style="fill:#158dd8; stroke-width:1; stroke:black; " description="&lt;b&gt;MFKKBJ_23910&lt;/b&gt;&lt;br&gt;Intracellular septation protein a&lt;br&gt;Location: 5161608 - 5162154" locus_tag="MFKKBJ_23910" class="clusterblast-orf" id="dummy-8_q10_0_all"  />
<polygon points="142,40 170,40 175,35 170,30 142,30 142,40 " style="fill:#c915d8; stroke-width:1; stroke:black; " description="&lt;b&gt;MFKKBJ_23915&lt;/b&gt;&lt;br&gt;Acetyl-coenzyme A synthetase&lt;br&gt;Location: 5162150 - 5163821" locus_tag="MFKKBJ_23915" class="clusterblast-orf" id="dummy-8_q11_0_all"  />
<polygon points="179,40 188,40 193,35 188,30 179,30 179,40 " style="fill:#d86f15; stroke-width:1; stroke:black; " description="&lt;b&gt;MFKKBJ_23920&lt;/b&gt;&lt;br&gt;Glycosyl transferase&lt;br&gt;Location: 5163988 - 5164723" locus_tag="MFKKBJ_23920" class="clusterblast-orf" id="dummy-8_q12_0_all"  />
<polygon points="193,40 206,40 211,35 206,30 193,30 193,40 " style="fill:#15d815; stroke-width:1; stroke:black; " description="&lt;b&gt;MFKKBJ_23925&lt;/b&gt;&lt;br&gt;Glycosyl transferase&lt;br&gt;Location: 5164719 - 5165655" locus_tag="MFKKBJ_23925" class="clusterblast-orf" id="dummy-8_q13_0_all"  />
<polygon points="211,40 236,40 241,35 236,30 211,30 211,40 " style="fill:#156fd8; stroke-width:1; stroke:black; " description="&lt;b&gt;MFKKBJ_23930&lt;/b&gt;&lt;br&gt;Histidine ammonia-lyase&lt;br&gt;Location: 5165638 - 5167180" locus_tag="MFKKBJ_23930" class="clusterblast-orf" id="dummy-8_q14_0_all"  />
<polygon points="241,40 245,40 250,35 245,30 241,30 241,40 " style="fill:#d815c9; stroke-width:1; stroke:black; " description="&lt;b&gt;MFKKBJ_23935&lt;/b&gt;&lt;br&gt;Thioesterase domain-containing protein&lt;br&gt;Location: 5167172 - 5167598" locus_tag="MFKKBJ_23935" class="clusterblast-orf" id="dummy-8_q15_0_all"  />
<polygon points="250,40 256,40 261,35 256,30 250,30 250,40 " style="fill:#d88d15; stroke-width:1; stroke:black; " description="&lt;b&gt;MFKKBJ_23940&lt;/b&gt;&lt;br&gt;Outer membrane lipoprotein carrier protein LolA&lt;br&gt;Location: 5167594 - 5168185" locus_tag="MFKKBJ_23940" class="clusterblast-orf" id="dummy-8_q16_0_all"  />
<polygon points="261,40 302,40 307,35 302,30 261,30 261,40 " style="fill:#15d833; stroke-width:1; stroke:black; " description="&lt;b&gt;MFKKBJ_23945&lt;/b&gt;&lt;br&gt;Membrane transport protein MMPL domain-containing protein&lt;br&gt;Location: 5168174 - 5170487" locus_tag="MFKKBJ_23945" class="clusterblast-orf" id="dummy-8_q17_0_all"  />
<polygon points="307,40 327,40 332,35 327,30 307,30 307,40 " style="fill:#1551d8; stroke-width:1; stroke:black; " description="&lt;b&gt;MFKKBJ_23950&lt;/b&gt;&lt;br&gt;FAD-binding domain-containing protein&lt;br&gt;Location: 5170520 - 5171768" locus_tag="MFKKBJ_23950" class="clusterblast-orf" id="dummy-8_q18_0_all"  />
<polygon points="332,40 341,40 346,35 341,30 332,30 332,40 " style="fill:#d815ab; stroke-width:1; stroke:black; " description="&lt;b&gt;MFKKBJ_23955&lt;/b&gt;&lt;br&gt;Methyltransferase type 11 domain-containing protein&lt;br&gt;Location: 5171764 - 5172499" locus_tag="MFKKBJ_23955" class="clusterblast-orf" id="dummy-8_q19_0_all"  />
<polygon points="346,40 351,40 356,35 351,30 346,30 346,40 " style="fill:#d8ab15; stroke-width:1; stroke:black; " description="&lt;b&gt;MFKKBJ_23960&lt;/b&gt;&lt;br&gt;Lipoprotein&lt;br&gt;Location: 5172495 - 5172978" locus_tag="MFKKBJ_23960" class="clusterblast-orf" id="dummy-8_q20_0_all"  />
<polygon points="356,40 374,40 379,35 374,30 356,30 356,40 " style="fill:#15d851; stroke-width:1; stroke:black; " description="&lt;b&gt;MFKKBJ_23965&lt;/b&gt;&lt;br&gt;3-oxoacyl-(Acyl carrier protein) synthase&lt;br&gt;Location: 5172974 - 5174141" locus_tag="MFKKBJ_23965" class="clusterblast-orf" id="dummy-8_q21_0_all"  />
<polygon points="378,40 383,40 388,35 383,30 378,30 378,40 " style="fill:#1533d8; stroke-width:1; stroke:black; " description="&lt;b&gt;MFKKBJ_23970&lt;/b&gt;&lt;br&gt;3-hydroxydecanoyl-(ACP) dehydratase&lt;br&gt;Location: 5174137 - 5174599" locus_tag="MFKKBJ_23970" class="clusterblast-orf" id="dummy-8_q22_0_all"  />
<polygon points="387,40 397,40 402,35 397,30 387,30 387,40 " style="fill:#d8158d; stroke-width:1; stroke:black; " description="&lt;b&gt;MFKKBJ_23975&lt;/b&gt;&lt;br&gt;3-oxoacyl-ACP reductase FabG&lt;br&gt;Location: 5174595 - 5175324" locus_tag="MFKKBJ_23975" class="clusterblast-orf" id="dummy-8_q23_0_all"  />
<polygon points="402,40 421,40 426,35 421,30 402,30 402,40 " style="fill:#d8c915; stroke-width:1; stroke:black; " description="&lt;b&gt;MFKKBJ_23980&lt;/b&gt;&lt;br&gt;beta-ketoacyl-ACP synthase&lt;br&gt;Location: 5175323 - 5176550" locus_tag="MFKKBJ_23980" class="clusterblast-orf" id="dummy-8_q24_0_all"  />
<polygon points="426,40 430,40 435,35 430,30 426,30 426,40 " style="fill:#15d86f; stroke-width:1; stroke:black; " description="&lt;b&gt;MFKKBJ_23985&lt;/b&gt;&lt;br&gt;Lipoprotein&lt;br&gt;Location: 5176576 - 5177029" locus_tag="MFKKBJ_23985" class="clusterblast-orf" id="dummy-8_q25_0_all"  />
<polygon points="440,35 445,30 447,30 447,40 445,40 440,35 " style="fill:#1515d8; stroke-width:1; stroke:black; " description="&lt;b&gt;MFKKBJ_23990&lt;/b&gt;&lt;br&gt;Type II toxin-antitoxin system PemK/MazF family toxin&lt;br&gt;Location: 5177245 - 5177629" locus_tag="MFKKBJ_23990" class="clusterblast-orf" id="dummy-8_q26_0_all"  />
<polygon points="449,35 454,30 467,30 467,40 454,40 449,35 " style="fill:#d8156f; stroke-width:1; stroke:black; " description="&lt;b&gt;MFKKBJ_23995&lt;/b&gt;&lt;br&gt;HTH lysR-type domain-containing protein&lt;br&gt;Location: 5177716 - 5178610" locus_tag="MFKKBJ_23995" class="clusterblast-orf" id="dummy-8_q27_0_all"  />
<polygon points="469,40 489,40 494,35 489,30 469,30 469,40 " style="fill:#c9d815; stroke-width:1; stroke:black; " description="&lt;b&gt;MFKKBJ_24000&lt;/b&gt;&lt;br&gt;Major facilitator superfamily (MFS) profile domain-containing protein&lt;br&gt;Location: 5178732 - 5180007" locus_tag="MFKKBJ_24000" class="clusterblast-orf" id="dummy-8_q28_0_all"  />
<polygon points="495,35 500,30 516,30 516,40 500,40 495,35 " style="fill:#15d88d; stroke-width:1; stroke:black; " description="&lt;b&gt;MFKKBJ_24005&lt;/b&gt;&lt;br&gt;uroporphyrinogen decarboxylase&lt;br&gt;Location: 5180067 - 5181135" locus_tag="MFKKBJ_24005" class="clusterblast-orf" id="dummy-8_q29_0_all"  />
<polygon points="521,35 526,30 549,30 549,40 526,40 521,35 " style="fill:#3315d8; stroke-width:1; stroke:black; " description="&lt;b&gt;MFKKBJ_24010&lt;/b&gt;&lt;br&gt;NADPH-dependent glutamate synthase beta chain or related oxidoreductase&lt;br&gt;Location: 5181377 - 5182796" locus_tag="MFKKBJ_24010" class="clusterblast-orf" id="dummy-8_q30_0_all"  />
<polygon points="550,35 555,30 637,30 637,40 555,40 550,35 " style="fill:#d81551; stroke-width:1; stroke:black; " description="&lt;b&gt;MFKKBJ_24015&lt;/b&gt;&lt;br&gt;Glutamate synthase large subunit&lt;br&gt;Location: 5182828 - 5187274" locus_tag="MFKKBJ_24015" class="clusterblast-orf" id="dummy-8_q31_0_all"  />
<polygon points="644,35 649,30 675,30 675,40 649,40 644,35 " style="fill:#abd815; stroke-width:1; stroke:black; " description="&lt;b&gt;MFKKBJ_24020&lt;/b&gt;&lt;br&gt;General secretion pathway protein a&lt;br&gt;Location: 5187628 - 5189191" locus_tag="MFKKBJ_24020" class="clusterblast-orf" id="dummy-8_q32_0_all"  />
<polygon points="675,35 680,30 697,30 697,40 680,40 675,35 " style="fill:#15d8ab; stroke-width:1; stroke:black; " description="&lt;b&gt;MFKKBJ_24025&lt;/b&gt;&lt;br&gt;3-dehydroquinate synthase&lt;br&gt;Location: 5189201 - 5190302" locus_tag="MFKKBJ_24025" class="clusterblast-orf" id="dummy-8_q33_0_all"  />
<polygon points="699,35 704,30 709,30 709,40 704,40 699,35 " style="fill:#5115d8; stroke-width:1; stroke:black; " description="&lt;b&gt;MFKKBJ_24030&lt;/b&gt;&lt;br&gt;shikimate kinase AroK&lt;br&gt;Location: 5190417 - 5190909" locus_tag="MFKKBJ_24030" class="clusterblast-orf" id="dummy-8_q34_0_all"  />
<polygon points="709,35 714,30 737,30 737,40 714,40 709,35 " style="fill:#d81533; stroke-width:1; stroke:black; " description="&lt;b&gt;MFKKBJ_24035&lt;/b&gt;&lt;br&gt;Type IV fimbriae biogenesis protein&lt;br&gt;Location: 5190940 - 5192323" locus_tag="MFKKBJ_24035" class="clusterblast-orf" id="dummy-8_q35_0_all"  />
<polygon points="737,35 742,30 756,30 756,40 742,40 737,35 " style="fill:#8dd815; stroke-width:1; stroke:black; " description="&lt;b&gt;MFKKBJ_24040&lt;/b&gt;&lt;br&gt;Pilus assembly protein&lt;br&gt;Location: 5192336 - 5193308" locus_tag="MFKKBJ_24040" class="clusterblast-orf" id="dummy-8_q36_0_all"  />
<polygon points="756,35 761,30 767,30 767,40 761,40 756,35 " style="fill:#15d8c9; stroke-width:1; stroke:black; " description="&lt;b&gt;MFKKBJ_24045&lt;/b&gt;&lt;br&gt;Type IV pilus assembly protein&lt;br&gt;Location: 5193304 - 5193859" locus_tag="MFKKBJ_24045" class="clusterblast-orf" id="dummy-8_q37_0_all"  />
<polygon points="767,35 772,30 780,30 780,40 772,40 767,35 " style="fill:#6f15d8; stroke-width:1; stroke:black; " description="&lt;b&gt;MFKKBJ_24050&lt;/b&gt;&lt;br&gt;Type IV pilus assembly protein&lt;br&gt;Location: 5193855 - 5194509" locus_tag="MFKKBJ_24050" class="clusterblast-orf" id="dummy-8_q38_0_all"  />
</g>
<g label="NZ_CP114115" description="NZ_CP114115 (550659-594235): Pseudomonas sp. GXZC chromosome, complete genome (97% of genes show similarity), arylpolyene" class="clusterblast-cluster"  >
<text x="5" y="70" class="clusterblast-acc"  >
<a xlink:href="https://antismash-db.secondarymetabolites.org/area?record=NZ_CP114115&amp;start=550659&amp;end=594235" target="_blank">NZ_CP114115 (550659-594235)</a>: Pseudomonas sp. GXZC chromosome, complete genome (97% of genes show similarity), arylpolyene</text>
<line x1="10" y1="85" x2="778.0" y2="85" style="stroke-width:1; stroke:grey; "  />
</g>
<g id="a8_000"  >
<polygon points="2,90 25,90 30,85 25,80 2,80 2,90 " style="fill:#d81515; stroke-width:1; stroke:black; " description="&lt;b&gt;OZ428_RS02865&lt;/b&gt;&lt;br&gt;YdiU family protein&lt;br&gt;Location: 592000 - 590537&lt;br&gt;&lt;br&gt;&lt;b&gt;BlastP hit with MFKKBJ_23855&lt;/b&gt;&lt;br&gt;Percentage identity: 95&lt;br&gt;Percentage coverage: 100&lt;br&gt;BLAST bit score: 936&lt;br&gt;E-value: 0.0" locus_tag="OZ428_RS02865" class="clusterblast-orf" id="dummy-8_h8_2_0"  />
</g>
<g id="a8_001"  >
<polygon points="31,85 36,80 39,80 39,90 36,90 31,85 " style="fill:#6fd815; stroke-width:1; stroke:black; " description="&lt;b&gt;OZ428_RS02860&lt;/b&gt;&lt;br&gt;transcriptional regulator&lt;br&gt;Location: 590497 - 590096&lt;br&gt;&lt;br&gt;&lt;b&gt;BlastP hit with MFKKBJ_23860&lt;/b&gt;&lt;br&gt;Percentage identity: 96&lt;br&gt;Percentage coverage: 100&lt;br&gt;BLAST bit score: 259&lt;br&gt;E-value: 8.96e-89" locus_tag="OZ428_RS02860" class="clusterblast-orf" id="dummy-8_h8_2_1"  />
</g>
<g id="a8_002"  >
<polygon points="39,85 44,80 45,80 45,90 44,90 39,85 " style="fill:#15c9d8; stroke-width:1; stroke:black; " description="&lt;b&gt;OZ428_RS02855&lt;/b&gt;&lt;br&gt;type II toxin-antitoxin system HigB family toxin&lt;br&gt;Location: 590099 - 589800&lt;br&gt;&lt;br&gt;&lt;b&gt;BlastP hit with MFKKBJ_23865&lt;/b&gt;&lt;br&gt;Percentage identity: 87&lt;br&gt;Percentage coverage: 100&lt;br&gt;BLAST bit score: 177&lt;br&gt;E-value: 1.92e-57" locus_tag="OZ428_RS02855" class="clusterblast-orf" id="dummy-8_h8_2_2"  />
</g>
<g id="a8_003"  >
<polygon points="50,90 53,90 58,85 53,80 50,80 50,90 " style="fill:#8d15d8; stroke-width:1; stroke:black; " description="&lt;b&gt;OZ428_RS02850&lt;/b&gt;&lt;br&gt;thioredoxin TrxC&lt;br&gt;Location: 589562 - 589128&lt;br&gt;&lt;br&gt;&lt;b&gt;BlastP hit with MFKKBJ_23870&lt;/b&gt;&lt;br&gt;Percentage identity: 99&lt;br&gt;Percentage coverage: 100&lt;br&gt;BLAST bit score: 302&lt;br&gt;E-value: 1.68e-105" locus_tag="OZ428_RS02850" class="clusterblast-orf" id="dummy-8_h8_2_3"  />
</g>
<g id="a8_004"  >
<polygon points="58,85 62,80 62,90 58,85 " style="fill:#d83315; stroke-width:1; stroke:black; " description="&lt;b&gt;OZ428_RS02845&lt;/b&gt;&lt;br&gt;DUF6124 family protein&lt;br&gt;Location: 589140 - 588913&lt;br&gt;&lt;br&gt;&lt;b&gt;BlastP hit with MFKKBJ_23875&lt;/b&gt;&lt;br&gt;Percentage identity: 87&lt;br&gt;Percentage coverage: 90&lt;br&gt;BLAST bit score: 124&lt;br&gt;E-value: 5.05e-37" locus_tag="OZ428_RS02845" class="clusterblast-orf" id="dummy-8_h8_2_4"  />
</g>
<g id="a8_005"  >
<polygon points="69,85 74,80 85,80 85,90 74,90 69,85 " style="fill:#51d815; stroke-width:1; stroke:black; " description="&lt;b&gt;OZ428_RS02840&lt;/b&gt;&lt;br&gt;ParA family protein&lt;br&gt;Location: 588560 - 587790&lt;br&gt;&lt;br&gt;&lt;b&gt;BlastP hit with MFKKBJ_23885&lt;/b&gt;&lt;br&gt;Percentage identity: 98&lt;br&gt;Percentage coverage: 100&lt;br&gt;BLAST bit score: 494&lt;br&gt;E-value: 5.04e-178" locus_tag="OZ428_RS02840" class="clusterblast-orf" id="dummy-8_h8_2_5"  />
</g>
<g id="a8_006"  >
<polygon points="91,90 101,90 106,85 101,80 91,80 91,90 " style="fill:#15abd8; stroke-width:1; stroke:black; " description="&lt;b&gt;OZ428_RS02835&lt;/b&gt;&lt;br&gt;beta-ketoacyl synthase chain length factor&lt;br&gt;Location: 587441 - 586722&lt;br&gt;&lt;br&gt;&lt;b&gt;BlastP hit with MFKKBJ_23890&lt;/b&gt;&lt;br&gt;Percentage identity: 93&lt;br&gt;Percentage coverage: 100&lt;br&gt;BLAST bit score: 456&lt;br&gt;E-value: 3.4e-163" locus_tag="OZ428_RS02835" class="clusterblast-orf" id="dummy-8_h8_2_6"  />
</g>
<g id="a8_007"  >
<polygon points="105,90 116,90 121,85 116,80 105,80 105,90 " style="fill:#ab15d8; stroke-width:1; stroke:black; " description="&lt;b&gt;OZ428_RS02830&lt;/b&gt;&lt;br&gt;lysophospholipid acyltransferase family protein&lt;br&gt;Location: 586746 - 585934&lt;br&gt;&lt;br&gt;&lt;b&gt;BlastP hit with MFKKBJ_23895&lt;/b&gt;&lt;br&gt;Percentage identity: 91&lt;br&gt;Percentage coverage: 100&lt;br&gt;BLAST bit score: 495&lt;br&gt;E-value: 1.04e-177" locus_tag="OZ428_RS02830" class="clusterblast-orf" id="dummy-8_h8_2_7"  />
</g>
<g id="a8_008"  >
<polygon points="121,90 121,90 126,85 121,80 121,80 121,90 " style="fill:#d85115; stroke-width:1; stroke:black; " description="&lt;b&gt;OZ428_RS02825&lt;/b&gt;&lt;br&gt;phosphopantetheine-binding protein&lt;br&gt;Location: 585956 - 585687&lt;br&gt;&lt;br&gt;&lt;b&gt;BlastP hit with MFKKBJ_23900&lt;/b&gt;&lt;br&gt;Percentage identity: 96&lt;br&gt;Percentage coverage: 100&lt;br&gt;BLAST bit score: 160&lt;br&gt;E-value: 4e-51" locus_tag="OZ428_RS02825" class="clusterblast-orf" id="dummy-8_h8_2_8"  />
</g>
<g id="a8_009"  >
<polygon points="126,90 126,90 131,85 126,80 126,80 126,90 " style="fill:#33d815; stroke-width:1; stroke:black; " description="&lt;b&gt;OZ428_RS02820&lt;/b&gt;&lt;br&gt;acyl carrier protein&lt;br&gt;Location: 585677 - 585423&lt;br&gt;&lt;br&gt;&lt;b&gt;BlastP hit with MFKKBJ_23905&lt;/b&gt;&lt;br&gt;Percentage identity: 99&lt;br&gt;Percentage coverage: 100&lt;br&gt;BLAST bit score: 158&lt;br&gt;E-value: 2.3e-50" locus_tag="OZ428_RS02820" class="clusterblast-orf" id="dummy-8_h8_2_9"  />
</g>
<g id="a8_0010"  >
<polygon points="131,90 137,90 142,85 137,80 131,80 131,90 " style="fill:#158dd8; stroke-width:1; stroke:black; " description="&lt;b&gt;OZ428_RS02815&lt;/b&gt;&lt;br&gt;hypothetical protein&lt;br&gt;Location: 585426 - 584881&lt;br&gt;&lt;br&gt;&lt;b&gt;BlastP hit with MFKKBJ_23910&lt;/b&gt;&lt;br&gt;Percentage identity: 97&lt;br&gt;Percentage coverage: 100&lt;br&gt;BLAST bit score: 362&lt;br&gt;E-value: 4.5e-128" locus_tag="OZ428_RS02815" class="clusterblast-orf" id="dummy-8_h8_2_10"  />
</g>
<g id="a8_0011"  >
<polygon points="142,90 170,90 175,85 170,80 142,80 142,90 " style="fill:#c915d8; stroke-width:1; stroke:black; " description="&lt;b&gt;OZ428_RS02810&lt;/b&gt;&lt;br&gt;AMP-binding protein&lt;br&gt;Location: 584884 - 583214&lt;br&gt;&lt;br&gt;&lt;b&gt;BlastP hit with MFKKBJ_23915&lt;/b&gt;&lt;br&gt;Percentage identity: 92&lt;br&gt;Percentage coverage: 100&lt;br&gt;BLAST bit score: 1025&lt;br&gt;E-value: 0.0" locus_tag="OZ428_RS02810" class="clusterblast-orf" id="dummy-8_h8_2_11"  />
</g>
<g id="a8_0012"  >
<polygon points="175,90 184,90 189,85 184,80 175,80 175,90 " style="fill:#d86f15; stroke-width:1; stroke:black; " description="&lt;b&gt;OZ428_RS02805&lt;/b&gt;&lt;br&gt;glycosyltransferase family 2 protein&lt;br&gt;Location: 583221 - 582487&lt;br&gt;&lt;br&gt;&lt;b&gt;BlastP hit with MFKKBJ_23920&lt;/b&gt;&lt;br&gt;Percentage identity: 95&lt;br&gt;Percentage coverage: 100&lt;br&gt;BLAST bit score: 483&lt;br&gt;E-value: 1.06e-173" locus_tag="OZ428_RS02805" class="clusterblast-orf" id="dummy-8_h8_2_12"  />
</g>
<g id="a8_0013"  >
<polygon points="189,90 202,90 207,85 202,80 189,80 189,90 " style="fill:#15d815; stroke-width:1; stroke:black; " description="&lt;b&gt;OZ428_RS02800&lt;/b&gt;&lt;br&gt;glycosyl transferase&lt;br&gt;Location: 582490 - 581555&lt;br&gt;&lt;br&gt;&lt;b&gt;BlastP hit with MFKKBJ_23925&lt;/b&gt;&lt;br&gt;Percentage identity: 92&lt;br&gt;Percentage coverage: 100&lt;br&gt;BLAST bit score: 587&lt;br&gt;E-value: 9.21e-213" locus_tag="OZ428_RS02800" class="clusterblast-orf" id="dummy-8_h8_2_13"  />
</g>
<g id="a8_0014"  >
<polygon points="207,90 232,90 237,85 232,80 207,80 207,90 " style="fill:#156fd8; stroke-width:1; stroke:black; " description="&lt;b&gt;OZ428_RS02795&lt;/b&gt;&lt;br&gt;aromatic amino acid ammonia-lyase&lt;br&gt;Location: 581571 - 580030&lt;br&gt;&lt;br&gt;&lt;b&gt;BlastP hit with MFKKBJ_23930&lt;/b&gt;&lt;br&gt;Percentage identity: 99&lt;br&gt;Percentage coverage: 100&lt;br&gt;BLAST bit score: 996&lt;br&gt;E-value: 0.0" locus_tag="OZ428_RS02795" class="clusterblast-orf" id="dummy-8_h8_2_14"  />
</g>
<g id="a8_0015"  >
<polygon points="237,90 241,90 246,85 241,80 237,80 237,90 " style="fill:#d815c9; stroke-width:1; stroke:black; " description="&lt;b&gt;OZ428_RS02790&lt;/b&gt;&lt;br&gt;acyl-CoA thioesterase&lt;br&gt;Location: 580037 - 579612&lt;br&gt;&lt;br&gt;&lt;b&gt;BlastP hit with MFKKBJ_23935&lt;/b&gt;&lt;br&gt;Percentage identity: 94&lt;br&gt;Percentage coverage: 100&lt;br&gt;BLAST bit score: 269&lt;br&gt;E-value: 1.24e-92" locus_tag="OZ428_RS02790" class="clusterblast-orf" id="dummy-8_h8_2_15"  />
</g>
<g id="a8_0016"  >
<polygon points="246,90 252,90 257,85 252,80 246,80 246,90 " style="fill:#d88d15; stroke-width:1; stroke:black; " description="&lt;b&gt;OZ428_RS02785&lt;/b&gt;&lt;br&gt;outer membrane lipoprotein carrier protein LolA&lt;br&gt;Location: 579615 - 579025&lt;br&gt;&lt;br&gt;&lt;b&gt;BlastP hit with MFKKBJ_23940&lt;/b&gt;&lt;br&gt;Percentage identity: 93&lt;br&gt;Percentage coverage: 100&lt;br&gt;BLAST bit score: 352&lt;br&gt;E-value: 9.12e-124" locus_tag="OZ428_RS02785" class="clusterblast-orf" id="dummy-8_h8_2_16"  />
</g>
<g id="a8_0017"  >
<polygon points="257,90 298,90 303,85 298,80 257,80 257,90 " style="fill:#15d833; stroke-width:1; stroke:black; " description="&lt;b&gt;OZ428_RS02780&lt;/b&gt;&lt;br&gt;MMPL family transporter&lt;br&gt;Location: 579035 - 576723&lt;br&gt;&lt;br&gt;&lt;b&gt;BlastP hit with MFKKBJ_23945&lt;/b&gt;&lt;br&gt;Percentage identity: 94&lt;br&gt;Percentage coverage: 100&lt;br&gt;BLAST bit score: 1371&lt;br&gt;E-value: 0.0" locus_tag="OZ428_RS02780" class="clusterblast-orf" id="dummy-8_h8_2_17"  />
</g>
<g id="a8_0018"  >
<polygon points="303,90 323,90 328,85 323,80 303,80 303,90 " style="fill:#1551d8; stroke-width:1; stroke:black; " description="&lt;b&gt;OZ428_RS02775&lt;/b&gt;&lt;br&gt;NAD(P)/FAD-dependent oxidoreductase&lt;br&gt;Location: 576689 - 575442&lt;br&gt;&lt;br&gt;&lt;b&gt;BlastP hit with MFKKBJ_23950&lt;/b&gt;&lt;br&gt;Percentage identity: 92&lt;br&gt;Percentage coverage: 100&lt;br&gt;BLAST bit score: 789&lt;br&gt;E-value: 2.89e-289" locus_tag="OZ428_RS02775" class="clusterblast-orf" id="dummy-8_h8_2_18"  />
</g>
<g id="a8_0019"  >
<polygon points="328,90 337,90 342,85 337,80 328,80 328,90 " style="fill:#d815ab; stroke-width:1; stroke:black; " description="&lt;b&gt;OZ428_RS02770&lt;/b&gt;&lt;br&gt;methyltransferase domain-containing protein&lt;br&gt;Location: 575445 - 574711&lt;br&gt;&lt;br&gt;&lt;b&gt;BlastP hit with MFKKBJ_23955&lt;/b&gt;&lt;br&gt;Percentage identity: 88&lt;br&gt;Percentage coverage: 100&lt;br&gt;BLAST bit score: 459&lt;br&gt;E-value: 3.01e-164" locus_tag="OZ428_RS02770" class="clusterblast-orf" id="dummy-8_h8_2_19"  />
</g>
<g id="a8_0020"  >
<polygon points="342,90 347,90 352,85 347,80 342,80 342,90 " style="fill:#d8ab15; stroke-width:1; stroke:black; " description="&lt;b&gt;OZ428_RS02765&lt;/b&gt;&lt;br&gt;hypothetical protein&lt;br&gt;Location: 574714 - 574232&lt;br&gt;&lt;br&gt;&lt;b&gt;BlastP hit with MFKKBJ_23960&lt;/b&gt;&lt;br&gt;Percentage identity: 90&lt;br&gt;Percentage coverage: 100&lt;br&gt;BLAST bit score: 294&lt;br&gt;E-value: 6.32e-102" locus_tag="OZ428_RS02765" class="clusterblast-orf" id="dummy-8_h8_2_20"  />
</g>
<g id="a8_0021"  >
<polygon points="352,90 370,90 375,85 370,80 352,80 352,90 " style="fill:#15d851; stroke-width:1; stroke:black; " description="&lt;b&gt;OZ428_RS02760&lt;/b&gt;&lt;br&gt;beta-ketoacyl-[acyl-carrier-protein] synthase family protein&lt;br&gt;Location: 574235 - 573069&lt;br&gt;&lt;br&gt;&lt;b&gt;BlastP hit with MFKKBJ_23965&lt;/b&gt;&lt;br&gt;Percentage identity: 89&lt;br&gt;Percentage coverage: 100&lt;br&gt;BLAST bit score: 687&lt;br&gt;E-value: 6e-250" locus_tag="OZ428_RS02760" class="clusterblast-orf" id="dummy-8_h8_2_21"  />
</g>
<g id="a8_0022"  >
<polygon points="374,90 379,90 384,85 379,80 374,80 374,90 " style="fill:#1533d8; stroke-width:1; stroke:black; " description="&lt;b&gt;OZ428_RS02755&lt;/b&gt;&lt;br&gt;hotdog family protein&lt;br&gt;Location: 573072 - 572611&lt;br&gt;&lt;br&gt;&lt;b&gt;BlastP hit with MFKKBJ_23970&lt;/b&gt;&lt;br&gt;Percentage identity: 90&lt;br&gt;Percentage coverage: 99&lt;br&gt;BLAST bit score: 276&lt;br&gt;E-value: 3.86e-95" locus_tag="OZ428_RS02755" class="clusterblast-orf" id="dummy-8_h8_2_22"  />
</g>
<g id="a8_0023"  >
<polygon points="383,90 393,90 398,85 393,80 383,80 383,90 " style="fill:#d8158d; stroke-width:1; stroke:black; " description="&lt;b&gt;OZ428_RS02750&lt;/b&gt;&lt;br&gt;3-oxoacyl-ACP reductase FabG&lt;br&gt;Location: 572614 - 571886&lt;br&gt;&lt;br&gt;&lt;b&gt;BlastP hit with MFKKBJ_23975&lt;/b&gt;&lt;br&gt;Percentage identity: 97&lt;br&gt;Percentage coverage: 100&lt;br&gt;BLAST bit score: 459&lt;br&gt;E-value: 2.58e-164" locus_tag="OZ428_RS02750" class="clusterblast-orf" id="dummy-8_h8_2_23"  />
</g>
<g id="a8_0024"  >
<polygon points="398,90 417,90 422,85 417,80 398,80 398,90 " style="fill:#d8c915; stroke-width:1; stroke:black; " description="&lt;b&gt;OZ428_RS02745&lt;/b&gt;&lt;br&gt;beta-ketoacyl-ACP synthase&lt;br&gt;Location: 571886 - 570660&lt;br&gt;&lt;br&gt;&lt;b&gt;BlastP hit with MFKKBJ_23980&lt;/b&gt;&lt;br&gt;Percentage identity: 98&lt;br&gt;Percentage coverage: 100&lt;br&gt;BLAST bit score: 810&lt;br&gt;E-value: 6.93e-298" locus_tag="OZ428_RS02745" class="clusterblast-orf" id="dummy-8_h8_2_24"  />
</g>
<g id="a8_0025"  >
<polygon points="423,90 426,90 431,85 426,80 423,80 423,90 " style="fill:#15d86f; stroke-width:1; stroke:black; " description="&lt;b&gt;OZ428_RS02740&lt;/b&gt;&lt;br&gt;hypothetical protein&lt;br&gt;Location: 570633 - 570190&lt;br&gt;&lt;br&gt;&lt;b&gt;BlastP hit with MFKKBJ_23985&lt;/b&gt;&lt;br&gt;Percentage identity: 91&lt;br&gt;Percentage coverage: 99&lt;br&gt;BLAST bit score: 253&lt;br&gt;E-value: 5.56e-86" locus_tag="OZ428_RS02740" class="clusterblast-orf" id="dummy-8_h8_2_25"  />
</g>
<g id="a8_0026"  >
<polygon points="435,85 440,80 443,80 443,90 440,90 435,85 " style="fill:#1515d8; stroke-width:1; stroke:black; " description="&lt;b&gt;OZ428_RS02735&lt;/b&gt;&lt;br&gt;type II toxin-antitoxin system PemK/MazF family toxin&lt;br&gt;Location: 569982 - 569596&lt;br&gt;&lt;br&gt;&lt;b&gt;BlastP hit with MFKKBJ_23990&lt;/b&gt;&lt;br&gt;Percentage identity: 91&lt;br&gt;Percentage coverage: 100&lt;br&gt;BLAST bit score: 227&lt;br&gt;E-value: 2.7e-76" locus_tag="OZ428_RS02735" class="clusterblast-orf" id="dummy-8_h8_2_26"  />
</g>
<g id="a8_0027"  >
<polygon points="445,85 450,80 462,80 462,90 450,90 445,85 " style="fill:#d8156f; stroke-width:1; stroke:black; " description="&lt;b&gt;OZ428_RS02730&lt;/b&gt;&lt;br&gt;LysR substrate-binding domain-containing protein&lt;br&gt;Location: 569508 - 568615&lt;br&gt;&lt;br&gt;&lt;b&gt;BlastP hit with MFKKBJ_23995&lt;/b&gt;&lt;br&gt;Percentage identity: 95&lt;br&gt;Percentage coverage: 99&lt;br&gt;BLAST bit score: 533&lt;br&gt;E-value: 6.78e-192" locus_tag="OZ428_RS02730" class="clusterblast-orf" id="dummy-8_h8_2_27"  />
</g>
<g id="a8_0028"  >
<polygon points="465,90 485,90 490,85 485,80 465,80 465,90 " style="fill:#c9d815; stroke-width:1; stroke:black; " description="&lt;b&gt;OZ428_RS02725&lt;/b&gt;&lt;br&gt;MFS transporter&lt;br&gt;Location: 568490 - 567216&lt;br&gt;&lt;br&gt;&lt;b&gt;BlastP hit with MFKKBJ_24000&lt;/b&gt;&lt;br&gt;Percentage identity: 94&lt;br&gt;Percentage coverage: 100&lt;br&gt;BLAST bit score: 757&lt;br&gt;E-value: 2.59e-276" locus_tag="OZ428_RS02725" class="clusterblast-orf" id="dummy-8_h8_2_28"  />
</g>
<g id="a8_0029"  >
<polygon points="492,85 497,80 513,80 513,90 497,90 492,85 " style="fill:#15d88d; stroke-width:1; stroke:black; " description="&lt;b&gt;OZ428_RS02720&lt;/b&gt;&lt;br&gt;uroporphyrinogen decarboxylase&lt;br&gt;Location: 567096 - 566029&lt;br&gt;&lt;br&gt;&lt;b&gt;BlastP hit with MFKKBJ_24005&lt;/b&gt;&lt;br&gt;Percentage identity: 98&lt;br&gt;Percentage coverage: 100&lt;br&gt;BLAST bit score: 704&lt;br&gt;E-value: 9.11e-258" locus_tag="OZ428_RS02720" class="clusterblast-orf" id="dummy-8_h8_2_29"  />
</g>
<g id="a8_0030"  >
<polygon points="515,85 520,80 543,80 543,90 520,90 515,85 " style="fill:#3315d8; stroke-width:1; stroke:black; " description="&lt;b&gt;OZ428_RS02715&lt;/b&gt;&lt;br&gt;FAD-dependent oxidoreductase&lt;br&gt;Location: 565919 - 564501&lt;br&gt;&lt;br&gt;&lt;b&gt;BlastP hit with MFKKBJ_24010&lt;/b&gt;&lt;br&gt;Percentage identity: 100&lt;br&gt;Percentage coverage: 100&lt;br&gt;BLAST bit score: 956&lt;br&gt;E-value: 0.0" locus_tag="OZ428_RS02715" class="clusterblast-orf" id="dummy-8_h8_2_30"  />
</g>
<g id="a8_0031"  >
<polygon points="544,85 549,80 631,80 631,90 549,90 544,85 " style="fill:#d81551; stroke-width:1; stroke:black; " description="&lt;b&gt;OZ428_RS02710&lt;/b&gt;&lt;br&gt;glutamate synthase large subunit&lt;br&gt;Location: 564468 - 560023&lt;br&gt;&lt;br&gt;&lt;b&gt;BlastP hit with MFKKBJ_24015&lt;/b&gt;&lt;br&gt;Percentage identity: 99&lt;br&gt;Percentage coverage: 100&lt;br&gt;BLAST bit score: 2865&lt;br&gt;E-value: 0.0" locus_tag="OZ428_RS02710" class="clusterblast-orf" id="dummy-8_h8_2_31"  />
</g>
<g id="a8_0032"  >
<polygon points="638,85 643,80 669,80 669,90 643,90 638,85 " style="fill:#abd815; stroke-width:1; stroke:black; " description="&lt;b&gt;OZ428_RS02705&lt;/b&gt;&lt;br&gt;SPOR domain-containing protein&lt;br&gt;Location: 559669 - 558104&lt;br&gt;&lt;br&gt;&lt;b&gt;BlastP hit with MFKKBJ_24020&lt;/b&gt;&lt;br&gt;Percentage identity: 91&lt;br&gt;Percentage coverage: 101&lt;br&gt;BLAST bit score: 832&lt;br&gt;E-value: 1.25e-302" locus_tag="OZ428_RS02705" class="clusterblast-orf" id="dummy-8_h8_2_32"  />
</g>
<g id="a8_0033"  >
<polygon points="669,85 674,80 691,80 691,90 674,90 669,85 " style="fill:#15d8ab; stroke-width:1; stroke:black; " description="&lt;b&gt;OZ428_RS02700&lt;/b&gt;&lt;br&gt;3-dehydroquinate synthase&lt;br&gt;Location: 558093 - 556993&lt;br&gt;&lt;br&gt;&lt;b&gt;BlastP hit with MFKKBJ_24025&lt;/b&gt;&lt;br&gt;Percentage identity: 98&lt;br&gt;Percentage coverage: 100&lt;br&gt;BLAST bit score: 712&lt;br&gt;E-value: 2.73e-260" locus_tag="OZ428_RS02700" class="clusterblast-orf" id="dummy-8_h8_2_33"  />
</g>
<g id="a8_0034"  >
<polygon points="694,85 699,80 704,80 704,90 699,90 694,85 " style="fill:#5115d8; stroke-width:1; stroke:black; " description="&lt;b&gt;OZ428_RS02695&lt;/b&gt;&lt;br&gt;shikimate kinase AroK&lt;br&gt;Location: 556867 - 556349&lt;br&gt;&lt;br&gt;&lt;b&gt;BlastP hit with MFKKBJ_24030&lt;/b&gt;&lt;br&gt;Percentage identity: 98&lt;br&gt;Percentage coverage: 100&lt;br&gt;BLAST bit score: 313&lt;br&gt;E-value: 5.19e-109" locus_tag="OZ428_RS02695" class="clusterblast-orf" id="dummy-8_h8_2_34"  />
</g>
<g id="a8_0035"  >
<polygon points="704,85 709,80 729,80 729,90 709,90 704,85 " style="fill:#d81533; stroke-width:1; stroke:black; " description="&lt;b&gt;OZ428_RS02690&lt;/b&gt;&lt;br&gt;type IV pilus secretin PilQ family protein&lt;br&gt;Location: 556344 - 555087&lt;br&gt;&lt;br&gt;&lt;b&gt;BlastP hit with MFKKBJ_24035&lt;/b&gt;&lt;br&gt;Percentage identity: 91&lt;br&gt;Percentage coverage: 68&lt;br&gt;BLAST bit score: 538&lt;br&gt;E-value: 5.37e-191" locus_tag="OZ428_RS02690" class="clusterblast-orf" id="dummy-8_h8_2_35"  />
</g>
<g id="a8_0036"  >
<polygon points="731,85 736,80 750,80 750,90 736,90 731,85 " style="fill:#8dd815; stroke-width:1; stroke:black; " description="&lt;b&gt;OZ428_RS02685&lt;/b&gt;&lt;br&gt;pilus assembly protein PilP&lt;br&gt;Location: 554948 - 553989&lt;br&gt;&lt;br&gt;&lt;b&gt;BlastP hit with MFKKBJ_24040&lt;/b&gt;&lt;br&gt;Percentage identity: 68&lt;br&gt;Percentage coverage: 100&lt;br&gt;BLAST bit score: 418&lt;br&gt;E-value: 1.37e-145" locus_tag="OZ428_RS02685" class="clusterblast-orf" id="dummy-8_h8_2_36"  />
</g>
<g id="a8_0037"  >
<polygon points="750,85 755,80 761,80 761,90 755,90 750,85 " style="fill:#15d8c9; stroke-width:1; stroke:black; " description="&lt;b&gt;OZ428_RS02680&lt;/b&gt;&lt;br&gt;PilN domain-containing protein&lt;br&gt;Location: 553992 - 553438&lt;br&gt;&lt;br&gt;&lt;b&gt;BlastP hit with MFKKBJ_24045&lt;/b&gt;&lt;br&gt;Percentage identity: 84&lt;br&gt;Percentage coverage: 100&lt;br&gt;BLAST bit score: 288&lt;br&gt;E-value: 1.04e-98" locus_tag="OZ428_RS02680" class="clusterblast-orf" id="dummy-8_h8_2_37"  />
</g>
<g id="a8_0038"  >
<polygon points="761,85 766,80 774,80 774,90 766,90 761,85 " style="fill:#6f15d8; stroke-width:1; stroke:black; " description="&lt;b&gt;OZ428_RS02675&lt;/b&gt;&lt;br&gt;type IV pilus assembly protein PilM&lt;br&gt;Location: 553441 - 552788&lt;br&gt;&lt;br&gt;&lt;b&gt;BlastP hit with MFKKBJ_24050&lt;/b&gt;&lt;br&gt;Percentage identity: 73&lt;br&gt;Percentage coverage: 100&lt;br&gt;BLAST bit score: 308&lt;br&gt;E-value: 1.45e-105" locus_tag="OZ428_RS02675" class="clusterblast-orf" id="dummy-8_h8_2_38"  />
</g>
<g id="a8_0039"  >
<polygon points="774,85 777,80 777,90 774,85 " style="fill:white; stroke-width:1; stroke:black; " description="&lt;b&gt;OZ428_RS02670&lt;/b&gt;&lt;br&gt;hypothetical protein&lt;br&gt;Location: 552764 - 552618" locus_tag="OZ428_RS02670" class="clusterblast-orf" id="dummy-8_h8_2_39"  />
</g>
</svg>
