<svg xmlns="http://www.w3.org/2000/svg" xmlns:xlink="http://www.w3.org/1999/xlink" version="1.1" x="0" y="0" height="230" width="800" viewBox="0 0 800 230" preserveAspectRatio="none"  >
<g label="Query sequence" class="clusterblast-cluster"  >
<text x="5" y="20" class="clusterblast-acc"  >
Query sequence</text>
<line x1="10" y1="35" x2="778.0" y2="35" style="stroke-width:1; stroke:grey; "  />
<polygon points="0,40 11,40 16,35 11,30 0,30 0,40 " style="fill:#d81515; stroke-width:1; stroke:black; " description="&lt;b&gt;MFKKBJ_07865&lt;/b&gt;&lt;br&gt;Cytochrome b561 bacterial/Ni-hydrogenase domain-containing protein&lt;br&gt;Location: 1664701 - 1665241" locus_tag="MFKKBJ_07865" class="clusterblast-orf" id="dummy-2_q0_0_all"  />
<polygon points="18,35 23,30 52,30 52,40 23,40 18,35 " style="fill:#56d815; stroke-width:1; stroke:black; " description="&lt;b&gt;MFKKBJ_07870&lt;/b&gt;&lt;br&gt;Peptidase M14 carboxypeptidase A domain-containing protein&lt;br&gt;Location: 1665297 - 1666449" locus_tag="MFKKBJ_07870" class="clusterblast-orf" id="dummy-2_q1_0_all"  />
<polygon points="66,35 71,30 77,30 77,40 71,40 66,35 " style="fill:#1597d8; stroke-width:1; stroke:black; " description="&lt;b&gt;MFKKBJ_07880&lt;/b&gt;&lt;br&gt;DUF3077 domain-containing protein&lt;br&gt;Location: 1666911 - 1667262" locus_tag="MFKKBJ_07880" class="clusterblast-orf" id="dummy-2_q2_0_all"  />
<polygon points="81,40 95,40 100,35 95,30 81,30 81,40 " style="fill:#9715d8; stroke-width:1; stroke:black; " description="&lt;b&gt;MFKKBJ_07885&lt;/b&gt;&lt;br&gt;Putative prophage repressor&lt;br&gt;Location: 1667391 - 1668027" locus_tag="MFKKBJ_07885" class="clusterblast-orf" id="dummy-2_q3_0_all"  />
<polygon points="100,35 105,30 158,30 158,40 105,40 100,35 " style="fill:#d85615; stroke-width:1; stroke:black; " description="&lt;b&gt;MFKKBJ_07890&lt;/b&gt;&lt;br&gt;Methylcrotonyl-CoA carboxylase, alpha-subunit LiuD&lt;br&gt;Location: 1668023 - 1669949" locus_tag="MFKKBJ_07890" class="clusterblast-orf" id="dummy-2_q4_0_all"  />
<polygon points="158,35 163,30 182,30 182,40 163,40 158,35 " style="fill:#15d815; stroke-width:1; stroke:black; " description="&lt;b&gt;MFKKBJ_07895&lt;/b&gt;&lt;br&gt;gamma-carboxygeranoyl-CoA hydratase&lt;br&gt;Location: 1669945 - 1670752" locus_tag="MFKKBJ_07895" class="clusterblast-orf" id="dummy-2_q5_0_all"  />
<polygon points="183,35 188,30 231,30 231,40 188,40 183,35 " style="fill:#1556d8; stroke-width:1; stroke:black; " description="&lt;b&gt;MFKKBJ_07900&lt;/b&gt;&lt;br&gt;Acetyl-CoA carboxylase, carboxyltransferase component&lt;br&gt;Location: 1670767 - 1672375" locus_tag="MFKKBJ_07900" class="clusterblast-orf" id="dummy-2_q6_0_all"  />
<polygon points="231,35 236,30 267,30 267,40 236,40 231,35 " style="fill:#d815d8; stroke-width:1; stroke:black; " description="&lt;b&gt;MFKKBJ_07905&lt;/b&gt;&lt;br&gt;Acyl-CoA dehydrogenase related to the alkylation response protein AidB&lt;br&gt;Location: 1672386 - 1673550" locus_tag="MFKKBJ_07905" class="clusterblast-orf" id="dummy-2_q7_0_all"  />
<polygon points="271,40 315,40 320,35 315,30 271,30 271,40 " style="fill:#d89715; stroke-width:1; stroke:black; " description="&lt;b&gt;MFKKBJ_07910&lt;/b&gt;&lt;br&gt;Long-chain-fatty-acid--CoA ligase&lt;br&gt;Location: 1673699 - 1675331" locus_tag="MFKKBJ_07910" class="clusterblast-orf" id="dummy-2_q8_0_all"  />
<polygon points="323,40 473,40 478,35 473,30 323,30 323,40 " style="fill:#15d856; stroke-width:1; stroke:black; " description="&lt;b&gt;MFKKBJ_07915&lt;/b&gt;&lt;br&gt;RING-type E3 ubiquitin transferase&lt;br&gt;Location: 1675429 - 1680568" locus_tag="MFKKBJ_07915" class="clusterblast-orf" id="dummy-2_q9_0_all"  />
<polygon points="495,35 500,30 522,30 522,40 500,40 495,35 " style="fill:#1515d8; stroke-width:1; stroke:black; " description="&lt;b&gt;MFKKBJ_07925&lt;/b&gt;&lt;br&gt;hydroxymethylglutaryl-CoA lyase&lt;br&gt;Location: 1681116 - 1682016" locus_tag="MFKKBJ_07925" class="clusterblast-orf" id="dummy-2_q10_0_all"  />
<polygon points="522,35 527,30 534,30 534,40 527,40 522,35 " style="fill:#d81597; stroke-width:1; stroke:black; " description="&lt;b&gt;MFKKBJ_07930&lt;/b&gt;&lt;br&gt;HTH merR-type domain-containing protein&lt;br&gt;Location: 1682032 - 1682425" locus_tag="MFKKBJ_07930" class="clusterblast-orf" id="dummy-2_q11_0_all"  />
<polygon points="538,35 543,30 566,30 566,40 543,40 538,35 " style="fill:#d8d815; stroke-width:1; stroke:black; " description="&lt;b&gt;MFKKBJ_07935&lt;/b&gt;&lt;br&gt;DNA-binding transcriptional regulator, LysR family&lt;br&gt;Location: 1682562 - 1683498" locus_tag="MFKKBJ_07935" class="clusterblast-orf" id="dummy-2_q12_0_all"  />
<polygon points="571,40 603,40 608,35 603,30 571,30 571,40 " style="fill:#15d897; stroke-width:1; stroke:black; " description="&lt;b&gt;MFKKBJ_07940&lt;/b&gt;&lt;br&gt;Acyl-CoA dehydrogenase related to the alkylation response protein AidB&lt;br&gt;Location: 1683664 - 1684894" locus_tag="MFKKBJ_07940" class="clusterblast-orf" id="dummy-2_q13_0_all"  />
<polygon points="612,35 617,30 652,30 652,40 617,40 612,35 " style="fill:#5615d8; stroke-width:1; stroke:black; " description="&lt;b&gt;MFKKBJ_07945&lt;/b&gt;&lt;br&gt;OmpA-like domain-containing protein&lt;br&gt;Location: 1685010 - 1686342" locus_tag="MFKKBJ_07945" class="clusterblast-orf" id="dummy-2_q14_0_all"  />
<polygon points="656,35 661,30 680,30 680,40 661,40 656,35 " style="fill:#d81556; stroke-width:1; stroke:black; " description="&lt;b&gt;MFKKBJ_07950&lt;/b&gt;&lt;br&gt;exodeoxyribonuclease III&lt;br&gt;Location: 1686465 - 1687278" locus_tag="MFKKBJ_07950" class="clusterblast-orf" id="dummy-2_q15_0_all"  />
<polygon points="685,40 700,40 705,35 700,30 685,30 685,40 " style="fill:#97d815; stroke-width:1; stroke:black; " description="&lt;b&gt;MFKKBJ_07955&lt;/b&gt;&lt;br&gt;N-acetyltransferase domain-containing protein&lt;br&gt;Location: 1687447 - 1688098" locus_tag="MFKKBJ_07955" class="clusterblast-orf" id="dummy-2_q16_0_all"  />
<polygon points="707,40 754,40 759,35 754,30 707,30 707,40 " style="fill:#15d8d8; stroke-width:1; stroke:black; " description="&lt;b&gt;MFKKBJ_07960&lt;/b&gt;&lt;br&gt;Translocation and assembly module subunit TamA&lt;br&gt;Location: 1688161 - 1689889" locus_tag="MFKKBJ_07960" class="clusterblast-orf" id="dummy-2_q17_0_all"  />
<polygon points="759,40 775,40 780,35 775,30 759,30 759,40 " style="fill:white; stroke-width:1; stroke:black; " description="&lt;b&gt;MFKKBJ_07965&lt;/b&gt;&lt;br&gt;hypothetical protein&lt;br&gt;Location: 1689888 - 1690578" locus_tag="MFKKBJ_07965" class="clusterblast-orf" id="dummy-2_q18_0_all"  />
</g>
<g label="NZ_VIUN01000010" description="NZ_VIUN01000010 (158158-186495): Pseudomonas sp. SJZ103 Ga0314254 110, whole ... (100% of genes show similarity), betalactone" class="clusterblast-cluster"  >
<text x="5" y="70" class="clusterblast-acc"  >
<a xlink:href="https://antismash-db.secondarymetabolites.org/area?record=NZ_VIUN01000010&amp;start=158158&amp;end=186495" target="_blank">NZ_VIUN01000010 (158158-186495)</a>: Pseudomonas sp. SJZ103 Ga0314254 110, whole ... (100% of genes show similarity), betalactone</text>
<line x1="10" y1="85" x2="778.0" y2="85" style="stroke-width:1; stroke:grey; "  />
</g>
<g id="a2_000"  >
<polygon points="10,90 21,90 26,85 21,80 10,80 10,90 " style="fill:#d81515; stroke-width:1; stroke:black; " description="&lt;b&gt;FBY10_RS21285&lt;/b&gt;&lt;br&gt;cytochrome b&lt;br&gt;Location: 185460 - 184921&lt;br&gt;&lt;br&gt;&lt;b&gt;BlastP hit with MFKKBJ_07865&lt;/b&gt;&lt;br&gt;Percentage identity: 93&lt;br&gt;Percentage coverage: 99&lt;br&gt;BLAST bit score: 313&lt;br&gt;E-value: 8.93e-109" locus_tag="FBY10_RS21285" class="clusterblast-orf" id="dummy-2_h2_4_0"  />
</g>
<g id="a2_001"  >
<polygon points="27,85 32,80 62,80 62,90 32,90 27,85 " style="fill:#56d815; stroke-width:1; stroke:black; " description="&lt;b&gt;FBY10_RS21280&lt;/b&gt;&lt;br&gt;M14-type cytosolic carboxypeptidase&lt;br&gt;Location: 184902 - 183751&lt;br&gt;&lt;br&gt;&lt;b&gt;BlastP hit with MFKKBJ_07870&lt;/b&gt;&lt;br&gt;Percentage identity: 91&lt;br&gt;Percentage coverage: 100&lt;br&gt;BLAST bit score: 722&lt;br&gt;E-value: 7.87e-264" locus_tag="FBY10_RS21280" class="clusterblast-orf" id="dummy-2_h2_4_1"  />
</g>
<g id="a2_002"  >
<polygon points="76,85 81,80 86,80 86,90 81,90 76,85 " style="fill:#1597d8; stroke-width:1; stroke:black; " description="&lt;b&gt;FBY10_RS21270&lt;/b&gt;&lt;br&gt;DUF3077 domain-containing protein&lt;br&gt;Location: 183286 - 182936&lt;br&gt;&lt;br&gt;&lt;b&gt;BlastP hit with MFKKBJ_07880&lt;/b&gt;&lt;br&gt;Percentage identity: 84&lt;br&gt;Percentage coverage: 99&lt;br&gt;BLAST bit score: 177&lt;br&gt;E-value: 3.84e-57" locus_tag="FBY10_RS21270" class="clusterblast-orf" id="dummy-2_h2_4_2"  />
</g>
<g id="a2_003"  >
<polygon points="90,90 104,90 109,85 104,80 90,80 90,90 " style="fill:#9715d8; stroke-width:1; stroke:black; " description="&lt;b&gt;FBY10_RS21265&lt;/b&gt;&lt;br&gt;XRE family transcriptional regulator&lt;br&gt;Location: 182804 - 182169&lt;br&gt;&lt;br&gt;&lt;b&gt;BlastP hit with MFKKBJ_07885&lt;/b&gt;&lt;br&gt;Percentage identity: 80&lt;br&gt;Percentage coverage: 100&lt;br&gt;BLAST bit score: 343&lt;br&gt;E-value: 9.04e-120" locus_tag="FBY10_RS21265" class="clusterblast-orf" id="dummy-2_h2_4_3"  />
</g>
<g id="a2_004"  >
<polygon points="109,85 114,80 167,80 167,90 114,90 109,85 " style="fill:#d85615; stroke-width:1; stroke:black; " description="&lt;b&gt;FBY10_RS21260&lt;/b&gt;&lt;br&gt;acetyl/propionyl/methylcrotonyl-CoA carboxylase subunit alpha&lt;br&gt;Location: 182172 - 180247&lt;br&gt;&lt;br&gt;&lt;b&gt;BlastP hit with MFKKBJ_07890&lt;/b&gt;&lt;br&gt;Percentage identity: 93&lt;br&gt;Percentage coverage: 100&lt;br&gt;BLAST bit score: 1151&lt;br&gt;E-value: 0.0" locus_tag="FBY10_RS21260" class="clusterblast-orf" id="dummy-2_h2_4_4"  />
</g>
<g id="a2_005"  >
<polygon points="167,85 172,80 192,80 192,90 172,90 167,85 " style="fill:#15d815; stroke-width:1; stroke:black; " description="&lt;b&gt;FBY10_RS21255&lt;/b&gt;&lt;br&gt;gamma-carboxygeranoyl-CoA hydratase&lt;br&gt;Location: 180250 - 179444&lt;br&gt;&lt;br&gt;&lt;b&gt;BlastP hit with MFKKBJ_07895&lt;/b&gt;&lt;br&gt;Percentage identity: 94&lt;br&gt;Percentage coverage: 100&lt;br&gt;BLAST bit score: 486&lt;br&gt;E-value: 2.01e-174" locus_tag="FBY10_RS21255" class="clusterblast-orf" id="dummy-2_h2_4_5"  />
</g>
<g id="a2_006"  >
<polygon points="192,85 197,80 240,80 240,90 197,90 192,85 " style="fill:#1556d8; stroke-width:1; stroke:black; " description="&lt;b&gt;FBY10_RS21250&lt;/b&gt;&lt;br&gt;methylcrotonoyl-CoA carboxylase&lt;br&gt;Location: 179428 - 177821&lt;br&gt;&lt;br&gt;&lt;b&gt;BlastP hit with MFKKBJ_07900&lt;/b&gt;&lt;br&gt;Percentage identity: 98&lt;br&gt;Percentage coverage: 100&lt;br&gt;BLAST bit score: 1041&lt;br&gt;E-value: 0.0" locus_tag="FBY10_RS21250" class="clusterblast-orf" id="dummy-2_h2_4_6"  />
</g>
<g id="a2_007"  >
<polygon points="241,85 246,80 276,80 276,90 246,90 241,85 " style="fill:#d815d8; stroke-width:1; stroke:black; " description="&lt;b&gt;FBY10_RS21245&lt;/b&gt;&lt;br&gt;isovaleryl-CoA dehydrogenase&lt;br&gt;Location: 177809 - 176646&lt;br&gt;&lt;br&gt;&lt;b&gt;BlastP hit with MFKKBJ_07905&lt;/b&gt;&lt;br&gt;Percentage identity: 97&lt;br&gt;Percentage coverage: 100&lt;br&gt;BLAST bit score: 752&lt;br&gt;E-value: 1.39e-275" locus_tag="FBY10_RS21245" class="clusterblast-orf" id="dummy-2_h2_4_7"  />
</g>
<g id="a2_008"  >
<polygon points="280,90 325,90 330,85 325,80 280,80 280,90 " style="fill:#d89715; stroke-width:1; stroke:black; " description="&lt;b&gt;FBY10_RS21240&lt;/b&gt;&lt;br&gt;AMP-binding protein&lt;br&gt;Location: 176495 - 174861&lt;br&gt;&lt;br&gt;&lt;b&gt;BlastP hit with MFKKBJ_07910&lt;/b&gt;&lt;br&gt;Percentage identity: 91&lt;br&gt;Percentage coverage: 100&lt;br&gt;BLAST bit score: 1037&lt;br&gt;E-value: 0.0" locus_tag="FBY10_RS21240" class="clusterblast-orf" id="dummy-2_h2_4_8"  />
</g>
<g id="a2_009"  >
<polygon points="332,90 483,90 488,85 483,80 332,80 332,90 " style="fill:#15d856; stroke-width:1; stroke:black; " description="&lt;b&gt;FBY10_RS21235&lt;/b&gt;&lt;br&gt;hypothetical protein&lt;br&gt;Location: 174779 - 169608&lt;br&gt;&lt;br&gt;&lt;b&gt;BlastP hit with MFKKBJ_07915&lt;/b&gt;&lt;br&gt;Percentage identity: 53&lt;br&gt;Percentage coverage: 100&lt;br&gt;BLAST bit score: 1666&lt;br&gt;E-value: 0.0" locus_tag="FBY10_RS21235" class="clusterblast-orf" id="dummy-2_h2_4_9"  />
</g>
<g id="a2_0010"  >
<polygon points="505,85 510,80 532,80 532,90 510,90 505,85 " style="fill:#1515d8; stroke-width:1; stroke:black; " description="&lt;b&gt;FBY10_RS21230&lt;/b&gt;&lt;br&gt;hydroxymethylglutaryl-CoA lyase&lt;br&gt;Location: 169058 - 168159&lt;br&gt;&lt;br&gt;&lt;b&gt;BlastP hit with MFKKBJ_07925&lt;/b&gt;&lt;br&gt;Percentage identity: 94&lt;br&gt;Percentage coverage: 100&lt;br&gt;BLAST bit score: 545&lt;br&gt;E-value: 1.05e-196" locus_tag="FBY10_RS21230" class="clusterblast-orf" id="dummy-2_h2_4_10"  />
</g>
<g id="a2_0011"  >
<polygon points="532,85 537,80 544,80 544,90 537,90 532,85 " style="fill:#d81597; stroke-width:1; stroke:black; " description="&lt;b&gt;FBY10_RS21225&lt;/b&gt;&lt;br&gt;MerR family DNA-binding transcriptional regulator&lt;br&gt;Location: 168142 - 167750&lt;br&gt;&lt;br&gt;&lt;b&gt;BlastP hit with MFKKBJ_07930&lt;/b&gt;&lt;br&gt;Percentage identity: 97&lt;br&gt;Percentage coverage: 100&lt;br&gt;BLAST bit score: 236&lt;br&gt;E-value: 7.14e-80" locus_tag="FBY10_RS21225" class="clusterblast-orf" id="dummy-2_h2_4_11"  />
</g>
<g id="a2_0012"  >
<polygon points="548,85 553,80 576,80 576,90 553,90 548,85 " style="fill:#d8d815; stroke-width:1; stroke:black; " description="&lt;b&gt;FBY10_RS21220&lt;/b&gt;&lt;br&gt;LysR family transcriptional regulator&lt;br&gt;Location: 167634 - 166699&lt;br&gt;&lt;br&gt;&lt;b&gt;BlastP hit with MFKKBJ_07935&lt;/b&gt;&lt;br&gt;Percentage identity: 97&lt;br&gt;Percentage coverage: 100&lt;br&gt;BLAST bit score: 595&lt;br&gt;E-value: 5.8e-216" locus_tag="FBY10_RS21220" class="clusterblast-orf" id="dummy-2_h2_4_12"  />
</g>
<g id="a2_0013"  >
<polygon points="580,90 612,90 617,85 612,80 580,80 580,90 " style="fill:#15d897; stroke-width:1; stroke:black; " description="&lt;b&gt;FBY10_RS21215&lt;/b&gt;&lt;br&gt;acyl-CoA dehydrogenase&lt;br&gt;Location: 166547 - 165318&lt;br&gt;&lt;br&gt;&lt;b&gt;BlastP hit with MFKKBJ_07940&lt;/b&gt;&lt;br&gt;Percentage identity: 98&lt;br&gt;Percentage coverage: 100&lt;br&gt;BLAST bit score: 815&lt;br&gt;E-value: 7.82e-300" locus_tag="FBY10_RS21215" class="clusterblast-orf" id="dummy-2_h2_4_13"  />
</g>
<g id="a2_0014"  >
<polygon points="621,85 626,80 661,80 661,90 626,90 621,85 " style="fill:#5615d8; stroke-width:1; stroke:black; " description="&lt;b&gt;FBY10_RS21210&lt;/b&gt;&lt;br&gt;phosphate ABC transporter substrate-binding/OmpA family protein&lt;br&gt;Location: 165197 - 163863&lt;br&gt;&lt;br&gt;&lt;b&gt;BlastP hit with MFKKBJ_07945&lt;/b&gt;&lt;br&gt;Percentage identity: 90&lt;br&gt;Percentage coverage: 100&lt;br&gt;BLAST bit score: 768&lt;br&gt;E-value: 6.34e-280" locus_tag="FBY10_RS21210" class="clusterblast-orf" id="dummy-2_h2_4_14"  />
</g>
<g id="a2_0015"  >
<polygon points="666,85 671,80 690,80 690,90 671,90 666,85 " style="fill:#d81556; stroke-width:1; stroke:black; " description="&lt;b&gt;FBY10_RS21205&lt;/b&gt;&lt;br&gt;exodeoxyribonuclease III&lt;br&gt;Location: 163712 - 162900&lt;br&gt;&lt;br&gt;&lt;b&gt;BlastP hit with MFKKBJ_07950&lt;/b&gt;&lt;br&gt;Percentage identity: 96&lt;br&gt;Percentage coverage: 100&lt;br&gt;BLAST bit score: 546&lt;br&gt;E-value: 3.89e-198" locus_tag="FBY10_RS21205" class="clusterblast-orf" id="dummy-2_h2_4_15"  />
</g>
<g id="a2_0016"  >
<polygon points="695,90 710,90 715,85 710,80 695,80 695,90 " style="fill:#97d815; stroke-width:1; stroke:black; " description="&lt;b&gt;FBY10_RS21200&lt;/b&gt;&lt;br&gt;GNAT family N-acetyltransferase&lt;br&gt;Location: 162731 - 162087&lt;br&gt;&lt;br&gt;&lt;b&gt;BlastP hit with MFKKBJ_07955&lt;/b&gt;&lt;br&gt;Percentage identity: 94&lt;br&gt;Percentage coverage: 99&lt;br&gt;BLAST bit score: 417&lt;br&gt;E-value: 6.71e-149" locus_tag="FBY10_RS21200" class="clusterblast-orf" id="dummy-2_h2_4_16"  />
</g>
<g id="a2_0017"  >
<polygon points="717,90 764,90 769,85 764,80 717,80 717,90 " style="fill:#15d8d8; stroke-width:1; stroke:black; " description="&lt;b&gt;FBY10_RS21195&lt;/b&gt;&lt;br&gt;autotransporter assembly complex protein TamA&lt;br&gt;Location: 162022 - 160295&lt;br&gt;&lt;br&gt;&lt;b&gt;BlastP hit with MFKKBJ_07960&lt;/b&gt;&lt;br&gt;Percentage identity: 94&lt;br&gt;Percentage coverage: 100&lt;br&gt;BLAST bit score: 1126&lt;br&gt;E-value: 0.0" locus_tag="FBY10_RS21195" class="clusterblast-orf" id="dummy-2_h2_4_17"  />
</g>
</svg>
