<svg xmlns="http://www.w3.org/2000/svg" xmlns:xlink="http://www.w3.org/1999/xlink" version="1.1" x="0" y="0" height="230" width="800" viewBox="0 0 800 230" preserveAspectRatio="none"  >
<g label="Query sequence" class="clusterblast-cluster"  >
<text x="5" y="20" class="clusterblast-acc"  >
Query sequence</text>
<line x1="10" y1="35" x2="778.0" y2="35" style="stroke-width:1; stroke:grey; "  />
<polygon points="0,35 5,30 57,30 57,40 5,40 0,35 " style="fill:#d81515; stroke-width:1; stroke:black; " description="&lt;b&gt;MFKKBJ_12140&lt;/b&gt;&lt;br&gt;Transcriptional regulator, AraC family&lt;br&gt;Location: 2624271 - 2625141" locus_tag="MFKKBJ_12140" class="clusterblast-orf" id="dummy-4_q0_0_all"  />
<polygon points="69,40 104,40 109,35 104,30 69,30 69,40 " style="fill:#3cd815; stroke-width:1; stroke:black; " description="&lt;b&gt;MFKKBJ_12145&lt;/b&gt;&lt;br&gt;Lysine transporter LysE&lt;br&gt;Location: 2625329 - 2625950" locus_tag="MFKKBJ_12145" class="clusterblast-orf" id="dummy-4_q1_0_all"  />
<polygon points="114,40 140,40 145,35 140,30 114,30 114,40 " style="fill:#1563d8; stroke-width:1; stroke:black; " description="&lt;b&gt;MFKKBJ_12150&lt;/b&gt;&lt;br&gt;PhnB-like domain-containing protein&lt;br&gt;Location: 2626025 - 2626508" locus_tag="MFKKBJ_12150" class="clusterblast-orf" id="dummy-4_q2_0_all"  />
<polygon points="152,40 198,40 203,35 198,30 152,30 152,40 " style="fill:#b115d8; stroke-width:1; stroke:black; " description="&lt;b&gt;MFKKBJ_12155&lt;/b&gt;&lt;br&gt;cysteine synthase family protein&lt;br&gt;Location: 2626609 - 2627401" locus_tag="MFKKBJ_12155" class="clusterblast-orf" id="dummy-4_q3_0_all"  />
<polygon points="203,40 236,40 241,35 236,30 203,30 203,40 " style="fill:#b115d8; stroke-width:1; stroke:black; " description="&lt;b&gt;MFKKBJ_12160&lt;/b&gt;&lt;br&gt;CBS domain-containing protein&lt;br&gt;Location: 2627401 - 2627986" locus_tag="MFKKBJ_12160" class="clusterblast-orf" id="dummy-4_q4_0_all"  />
<polygon points="241,40 312,40 317,35 312,30 241,30 241,40 " style="fill:#d88a15; stroke-width:1; stroke:black; " description="&lt;b&gt;MFKKBJ_12165&lt;/b&gt;&lt;br&gt;cystathionine gamma-synthase&lt;br&gt;Location: 2627982 - 2629149" locus_tag="MFKKBJ_12165" class="clusterblast-orf" id="dummy-4_q5_0_all"  />
<polygon points="320,35 325,30 463,30 463,40 325,40 320,35 " style="fill:#15d863; stroke-width:1; stroke:black; " description="&lt;b&gt;MFKKBJ_12170&lt;/b&gt;&lt;br&gt;OsmC domain/YcaO domain-containing protein&lt;br&gt;Location: 2629201 - 2631403" locus_tag="MFKKBJ_12170" class="clusterblast-orf" id="dummy-4_q6_0_all"  />
<polygon points="474,40 486,40 491,35 486,30 474,30 474,40 " style="fill:#3c15d8; stroke-width:1; stroke:black; " description="&lt;b&gt;MFKKBJ_12175&lt;/b&gt;&lt;br&gt;PAS domain-containing protein&lt;br&gt;Location: 2631564 - 2631834" locus_tag="MFKKBJ_12175" class="clusterblast-orf" id="dummy-4_q7_0_all"  />
<polygon points="491,35 496,30 513,30 513,40 496,40 491,35 " style="fill:#15d863; stroke-width:1; stroke:black; " description="&lt;b&gt;MFKKBJ_12180&lt;/b&gt;&lt;br&gt;Osmotically inducible protein OsmC&lt;br&gt;Location: 2631823 - 2632174" locus_tag="MFKKBJ_12180" class="clusterblast-orf" id="dummy-4_q8_0_all"  />
<polygon points="524,40 621,40 626,35 621,30 524,30 524,40 " style="fill:#3c15d8; stroke-width:1; stroke:black; " description="&lt;b&gt;MFKKBJ_12185&lt;/b&gt;&lt;br&gt;Methyl-accepting transducer domain-containing protein&lt;br&gt;Location: 2632335 - 2633901" locus_tag="MFKKBJ_12185" class="clusterblast-orf" id="dummy-4_q9_0_all"  />
<polygon points="642,40 689,40 694,35 689,30 642,30 642,40 " style="fill:#d8158a; stroke-width:1; stroke:black; " description="&lt;b&gt;MFKKBJ_12190&lt;/b&gt;&lt;br&gt;Suppressor of fused-like domain-containing protein&lt;br&gt;Location: 2634149 - 2634959" locus_tag="MFKKBJ_12190" class="clusterblast-orf" id="dummy-4_q10_0_all"  />
<polygon points="694,40 727,40 732,35 727,30 694,30 694,40 " style="fill:#b1d815; stroke-width:1; stroke:black; " description="&lt;b&gt;MFKKBJ_12195&lt;/b&gt;&lt;br&gt;hypothetical protein&lt;br&gt;Location: 2634958 - 2635540" locus_tag="MFKKBJ_12195" class="clusterblast-orf" id="dummy-4_q11_0_all"  />
<polygon points="744,40 775,40 780,35 775,30 744,30 744,40 " style="fill:#15d8d8; stroke-width:1; stroke:black; " description="&lt;b&gt;MFKKBJ_12200&lt;/b&gt;&lt;br&gt;Hydrolase, isochorismatase family&lt;br&gt;Location: 2635719 - 2636280" locus_tag="MFKKBJ_12200" class="clusterblast-orf" id="dummy-4_q12_0_all"  />
</g>
<g label="NZ_MSDJ01000013" description="NZ_MSDJ01000013 (24035-36237): Pseudomonas fluorescens strain G2Y PF G2Y cont... (100% of genes show similarity), RiPP-like" class="clusterblast-cluster"  >
<text x="5" y="70" class="clusterblast-acc"  >
<a xlink:href="https://antismash-db.secondarymetabolites.org/area?record=NZ_MSDJ01000013&amp;start=24035&amp;end=36237" target="_blank">NZ_MSDJ01000013 (24035-36237)</a>: Pseudomonas fluorescens strain G2Y PF G2Y cont... (100% of genes show similarity), RiPP-like</text>
<line x1="10" y1="85" x2="778.0" y2="85" style="stroke-width:1; stroke:grey; "  />
</g>
<g id="a4_000"  >
<polygon points="25,85 30,80 81,80 81,90 30,90 25,85 " style="fill:#d81515; stroke-width:1; stroke:black; " description="&lt;b&gt;BFW92_RS13655&lt;/b&gt;&lt;br&gt;AraC family transcriptional regulator&lt;br&gt;Location: 36165 - 35296&lt;br&gt;&lt;br&gt;&lt;b&gt;BlastP hit with MFKKBJ_12140&lt;/b&gt;&lt;br&gt;Percentage identity: 98&lt;br&gt;Percentage coverage: 100&lt;br&gt;BLAST bit score: 585&lt;br&gt;E-value: 1.37e-212" locus_tag="BFW92_RS13655" class="clusterblast-orf" id="dummy-4_h4_2_0"  />
</g>
<g id="a4_001"  >
<polygon points="93,90 129,90 134,85 129,80 93,80 93,90 " style="fill:#3cd815; stroke-width:1; stroke:black; " description="&lt;b&gt;BFW92_RS13650&lt;/b&gt;&lt;br&gt;LysE family translocator&lt;br&gt;Location: 35107 - 34487&lt;br&gt;&lt;br&gt;&lt;b&gt;BlastP hit with MFKKBJ_12145&lt;/b&gt;&lt;br&gt;Percentage identity: 98&lt;br&gt;Percentage coverage: 100&lt;br&gt;BLAST bit score: 385&lt;br&gt;E-value: 1.51e-136" locus_tag="BFW92_RS13650" class="clusterblast-orf" id="dummy-4_h4_2_1"  />
</g>
<g id="a4_002"  >
<polygon points="139,90 165,90 170,85 165,80 139,80 139,90 " style="fill:#1563d8; stroke-width:1; stroke:black; " description="&lt;b&gt;BFW92_RS13645&lt;/b&gt;&lt;br&gt;VOC family protein&lt;br&gt;Location: 34411 - 33929&lt;br&gt;&lt;br&gt;&lt;b&gt;BlastP hit with MFKKBJ_12150&lt;/b&gt;&lt;br&gt;Percentage identity: 97&lt;br&gt;Percentage coverage: 100&lt;br&gt;BLAST bit score: 323&lt;br&gt;E-value: 3.28e-113" locus_tag="BFW92_RS13645" class="clusterblast-orf" id="dummy-4_h4_2_2"  />
</g>
<g id="a4_003"  >
<polygon points="176,90 261,90 266,85 261,80 176,80 176,90 " style="fill:#b115d8; stroke-width:1; stroke:black; " description="&lt;b&gt;BFW92_RS13640&lt;/b&gt;&lt;br&gt;pyridoxal-phosphate dependent enzyme&lt;br&gt;Location: 33828 - 32452&lt;br&gt;&lt;br&gt;&lt;b&gt;BlastP hit with MFKKBJ_12155&lt;/b&gt;&lt;br&gt;Percentage identity: 99&lt;br&gt;Percentage coverage: 100&lt;br&gt;BLAST bit score: 522&lt;br&gt;E-value: 1.47e-185&lt;br&gt;&lt;br&gt;&lt;b&gt;BlastP hit with MFKKBJ_12160&lt;/b&gt;&lt;br&gt;Percentage identity: 97&lt;br&gt;Percentage coverage: 100&lt;br&gt;BLAST bit score: 373&lt;br&gt;E-value: 3.81e-128" locus_tag="BFW92_RS13640" class="clusterblast-orf" id="dummy-4_h4_2_3"  />
</g>
<g id="a4_004"  >
<polygon points="266,90 336,90 341,85 336,80 266,80 266,90 " style="fill:#d88a15; stroke-width:1; stroke:black; " description="&lt;b&gt;BFW92_RS13635&lt;/b&gt;&lt;br&gt;cystathionine gamma-synthase&lt;br&gt;Location: 32455 - 31289&lt;br&gt;&lt;br&gt;&lt;b&gt;BlastP hit with MFKKBJ_12165&lt;/b&gt;&lt;br&gt;Percentage identity: 99&lt;br&gt;Percentage coverage: 100&lt;br&gt;BLAST bit score: 762&lt;br&gt;E-value: 2.33e-279" locus_tag="BFW92_RS13635" class="clusterblast-orf" id="dummy-4_h4_2_4"  />
</g>
<g id="a4_005"  >
<polygon points="345,85 350,80 488,80 488,90 350,90 345,85 " style="fill:#15d863; stroke-width:1; stroke:black; " description="&lt;b&gt;BFW92_RS13630&lt;/b&gt;&lt;br&gt;OsmC domain/YcaO domain-containing protein&lt;br&gt;Location: 31237 - 29036&lt;br&gt;&lt;br&gt;&lt;b&gt;BlastP hit with MFKKBJ_12170&lt;/b&gt;&lt;br&gt;Percentage identity: 99&lt;br&gt;Percentage coverage: 100&lt;br&gt;BLAST bit score: 1455&lt;br&gt;E-value: 0.0&lt;br&gt;&lt;br&gt;&lt;b&gt;BlastP hit with MFKKBJ_12180&lt;/b&gt;&lt;br&gt;Percentage identity: 99&lt;br&gt;Percentage coverage: 99&lt;br&gt;BLAST bit score: 232&lt;br&gt;E-value: 8.8e-72" locus_tag="BFW92_RS13630" class="clusterblast-orf" id="dummy-4_h4_2_5"  />
</g>
<g id="a4_006"  >
<polygon points="498,90 595,90 600,85 595,80 498,80 498,90 " style="fill:#3c15d8; stroke-width:1; stroke:black; " description="&lt;b&gt;BFW92_RS13625&lt;/b&gt;&lt;br&gt;methyl-accepting chemotaxis protein&lt;br&gt;Location: 28873 - 27308&lt;br&gt;&lt;br&gt;&lt;b&gt;BlastP hit with MFKKBJ_12175&lt;/b&gt;&lt;br&gt;Percentage identity: 98&lt;br&gt;Percentage coverage: 100&lt;br&gt;BLAST bit score: 182&lt;br&gt;E-value: 8.42e-55&lt;br&gt;&lt;br&gt;&lt;b&gt;BlastP hit with MFKKBJ_12185&lt;/b&gt;&lt;br&gt;Percentage identity: 99&lt;br&gt;Percentage coverage: 100&lt;br&gt;BLAST bit score: 907&lt;br&gt;E-value: 0.0" locus_tag="BFW92_RS13625" class="clusterblast-orf" id="dummy-4_h4_2_6"  />
</g>
<g id="a4_007"  >
<polygon points="616,90 663,90 668,85 663,80 616,80 616,90 " style="fill:#d8158a; stroke-width:1; stroke:black; " description="&lt;b&gt;BFW92_RS13620&lt;/b&gt;&lt;br&gt;suppressor of fused domain protein&lt;br&gt;Location: 27063 - 26254&lt;br&gt;&lt;br&gt;&lt;b&gt;BlastP hit with MFKKBJ_12190&lt;/b&gt;&lt;br&gt;Percentage identity: 99&lt;br&gt;Percentage coverage: 100&lt;br&gt;BLAST bit score: 519&lt;br&gt;E-value: 2.41e-187" locus_tag="BFW92_RS13620" class="clusterblast-orf" id="dummy-4_h4_2_7"  />
</g>
<g id="a4_008"  >
<polygon points="668,90 701,90 706,85 701,80 668,80 668,90 " style="fill:#b1d815; stroke-width:1; stroke:black; " description="&lt;b&gt;BFW92_RS13615&lt;/b&gt;&lt;br&gt;hypothetical protein&lt;br&gt;Location: 26254 - 25673&lt;br&gt;&lt;br&gt;&lt;b&gt;BlastP hit with MFKKBJ_12195&lt;/b&gt;&lt;br&gt;Percentage identity: 98&lt;br&gt;Percentage coverage: 100&lt;br&gt;BLAST bit score: 377&lt;br&gt;E-value: 8.93e-134" locus_tag="BFW92_RS13615" class="clusterblast-orf" id="dummy-4_h4_2_8"  />
</g>
<g id="a4_009"  >
<polygon points="718,90 749,90 754,85 749,80 718,80 718,90 " style="fill:#15d8d8; stroke-width:1; stroke:black; " description="&lt;b&gt;BFW92_RS13610&lt;/b&gt;&lt;br&gt;cysteine hydrolase&lt;br&gt;Location: 25492 - 24932&lt;br&gt;&lt;br&gt;&lt;b&gt;BlastP hit with MFKKBJ_12200&lt;/b&gt;&lt;br&gt;Percentage identity: 100&lt;br&gt;Percentage coverage: 100&lt;br&gt;BLAST bit score: 375&lt;br&gt;E-value: 4.3e-133" locus_tag="BFW92_RS13610" class="clusterblast-orf" id="dummy-4_h4_2_9"  />
</g>
</svg>
