<svg xmlns="http://www.w3.org/2000/svg" xmlns:xlink="http://www.w3.org/1999/xlink" version="1.1" x="0" y="0" height="230" width="800" viewBox="0 0 800 230" preserveAspectRatio="none"  >
<g label="Query sequence" class="clusterblast-cluster"  >
<text x="5" y="20" class="clusterblast-acc"  >
Query sequence</text>
<line x1="10" y1="35" x2="778.0" y2="35" style="stroke-width:1; stroke:grey; "  />
<polygon points="28,40 100,40 105,35 100,30 28,30 28,40 " style="fill:#d81515; stroke-width:1; stroke:black; " description="&lt;b&gt;MFKKBJ_26540&lt;/b&gt;&lt;br&gt;Protein HflC&lt;br&gt;Location: 5781757 - 5782747" locus_tag="MFKKBJ_26540" class="clusterblast-orf" id="dummy-10_q0_0_all"  />
<polygon points="104,40 179,40 184,35 179,30 104,30 104,40 " style="fill:#15d815; stroke-width:1; stroke:black; " description="&lt;b&gt;MFKKBJ_26545&lt;/b&gt;&lt;br&gt;Modulator of FtsH protease HflK&lt;br&gt;Location: 5782743 - 5783778" locus_tag="MFKKBJ_26545" class="clusterblast-orf" id="dummy-10_q1_0_all"  />
<polygon points="184,40 324,40 329,35 324,30 184,30 184,40 " style="fill:#1597d8; stroke-width:1; stroke:black; " description="&lt;b&gt;MFKKBJ_26550&lt;/b&gt;&lt;br&gt;Cadmium-translocating P-type ATPase&lt;br&gt;Location: 5783774 - 5785661" locus_tag="MFKKBJ_26550" class="clusterblast-orf" id="dummy-10_q2_0_all"  />
<polygon points="338,40 352,40 357,35 352,30 338,30 338,40 " style="fill:#9715d8; stroke-width:1; stroke:black; " description="&lt;b&gt;MFKKBJ_26555&lt;/b&gt;&lt;br&gt;Integral membrane protein&lt;br&gt;Location: 5785778 - 5786030" locus_tag="MFKKBJ_26555" class="clusterblast-orf" id="dummy-10_q3_0_all"  />
<polygon points="362,40 422,40 427,35 422,30 362,30 362,40 " style="fill:#d89715; stroke-width:1; stroke:black; " description="&lt;b&gt;MFKKBJ_26560&lt;/b&gt;&lt;br&gt;UPF0276 protein BW43 00573&lt;br&gt;Location: 5786096 - 5786942" locus_tag="MFKKBJ_26560" class="clusterblast-orf" id="dummy-10_q4_0_all"  />
<polygon points="427,40 482,40 487,35 482,30 427,30 427,40 " style="fill:#15d897; stroke-width:1; stroke:black; " description="&lt;b&gt;MFKKBJ_26565&lt;/b&gt;&lt;br&gt;DUF2063 domain-containing protein&lt;br&gt;Location: 5786932 - 5787721" locus_tag="MFKKBJ_26565" class="clusterblast-orf" id="dummy-10_q5_0_all"  />
<polygon points="494,40 580,40 585,35 580,30 494,30 494,40 " style="fill:#1515d8; stroke-width:1; stroke:black; " description="&lt;b&gt;MFKKBJ_26570&lt;/b&gt;&lt;br&gt;C17 cyclopropane fatty acid synthase CfaB&lt;br&gt;Location: 5787808 - 5788993" locus_tag="MFKKBJ_26570" class="clusterblast-orf" id="dummy-10_q6_0_all"  />
<polygon points="591,35 596,30 702,30 702,40 596,40 591,35 " style="fill:#d81597; stroke-width:1; stroke:black; " description="&lt;b&gt;MFKKBJ_26575&lt;/b&gt;&lt;br&gt;cardiolipin synthase&lt;br&gt;Location: 5789067 - 5790507" locus_tag="MFKKBJ_26575" class="clusterblast-orf" id="dummy-10_q7_0_all"  />
<polygon points="712,40 747,40 752,35 747,30 712,30 712,40 " style="fill:#97d815; stroke-width:1; stroke:black; " description="&lt;b&gt;MFKKBJ_26580&lt;/b&gt;&lt;br&gt;DUF3617 domain-containing protein&lt;br&gt;Location: 5790638 - 5791160" locus_tag="MFKKBJ_26580" class="clusterblast-orf" id="dummy-10_q8_0_all"  />
</g>
<g label="NZ_JACAQM010000014" description="NZ_JACAQM010000014 (24383-35229): Pseudomonas reactans strain IPO3748 IPO 374... (90% of genes show similarity), RiPP-like" class="clusterblast-cluster"  >
<text x="5" y="70" class="clusterblast-acc"  >
<a xlink:href="https://antismash-db.secondarymetabolites.org/area?record=NZ_JACAQM010000014&amp;start=24383&amp;end=35229" target="_blank">NZ_JACAQM010000014 (24383-35229)</a>: Pseudomonas reactans strain IPO3748 IPO 374... (90% of genes show similarity), RiPP-like</text>
<line x1="10" y1="85" x2="778.0" y2="85" style="stroke-width:1; stroke:grey; "  />
</g>
<g id="a10_000"  >
<polygon points="0,90 71,90 76,85 71,80 0,80 0,90 " style="fill:#d81515; stroke-width:1; stroke:black; " description="&lt;b&gt;HX785_RS17650&lt;/b&gt;&lt;br&gt;protease modulator HflC&lt;br&gt;Location: 25044 - 26033&lt;br&gt;&lt;br&gt;&lt;b&gt;BlastP hit with MFKKBJ_26540&lt;/b&gt;&lt;br&gt;Percentage identity: 99&lt;br&gt;Percentage coverage: 100&lt;br&gt;BLAST bit score: 527&lt;br&gt;E-value: 1.51e-188" locus_tag="HX785_RS17650" class="clusterblast-orf" id="dummy-10_h10_9_0"  />
</g>
<g id="a10_001"  >
<polygon points="75,90 150,90 155,85 150,80 75,80 75,90 " style="fill:#15d815; stroke-width:1; stroke:black; " description="&lt;b&gt;HX785_RS17655&lt;/b&gt;&lt;br&gt;protease modulator HflK&lt;br&gt;Location: 26030 - 27064&lt;br&gt;&lt;br&gt;&lt;b&gt;BlastP hit with MFKKBJ_26545&lt;/b&gt;&lt;br&gt;Percentage identity: 97&lt;br&gt;Percentage coverage: 100&lt;br&gt;BLAST bit score: 551&lt;br&gt;E-value: 1.2e-197" locus_tag="HX785_RS17655" class="clusterblast-orf" id="dummy-10_h10_9_1"  />
</g>
<g id="a10_002"  >
<polygon points="155,90 295,90 300,85 295,80 155,80 155,90 " style="fill:#1597d8; stroke-width:1; stroke:black; " description="&lt;b&gt;HX785_RS17660&lt;/b&gt;&lt;br&gt;cation-translocating P-type ATPase&lt;br&gt;Location: 27061 - 28947&lt;br&gt;&lt;br&gt;&lt;b&gt;BlastP hit with MFKKBJ_26550&lt;/b&gt;&lt;br&gt;Percentage identity: 96&lt;br&gt;Percentage coverage: 100&lt;br&gt;BLAST bit score: 1071&lt;br&gt;E-value: 0.0" locus_tag="HX785_RS17660" class="clusterblast-orf" id="dummy-10_h10_9_2"  />
</g>
<g id="a10_003"  >
<polygon points="309,90 323,90 328,85 323,80 309,80 309,90 " style="fill:#9715d8; stroke-width:1; stroke:black; " description="&lt;b&gt;HX785_RS17665&lt;/b&gt;&lt;br&gt;membrane protein&lt;br&gt;Location: 29064 - 29318&lt;br&gt;&lt;br&gt;&lt;b&gt;BlastP hit with MFKKBJ_26555&lt;/b&gt;&lt;br&gt;Percentage identity: 70&lt;br&gt;Percentage coverage: 101&lt;br&gt;BLAST bit score: 80&lt;br&gt;E-value: 1.95e-19" locus_tag="HX785_RS17665" class="clusterblast-orf" id="dummy-10_h10_9_3"  />
</g>
<g id="a10_004"  >
<polygon points="334,90 394,90 399,85 394,80 334,80 334,90 " style="fill:#d89715; stroke-width:1; stroke:black; " description="&lt;b&gt;HX785_RS17670&lt;/b&gt;&lt;br&gt;DUF692 domain-containing protein&lt;br&gt;Location: 29384 - 30229&lt;br&gt;&lt;br&gt;&lt;b&gt;BlastP hit with MFKKBJ_26560&lt;/b&gt;&lt;br&gt;Percentage identity: 94&lt;br&gt;Percentage coverage: 100&lt;br&gt;BLAST bit score: 551&lt;br&gt;E-value: 1.35e-199" locus_tag="HX785_RS17670" class="clusterblast-orf" id="dummy-10_h10_9_4"  />
</g>
<g id="a10_005"  >
<polygon points="398,90 453,90 458,85 453,80 398,80 398,90 " style="fill:#15d897; stroke-width:1; stroke:black; " description="&lt;b&gt;HX785_RS17675&lt;/b&gt;&lt;br&gt;DNA-binding domain-containing protein&lt;br&gt;Location: 30220 - 31008&lt;br&gt;&lt;br&gt;&lt;b&gt;BlastP hit with MFKKBJ_26565&lt;/b&gt;&lt;br&gt;Percentage identity: 82&lt;br&gt;Percentage coverage: 100&lt;br&gt;BLAST bit score: 453&lt;br&gt;E-value: 1.62e-161" locus_tag="HX785_RS17675" class="clusterblast-orf" id="dummy-10_h10_9_5"  />
</g>
<g id="a10_006"  >
<polygon points="465,90 551,90 556,85 551,80 465,80 465,90 " style="fill:#1515d8; stroke-width:1; stroke:black; " description="&lt;b&gt;HX785_RS17680&lt;/b&gt;&lt;br&gt;C17 cyclopropane fatty acid synthase CfaB&lt;br&gt;Location: 31096 - 32280&lt;br&gt;&lt;br&gt;&lt;b&gt;BlastP hit with MFKKBJ_26570&lt;/b&gt;&lt;br&gt;Percentage identity: 97&lt;br&gt;Percentage coverage: 100&lt;br&gt;BLAST bit score: 779&lt;br&gt;E-value: 7.31e-286" locus_tag="HX785_RS17680" class="clusterblast-orf" id="dummy-10_h10_9_6"  />
</g>
<g id="a10_007"  >
<polygon points="557,85 562,80 668,80 668,90 562,90 557,85 " style="fill:#d81597; stroke-width:1; stroke:black; " description="&lt;b&gt;HX785_RS17685&lt;/b&gt;&lt;br&gt;cardiolipin synthase&lt;br&gt;Location: 32286 - 33725&lt;br&gt;&lt;br&gt;&lt;b&gt;BlastP hit with MFKKBJ_26575&lt;/b&gt;&lt;br&gt;Percentage identity: 97&lt;br&gt;Percentage coverage: 100&lt;br&gt;BLAST bit score: 921&lt;br&gt;E-value: 0.0" locus_tag="HX785_RS17685" class="clusterblast-orf" id="dummy-10_h10_9_7"  />
</g>
<g id="a10_008"  >
<polygon points="678,90 713,90 718,85 713,80 678,80 678,90 " style="fill:#97d815; stroke-width:1; stroke:black; " description="&lt;b&gt;HX785_RS17690&lt;/b&gt;&lt;br&gt;DUF3617 domain-containing protein&lt;br&gt;Location: 33856 - 34377&lt;br&gt;&lt;br&gt;&lt;b&gt;BlastP hit with MFKKBJ_26580&lt;/b&gt;&lt;br&gt;Percentage identity: 97&lt;br&gt;Percentage coverage: 100&lt;br&gt;BLAST bit score: 335&lt;br&gt;E-value: 1.16e-117" locus_tag="HX785_RS17690" class="clusterblast-orf" id="dummy-10_h10_9_8"  />
</g>
<g id="a10_009"  >
<polygon points="717,85 722,80 780,80 780,90 722,90 717,85 " style="fill:white; stroke-width:1; stroke:black; " description="&lt;b&gt;HX785_RS17695&lt;/b&gt;&lt;br&gt;His/Gly/Thr/Pro-type tRNA ligase C-terminal domain-containing protein&lt;br&gt;Location: 34361 - 35179" locus_tag="HX785_RS17695" class="clusterblast-orf" id="dummy-10_h10_9_9"  />
</g>
</svg>
