<svg xmlns="http://www.w3.org/2000/svg" xmlns:xlink="http://www.w3.org/1999/xlink" version="1.1" x="0" y="0" height="230" width="800" viewBox="0 0 800 230" preserveAspectRatio="none"  >
<g label="Query sequence" class="clusterblast-cluster"  >
<text x="5" y="20" class="clusterblast-acc"  >
Query sequence</text>
<line x1="10" y1="35" x2="778.0" y2="35" style="stroke-width:1; stroke:grey; "  />
<polygon points="2,40 62,40 67,35 62,30 2,30 2,40 " style="fill:#d81515; stroke-width:1; stroke:black; " description="&lt;b&gt;MFKKBJ_07180&lt;/b&gt;&lt;br&gt;ABC transmembrane type-1 domain-containing protein&lt;br&gt;Location: 1515901 - 1516858" locus_tag="MFKKBJ_07180" class="clusterblast-orf" id="dummy-1_q0_0_all"  />
<polygon points="67,40 122,40 127,35 122,30 67,30 67,40 " style="fill:#3cd815; stroke-width:1; stroke:black; " description="&lt;b&gt;MFKKBJ_07185&lt;/b&gt;&lt;br&gt;DNA-directed RNA polymerase subunit alpha&lt;br&gt;Location: 1516854 - 1517730" locus_tag="MFKKBJ_07185" class="clusterblast-orf" id="dummy-1_q1_0_all"  />
<polygon points="127,40 248,40 253,35 248,30 127,30 127,40 " style="fill:#1563d8; stroke-width:1; stroke:black; " description="&lt;b&gt;MFKKBJ_07190&lt;/b&gt;&lt;br&gt;nickel import ATP-binding protein NikE&lt;br&gt;Location: 1517731 - 1519573" locus_tag="MFKKBJ_07190" class="clusterblast-orf" id="dummy-1_q2_0_all"  />
<polygon points="252,40 269,40 274,35 269,30 252,30 252,40 " style="fill:#b115d8; stroke-width:1; stroke:black; " description="&lt;b&gt;MFKKBJ_07195&lt;/b&gt;&lt;br&gt;NAD(FAD)-dependent dehydrogenase&lt;br&gt;Location: 1519569 - 1519878" locus_tag="MFKKBJ_07195" class="clusterblast-orf" id="dummy-1_q3_0_all"  />
<polygon points="272,40 362,40 367,35 362,30 272,30 272,40 " style="fill:#d88a15; stroke-width:1; stroke:black; " description="&lt;b&gt;MFKKBJ_07200&lt;/b&gt;&lt;br&gt;Hydrogen cyanide synthase subunit HcnB&lt;br&gt;Location: 1519859 - 1521239" locus_tag="MFKKBJ_07200" class="clusterblast-orf" id="dummy-1_q4_0_all"  />
<polygon points="366,40 440,40 445,35 440,30 366,30 366,40 " style="fill:#15d863; stroke-width:1; stroke:black; " description="&lt;b&gt;MFKKBJ_07205&lt;/b&gt;&lt;br&gt;FAD dependent oxidoreductase domain-containing protein&lt;br&gt;Location: 1521235 - 1522387" locus_tag="MFKKBJ_07205" class="clusterblast-orf" id="dummy-1_q5_0_all"  />
<polygon points="445,40 519,40 524,35 519,30 445,30 445,40 " style="fill:#3c15d8; stroke-width:1; stroke:black; " description="&lt;b&gt;MFKKBJ_07210&lt;/b&gt;&lt;br&gt;acetylornithine deacetylase&lt;br&gt;Location: 1522383 - 1523541" locus_tag="MFKKBJ_07210" class="clusterblast-orf" id="dummy-1_q6_0_all"  />
<polygon points="532,40 627,40 632,35 627,30 532,30 532,40 " style="fill:#d8158a; stroke-width:1; stroke:black; " description="&lt;b&gt;MFKKBJ_07215&lt;/b&gt;&lt;br&gt;Glutarate-semialdehyde dehydrogenase Succinate-semialdehyde dehydrogenase [NADP+]&lt;br&gt;Location: 1523658 - 1525119" locus_tag="MFKKBJ_07215" class="clusterblast-orf" id="dummy-1_q7_0_all"  />
<polygon points="632,40 702,40 707,35 702,30 632,30 632,40 " style="fill:#b1d815; stroke-width:1; stroke:black; " description="&lt;b&gt;MFKKBJ_07220&lt;/b&gt;&lt;br&gt;tartrate dehydrogenase&lt;br&gt;Location: 1525132 - 1526218" locus_tag="MFKKBJ_07220" class="clusterblast-orf" id="dummy-1_q8_0_all"  />
<polygon points="707,35 712,30 715,30 715,40 712,40 707,35 " style="fill:white; stroke-width:1; stroke:black; " description="&lt;b&gt;MFKKBJ_07225&lt;/b&gt;&lt;br&gt;hypothetical protein&lt;br&gt;Location: 1526229 - 1526343" locus_tag="MFKKBJ_07225" class="clusterblast-orf" id="dummy-1_q9_0_all"  />
<polygon points="715,35 720,30 778,30 778,40 720,40 715,35 " style="fill:#15d8d8; stroke-width:1; stroke:black; " description="&lt;b&gt;MFKKBJ_07230&lt;/b&gt;&lt;br&gt;D-3-phosphoglycerate dehydrogenase&lt;br&gt;Location: 1526342 - 1527269" locus_tag="MFKKBJ_07230" class="clusterblast-orf" id="dummy-1_q10_0_all"  />
</g>
<g label="NZ_CP041236" description="NZ_CP041236 (4483475-4496296): Pseudomonas azotoformans strain P45A chromosom... (100% of genes show similarity), hydrogen-cyanide" class="clusterblast-cluster"  >
<text x="5" y="70" class="clusterblast-acc"  >
<a xlink:href="https://antismash-db.secondarymetabolites.org/area?record=NZ_CP041236&amp;start=4483475&amp;end=4496296" target="_blank">NZ_CP041236 (4483475-4496296)</a>: Pseudomonas azotoformans strain P45A chromosom... (100% of genes show similarity), hydrogen-cyanide</text>
<line x1="10" y1="85" x2="778.0" y2="85" style="stroke-width:1; stroke:grey; "  />
</g>
<g id="a1_000"  >
<polygon points="0,90 60,90 65,85 60,80 0,80 0,90 " style="fill:#d81515; stroke-width:1; stroke:black; " description="&lt;b&gt;FKZ69_RS20890&lt;/b&gt;&lt;br&gt;ABC transporter permease&lt;br&gt;Location: 4494961 - 4494005&lt;br&gt;&lt;br&gt;&lt;b&gt;BlastP hit with MFKKBJ_07180&lt;/b&gt;&lt;br&gt;Percentage identity: 98&lt;br&gt;Percentage coverage: 100&lt;br&gt;BLAST bit score: 578&lt;br&gt;E-value: 5.06e-209" locus_tag="FKZ69_RS20890" class="clusterblast-orf" id="dummy-1_h1_7_0"  />
</g>
<g id="a1_001"  >
<polygon points="65,90 119,90 124,85 119,80 65,80 65,90 " style="fill:#3cd815; stroke-width:1; stroke:black; " description="&lt;b&gt;FKZ69_RS20885&lt;/b&gt;&lt;br&gt;ABC transporter permease&lt;br&gt;Location: 4494008 - 4493133&lt;br&gt;&lt;br&gt;&lt;b&gt;BlastP hit with MFKKBJ_07185&lt;/b&gt;&lt;br&gt;Percentage identity: 98&lt;br&gt;Percentage coverage: 100&lt;br&gt;BLAST bit score: 539&lt;br&gt;E-value: 1.56e-194" locus_tag="FKZ69_RS20885" class="clusterblast-orf" id="dummy-1_h1_7_1"  />
</g>
<g id="a1_002"  >
<polygon points="124,90 245,90 250,85 245,80 124,80 124,90 " style="fill:#1563d8; stroke-width:1; stroke:black; " description="&lt;b&gt;FKZ69_RS20880&lt;/b&gt;&lt;br&gt;ABC transporter ATP-binding protein&lt;br&gt;Location: 4493131 - 4491293&lt;br&gt;&lt;br&gt;&lt;b&gt;BlastP hit with MFKKBJ_07190&lt;/b&gt;&lt;br&gt;Percentage identity: 94&lt;br&gt;Percentage coverage: 100&lt;br&gt;BLAST bit score: 1108&lt;br&gt;E-value: 0.0" locus_tag="FKZ69_RS20880" class="clusterblast-orf" id="dummy-1_h1_7_2"  />
</g>
<g id="a1_003"  >
<polygon points="250,90 266,90 271,85 266,80 250,80 250,90 " style="fill:#b115d8; stroke-width:1; stroke:black; " description="&lt;b&gt;FKZ69_RS20875&lt;/b&gt;&lt;br&gt;(2Fe-2S)-binding protein&lt;br&gt;Location: 4491296 - 4490988&lt;br&gt;&lt;br&gt;&lt;b&gt;BlastP hit with MFKKBJ_07195&lt;/b&gt;&lt;br&gt;Percentage identity: 96&lt;br&gt;Percentage coverage: 100&lt;br&gt;BLAST bit score: 207&lt;br&gt;E-value: 1.76e-69" locus_tag="FKZ69_RS20875" class="clusterblast-orf" id="dummy-1_h1_7_3"  />
</g>
<g id="a1_004"  >
<polygon points="270,90 359,90 364,85 359,80 270,80 270,90 " style="fill:#d88a15; stroke-width:1; stroke:black; " description="&lt;b&gt;FKZ69_RS20870&lt;/b&gt;&lt;br&gt;FAD-dependent oxidoreductase&lt;br&gt;Location: 4491006 - 4489627&lt;br&gt;&lt;br&gt;&lt;b&gt;BlastP hit with MFKKBJ_07200&lt;/b&gt;&lt;br&gt;Percentage identity: 94&lt;br&gt;Percentage coverage: 100&lt;br&gt;BLAST bit score: 838&lt;br&gt;E-value: 3.96e-307" locus_tag="FKZ69_RS20870" class="clusterblast-orf" id="dummy-1_h1_7_4"  />
</g>
<g id="a1_005"  >
<polygon points="364,90 437,90 442,85 437,80 364,80 364,90 " style="fill:#15d863; stroke-width:1; stroke:black; " description="&lt;b&gt;FKZ69_RS20865&lt;/b&gt;&lt;br&gt;FAD-binding oxidoreductase&lt;br&gt;Location: 4489630 - 4488476&lt;br&gt;&lt;br&gt;&lt;b&gt;BlastP hit with MFKKBJ_07205&lt;/b&gt;&lt;br&gt;Percentage identity: 95&lt;br&gt;Percentage coverage: 100&lt;br&gt;BLAST bit score: 722&lt;br&gt;E-value: 1.16e-263" locus_tag="FKZ69_RS20865" class="clusterblast-orf" id="dummy-1_h1_7_5"  />
</g>
<g id="a1_006"  >
<polygon points="442,90 516,90 521,85 516,80 442,80 442,90 " style="fill:#3c15d8; stroke-width:1; stroke:black; " description="&lt;b&gt;FKZ69_RS20860&lt;/b&gt;&lt;br&gt;acetylornithine deacetylase&lt;br&gt;Location: 4488479 - 4487322&lt;br&gt;&lt;br&gt;&lt;b&gt;BlastP hit with MFKKBJ_07210&lt;/b&gt;&lt;br&gt;Percentage identity: 94&lt;br&gt;Percentage coverage: 100&lt;br&gt;BLAST bit score: 718&lt;br&gt;E-value: 3.07e-262" locus_tag="FKZ69_RS20860" class="clusterblast-orf" id="dummy-1_h1_7_6"  />
</g>
<g id="a1_007"  >
<polygon points="529,90 624,90 629,85 624,80 529,80 529,90 " style="fill:#d8158a; stroke-width:1; stroke:black; " description="&lt;b&gt;FKZ69_RS20855&lt;/b&gt;&lt;br&gt;NAD-dependent succinate-semialdehyde dehydrogenase&lt;br&gt;Location: 4487204 - 4485744&lt;br&gt;&lt;br&gt;&lt;b&gt;BlastP hit with MFKKBJ_07215&lt;/b&gt;&lt;br&gt;Percentage identity: 94&lt;br&gt;Percentage coverage: 100&lt;br&gt;BLAST bit score: 855&lt;br&gt;E-value: 6.38e-313" locus_tag="FKZ69_RS20855" class="clusterblast-orf" id="dummy-1_h1_7_7"  />
</g>
<g id="a1_008"  >
<polygon points="630,90 700,90 705,85 700,80 630,80 630,90 " style="fill:#b1d815; stroke-width:1; stroke:black; " description="&lt;b&gt;FKZ69_RS20850&lt;/b&gt;&lt;br&gt;tartrate dehydrogenase&lt;br&gt;Location: 4485723 - 4484632&lt;br&gt;&lt;br&gt;&lt;b&gt;BlastP hit with MFKKBJ_07220&lt;/b&gt;&lt;br&gt;Percentage identity: 93&lt;br&gt;Percentage coverage: 99&lt;br&gt;BLAST bit score: 695&lt;br&gt;E-value: 7.14e-254" locus_tag="FKZ69_RS20850" class="clusterblast-orf" id="dummy-1_h1_7_8"  />
</g>
<g id="a1_009"  >
<polygon points="716,85 721,80 780,80 780,90 721,90 716,85 " style="fill:#15d8d8; stroke-width:1; stroke:black; " description="&lt;b&gt;FKZ69_RS20845&lt;/b&gt;&lt;br&gt;glyoxylate/hydroxypyruvate reductase A&lt;br&gt;Location: 4484466 - 4483540&lt;br&gt;&lt;br&gt;&lt;b&gt;BlastP hit with MFKKBJ_07230&lt;/b&gt;&lt;br&gt;Percentage identity: 87&lt;br&gt;Percentage coverage: 100&lt;br&gt;BLAST bit score: 551&lt;br&gt;E-value: 1.55e-198" locus_tag="FKZ69_RS20845" class="clusterblast-orf" id="dummy-1_h1_7_9"  />
</g>
</svg>
