<svg xmlns="http://www.w3.org/2000/svg" xmlns:xlink="http://www.w3.org/1999/xlink" version="1.1" x="0" y="0" height="230" width="800" viewBox="0 0 800 230" preserveAspectRatio="none"  >
<g label="Query sequence" class="clusterblast-cluster"  >
<text x="5" y="20" class="clusterblast-acc"  >
Query sequence</text>
<line x1="10" y1="35" x2="778.0" y2="35" style="stroke-width:1; stroke:grey; "  />
<polygon points="2,40 62,40 67,35 62,30 2,30 2,40 " style="fill:#d81515; stroke-width:1; stroke:black; " description="&lt;b&gt;MFKKBJ_07180&lt;/b&gt;&lt;br&gt;ABC transmembrane type-1 domain-containing protein&lt;br&gt;Location: 1515901 - 1516858" locus_tag="MFKKBJ_07180" class="clusterblast-orf" id="dummy-1_q0_0_all"  />
<polygon points="67,40 122,40 127,35 122,30 67,30 67,40 " style="fill:#3cd815; stroke-width:1; stroke:black; " description="&lt;b&gt;MFKKBJ_07185&lt;/b&gt;&lt;br&gt;DNA-directed RNA polymerase subunit alpha&lt;br&gt;Location: 1516854 - 1517730" locus_tag="MFKKBJ_07185" class="clusterblast-orf" id="dummy-1_q1_0_all"  />
<polygon points="127,40 248,40 253,35 248,30 127,30 127,40 " style="fill:#1563d8; stroke-width:1; stroke:black; " description="&lt;b&gt;MFKKBJ_07190&lt;/b&gt;&lt;br&gt;nickel import ATP-binding protein NikE&lt;br&gt;Location: 1517731 - 1519573" locus_tag="MFKKBJ_07190" class="clusterblast-orf" id="dummy-1_q2_0_all"  />
<polygon points="252,40 268,40 273,35 268,30 252,30 252,40 " style="fill:#b115d8; stroke-width:1; stroke:black; " description="&lt;b&gt;MFKKBJ_07195&lt;/b&gt;&lt;br&gt;NAD(FAD)-dependent dehydrogenase&lt;br&gt;Location: 1519569 - 1519878" locus_tag="MFKKBJ_07195" class="clusterblast-orf" id="dummy-1_q3_0_all"  />
<polygon points="272,40 361,40 366,35 361,30 272,30 272,40 " style="fill:#d88a15; stroke-width:1; stroke:black; " description="&lt;b&gt;MFKKBJ_07200&lt;/b&gt;&lt;br&gt;Hydrogen cyanide synthase subunit HcnB&lt;br&gt;Location: 1519859 - 1521239" locus_tag="MFKKBJ_07200" class="clusterblast-orf" id="dummy-1_q4_0_all"  />
<polygon points="366,40 440,40 445,35 440,30 366,30 366,40 " style="fill:#15d863; stroke-width:1; stroke:black; " description="&lt;b&gt;MFKKBJ_07205&lt;/b&gt;&lt;br&gt;FAD dependent oxidoreductase domain-containing protein&lt;br&gt;Location: 1521235 - 1522387" locus_tag="MFKKBJ_07205" class="clusterblast-orf" id="dummy-1_q5_0_all"  />
<polygon points="445,40 519,40 524,35 519,30 445,30 445,40 " style="fill:#3c15d8; stroke-width:1; stroke:black; " description="&lt;b&gt;MFKKBJ_07210&lt;/b&gt;&lt;br&gt;acetylornithine deacetylase&lt;br&gt;Location: 1522383 - 1523541" locus_tag="MFKKBJ_07210" class="clusterblast-orf" id="dummy-1_q6_0_all"  />
<polygon points="532,40 627,40 632,35 627,30 532,30 532,40 " style="fill:#d8158a; stroke-width:1; stroke:black; " description="&lt;b&gt;MFKKBJ_07215&lt;/b&gt;&lt;br&gt;Glutarate-semialdehyde dehydrogenase Succinate-semialdehyde dehydrogenase [NADP+]&lt;br&gt;Location: 1523658 - 1525119" locus_tag="MFKKBJ_07215" class="clusterblast-orf" id="dummy-1_q7_0_all"  />
<polygon points="633,40 702,40 707,35 702,30 633,30 633,40 " style="fill:#b1d815; stroke-width:1; stroke:black; " description="&lt;b&gt;MFKKBJ_07220&lt;/b&gt;&lt;br&gt;tartrate dehydrogenase&lt;br&gt;Location: 1525132 - 1526218" locus_tag="MFKKBJ_07220" class="clusterblast-orf" id="dummy-1_q8_0_all"  />
<polygon points="708,35 713,30 715,30 715,40 713,40 708,35 " style="fill:white; stroke-width:1; stroke:black; " description="&lt;b&gt;MFKKBJ_07225&lt;/b&gt;&lt;br&gt;hypothetical protein&lt;br&gt;Location: 1526229 - 1526343" locus_tag="MFKKBJ_07225" class="clusterblast-orf" id="dummy-1_q9_0_all"  />
<polygon points="715,35 720,30 779,30 779,40 720,40 715,35 " style="fill:#15d8d8; stroke-width:1; stroke:black; " description="&lt;b&gt;MFKKBJ_07230&lt;/b&gt;&lt;br&gt;D-3-phosphoglycerate dehydrogenase&lt;br&gt;Location: 1526342 - 1527269" locus_tag="MFKKBJ_07230" class="clusterblast-orf" id="dummy-1_q10_0_all"  />
</g>
<g label="NZ_QCWA01000007" description="NZ_QCWA01000007 (193420-206241): Pseudomonas sp. GV047 Ga0189750 107, whole g... (100% of genes show similarity), hydrogen-cyanide" class="clusterblast-cluster"  >
<text x="5" y="70" class="clusterblast-acc"  >
<a xlink:href="https://antismash-db.secondarymetabolites.org/area?record=NZ_QCWA01000007&amp;start=193420&amp;end=206241" target="_blank">NZ_QCWA01000007 (193420-206241)</a>: Pseudomonas sp. GV047 Ga0189750 107, whole g... (100% of genes show similarity), hydrogen-cyanide</text>
<line x1="10" y1="85" x2="778.0" y2="85" style="stroke-width:1; stroke:grey; "  />
</g>
<g id="a1_000"  >
<polygon points="0,90 60,90 65,85 60,80 0,80 0,90 " style="fill:#d81515; stroke-width:1; stroke:black; " description="&lt;b&gt;C8K58_RS19750&lt;/b&gt;&lt;br&gt;ABC transporter permease&lt;br&gt;Location: 194753 - 195709&lt;br&gt;&lt;br&gt;&lt;b&gt;BlastP hit with MFKKBJ_07180&lt;/b&gt;&lt;br&gt;Percentage identity: 98&lt;br&gt;Percentage coverage: 100&lt;br&gt;BLAST bit score: 579&lt;br&gt;E-value: 1.77e-209" locus_tag="C8K58_RS19750" class="clusterblast-orf" id="dummy-1_h1_4_0"  />
</g>
<g id="a1_001"  >
<polygon points="65,90 119,90 124,85 119,80 65,80 65,90 " style="fill:#3cd815; stroke-width:1; stroke:black; " description="&lt;b&gt;C8K58_RS19755&lt;/b&gt;&lt;br&gt;ABC transporter permease&lt;br&gt;Location: 195706 - 196581&lt;br&gt;&lt;br&gt;&lt;b&gt;BlastP hit with MFKKBJ_07185&lt;/b&gt;&lt;br&gt;Percentage identity: 98&lt;br&gt;Percentage coverage: 100&lt;br&gt;BLAST bit score: 541&lt;br&gt;E-value: 2.69e-195" locus_tag="C8K58_RS19755" class="clusterblast-orf" id="dummy-1_h1_4_1"  />
</g>
<g id="a1_002"  >
<polygon points="125,90 245,90 250,85 245,80 125,80 125,90 " style="fill:#1563d8; stroke-width:1; stroke:black; " description="&lt;b&gt;C8K58_RS19760&lt;/b&gt;&lt;br&gt;ABC transporter ATP-binding protein&lt;br&gt;Location: 196583 - 198424&lt;br&gt;&lt;br&gt;&lt;b&gt;BlastP hit with MFKKBJ_07190&lt;/b&gt;&lt;br&gt;Percentage identity: 95&lt;br&gt;Percentage coverage: 100&lt;br&gt;BLAST bit score: 1116&lt;br&gt;E-value: 0.0" locus_tag="C8K58_RS19760" class="clusterblast-orf" id="dummy-1_h1_4_2"  />
</g>
<g id="a1_003"  >
<polygon points="250,90 266,90 271,85 266,80 250,80 250,90 " style="fill:#b115d8; stroke-width:1; stroke:black; " description="&lt;b&gt;C8K58_RS19765&lt;/b&gt;&lt;br&gt;(2Fe-2S)-binding protein&lt;br&gt;Location: 198421 - 198729&lt;br&gt;&lt;br&gt;&lt;b&gt;BlastP hit with MFKKBJ_07195&lt;/b&gt;&lt;br&gt;Percentage identity: 96&lt;br&gt;Percentage coverage: 100&lt;br&gt;BLAST bit score: 207&lt;br&gt;E-value: 1.76e-69" locus_tag="C8K58_RS19765" class="clusterblast-orf" id="dummy-1_h1_4_3"  />
</g>
<g id="a1_004"  >
<polygon points="270,90 359,90 364,85 359,80 270,80 270,90 " style="fill:#d88a15; stroke-width:1; stroke:black; " description="&lt;b&gt;C8K58_RS19770&lt;/b&gt;&lt;br&gt;NAD(P)/FAD-dependent oxidoreductase&lt;br&gt;Location: 198711 - 200090&lt;br&gt;&lt;br&gt;&lt;b&gt;BlastP hit with MFKKBJ_07200&lt;/b&gt;&lt;br&gt;Percentage identity: 94&lt;br&gt;Percentage coverage: 100&lt;br&gt;BLAST bit score: 837&lt;br&gt;E-value: 7.98e-307" locus_tag="C8K58_RS19770" class="clusterblast-orf" id="dummy-1_h1_4_4"  />
</g>
<g id="a1_005"  >
<polygon points="364,90 438,90 443,85 438,80 364,80 364,90 " style="fill:#15d863; stroke-width:1; stroke:black; " description="&lt;b&gt;C8K58_RS19775&lt;/b&gt;&lt;br&gt;FAD-binding oxidoreductase&lt;br&gt;Location: 200087 - 201241&lt;br&gt;&lt;br&gt;&lt;b&gt;BlastP hit with MFKKBJ_07205&lt;/b&gt;&lt;br&gt;Percentage identity: 95&lt;br&gt;Percentage coverage: 100&lt;br&gt;BLAST bit score: 723&lt;br&gt;E-value: 4.05e-264" locus_tag="C8K58_RS19775" class="clusterblast-orf" id="dummy-1_h1_4_5"  />
</g>
<g id="a1_006"  >
<polygon points="443,90 517,90 522,85 517,80 443,80 443,90 " style="fill:#3c15d8; stroke-width:1; stroke:black; " description="&lt;b&gt;C8K58_RS19780&lt;/b&gt;&lt;br&gt;acetylornithine deacetylase&lt;br&gt;Location: 201238 - 202395&lt;br&gt;&lt;br&gt;&lt;b&gt;BlastP hit with MFKKBJ_07210&lt;/b&gt;&lt;br&gt;Percentage identity: 94&lt;br&gt;Percentage coverage: 100&lt;br&gt;BLAST bit score: 717&lt;br&gt;E-value: 1.25e-261" locus_tag="C8K58_RS19780" class="clusterblast-orf" id="dummy-1_h1_4_6"  />
</g>
<g id="a1_007"  >
<polygon points="530,90 625,90 630,85 625,80 530,80 530,90 " style="fill:#d8158a; stroke-width:1; stroke:black; " description="&lt;b&gt;C8K58_RS19785&lt;/b&gt;&lt;br&gt;NAD-dependent succinate-semialdehyde dehydrogenase&lt;br&gt;Location: 202513 - 203973&lt;br&gt;&lt;br&gt;&lt;b&gt;BlastP hit with MFKKBJ_07215&lt;/b&gt;&lt;br&gt;Percentage identity: 93&lt;br&gt;Percentage coverage: 100&lt;br&gt;BLAST bit score: 850&lt;br&gt;E-value: 8.66e-311" locus_tag="C8K58_RS19785" class="clusterblast-orf" id="dummy-1_h1_4_7"  />
</g>
<g id="a1_008"  >
<polygon points="631,90 701,90 706,85 701,80 631,80 631,90 " style="fill:#b1d815; stroke-width:1; stroke:black; " description="&lt;b&gt;C8K58_RS19790&lt;/b&gt;&lt;br&gt;tartrate dehydrogenase&lt;br&gt;Location: 203994 - 205085&lt;br&gt;&lt;br&gt;&lt;b&gt;BlastP hit with MFKKBJ_07220&lt;/b&gt;&lt;br&gt;Percentage identity: 94&lt;br&gt;Percentage coverage: 99&lt;br&gt;BLAST bit score: 697&lt;br&gt;E-value: 1.75e-254" locus_tag="C8K58_RS19790" class="clusterblast-orf" id="dummy-1_h1_4_8"  />
</g>
<g id="a1_009"  >
<polygon points="716,85 721,80 780,80 780,90 721,90 716,85 " style="fill:#15d8d8; stroke-width:1; stroke:black; " description="&lt;b&gt;C8K58_RS19795&lt;/b&gt;&lt;br&gt;glyoxylate/hydroxypyruvate reductase A&lt;br&gt;Location: 205236 - 206162&lt;br&gt;&lt;br&gt;&lt;b&gt;BlastP hit with MFKKBJ_07230&lt;/b&gt;&lt;br&gt;Percentage identity: 86&lt;br&gt;Percentage coverage: 100&lt;br&gt;BLAST bit score: 546&lt;br&gt;E-value: 1.04e-196" locus_tag="C8K58_RS19795" class="clusterblast-orf" id="dummy-1_h1_4_9"  />
</g>
</svg>
