<svg xmlns="http://www.w3.org/2000/svg" xmlns:xlink="http://www.w3.org/1999/xlink" version="1.1" x="0" y="0" height="230" width="800" viewBox="0 0 800 230" preserveAspectRatio="none"  >
<g label="Query sequence" class="clusterblast-cluster"  >
<text x="5" y="20" class="clusterblast-acc"  >
Query sequence</text>
<line x1="10" y1="35" x2="778.0" y2="35" style="stroke-width:1; stroke:grey; "  />
<polygon points="27,35 32,30 81,30 81,40 32,40 27,35 " style="fill:#d81515; stroke-width:1; stroke:black; " description="&lt;b&gt;MFKKBJ_13420&lt;/b&gt;&lt;br&gt;IclR family transcriptional regulator&lt;br&gt;Location: 2932067 - 2932886" locus_tag="MFKKBJ_13420" class="clusterblast-orf" id="dummy-5_q0_0_all"  />
<polygon points="97,40 159,40 164,35 159,30 97,30 97,40 " style="fill:#77d815; stroke-width:1; stroke:black; " description="&lt;b&gt;MFKKBJ_13425&lt;/b&gt;&lt;br&gt;Iron(III) transport system ATP-binding&lt;br&gt;Location: 2933126 - 2934155" locus_tag="MFKKBJ_13425" class="clusterblast-orf" id="dummy-5_q1_0_all"  />
<polygon points="164,40 215,40 220,35 215,30 164,30 164,40 " style="fill:#15d8d8; stroke-width:1; stroke:black; " description="&lt;b&gt;MFKKBJ_13430&lt;/b&gt;&lt;br&gt;ABC transmembrane type-1 domain-containing protein&lt;br&gt;Location: 2934151 - 2934997" locus_tag="MFKKBJ_13430" class="clusterblast-orf" id="dummy-5_q2_0_all"  />
<polygon points="220,40 268,40 273,35 268,30 220,30 220,40 " style="fill:#7715d8; stroke-width:1; stroke:black; " description="&lt;b&gt;MFKKBJ_13435&lt;/b&gt;&lt;br&gt;ABC-type spermidine/putrescine transport system, permease component II&lt;br&gt;Location: 2935001 - 2935796" locus_tag="MFKKBJ_13435" class="clusterblast-orf" id="dummy-5_q3_0_all"  />
<polygon points="273,40 287,40 292,35 287,30 273,30 273,40 " style="fill:#d87715; stroke-width:1; stroke:black; " description="&lt;b&gt;MFKKBJ_13440&lt;/b&gt;&lt;br&gt;Ferredoxin&lt;br&gt;Location: 2935795 - 2936086" locus_tag="MFKKBJ_13440" class="clusterblast-orf" id="dummy-5_q4_0_all"  />
<polygon points="291,40 375,40 380,35 375,30 291,30 291,40 " style="fill:#15d815; stroke-width:1; stroke:black; " description="&lt;b&gt;MFKKBJ_13445&lt;/b&gt;&lt;br&gt;FAD/NAD(P)-binding oxidoreductase&lt;br&gt;Location: 2936082 - 2937426" locus_tag="MFKKBJ_13445" class="clusterblast-orf" id="dummy-5_q5_0_all"  />
<polygon points="380,40 447,40 452,35 447,30 380,30 380,40 " style="fill:#1577d8; stroke-width:1; stroke:black; " description="&lt;b&gt;MFKKBJ_13450&lt;/b&gt;&lt;br&gt;FAD dependent oxidoreductase domain-containing protein&lt;br&gt;Location: 2937422 - 2938520" locus_tag="MFKKBJ_13450" class="clusterblast-orf" id="dummy-5_q6_0_all"  />
<polygon points="453,40 516,40 521,35 516,30 453,30 453,40 " style="fill:#d815d8; stroke-width:1; stroke:black; " description="&lt;b&gt;MFKKBJ_13455&lt;/b&gt;&lt;br&gt;ABC transporter substrate-binding protein&lt;br&gt;Location: 2938534 - 2939566" locus_tag="MFKKBJ_13455" class="clusterblast-orf" id="dummy-5_q7_0_all"  />
<polygon points="521,35 526,30 574,30 574,40 526,40 521,35 " style="fill:#d8d815; stroke-width:1; stroke:black; " description="&lt;b&gt;MFKKBJ_13460&lt;/b&gt;&lt;br&gt;ammonia-dependent NAD(+) synthetase&lt;br&gt;Location: 2939566 - 2940376" locus_tag="MFKKBJ_13460" class="clusterblast-orf" id="dummy-5_q8_0_all"  />
<polygon points="574,35 579,30 655,30 655,40 579,40 574,35 " style="fill:#15d877; stroke-width:1; stroke:black; " description="&lt;b&gt;MFKKBJ_13465&lt;/b&gt;&lt;br&gt;nicotinate phosphoribosyltransferase&lt;br&gt;Location: 2940377 - 2941595" locus_tag="MFKKBJ_13465" class="clusterblast-orf" id="dummy-5_q9_0_all"  />
<polygon points="655,35 660,30 698,30 698,40 660,40 655,35 " style="fill:#1515d8; stroke-width:1; stroke:black; " description="&lt;b&gt;MFKKBJ_13470&lt;/b&gt;&lt;br&gt;Isochorismatase&lt;br&gt;Location: 2941606 - 2942254" locus_tag="MFKKBJ_13470" class="clusterblast-orf" id="dummy-5_q10_0_all"  />
<polygon points="708,40 734,40 739,35 734,30 708,30 708,40 " style="fill:#d81577; stroke-width:1; stroke:black; " description="&lt;b&gt;MFKKBJ_13475&lt;/b&gt;&lt;br&gt;NUDIX hydrolase&lt;br&gt;Location: 2942400 - 2942877" locus_tag="MFKKBJ_13475" class="clusterblast-orf" id="dummy-5_q11_0_all"  />
<polygon points="738,40 748,40 753,35 748,30 738,30 738,40 " style="fill:#d81577; stroke-width:1; stroke:black; " description="&lt;b&gt;MFKKBJ_13480&lt;/b&gt;&lt;br&gt;hypothetical protein&lt;br&gt;Location: 2942860 - 2943094" locus_tag="MFKKBJ_13480" class="clusterblast-orf" id="dummy-5_q12_0_all"  />
</g>
<g label="NZ_CP078013" description="NZ_CP078013 (2463591-2476316): Pseudomonas pergaminensis strain 1008 chromoso... (92% of genes show similarity), hydrogen-cyanide" class="clusterblast-cluster"  >
<text x="5" y="70" class="clusterblast-acc"  >
<a xlink:href="https://antismash-db.secondarymetabolites.org/area?record=NZ_CP078013&amp;start=2463591&amp;end=2476316" target="_blank">NZ_CP078013 (2463591-2476316)</a>: Pseudomonas pergaminensis strain 1008 chromoso... (92% of genes show similarity), hydrogen-cyanide</text>
<line x1="10" y1="85" x2="778.0" y2="85" style="stroke-width:1; stroke:grey; "  />
</g>
<g id="a5_000"  >
<polygon points="0,90 38,90 43,85 38,80 0,80 0,90 " style="fill:white; stroke-width:1; stroke:black; " description="&lt;b&gt;KUA23_RS11515&lt;/b&gt;&lt;br&gt;response regulator&lt;br&gt;Location: 2475858 - 2475193" locus_tag="KUA23_RS11515" class="clusterblast-orf" id="dummy-5_h5_1_0"  />
</g>
<g id="a5_001"  >
<polygon points="52,85 57,80 107,80 107,90 57,90 52,85 " style="fill:#d81515; stroke-width:1; stroke:black; " description="&lt;b&gt;KUA23_RS11510&lt;/b&gt;&lt;br&gt;helix-turn-helix domain-containing protein&lt;br&gt;Location: 2475058 - 2474228&lt;br&gt;&lt;br&gt;&lt;b&gt;BlastP hit with MFKKBJ_13420&lt;/b&gt;&lt;br&gt;Percentage identity: 94&lt;br&gt;Percentage coverage: 101&lt;br&gt;BLAST bit score: 494&lt;br&gt;E-value: 2.84e-177" locus_tag="KUA23_RS11510" class="clusterblast-orf" id="dummy-5_h5_1_1"  />
</g>
<g id="a5_002"  >
<polygon points="123,90 186,90 191,85 186,80 123,80 123,90 " style="fill:#77d815; stroke-width:1; stroke:black; " description="&lt;b&gt;KUA23_RS11505&lt;/b&gt;&lt;br&gt;ATP-binding cassette domain-containing protein&lt;br&gt;Location: 2473984 - 2472956&lt;br&gt;&lt;br&gt;&lt;b&gt;BlastP hit with MFKKBJ_13425&lt;/b&gt;&lt;br&gt;Percentage identity: 92&lt;br&gt;Percentage coverage: 99&lt;br&gt;BLAST bit score: 616&lt;br&gt;E-value: 2.65e-223" locus_tag="KUA23_RS11505" class="clusterblast-orf" id="dummy-5_h5_1_2"  />
</g>
<g id="a5_003"  >
<polygon points="190,90 241,90 246,85 241,80 190,80 190,90 " style="fill:#15d8d8; stroke-width:1; stroke:black; " description="&lt;b&gt;KUA23_RS11500&lt;/b&gt;&lt;br&gt;ABC transporter permease&lt;br&gt;Location: 2472959 - 2472120&lt;br&gt;&lt;br&gt;&lt;b&gt;BlastP hit with MFKKBJ_13430&lt;/b&gt;&lt;br&gt;Percentage identity: 98&lt;br&gt;Percentage coverage: 100&lt;br&gt;BLAST bit score: 512&lt;br&gt;E-value: 3.24e-184" locus_tag="KUA23_RS11500" class="clusterblast-orf" id="dummy-5_h5_1_3"  />
</g>
<g id="a5_004"  >
<polygon points="246,90 294,90 299,85 294,80 246,80 246,90 " style="fill:#7715d8; stroke-width:1; stroke:black; " description="&lt;b&gt;KUA23_RS11495&lt;/b&gt;&lt;br&gt;ABC transporter permease&lt;br&gt;Location: 2472110 - 2471316&lt;br&gt;&lt;br&gt;&lt;b&gt;BlastP hit with MFKKBJ_13435&lt;/b&gt;&lt;br&gt;Percentage identity: 98&lt;br&gt;Percentage coverage: 100&lt;br&gt;BLAST bit score: 473&lt;br&gt;E-value: 3.2e-169" locus_tag="KUA23_RS11495" class="clusterblast-orf" id="dummy-5_h5_1_4"  />
</g>
<g id="a5_005"  >
<polygon points="299,90 313,90 318,85 313,80 299,80 299,90 " style="fill:#d87715; stroke-width:1; stroke:black; " description="&lt;b&gt;KUA23_RS11490&lt;/b&gt;&lt;br&gt;(2Fe-2S)-binding protein&lt;br&gt;Location: 2471316 - 2471026&lt;br&gt;&lt;br&gt;&lt;b&gt;BlastP hit with MFKKBJ_13440&lt;/b&gt;&lt;br&gt;Percentage identity: 97&lt;br&gt;Percentage coverage: 99&lt;br&gt;BLAST bit score: 190&lt;br&gt;E-value: 1.18e-62" locus_tag="KUA23_RS11490" class="clusterblast-orf" id="dummy-5_h5_1_5"  />
</g>
<g id="a5_006"  >
<polygon points="318,90 401,90 406,85 401,80 318,80 318,90 " style="fill:#15d815; stroke-width:1; stroke:black; " description="&lt;b&gt;KUA23_RS11485&lt;/b&gt;&lt;br&gt;FAD-dependent oxidoreductase&lt;br&gt;Location: 2471029 - 2469686&lt;br&gt;&lt;br&gt;&lt;b&gt;BlastP hit with MFKKBJ_13445&lt;/b&gt;&lt;br&gt;Percentage identity: 90&lt;br&gt;Percentage coverage: 100&lt;br&gt;BLAST bit score: 815&lt;br&gt;E-value: 1.52e-298" locus_tag="KUA23_RS11485" class="clusterblast-orf" id="dummy-5_h5_1_6"  />
</g>
<g id="a5_007"  >
<polygon points="406,90 473,90 478,85 473,80 406,80 406,90 " style="fill:#1577d8; stroke-width:1; stroke:black; " description="&lt;b&gt;KUA23_RS11480&lt;/b&gt;&lt;br&gt;FAD-dependent oxidoreductase&lt;br&gt;Location: 2469689 - 2468592&lt;br&gt;&lt;br&gt;&lt;b&gt;BlastP hit with MFKKBJ_13450&lt;/b&gt;&lt;br&gt;Percentage identity: 93&lt;br&gt;Percentage coverage: 100&lt;br&gt;BLAST bit score: 684&lt;br&gt;E-value: 1.67e-249" locus_tag="KUA23_RS11480" class="clusterblast-orf" id="dummy-5_h5_1_7"  />
</g>
<g id="a5_008"  >
<polygon points="479,90 542,90 547,85 542,80 479,80 479,90 " style="fill:#d815d8; stroke-width:1; stroke:black; " description="&lt;b&gt;KUA23_RS11475&lt;/b&gt;&lt;br&gt;ABC transporter substrate-binding protein&lt;br&gt;Location: 2468577 - 2467546&lt;br&gt;&lt;br&gt;&lt;b&gt;BlastP hit with MFKKBJ_13455&lt;/b&gt;&lt;br&gt;Percentage identity: 97&lt;br&gt;Percentage coverage: 100&lt;br&gt;BLAST bit score: 651&lt;br&gt;E-value: 3.88e-237" locus_tag="KUA23_RS11475" class="clusterblast-orf" id="dummy-5_h5_1_8"  />
</g>
<g id="a5_009"  >
<polygon points="547,85 552,80 600,80 600,90 552,90 547,85 " style="fill:#d8d815; stroke-width:1; stroke:black; " description="&lt;b&gt;KUA23_RS11470&lt;/b&gt;&lt;br&gt;ammonia-dependent NAD(+) synthetase&lt;br&gt;Location: 2467545 - 2466736&lt;br&gt;&lt;br&gt;&lt;b&gt;BlastP hit with MFKKBJ_13460&lt;/b&gt;&lt;br&gt;Percentage identity: 89&lt;br&gt;Percentage coverage: 100&lt;br&gt;BLAST bit score: 460&lt;br&gt;E-value: 5e-164" locus_tag="KUA23_RS11470" class="clusterblast-orf" id="dummy-5_h5_1_9"  />
</g>
<g id="a5_0010"  >
<polygon points="601,85 606,80 681,80 681,90 606,90 601,85 " style="fill:#15d877; stroke-width:1; stroke:black; " description="&lt;b&gt;KUA23_RS11465&lt;/b&gt;&lt;br&gt;nicotinate phosphoribosyltransferase&lt;br&gt;Location: 2466734 - 2465517&lt;br&gt;&lt;br&gt;&lt;b&gt;BlastP hit with MFKKBJ_13465&lt;/b&gt;&lt;br&gt;Percentage identity: 95&lt;br&gt;Percentage coverage: 100&lt;br&gt;BLAST bit score: 789&lt;br&gt;E-value: 1.88e-289" locus_tag="KUA23_RS11465" class="clusterblast-orf" id="dummy-5_h5_1_10"  />
</g>
<g id="a5_0011"  >
<polygon points="682,85 687,80 724,80 724,90 687,90 682,85 " style="fill:#1515d8; stroke-width:1; stroke:black; " description="&lt;b&gt;KUA23_RS11460&lt;/b&gt;&lt;br&gt;isochorismatase family protein&lt;br&gt;Location: 2465505 - 2464858&lt;br&gt;&lt;br&gt;&lt;b&gt;BlastP hit with MFKKBJ_13470&lt;/b&gt;&lt;br&gt;Percentage identity: 93&lt;br&gt;Percentage coverage: 100&lt;br&gt;BLAST bit score: 412&lt;br&gt;E-value: 6.4e-147" locus_tag="KUA23_RS11460" class="clusterblast-orf" id="dummy-5_h5_1_11"  />
</g>
<g id="a5_0012"  >
<polygon points="734,90 775,90 780,85 775,80 734,80 734,90 " style="fill:#d81577; stroke-width:1; stroke:black; " description="&lt;b&gt;KUA23_RS11455&lt;/b&gt;&lt;br&gt;NUDIX hydrolase&lt;br&gt;Location: 2464711 - 2464019&lt;br&gt;&lt;br&gt;&lt;b&gt;BlastP hit with MFKKBJ_13475&lt;/b&gt;&lt;br&gt;Percentage identity: 89&lt;br&gt;Percentage coverage: 96&lt;br&gt;BLAST bit score: 281&lt;br&gt;E-value: 6.85e-96&lt;br&gt;&lt;br&gt;&lt;b&gt;BlastP hit with MFKKBJ_13480&lt;/b&gt;&lt;br&gt;Percentage identity: 97&lt;br&gt;Percentage coverage: 100&lt;br&gt;BLAST bit score: 150&lt;br&gt;E-value: 1.1e-45" locus_tag="KUA23_RS11455" class="clusterblast-orf" id="dummy-5_h5_1_12"  />
</g>
</svg>
