<svg xmlns="http://www.w3.org/2000/svg" xmlns:xlink="http://www.w3.org/1999/xlink" version="1.1" x="0" y="0" height="230" width="800" viewBox="0 0 800 230" preserveAspectRatio="none"  >
<g label="Query sequence" class="clusterblast-cluster"  >
<text x="5" y="20" class="clusterblast-acc"  >
Query sequence</text>
<line x1="10" y1="35" x2="778.0" y2="35" style="stroke-width:1; stroke:grey; "  />
<polygon points="25,35 30,30 79,30 79,40 30,40 25,35 " style="fill:#d81515; stroke-width:1; stroke:black; " description="&lt;b&gt;MFKKBJ_13420&lt;/b&gt;&lt;br&gt;IclR family transcriptional regulator&lt;br&gt;Location: 2932067 - 2932886" locus_tag="MFKKBJ_13420" class="clusterblast-orf" id="dummy-5_q0_0_all"  />
<polygon points="95,40 158,40 163,35 158,30 95,30 95,40 " style="fill:#77d815; stroke-width:1; stroke:black; " description="&lt;b&gt;MFKKBJ_13425&lt;/b&gt;&lt;br&gt;Iron(III) transport system ATP-binding&lt;br&gt;Location: 2933126 - 2934155" locus_tag="MFKKBJ_13425" class="clusterblast-orf" id="dummy-5_q1_0_all"  />
<polygon points="163,40 214,40 219,35 214,30 163,30 163,40 " style="fill:#15d8d8; stroke-width:1; stroke:black; " description="&lt;b&gt;MFKKBJ_13430&lt;/b&gt;&lt;br&gt;ABC transmembrane type-1 domain-containing protein&lt;br&gt;Location: 2934151 - 2934997" locus_tag="MFKKBJ_13430" class="clusterblast-orf" id="dummy-5_q2_0_all"  />
<polygon points="219,40 267,40 272,35 267,30 219,30 219,40 " style="fill:#7715d8; stroke-width:1; stroke:black; " description="&lt;b&gt;MFKKBJ_13435&lt;/b&gt;&lt;br&gt;ABC-type spermidine/putrescine transport system, permease component II&lt;br&gt;Location: 2935001 - 2935796" locus_tag="MFKKBJ_13435" class="clusterblast-orf" id="dummy-5_q3_0_all"  />
<polygon points="272,40 286,40 291,35 286,30 272,30 272,40 " style="fill:#d87715; stroke-width:1; stroke:black; " description="&lt;b&gt;MFKKBJ_13440&lt;/b&gt;&lt;br&gt;Ferredoxin&lt;br&gt;Location: 2935795 - 2936086" locus_tag="MFKKBJ_13440" class="clusterblast-orf" id="dummy-5_q4_0_all"  />
<polygon points="291,40 375,40 380,35 375,30 291,30 291,40 " style="fill:#15d815; stroke-width:1; stroke:black; " description="&lt;b&gt;MFKKBJ_13445&lt;/b&gt;&lt;br&gt;FAD/NAD(P)-binding oxidoreductase&lt;br&gt;Location: 2936082 - 2937426" locus_tag="MFKKBJ_13445" class="clusterblast-orf" id="dummy-5_q5_0_all"  />
<polygon points="380,40 447,40 452,35 447,30 380,30 380,40 " style="fill:#1577d8; stroke-width:1; stroke:black; " description="&lt;b&gt;MFKKBJ_13450&lt;/b&gt;&lt;br&gt;FAD dependent oxidoreductase domain-containing protein&lt;br&gt;Location: 2937422 - 2938520" locus_tag="MFKKBJ_13450" class="clusterblast-orf" id="dummy-5_q6_0_all"  />
<polygon points="453,40 517,40 522,35 517,30 453,30 453,40 " style="fill:#d815d8; stroke-width:1; stroke:black; " description="&lt;b&gt;MFKKBJ_13455&lt;/b&gt;&lt;br&gt;ABC transporter substrate-binding protein&lt;br&gt;Location: 2938534 - 2939566" locus_tag="MFKKBJ_13455" class="clusterblast-orf" id="dummy-5_q7_0_all"  />
<polygon points="522,35 527,30 575,30 575,40 527,40 522,35 " style="fill:#d8d815; stroke-width:1; stroke:black; " description="&lt;b&gt;MFKKBJ_13460&lt;/b&gt;&lt;br&gt;ammonia-dependent NAD(+) synthetase&lt;br&gt;Location: 2939566 - 2940376" locus_tag="MFKKBJ_13460" class="clusterblast-orf" id="dummy-5_q8_0_all"  />
<polygon points="576,35 581,30 656,30 656,40 581,40 576,35 " style="fill:#15d877; stroke-width:1; stroke:black; " description="&lt;b&gt;MFKKBJ_13465&lt;/b&gt;&lt;br&gt;nicotinate phosphoribosyltransferase&lt;br&gt;Location: 2940377 - 2941595" locus_tag="MFKKBJ_13465" class="clusterblast-orf" id="dummy-5_q9_0_all"  />
<polygon points="657,35 662,30 700,30 700,40 662,40 657,35 " style="fill:#1515d8; stroke-width:1; stroke:black; " description="&lt;b&gt;MFKKBJ_13470&lt;/b&gt;&lt;br&gt;Isochorismatase&lt;br&gt;Location: 2941606 - 2942254" locus_tag="MFKKBJ_13470" class="clusterblast-orf" id="dummy-5_q10_0_all"  />
<polygon points="710,40 736,40 741,35 736,30 710,30 710,40 " style="fill:#d81577; stroke-width:1; stroke:black; " description="&lt;b&gt;MFKKBJ_13475&lt;/b&gt;&lt;br&gt;NUDIX hydrolase&lt;br&gt;Location: 2942400 - 2942877" locus_tag="MFKKBJ_13475" class="clusterblast-orf" id="dummy-5_q11_0_all"  />
<polygon points="740,40 751,40 756,35 751,30 740,30 740,40 " style="fill:#d81577; stroke-width:1; stroke:black; " description="&lt;b&gt;MFKKBJ_13480&lt;/b&gt;&lt;br&gt;hypothetical protein&lt;br&gt;Location: 2942860 - 2943094" locus_tag="MFKKBJ_13480" class="clusterblast-orf" id="dummy-5_q12_0_all"  />
</g>
<g label="NZ_LACF01000019" description="NZ_LACF01000019 (61841-74566): Pseudomonas marginalis strain H21 FCC4LTTACXX-... (92% of genes show similarity), hydrogen-cyanide" class="clusterblast-cluster"  >
<text x="5" y="70" class="clusterblast-acc"  >
<a xlink:href="https://antismash-db.secondarymetabolites.org/area?record=NZ_LACF01000019&amp;start=61841&amp;end=74566" target="_blank">NZ_LACF01000019 (61841-74566)</a>: Pseudomonas marginalis strain H21 FCC4LTTACXX-... (92% of genes show similarity), hydrogen-cyanide</text>
<line x1="10" y1="85" x2="778.0" y2="85" style="stroke-width:1; stroke:grey; "  />
</g>
<g id="a5_000"  >
<polygon points="0,90 39,90 44,85 39,80 0,80 0,90 " style="fill:white; stroke-width:1; stroke:black; " description="&lt;b&gt;VC37_RS14955&lt;/b&gt;&lt;br&gt;response regulator&lt;br&gt;Location: 62379 - 63044" locus_tag="VC37_RS14955" class="clusterblast-orf" id="dummy-5_h5_10_0"  />
</g>
<g id="a5_001"  >
<polygon points="47,85 52,80 102,80 102,90 52,90 47,85 " style="fill:#d81515; stroke-width:1; stroke:black; " description="&lt;b&gt;VC37_RS14960&lt;/b&gt;&lt;br&gt;IclR family transcriptional regulator&lt;br&gt;Location: 63099 - 63929&lt;br&gt;&lt;br&gt;&lt;b&gt;BlastP hit with MFKKBJ_13420&lt;/b&gt;&lt;br&gt;Percentage identity: 95&lt;br&gt;Percentage coverage: 101&lt;br&gt;BLAST bit score: 500&lt;br&gt;E-value: 1.47e-179" locus_tag="VC37_RS14960" class="clusterblast-orf" id="dummy-5_h5_10_1"  />
</g>
<g id="a5_002"  >
<polygon points="118,90 182,90 187,85 182,80 118,80 118,90 " style="fill:#77d815; stroke-width:1; stroke:black; " description="&lt;b&gt;VC37_RS14965&lt;/b&gt;&lt;br&gt;ABC transporter ATP-binding protein&lt;br&gt;Location: 64173 - 65201&lt;br&gt;&lt;br&gt;&lt;b&gt;BlastP hit with MFKKBJ_13425&lt;/b&gt;&lt;br&gt;Percentage identity: 93&lt;br&gt;Percentage coverage: 99&lt;br&gt;BLAST bit score: 620&lt;br&gt;E-value: 5.58e-225" locus_tag="VC37_RS14965" class="clusterblast-orf" id="dummy-5_h5_10_2"  />
</g>
<g id="a5_003"  >
<polygon points="186,90 237,90 242,85 237,80 186,80 186,90 " style="fill:#15d8d8; stroke-width:1; stroke:black; " description="&lt;b&gt;VC37_RS14970&lt;/b&gt;&lt;br&gt;ABC transporter permease&lt;br&gt;Location: 65198 - 66043&lt;br&gt;&lt;br&gt;&lt;b&gt;BlastP hit with MFKKBJ_13430&lt;/b&gt;&lt;br&gt;Percentage identity: 97&lt;br&gt;Percentage coverage: 100&lt;br&gt;BLAST bit score: 511&lt;br&gt;E-value: 9.63e-184" locus_tag="VC37_RS14970" class="clusterblast-orf" id="dummy-5_h5_10_3"  />
</g>
<g id="a5_004"  >
<polygon points="243,90 290,90 295,85 290,80 243,80 243,90 " style="fill:#7715d8; stroke-width:1; stroke:black; " description="&lt;b&gt;VC37_RS14975&lt;/b&gt;&lt;br&gt;ABC transporter permease&lt;br&gt;Location: 66048 - 66842&lt;br&gt;&lt;br&gt;&lt;b&gt;BlastP hit with MFKKBJ_13435&lt;/b&gt;&lt;br&gt;Percentage identity: 99&lt;br&gt;Percentage coverage: 100&lt;br&gt;BLAST bit score: 475&lt;br&gt;E-value: 3.89e-170" locus_tag="VC37_RS14975" class="clusterblast-orf" id="dummy-5_h5_10_4"  />
</g>
<g id="a5_005"  >
<polygon points="295,90 310,90 315,85 310,80 295,80 295,90 " style="fill:#d87715; stroke-width:1; stroke:black; " description="&lt;b&gt;VC37_RS14980&lt;/b&gt;&lt;br&gt;(2Fe-2S)-binding protein&lt;br&gt;Location: 66842 - 67132&lt;br&gt;&lt;br&gt;&lt;b&gt;BlastP hit with MFKKBJ_13440&lt;/b&gt;&lt;br&gt;Percentage identity: 92&lt;br&gt;Percentage coverage: 99&lt;br&gt;BLAST bit score: 182&lt;br&gt;E-value: 1.33e-59" locus_tag="VC37_RS14980" class="clusterblast-orf" id="dummy-5_h5_10_5"  />
</g>
<g id="a5_006"  >
<polygon points="314,90 398,90 403,85 398,80 314,80 314,90 " style="fill:#15d815; stroke-width:1; stroke:black; " description="&lt;b&gt;VC37_RS14985&lt;/b&gt;&lt;br&gt;FAD-dependent oxidoreductase&lt;br&gt;Location: 67129 - 68472&lt;br&gt;&lt;br&gt;&lt;b&gt;BlastP hit with MFKKBJ_13445&lt;/b&gt;&lt;br&gt;Percentage identity: 87&lt;br&gt;Percentage coverage: 100&lt;br&gt;BLAST bit score: 780&lt;br&gt;E-value: 2.24e-284" locus_tag="VC37_RS14985" class="clusterblast-orf" id="dummy-5_h5_10_6"  />
</g>
<g id="a5_007"  >
<polygon points="403,90 471,90 476,85 471,80 403,80 403,90 " style="fill:#1577d8; stroke-width:1; stroke:black; " description="&lt;b&gt;VC37_RS14990&lt;/b&gt;&lt;br&gt;FAD-binding oxidoreductase&lt;br&gt;Location: 68469 - 69566&lt;br&gt;&lt;br&gt;&lt;b&gt;BlastP hit with MFKKBJ_13450&lt;/b&gt;&lt;br&gt;Percentage identity: 93&lt;br&gt;Percentage coverage: 100&lt;br&gt;BLAST bit score: 678&lt;br&gt;E-value: 4.59e-247" locus_tag="VC37_RS14990" class="clusterblast-orf" id="dummy-5_h5_10_7"  />
</g>
<g id="a5_008"  >
<polygon points="477,90 540,90 545,85 540,80 477,80 477,90 " style="fill:#d815d8; stroke-width:1; stroke:black; " description="&lt;b&gt;VC37_RS14995&lt;/b&gt;&lt;br&gt;ABC transporter substrate-binding protein&lt;br&gt;Location: 69581 - 70612&lt;br&gt;&lt;br&gt;&lt;b&gt;BlastP hit with MFKKBJ_13455&lt;/b&gt;&lt;br&gt;Percentage identity: 96&lt;br&gt;Percentage coverage: 100&lt;br&gt;BLAST bit score: 644&lt;br&gt;E-value: 2.15e-234" locus_tag="VC37_RS14995" class="clusterblast-orf" id="dummy-5_h5_10_8"  />
</g>
<g id="a5_009"  >
<polygon points="546,85 551,80 599,80 599,90 551,90 546,85 " style="fill:#d8d815; stroke-width:1; stroke:black; " description="&lt;b&gt;VC37_RS15000&lt;/b&gt;&lt;br&gt;ammonia-dependent NAD(+) synthetase&lt;br&gt;Location: 70619 - 71428&lt;br&gt;&lt;br&gt;&lt;b&gt;BlastP hit with MFKKBJ_13460&lt;/b&gt;&lt;br&gt;Percentage identity: 87&lt;br&gt;Percentage coverage: 100&lt;br&gt;BLAST bit score: 454&lt;br&gt;E-value: 9.65e-162" locus_tag="VC37_RS15000" class="clusterblast-orf" id="dummy-5_h5_10_9"  />
</g>
<g id="a5_0010"  >
<polygon points="600,85 605,80 680,80 680,90 605,90 600,85 " style="fill:#15d877; stroke-width:1; stroke:black; " description="&lt;b&gt;VC37_RS15005&lt;/b&gt;&lt;br&gt;nicotinate phosphoribosyltransferase&lt;br&gt;Location: 71430 - 72647&lt;br&gt;&lt;br&gt;&lt;b&gt;BlastP hit with MFKKBJ_13465&lt;/b&gt;&lt;br&gt;Percentage identity: 95&lt;br&gt;Percentage coverage: 100&lt;br&gt;BLAST bit score: 791&lt;br&gt;E-value: 2.29e-290" locus_tag="VC37_RS15005" class="clusterblast-orf" id="dummy-5_h5_10_10"  />
</g>
<g id="a5_0011"  >
<polygon points="681,85 686,80 724,80 724,90 686,90 681,85 " style="fill:#1515d8; stroke-width:1; stroke:black; " description="&lt;b&gt;VC37_RS15010&lt;/b&gt;&lt;br&gt;nicotinamidase&lt;br&gt;Location: 72659 - 73306&lt;br&gt;&lt;br&gt;&lt;b&gt;BlastP hit with MFKKBJ_13470&lt;/b&gt;&lt;br&gt;Percentage identity: 92&lt;br&gt;Percentage coverage: 100&lt;br&gt;BLAST bit score: 412&lt;br&gt;E-value: 6.4e-147" locus_tag="VC37_RS15010" class="clusterblast-orf" id="dummy-5_h5_10_11"  />
</g>
<g id="a5_0012"  >
<polygon points="734,90 775,90 780,85 775,80 734,80 734,90 " style="fill:#d81577; stroke-width:1; stroke:black; " description="&lt;b&gt;VC37_RS15015&lt;/b&gt;&lt;br&gt;NUDIX hydrolase&lt;br&gt;Location: 73453 - 74145&lt;br&gt;&lt;br&gt;&lt;b&gt;BlastP hit with MFKKBJ_13475&lt;/b&gt;&lt;br&gt;Percentage identity: 87&lt;br&gt;Percentage coverage: 96&lt;br&gt;BLAST bit score: 273&lt;br&gt;E-value: 1.08e-92&lt;br&gt;&lt;br&gt;&lt;b&gt;BlastP hit with MFKKBJ_13480&lt;/b&gt;&lt;br&gt;Percentage identity: 94&lt;br&gt;Percentage coverage: 100&lt;br&gt;BLAST bit score: 147&lt;br&gt;E-value: 3.59e-44" locus_tag="VC37_RS15015" class="clusterblast-orf" id="dummy-5_h5_10_12"  />
</g>
</svg>
