<svg xmlns="http://www.w3.org/2000/svg" xmlns:xlink="http://www.w3.org/1999/xlink" version="1.1" x="0" y="0" height="230" width="800" viewBox="0 0 800 230" preserveAspectRatio="none"  >
<g label="Query sequence" class="clusterblast-cluster"  >
<text x="5" y="20" class="clusterblast-acc"  >
Query sequence</text>
<line x1="10" y1="35" x2="778.0" y2="35" style="stroke-width:1; stroke:grey; "  />
<polygon points="12,35 17,30 98,30 98,40 17,40 12,35 " style="fill:#d81515; stroke-width:1; stroke:black; " description="&lt;b&gt;MFKKBJ_15470&lt;/b&gt;&lt;br&gt;polyphosphate:AMP phosphotransferase&lt;br&gt;Location: 3375153 - 3376668" locus_tag="MFKKBJ_15470" class="clusterblast-orf" id="dummy-6_q0_0_all"  />
<polygon points="107,40 215,40 220,35 215,30 107,30 107,40 " style="fill:#5cd815; stroke-width:1; stroke:black; " description="&lt;b&gt;MFKKBJ_15475&lt;/b&gt;&lt;br&gt;bifunctional tRNA (5-methylaminomethyl-2-thiouridine)(34)-methyltransferase MnmD/FAD-dependent 5-carboxymethylaminomethyl-2-thiouridine(34) oxidoreductase MnmC&lt;br&gt;Location: 3376822 - 3378808" locus_tag="MFKKBJ_15475" class="clusterblast-orf" id="dummy-6_q1_0_all"  />
<polygon points="233,40 328,40 333,35 328,30 233,30 233,40 " style="fill:#15a3d8; stroke-width:1; stroke:black; " description="&lt;b&gt;MFKKBJ_15480&lt;/b&gt;&lt;br&gt;N-acetylglutaminylglutamine amidotransferase&lt;br&gt;Location: 3379033 - 3380806" locus_tag="MFKKBJ_15480" class="clusterblast-orf" id="dummy-6_q2_0_all"  />
<polygon points="334,40 428,40 433,35 428,30 334,30 334,40 " style="fill:#c715d8; stroke-width:1; stroke:black; " description="&lt;b&gt;MFKKBJ_15485&lt;/b&gt;&lt;br&gt;N-acetylglutaminylglutamine synthetase&lt;br&gt;Location: 3380809 - 3382558" locus_tag="MFKKBJ_15485" class="clusterblast-orf" id="dummy-6_q3_0_all"  />
<polygon points="443,40 505,40 510,35 505,30 443,30 443,40 " style="fill:#d88015; stroke-width:1; stroke:black; " description="&lt;b&gt;MFKKBJ_15490&lt;/b&gt;&lt;br&gt;osmoprotectant NAGGN system M42 family peptidase&lt;br&gt;Location: 3382721 - 3383906" locus_tag="MFKKBJ_15490" class="clusterblast-orf" id="dummy-6_q4_0_all"  />
<polygon points="513,40 521,40 526,35 521,30 513,30 513,40 " style="fill:#15d839; stroke-width:1; stroke:black; " description="&lt;b&gt;MFKKBJ_15495&lt;/b&gt;&lt;br&gt;UPF0270 protein Pfl01 4103&lt;br&gt;Location: 3383965 - 3384193" locus_tag="MFKKBJ_15495" class="clusterblast-orf" id="dummy-6_q5_0_all"  />
<polygon points="527,35 532,30 538,30 538,40 532,40 527,35 " style="fill:#1539d8; stroke-width:1; stroke:black; " description="&lt;b&gt;MFKKBJ_15500&lt;/b&gt;&lt;br&gt;carbon storage regulator CsrA&lt;br&gt;Location: 3384201 - 3384399" locus_tag="MFKKBJ_15500" class="clusterblast-orf" id="dummy-6_q6_0_all"  />
<polygon points="545,35 550,30 592,30 592,40 550,40 545,35 " style="fill:#d81580; stroke-width:1; stroke:black; " description="&lt;b&gt;MFKKBJ_15505&lt;/b&gt;&lt;br&gt;SDR family oxidoreductase&lt;br&gt;Location: 3384526 - 3385342" locus_tag="MFKKBJ_15505" class="clusterblast-orf" id="dummy-6_q7_0_all"  />
<polygon points="610,40 614,40 619,35 614,30 610,30 610,40 " style="fill:#c7d815; stroke-width:1; stroke:black; " description="&lt;b&gt;MFKKBJ_15510&lt;/b&gt;&lt;br&gt;DUF3309 domain-containing protein&lt;br&gt;Location: 3385670 - 3385823" locus_tag="MFKKBJ_15510" class="clusterblast-orf" id="dummy-6_q8_0_all"  />
<polygon points="622,35 627,30 741,30 741,40 627,40 622,35 " style="fill:#15d8a3; stroke-width:1; stroke:black; " description="&lt;b&gt;MFKKBJ_15515&lt;/b&gt;&lt;br&gt;Phosphoglycerol transferase I&lt;br&gt;Location: 3385874 - 3387962" locus_tag="MFKKBJ_15515" class="clusterblast-orf" id="dummy-6_q9_0_all"  />
<polygon points="758,35 763,30 769,30 769,40 763,40 758,35 " style="fill:#5c15d8; stroke-width:1; stroke:black; " description="&lt;b&gt;MFKKBJ_15520&lt;/b&gt;&lt;br&gt;Cardiolipin synthase N-terminal domain-containing protein&lt;br&gt;Location: 3388254 - 3388446" locus_tag="MFKKBJ_15520" class="clusterblast-orf" id="dummy-6_q10_0_all"  />
</g>
<g label="NZ_CP063233" description="NZ_CP063233 (5040384-5055544): Pseudomonas fluorescens strain KF1 chromosome,... (100% of genes show similarity), NAGGN" class="clusterblast-cluster"  >
<text x="5" y="70" class="clusterblast-acc"  >
<a xlink:href="https://antismash-db.secondarymetabolites.org/area?record=NZ_CP063233&amp;start=5040384&amp;end=5055544" target="_blank">NZ_CP063233 (5040384-5055544)</a>: Pseudomonas fluorescens strain KF1 chromosome,... (100% of genes show similarity), NAGGN</text>
<line x1="10" y1="85" x2="778.0" y2="85" style="stroke-width:1; stroke:grey; "  />
</g>
<g id="a6_000"  >
<polygon points="0,85 5,80 86,80 86,90 5,90 0,85 " style="fill:#d81515; stroke-width:1; stroke:black; " description="&lt;b&gt;IM720_RS22550&lt;/b&gt;&lt;br&gt;polyphosphate:AMP phosphotransferase&lt;br&gt;Location: 5041569 - 5043083&lt;br&gt;&lt;br&gt;&lt;b&gt;BlastP hit with MFKKBJ_15470&lt;/b&gt;&lt;br&gt;Percentage identity: 94&lt;br&gt;Percentage coverage: 100&lt;br&gt;BLAST bit score: 965&lt;br&gt;E-value: 0.0" locus_tag="IM720_RS22550" class="clusterblast-orf" id="dummy-6_h6_8_0"  />
</g>
<g id="a6_001"  >
<polygon points="94,90 202,90 207,85 202,80 94,80 94,90 " style="fill:#5cd815; stroke-width:1; stroke:black; " description="&lt;b&gt;IM720_RS22555&lt;/b&gt;&lt;br&gt;bifunctional tRNA (5-methylaminomethyl-2-thiouridine)(34)-methyltransferase MnmD/FAD-dependent 5-carboxymethylaminomethyl-2-thiouridine(34) oxidoreductase MnmC&lt;br&gt;Location: 5043225 - 5045219&lt;br&gt;&lt;br&gt;&lt;b&gt;BlastP hit with MFKKBJ_15475&lt;/b&gt;&lt;br&gt;Percentage identity: 89&lt;br&gt;Percentage coverage: 99&lt;br&gt;BLAST bit score: 1191&lt;br&gt;E-value: 0.0" locus_tag="IM720_RS22555" class="clusterblast-orf" id="dummy-6_h6_8_1"  />
</g>
<g id="a6_002"  >
<polygon points="217,90 313,90 318,85 313,80 217,80 217,90 " style="fill:#15a3d8; stroke-width:1; stroke:black; " description="&lt;b&gt;IM720_RS22560&lt;/b&gt;&lt;br&gt;N-acetylglutaminylglutamine amidotransferase&lt;br&gt;Location: 5045385 - 5047157&lt;br&gt;&lt;br&gt;&lt;b&gt;BlastP hit with MFKKBJ_15480&lt;/b&gt;&lt;br&gt;Percentage identity: 97&lt;br&gt;Percentage coverage: 100&lt;br&gt;BLAST bit score: 1169&lt;br&gt;E-value: 0.0" locus_tag="IM720_RS22560" class="clusterblast-orf" id="dummy-6_h6_8_2"  />
</g>
<g id="a6_003"  >
<polygon points="318,90 412,90 417,85 412,80 318,80 318,90 " style="fill:#c715d8; stroke-width:1; stroke:black; " description="&lt;b&gt;IM720_RS22565&lt;/b&gt;&lt;br&gt;N-acetylglutaminylglutamine synthetase&lt;br&gt;Location: 5047161 - 5048909&lt;br&gt;&lt;br&gt;&lt;b&gt;BlastP hit with MFKKBJ_15485&lt;/b&gt;&lt;br&gt;Percentage identity: 95&lt;br&gt;Percentage coverage: 100&lt;br&gt;BLAST bit score: 1101&lt;br&gt;E-value: 0.0" locus_tag="IM720_RS22565" class="clusterblast-orf" id="dummy-6_h6_8_3"  />
</g>
<g id="a6_004"  >
<polygon points="443,90 506,90 511,85 506,80 443,80 443,90 " style="fill:#d88015; stroke-width:1; stroke:black; " description="&lt;b&gt;IM720_RS22570&lt;/b&gt;&lt;br&gt;osmoprotectant NAGGN system M42 family peptidase&lt;br&gt;Location: 5049360 - 5050544&lt;br&gt;&lt;br&gt;&lt;b&gt;BlastP hit with MFKKBJ_15490&lt;/b&gt;&lt;br&gt;Percentage identity: 98&lt;br&gt;Percentage coverage: 100&lt;br&gt;BLAST bit score: 771&lt;br&gt;E-value: 8.17e-283" locus_tag="IM720_RS22570" class="clusterblast-orf" id="dummy-6_h6_8_4"  />
</g>
<g id="a6_005"  >
<polygon points="514,90 522,90 527,85 522,80 514,80 514,90 " style="fill:#15d839; stroke-width:1; stroke:black; " description="&lt;b&gt;IM720_RS22575&lt;/b&gt;&lt;br&gt;YheU family protein&lt;br&gt;Location: 5050604 - 5050831&lt;br&gt;&lt;br&gt;&lt;b&gt;BlastP hit with MFKKBJ_15495&lt;/b&gt;&lt;br&gt;Percentage identity: 97&lt;br&gt;Percentage coverage: 100&lt;br&gt;BLAST bit score: 148&lt;br&gt;E-value: 7.94e-47" locus_tag="IM720_RS22575" class="clusterblast-orf" id="dummy-6_h6_8_5"  />
</g>
<g id="a6_006"  >
<polygon points="527,85 532,80 539,80 539,90 532,90 527,85 " style="fill:#1539d8; stroke-width:1; stroke:black; " description="&lt;b&gt;IM720_RS22580&lt;/b&gt;&lt;br&gt;carbon storage regulator CsrA&lt;br&gt;Location: 5050840 - 5051037&lt;br&gt;&lt;br&gt;&lt;b&gt;BlastP hit with MFKKBJ_15500&lt;/b&gt;&lt;br&gt;Percentage identity: 75&lt;br&gt;Percentage coverage: 94&lt;br&gt;BLAST bit score: 86&lt;br&gt;E-value: 2.09e-22" locus_tag="IM720_RS22580" class="clusterblast-orf" id="dummy-6_h6_8_6"  />
</g>
<g id="a6_007"  >
<polygon points="549,85 554,80 596,80 596,90 554,90 549,85 " style="fill:#d81580; stroke-width:1; stroke:black; " description="&lt;b&gt;IM720_RS22585&lt;/b&gt;&lt;br&gt;SDR family oxidoreductase&lt;br&gt;Location: 5051226 - 5052041&lt;br&gt;&lt;br&gt;&lt;b&gt;BlastP hit with MFKKBJ_15505&lt;/b&gt;&lt;br&gt;Percentage identity: 97&lt;br&gt;Percentage coverage: 100&lt;br&gt;BLAST bit score: 519&lt;br&gt;E-value: 2.81e-187" locus_tag="IM720_RS22585" class="clusterblast-orf" id="dummy-6_h6_8_7"  />
</g>
<g id="a6_008"  >
<polygon points="615,90 618,90 623,85 618,80 615,80 615,90 " style="fill:#c7d815; stroke-width:1; stroke:black; " description="&lt;b&gt;IM720_RS22590&lt;/b&gt;&lt;br&gt;DUF3309 family protein&lt;br&gt;Location: 5052370 - 5052522&lt;br&gt;&lt;br&gt;&lt;b&gt;BlastP hit with MFKKBJ_15510&lt;/b&gt;&lt;br&gt;Percentage identity: 96&lt;br&gt;Percentage coverage: 100&lt;br&gt;BLAST bit score: 77&lt;br&gt;E-value: 2.5e-19" locus_tag="IM720_RS22590" class="clusterblast-orf" id="dummy-6_h6_8_8"  />
</g>
<g id="a6_009"  >
<polygon points="626,85 631,80 745,80 745,90 631,90 626,85 " style="fill:#15d8a3; stroke-width:1; stroke:black; " description="&lt;b&gt;IM720_RS22595&lt;/b&gt;&lt;br&gt;LTA synthase family protein&lt;br&gt;Location: 5052577 - 5054664&lt;br&gt;&lt;br&gt;&lt;b&gt;BlastP hit with MFKKBJ_15515&lt;/b&gt;&lt;br&gt;Percentage identity: 96&lt;br&gt;Percentage coverage: 100&lt;br&gt;BLAST bit score: 1349&lt;br&gt;E-value: 0.0" locus_tag="IM720_RS22595" class="clusterblast-orf" id="dummy-6_h6_8_9"  />
</g>
<g id="a6_0010"  >
<polygon points="769,85 774,80 780,80 780,90 774,90 769,85 " style="fill:#5c15d8; stroke-width:1; stroke:black; " description="&lt;b&gt;IM720_RS22600&lt;/b&gt;&lt;br&gt;PLDc N-terminal domain-containing protein&lt;br&gt;Location: 5055075 - 5055266&lt;br&gt;&lt;br&gt;&lt;b&gt;BlastP hit with MFKKBJ_15520&lt;/b&gt;&lt;br&gt;Percentage identity: 98&lt;br&gt;Percentage coverage: 100&lt;br&gt;BLAST bit score: 119&lt;br&gt;E-value: 9.64e-36" locus_tag="IM720_RS22600" class="clusterblast-orf" id="dummy-6_h6_8_10"  />
</g>
</svg>
