<svg xmlns="http://www.w3.org/2000/svg" xmlns:xlink="http://www.w3.org/1999/xlink" version="1.1" x="0" y="0" height="230" width="800" viewBox="0 0 800 230" preserveAspectRatio="none"  >
<g label="Query sequence" class="clusterblast-cluster"  >
<text x="5" y="20" class="clusterblast-acc"  >
Query sequence</text>
<line x1="10" y1="35" x2="778.0" y2="35" style="stroke-width:1; stroke:grey; "  />
<polygon points="217,35 222,30 242,30 242,40 222,40 217,35 " style="fill:#d81515; stroke-width:1; stroke:black; " description="&lt;b&gt;MFKKBJ_12140&lt;/b&gt;&lt;br&gt;Transcriptional regulator, AraC family&lt;br&gt;Location: 2624271 - 2625141" locus_tag="MFKKBJ_12140" class="clusterblast-orf" id="dummy-4_q0_0_all"  />
<polygon points="248,40 260,40 265,35 260,30 248,30 248,40 " style="fill:#3cd815; stroke-width:1; stroke:black; " description="&lt;b&gt;MFKKBJ_12145&lt;/b&gt;&lt;br&gt;Lysine transporter LysE&lt;br&gt;Location: 2625329 - 2625950" locus_tag="MFKKBJ_12145" class="clusterblast-orf" id="dummy-4_q1_0_all"  />
<polygon points="268,40 276,40 281,35 276,30 268,30 268,40 " style="fill:#1563d8; stroke-width:1; stroke:black; " description="&lt;b&gt;MFKKBJ_12150&lt;/b&gt;&lt;br&gt;PhnB-like domain-containing protein&lt;br&gt;Location: 2626025 - 2626508" locus_tag="MFKKBJ_12150" class="clusterblast-orf" id="dummy-4_q2_0_all"  />
<polygon points="284,40 302,40 307,35 302,30 284,30 284,40 " style="fill:#b115d8; stroke-width:1; stroke:black; " description="&lt;b&gt;MFKKBJ_12155&lt;/b&gt;&lt;br&gt;cysteine synthase family protein&lt;br&gt;Location: 2626609 - 2627401" locus_tag="MFKKBJ_12155" class="clusterblast-orf" id="dummy-4_q3_0_all"  />
<polygon points="307,40 319,40 324,35 319,30 307,30 307,40 " style="fill:#b115d8; stroke-width:1; stroke:black; " description="&lt;b&gt;MFKKBJ_12160&lt;/b&gt;&lt;br&gt;CBS domain-containing protein&lt;br&gt;Location: 2627401 - 2627986" locus_tag="MFKKBJ_12160" class="clusterblast-orf" id="dummy-4_q4_0_all"  />
<polygon points="324,40 352,40 357,35 352,30 324,30 324,40 " style="fill:#d88a15; stroke-width:1; stroke:black; " description="&lt;b&gt;MFKKBJ_12165&lt;/b&gt;&lt;br&gt;cystathionine gamma-synthase&lt;br&gt;Location: 2627982 - 2629149" locus_tag="MFKKBJ_12165" class="clusterblast-orf" id="dummy-4_q5_0_all"  />
<polygon points="359,35 364,30 422,30 422,40 364,40 359,35 " style="fill:#15d863; stroke-width:1; stroke:black; " description="&lt;b&gt;MFKKBJ_12170&lt;/b&gt;&lt;br&gt;OsmC domain/YcaO domain-containing protein&lt;br&gt;Location: 2629201 - 2631403" locus_tag="MFKKBJ_12170" class="clusterblast-orf" id="dummy-4_q6_0_all"  />
<polygon points="427,40 430,40 435,35 430,30 427,30 427,40 " style="fill:#3c15d8; stroke-width:1; stroke:black; " description="&lt;b&gt;MFKKBJ_12175&lt;/b&gt;&lt;br&gt;PAS domain-containing protein&lt;br&gt;Location: 2631564 - 2631834" locus_tag="MFKKBJ_12175" class="clusterblast-orf" id="dummy-4_q7_0_all"  />
<polygon points="434,35 439,30 444,30 444,40 439,40 434,35 " style="fill:#15d863; stroke-width:1; stroke:black; " description="&lt;b&gt;MFKKBJ_12180&lt;/b&gt;&lt;br&gt;Osmotically inducible protein OsmC&lt;br&gt;Location: 2631823 - 2632174" locus_tag="MFKKBJ_12180" class="clusterblast-orf" id="dummy-4_q8_0_all"  />
<polygon points="449,40 489,40 494,35 489,30 449,30 449,40 " style="fill:#3c15d8; stroke-width:1; stroke:black; " description="&lt;b&gt;MFKKBJ_12185&lt;/b&gt;&lt;br&gt;Methyl-accepting transducer domain-containing protein&lt;br&gt;Location: 2632335 - 2633901" locus_tag="MFKKBJ_12185" class="clusterblast-orf" id="dummy-4_q9_0_all"  />
<polygon points="501,40 519,40 524,35 519,30 501,30 501,40 " style="fill:#d8158a; stroke-width:1; stroke:black; " description="&lt;b&gt;MFKKBJ_12190&lt;/b&gt;&lt;br&gt;Suppressor of fused-like domain-containing protein&lt;br&gt;Location: 2634149 - 2634959" locus_tag="MFKKBJ_12190" class="clusterblast-orf" id="dummy-4_q10_0_all"  />
<polygon points="524,40 536,40 541,35 536,30 524,30 524,40 " style="fill:#b1d815; stroke-width:1; stroke:black; " description="&lt;b&gt;MFKKBJ_12195&lt;/b&gt;&lt;br&gt;hypothetical protein&lt;br&gt;Location: 2634958 - 2635540" locus_tag="MFKKBJ_12195" class="clusterblast-orf" id="dummy-4_q11_0_all"  />
<polygon points="546,40 557,40 562,35 557,30 546,30 546,40 " style="fill:#15d8d8; stroke-width:1; stroke:black; " description="&lt;b&gt;MFKKBJ_12200&lt;/b&gt;&lt;br&gt;Hydrolase, isochorismatase family&lt;br&gt;Location: 2635719 - 2636280" locus_tag="MFKKBJ_12200" class="clusterblast-orf" id="dummy-4_q12_0_all"  />
</g>
<g label="NZ_CP019856" description="NZ_CP019856 (3419071-3448583): Pseudomonas azotoformans strain F77 chromosome... (30% of genes show similarity), thiopeptide" class="clusterblast-cluster"  >
<text x="5" y="70" class="clusterblast-acc"  >
<a xlink:href="https://antismash-db.secondarymetabolites.org/area?record=NZ_CP019856&amp;start=3419071&amp;end=3448583" target="_blank">NZ_CP019856 (3419071-3448583)</a>: Pseudomonas azotoformans strain F77 chromosome... (30% of genes show similarity), thiopeptide</text>
<line x1="10" y1="85" x2="778.0" y2="85" style="stroke-width:1; stroke:grey; "  />
</g>
<g id="a4_000"  >
<polygon points="0,90 14,90 19,85 14,80 0,80 0,90 " style="fill:#3c15d8; stroke-width:1; stroke:black; " description="&lt;b&gt;B1R45_RS31350&lt;/b&gt;&lt;br&gt;methyl-accepting chemotaxis protein&lt;br&gt;Location: 3421341 - 3422033&lt;br&gt;&lt;br&gt;&lt;b&gt;BlastP hit with MFKKBJ_12185&lt;/b&gt;&lt;br&gt;Percentage identity: 43&lt;br&gt;Percentage coverage: 40&lt;br&gt;BLAST bit score: 119&lt;br&gt;E-value: 1.26e-28" locus_tag="B1R45_RS31350" class="clusterblast-orf" id="dummy-4_h4_5_0"  />
</g>
<g id="a4_001"  >
<polygon points="20,85 25,80 39,80 39,90 25,90 20,85 " style="fill:white; stroke-width:1; stroke:black; " description="&lt;b&gt;B1R45_RS15585&lt;/b&gt;&lt;br&gt;TIGR02466 family protein&lt;br&gt;Location: 3422058 - 3422723" locus_tag="B1R45_RS15585" class="clusterblast-orf" id="dummy-4_h4_5_1"  />
</g>
<g id="a4_002"  >
<polygon points="48,90 81,90 86,85 81,80 48,80 48,90 " style="fill:white; stroke-width:1; stroke:black; " description="&lt;b&gt;B1R45_RS15590&lt;/b&gt;&lt;br&gt;MFS transporter&lt;br&gt;Location: 3423016 - 3424356" locus_tag="B1R45_RS15590" class="clusterblast-orf" id="dummy-4_h4_5_2"  />
</g>
<g id="a4_003"  >
<polygon points="95,90 103,90 108,85 103,80 95,80 95,90 " style="fill:white; stroke-width:1; stroke:black; " description="&lt;b&gt;B1R45_RS15595&lt;/b&gt;&lt;br&gt;thiol-disulfide oxidoreductase DCC family protein&lt;br&gt;Location: 3424671 - 3425123" locus_tag="B1R45_RS15595" class="clusterblast-orf" id="dummy-4_h4_5_3"  />
</g>
<g id="a4_004"  >
<polygon points="111,85 116,80 144,80 144,90 116,90 111,85 " style="fill:white; stroke-width:1; stroke:black; " description="&lt;b&gt;B1R45_RS15600&lt;/b&gt;&lt;br&gt;saccharopine dehydrogenase NADP-binding domain-containing protein&lt;br&gt;Location: 3425216 - 3426376" locus_tag="B1R45_RS15600" class="clusterblast-orf" id="dummy-4_h4_5_4"  />
</g>
<g id="a4_005"  >
<polygon points="146,85 151,80 168,80 168,90 151,90 146,85 " style="fill:white; stroke-width:1; stroke:black; " description="&lt;b&gt;B1R45_RS15605&lt;/b&gt;&lt;br&gt;NAD(P)-binding domain-containing protein&lt;br&gt;Location: 3426448 - 3427215" locus_tag="B1R45_RS15605" class="clusterblast-orf" id="dummy-4_h4_5_5"  />
</g>
<g id="a4_006"  >
<polygon points="172,90 177,90 182,85 177,80 172,80 172,90 " style="fill:white; stroke-width:1; stroke:black; " description="&lt;b&gt;B1R45_RS15610&lt;/b&gt;&lt;br&gt;VOC family protein&lt;br&gt;Location: 3427345 - 3427698" locus_tag="B1R45_RS15610" class="clusterblast-orf" id="dummy-4_h4_5_6"  />
</g>
<g id="a4_007"  >
<polygon points="184,90 195,90 200,85 195,80 184,80 184,90 " style="fill:white; stroke-width:1; stroke:black; " description="&lt;b&gt;B1R45_RS15615&lt;/b&gt;&lt;br&gt;adenylate kinase&lt;br&gt;Location: 3427768 - 3428328" locus_tag="B1R45_RS15615" class="clusterblast-orf" id="dummy-4_h4_5_7"  />
</g>
<g id="a4_008"  >
<polygon points="204,90 217,90 222,85 217,80 204,80 204,90 " style="fill:#3cd815; stroke-width:1; stroke:black; " description="&lt;b&gt;B1R45_RS15620&lt;/b&gt;&lt;br&gt;LysE family translocator&lt;br&gt;Location: 3428448 - 3429068&lt;br&gt;&lt;br&gt;&lt;b&gt;BlastP hit with MFKKBJ_12145&lt;/b&gt;&lt;br&gt;Percentage identity: 93&lt;br&gt;Percentage coverage: 100&lt;br&gt;BLAST bit score: 370&lt;br&gt;E-value: 1.33e-130" locus_tag="B1R45_RS15620" class="clusterblast-orf" id="dummy-4_h4_5_8"  />
</g>
<g id="a4_009"  >
<polygon points="222,90 228,90 233,85 228,80 222,80 222,90 " style="fill:white; stroke-width:1; stroke:black; " description="&lt;b&gt;B1R45_RS15625&lt;/b&gt;&lt;br&gt;ester cyclase&lt;br&gt;Location: 3429072 - 3429464" locus_tag="B1R45_RS15625" class="clusterblast-orf" id="dummy-4_h4_5_9"  />
</g>
<g id="a4_0010"  >
<polygon points="234,90 243,90 248,85 243,80 234,80 234,90 " style="fill:#1563d8; stroke-width:1; stroke:black; " description="&lt;b&gt;B1R45_RS15630&lt;/b&gt;&lt;br&gt;VOC family protein&lt;br&gt;Location: 3429499 - 3429981&lt;br&gt;&lt;br&gt;&lt;b&gt;BlastP hit with MFKKBJ_12150&lt;/b&gt;&lt;br&gt;Percentage identity: 89&lt;br&gt;Percentage coverage: 99&lt;br&gt;BLAST bit score: 298&lt;br&gt;E-value: 1.33e-103" locus_tag="B1R45_RS15630" class="clusterblast-orf" id="dummy-4_h4_5_10"  />
</g>
<g id="a4_0011"  >
<polygon points="248,85 253,80 273,80 273,90 253,90 248,85 " style="fill:white; stroke-width:1; stroke:black; " description="&lt;b&gt;B1R45_RS15635&lt;/b&gt;&lt;br&gt;SGNH/GDSL hydrolase family protein&lt;br&gt;Location: 3429978 - 3430874" locus_tag="B1R45_RS15635" class="clusterblast-orf" id="dummy-4_h4_5_11"  />
</g>
<g id="a4_0012"  >
<polygon points="279,90 309,90 314,85 309,80 279,80 279,90 " style="fill:white; stroke-width:1; stroke:black; " description="&lt;b&gt;B1R45_RS15640&lt;/b&gt;&lt;br&gt;hypothetical protein&lt;br&gt;Location: 3431083 - 3432285" locus_tag="B1R45_RS15640" class="clusterblast-orf" id="dummy-4_h4_5_12"  />
</g>
<g id="a4_0013"  >
<polygon points="311,90 314,90 319,85 314,80 311,80 311,90 " style="fill:white; stroke-width:1; stroke:black; " description="&lt;b&gt;B1R45_RS31355&lt;/b&gt;&lt;br&gt;hypothetical protein&lt;br&gt;Location: 3432185 - 3432475" locus_tag="B1R45_RS31355" class="clusterblast-orf" id="dummy-4_h4_5_13"  />
</g>
<g id="a4_0014"  >
<polygon points="328,90 348,90 353,85 348,80 328,80 328,90 " style="fill:white; stroke-width:1; stroke:black; " description="&lt;b&gt;B1R45_RS15645&lt;/b&gt;&lt;br&gt;4-hydroxy-tetrahydrodipicolinate synthase&lt;br&gt;Location: 3432770 - 3433633" locus_tag="B1R45_RS15645" class="clusterblast-orf" id="dummy-4_h4_5_14"  />
</g>
<g id="a4_0015"  >
<polygon points="356,90 391,90 396,85 391,80 356,80 356,90 " style="fill:#b115d8; stroke-width:1; stroke:black; " description="&lt;b&gt;B1R45_RS15650&lt;/b&gt;&lt;br&gt;cystathionine beta-synthase&lt;br&gt;Location: 3433750 - 3435126&lt;br&gt;&lt;br&gt;&lt;b&gt;BlastP hit with MFKKBJ_12155&lt;/b&gt;&lt;br&gt;Percentage identity: 95&lt;br&gt;Percentage coverage: 100&lt;br&gt;BLAST bit score: 499&lt;br&gt;E-value: 1.95e-176&lt;br&gt;&lt;br&gt;&lt;b&gt;BlastP hit with MFKKBJ_12160&lt;/b&gt;&lt;br&gt;Percentage identity: 92&lt;br&gt;Percentage coverage: 100&lt;br&gt;BLAST bit score: 350&lt;br&gt;E-value: 6.68e-119" locus_tag="B1R45_RS15650" class="clusterblast-orf" id="dummy-4_h4_5_15"  />
</g>
<g id="a4_0016"  >
<polygon points="396,90 424,90 429,85 424,80 396,80 396,90 " style="fill:#d88a15; stroke-width:1; stroke:black; " description="&lt;b&gt;B1R45_RS15655&lt;/b&gt;&lt;br&gt;cystathionine gamma-synthase&lt;br&gt;Location: 3435123 - 3436289&lt;br&gt;&lt;br&gt;&lt;b&gt;BlastP hit with MFKKBJ_12165&lt;/b&gt;&lt;br&gt;Percentage identity: 95&lt;br&gt;Percentage coverage: 100&lt;br&gt;BLAST bit score: 732&lt;br&gt;E-value: 1.27e-267" locus_tag="B1R45_RS15655" class="clusterblast-orf" id="dummy-4_h4_5_16"  />
</g>
<g id="a4_0017"  >
<polygon points="432,85 437,80 495,80 495,90 437,90 432,85 " style="fill:#15d863; stroke-width:1; stroke:black; " description="&lt;b&gt;B1R45_RS15660&lt;/b&gt;&lt;br&gt;OsmC domain/YcaO domain-containing protein&lt;br&gt;Location: 3436385 - 3438583&lt;br&gt;&lt;br&gt;&lt;b&gt;BlastP hit with MFKKBJ_12170&lt;/b&gt;&lt;br&gt;Percentage identity: 95&lt;br&gt;Percentage coverage: 100&lt;br&gt;BLAST bit score: 1403&lt;br&gt;E-value: 0.0&lt;br&gt;&lt;br&gt;&lt;b&gt;BlastP hit with MFKKBJ_12180&lt;/b&gt;&lt;br&gt;Percentage identity: 98&lt;br&gt;Percentage coverage: 99&lt;br&gt;BLAST bit score: 230&lt;br&gt;E-value: 4.63e-71" locus_tag="B1R45_RS15660" class="clusterblast-orf" id="dummy-4_h4_5_17"  />
</g>
<g id="a4_0018"  >
<polygon points="500,90 540,90 545,85 540,80 500,80 500,90 " style="fill:#3c15d8; stroke-width:1; stroke:black; " description="&lt;b&gt;B1R45_RS15665&lt;/b&gt;&lt;br&gt;methyl-accepting chemotaxis protein&lt;br&gt;Location: 3438746 - 3440311&lt;br&gt;&lt;br&gt;&lt;b&gt;BlastP hit with MFKKBJ_12175&lt;/b&gt;&lt;br&gt;Percentage identity: 91&lt;br&gt;Percentage coverage: 100&lt;br&gt;BLAST bit score: 169&lt;br&gt;E-value: 1.15e-49&lt;br&gt;&lt;br&gt;&lt;b&gt;BlastP hit with MFKKBJ_12185&lt;/b&gt;&lt;br&gt;Percentage identity: 91&lt;br&gt;Percentage coverage: 100&lt;br&gt;BLAST bit score: 836&lt;br&gt;E-value: 2.75e-304" locus_tag="B1R45_RS15665" class="clusterblast-orf" id="dummy-4_h4_5_18"  />
</g>
<g id="a4_0019"  >
<polygon points="551,85 556,80 570,80 570,90 556,90 551,85 " style="fill:white; stroke-width:1; stroke:black; " description="&lt;b&gt;B1R45_RS15670&lt;/b&gt;&lt;br&gt;class I SAM-dependent methyltransferase&lt;br&gt;Location: 3440532 - 3441188" locus_tag="B1R45_RS15670" class="clusterblast-orf" id="dummy-4_h4_5_19"  />
</g>
<g id="a4_0020"  >
<polygon points="573,90 586,90 591,85 586,80 573,80 573,90 " style="fill:white; stroke-width:1; stroke:black; " description="&lt;b&gt;B1R45_RS15675&lt;/b&gt;&lt;br&gt;TetR family transcriptional regulator&lt;br&gt;Location: 3441300 - 3441932" locus_tag="B1R45_RS15675" class="clusterblast-orf" id="dummy-4_h4_5_20"  />
</g>
<g id="a4_0021"  >
<polygon points="592,90 610,90 615,85 610,80 592,80 592,90 " style="fill:#d8158a; stroke-width:1; stroke:black; " description="&lt;b&gt;B1R45_RS15680&lt;/b&gt;&lt;br&gt;suppressor of fused domain protein&lt;br&gt;Location: 3441961 - 3442761&lt;br&gt;&lt;br&gt;&lt;b&gt;BlastP hit with MFKKBJ_12190&lt;/b&gt;&lt;br&gt;Percentage identity: 85&lt;br&gt;Percentage coverage: 102&lt;br&gt;BLAST bit score: 442&lt;br&gt;E-value: 9.21e-157" locus_tag="B1R45_RS15680" class="clusterblast-orf" id="dummy-4_h4_5_21"  />
</g>
<g id="a4_0022"  >
<polygon points="618,90 628,90 633,85 628,80 618,80 618,90 " style="fill:white; stroke-width:1; stroke:black; " description="&lt;b&gt;B1R45_RS15685&lt;/b&gt;&lt;br&gt;SMI1/KNR4 family protein&lt;br&gt;Location: 3442851 - 3443384" locus_tag="B1R45_RS15685" class="clusterblast-orf" id="dummy-4_h4_5_22"  />
</g>
<g id="a4_0023"  >
<polygon points="637,90 644,90 649,85 644,80 637,80 637,90 " style="fill:white; stroke-width:1; stroke:black; " description="&lt;b&gt;B1R45_RS15690&lt;/b&gt;&lt;br&gt;hypothetical protein&lt;br&gt;Location: 3443515 - 3443955" locus_tag="B1R45_RS15690" class="clusterblast-orf" id="dummy-4_h4_5_23"  />
</g>
<g id="a4_0024"  >
<polygon points="652,85 655,80 655,90 652,85 " style="fill:white; stroke-width:1; stroke:black; " description="&lt;b&gt;B1R45_RS31360&lt;/b&gt;&lt;br&gt;30S ribosomal protein S5 alanine N-acetyltransferase&lt;br&gt;Location: 3444050 - 3444157" locus_tag="B1R45_RS31360" class="clusterblast-orf" id="dummy-4_h4_5_24"  />
</g>
<g id="a4_0025"  >
<polygon points="659,85 664,80 675,80 675,90 664,90 659,85 " style="fill:white; stroke-width:1; stroke:black; " description="&lt;b&gt;B1R45_RS15700&lt;/b&gt;&lt;br&gt;GNAT family N-acetyltransferase&lt;br&gt;Location: 3444295 - 3444840" locus_tag="B1R45_RS15700" class="clusterblast-orf" id="dummy-4_h4_5_25"  />
</g>
<g id="a4_0026"  >
<polygon points="678,85 683,80 718,80 718,90 683,90 678,85 " style="fill:white; stroke-width:1; stroke:black; " description="&lt;b&gt;B1R45_RS15705&lt;/b&gt;&lt;br&gt;hypothetical protein&lt;br&gt;Location: 3444935 - 3446338" locus_tag="B1R45_RS15705" class="clusterblast-orf" id="dummy-4_h4_5_26"  />
</g>
<g id="a4_0027"  >
<polygon points="722,90 733,90 738,85 733,80 722,80 722,90 " style="fill:#15d8d8; stroke-width:1; stroke:black; " description="&lt;b&gt;B1R45_RS15710&lt;/b&gt;&lt;br&gt;cysteine hydrolase&lt;br&gt;Location: 3446467 - 3447036&lt;br&gt;&lt;br&gt;&lt;b&gt;BlastP hit with MFKKBJ_12200&lt;/b&gt;&lt;br&gt;Percentage identity: 85&lt;br&gt;Percentage coverage: 98&lt;br&gt;BLAST bit score: 320&lt;br&gt;E-value: 2.13e-111" locus_tag="B1R45_RS15710" class="clusterblast-orf" id="dummy-4_h4_5_27"  />
</g>
<g id="a4_0028"  >
<polygon points="739,85 744,80 758,80 758,90 744,90 739,85 " style="fill:white; stroke-width:1; stroke:black; " description="&lt;b&gt;B1R45_RS15715&lt;/b&gt;&lt;br&gt;glutathione S-transferase&lt;br&gt;Location: 3447086 - 3447733" locus_tag="B1R45_RS15715" class="clusterblast-orf" id="dummy-4_h4_5_28"  />
</g>
<g id="a4_0029"  >
<polygon points="763,90 775,90 780,85 775,80 763,80 763,90 " style="fill:white; stroke-width:1; stroke:black; " description="&lt;b&gt;B1R45_RS15720&lt;/b&gt;&lt;br&gt;TetR/AcrR family transcriptional regulator&lt;br&gt;Location: 3447918 - 3448481" locus_tag="B1R45_RS15720" class="clusterblast-orf" id="dummy-4_h4_5_29"  />
</g>
</svg>
