<svg xmlns="http://www.w3.org/2000/svg" xmlns:xlink="http://www.w3.org/1999/xlink" version="1.1" x="0" y="0" height="230" width="800" viewBox="0 0 800 230" preserveAspectRatio="none"  >
<g label="Query sequence" class="clusterblast-cluster"  >
<text x="5" y="20" class="clusterblast-acc"  >
Query sequence</text>
<line x1="10" y1="35" x2="778.0" y2="35" style="stroke-width:1; stroke:grey; "  />
<polygon points="0,40 77,40 82,35 77,30 0,30 0,40 " style="fill:#d81515; stroke-width:1; stroke:black; " description="&lt;b&gt;MFKKBJ_26540&lt;/b&gt;&lt;br&gt;Protein HflC&lt;br&gt;Location: 5781757 - 5782747" locus_tag="MFKKBJ_26540" class="clusterblast-orf" id="dummy-10_q0_0_all"  />
<polygon points="82,40 163,40 168,35 163,30 82,30 82,40 " style="fill:#15d815; stroke-width:1; stroke:black; " description="&lt;b&gt;MFKKBJ_26545&lt;/b&gt;&lt;br&gt;Modulator of FtsH protease HflK&lt;br&gt;Location: 5782743 - 5783778" locus_tag="MFKKBJ_26545" class="clusterblast-orf" id="dummy-10_q1_0_all"  />
<polygon points="168,40 319,40 324,35 319,30 168,30 168,40 " style="fill:#1597d8; stroke-width:1; stroke:black; " description="&lt;b&gt;MFKKBJ_26550&lt;/b&gt;&lt;br&gt;Cadmium-translocating P-type ATPase&lt;br&gt;Location: 5783774 - 5785661" locus_tag="MFKKBJ_26550" class="clusterblast-orf" id="dummy-10_q2_0_all"  />
<polygon points="334,40 350,40 355,35 350,30 334,30 334,40 " style="fill:#9715d8; stroke-width:1; stroke:black; " description="&lt;b&gt;MFKKBJ_26555&lt;/b&gt;&lt;br&gt;Integral membrane protein&lt;br&gt;Location: 5785778 - 5786030" locus_tag="MFKKBJ_26555" class="clusterblast-orf" id="dummy-10_q3_0_all"  />
<polygon points="360,40 425,40 430,35 425,30 360,30 360,40 " style="fill:#d89715; stroke-width:1; stroke:black; " description="&lt;b&gt;MFKKBJ_26560&lt;/b&gt;&lt;br&gt;UPF0276 protein BW43 00573&lt;br&gt;Location: 5786096 - 5786942" locus_tag="MFKKBJ_26560" class="clusterblast-orf" id="dummy-10_q4_0_all"  />
<polygon points="430,40 490,40 495,35 490,30 430,30 430,40 " style="fill:#15d897; stroke-width:1; stroke:black; " description="&lt;b&gt;MFKKBJ_26565&lt;/b&gt;&lt;br&gt;DUF2063 domain-containing protein&lt;br&gt;Location: 5786932 - 5787721" locus_tag="MFKKBJ_26565" class="clusterblast-orf" id="dummy-10_q5_0_all"  />
<polygon points="502,40 596,40 601,35 596,30 502,30 502,40 " style="fill:#1515d8; stroke-width:1; stroke:black; " description="&lt;b&gt;MFKKBJ_26570&lt;/b&gt;&lt;br&gt;C17 cyclopropane fatty acid synthase CfaB&lt;br&gt;Location: 5787808 - 5788993" locus_tag="MFKKBJ_26570" class="clusterblast-orf" id="dummy-10_q6_0_all"  />
<polygon points="607,35 612,30 726,30 726,40 612,40 607,35 " style="fill:#d81597; stroke-width:1; stroke:black; " description="&lt;b&gt;MFKKBJ_26575&lt;/b&gt;&lt;br&gt;cardiolipin synthase&lt;br&gt;Location: 5789067 - 5790507" locus_tag="MFKKBJ_26575" class="clusterblast-orf" id="dummy-10_q7_0_all"  />
<polygon points="737,40 775,40 780,35 775,30 737,30 737,40 " style="fill:#97d815; stroke-width:1; stroke:black; " description="&lt;b&gt;MFKKBJ_26580&lt;/b&gt;&lt;br&gt;DUF3617 domain-containing protein&lt;br&gt;Location: 5790638 - 5791160" locus_tag="MFKKBJ_26580" class="clusterblast-orf" id="dummy-10_q8_0_all"  />
</g>
<g label="NZ_MSDJ01000026" description="NZ_MSDJ01000026 (77523-88369): Pseudomonas fluorescens strain G2Y PF G2Y cont... (100% of genes show similarity), RiPP-like" class="clusterblast-cluster"  >
<text x="5" y="70" class="clusterblast-acc"  >
<a xlink:href="https://antismash-db.secondarymetabolites.org/area?record=NZ_MSDJ01000026&amp;start=77523&amp;end=88369" target="_blank">NZ_MSDJ01000026 (77523-88369)</a>: Pseudomonas fluorescens strain G2Y PF G2Y cont... (100% of genes show similarity), RiPP-like</text>
<line x1="10" y1="85" x2="778.0" y2="85" style="stroke-width:1; stroke:grey; "  />
</g>
<g id="a10_000"  >
<polygon points="0,90 77,90 82,85 77,80 0,80 0,90 " style="fill:#d81515; stroke-width:1; stroke:black; " description="&lt;b&gt;BFW92_RS27690&lt;/b&gt;&lt;br&gt;protease modulator HflC&lt;br&gt;Location: 87711 - 86719&lt;br&gt;&lt;br&gt;&lt;b&gt;BlastP hit with MFKKBJ_26540&lt;/b&gt;&lt;br&gt;Percentage identity: 99&lt;br&gt;Percentage coverage: 100&lt;br&gt;BLAST bit score: 531&lt;br&gt;E-value: 3.31e-190" locus_tag="BFW92_RS27690" class="clusterblast-orf" id="dummy-10_h10_1_0"  />
</g>
<g id="a10_001"  >
<polygon points="82,90 162,90 167,85 162,80 82,80 82,90 " style="fill:#15d815; stroke-width:1; stroke:black; " description="&lt;b&gt;BFW92_RS27685&lt;/b&gt;&lt;br&gt;protease modulator HflK&lt;br&gt;Location: 86722 - 85688&lt;br&gt;&lt;br&gt;&lt;b&gt;BlastP hit with MFKKBJ_26545&lt;/b&gt;&lt;br&gt;Percentage identity: 100&lt;br&gt;Percentage coverage: 100&lt;br&gt;BLAST bit score: 562&lt;br&gt;E-value: 9.31e-202" locus_tag="BFW92_RS27685" class="clusterblast-orf" id="dummy-10_h10_1_1"  />
</g>
<g id="a10_002"  >
<polygon points="167,90 319,90 324,85 319,80 167,80 167,90 " style="fill:#1597d8; stroke-width:1; stroke:black; " description="&lt;b&gt;BFW92_RS27680&lt;/b&gt;&lt;br&gt;cation-translocating P-type ATPase&lt;br&gt;Location: 85691 - 83805&lt;br&gt;&lt;br&gt;&lt;b&gt;BlastP hit with MFKKBJ_26550&lt;/b&gt;&lt;br&gt;Percentage identity: 99&lt;br&gt;Percentage coverage: 100&lt;br&gt;BLAST bit score: 1101&lt;br&gt;E-value: 0.0" locus_tag="BFW92_RS27680" class="clusterblast-orf" id="dummy-10_h10_1_2"  />
</g>
<g id="a10_003"  >
<polygon points="333,90 349,90 354,85 349,80 333,80 333,90 " style="fill:#9715d8; stroke-width:1; stroke:black; " description="&lt;b&gt;BFW92_RS27675&lt;/b&gt;&lt;br&gt;hypothetical protein&lt;br&gt;Location: 83687 - 83436&lt;br&gt;&lt;br&gt;&lt;b&gt;BlastP hit with MFKKBJ_26555&lt;/b&gt;&lt;br&gt;Percentage identity: 99&lt;br&gt;Percentage coverage: 100&lt;br&gt;BLAST bit score: 104&lt;br&gt;E-value: 3.41e-29" locus_tag="BFW92_RS27675" class="clusterblast-orf" id="dummy-10_h10_1_3"  />
</g>
<g id="a10_004"  >
<polygon points="360,90 425,90 430,85 425,80 360,80 360,90 " style="fill:#d89715; stroke-width:1; stroke:black; " description="&lt;b&gt;BFW92_RS27670&lt;/b&gt;&lt;br&gt;DUF692 domain-containing protein&lt;br&gt;Location: 83369 - 82524&lt;br&gt;&lt;br&gt;&lt;b&gt;BlastP hit with MFKKBJ_26560&lt;/b&gt;&lt;br&gt;Percentage identity: 99&lt;br&gt;Percentage coverage: 100&lt;br&gt;BLAST bit score: 578&lt;br&gt;E-value: 4.09e-210" locus_tag="BFW92_RS27670" class="clusterblast-orf" id="dummy-10_h10_1_4"  />
</g>
<g id="a10_005"  >
<polygon points="429,90 489,90 494,85 489,80 429,80 429,90 " style="fill:#15d897; stroke-width:1; stroke:black; " description="&lt;b&gt;BFW92_RS27665&lt;/b&gt;&lt;br&gt;DNA-binding domain-containing protein&lt;br&gt;Location: 82533 - 81745&lt;br&gt;&lt;br&gt;&lt;b&gt;BlastP hit with MFKKBJ_26565&lt;/b&gt;&lt;br&gt;Percentage identity: 94&lt;br&gt;Percentage coverage: 100&lt;br&gt;BLAST bit score: 508&lt;br&gt;E-value: 2.6e-183" locus_tag="BFW92_RS27665" class="clusterblast-orf" id="dummy-10_h10_1_5"  />
</g>
<g id="a10_006"  >
<polygon points="502,90 595,90 600,85 595,80 502,80 502,90 " style="fill:#1515d8; stroke-width:1; stroke:black; " description="&lt;b&gt;BFW92_RS27660&lt;/b&gt;&lt;br&gt;C17 cyclopropane fatty acid synthase CfaB&lt;br&gt;Location: 81657 - 80473&lt;br&gt;&lt;br&gt;&lt;b&gt;BlastP hit with MFKKBJ_26570&lt;/b&gt;&lt;br&gt;Percentage identity: 100&lt;br&gt;Percentage coverage: 100&lt;br&gt;BLAST bit score: 795&lt;br&gt;E-value: 4.11e-292" locus_tag="BFW92_RS27660" class="clusterblast-orf" id="dummy-10_h10_1_6"  />
</g>
<g id="a10_007"  >
<polygon points="606,85 611,80 725,80 725,90 611,90 606,85 " style="fill:#d81597; stroke-width:1; stroke:black; " description="&lt;b&gt;BFW92_RS27655&lt;/b&gt;&lt;br&gt;cardiolipin synthase&lt;br&gt;Location: 80401 - 78962&lt;br&gt;&lt;br&gt;&lt;b&gt;BlastP hit with MFKKBJ_26575&lt;/b&gt;&lt;br&gt;Percentage identity: 100&lt;br&gt;Percentage coverage: 100&lt;br&gt;BLAST bit score: 943&lt;br&gt;E-value: 0.0" locus_tag="BFW92_RS27655" class="clusterblast-orf" id="dummy-10_h10_1_7"  />
</g>
<g id="a10_008"  >
<polygon points="736,90 774,90 779,85 774,80 736,80 736,90 " style="fill:#97d815; stroke-width:1; stroke:black; " description="&lt;b&gt;BFW92_RS27650&lt;/b&gt;&lt;br&gt;DUF3617 domain-containing protein&lt;br&gt;Location: 78830 - 78309&lt;br&gt;&lt;br&gt;&lt;b&gt;BlastP hit with MFKKBJ_26580&lt;/b&gt;&lt;br&gt;Percentage identity: 99&lt;br&gt;Percentage coverage: 100&lt;br&gt;BLAST bit score: 341&lt;br&gt;E-value: 4.2e-120" locus_tag="BFW92_RS27650" class="clusterblast-orf" id="dummy-10_h10_1_8"  />
</g>
</svg>
