<svg xmlns="http://www.w3.org/2000/svg" xmlns:xlink="http://www.w3.org/1999/xlink" version="1.1" x="0" y="0" height="230" width="800" viewBox="0 0 800 230" preserveAspectRatio="none"  >
<g label="Query sequence" class="clusterblast-cluster"  >
<text x="5" y="20" class="clusterblast-acc"  >
Query sequence</text>
<line x1="10" y1="35" x2="778.0" y2="35" style="stroke-width:1; stroke:grey; "  />
<polygon points="0,40 32,40 37,35 32,30 0,30 0,40 " style="fill:#d81515; stroke-width:1; stroke:black; " description="&lt;b&gt;MFKKBJ_08925&lt;/b&gt;&lt;br&gt;phage tail protein&lt;br&gt;Location: 1859194 - 1862656" locus_tag="MFKKBJ_08925" class="clusterblast-orf" id="dummy-3_q0_0_all"  />
<polygon points="40,40 42,40 47,35 42,30 40,30 40,40 " style="fill:#5cd815; stroke-width:1; stroke:black; " description="&lt;b&gt;MFKKBJ_08930&lt;/b&gt;&lt;br&gt;Phage tail protein&lt;br&gt;Location: 1863002 - 1863632" locus_tag="MFKKBJ_08930" class="clusterblast-orf" id="dummy-3_q1_0_all"  />
<polygon points="48,40 51,40 56,35 51,30 48,30 48,40 " style="fill:#15c7d8; stroke-width:1; stroke:black; " description="&lt;b&gt;MFKKBJ_08935&lt;/b&gt;&lt;br&gt;Phage tail protein&lt;br&gt;Location: 1863690 - 1864458" locus_tag="MFKKBJ_08935" class="clusterblast-orf" id="dummy-3_q2_0_all"  />
<polygon points="59,40 62,35 59,30 59,40 " style="fill:white; stroke-width:1; stroke:black; " description="&lt;b&gt;MFKKBJ_08940&lt;/b&gt;&lt;br&gt;Phage tail protein&lt;br&gt;Location: 1864744 - 1864996" locus_tag="MFKKBJ_08940" class="clusterblast-orf" id="dummy-3_q3_0_all"  />
<polygon points="62,40 63,40 68,35 63,30 62,30 62,40 " style="fill:#8015d8; stroke-width:1; stroke:black; " description="&lt;b&gt;MFKKBJ_08945&lt;/b&gt;&lt;br&gt;Chitinase&lt;br&gt;Location: 1865051 - 1865585" locus_tag="MFKKBJ_08945" class="clusterblast-orf" id="dummy-3_q4_0_all"  />
<polygon points="68,40 69,40 74,35 69,30 68,30 68,40 " style="fill:#d83915; stroke-width:1; stroke:black; " description="&lt;b&gt;MFKKBJ_08950&lt;/b&gt;&lt;br&gt;Lysozyme&lt;br&gt;Location: 1865581 - 1866151" locus_tag="MFKKBJ_08950" class="clusterblast-orf" id="dummy-3_q5_0_all"  />
<polygon points="73,35 76,30 76,40 73,35 " style="fill:white; stroke-width:1; stroke:black; " description="&lt;b&gt;MFKKBJ_08955&lt;/b&gt;&lt;br&gt;NIPSNAP domain-containing protein&lt;br&gt;Location: 1866110 - 1866374" locus_tag="MFKKBJ_08955" class="clusterblast-orf" id="dummy-3_q6_0_all"  />
<polygon points="77,35 81,30 81,40 77,35 " style="fill:#39d815; stroke-width:1; stroke:black; " description="&lt;b&gt;MFKKBJ_08960&lt;/b&gt;&lt;br&gt;Lipoprotein&lt;br&gt;Location: 1866461 - 1866842" locus_tag="MFKKBJ_08960" class="clusterblast-orf" id="dummy-3_q7_0_all"  />
<polygon points="86,40 91,40 96,35 91,30 86,30 86,40 " style="fill:#15a3d8; stroke-width:1; stroke:black; " description="&lt;b&gt;MFKKBJ_08970&lt;/b&gt;&lt;br&gt;LysR family transcriptional regulator&lt;br&gt;Location: 1867291 - 1868194" locus_tag="MFKKBJ_08970" class="clusterblast-orf" id="dummy-3_q8_0_all"  />
<polygon points="96,35 101,30 106,30 106,40 101,40 96,35 " style="fill:#a315d8; stroke-width:1; stroke:black; " description="&lt;b&gt;MFKKBJ_08975&lt;/b&gt;&lt;br&gt;Cupin&lt;br&gt;Location: 1868231 - 1869173" locus_tag="MFKKBJ_08975" class="clusterblast-orf" id="dummy-3_q9_0_all"  />
<polygon points="108,35 111,30 111,40 108,35 " style="fill:#d85c15; stroke-width:1; stroke:black; " description="&lt;b&gt;MFKKBJ_08980&lt;/b&gt;&lt;br&gt;hypothetical protein&lt;br&gt;Location: 1869374 - 1869653" locus_tag="MFKKBJ_08980" class="clusterblast-orf" id="dummy-3_q10_0_all"  />
<polygon points="113,35 118,30 136,30 136,40 118,40 113,35 " style="fill:#15d815; stroke-width:1; stroke:black; " description="&lt;b&gt;MFKKBJ_08985&lt;/b&gt;&lt;br&gt;Ferric siderophore receptor&lt;br&gt;Location: 1869847 - 1872019" locus_tag="MFKKBJ_08985" class="clusterblast-orf" id="dummy-3_q11_0_all"  />
<polygon points="138,35 143,30 148,30 148,40 143,40 138,35 " style="fill:#1580d8; stroke-width:1; stroke:black; " description="&lt;b&gt;MFKKBJ_08990&lt;/b&gt;&lt;br&gt;Acyltransferase MbtK/IucB-like conserved domain-containing protein&lt;br&gt;Location: 1872117 - 1873137" locus_tag="MFKKBJ_08990" class="clusterblast-orf" id="dummy-3_q12_0_all"  />
<polygon points="150,35 155,30 171,30 171,40 155,40 150,35 " style="fill:#c715d8; stroke-width:1; stroke:black; " description="&lt;b&gt;MFKKBJ_08995&lt;/b&gt;&lt;br&gt;Fe(3+)-hydroxamate ABC transporter permease FhuB&lt;br&gt;Location: 1873296 - 1875285" locus_tag="MFKKBJ_08995" class="clusterblast-orf" id="dummy-3_q13_0_all"  />
<polygon points="171,35 176,30 181,30 181,40 176,40 171,35 " style="fill:#d88015; stroke-width:1; stroke:black; " description="&lt;b&gt;MFKKBJ_09000&lt;/b&gt;&lt;br&gt;Periplasmic binding protein&lt;br&gt;Location: 1875277 - 1876189" locus_tag="MFKKBJ_09000" class="clusterblast-orf" id="dummy-3_q14_0_all"  />
<polygon points="183,40 196,40 201,35 196,30 183,30 183,40 " style="fill:#15d839; stroke-width:1; stroke:black; " description="&lt;b&gt;MFKKBJ_09005&lt;/b&gt;&lt;br&gt;Putative ATP-binding cassette transporter&lt;br&gt;Location: 1876388 - 1878035" locus_tag="MFKKBJ_09005" class="clusterblast-orf" id="dummy-3_q15_0_all"  />
<polygon points="203,40 205,40 210,35 205,30 203,30 203,40 " style="fill:#155cd8; stroke-width:1; stroke:black; " description="&lt;b&gt;MFKKBJ_09010&lt;/b&gt;&lt;br&gt;Thioesterase&lt;br&gt;Location: 1878209 - 1878953" locus_tag="MFKKBJ_09010" class="clusterblast-orf" id="dummy-3_q16_0_all"  />
<polygon points="211,40 216,40 221,35 216,30 211,30 211,40 " style="fill:#d815c7; stroke-width:1; stroke:black; " description="&lt;b&gt;MFKKBJ_09015&lt;/b&gt;&lt;br&gt;TauD/TfdA-like domain-containing protein&lt;br&gt;Location: 1878992 - 1879973" locus_tag="MFKKBJ_09015" class="clusterblast-orf" id="dummy-3_q17_0_all"  />
<polygon points="222,40 265,40 270,35 265,30 222,30 222,40 " style="fill:#d815c7; stroke-width:1; stroke:black; " description="&lt;b&gt;MFKKBJ_09020&lt;/b&gt;&lt;br&gt;Non ribosomal peptide synthase&lt;br&gt;Location: 1880023 - 1884487" locus_tag="MFKKBJ_09020" class="clusterblast-orf" id="dummy-3_q18_0_all"  />
<polygon points="270,40 298,40 303,35 298,30 270,30 270,40 " style="fill:#d815c7; stroke-width:1; stroke:black; " description="&lt;b&gt;MFKKBJ_09025&lt;/b&gt;&lt;br&gt;Amino acid adenylation&lt;br&gt;Location: 1884498 - 1887645" locus_tag="MFKKBJ_09025" class="clusterblast-orf" id="dummy-3_q19_0_all"  />
<polygon points="304,40 381,40 386,35 381,30 304,30 304,40 " style="fill:#d815c7; stroke-width:1; stroke:black; " description="&lt;b&gt;MFKKBJ_09030&lt;/b&gt;&lt;br&gt;Carrier domain-containing protein&lt;br&gt;Location: 1887693 - 1895427" locus_tag="MFKKBJ_09030" class="clusterblast-orf" id="dummy-3_q20_0_all"  />
<polygon points="386,40 513,40 518,35 513,30 386,30 386,40 " style="fill:#d815c7; stroke-width:1; stroke:black; " description="&lt;b&gt;MFKKBJ_09035&lt;/b&gt;&lt;br&gt;non-ribosomal peptide synthetase&lt;br&gt;Location: 1895423 - 1907741" locus_tag="MFKKBJ_09035" class="clusterblast-orf" id="dummy-3_q21_0_all"  />
<polygon points="518,40 556,40 561,35 556,30 518,30 518,40 " style="fill:#d815c7; stroke-width:1; stroke:black; " description="&lt;b&gt;MFKKBJ_09040&lt;/b&gt;&lt;br&gt;Non-ribosomal peptide synthetase&lt;br&gt;Location: 1907742 - 1911801" locus_tag="MFKKBJ_09040" class="clusterblast-orf" id="dummy-3_q22_0_all"  />
<polygon points="562,40 571,40 576,35 571,30 562,30 562,40 " style="fill:#d8a315; stroke-width:1; stroke:black; " description="&lt;b&gt;MFKKBJ_09045&lt;/b&gt;&lt;br&gt;L-ornithine 5-monooxygenase&lt;br&gt;Location: 1911873 - 1913229" locus_tag="MFKKBJ_09045" class="clusterblast-orf" id="dummy-3_q23_0_all"  />
<polygon points="577,40 580,40 585,35 580,30 577,30 577,40 " style="fill:#15d85c; stroke-width:1; stroke:black; " description="&lt;b&gt;MFKKBJ_09050&lt;/b&gt;&lt;br&gt;siderophore-iron reductase FhuF&lt;br&gt;Location: 1913320 - 1914076" locus_tag="MFKKBJ_09050" class="clusterblast-orf" id="dummy-3_q24_0_all"  />
<polygon points="586,35 591,30 594,30 594,40 591,40 586,35 " style="fill:#1539d8; stroke-width:1; stroke:black; " description="&lt;b&gt;MFKKBJ_09055&lt;/b&gt;&lt;br&gt;Iron-hydroxamate transporter ATP-binding subunit&lt;br&gt;Location: 1914116 - 1914884" locus_tag="MFKKBJ_09055" class="clusterblast-orf" id="dummy-3_q25_0_all"  />
<polygon points="601,40 603,40 608,35 603,30 601,30 601,40 " style="fill:#d815a3; stroke-width:1; stroke:black; " description="&lt;b&gt;MFKKBJ_09060&lt;/b&gt;&lt;br&gt;Lipoprotein&lt;br&gt;Location: 1915514 - 1916213" locus_tag="MFKKBJ_09060" class="clusterblast-orf" id="dummy-3_q26_0_all"  />
<polygon points="609,40 612,35 609,30 609,40 " style="fill:#d8c715; stroke-width:1; stroke:black; " description="&lt;b&gt;MFKKBJ_09065&lt;/b&gt;&lt;br&gt;EAL domain-containing protein&lt;br&gt;Location: 1916338 - 1916617" locus_tag="MFKKBJ_09065" class="clusterblast-orf" id="dummy-3_q27_0_all"  />
<polygon points="613,40 622,40 627,35 622,30 613,30 613,40 " style="fill:#15d880; stroke-width:1; stroke:black; " description="&lt;b&gt;MFKKBJ_09070&lt;/b&gt;&lt;br&gt;Methyl-accepting chemotaxis protein (2 PAS,MCP domains)&lt;br&gt;Location: 1916701 - 1918015" locus_tag="MFKKBJ_09070" class="clusterblast-orf" id="dummy-3_q28_0_all"  />
<polygon points="630,40 647,40 652,35 647,30 630,30 630,40 " style="fill:#1515d8; stroke-width:1; stroke:black; " description="&lt;b&gt;MFKKBJ_09075&lt;/b&gt;&lt;br&gt;Outer membrane siderophore receptor&lt;br&gt;Location: 1918237 - 1920352" locus_tag="MFKKBJ_09075" class="clusterblast-orf" id="dummy-3_q29_0_all"  />
<polygon points="652,35 657,30 672,30 672,40 657,40 652,35 " style="fill:#d81580; stroke-width:1; stroke:black; " description="&lt;b&gt;MFKKBJ_09080&lt;/b&gt;&lt;br&gt;Sigma-54 factor interaction domain-containing protein&lt;br&gt;Location: 1920361 - 1922179" locus_tag="MFKKBJ_09080" class="clusterblast-orf" id="dummy-3_q30_0_all"  />
<polygon points="675,40 681,40 686,35 681,30 675,30 675,40 " style="fill:#c7d815; stroke-width:1; stroke:black; " description="&lt;b&gt;MFKKBJ_09085&lt;/b&gt;&lt;br&gt;sn-glycerol-3-phosphate import ATP-binding protein UgpC&lt;br&gt;Location: 1922470 - 1923565" locus_tag="MFKKBJ_09085" class="clusterblast-orf" id="dummy-3_q31_0_all"  />
<polygon points="686,40 693,40 698,35 693,30 686,30 686,40 " style="fill:#15d8a3; stroke-width:1; stroke:black; " description="&lt;b&gt;MFKKBJ_09090&lt;/b&gt;&lt;br&gt;ABC transporter ATP-binding protein&lt;br&gt;Location: 1923564 - 1924662" locus_tag="MFKKBJ_09090" class="clusterblast-orf" id="dummy-3_q32_0_all"  />
<polygon points="698,40 702,40 707,35 702,30 698,30 698,40 " style="fill:#3915d8; stroke-width:1; stroke:black; " description="&lt;b&gt;MFKKBJ_09095&lt;/b&gt;&lt;br&gt;ABC-type sugar transport system, permease component&lt;br&gt;Location: 1924658 - 1925525" locus_tag="MFKKBJ_09095" class="clusterblast-orf" id="dummy-3_q33_0_all"  />
<polygon points="708,40 711,40 716,35 711,30 708,30 708,40 " style="fill:#d8155c; stroke-width:1; stroke:black; " description="&lt;b&gt;MFKKBJ_09100&lt;/b&gt;&lt;br&gt;ABC-type glycerol-3-phosphate transport system, permease component&lt;br&gt;Location: 1925535 - 1926336" locus_tag="MFKKBJ_09100" class="clusterblast-orf" id="dummy-3_q34_0_all"  />
<polygon points="716,40 719,35 716,30 716,40 " style="fill:#a3d815; stroke-width:1; stroke:black; " description="&lt;b&gt;MFKKBJ_09105&lt;/b&gt;&lt;br&gt;Small integral membrane protein&lt;br&gt;Location: 1926346 - 1926619" locus_tag="MFKKBJ_09105" class="clusterblast-orf" id="dummy-3_q35_0_all"  />
<polygon points="719,40 733,40 738,35 733,30 719,30 719,40 " style="fill:#15d8c7; stroke-width:1; stroke:black; " description="&lt;b&gt;MFKKBJ_09110&lt;/b&gt;&lt;br&gt;ABC transporter substrate-binding protein&lt;br&gt;Location: 1926651 - 1928394" locus_tag="MFKKBJ_09110" class="clusterblast-orf" id="dummy-3_q36_0_all"  />
<polygon points="743,40 752,40 757,35 752,30 743,30 743,40 " style="fill:#5c15d8; stroke-width:1; stroke:black; " description="&lt;b&gt;MFKKBJ_09115&lt;/b&gt;&lt;br&gt;Iron-containing redox enzyme family protein&lt;br&gt;Location: 1928831 - 1930211" locus_tag="MFKKBJ_09115" class="clusterblast-orf" id="dummy-3_q37_0_all"  />
<polygon points="758,40 763,40 768,35 763,30 758,30 758,40 " style="fill:#d81539; stroke-width:1; stroke:black; " description="&lt;b&gt;MFKKBJ_09120&lt;/b&gt;&lt;br&gt;Release factor glutamine methyltransferase&lt;br&gt;Location: 1930221 - 1931166" locus_tag="MFKKBJ_09120" class="clusterblast-orf" id="dummy-3_q38_0_all"  />
<polygon points="768,40 775,40 780,35 775,30 768,30 768,40 " style="fill:#80d815; stroke-width:1; stroke:black; " description="&lt;b&gt;MFKKBJ_09125&lt;/b&gt;&lt;br&gt;carboxylate-amine ligase&lt;br&gt;Location: 1931172 - 1932291" locus_tag="MFKKBJ_09125" class="clusterblast-orf" id="dummy-3_q39_0_all"  />
</g>
<g label="NZ_MSDJ01000015" description="NZ_MSDJ01000015 (32838-105646): Pseudomonas fluorescens strain G2Y PF G2Y con... (75% of genes show similarity), NRP-metallophore,NRPS" class="clusterblast-cluster"  >
<text x="5" y="70" class="clusterblast-acc"  >
<a xlink:href="https://antismash-db.secondarymetabolites.org/area?record=NZ_MSDJ01000015&amp;start=32838&amp;end=105646" target="_blank">NZ_MSDJ01000015 (32838-105646)</a>: Pseudomonas fluorescens strain G2Y PF G2Y con... (75% of genes show similarity), NRP-metallophore,NRPS</text>
<line x1="10" y1="85" x2="778.0" y2="85" style="stroke-width:1; stroke:grey; "  />
</g>
<g id="a3_000"  >
<polygon points="5,90 6,85 5,80 5,90 " style="fill:white; stroke-width:1; stroke:black; " description="&lt;b&gt;BFW92_RS29210&lt;/b&gt;&lt;br&gt;DUF1799 domain-containing protein&lt;br&gt;Location: 105233 - 105126" locus_tag="BFW92_RS29210" class="clusterblast-orf" id="dummy-3_h3_2_0"  />
</g>
<g id="a3_001"  >
<polygon points="6,90 18,90 23,85 18,80 6,80 6,90 " style="fill:white; stroke-width:1; stroke:black; " description="&lt;b&gt;BFW92_RS16335&lt;/b&gt;&lt;br&gt;phage tail tape measure protein&lt;br&gt;Location: 105119 - 103587" locus_tag="BFW92_RS16335" class="clusterblast-orf" id="dummy-3_h3_2_1"  />
</g>
<g id="a3_002"  >
<polygon points="23,90 25,85 23,80 23,90 " style="fill:white; stroke-width:1; stroke:black; " description="&lt;b&gt;BFW92_RS29205&lt;/b&gt;&lt;br&gt;phage tail protein&lt;br&gt;Location: 103587 - 103393" locus_tag="BFW92_RS29205" class="clusterblast-orf" id="dummy-3_h3_2_2"  />
</g>
<g id="a3_003"  >
<polygon points="26,85 29,80 29,90 26,85 " style="fill:white; stroke-width:1; stroke:black; " description="&lt;b&gt;BFW92_RS16325&lt;/b&gt;&lt;br&gt;hypothetical protein&lt;br&gt;Location: 103270 - 103010" locus_tag="BFW92_RS16325" class="clusterblast-orf" id="dummy-3_h3_2_3"  />
</g>
<g id="a3_004"  >
<polygon points="30,85 32,80 32,90 30,85 " style="fill:white; stroke-width:1; stroke:black; " description="&lt;b&gt;BFW92_RS16320&lt;/b&gt;&lt;br&gt;hypothetical protein&lt;br&gt;Location: 102931 - 102683" locus_tag="BFW92_RS16320" class="clusterblast-orf" id="dummy-3_h3_2_4"  />
</g>
<g id="a3_005"  >
<polygon points="35,90 39,85 35,80 35,90 " style="fill:white; stroke-width:1; stroke:black; " description="&lt;b&gt;BFW92_RS16315&lt;/b&gt;&lt;br&gt;hypothetical protein&lt;br&gt;Location: 102434 - 102009" locus_tag="BFW92_RS16315" class="clusterblast-orf" id="dummy-3_h3_2_5"  />
</g>
<g id="a3_006"  >
<polygon points="41,90 45,85 41,80 41,90 " style="fill:white; stroke-width:1; stroke:black; " description="&lt;b&gt;BFW92_RS16310&lt;/b&gt;&lt;br&gt;hypothetical protein&lt;br&gt;Location: 101874 - 101452" locus_tag="BFW92_RS16310" class="clusterblast-orf" id="dummy-3_h3_2_6"  />
</g>
<g id="a3_007"  >
<polygon points="46,90 47,90 52,85 47,80 46,80 46,90 " style="fill:white; stroke-width:1; stroke:black; " description="&lt;b&gt;BFW92_RS16305&lt;/b&gt;&lt;br&gt;tail assembly protein&lt;br&gt;Location: 101396 - 100803" locus_tag="BFW92_RS16305" class="clusterblast-orf" id="dummy-3_h3_2_7"  />
</g>
<g id="a3_008"  >
<polygon points="57,90 64,90 69,85 64,80 57,80 57,90 " style="fill:#d81515; stroke-width:1; stroke:black; " description="&lt;b&gt;BFW92_RS16300&lt;/b&gt;&lt;br&gt;host specificity protein&lt;br&gt;Location: 100386 - 99235&lt;br&gt;&lt;br&gt;&lt;b&gt;BlastP hit with MFKKBJ_08925&lt;/b&gt;&lt;br&gt;Percentage identity: 99&lt;br&gt;Percentage coverage: 33&lt;br&gt;BLAST bit score: 781&lt;br&gt;E-value: 4.44e-275" locus_tag="BFW92_RS16300" class="clusterblast-orf" id="dummy-3_h3_2_8"  />
</g>
<g id="a3_009"  >
<polygon points="70,90 74,85 70,80 70,90 " style="fill:white; stroke-width:1; stroke:black; " description="&lt;b&gt;BFW92_RS16295&lt;/b&gt;&lt;br&gt;hypothetical protein&lt;br&gt;Location: 99129 - 98743" locus_tag="BFW92_RS16295" class="clusterblast-orf" id="dummy-3_h3_2_9"  />
</g>
<g id="a3_0010"  >
<polygon points="75,90 79,85 75,80 75,90 " style="fill:white; stroke-width:1; stroke:black; " description="&lt;b&gt;BFW92_RS16290&lt;/b&gt;&lt;br&gt;cell wall hydrolase&lt;br&gt;Location: 98686 - 98261" locus_tag="BFW92_RS16290" class="clusterblast-orf" id="dummy-3_h3_2_10"  />
</g>
<g id="a3_0011"  >
<polygon points="79,90 80,90 85,85 80,80 79,80 79,90 " style="fill:#d83915; stroke-width:1; stroke:black; " description="&lt;b&gt;BFW92_RS16285&lt;/b&gt;&lt;br&gt;lysis system i-spanin subunit Rz&lt;br&gt;Location: 98261 - 97746&lt;br&gt;&lt;br&gt;&lt;b&gt;BlastP hit with MFKKBJ_08950&lt;/b&gt;&lt;br&gt;Percentage identity: 82&lt;br&gt;Percentage coverage: 90&lt;br&gt;BLAST bit score: 249&lt;br&gt;E-value: 1.96e-83" locus_tag="BFW92_RS16285" class="clusterblast-orf" id="dummy-3_h3_2_11"  />
</g>
<g id="a3_0012"  >
<polygon points="89,90 94,90 99,85 94,80 89,80 89,90 " style="fill:#15a3d8; stroke-width:1; stroke:black; " description="&lt;b&gt;BFW92_RS16280&lt;/b&gt;&lt;br&gt;LysR family transcriptional regulator&lt;br&gt;Location: 97350 - 96448&lt;br&gt;&lt;br&gt;&lt;b&gt;BlastP hit with MFKKBJ_08970&lt;/b&gt;&lt;br&gt;Percentage identity: 98&lt;br&gt;Percentage coverage: 100&lt;br&gt;BLAST bit score: 586&lt;br&gt;E-value: 7.92e-213" locus_tag="BFW92_RS16280" class="clusterblast-orf" id="dummy-3_h3_2_12"  />
</g>
<g id="a3_0013"  >
<polygon points="99,85 104,80 109,80 109,90 104,90 99,85 " style="fill:#a315d8; stroke-width:1; stroke:black; " description="&lt;b&gt;BFW92_RS16275&lt;/b&gt;&lt;br&gt;cupin&lt;br&gt;Location: 96410 - 95469&lt;br&gt;&lt;br&gt;&lt;b&gt;BlastP hit with MFKKBJ_08975&lt;/b&gt;&lt;br&gt;Percentage identity: 100&lt;br&gt;Percentage coverage: 100&lt;br&gt;BLAST bit score: 645&lt;br&gt;E-value: 7.25e-236" locus_tag="BFW92_RS16275" class="clusterblast-orf" id="dummy-3_h3_2_13"  />
</g>
<g id="a3_0014"  >
<polygon points="111,85 114,80 114,90 111,85 " style="fill:#d85c15; stroke-width:1; stroke:black; " description="&lt;b&gt;BFW92_RS28710&lt;/b&gt;&lt;br&gt;hypothetical protein&lt;br&gt;Location: 95267 - 94989&lt;br&gt;&lt;br&gt;&lt;b&gt;BlastP hit with MFKKBJ_08980&lt;/b&gt;&lt;br&gt;Percentage identity: 97&lt;br&gt;Percentage coverage: 100&lt;br&gt;BLAST bit score: 174&lt;br&gt;E-value: 2.27e-56" locus_tag="BFW92_RS28710" class="clusterblast-orf" id="dummy-3_h3_2_14"  />
</g>
<g id="a3_0015"  >
<polygon points="116,85 121,80 140,80 140,90 121,90 116,85 " style="fill:#15d815; stroke-width:1; stroke:black; " description="&lt;b&gt;BFW92_RS16270&lt;/b&gt;&lt;br&gt;TonB-dependent siderophore receptor&lt;br&gt;Location: 94794 - 92623&lt;br&gt;&lt;br&gt;&lt;b&gt;BlastP hit with MFKKBJ_08985&lt;/b&gt;&lt;br&gt;Percentage identity: 100&lt;br&gt;Percentage coverage: 100&lt;br&gt;BLAST bit score: 1449&lt;br&gt;E-value: 0.0" locus_tag="BFW92_RS16270" class="clusterblast-orf" id="dummy-3_h3_2_15"  />
</g>
<g id="a3_0016"  >
<polygon points="141,85 146,80 152,80 152,90 146,90 141,85 " style="fill:#1580d8; stroke-width:1; stroke:black; " description="&lt;b&gt;BFW92_RS16265&lt;/b&gt;&lt;br&gt;acetyltransferase&lt;br&gt;Location: 92523 - 91504&lt;br&gt;&lt;br&gt;&lt;b&gt;BlastP hit with MFKKBJ_08990&lt;/b&gt;&lt;br&gt;Percentage identity: 99&lt;br&gt;Percentage coverage: 100&lt;br&gt;BLAST bit score: 705&lt;br&gt;E-value: 1.83e-258" locus_tag="BFW92_RS16265" class="clusterblast-orf" id="dummy-3_h3_2_16"  />
</g>
<g id="a3_0017"  >
<polygon points="153,85 158,80 174,80 174,90 158,90 153,85 " style="fill:#c715d8; stroke-width:1; stroke:black; " description="&lt;b&gt;BFW92_RS16260&lt;/b&gt;&lt;br&gt;Fe(3+)-hydroxamate ABC transporter permease FhuB&lt;br&gt;Location: 91344 - 89356&lt;br&gt;&lt;br&gt;&lt;b&gt;BlastP hit with MFKKBJ_08995&lt;/b&gt;&lt;br&gt;Percentage identity: 99&lt;br&gt;Percentage coverage: 100&lt;br&gt;BLAST bit score: 1175&lt;br&gt;E-value: 0.0" locus_tag="BFW92_RS16260" class="clusterblast-orf" id="dummy-3_h3_2_17"  />
</g>
<g id="a3_0018"  >
<polygon points="174,85 179,80 184,80 184,90 179,90 174,85 " style="fill:#d88015; stroke-width:1; stroke:black; " description="&lt;b&gt;BFW92_RS16255&lt;/b&gt;&lt;br&gt;ABC transporter substrate-binding protein&lt;br&gt;Location: 89363 - 88452&lt;br&gt;&lt;br&gt;&lt;b&gt;BlastP hit with MFKKBJ_09000&lt;/b&gt;&lt;br&gt;Percentage identity: 99&lt;br&gt;Percentage coverage: 100&lt;br&gt;BLAST bit score: 584&lt;br&gt;E-value: 8.21e-212" locus_tag="BFW92_RS16255" class="clusterblast-orf" id="dummy-3_h3_2_18"  />
</g>
<g id="a3_0019"  >
<polygon points="186,90 199,90 204,85 199,80 186,80 186,90 " style="fill:#15d839; stroke-width:1; stroke:black; " description="&lt;b&gt;BFW92_RS16250&lt;/b&gt;&lt;br&gt;cyclic peptide export ABC transporter&lt;br&gt;Location: 88252 - 86606&lt;br&gt;&lt;br&gt;&lt;b&gt;BlastP hit with MFKKBJ_09005&lt;/b&gt;&lt;br&gt;Percentage identity: 100&lt;br&gt;Percentage coverage: 100&lt;br&gt;BLAST bit score: 1036&lt;br&gt;E-value: 0.0" locus_tag="BFW92_RS16250" class="clusterblast-orf" id="dummy-3_h3_2_19"  />
</g>
<g id="a3_0020"  >
<polygon points="206,90 209,90 214,85 209,80 206,80 206,90 " style="fill:#155cd8; stroke-width:1; stroke:black; " description="&lt;b&gt;BFW92_RS16245&lt;/b&gt;&lt;br&gt;alpha/beta fold hydrolase&lt;br&gt;Location: 86429 - 85686&lt;br&gt;&lt;br&gt;&lt;b&gt;BlastP hit with MFKKBJ_09010&lt;/b&gt;&lt;br&gt;Percentage identity: 98&lt;br&gt;Percentage coverage: 100&lt;br&gt;BLAST bit score: 476&lt;br&gt;E-value: 5.23e-171" locus_tag="BFW92_RS16245" class="clusterblast-orf" id="dummy-3_h3_2_20"  />
</g>
<g id="a3_0021"  >
<polygon points="214,90 220,90 225,85 220,80 214,80 214,90 " style="fill:#d815c7; stroke-width:1; stroke:black; " description="&lt;b&gt;BFW92_RS16240&lt;/b&gt;&lt;br&gt;TauD/TfdA family dioxygenase&lt;br&gt;Location: 85646 - 84666&lt;br&gt;&lt;br&gt;&lt;b&gt;BlastP hit with MFKKBJ_09015&lt;/b&gt;&lt;br&gt;Percentage identity: 99&lt;br&gt;Percentage coverage: 100&lt;br&gt;BLAST bit score: 663&lt;br&gt;E-value: 1.94e-242" locus_tag="BFW92_RS16240" class="clusterblast-orf" id="dummy-3_h3_2_21"  />
</g>
<g id="a3_0022"  >
<polygon points="225,90 268,90 273,85 268,80 225,80 225,90 " style="fill:#d815c7; stroke-width:1; stroke:black; " description="&lt;b&gt;BFW92_RS16235&lt;/b&gt;&lt;br&gt;AMP-binding protein&lt;br&gt;Location: 84616 - 80153&lt;br&gt;&lt;br&gt;&lt;b&gt;BlastP hit with MFKKBJ_09015&lt;/b&gt;&lt;br&gt;Percentage identity: 45&lt;br&gt;Percentage coverage: 94&lt;br&gt;BLAST bit score: 267&lt;br&gt;E-value: 9.48e-79&lt;br&gt;&lt;br&gt;&lt;b&gt;BlastP hit with MFKKBJ_09020&lt;/b&gt;&lt;br&gt;Percentage identity: 99&lt;br&gt;Percentage coverage: 100&lt;br&gt;BLAST bit score: 2936&lt;br&gt;E-value: 0.0" locus_tag="BFW92_RS16235" class="clusterblast-orf" id="dummy-3_h3_2_22"  />
</g>
<g id="a3_0023"  >
<polygon points="273,90 301,90 306,85 301,80 273,80 273,90 " style="fill:#d815c7; stroke-width:1; stroke:black; " description="&lt;b&gt;BFW92_RS16230&lt;/b&gt;&lt;br&gt;non-ribosomal peptide synthetase&lt;br&gt;Location: 80141 - 76995&lt;br&gt;&lt;br&gt;&lt;b&gt;BlastP hit with MFKKBJ_09025&lt;/b&gt;&lt;br&gt;Percentage identity: 98&lt;br&gt;Percentage coverage: 100&lt;br&gt;BLAST bit score: 2013&lt;br&gt;E-value: 0.0" locus_tag="BFW92_RS16230" class="clusterblast-orf" id="dummy-3_h3_2_23"  />
</g>
<g id="a3_0024"  >
<polygon points="307,90 384,90 389,85 384,80 307,80 307,90 " style="fill:#d815c7; stroke-width:1; stroke:black; " description="&lt;b&gt;BFW92_RS16225&lt;/b&gt;&lt;br&gt;non-ribosomal peptide synthetase&lt;br&gt;Location: 76946 - 69213&lt;br&gt;&lt;br&gt;&lt;b&gt;BlastP hit with MFKKBJ_09025&lt;/b&gt;&lt;br&gt;Percentage identity: 33&lt;br&gt;Percentage coverage: 86&lt;br&gt;BLAST bit score: 336&lt;br&gt;E-value: 5.69e-94&lt;br&gt;&lt;br&gt;&lt;b&gt;BlastP hit with MFKKBJ_09030&lt;/b&gt;&lt;br&gt;Percentage identity: 98&lt;br&gt;Percentage coverage: 100&lt;br&gt;BLAST bit score: 5058&lt;br&gt;E-value: 0.0&lt;br&gt;&lt;br&gt;&lt;b&gt;BlastP hit with MFKKBJ_09035&lt;/b&gt;&lt;br&gt;Percentage identity: 43&lt;br&gt;Percentage coverage: 99&lt;br&gt;BLAST bit score: 2633&lt;br&gt;E-value: 0.0" locus_tag="BFW92_RS16225" class="clusterblast-orf" id="dummy-3_h3_2_24"  />
</g>
<g id="a3_0025"  >
<polygon points="389,90 516,90 521,85 516,80 389,80 389,90 " style="fill:#d815c7; stroke-width:1; stroke:black; " description="&lt;b&gt;BFW92_RS16220&lt;/b&gt;&lt;br&gt;non-ribosomal peptide synthetase&lt;br&gt;Location: 69216 - 56899&lt;br&gt;&lt;br&gt;&lt;b&gt;BlastP hit with MFKKBJ_09025&lt;/b&gt;&lt;br&gt;Percentage identity: 33&lt;br&gt;Percentage coverage: 93&lt;br&gt;BLAST bit score: 341&lt;br&gt;E-value: 1.1e-95&lt;br&gt;&lt;br&gt;&lt;b&gt;BlastP hit with MFKKBJ_09030&lt;/b&gt;&lt;br&gt;Percentage identity: 42&lt;br&gt;Percentage coverage: 158&lt;br&gt;BLAST bit score: 2633&lt;br&gt;E-value: 0.0&lt;br&gt;&lt;br&gt;&lt;b&gt;BlastP hit with MFKKBJ_09035&lt;/b&gt;&lt;br&gt;Percentage identity: 99&lt;br&gt;Percentage coverage: 100&lt;br&gt;BLAST bit score: 7955&lt;br&gt;E-value: 0.0&lt;br&gt;&lt;br&gt;&lt;b&gt;BlastP hit with MFKKBJ_09040&lt;/b&gt;&lt;br&gt;Percentage identity: 38&lt;br&gt;Percentage coverage: 81&lt;br&gt;BLAST bit score: 565&lt;br&gt;E-value: 4.35e-168" locus_tag="BFW92_RS16220" class="clusterblast-orf" id="dummy-3_h3_2_25"  />
</g>
<g id="a3_0026"  >
<polygon points="521,90 559,90 564,85 559,80 521,80 521,90 " style="fill:#d815c7; stroke-width:1; stroke:black; " description="&lt;b&gt;BFW92_RS16215&lt;/b&gt;&lt;br&gt;non-ribosomal peptide synthetase&lt;br&gt;Location: 56897 - 52839&lt;br&gt;&lt;br&gt;&lt;b&gt;BlastP hit with MFKKBJ_09025&lt;/b&gt;&lt;br&gt;Percentage identity: 34&lt;br&gt;Percentage coverage: 87&lt;br&gt;BLAST bit score: 319&lt;br&gt;E-value: 2.51e-89&lt;br&gt;&lt;br&gt;&lt;b&gt;BlastP hit with MFKKBJ_09040&lt;/b&gt;&lt;br&gt;Percentage identity: 98&lt;br&gt;Percentage coverage: 100&lt;br&gt;BLAST bit score: 2607&lt;br&gt;E-value: 0.0" locus_tag="BFW92_RS16215" class="clusterblast-orf" id="dummy-3_h3_2_26"  />
</g>
<g id="a3_0027"  >
<polygon points="567,90 570,90 575,85 570,80 567,80 567,90 " style="fill:#15d85c; stroke-width:1; stroke:black; " description="&lt;b&gt;BFW92_RS16210&lt;/b&gt;&lt;br&gt;siderophore-iron reductase FhuF&lt;br&gt;Location: 52615 - 51860&lt;br&gt;&lt;br&gt;&lt;b&gt;BlastP hit with MFKKBJ_09050&lt;/b&gt;&lt;br&gt;Percentage identity: 96&lt;br&gt;Percentage coverage: 100&lt;br&gt;BLAST bit score: 495&lt;br&gt;E-value: 2.41e-178" locus_tag="BFW92_RS16210" class="clusterblast-orf" id="dummy-3_h3_2_27"  />
</g>
<g id="a3_0028"  >
<polygon points="575,85 580,80 583,80 583,90 580,90 575,85 " style="fill:#1539d8; stroke-width:1; stroke:black; " description="&lt;b&gt;BFW92_RS16205&lt;/b&gt;&lt;br&gt;ATP-binding cassette domain-containing protein&lt;br&gt;Location: 51819 - 51052&lt;br&gt;&lt;br&gt;&lt;b&gt;BlastP hit with MFKKBJ_09055&lt;/b&gt;&lt;br&gt;Percentage identity: 100&lt;br&gt;Percentage coverage: 100&lt;br&gt;BLAST bit score: 503&lt;br&gt;E-value: 2.06e-181" locus_tag="BFW92_RS16205" class="clusterblast-orf" id="dummy-3_h3_2_28"  />
</g>
<g id="a3_0029"  >
<polygon points="589,90 592,90 597,85 592,80 589,80 589,90 " style="fill:#d815a3; stroke-width:1; stroke:black; " description="&lt;b&gt;BFW92_RS16200&lt;/b&gt;&lt;br&gt;hypothetical protein&lt;br&gt;Location: 50481 - 49732&lt;br&gt;&lt;br&gt;&lt;b&gt;BlastP hit with MFKKBJ_09060&lt;/b&gt;&lt;br&gt;Percentage identity: 98&lt;br&gt;Percentage coverage: 100&lt;br&gt;BLAST bit score: 444&lt;br&gt;E-value: 1.38e-158" locus_tag="BFW92_RS16200" class="clusterblast-orf" id="dummy-3_h3_2_29"  />
</g>
<g id="a3_0030"  >
<polygon points="598,90 601,85 598,80 598,90 " style="fill:#d8c715; stroke-width:1; stroke:black; " description="&lt;b&gt;BFW92_RS16195&lt;/b&gt;&lt;br&gt;hypothetical protein&lt;br&gt;Location: 49619 - 49341&lt;br&gt;&lt;br&gt;&lt;b&gt;BlastP hit with MFKKBJ_09065&lt;/b&gt;&lt;br&gt;Percentage identity: 99&lt;br&gt;Percentage coverage: 100&lt;br&gt;BLAST bit score: 183&lt;br&gt;E-value: 3.48e-60" locus_tag="BFW92_RS16195" class="clusterblast-orf" id="dummy-3_h3_2_30"  />
</g>
<g id="a3_0031"  >
<polygon points="602,90 611,90 616,85 611,80 602,80 602,90 " style="fill:#15d880; stroke-width:1; stroke:black; " description="&lt;b&gt;BFW92_RS16190&lt;/b&gt;&lt;br&gt;methyl-accepting chemotaxis protein&lt;br&gt;Location: 49256 - 47943&lt;br&gt;&lt;br&gt;&lt;b&gt;BlastP hit with MFKKBJ_09070&lt;/b&gt;&lt;br&gt;Percentage identity: 98&lt;br&gt;Percentage coverage: 100&lt;br&gt;BLAST bit score: 814&lt;br&gt;E-value: 2.84e-298" locus_tag="BFW92_RS16190" class="clusterblast-orf" id="dummy-3_h3_2_31"  />
</g>
<g id="a3_0032"  >
<polygon points="619,90 637,90 642,85 637,80 619,80 619,90 " style="fill:#1515d8; stroke-width:1; stroke:black; " description="&lt;b&gt;BFW92_RS16185&lt;/b&gt;&lt;br&gt;TonB-dependent receptor&lt;br&gt;Location: 47684 - 45567&lt;br&gt;&lt;br&gt;&lt;b&gt;BlastP hit with MFKKBJ_09075&lt;/b&gt;&lt;br&gt;Percentage identity: 96&lt;br&gt;Percentage coverage: 100&lt;br&gt;BLAST bit score: 1365&lt;br&gt;E-value: 0.0" locus_tag="BFW92_RS16185" class="clusterblast-orf" id="dummy-3_h3_2_32"  />
</g>
<g id="a3_0033"  >
<polygon points="642,85 647,80 661,80 661,90 647,90 642,85 " style="fill:#d81580; stroke-width:1; stroke:black; " description="&lt;b&gt;BFW92_RS16180&lt;/b&gt;&lt;br&gt;sigma-54-dependent Fis family transcriptional regulator&lt;br&gt;Location: 45557 - 43740&lt;br&gt;&lt;br&gt;&lt;b&gt;BlastP hit with MFKKBJ_09080&lt;/b&gt;&lt;br&gt;Percentage identity: 99&lt;br&gt;Percentage coverage: 100&lt;br&gt;BLAST bit score: 1174&lt;br&gt;E-value: 0.0" locus_tag="BFW92_RS16180" class="clusterblast-orf" id="dummy-3_h3_2_33"  />
</g>
<g id="a3_0034"  >
<polygon points="665,90 672,90 677,85 672,80 665,80 665,90 " style="fill:#c7d815; stroke-width:1; stroke:black; " description="&lt;b&gt;BFW92_RS16175&lt;/b&gt;&lt;br&gt;ABC transporter ATP-binding protein&lt;br&gt;Location: 43375 - 42281&lt;br&gt;&lt;br&gt;&lt;b&gt;BlastP hit with MFKKBJ_09085&lt;/b&gt;&lt;br&gt;Percentage identity: 99&lt;br&gt;Percentage coverage: 100&lt;br&gt;BLAST bit score: 704&lt;br&gt;E-value: 2.61e-257" locus_tag="BFW92_RS16175" class="clusterblast-orf" id="dummy-3_h3_2_34"  />
</g>
<g id="a3_0035"  >
<polygon points="677,90 683,90 688,85 683,80 677,80 677,90 " style="fill:#15d8a3; stroke-width:1; stroke:black; " description="&lt;b&gt;BFW92_RS16170&lt;/b&gt;&lt;br&gt;ABC transporter ATP-binding protein&lt;br&gt;Location: 42281 - 41184&lt;br&gt;&lt;br&gt;&lt;b&gt;BlastP hit with MFKKBJ_09090&lt;/b&gt;&lt;br&gt;Percentage identity: 99&lt;br&gt;Percentage coverage: 100&lt;br&gt;BLAST bit score: 725&lt;br&gt;E-value: 1.17e-265" locus_tag="BFW92_RS16170" class="clusterblast-orf" id="dummy-3_h3_2_35"  />
</g>
<g id="a3_0036"  >
<polygon points="688,90 693,90 698,85 693,80 688,80 688,90 " style="fill:#3915d8; stroke-width:1; stroke:black; " description="&lt;b&gt;BFW92_RS16165&lt;/b&gt;&lt;br&gt;sugar ABC transporter permease&lt;br&gt;Location: 41187 - 40321&lt;br&gt;&lt;br&gt;&lt;b&gt;BlastP hit with MFKKBJ_09095&lt;/b&gt;&lt;br&gt;Percentage identity: 100&lt;br&gt;Percentage coverage: 100&lt;br&gt;BLAST bit score: 572&lt;br&gt;E-value: 1.36e-207" locus_tag="BFW92_RS16165" class="clusterblast-orf" id="dummy-3_h3_2_36"  />
</g>
<g id="a3_0037"  >
<polygon points="698,90 701,90 706,85 701,80 698,80 698,90 " style="fill:#d8155c; stroke-width:1; stroke:black; " description="&lt;b&gt;BFW92_RS16160&lt;/b&gt;&lt;br&gt;carbohydrate ABC transporter permease&lt;br&gt;Location: 40310 - 39510&lt;br&gt;&lt;br&gt;&lt;b&gt;BlastP hit with MFKKBJ_09100&lt;/b&gt;&lt;br&gt;Percentage identity: 100&lt;br&gt;Percentage coverage: 100&lt;br&gt;BLAST bit score: 525&lt;br&gt;E-value: 6.94e-190" locus_tag="BFW92_RS16160" class="clusterblast-orf" id="dummy-3_h3_2_37"  />
</g>
<g id="a3_0038"  >
<polygon points="706,90 709,85 706,80 706,90 " style="fill:#a3d815; stroke-width:1; stroke:black; " description="&lt;b&gt;BFW92_RS16155&lt;/b&gt;&lt;br&gt;DUF2160 domain-containing protein&lt;br&gt;Location: 39499 - 39227&lt;br&gt;&lt;br&gt;&lt;b&gt;BlastP hit with MFKKBJ_09105&lt;/b&gt;&lt;br&gt;Percentage identity: 99&lt;br&gt;Percentage coverage: 100&lt;br&gt;BLAST bit score: 182&lt;br&gt;E-value: 6.07e-60" locus_tag="BFW92_RS16155" class="clusterblast-orf" id="dummy-3_h3_2_38"  />
</g>
<g id="a3_0039"  >
<polygon points="710,90 723,90 728,85 723,80 710,80 710,90 " style="fill:#15d8c7; stroke-width:1; stroke:black; " description="&lt;b&gt;BFW92_RS16150&lt;/b&gt;&lt;br&gt;ABC transporter substrate-binding protein&lt;br&gt;Location: 39194 - 37452&lt;br&gt;&lt;br&gt;&lt;b&gt;BlastP hit with MFKKBJ_09110&lt;/b&gt;&lt;br&gt;Percentage identity: 100&lt;br&gt;Percentage coverage: 100&lt;br&gt;BLAST bit score: 1189&lt;br&gt;E-value: 0.0" locus_tag="BFW92_RS16150" class="clusterblast-orf" id="dummy-3_h3_2_39"  />
</g>
<g id="a3_0040"  >
<polygon points="734,85 737,80 737,90 734,85 " style="fill:white; stroke-width:1; stroke:black; " description="&lt;b&gt;BFW92_RS28700&lt;/b&gt;&lt;br&gt;hypothetical protein&lt;br&gt;Location: 36908 - 36677" locus_tag="BFW92_RS28700" class="clusterblast-orf" id="dummy-3_h3_2_40"  />
</g>
<g id="a3_0041"  >
<polygon points="737,90 747,90 752,85 747,80 737,80 737,90 " style="fill:#5c15d8; stroke-width:1; stroke:black; " description="&lt;b&gt;BFW92_RS16140&lt;/b&gt;&lt;br&gt;iron-containing redox enzyme family protein&lt;br&gt;Location: 36633 - 35254&lt;br&gt;&lt;br&gt;&lt;b&gt;BlastP hit with MFKKBJ_09115&lt;/b&gt;&lt;br&gt;Percentage identity: 98&lt;br&gt;Percentage coverage: 100&lt;br&gt;BLAST bit score: 925&lt;br&gt;E-value: 0.0" locus_tag="BFW92_RS16140" class="clusterblast-orf" id="dummy-3_h3_2_41"  />
</g>
<g id="a3_0042"  >
<polygon points="752,90 757,90 762,85 757,80 752,80 752,90 " style="fill:#d81539; stroke-width:1; stroke:black; " description="&lt;b&gt;BFW92_RS16135&lt;/b&gt;&lt;br&gt;class I SAM-dependent methyltransferase&lt;br&gt;Location: 35243 - 34299&lt;br&gt;&lt;br&gt;&lt;b&gt;BlastP hit with MFKKBJ_09120&lt;/b&gt;&lt;br&gt;Percentage identity: 99&lt;br&gt;Percentage coverage: 100&lt;br&gt;BLAST bit score: 622&lt;br&gt;E-value: 1.1e-226" locus_tag="BFW92_RS16135" class="clusterblast-orf" id="dummy-3_h3_2_42"  />
</g>
<g id="a3_0043"  >
<polygon points="762,90 769,90 774,85 769,80 762,80 762,90 " style="fill:#80d815; stroke-width:1; stroke:black; " description="&lt;b&gt;BFW92_RS16130&lt;/b&gt;&lt;br&gt;carboxylate-amine ligase&lt;br&gt;Location: 34292 - 33174&lt;br&gt;&lt;br&gt;&lt;b&gt;BlastP hit with MFKKBJ_09125&lt;/b&gt;&lt;br&gt;Percentage identity: 98&lt;br&gt;Percentage coverage: 100&lt;br&gt;BLAST bit score: 734&lt;br&gt;E-value: 4.43e-269" locus_tag="BFW92_RS16130" class="clusterblast-orf" id="dummy-3_h3_2_43"  />
</g>
</svg>
