<svg xmlns="http://www.w3.org/2000/svg" xmlns:xlink="http://www.w3.org/1999/xlink" version="1.1" x="0" y="0" height="50" width="800" viewBox="0 0 800 50" preserveAspectRatio="none"  >
<g label="Query sequence" class="clusterblast-cluster"  >
<text x="5" y="20" class="clusterblast-acc"  >
Query sequence</text>
<line x1="10" y1="35" x2="778.0" y2="35" style="stroke-width:1; stroke:grey; "  />
<polygon points="0,35 5,30 89,30 89,40 5,40 0,35 " style="fill:white; stroke-width:1; stroke:black; " description="&lt;b&gt;MFKKBJ_15470&lt;/b&gt;&lt;br&gt;polyphosphate:AMP phosphotransferase&lt;br&gt;Location: 3375153 - 3376668" locus_tag="MFKKBJ_15470" class="clusterblast-orf" id="knownclusterblast-6_q0_0_all"  />
<polygon points="98,40 210,40 215,35 210,30 98,30 98,40 " style="fill:white; stroke-width:1; stroke:black; " description="&lt;b&gt;MFKKBJ_15475&lt;/b&gt;&lt;br&gt;bifunctional tRNA (5-methylaminomethyl-2-thiouridine)(34)-methyltransferase MnmD/FAD-dependent 5-carboxymethylaminomethyl-2-thiouridine(34) oxidoreductase MnmC&lt;br&gt;Location: 3376822 - 3378808" locus_tag="MFKKBJ_15475" class="clusterblast-orf" id="knownclusterblast-6_q1_0_all"  />
<polygon points="228,40 327,40 332,35 327,30 228,30 228,40 " style="fill:white; stroke-width:1; stroke:black; " description="&lt;b&gt;MFKKBJ_15480&lt;/b&gt;&lt;br&gt;N-acetylglutaminylglutamine amidotransferase&lt;br&gt;Location: 3379033 - 3380806" locus_tag="MFKKBJ_15480" class="clusterblast-orf" id="knownclusterblast-6_q2_0_all"  />
<polygon points="332,40 430,40 435,35 430,30 332,30 332,40 " style="fill:white; stroke-width:1; stroke:black; " description="&lt;b&gt;MFKKBJ_15485&lt;/b&gt;&lt;br&gt;N-acetylglutaminylglutamine synthetase&lt;br&gt;Location: 3380809 - 3382558" locus_tag="MFKKBJ_15485" class="clusterblast-orf" id="knownclusterblast-6_q3_0_all"  />
<polygon points="444,40 509,40 514,35 509,30 444,30 444,40 " style="fill:white; stroke-width:1; stroke:black; " description="&lt;b&gt;MFKKBJ_15490&lt;/b&gt;&lt;br&gt;osmoprotectant NAGGN system M42 family peptidase&lt;br&gt;Location: 3382721 - 3383906" locus_tag="MFKKBJ_15490" class="clusterblast-orf" id="knownclusterblast-6_q4_0_all"  />
<polygon points="517,40 526,40 531,35 526,30 517,30 517,40 " style="fill:white; stroke-width:1; stroke:black; " description="&lt;b&gt;MFKKBJ_15495&lt;/b&gt;&lt;br&gt;UPF0270 protein Pfl01 4103&lt;br&gt;Location: 3383965 - 3384193" locus_tag="MFKKBJ_15495" class="clusterblast-orf" id="knownclusterblast-6_q5_0_all"  />
<polygon points="531,35 536,30 543,30 543,40 536,40 531,35 " style="fill:white; stroke-width:1; stroke:black; " description="&lt;b&gt;MFKKBJ_15500&lt;/b&gt;&lt;br&gt;carbon storage regulator CsrA&lt;br&gt;Location: 3384201 - 3384399" locus_tag="MFKKBJ_15500" class="clusterblast-orf" id="knownclusterblast-6_q6_0_all"  />
<polygon points="550,35 555,30 598,30 598,40 555,40 550,35 " style="fill:white; stroke-width:1; stroke:black; " description="&lt;b&gt;MFKKBJ_15505&lt;/b&gt;&lt;br&gt;SDR family oxidoreductase&lt;br&gt;Location: 3384526 - 3385342" locus_tag="MFKKBJ_15505" class="clusterblast-orf" id="knownclusterblast-6_q7_0_all"  />
<polygon points="617,40 621,40 626,35 621,30 617,30 617,40 " style="fill:white; stroke-width:1; stroke:black; " description="&lt;b&gt;MFKKBJ_15510&lt;/b&gt;&lt;br&gt;DUF3309 domain-containing protein&lt;br&gt;Location: 3385670 - 3385823" locus_tag="MFKKBJ_15510" class="clusterblast-orf" id="knownclusterblast-6_q8_0_all"  />
<polygon points="629,35 634,30 752,30 752,40 634,40 629,35 " style="fill:white; stroke-width:1; stroke:black; " description="&lt;b&gt;MFKKBJ_15515&lt;/b&gt;&lt;br&gt;Phosphoglycerol transferase I&lt;br&gt;Location: 3385874 - 3387962" locus_tag="MFKKBJ_15515" class="clusterblast-orf" id="knownclusterblast-6_q9_0_all"  />
<polygon points="769,35 774,30 780,30 780,40 774,40 769,35 " style="fill:white; stroke-width:1; stroke:black; " description="&lt;b&gt;MFKKBJ_15520&lt;/b&gt;&lt;br&gt;Cardiolipin synthase N-terminal domain-containing protein&lt;br&gt;Location: 3388254 - 3388446" locus_tag="MFKKBJ_15520" class="clusterblast-orf" id="knownclusterblast-6_q10_0_all"  />
</g>
</svg>
