<svg xmlns="http://www.w3.org/2000/svg" xmlns:xlink="http://www.w3.org/1999/xlink" version="1.1" x="0" y="0" height="230" width="800" viewBox="0 0 800 230" preserveAspectRatio="none"  >
<g label="Query sequence" class="clusterblast-cluster"  >
<text x="5" y="20" class="clusterblast-acc"  >
Query sequence</text>
<line x1="10" y1="35" x2="778.0" y2="35" style="stroke-width:1; stroke:grey; "  />
<polygon points="106,40 119,40 124,35 119,30 106,30 106,40 " style="fill:#d81515; stroke-width:1; stroke:black; " description="&lt;b&gt;PLIDEL_16745&lt;/b&gt;&lt;br&gt;hypothetical protein&lt;br&gt;Location: 104 - 542" locus_tag="PLIDEL_16745" class="clusterblast-orf" id="dummy-1_q0_0_all"  />
<polygon points="124,40 148,40 153,35 148,30 124,30 124,40 " style="fill:#33d815; stroke-width:1; stroke:black; " description="&lt;b&gt;PLIDEL_16750&lt;/b&gt;&lt;br&gt;Ubiquinone biosynthesis O-methyltransferase&lt;br&gt;Location: 528 - 1245" locus_tag="PLIDEL_16750" class="clusterblast-orf" id="dummy-1_q1_0_all"  />
<polygon points="151,35 156,30 171,30 171,40 156,40 151,35 " style="fill:white; stroke-width:1; stroke:black; " description="&lt;b&gt;PLIDEL_16755&lt;/b&gt;&lt;br&gt;hypothetical protein&lt;br&gt;Location: 1199 - 1697" locus_tag="PLIDEL_16755" class="clusterblast-orf" id="dummy-1_q2_0_all"  />
<polygon points="176,35 181,30 206,30 206,40 181,40 176,35 " style="fill:white; stroke-width:1; stroke:black; " description="&lt;b&gt;PLIDEL_16760&lt;/b&gt;&lt;br&gt;hypothetical protein&lt;br&gt;Location: 1817 - 2534" locus_tag="PLIDEL_16760" class="clusterblast-orf" id="dummy-1_q3_0_all"  />
<polygon points="206,40 263,40 268,35 263,30 206,30 206,40 " style="fill:#15abd8; stroke-width:1; stroke:black; " description="&lt;b&gt;PLIDEL_16765&lt;/b&gt;&lt;br&gt;hypothetical protein&lt;br&gt;Location: 2541 - 4041" locus_tag="PLIDEL_16765" class="clusterblast-orf" id="dummy-1_q4_0_all"  />
<polygon points="276,40 294,40 299,35 294,30 276,30 276,40 " style="fill:#8d15d8; stroke-width:1; stroke:black; " description="&lt;b&gt;PLIDEL_16770&lt;/b&gt;&lt;br&gt;Putative oxoacyl-reductase&lt;br&gt;Location: 4240 - 4819" locus_tag="PLIDEL_16770" class="clusterblast-orf" id="dummy-1_q5_0_all"  />
<polygon points="298,35 303,30 332,30 332,40 303,40 298,35 " style="fill:#d86f15; stroke-width:1; stroke:black; " description="&lt;b&gt;PLIDEL_16775&lt;/b&gt;&lt;br&gt;RNA-binding S4 domain-containing protein&lt;br&gt;Location: 4790 - 5627" locus_tag="PLIDEL_16775" class="clusterblast-orf" id="dummy-1_q6_0_all"  />
<polygon points="333,35 338,30 365,30 365,40 338,40 333,35 " style="fill:#15d851; stroke-width:1; stroke:black; " description="&lt;b&gt;PLIDEL_16780&lt;/b&gt;&lt;br&gt;Segregation and condensation protein B&lt;br&gt;Location: 5635 - 6427" locus_tag="PLIDEL_16780" class="clusterblast-orf" id="dummy-1_q7_0_all"  />
<polygon points="365,35 370,30 404,30 404,40 370,40 365,35 " style="fill:#1551d8; stroke-width:1; stroke:black; " description="&lt;b&gt;PLIDEL_16785&lt;/b&gt;&lt;br&gt;Segregation and condensation protein A&lt;br&gt;Location: 6423 - 7365" locus_tag="PLIDEL_16785" class="clusterblast-orf" id="dummy-1_q8_0_all"  />
<polygon points="404,35 409,30 453,30 453,40 409,40 404,35 " style="fill:#d815c9; stroke-width:1; stroke:black; " description="&lt;b&gt;PLIDEL_16790&lt;/b&gt;&lt;br&gt;Tryptophan--tRNA ligase&lt;br&gt;Location: 7374 - 8574" locus_tag="PLIDEL_16790" class="clusterblast-orf" id="dummy-1_q9_0_all"  />
<polygon points="460,35 465,30 485,30 485,40 465,40 460,35 " style="fill:#d8c915; stroke-width:1; stroke:black; " description="&lt;b&gt;PLIDEL_16795&lt;/b&gt;&lt;br&gt;Uncharacterized protein HI 1198&lt;br&gt;Location: 8730 - 9345" locus_tag="PLIDEL_16795" class="clusterblast-orf" id="dummy-1_q10_0_all"  />
<polygon points="489,40 506,40 511,35 506,30 489,30 489,40 " style="fill:#15d8ab; stroke-width:1; stroke:black; " description="&lt;b&gt;PLIDEL_16800&lt;/b&gt;&lt;br&gt;Inner membrane-spanning protein YciB&lt;br&gt;Location: 9442 - 9988" locus_tag="PLIDEL_16800" class="clusterblast-orf" id="dummy-1_q11_0_all"  />
<polygon points="511,40 519,40 524,35 519,30 511,30 511,40 " style="fill:#3315d8; stroke-width:1; stroke:black; " description="&lt;b&gt;PLIDEL_16805&lt;/b&gt;&lt;br&gt;YCII-related domain-containing protein&lt;br&gt;Location: 9989 - 10289" locus_tag="PLIDEL_16805" class="clusterblast-orf" id="dummy-1_q12_0_all"  />
<polygon points="523,40 530,40 535,35 530,30 523,30 523,40 " style="fill:#d8156f; stroke-width:1; stroke:black; " description="&lt;b&gt;PLIDEL_16810&lt;/b&gt;&lt;br&gt;BolA family transcriptional regulator&lt;br&gt;Location: 10285 - 10561" locus_tag="PLIDEL_16810" class="clusterblast-orf" id="dummy-1_q13_0_all"  />
<polygon points="536,40 566,40 571,35 566,30 536,30 536,40 " style="fill:#8dd815; stroke-width:1; stroke:black; " description="&lt;b&gt;PLIDEL_16815&lt;/b&gt;&lt;br&gt;Peptidylprolyl isomerase&lt;br&gt;Location: 10600 - 11437" locus_tag="PLIDEL_16815" class="clusterblast-orf" id="dummy-1_q14_0_all"  />
<polygon points="599,35 604,30 606,30 606,40 604,40 599,35 " style="fill:white; stroke-width:1; stroke:black; " description="&lt;b&gt;PLIDEL_16820&lt;/b&gt;&lt;br&gt;hypothetical protein&lt;br&gt;Location: 12138 - 12303" locus_tag="PLIDEL_16820" class="clusterblast-orf" id="dummy-1_q15_0_all"  />
<polygon points="608,35 613,30 674,30 674,40 613,40 608,35 " style="fill:white; stroke-width:1; stroke:black; " description="&lt;b&gt;PLIDEL_16825&lt;/b&gt;&lt;br&gt;hypothetical protein&lt;br&gt;Location: 12344 - 13952" locus_tag="PLIDEL_16825" class="clusterblast-orf" id="dummy-1_q16_0_all"  />
</g>
<g label="NZ_JACHHZ010000001" description="NZ_JACHHZ010000001 (899973-920807): Povalibacter uvarum strain DSM 26723 Ga04... (66% of genes show similarity), terpene" class="clusterblast-cluster"  >
<text x="5" y="70" class="clusterblast-acc"  >
<a xlink:href="https://antismash-db.secondarymetabolites.org/area?record=NZ_JACHHZ010000001&amp;start=899973&amp;end=920807" target="_blank">NZ_JACHHZ010000001 (899973-920807)</a>: Povalibacter uvarum strain DSM 26723 Ga04... (66% of genes show similarity), terpene</text>
<line x1="10" y1="85" x2="778.0" y2="85" style="stroke-width:1; stroke:grey; "  />
</g>
<g id="a1_000"  >
<polygon points="0,85 5,80 41,80 41,90 5,90 0,85 " style="fill:white; stroke-width:1; stroke:black; " description="&lt;b&gt;HNQ60_RS03980&lt;/b&gt;&lt;br&gt;prephenate dehydratase&lt;br&gt;Location: 920613 - 919591" locus_tag="HNQ60_RS03980" class="clusterblast-orf" id="dummy-1_h1_1_0"  />
</g>
<g id="a1_001"  >
<polygon points="47,85 52,80 94,80 94,90 52,90 47,85 " style="fill:white; stroke-width:1; stroke:black; " description="&lt;b&gt;HNQ60_RS03975&lt;/b&gt;&lt;br&gt;3-phosphoglycerate dehydrogenase family protein&lt;br&gt;Location: 919465 - 918296" locus_tag="HNQ60_RS03975" class="clusterblast-orf" id="dummy-1_h1_1_1"  />
</g>
<g id="a1_002"  >
<polygon points="94,85 99,80 138,80 138,90 99,90 94,85 " style="fill:white; stroke-width:1; stroke:black; " description="&lt;b&gt;HNQ60_RS03970&lt;/b&gt;&lt;br&gt;3-phosphoserine/phosphohydroxythreonine transaminase&lt;br&gt;Location: 918299 - 917223" locus_tag="HNQ60_RS03970" class="clusterblast-orf" id="dummy-1_h1_1_2"  />
</g>
<g id="a1_003"  >
<polygon points="140,85 145,80 245,80 245,90 145,90 140,85 " style="fill:white; stroke-width:1; stroke:black; " description="&lt;b&gt;HNQ60_RS03965&lt;/b&gt;&lt;br&gt;DNA gyrase subunit A&lt;br&gt;Location: 917178 - 914611" locus_tag="HNQ60_RS03965" class="clusterblast-orf" id="dummy-1_h1_1_3"  />
</g>
<g id="a1_004"  >
<polygon points="258,90 307,90 312,85 307,80 258,80 258,90 " style="fill:#d81515; stroke-width:1; stroke:black; " description="&lt;b&gt;HNQ60_RS03960&lt;/b&gt;&lt;br&gt;TRZ/ATZ family hydrolase&lt;br&gt;Location: 914303 - 912981&lt;br&gt;&lt;br&gt;&lt;b&gt;BlastP hit with PLIDEL_16745&lt;/b&gt;&lt;br&gt;Percentage identity: 50&lt;br&gt;Percentage coverage: 68&lt;br&gt;BLAST bit score: 103&lt;br&gt;E-value: 1.51e-24" locus_tag="HNQ60_RS03960" class="clusterblast-orf" id="dummy-1_h1_1_4"  />
</g>
<g id="a1_005"  >
<polygon points="313,90 337,90 342,85 337,80 313,80 313,90 " style="fill:#33d815; stroke-width:1; stroke:black; " description="&lt;b&gt;HNQ60_RS03955&lt;/b&gt;&lt;br&gt;bifunctional 2-polyprenyl-6-hydroxyphenol methylase/3-demethylubiquinol 3-O-methyltransferase UbiG&lt;br&gt;Location: 912967 - 912245&lt;br&gt;&lt;br&gt;&lt;b&gt;BlastP hit with PLIDEL_16750&lt;/b&gt;&lt;br&gt;Percentage identity: 51&lt;br&gt;Percentage coverage: 97&lt;br&gt;BLAST bit score: 224&lt;br&gt;E-value: 1.27e-71" locus_tag="HNQ60_RS03955" class="clusterblast-orf" id="dummy-1_h1_1_5"  />
</g>
<g id="a1_006"  >
<polygon points="344,90 394,90 399,85 394,80 344,80 344,90 " style="fill:#15abd8; stroke-width:1; stroke:black; " description="&lt;b&gt;HNQ60_RS03950&lt;/b&gt;&lt;br&gt;DNA recombination protein RmuC&lt;br&gt;Location: 912203 - 910866&lt;br&gt;&lt;br&gt;&lt;b&gt;BlastP hit with PLIDEL_16765&lt;/b&gt;&lt;br&gt;Percentage identity: 74&lt;br&gt;Percentage coverage: 39&lt;br&gt;BLAST bit score: 287&lt;br&gt;E-value: 5.43e-90" locus_tag="HNQ60_RS03950" class="clusterblast-orf" id="dummy-1_h1_1_6"  />
</g>
<g id="a1_007"  >
<polygon points="401,90 430,90 435,85 430,80 401,80 401,90 " style="fill:#15abd8; stroke-width:1; stroke:black; " description="&lt;b&gt;HNQ60_RS03945&lt;/b&gt;&lt;br&gt;squalene/phytoene synthase family protein&lt;br&gt;Location: 910807 - 909974&lt;br&gt;&lt;br&gt;&lt;b&gt;BlastP hit with PLIDEL_16765&lt;/b&gt;&lt;br&gt;Percentage identity: 38&lt;br&gt;Percentage coverage: 55&lt;br&gt;BLAST bit score: 166&lt;br&gt;E-value: 1e-45" locus_tag="HNQ60_RS03945" class="clusterblast-orf" id="dummy-1_h1_1_7"  />
</g>
<g id="a1_008"  >
<polygon points="437,90 463,90 468,85 463,80 437,80 437,90 " style="fill:#8d15d8; stroke-width:1; stroke:black; " description="&lt;b&gt;HNQ60_RS03940&lt;/b&gt;&lt;br&gt;YciK family oxidoreductase&lt;br&gt;Location: 909934 - 909188&lt;br&gt;&lt;br&gt;&lt;b&gt;BlastP hit with PLIDEL_16770&lt;/b&gt;&lt;br&gt;Percentage identity: 62&lt;br&gt;Percentage coverage: 81&lt;br&gt;BLAST bit score: 198&lt;br&gt;E-value: 2.95e-62" locus_tag="HNQ60_RS03940" class="clusterblast-orf" id="dummy-1_h1_1_8"  />
</g>
<g id="a1_009"  >
<polygon points="471,85 476,80 505,80 505,90 476,90 471,85 " style="fill:#d86f15; stroke-width:1; stroke:black; " description="&lt;b&gt;HNQ60_RS03935&lt;/b&gt;&lt;br&gt;S4 domain-containing protein&lt;br&gt;Location: 909109 - 908270&lt;br&gt;&lt;br&gt;&lt;b&gt;BlastP hit with PLIDEL_16775&lt;/b&gt;&lt;br&gt;Percentage identity: 39&lt;br&gt;Percentage coverage: 92&lt;br&gt;BLAST bit score: 187&lt;br&gt;E-value: 4.97e-56" locus_tag="HNQ60_RS03935" class="clusterblast-orf" id="dummy-1_h1_1_9"  />
</g>
<g id="a1_0010"  >
<polygon points="505,85 510,80 538,80 538,90 510,90 505,85 " style="fill:#15d851; stroke-width:1; stroke:black; " description="&lt;b&gt;HNQ60_RS03930&lt;/b&gt;&lt;br&gt;SMC-Scp complex subunit ScpB&lt;br&gt;Location: 908270 - 907467&lt;br&gt;&lt;br&gt;&lt;b&gt;BlastP hit with PLIDEL_16780&lt;/b&gt;&lt;br&gt;Percentage identity: 65&lt;br&gt;Percentage coverage: 72&lt;br&gt;BLAST bit score: 239&lt;br&gt;E-value: 6.51e-77" locus_tag="HNQ60_RS03930" class="clusterblast-orf" id="dummy-1_h1_1_10"  />
</g>
<g id="a1_0011"  >
<polygon points="541,85 546,80 598,80 598,90 546,90 541,85 " style="fill:#1551d8; stroke-width:1; stroke:black; " description="&lt;b&gt;HNQ60_RS03925&lt;/b&gt;&lt;br&gt;segregation/condensation protein A&lt;br&gt;Location: 907400 - 906006&lt;br&gt;&lt;br&gt;&lt;b&gt;BlastP hit with PLIDEL_16785&lt;/b&gt;&lt;br&gt;Percentage identity: 71&lt;br&gt;Percentage coverage: 98&lt;br&gt;BLAST bit score: 404&lt;br&gt;E-value: 3.8e-138" locus_tag="HNQ60_RS03925" class="clusterblast-orf" id="dummy-1_h1_1_11"  />
</g>
<g id="a1_0012"  >
<polygon points="599,85 604,80 649,80 649,90 604,90 599,85 " style="fill:#d815c9; stroke-width:1; stroke:black; " description="&lt;b&gt;HNQ60_RS03920&lt;/b&gt;&lt;br&gt;tryptophan--tRNA ligase&lt;br&gt;Location: 905980 - 904763&lt;br&gt;&lt;br&gt;&lt;b&gt;BlastP hit with PLIDEL_16790&lt;/b&gt;&lt;br&gt;Percentage identity: 79&lt;br&gt;Percentage coverage: 99&lt;br&gt;BLAST bit score: 654&lt;br&gt;E-value: 4.43e-236" locus_tag="HNQ60_RS03920" class="clusterblast-orf" id="dummy-1_h1_1_12"  />
</g>
<g id="a1_0013"  >
<polygon points="658,85 663,80 680,80 680,90 663,90 658,85 " style="fill:#d8c915; stroke-width:1; stroke:black; " description="&lt;b&gt;HNQ60_RS03915&lt;/b&gt;&lt;br&gt;L-threonylcarbamoyladenylate synthase&lt;br&gt;Location: 904548 - 903997&lt;br&gt;&lt;br&gt;&lt;b&gt;BlastP hit with PLIDEL_16795&lt;/b&gt;&lt;br&gt;Percentage identity: 74&lt;br&gt;Percentage coverage: 90&lt;br&gt;BLAST bit score: 280&lt;br&gt;E-value: 2.46e-95" locus_tag="HNQ60_RS03915" class="clusterblast-orf" id="dummy-1_h1_1_13"  />
</g>
<g id="a1_0014"  >
<polygon points="686,90 705,90 710,85 705,80 686,80 686,90 " style="fill:#15d8ab; stroke-width:1; stroke:black; " description="&lt;b&gt;HNQ60_RS03910&lt;/b&gt;&lt;br&gt;septation protein A&lt;br&gt;Location: 903849 - 903286&lt;br&gt;&lt;br&gt;&lt;b&gt;BlastP hit with PLIDEL_16800&lt;/b&gt;&lt;br&gt;Percentage identity: 56&lt;br&gt;Percentage coverage: 95&lt;br&gt;BLAST bit score: 204&lt;br&gt;E-value: 1.52e-65" locus_tag="HNQ60_RS03910" class="clusterblast-orf" id="dummy-1_h1_1_14"  />
</g>
<g id="a1_0015"  >
<polygon points="710,90 717,90 722,85 717,80 710,80 710,90 " style="fill:white; stroke-width:1; stroke:black; " description="&lt;b&gt;HNQ60_RS03905&lt;/b&gt;&lt;br&gt;BolA family transcriptional regulator&lt;br&gt;Location: 903272 - 902994" locus_tag="HNQ60_RS03905" class="clusterblast-orf" id="dummy-1_h1_1_15"  />
</g>
<g id="a1_0016"  >
<polygon points="722,90 750,90 755,85 750,80 722,80 722,90 " style="fill:#8dd815; stroke-width:1; stroke:black; " description="&lt;b&gt;HNQ60_RS03900&lt;/b&gt;&lt;br&gt;peptidylprolyl isomerase&lt;br&gt;Location: 902973 - 902170&lt;br&gt;&lt;br&gt;&lt;b&gt;BlastP hit with PLIDEL_16815&lt;/b&gt;&lt;br&gt;Percentage identity: 58&lt;br&gt;Percentage coverage: 86&lt;br&gt;BLAST bit score: 250&lt;br&gt;E-value: 4.55e-81" locus_tag="HNQ60_RS03900" class="clusterblast-orf" id="dummy-1_h1_1_16"  />
</g>
<g id="a1_0017"  >
<polygon points="758,85 763,80 780,80 780,90 763,90 758,85 " style="fill:white; stroke-width:1; stroke:black; " description="&lt;b&gt;HNQ60_RS03895&lt;/b&gt;&lt;br&gt;zf-TFIIB domain-containing protein&lt;br&gt;Location: 902115 - 901579" locus_tag="HNQ60_RS03895" class="clusterblast-orf" id="dummy-1_h1_1_17"  />
</g>
</svg>
