<svg xmlns="http://www.w3.org/2000/svg" xmlns:xlink="http://www.w3.org/1999/xlink" version="1.1" x="0" y="0" height="230" width="800" viewBox="0 0 800 230" preserveAspectRatio="none"  >
<g label="Query sequence" class="clusterblast-cluster"  >
<text x="5" y="20" class="clusterblast-acc"  >
Query sequence</text>
<line x1="10" y1="35" x2="778.0" y2="35" style="stroke-width:1; stroke:grey; "  />
<polygon points="92,40 106,40 111,35 106,30 92,30 92,40 " style="fill:#d81515; stroke-width:1; stroke:black; " description="&lt;b&gt;PLIDEL_16745&lt;/b&gt;&lt;br&gt;hypothetical protein&lt;br&gt;Location: 104 - 542" locus_tag="PLIDEL_16745" class="clusterblast-orf" id="dummy-1_q0_0_all"  />
<polygon points="110,40 136,40 141,35 136,30 110,30 110,40 " style="fill:#33d815; stroke-width:1; stroke:black; " description="&lt;b&gt;PLIDEL_16750&lt;/b&gt;&lt;br&gt;Ubiquinone biosynthesis O-methyltransferase&lt;br&gt;Location: 528 - 1245" locus_tag="PLIDEL_16750" class="clusterblast-orf" id="dummy-1_q1_0_all"  />
<polygon points="139,35 144,30 161,30 161,40 144,40 139,35 " style="fill:white; stroke-width:1; stroke:black; " description="&lt;b&gt;PLIDEL_16755&lt;/b&gt;&lt;br&gt;hypothetical protein&lt;br&gt;Location: 1199 - 1697" locus_tag="PLIDEL_16755" class="clusterblast-orf" id="dummy-1_q2_0_all"  />
<polygon points="166,35 171,30 197,30 197,40 171,40 166,35 " style="fill:white; stroke-width:1; stroke:black; " description="&lt;b&gt;PLIDEL_16760&lt;/b&gt;&lt;br&gt;hypothetical protein&lt;br&gt;Location: 1817 - 2534" locus_tag="PLIDEL_16760" class="clusterblast-orf" id="dummy-1_q3_0_all"  />
<polygon points="197,40 256,40 261,35 256,30 197,30 197,40 " style="fill:#15abd8; stroke-width:1; stroke:black; " description="&lt;b&gt;PLIDEL_16765&lt;/b&gt;&lt;br&gt;hypothetical protein&lt;br&gt;Location: 2541 - 4041" locus_tag="PLIDEL_16765" class="clusterblast-orf" id="dummy-1_q4_0_all"  />
<polygon points="270,40 290,40 295,35 290,30 270,30 270,40 " style="fill:#8d15d8; stroke-width:1; stroke:black; " description="&lt;b&gt;PLIDEL_16770&lt;/b&gt;&lt;br&gt;Putative oxoacyl-reductase&lt;br&gt;Location: 4240 - 4819" locus_tag="PLIDEL_16770" class="clusterblast-orf" id="dummy-1_q5_0_all"  />
<polygon points="294,35 299,30 330,30 330,40 299,40 294,35 " style="fill:#d86f15; stroke-width:1; stroke:black; " description="&lt;b&gt;PLIDEL_16775&lt;/b&gt;&lt;br&gt;RNA-binding S4 domain-containing protein&lt;br&gt;Location: 4790 - 5627" locus_tag="PLIDEL_16775" class="clusterblast-orf" id="dummy-1_q6_0_all"  />
<polygon points="330,35 335,30 364,30 364,40 335,40 330,35 " style="fill:#15d851; stroke-width:1; stroke:black; " description="&lt;b&gt;PLIDEL_16780&lt;/b&gt;&lt;br&gt;Segregation and condensation protein B&lt;br&gt;Location: 5635 - 6427" locus_tag="PLIDEL_16780" class="clusterblast-orf" id="dummy-1_q7_0_all"  />
<polygon points="364,35 369,30 404,30 404,40 369,40 364,35 " style="fill:#1551d8; stroke-width:1; stroke:black; " description="&lt;b&gt;PLIDEL_16785&lt;/b&gt;&lt;br&gt;Segregation and condensation protein A&lt;br&gt;Location: 6423 - 7365" locus_tag="PLIDEL_16785" class="clusterblast-orf" id="dummy-1_q8_0_all"  />
<polygon points="405,35 410,30 456,30 456,40 410,40 405,35 " style="fill:#d815c9; stroke-width:1; stroke:black; " description="&lt;b&gt;PLIDEL_16790&lt;/b&gt;&lt;br&gt;Tryptophan--tRNA ligase&lt;br&gt;Location: 7374 - 8574" locus_tag="PLIDEL_16790" class="clusterblast-orf" id="dummy-1_q9_0_all"  />
<polygon points="463,35 468,30 490,30 490,40 468,40 463,35 " style="fill:#d8c915; stroke-width:1; stroke:black; " description="&lt;b&gt;PLIDEL_16795&lt;/b&gt;&lt;br&gt;Uncharacterized protein HI 1198&lt;br&gt;Location: 8730 - 9345" locus_tag="PLIDEL_16795" class="clusterblast-orf" id="dummy-1_q10_0_all"  />
<polygon points="494,40 512,40 517,35 512,30 494,30 494,40 " style="fill:#15d8ab; stroke-width:1; stroke:black; " description="&lt;b&gt;PLIDEL_16800&lt;/b&gt;&lt;br&gt;Inner membrane-spanning protein YciB&lt;br&gt;Location: 9442 - 9988" locus_tag="PLIDEL_16800" class="clusterblast-orf" id="dummy-1_q11_0_all"  />
<polygon points="517,40 525,40 530,35 525,30 517,30 517,40 " style="fill:#3315d8; stroke-width:1; stroke:black; " description="&lt;b&gt;PLIDEL_16805&lt;/b&gt;&lt;br&gt;YCII-related domain-containing protein&lt;br&gt;Location: 9989 - 10289" locus_tag="PLIDEL_16805" class="clusterblast-orf" id="dummy-1_q12_0_all"  />
<polygon points="530,40 537,40 542,35 537,30 530,30 530,40 " style="fill:#d8156f; stroke-width:1; stroke:black; " description="&lt;b&gt;PLIDEL_16810&lt;/b&gt;&lt;br&gt;BolA family transcriptional regulator&lt;br&gt;Location: 10285 - 10561" locus_tag="PLIDEL_16810" class="clusterblast-orf" id="dummy-1_q13_0_all"  />
<polygon points="544,40 575,40 580,35 575,30 544,30 544,40 " style="fill:#8dd815; stroke-width:1; stroke:black; " description="&lt;b&gt;PLIDEL_16815&lt;/b&gt;&lt;br&gt;Peptidylprolyl isomerase&lt;br&gt;Location: 10600 - 11437" locus_tag="PLIDEL_16815" class="clusterblast-orf" id="dummy-1_q14_0_all"  />
<polygon points="610,35 615,30 617,30 617,40 615,40 610,35 " style="fill:white; stroke-width:1; stroke:black; " description="&lt;b&gt;PLIDEL_16820&lt;/b&gt;&lt;br&gt;hypothetical protein&lt;br&gt;Location: 12138 - 12303" locus_tag="PLIDEL_16820" class="clusterblast-orf" id="dummy-1_q15_0_all"  />
<polygon points="619,35 624,30 688,30 688,40 624,40 619,35 " style="fill:white; stroke-width:1; stroke:black; " description="&lt;b&gt;PLIDEL_16825&lt;/b&gt;&lt;br&gt;hypothetical protein&lt;br&gt;Location: 12344 - 13952" locus_tag="PLIDEL_16825" class="clusterblast-orf" id="dummy-1_q16_0_all"  />
</g>
<g label="NZ_FOEG01000002" description="NZ_FOEG01000002 (264297-285155): Aquisalimonas asiatica strain CGMCC 1.6291, ... (47% of genes show similarity), terpene" class="clusterblast-cluster"  >
<text x="5" y="70" class="clusterblast-acc"  >
<a xlink:href="https://antismash-db.secondarymetabolites.org/area?record=NZ_FOEG01000002&amp;start=264297&amp;end=285155" target="_blank">NZ_FOEG01000002 (264297-285155)</a>: Aquisalimonas asiatica strain CGMCC 1.6291, ... (47% of genes show similarity), terpene</text>
<line x1="10" y1="85" x2="778.0" y2="85" style="stroke-width:1; stroke:grey; "  />
</g>
<g id="a1_000"  >
<polygon points="0,85 5,80 111,80 111,90 5,90 0,85 " style="fill:white; stroke-width:1; stroke:black; " description="&lt;b&gt;BMZ02_RS05995&lt;/b&gt;&lt;br&gt;DNA gyrase subunit A&lt;br&gt;Location: 265197 - 267788" locus_tag="BMZ02_RS05995" class="clusterblast-orf" id="dummy-1_h1_7_0"  />
</g>
<g id="a1_001"  >
<polygon points="122,85 127,80 145,80 145,90 127,90 122,85 " style="fill:white; stroke-width:1; stroke:black; " description="&lt;b&gt;BMZ02_RS06000&lt;/b&gt;&lt;br&gt;peptidylprolyl isomerase&lt;br&gt;Location: 268036 - 268572" locus_tag="BMZ02_RS06000" class="clusterblast-orf" id="dummy-1_h1_7_1"  />
</g>
<g id="a1_002"  >
<polygon points="147,85 152,80 162,80 162,90 152,90 147,85 " style="fill:white; stroke-width:1; stroke:black; " description="&lt;b&gt;BMZ02_RS06005&lt;/b&gt;&lt;br&gt;DUF3301 domain-containing protein&lt;br&gt;Location: 268635 - 268973" locus_tag="BMZ02_RS06005" class="clusterblast-orf" id="dummy-1_h1_7_2"  />
</g>
<g id="a1_003"  >
<polygon points="162,85 167,80 199,80 199,90 167,90 162,85 " style="fill:white; stroke-width:1; stroke:black; " description="&lt;b&gt;BMZ02_RS06010&lt;/b&gt;&lt;br&gt;NYN domain-containing protein&lt;br&gt;Location: 268970 - 269833" locus_tag="BMZ02_RS06010" class="clusterblast-orf" id="dummy-1_h1_7_3"  />
</g>
<g id="a1_004"  >
<polygon points="201,85 206,80 247,80 247,90 206,90 201,85 " style="fill:white; stroke-width:1; stroke:black; " description="&lt;b&gt;BMZ02_RS06015&lt;/b&gt;&lt;br&gt;S-methyl-5-thioribose-1-phosphate isomerase&lt;br&gt;Location: 269877 - 270950" locus_tag="BMZ02_RS06015" class="clusterblast-orf" id="dummy-1_h1_7_4"  />
</g>
<g id="a1_005"  >
<polygon points="261,90 312,90 317,85 312,80 261,80 261,90 " style="fill:#d81515; stroke-width:1; stroke:black; " description="&lt;b&gt;BMZ02_RS06020&lt;/b&gt;&lt;br&gt;TRZ/ATZ family hydrolase&lt;br&gt;Location: 271271 - 272590&lt;br&gt;&lt;br&gt;&lt;b&gt;BlastP hit with PLIDEL_16745&lt;/b&gt;&lt;br&gt;Percentage identity: 43&lt;br&gt;Percentage coverage: 73&lt;br&gt;BLAST bit score: 84&lt;br&gt;E-value: 1.31e-17" locus_tag="BMZ02_RS06020" class="clusterblast-orf" id="dummy-1_h1_7_5"  />
</g>
<g id="a1_006"  >
<polygon points="321,90 347,90 352,85 347,80 321,80 321,90 " style="fill:#33d815; stroke-width:1; stroke:black; " description="&lt;b&gt;BMZ02_RS06025&lt;/b&gt;&lt;br&gt;bifunctional 2-polyprenyl-6-hydroxyphenol methylase/3-demethylubiquinol 3-O-methyltransferase UbiG&lt;br&gt;Location: 272673 - 273386&lt;br&gt;&lt;br&gt;&lt;b&gt;BlastP hit with PLIDEL_16750&lt;/b&gt;&lt;br&gt;Percentage identity: 51&lt;br&gt;Percentage coverage: 97&lt;br&gt;BLAST bit score: 228&lt;br&gt;E-value: 1.75e-73" locus_tag="BMZ02_RS06025" class="clusterblast-orf" id="dummy-1_h1_7_6"  />
</g>
<g id="a1_007"  >
<polygon points="352,90 382,90 387,85 382,80 352,80 352,90 " style="fill:white; stroke-width:1; stroke:black; " description="&lt;b&gt;BMZ02_RS06030&lt;/b&gt;&lt;br&gt;HAD-IA family hydrolase&lt;br&gt;Location: 273391 - 274209" locus_tag="BMZ02_RS06030" class="clusterblast-orf" id="dummy-1_h1_7_7"  />
</g>
<g id="a1_008"  >
<polygon points="391,90 423,90 428,85 423,80 391,80 391,90 " style="fill:white; stroke-width:1; stroke:black; " description="&lt;b&gt;BMZ02_RS06035&lt;/b&gt;&lt;br&gt;squalene/phytoene synthase family protein&lt;br&gt;Location: 274298 - 275155" locus_tag="BMZ02_RS06035" class="clusterblast-orf" id="dummy-1_h1_7_8"  />
</g>
<g id="a1_009"  >
<polygon points="428,90 457,90 462,85 457,80 428,80 428,90 " style="fill:#8d15d8; stroke-width:1; stroke:black; " description="&lt;b&gt;BMZ02_RS06040&lt;/b&gt;&lt;br&gt;SDR family NAD(P)-dependent oxidoreductase&lt;br&gt;Location: 275155 - 275949&lt;br&gt;&lt;br&gt;&lt;b&gt;BlastP hit with PLIDEL_16770&lt;/b&gt;&lt;br&gt;Percentage identity: 48&lt;br&gt;Percentage coverage: 79&lt;br&gt;BLAST bit score: 143&lt;br&gt;E-value: 1.63e-40" locus_tag="BMZ02_RS06040" class="clusterblast-orf" id="dummy-1_h1_7_9"  />
</g>
<g id="a1_0010"  >
<polygon points="463,90 468,90 473,85 468,80 463,80 463,90 " style="fill:white; stroke-width:1; stroke:black; " description="&lt;b&gt;BMZ02_RS06045&lt;/b&gt;&lt;br&gt;hypothetical protein&lt;br&gt;Location: 275971 - 276198" locus_tag="BMZ02_RS06045" class="clusterblast-orf" id="dummy-1_h1_7_10"  />
</g>
<g id="a1_0011"  >
<polygon points="473,85 478,80 492,80 492,90 478,90 473,85 " style="fill:white; stroke-width:1; stroke:black; " description="&lt;b&gt;BMZ02_RS06050&lt;/b&gt;&lt;br&gt;hypothetical protein&lt;br&gt;Location: 276202 - 276657" locus_tag="BMZ02_RS06050" class="clusterblast-orf" id="dummy-1_h1_7_11"  />
</g>
<g id="a1_0012"  >
<polygon points="497,85 502,80 526,80 526,90 502,90 497,85 " style="fill:white; stroke-width:1; stroke:black; " description="&lt;b&gt;BMZ02_RS06055&lt;/b&gt;&lt;br&gt;hypothetical protein&lt;br&gt;Location: 276760 - 277437" locus_tag="BMZ02_RS06055" class="clusterblast-orf" id="dummy-1_h1_7_12"  />
</g>
<g id="a1_0013"  >
<polygon points="526,85 531,80 562,80 562,90 531,90 526,85 " style="fill:#d86f15; stroke-width:1; stroke:black; " description="&lt;b&gt;BMZ02_RS06060&lt;/b&gt;&lt;br&gt;pseudouridine synthase&lt;br&gt;Location: 277440 - 278267&lt;br&gt;&lt;br&gt;&lt;b&gt;BlastP hit with PLIDEL_16775&lt;/b&gt;&lt;br&gt;Percentage identity: 36&lt;br&gt;Percentage coverage: 88&lt;br&gt;BLAST bit score: 157&lt;br&gt;E-value: 1.03e-44" locus_tag="BMZ02_RS06060" class="clusterblast-orf" id="dummy-1_h1_7_13"  />
</g>
<g id="a1_0014"  >
<polygon points="561,85 566,80 588,80 588,90 566,90 561,85 " style="fill:#15d851; stroke-width:1; stroke:black; " description="&lt;b&gt;BMZ02_RS06065&lt;/b&gt;&lt;br&gt;SMC-Scp complex subunit ScpB&lt;br&gt;Location: 278260 - 278886&lt;br&gt;&lt;br&gt;&lt;b&gt;BlastP hit with PLIDEL_16780&lt;/b&gt;&lt;br&gt;Percentage identity: 62&lt;br&gt;Percentage coverage: 69&lt;br&gt;BLAST bit score: 215&lt;br&gt;E-value: 2.36e-68" locus_tag="BMZ02_RS06065" class="clusterblast-orf" id="dummy-1_h1_7_14"  />
</g>
<g id="a1_0015"  >
<polygon points="589,85 594,80 623,80 623,90 594,90 589,85 " style="fill:#1551d8; stroke-width:1; stroke:black; " description="&lt;b&gt;BMZ02_RS06070&lt;/b&gt;&lt;br&gt;segregation/condensation protein A&lt;br&gt;Location: 278899 - 279690&lt;br&gt;&lt;br&gt;&lt;b&gt;BlastP hit with PLIDEL_16785&lt;/b&gt;&lt;br&gt;Percentage identity: 64&lt;br&gt;Percentage coverage: 83&lt;br&gt;BLAST bit score: 313&lt;br&gt;E-value: 2.79e-105" locus_tag="BMZ02_RS06070" class="clusterblast-orf" id="dummy-1_h1_7_15"  />
</g>
<g id="a1_0016"  >
<polygon points="625,85 630,80 677,80 677,90 630,90 625,85 " style="fill:#d815c9; stroke-width:1; stroke:black; " description="&lt;b&gt;BMZ02_RS06075&lt;/b&gt;&lt;br&gt;tryptophan--tRNA ligase&lt;br&gt;Location: 279740 - 280957&lt;br&gt;&lt;br&gt;&lt;b&gt;BlastP hit with PLIDEL_16790&lt;/b&gt;&lt;br&gt;Percentage identity: 66&lt;br&gt;Percentage coverage: 99&lt;br&gt;BLAST bit score: 559&lt;br&gt;E-value: 1.22e-198" locus_tag="BMZ02_RS06075" class="clusterblast-orf" id="dummy-1_h1_7_16"  />
</g>
<g id="a1_0017"  >
<polygon points="680,85 685,80 707,80 707,90 685,90 680,85 " style="fill:#d8c915; stroke-width:1; stroke:black; " description="&lt;b&gt;BMZ02_RS06080&lt;/b&gt;&lt;br&gt;L-threonylcarbamoyladenylate synthase&lt;br&gt;Location: 281018 - 281641&lt;br&gt;&lt;br&gt;&lt;b&gt;BlastP hit with PLIDEL_16795&lt;/b&gt;&lt;br&gt;Percentage identity: 62&lt;br&gt;Percentage coverage: 98&lt;br&gt;BLAST bit score: 260&lt;br&gt;E-value: 4.56e-87" locus_tag="BMZ02_RS06080" class="clusterblast-orf" id="dummy-1_h1_7_17"  />
</g>
<g id="a1_0018"  >
<polygon points="718,90 726,90 731,85 726,80 718,80 718,90 " style="fill:#3315d8; stroke-width:1; stroke:black; " description="&lt;b&gt;BMZ02_RS06085&lt;/b&gt;&lt;br&gt;YciI family protein&lt;br&gt;Location: 281900 - 282199&lt;br&gt;&lt;br&gt;&lt;b&gt;BlastP hit with PLIDEL_16805&lt;/b&gt;&lt;br&gt;Percentage identity: 61&lt;br&gt;Percentage coverage: 100&lt;br&gt;BLAST bit score: 125&lt;br&gt;E-value: 4.28e-37" locus_tag="BMZ02_RS06085" class="clusterblast-orf" id="dummy-1_h1_7_18"  />
</g>
<g id="a1_0019"  >
<polygon points="731,90 738,90 743,85 738,80 731,80 731,90 " style="fill:#d8156f; stroke-width:1; stroke:black; " description="&lt;b&gt;BMZ02_RS06090&lt;/b&gt;&lt;br&gt;BolA family transcriptional regulator&lt;br&gt;Location: 282196 - 282486&lt;br&gt;&lt;br&gt;&lt;b&gt;BlastP hit with PLIDEL_16810&lt;/b&gt;&lt;br&gt;Percentage identity: 54&lt;br&gt;Percentage coverage: 99&lt;br&gt;BLAST bit score: 90&lt;br&gt;E-value: 5.81e-23" locus_tag="BMZ02_RS06090" class="clusterblast-orf" id="dummy-1_h1_7_19"  />
</g>
<g id="a1_0020"  >
<polygon points="743,90 775,90 780,85 775,80 743,80 743,90 " style="fill:white; stroke-width:1; stroke:black; " description="&lt;b&gt;BMZ02_RS06095&lt;/b&gt;&lt;br&gt;peptidylprolyl isomerase&lt;br&gt;Location: 282483 - 283331" locus_tag="BMZ02_RS06095" class="clusterblast-orf" id="dummy-1_h1_7_20"  />
</g>
</svg>
