<svg xmlns="http://www.w3.org/2000/svg" xmlns:xlink="http://www.w3.org/1999/xlink" version="1.1" x="0" y="0" height="230" width="800" viewBox="0 0 800 230" preserveAspectRatio="none"  >
<g label="Query sequence" class="clusterblast-cluster"  >
<text x="5" y="20" class="clusterblast-acc"  >
Query sequence</text>
<line x1="10" y1="35" x2="778.0" y2="35" style="stroke-width:1; stroke:grey; "  />
<polygon points="116,40 128,40 133,35 128,30 116,30 116,40 " style="fill:#d81515; stroke-width:1; stroke:black; " description="&lt;b&gt;PLIDEL_16745&lt;/b&gt;&lt;br&gt;hypothetical protein&lt;br&gt;Location: 104 - 542" locus_tag="PLIDEL_16745" class="clusterblast-orf" id="dummy-1_q0_0_all"  />
<polygon points="133,40 156,40 161,35 156,30 133,30 133,40 " style="fill:#33d815; stroke-width:1; stroke:black; " description="&lt;b&gt;PLIDEL_16750&lt;/b&gt;&lt;br&gt;Ubiquinone biosynthesis O-methyltransferase&lt;br&gt;Location: 528 - 1245" locus_tag="PLIDEL_16750" class="clusterblast-orf" id="dummy-1_q1_0_all"  />
<polygon points="159,35 164,30 179,30 179,40 164,40 159,35 " style="fill:white; stroke-width:1; stroke:black; " description="&lt;b&gt;PLIDEL_16755&lt;/b&gt;&lt;br&gt;hypothetical protein&lt;br&gt;Location: 1199 - 1697" locus_tag="PLIDEL_16755" class="clusterblast-orf" id="dummy-1_q2_0_all"  />
<polygon points="184,35 189,30 212,30 212,40 189,40 184,35 " style="fill:white; stroke-width:1; stroke:black; " description="&lt;b&gt;PLIDEL_16760&lt;/b&gt;&lt;br&gt;hypothetical protein&lt;br&gt;Location: 1817 - 2534" locus_tag="PLIDEL_16760" class="clusterblast-orf" id="dummy-1_q3_0_all"  />
<polygon points="212,40 267,40 272,35 267,30 212,30 212,40 " style="fill:#15abd8; stroke-width:1; stroke:black; " description="&lt;b&gt;PLIDEL_16765&lt;/b&gt;&lt;br&gt;hypothetical protein&lt;br&gt;Location: 2541 - 4041" locus_tag="PLIDEL_16765" class="clusterblast-orf" id="dummy-1_q4_0_all"  />
<polygon points="280,40 297,40 302,35 297,30 280,30 280,40 " style="fill:#8d15d8; stroke-width:1; stroke:black; " description="&lt;b&gt;PLIDEL_16770&lt;/b&gt;&lt;br&gt;Putative oxoacyl-reductase&lt;br&gt;Location: 4240 - 4819" locus_tag="PLIDEL_16770" class="clusterblast-orf" id="dummy-1_q5_0_all"  />
<polygon points="301,35 306,30 334,30 334,40 306,40 301,35 " style="fill:#d86f15; stroke-width:1; stroke:black; " description="&lt;b&gt;PLIDEL_16775&lt;/b&gt;&lt;br&gt;RNA-binding S4 domain-containing protein&lt;br&gt;Location: 4790 - 5627" locus_tag="PLIDEL_16775" class="clusterblast-orf" id="dummy-1_q6_0_all"  />
<polygon points="335,35 340,30 366,30 366,40 340,40 335,35 " style="fill:#15d851; stroke-width:1; stroke:black; " description="&lt;b&gt;PLIDEL_16780&lt;/b&gt;&lt;br&gt;Segregation and condensation protein B&lt;br&gt;Location: 5635 - 6427" locus_tag="PLIDEL_16780" class="clusterblast-orf" id="dummy-1_q7_0_all"  />
<polygon points="366,35 371,30 403,30 403,40 371,40 366,35 " style="fill:#1551d8; stroke-width:1; stroke:black; " description="&lt;b&gt;PLIDEL_16785&lt;/b&gt;&lt;br&gt;Segregation and condensation protein A&lt;br&gt;Location: 6423 - 7365" locus_tag="PLIDEL_16785" class="clusterblast-orf" id="dummy-1_q8_0_all"  />
<polygon points="404,35 409,30 451,30 451,40 409,40 404,35 " style="fill:#d815c9; stroke-width:1; stroke:black; " description="&lt;b&gt;PLIDEL_16790&lt;/b&gt;&lt;br&gt;Tryptophan--tRNA ligase&lt;br&gt;Location: 7374 - 8574" locus_tag="PLIDEL_16790" class="clusterblast-orf" id="dummy-1_q9_0_all"  />
<polygon points="457,35 462,30 482,30 482,40 462,40 457,35 " style="fill:#d8c915; stroke-width:1; stroke:black; " description="&lt;b&gt;PLIDEL_16795&lt;/b&gt;&lt;br&gt;Uncharacterized protein HI 1198&lt;br&gt;Location: 8730 - 9345" locus_tag="PLIDEL_16795" class="clusterblast-orf" id="dummy-1_q10_0_all"  />
<polygon points="485,40 502,40 507,35 502,30 485,30 485,40 " style="fill:#15d8ab; stroke-width:1; stroke:black; " description="&lt;b&gt;PLIDEL_16800&lt;/b&gt;&lt;br&gt;Inner membrane-spanning protein YciB&lt;br&gt;Location: 9442 - 9988" locus_tag="PLIDEL_16800" class="clusterblast-orf" id="dummy-1_q11_0_all"  />
<polygon points="507,40 514,40 519,35 514,30 507,30 507,40 " style="fill:#3315d8; stroke-width:1; stroke:black; " description="&lt;b&gt;PLIDEL_16805&lt;/b&gt;&lt;br&gt;YCII-related domain-containing protein&lt;br&gt;Location: 9989 - 10289" locus_tag="PLIDEL_16805" class="clusterblast-orf" id="dummy-1_q12_0_all"  />
<polygon points="519,40 525,40 530,35 525,30 519,30 519,40 " style="fill:#d8156f; stroke-width:1; stroke:black; " description="&lt;b&gt;PLIDEL_16810&lt;/b&gt;&lt;br&gt;BolA family transcriptional regulator&lt;br&gt;Location: 10285 - 10561" locus_tag="PLIDEL_16810" class="clusterblast-orf" id="dummy-1_q13_0_all"  />
<polygon points="531,40 559,40 564,35 559,30 531,30 531,40 " style="fill:#8dd815; stroke-width:1; stroke:black; " description="&lt;b&gt;PLIDEL_16815&lt;/b&gt;&lt;br&gt;Peptidylprolyl isomerase&lt;br&gt;Location: 10600 - 11437" locus_tag="PLIDEL_16815" class="clusterblast-orf" id="dummy-1_q14_0_all"  />
<polygon points="592,35 597,30 599,30 599,40 597,40 592,35 " style="fill:white; stroke-width:1; stroke:black; " description="&lt;b&gt;PLIDEL_16820&lt;/b&gt;&lt;br&gt;hypothetical protein&lt;br&gt;Location: 12138 - 12303" locus_tag="PLIDEL_16820" class="clusterblast-orf" id="dummy-1_q15_0_all"  />
<polygon points="600,35 605,30 664,30 664,40 605,40 600,35 " style="fill:white; stroke-width:1; stroke:black; " description="&lt;b&gt;PLIDEL_16825&lt;/b&gt;&lt;br&gt;hypothetical protein&lt;br&gt;Location: 12344 - 13952" locus_tag="PLIDEL_16825" class="clusterblast-orf" id="dummy-1_q16_0_all"  />
</g>
<g label="NZ_BLJO01000002" description="NZ_BLJO01000002 (851269-872103): Steroidobacter agaridevorans strain SA29-B s... (66% of genes show similarity), terpene" class="clusterblast-cluster"  >
<text x="5" y="70" class="clusterblast-acc"  >
<a xlink:href="https://antismash-db.secondarymetabolites.org/area?record=NZ_BLJO01000002&amp;start=851269&amp;end=872103" target="_blank">NZ_BLJO01000002 (851269-872103)</a>: Steroidobacter agaridevorans strain SA29-B s... (66% of genes show similarity), terpene</text>
<line x1="10" y1="85" x2="778.0" y2="85" style="stroke-width:1; stroke:grey; "  />
</g>
<g id="a1_000"  >
<polygon points="0,85 5,80 45,80 45,90 5,90 0,85 " style="fill:white; stroke-width:1; stroke:black; " description="&lt;b&gt;GYH35_RS10475&lt;/b&gt;&lt;br&gt;prephenate dehydratase&lt;br&gt;Location: 851611 - 852771" locus_tag="GYH35_RS10475" class="clusterblast-orf" id="dummy-1_h1_5_0"  />
</g>
<g id="a1_001"  >
<polygon points="48,85 53,80 94,80 94,90 53,90 48,85 " style="fill:white; stroke-width:1; stroke:black; " description="&lt;b&gt;GYH35_RS10480&lt;/b&gt;&lt;br&gt;phosphoglycerate dehydrogenase&lt;br&gt;Location: 852834 - 854000" locus_tag="GYH35_RS10480" class="clusterblast-orf" id="dummy-1_h1_5_1"  />
</g>
<g id="a1_002"  >
<polygon points="97,85 102,80 140,80 140,90 102,90 97,85 " style="fill:white; stroke-width:1; stroke:black; " description="&lt;b&gt;GYH35_RS10485&lt;/b&gt;&lt;br&gt;3-phosphoserine/phosphohydroxythreonine transaminase&lt;br&gt;Location: 854079 - 855158" locus_tag="GYH35_RS10485" class="clusterblast-orf" id="dummy-1_h1_5_2"  />
</g>
<g id="a1_003"  >
<polygon points="141,85 146,80 246,80 246,90 146,90 141,85 " style="fill:white; stroke-width:1; stroke:black; " description="&lt;b&gt;GYH35_RS10490&lt;/b&gt;&lt;br&gt;DNA gyrase subunit A&lt;br&gt;Location: 855179 - 857842" locus_tag="GYH35_RS10490" class="clusterblast-orf" id="dummy-1_h1_5_3"  />
</g>
<g id="a1_004"  >
<polygon points="250,90 296,90 301,85 296,80 250,80 250,90 " style="fill:#d81515; stroke-width:1; stroke:black; " description="&lt;b&gt;GYH35_RS10495&lt;/b&gt;&lt;br&gt;amidohydrolase family protein&lt;br&gt;Location: 857948 - 859240&lt;br&gt;&lt;br&gt;&lt;b&gt;BlastP hit with PLIDEL_16745&lt;/b&gt;&lt;br&gt;Percentage identity: 47&lt;br&gt;Percentage coverage: 70&lt;br&gt;BLAST bit score: 97&lt;br&gt;E-value: 2.47e-22" locus_tag="GYH35_RS10495" class="clusterblast-orf" id="dummy-1_h1_5_4"  />
</g>
<g id="a1_005"  >
<polygon points="301,90 324,90 329,85 324,80 301,80 301,90 " style="fill:#33d815; stroke-width:1; stroke:black; " description="&lt;b&gt;GYH35_RS10500&lt;/b&gt;&lt;br&gt;bifunctional 2-polyprenyl-6-hydroxyphenol methylase/3-demethylubiquinol 3-O-methyltransferase UbiG&lt;br&gt;Location: 859237 - 859947&lt;br&gt;&lt;br&gt;&lt;b&gt;BlastP hit with PLIDEL_16750&lt;/b&gt;&lt;br&gt;Percentage identity: 53&lt;br&gt;Percentage coverage: 99&lt;br&gt;BLAST bit score: 240&lt;br&gt;E-value: 3.4e-78" locus_tag="GYH35_RS10500" class="clusterblast-orf" id="dummy-1_h1_5_5"  />
</g>
<g id="a1_006"  >
<polygon points="330,90 376,90 381,85 376,80 330,80 330,90 " style="fill:#15abd8; stroke-width:1; stroke:black; " description="&lt;b&gt;GYH35_RS10505&lt;/b&gt;&lt;br&gt;DNA recombination protein RmuC&lt;br&gt;Location: 859949 - 861259&lt;br&gt;&lt;br&gt;&lt;b&gt;BlastP hit with PLIDEL_16765&lt;/b&gt;&lt;br&gt;Percentage identity: 74&lt;br&gt;Percentage coverage: 39&lt;br&gt;BLAST bit score: 288&lt;br&gt;E-value: 2.1e-90" locus_tag="GYH35_RS10505" class="clusterblast-orf" id="dummy-1_h1_5_6"  />
</g>
<g id="a1_007"  >
<polygon points="382,90 410,90 415,85 410,80 382,80 382,90 " style="fill:#15abd8; stroke-width:1; stroke:black; " description="&lt;b&gt;GYH35_RS10510&lt;/b&gt;&lt;br&gt;squalene/phytoene synthase family protein&lt;br&gt;Location: 861270 - 862103&lt;br&gt;&lt;br&gt;&lt;b&gt;BlastP hit with PLIDEL_16765&lt;/b&gt;&lt;br&gt;Percentage identity: 39&lt;br&gt;Percentage coverage: 54&lt;br&gt;BLAST bit score: 160&lt;br&gt;E-value: 2.89e-43" locus_tag="GYH35_RS10510" class="clusterblast-orf" id="dummy-1_h1_5_7"  />
</g>
<g id="a1_008"  >
<polygon points="416,90 440,90 445,85 440,80 416,80 416,90 " style="fill:#8d15d8; stroke-width:1; stroke:black; " description="&lt;b&gt;GYH35_RS10515&lt;/b&gt;&lt;br&gt;YciK family oxidoreductase&lt;br&gt;Location: 862125 - 862874&lt;br&gt;&lt;br&gt;&lt;b&gt;BlastP hit with PLIDEL_16770&lt;/b&gt;&lt;br&gt;Percentage identity: 58&lt;br&gt;Percentage coverage: 81&lt;br&gt;BLAST bit score: 184&lt;br&gt;E-value: 1.2e-56" locus_tag="GYH35_RS10515" class="clusterblast-orf" id="dummy-1_h1_5_8"  />
</g>
<g id="a1_009"  >
<polygon points="450,90 462,90 467,85 462,80 450,80 450,90 " style="fill:white; stroke-width:1; stroke:black; " description="&lt;b&gt;GYH35_RS10520&lt;/b&gt;&lt;br&gt;VOC family protein&lt;br&gt;Location: 862992 - 863411" locus_tag="GYH35_RS10520" class="clusterblast-orf" id="dummy-1_h1_5_9"  />
</g>
<g id="a1_0010"  >
<polygon points="467,85 472,80 501,80 501,90 472,90 467,85 " style="fill:#d86f15; stroke-width:1; stroke:black; " description="&lt;b&gt;GYH35_RS10525&lt;/b&gt;&lt;br&gt;S4 domain-containing protein&lt;br&gt;Location: 863430 - 864272&lt;br&gt;&lt;br&gt;&lt;b&gt;BlastP hit with PLIDEL_16775&lt;/b&gt;&lt;br&gt;Percentage identity: 43&lt;br&gt;Percentage coverage: 87&lt;br&gt;BLAST bit score: 201&lt;br&gt;E-value: 2e-61" locus_tag="GYH35_RS10525" class="clusterblast-orf" id="dummy-1_h1_5_10"  />
</g>
<g id="a1_0011"  >
<polygon points="505,85 510,80 551,80 551,90 510,90 505,85 " style="fill:#15d851; stroke-width:1; stroke:black; " description="&lt;b&gt;GYH35_RS10530&lt;/b&gt;&lt;br&gt;SMC-Scp complex subunit ScpB&lt;br&gt;Location: 864377 - 865543&lt;br&gt;&lt;br&gt;&lt;b&gt;BlastP hit with PLIDEL_16780&lt;/b&gt;&lt;br&gt;Percentage identity: 64&lt;br&gt;Percentage coverage: 71&lt;br&gt;BLAST bit score: 228&lt;br&gt;E-value: 4.03e-71" locus_tag="GYH35_RS10530" class="clusterblast-orf" id="dummy-1_h1_5_11"  />
</g>
<g id="a1_0012"  >
<polygon points="551,85 556,80 580,80 580,90 556,90 551,85 " style="fill:white; stroke-width:1; stroke:black; " description="&lt;b&gt;GYH35_RS10535&lt;/b&gt;&lt;br&gt;hypothetical protein&lt;br&gt;Location: 865540 - 866286" locus_tag="GYH35_RS10535" class="clusterblast-orf" id="dummy-1_h1_5_12"  />
</g>
<g id="a1_0013"  >
<polygon points="632,85 637,80 662,80 662,90 637,90 632,85 " style="fill:#1551d8; stroke-width:1; stroke:black; " description="&lt;b&gt;GYH35_RS34895&lt;/b&gt;&lt;br&gt;segregation/condensation protein A&lt;br&gt;Location: 867581 - 868339&lt;br&gt;&lt;br&gt;&lt;b&gt;BlastP hit with PLIDEL_16785&lt;/b&gt;&lt;br&gt;Percentage identity: 74&lt;br&gt;Percentage coverage: 81&lt;br&gt;BLAST bit score: 357&lt;br&gt;E-value: 1.36e-122" locus_tag="GYH35_RS34895" class="clusterblast-orf" id="dummy-1_h1_5_13"  />
</g>
<g id="a1_0014"  >
<polygon points="665,85 670,80 714,80 714,90 670,90 665,85 " style="fill:#d815c9; stroke-width:1; stroke:black; " description="&lt;b&gt;GYH35_RS10545&lt;/b&gt;&lt;br&gt;tryptophan--tRNA ligase&lt;br&gt;Location: 868435 - 869652&lt;br&gt;&lt;br&gt;&lt;b&gt;BlastP hit with PLIDEL_16790&lt;/b&gt;&lt;br&gt;Percentage identity: 74&lt;br&gt;Percentage coverage: 99&lt;br&gt;BLAST bit score: 620&lt;br&gt;E-value: 1.11e-222" locus_tag="GYH35_RS10545" class="clusterblast-orf" id="dummy-1_h1_5_14"  />
</g>
<g id="a1_0015"  >
<polygon points="719,85 724,80 743,80 743,90 724,90 719,85 " style="fill:#d8c915; stroke-width:1; stroke:black; " description="&lt;b&gt;GYH35_RS10550&lt;/b&gt;&lt;br&gt;L-threonylcarbamoyladenylate synthase&lt;br&gt;Location: 869782 - 870405&lt;br&gt;&lt;br&gt;&lt;b&gt;BlastP hit with PLIDEL_16795&lt;/b&gt;&lt;br&gt;Percentage identity: 70&lt;br&gt;Percentage coverage: 99&lt;br&gt;BLAST bit score: 290&lt;br&gt;E-value: 6.18e-99" locus_tag="GYH35_RS10550" class="clusterblast-orf" id="dummy-1_h1_5_15"  />
</g>
<g id="a1_0016"  >
<polygon points="747,90 764,90 769,85 764,80 747,80 747,90 " style="fill:#15d8ab; stroke-width:1; stroke:black; " description="&lt;b&gt;GYH35_RS10555&lt;/b&gt;&lt;br&gt;septation protein A&lt;br&gt;Location: 870488 - 871051&lt;br&gt;&lt;br&gt;&lt;b&gt;BlastP hit with PLIDEL_16800&lt;/b&gt;&lt;br&gt;Percentage identity: 57&lt;br&gt;Percentage coverage: 96&lt;br&gt;BLAST bit score: 200&lt;br&gt;E-value: 5.01e-64" locus_tag="GYH35_RS10555" class="clusterblast-orf" id="dummy-1_h1_5_16"  />
</g>
<g id="a1_0017"  >
<polygon points="769,90 775,90 780,85 775,80 769,80 769,90 " style="fill:#d8156f; stroke-width:1; stroke:black; " description="&lt;b&gt;GYH35_RS10560&lt;/b&gt;&lt;br&gt;BolA family transcriptional regulator&lt;br&gt;Location: 871048 - 871317&lt;br&gt;&lt;br&gt;&lt;b&gt;BlastP hit with PLIDEL_16810&lt;/b&gt;&lt;br&gt;Percentage identity: 55&lt;br&gt;Percentage coverage: 85&lt;br&gt;BLAST bit score: 83&lt;br&gt;E-value: 1.84e-20" locus_tag="GYH35_RS10560" class="clusterblast-orf" id="dummy-1_h1_5_17"  />
</g>
</svg>
