<svg xmlns="http://www.w3.org/2000/svg" xmlns:xlink="http://www.w3.org/1999/xlink" version="1.1" x="0" y="0" height="230" width="800" viewBox="0 0 800 230" preserveAspectRatio="none"  >
<g label="Query sequence" class="clusterblast-cluster"  >
<text x="5" y="20" class="clusterblast-acc"  >
Query sequence</text>
<line x1="10" y1="35" x2="778.0" y2="35" style="stroke-width:1; stroke:grey; "  />
<polygon points="127,40 139,40 144,35 139,30 127,30 127,40 " style="fill:#d81515; stroke-width:1; stroke:black; " description="&lt;b&gt;PLIDEL_16745&lt;/b&gt;&lt;br&gt;hypothetical protein&lt;br&gt;Location: 104 - 542" locus_tag="PLIDEL_16745" class="clusterblast-orf" id="dummy-1_q0_0_all"  />
<polygon points="143,40 166,40 171,35 166,30 143,30 143,40 " style="fill:#33d815; stroke-width:1; stroke:black; " description="&lt;b&gt;PLIDEL_16750&lt;/b&gt;&lt;br&gt;Ubiquinone biosynthesis O-methyltransferase&lt;br&gt;Location: 528 - 1245" locus_tag="PLIDEL_16750" class="clusterblast-orf" id="dummy-1_q1_0_all"  />
<polygon points="169,35 174,30 188,30 188,40 174,40 169,35 " style="fill:white; stroke-width:1; stroke:black; " description="&lt;b&gt;PLIDEL_16755&lt;/b&gt;&lt;br&gt;hypothetical protein&lt;br&gt;Location: 1199 - 1697" locus_tag="PLIDEL_16755" class="clusterblast-orf" id="dummy-1_q2_0_all"  />
<polygon points="192,35 197,30 220,30 220,40 197,40 192,35 " style="fill:white; stroke-width:1; stroke:black; " description="&lt;b&gt;PLIDEL_16760&lt;/b&gt;&lt;br&gt;hypothetical protein&lt;br&gt;Location: 1817 - 2534" locus_tag="PLIDEL_16760" class="clusterblast-orf" id="dummy-1_q3_0_all"  />
<polygon points="220,40 272,40 277,35 272,30 220,30 220,40 " style="fill:#15abd8; stroke-width:1; stroke:black; " description="&lt;b&gt;PLIDEL_16765&lt;/b&gt;&lt;br&gt;hypothetical protein&lt;br&gt;Location: 2541 - 4041" locus_tag="PLIDEL_16765" class="clusterblast-orf" id="dummy-1_q4_0_all"  />
<polygon points="284,40 301,40 306,35 301,30 284,30 284,40 " style="fill:#8d15d8; stroke-width:1; stroke:black; " description="&lt;b&gt;PLIDEL_16770&lt;/b&gt;&lt;br&gt;Putative oxoacyl-reductase&lt;br&gt;Location: 4240 - 4819" locus_tag="PLIDEL_16770" class="clusterblast-orf" id="dummy-1_q5_0_all"  />
<polygon points="305,35 310,30 337,30 337,40 310,40 305,35 " style="fill:#d86f15; stroke-width:1; stroke:black; " description="&lt;b&gt;PLIDEL_16775&lt;/b&gt;&lt;br&gt;RNA-binding S4 domain-containing protein&lt;br&gt;Location: 4790 - 5627" locus_tag="PLIDEL_16775" class="clusterblast-orf" id="dummy-1_q6_0_all"  />
<polygon points="337,35 342,30 367,30 367,40 342,40 337,35 " style="fill:#15d851; stroke-width:1; stroke:black; " description="&lt;b&gt;PLIDEL_16780&lt;/b&gt;&lt;br&gt;Segregation and condensation protein B&lt;br&gt;Location: 5635 - 6427" locus_tag="PLIDEL_16780" class="clusterblast-orf" id="dummy-1_q7_0_all"  />
<polygon points="367,35 372,30 403,30 403,40 372,40 367,35 " style="fill:#1551d8; stroke-width:1; stroke:black; " description="&lt;b&gt;PLIDEL_16785&lt;/b&gt;&lt;br&gt;Segregation and condensation protein A&lt;br&gt;Location: 6423 - 7365" locus_tag="PLIDEL_16785" class="clusterblast-orf" id="dummy-1_q8_0_all"  />
<polygon points="403,35 408,30 448,30 448,40 408,40 403,35 " style="fill:#d815c9; stroke-width:1; stroke:black; " description="&lt;b&gt;PLIDEL_16790&lt;/b&gt;&lt;br&gt;Tryptophan--tRNA ligase&lt;br&gt;Location: 7374 - 8574" locus_tag="PLIDEL_16790" class="clusterblast-orf" id="dummy-1_q9_0_all"  />
<polygon points="454,35 459,30 478,30 478,40 459,40 454,35 " style="fill:#d8c915; stroke-width:1; stroke:black; " description="&lt;b&gt;PLIDEL_16795&lt;/b&gt;&lt;br&gt;Uncharacterized protein HI 1198&lt;br&gt;Location: 8730 - 9345" locus_tag="PLIDEL_16795" class="clusterblast-orf" id="dummy-1_q10_0_all"  />
<polygon points="481,40 497,40 502,35 497,30 481,30 481,40 " style="fill:#15d8ab; stroke-width:1; stroke:black; " description="&lt;b&gt;PLIDEL_16800&lt;/b&gt;&lt;br&gt;Inner membrane-spanning protein YciB&lt;br&gt;Location: 9442 - 9988" locus_tag="PLIDEL_16800" class="clusterblast-orf" id="dummy-1_q11_0_all"  />
<polygon points="502,40 509,40 514,35 509,30 502,30 502,40 " style="fill:#3315d8; stroke-width:1; stroke:black; " description="&lt;b&gt;PLIDEL_16805&lt;/b&gt;&lt;br&gt;YCII-related domain-containing protein&lt;br&gt;Location: 9989 - 10289" locus_tag="PLIDEL_16805" class="clusterblast-orf" id="dummy-1_q12_0_all"  />
<polygon points="513,40 519,40 524,35 519,30 513,30 513,40 " style="fill:#d8156f; stroke-width:1; stroke:black; " description="&lt;b&gt;PLIDEL_16810&lt;/b&gt;&lt;br&gt;BolA family transcriptional regulator&lt;br&gt;Location: 10285 - 10561" locus_tag="PLIDEL_16810" class="clusterblast-orf" id="dummy-1_q13_0_all"  />
<polygon points="525,40 552,40 557,35 552,30 525,30 525,40 " style="fill:#8dd815; stroke-width:1; stroke:black; " description="&lt;b&gt;PLIDEL_16815&lt;/b&gt;&lt;br&gt;Peptidylprolyl isomerase&lt;br&gt;Location: 10600 - 11437" locus_tag="PLIDEL_16815" class="clusterblast-orf" id="dummy-1_q14_0_all"  />
<polygon points="584,35 589,30 590,30 590,40 589,40 584,35 " style="fill:white; stroke-width:1; stroke:black; " description="&lt;b&gt;PLIDEL_16820&lt;/b&gt;&lt;br&gt;hypothetical protein&lt;br&gt;Location: 12138 - 12303" locus_tag="PLIDEL_16820" class="clusterblast-orf" id="dummy-1_q15_0_all"  />
<polygon points="591,35 596,30 652,30 652,40 596,40 591,35 " style="fill:white; stroke-width:1; stroke:black; " description="&lt;b&gt;PLIDEL_16825&lt;/b&gt;&lt;br&gt;hypothetical protein&lt;br&gt;Location: 12344 - 13952" locus_tag="PLIDEL_16825" class="clusterblast-orf" id="dummy-1_q16_0_all"  />
</g>
<g label="NZ_SOQX01000002" description="NZ_SOQX01000002 (264480-286268): Thiohalophilus thiocyanatoxydans strain DSM ... (42% of genes show similarity), terpene" class="clusterblast-cluster"  >
<text x="5" y="70" class="clusterblast-acc"  >
<a xlink:href="https://antismash-db.secondarymetabolites.org/area?record=NZ_SOQX01000002&amp;start=264480&amp;end=286268" target="_blank">NZ_SOQX01000002 (264480-286268)</a>: Thiohalophilus thiocyanatoxydans strain DSM ... (42% of genes show similarity), terpene</text>
<line x1="10" y1="85" x2="778.0" y2="85" style="stroke-width:1; stroke:grey; "  />
</g>
<g id="a1_000"  >
<polygon points="0,85 5,80 96,80 96,90 5,90 0,85 " style="fill:white; stroke-width:1; stroke:black; " description="&lt;b&gt;EDC23_RS05005&lt;/b&gt;&lt;br&gt;DNA gyrase subunit A&lt;br&gt;Location: 285513 - 282964" locus_tag="EDC23_RS05005" class="clusterblast-orf" id="dummy-1_h1_8_0"  />
</g>
<g id="a1_001"  >
<polygon points="103,85 108,80 143,80 143,90 108,90 103,85 " style="fill:white; stroke-width:1; stroke:black; " description="&lt;b&gt;EDC23_RS05000&lt;/b&gt;&lt;br&gt;S-methyl-5-thioribose-1-phosphate isomerase&lt;br&gt;Location: 282777 - 281728" locus_tag="EDC23_RS05000" class="clusterblast-orf" id="dummy-1_h1_8_1"  />
</g>
<g id="a1_002"  >
<polygon points="166,90 211,90 216,85 211,80 166,80 166,90 " style="fill:white; stroke-width:1; stroke:black; " description="&lt;b&gt;EDC23_RS04995&lt;/b&gt;&lt;br&gt;TRZ/ATZ family hydrolase&lt;br&gt;Location: 281119 - 279803" locus_tag="EDC23_RS04995" class="clusterblast-orf" id="dummy-1_h1_8_2"  />
</g>
<g id="a1_003"  >
<polygon points="225,90 246,90 251,85 246,80 225,80 225,90 " style="fill:#33d815; stroke-width:1; stroke:black; " description="&lt;b&gt;EDC23_RS04990&lt;/b&gt;&lt;br&gt;bifunctional 2-polyprenyl-6-hydroxyphenol methylase/3-demethylubiquinol 3-O-methyltransferase UbiG&lt;br&gt;Location: 279578 - 278871&lt;br&gt;&lt;br&gt;&lt;b&gt;BlastP hit with PLIDEL_16750&lt;/b&gt;&lt;br&gt;Percentage identity: 52&lt;br&gt;Percentage coverage: 98&lt;br&gt;BLAST bit score: 245&lt;br&gt;E-value: 3.51e-80" locus_tag="EDC23_RS04990" class="clusterblast-orf" id="dummy-1_h1_8_3"  />
</g>
<g id="a1_004"  >
<polygon points="251,90 271,90 276,85 271,80 251,80 251,90 " style="fill:white; stroke-width:1; stroke:black; " description="&lt;b&gt;EDC23_RS04985&lt;/b&gt;&lt;br&gt;HAD-IA family hydrolase&lt;br&gt;Location: 278874 - 278224" locus_tag="EDC23_RS04985" class="clusterblast-orf" id="dummy-1_h1_8_4"  />
</g>
<g id="a1_005"  >
<polygon points="292,90 335,90 340,85 335,80 292,80 292,90 " style="fill:#15abd8; stroke-width:1; stroke:black; " description="&lt;b&gt;EDC23_RS04980&lt;/b&gt;&lt;br&gt;DNA recombination protein RmuC&lt;br&gt;Location: 277808 - 276540&lt;br&gt;&lt;br&gt;&lt;b&gt;BlastP hit with PLIDEL_16765&lt;/b&gt;&lt;br&gt;Percentage identity: 61&lt;br&gt;Percentage coverage: 38&lt;br&gt;BLAST bit score: 236&lt;br&gt;E-value: 2.2e-70" locus_tag="EDC23_RS04980" class="clusterblast-orf" id="dummy-1_h1_8_5"  />
</g>
<g id="a1_006"  >
<polygon points="340,85 345,80 348,80 348,90 345,90 340,85 " style="fill:white; stroke-width:1; stroke:black; " description="&lt;b&gt;EDC23_RS04975&lt;/b&gt;&lt;br&gt;hypothetical protein&lt;br&gt;Location: 276543 - 276319" locus_tag="EDC23_RS04975" class="clusterblast-orf" id="dummy-1_h1_8_6"  />
</g>
<g id="a1_007"  >
<polygon points="350,90 379,90 384,85 379,80 350,80 350,90 " style="fill:white; stroke-width:1; stroke:black; " description="&lt;b&gt;EDC23_RS04970&lt;/b&gt;&lt;br&gt;squalene synthase HpnC&lt;br&gt;Location: 276268 - 275369" locus_tag="EDC23_RS04970" class="clusterblast-orf" id="dummy-1_h1_8_7"  />
</g>
<g id="a1_008"  >
<polygon points="385,90 413,90 418,85 413,80 385,80 385,90 " style="fill:white; stroke-width:1; stroke:black; " description="&lt;b&gt;EDC23_RS04965&lt;/b&gt;&lt;br&gt;presqualene diphosphate synthase HpnD&lt;br&gt;Location: 275353 - 274481" locus_tag="EDC23_RS04965" class="clusterblast-orf" id="dummy-1_h1_8_8"  />
</g>
<g id="a1_009"  >
<polygon points="418,90 464,90 469,85 464,80 418,80 418,90 " style="fill:white; stroke-width:1; stroke:black; " description="&lt;b&gt;EDC23_RS04960&lt;/b&gt;&lt;br&gt;hydroxysqualene dehydroxylase HpnE&lt;br&gt;Location: 274481 - 273141" locus_tag="EDC23_RS04960" class="clusterblast-orf" id="dummy-1_h1_8_9"  />
</g>
<g id="a1_0010"  >
<polygon points="468,90 493,90 498,85 493,80 468,80 468,90 " style="fill:#8d15d8; stroke-width:1; stroke:black; " description="&lt;b&gt;EDC23_RS04955&lt;/b&gt;&lt;br&gt;YciK family oxidoreductase&lt;br&gt;Location: 273144 - 272377&lt;br&gt;&lt;br&gt;&lt;b&gt;BlastP hit with PLIDEL_16770&lt;/b&gt;&lt;br&gt;Percentage identity: 56&lt;br&gt;Percentage coverage: 81&lt;br&gt;BLAST bit score: 172&lt;br&gt;E-value: 9.64e-52" locus_tag="EDC23_RS04955" class="clusterblast-orf" id="dummy-1_h1_8_10"  />
</g>
<g id="a1_0011"  >
<polygon points="511,90 512,90 517,85 512,80 511,80 511,90 " style="fill:white; stroke-width:1; stroke:black; " description="&lt;b&gt;EDC23_RS14085&lt;/b&gt;&lt;br&gt;hypothetical protein&lt;br&gt;Location: 272016 - 271870" locus_tag="EDC23_RS14085" class="clusterblast-orf" id="dummy-1_h1_8_11"  />
</g>
<g id="a1_0012"  >
<polygon points="523,85 528,80 563,80 563,90 528,90 523,85 " style="fill:white; stroke-width:1; stroke:black; " description="&lt;b&gt;EDC23_RS04950&lt;/b&gt;&lt;br&gt;thioredoxin fold domain-containing protein&lt;br&gt;Location: 271695 - 270649" locus_tag="EDC23_RS04950" class="clusterblast-orf" id="dummy-1_h1_8_12"  />
</g>
<g id="a1_0013"  >
<polygon points="577,90 588,90 593,85 588,80 577,80 577,90 " style="fill:white; stroke-width:1; stroke:black; " description="&lt;b&gt;EDC23_RS04945&lt;/b&gt;&lt;br&gt;hypothetical protein&lt;br&gt;Location: 270286 - 269858" locus_tag="EDC23_RS04945" class="clusterblast-orf" id="dummy-1_h1_8_13"  />
</g>
<g id="a1_0014"  >
<polygon points="606,85 611,80 638,80 638,90 611,90 606,85 " style="fill:#d86f15; stroke-width:1; stroke:black; " description="&lt;b&gt;EDC23_RS04940&lt;/b&gt;&lt;br&gt;23S rRNA pseudouridine(2605) synthase RluB&lt;br&gt;Location: 269512 - 268676&lt;br&gt;&lt;br&gt;&lt;b&gt;BlastP hit with PLIDEL_16775&lt;/b&gt;&lt;br&gt;Percentage identity: 34&lt;br&gt;Percentage coverage: 95&lt;br&gt;BLAST bit score: 159&lt;br&gt;E-value: 2.83e-45" locus_tag="EDC23_RS04940" class="clusterblast-orf" id="dummy-1_h1_8_14"  />
</g>
<g id="a1_0015"  >
<polygon points="650,85 655,80 670,80 670,90 655,90 650,85 " style="fill:#15d851; stroke-width:1; stroke:black; " description="&lt;b&gt;EDC23_RS14245&lt;/b&gt;&lt;br&gt;SMC-Scp complex subunit ScpB&lt;br&gt;Location: 268351 - 267830&lt;br&gt;&lt;br&gt;&lt;b&gt;BlastP hit with PLIDEL_16780&lt;/b&gt;&lt;br&gt;Percentage identity: 60&lt;br&gt;Percentage coverage: 66&lt;br&gt;BLAST bit score: 198&lt;br&gt;E-value: 5.06e-62" locus_tag="EDC23_RS14245" class="clusterblast-orf" id="dummy-1_h1_8_15"  />
</g>
<g id="a1_0016"  >
<polygon points="671,85 676,80 703,80 703,90 676,90 671,85 " style="fill:#1551d8; stroke-width:1; stroke:black; " description="&lt;b&gt;EDC23_RS04930&lt;/b&gt;&lt;br&gt;segregation/condensation protein A&lt;br&gt;Location: 267811 - 266969&lt;br&gt;&lt;br&gt;&lt;b&gt;BlastP hit with PLIDEL_16785&lt;/b&gt;&lt;br&gt;Percentage identity: 66&lt;br&gt;Percentage coverage: 83&lt;br&gt;BLAST bit score: 324&lt;br&gt;E-value: 2.81e-109" locus_tag="EDC23_RS04930" class="clusterblast-orf" id="dummy-1_h1_8_16"  />
</g>
<g id="a1_0017"  >
<polygon points="703,85 708,80 747,80 747,90 708,90 703,85 " style="fill:#d815c9; stroke-width:1; stroke:black; " description="&lt;b&gt;EDC23_RS04925&lt;/b&gt;&lt;br&gt;tryptophan--tRNA ligase&lt;br&gt;Location: 266965 - 265790&lt;br&gt;&lt;br&gt;&lt;b&gt;BlastP hit with PLIDEL_16790&lt;/b&gt;&lt;br&gt;Percentage identity: 69&lt;br&gt;Percentage coverage: 98&lt;br&gt;BLAST bit score: 572&lt;br&gt;E-value: 4.93e-204" locus_tag="EDC23_RS04925" class="clusterblast-orf" id="dummy-1_h1_8_17"  />
</g>
<g id="a1_0018"  >
<polygon points="756,85 761,80 780,80 780,90 761,90 756,85 " style="fill:#d8c915; stroke-width:1; stroke:black; " description="&lt;b&gt;EDC23_RS04920&lt;/b&gt;&lt;br&gt;L-threonylcarbamoyladenylate synthase&lt;br&gt;Location: 265568 - 264939&lt;br&gt;&lt;br&gt;&lt;b&gt;BlastP hit with PLIDEL_16795&lt;/b&gt;&lt;br&gt;Percentage identity: 64&lt;br&gt;Percentage coverage: 99&lt;br&gt;BLAST bit score: 266&lt;br&gt;E-value: 3.62e-89" locus_tag="EDC23_RS04920" class="clusterblast-orf" id="dummy-1_h1_8_18"  />
</g>
</svg>
