<svg xmlns="http://www.w3.org/2000/svg" xmlns:xlink="http://www.w3.org/1999/xlink" version="1.1" x="0" y="0" height="230" width="800" viewBox="0 0 800 230" preserveAspectRatio="none"  >
<g label="Query sequence" class="clusterblast-cluster"  >
<text x="5" y="20" class="clusterblast-acc"  >
Query sequence</text>
<line x1="10" y1="35" x2="778.0" y2="35" style="stroke-width:1; stroke:grey; "  />
<polygon points="96,40 110,40 115,35 110,30 96,30 96,40 " style="fill:#d81515; stroke-width:1; stroke:black; " description="&lt;b&gt;PLIDEL_16745&lt;/b&gt;&lt;br&gt;hypothetical protein&lt;br&gt;Location: 104 - 542" locus_tag="PLIDEL_16745" class="clusterblast-orf" id="dummy-1_q0_0_all"  />
<polygon points="114,40 139,40 144,35 139,30 114,30 114,40 " style="fill:#33d815; stroke-width:1; stroke:black; " description="&lt;b&gt;PLIDEL_16750&lt;/b&gt;&lt;br&gt;Ubiquinone biosynthesis O-methyltransferase&lt;br&gt;Location: 528 - 1245" locus_tag="PLIDEL_16750" class="clusterblast-orf" id="dummy-1_q1_0_all"  />
<polygon points="142,35 147,30 164,30 164,40 147,40 142,35 " style="fill:white; stroke-width:1; stroke:black; " description="&lt;b&gt;PLIDEL_16755&lt;/b&gt;&lt;br&gt;hypothetical protein&lt;br&gt;Location: 1199 - 1697" locus_tag="PLIDEL_16755" class="clusterblast-orf" id="dummy-1_q2_0_all"  />
<polygon points="169,35 174,30 199,30 199,40 174,40 169,35 " style="fill:white; stroke-width:1; stroke:black; " description="&lt;b&gt;PLIDEL_16760&lt;/b&gt;&lt;br&gt;hypothetical protein&lt;br&gt;Location: 1817 - 2534" locus_tag="PLIDEL_16760" class="clusterblast-orf" id="dummy-1_q3_0_all"  />
<polygon points="199,40 258,40 263,35 258,30 199,30 199,40 " style="fill:#15abd8; stroke-width:1; stroke:black; " description="&lt;b&gt;PLIDEL_16765&lt;/b&gt;&lt;br&gt;hypothetical protein&lt;br&gt;Location: 2541 - 4041" locus_tag="PLIDEL_16765" class="clusterblast-orf" id="dummy-1_q4_0_all"  />
<polygon points="272,40 291,40 296,35 291,30 272,30 272,40 " style="fill:#8d15d8; stroke-width:1; stroke:black; " description="&lt;b&gt;PLIDEL_16770&lt;/b&gt;&lt;br&gt;Putative oxoacyl-reductase&lt;br&gt;Location: 4240 - 4819" locus_tag="PLIDEL_16770" class="clusterblast-orf" id="dummy-1_q5_0_all"  />
<polygon points="295,35 300,30 330,30 330,40 300,40 295,35 " style="fill:#d86f15; stroke-width:1; stroke:black; " description="&lt;b&gt;PLIDEL_16775&lt;/b&gt;&lt;br&gt;RNA-binding S4 domain-containing protein&lt;br&gt;Location: 4790 - 5627" locus_tag="PLIDEL_16775" class="clusterblast-orf" id="dummy-1_q6_0_all"  />
<polygon points="331,35 336,30 364,30 364,40 336,40 331,35 " style="fill:#15d851; stroke-width:1; stroke:black; " description="&lt;b&gt;PLIDEL_16780&lt;/b&gt;&lt;br&gt;Segregation and condensation protein B&lt;br&gt;Location: 5635 - 6427" locus_tag="PLIDEL_16780" class="clusterblast-orf" id="dummy-1_q7_0_all"  />
<polygon points="364,35 369,30 404,30 404,40 369,40 364,35 " style="fill:#1551d8; stroke-width:1; stroke:black; " description="&lt;b&gt;PLIDEL_16785&lt;/b&gt;&lt;br&gt;Segregation and condensation protein A&lt;br&gt;Location: 6423 - 7365" locus_tag="PLIDEL_16785" class="clusterblast-orf" id="dummy-1_q8_0_all"  />
<polygon points="405,35 410,30 456,30 456,40 410,40 405,35 " style="fill:#d815c9; stroke-width:1; stroke:black; " description="&lt;b&gt;PLIDEL_16790&lt;/b&gt;&lt;br&gt;Tryptophan--tRNA ligase&lt;br&gt;Location: 7374 - 8574" locus_tag="PLIDEL_16790" class="clusterblast-orf" id="dummy-1_q9_0_all"  />
<polygon points="462,35 467,30 488,30 488,40 467,40 462,35 " style="fill:#d8c915; stroke-width:1; stroke:black; " description="&lt;b&gt;PLIDEL_16795&lt;/b&gt;&lt;br&gt;Uncharacterized protein HI 1198&lt;br&gt;Location: 8730 - 9345" locus_tag="PLIDEL_16795" class="clusterblast-orf" id="dummy-1_q10_0_all"  />
<polygon points="492,40 511,40 516,35 511,30 492,30 492,40 " style="fill:#15d8ab; stroke-width:1; stroke:black; " description="&lt;b&gt;PLIDEL_16800&lt;/b&gt;&lt;br&gt;Inner membrane-spanning protein YciB&lt;br&gt;Location: 9442 - 9988" locus_tag="PLIDEL_16800" class="clusterblast-orf" id="dummy-1_q11_0_all"  />
<polygon points="516,40 523,40 528,35 523,30 516,30 516,40 " style="fill:#3315d8; stroke-width:1; stroke:black; " description="&lt;b&gt;PLIDEL_16805&lt;/b&gt;&lt;br&gt;YCII-related domain-containing protein&lt;br&gt;Location: 9989 - 10289" locus_tag="PLIDEL_16805" class="clusterblast-orf" id="dummy-1_q12_0_all"  />
<polygon points="528,40 535,40 540,35 535,30 528,30 528,40 " style="fill:#d8156f; stroke-width:1; stroke:black; " description="&lt;b&gt;PLIDEL_16810&lt;/b&gt;&lt;br&gt;BolA family transcriptional regulator&lt;br&gt;Location: 10285 - 10561" locus_tag="PLIDEL_16810" class="clusterblast-orf" id="dummy-1_q13_0_all"  />
<polygon points="542,40 572,40 577,35 572,30 542,30 542,40 " style="fill:#8dd815; stroke-width:1; stroke:black; " description="&lt;b&gt;PLIDEL_16815&lt;/b&gt;&lt;br&gt;Peptidylprolyl isomerase&lt;br&gt;Location: 10600 - 11437" locus_tag="PLIDEL_16815" class="clusterblast-orf" id="dummy-1_q14_0_all"  />
<polygon points="607,35 612,30 614,30 614,40 612,40 607,35 " style="fill:white; stroke-width:1; stroke:black; " description="&lt;b&gt;PLIDEL_16820&lt;/b&gt;&lt;br&gt;hypothetical protein&lt;br&gt;Location: 12138 - 12303" locus_tag="PLIDEL_16820" class="clusterblast-orf" id="dummy-1_q15_0_all"  />
<polygon points="616,35 621,30 684,30 684,40 621,40 616,35 " style="fill:white; stroke-width:1; stroke:black; " description="&lt;b&gt;PLIDEL_16825&lt;/b&gt;&lt;br&gt;hypothetical protein&lt;br&gt;Location: 12344 - 13952" locus_tag="PLIDEL_16825" class="clusterblast-orf" id="dummy-1_q16_0_all"  />
</g>
<g label="NZ_CP011971" description="NZ_CP011971 (1558609-1579464): Steroidobacter denitrificans strain DSM 18526 ... (64% of genes show similarity), terpene" class="clusterblast-cluster"  >
<text x="5" y="70" class="clusterblast-acc"  >
<a xlink:href="https://antismash-db.secondarymetabolites.org/area?record=NZ_CP011971&amp;start=1558609&amp;end=1579464" target="_blank">NZ_CP011971 (1558609-1579464)</a>: Steroidobacter denitrificans strain DSM 18526 ... (64% of genes show similarity), terpene</text>
<line x1="10" y1="85" x2="778.0" y2="85" style="stroke-width:1; stroke:grey; "  />
</g>
<g id="a1_000"  >
<polygon points="0,85 5,80 47,80 47,90 5,90 0,85 " style="fill:white; stroke-width:1; stroke:black; " description="&lt;b&gt;ACG33_RS07100&lt;/b&gt;&lt;br&gt;histidinol-phosphate transaminase&lt;br&gt;Location: 1579202 - 1578072" locus_tag="ACG33_RS07100" class="clusterblast-orf" id="dummy-1_h1_3_0"  />
</g>
<g id="a1_001"  >
<polygon points="47,85 52,80 100,80 100,90 52,90 47,85 " style="fill:white; stroke-width:1; stroke:black; " description="&lt;b&gt;ACG33_RS07095&lt;/b&gt;&lt;br&gt;prephenate dehydratase&lt;br&gt;Location: 1578075 - 1576831" locus_tag="ACG33_RS07095" class="clusterblast-orf" id="dummy-1_h1_3_1"  />
</g>
<g id="a1_002"  >
<polygon points="100,85 105,80 154,80 154,90 105,90 100,85 " style="fill:white; stroke-width:1; stroke:black; " description="&lt;b&gt;ACG33_RS07090&lt;/b&gt;&lt;br&gt;phosphoglycerate dehydrogenase&lt;br&gt;Location: 1576834 - 1575575" locus_tag="ACG33_RS07090" class="clusterblast-orf" id="dummy-1_h1_3_2"  />
</g>
<g id="a1_003"  >
<polygon points="153,85 158,80 199,80 199,90 158,90 153,85 " style="fill:white; stroke-width:1; stroke:black; " description="&lt;b&gt;ACG33_RS07085&lt;/b&gt;&lt;br&gt;3-phosphoserine/phosphohydroxythreonine transaminase&lt;br&gt;Location: 1575578 - 1574499" locus_tag="ACG33_RS07085" class="clusterblast-orf" id="dummy-1_h1_3_3"  />
</g>
<g id="a1_004"  >
<polygon points="203,85 208,80 314,80 314,90 208,90 203,85 " style="fill:white; stroke-width:1; stroke:black; " description="&lt;b&gt;ACG33_RS07080&lt;/b&gt;&lt;br&gt;DNA gyrase subunit A&lt;br&gt;Location: 1574406 - 1571806" locus_tag="ACG33_RS07080" class="clusterblast-orf" id="dummy-1_h1_3_4"  />
</g>
<g id="a1_005"  >
<polygon points="324,90 351,90 356,85 351,80 324,80 324,90 " style="fill:#33d815; stroke-width:1; stroke:black; " description="&lt;b&gt;ACG33_RS07075&lt;/b&gt;&lt;br&gt;bifunctional 2-polyprenyl-6-hydroxyphenol methylase/3-demethylubiquinol 3-O-methyltransferase UbiG&lt;br&gt;Location: 1571555 - 1570812&lt;br&gt;&lt;br&gt;&lt;b&gt;BlastP hit with PLIDEL_16750&lt;/b&gt;&lt;br&gt;Percentage identity: 53&lt;br&gt;Percentage coverage: 99&lt;br&gt;BLAST bit score: 232&lt;br&gt;E-value: 7.38e-75" locus_tag="ACG33_RS07075" class="clusterblast-orf" id="dummy-1_h1_3_5"  />
</g>
<g id="a1_006"  >
<polygon points="356,90 408,90 413,85 408,80 356,80 356,90 " style="fill:#15abd8; stroke-width:1; stroke:black; " description="&lt;b&gt;ACG33_RS07070&lt;/b&gt;&lt;br&gt;DNA recombination protein RmuC&lt;br&gt;Location: 1570815 - 1569475&lt;br&gt;&lt;br&gt;&lt;b&gt;BlastP hit with PLIDEL_16765&lt;/b&gt;&lt;br&gt;Percentage identity: 74&lt;br&gt;Percentage coverage: 39&lt;br&gt;BLAST bit score: 284&lt;br&gt;E-value: 1.23e-88" locus_tag="ACG33_RS07070" class="clusterblast-orf" id="dummy-1_h1_3_6"  />
</g>
<g id="a1_007"  >
<polygon points="413,90 444,90 449,85 444,80 413,80 413,90 " style="fill:#15abd8; stroke-width:1; stroke:black; " description="&lt;b&gt;ACG33_RS07065&lt;/b&gt;&lt;br&gt;squalene/phytoene synthase family protein&lt;br&gt;Location: 1569464 - 1568610&lt;br&gt;&lt;br&gt;&lt;b&gt;BlastP hit with PLIDEL_16765&lt;/b&gt;&lt;br&gt;Percentage identity: 39&lt;br&gt;Percentage coverage: 55&lt;br&gt;BLAST bit score: 162&lt;br&gt;E-value: 6.6e-44" locus_tag="ACG33_RS07065" class="clusterblast-orf" id="dummy-1_h1_3_7"  />
</g>
<g id="a1_008"  >
<polygon points="454,90 481,90 486,85 481,80 454,80 454,90 " style="fill:#8d15d8; stroke-width:1; stroke:black; " description="&lt;b&gt;ACG33_RS07060&lt;/b&gt;&lt;br&gt;YciK family oxidoreductase&lt;br&gt;Location: 1568505 - 1567756&lt;br&gt;&lt;br&gt;&lt;b&gt;BlastP hit with PLIDEL_16770&lt;/b&gt;&lt;br&gt;Percentage identity: 61&lt;br&gt;Percentage coverage: 81&lt;br&gt;BLAST bit score: 198&lt;br&gt;E-value: 4.32e-62" locus_tag="ACG33_RS07060" class="clusterblast-orf" id="dummy-1_h1_3_8"  />
</g>
<g id="a1_009"  >
<polygon points="484,85 489,80 531,80 531,90 489,90 484,85 " style="fill:#d86f15; stroke-width:1; stroke:black; " description="&lt;b&gt;ACG33_RS07055&lt;/b&gt;&lt;br&gt;S4 domain-containing protein&lt;br&gt;Location: 1567784 - 1566687&lt;br&gt;&lt;br&gt;&lt;b&gt;BlastP hit with PLIDEL_16775&lt;/b&gt;&lt;br&gt;Percentage identity: 40&lt;br&gt;Percentage coverage: 94&lt;br&gt;BLAST bit score: 202&lt;br&gt;E-value: 7.82e-61" locus_tag="ACG33_RS07055" class="clusterblast-orf" id="dummy-1_h1_3_9"  />
</g>
<g id="a1_0010"  >
<polygon points="531,85 536,80 562,80 562,90 536,90 531,85 " style="fill:#15d851; stroke-width:1; stroke:black; " description="&lt;b&gt;ACG33_RS07050&lt;/b&gt;&lt;br&gt;SMC-Scp complex subunit ScpB&lt;br&gt;Location: 1566683 - 1565943&lt;br&gt;&lt;br&gt;&lt;b&gt;BlastP hit with PLIDEL_16780&lt;/b&gt;&lt;br&gt;Percentage identity: 67&lt;br&gt;Percentage coverage: 73&lt;br&gt;BLAST bit score: 242&lt;br&gt;E-value: 2.04e-78" locus_tag="ACG33_RS07050" class="clusterblast-orf" id="dummy-1_h1_3_10"  />
</g>
<g id="a1_0011"  >
<polygon points="574,85 579,80 606,80 606,90 579,90 574,85 " style="fill:#1551d8; stroke-width:1; stroke:black; " description="&lt;b&gt;ACG33_RS07045&lt;/b&gt;&lt;br&gt;segregation/condensation protein A&lt;br&gt;Location: 1565667 - 1564909&lt;br&gt;&lt;br&gt;&lt;b&gt;BlastP hit with PLIDEL_16785&lt;/b&gt;&lt;br&gt;Percentage identity: 76&lt;br&gt;Percentage coverage: 81&lt;br&gt;BLAST bit score: 362&lt;br&gt;E-value: 1.02e-124" locus_tag="ACG33_RS07045" class="clusterblast-orf" id="dummy-1_h1_3_11"  />
</g>
<g id="a1_0012"  >
<polygon points="610,85 615,80 662,80 662,90 615,90 610,85 " style="fill:#d815c9; stroke-width:1; stroke:black; " description="&lt;b&gt;ACG33_RS07040&lt;/b&gt;&lt;br&gt;tryptophan--tRNA ligase&lt;br&gt;Location: 1564817 - 1563600&lt;br&gt;&lt;br&gt;&lt;b&gt;BlastP hit with PLIDEL_16790&lt;/b&gt;&lt;br&gt;Percentage identity: 76&lt;br&gt;Percentage coverage: 99&lt;br&gt;BLAST bit score: 642&lt;br&gt;E-value: 2.32e-231" locus_tag="ACG33_RS07040" class="clusterblast-orf" id="dummy-1_h1_3_12"  />
</g>
<g id="a1_0013"  >
<polygon points="674,85 679,80 700,80 700,90 679,90 674,85 " style="fill:#d8c915; stroke-width:1; stroke:black; " description="&lt;b&gt;ACG33_RS07035&lt;/b&gt;&lt;br&gt;L-threonylcarbamoyladenylate synthase&lt;br&gt;Location: 1563328 - 1562705&lt;br&gt;&lt;br&gt;&lt;b&gt;BlastP hit with PLIDEL_16795&lt;/b&gt;&lt;br&gt;Percentage identity: 70&lt;br&gt;Percentage coverage: 99&lt;br&gt;BLAST bit score: 299&lt;br&gt;E-value: 1.95e-102" locus_tag="ACG33_RS07035" class="clusterblast-orf" id="dummy-1_h1_3_13"  />
</g>
<g id="a1_0014"  >
<polygon points="702,90 724,90 729,85 724,80 702,80 702,90 " style="fill:#15d8ab; stroke-width:1; stroke:black; " description="&lt;b&gt;ACG33_RS07030&lt;/b&gt;&lt;br&gt;septation protein A&lt;br&gt;Location: 1562666 - 1562016&lt;br&gt;&lt;br&gt;&lt;b&gt;BlastP hit with PLIDEL_16800&lt;/b&gt;&lt;br&gt;Percentage identity: 54&lt;br&gt;Percentage coverage: 98&lt;br&gt;BLAST bit score: 194&lt;br&gt;E-value: 3.37e-61" locus_tag="ACG33_RS07030" class="clusterblast-orf" id="dummy-1_h1_3_14"  />
</g>
<g id="a1_0015"  >
<polygon points="729,90 737,90 742,85 737,80 729,80 729,90 " style="fill:white; stroke-width:1; stroke:black; " description="&lt;b&gt;ACG33_RS07025&lt;/b&gt;&lt;br&gt;BolA family transcriptional regulator&lt;br&gt;Location: 1562019 - 1561714" locus_tag="ACG33_RS07025" class="clusterblast-orf" id="dummy-1_h1_3_15"  />
</g>
<g id="a1_0016"  >
<polygon points="745,90 775,90 780,85 775,80 745,80 745,90 " style="fill:#8dd815; stroke-width:1; stroke:black; " description="&lt;b&gt;ACG33_RS07020&lt;/b&gt;&lt;br&gt;peptidylprolyl isomerase&lt;br&gt;Location: 1561647 - 1560832&lt;br&gt;&lt;br&gt;&lt;b&gt;BlastP hit with PLIDEL_16815&lt;/b&gt;&lt;br&gt;Percentage identity: 51&lt;br&gt;Percentage coverage: 86&lt;br&gt;BLAST bit score: 226&lt;br&gt;E-value: 1.22e-71" locus_tag="ACG33_RS07020" class="clusterblast-orf" id="dummy-1_h1_3_16"  />
</g>
</svg>
