<?xml version="1.0" encoding="utf-8" standalone="no"?>
<!DOCTYPE svg PUBLIC "-//W3C//DTD SVG 1.1//EN"
  "http://www.w3.org/Graphics/SVG/1.1/DTD/svg11.dtd">
<svg xmlns:xlink="http://www.w3.org/1999/xlink" width="864pt" height="864pt" viewBox="0 0 864 864" xmlns="http://www.w3.org/2000/svg" version="1.1">
 <metadata>
  <rdf:RDF xmlns:dc="http://purl.org/dc/elements/1.1/" xmlns:cc="http://creativecommons.org/ns#" xmlns:rdf="http://www.w3.org/1999/02/22-rdf-syntax-ns#">
   <cc:Work>
    <dc:type rdf:resource="http://purl.org/dc/dcmitype/StillImage"/>
    <dc:date>2025-03-29T22:41:28.841946</dc:date>
    <dc:format>image/svg+xml</dc:format>
    <dc:creator>
     <cc:Agent>
      <dc:title>Matplotlib v3.5.3, https://matplotlib.org/</dc:title>
     </cc:Agent>
    </dc:creator>
   </cc:Work>
  </rdf:RDF>
 </metadata>
 <defs>
  <style type="text/css">*{stroke-linejoin: round; stroke-linecap: butt}</style>
 </defs>
 <g id="figure_1">
  <g id="patch_1">
   <path d="M 0 864 
L 864 864 
L 864 0 
L 0 0 
z
" style="fill: #ffffff"/>
  </g>
  <g id="axes_1">
   <g id="patch_2">
    <path d="M 209.909797 240.529713 
C 207.366428 243.560782 204.882449 246.641192 202.459278 249.769185 
C 200.036106 252.897178 197.674204 256.072157 195.37492 259.292311 
L 442.906198 436.036908 
L 209.909797 240.529713 
z
" style="fill: #080174"/>
   </g>
   <g id="patch_3">
    <path d="M 195.37492 259.292311 
C 194.225305 260.90235 193.091426 262.523566 191.973445 264.155729 
C 190.855464 265.787892 189.753433 267.430924 188.667511 269.08459 
L 442.906198 436.036908 
L 195.37492 259.292311 
z
" style="fill: #cfdf39"/>
   </g>
   <g id="patch_4">
    <path d="M 188.667511 269.08459 
C 186.495615 272.392001 184.388466 275.741479 182.347266 279.131111 
C 180.306066 282.520742 178.331205 285.949882 176.423809 289.416572 
L 442.906198 436.036908 
L 188.667511 269.08459 
z
" style="fill: #72859d"/>
   </g>
   <g id="patch_5">
    <path d="M 176.423809 289.416572 
C 172.608656 296.350613 169.065597 303.430921 165.802725 310.641329 
C 162.539852 317.851736 159.559652 325.186751 156.868929 332.629621 
L 442.906198 436.036908 
L 176.423809 289.416572 
z
" style="fill: #5be977"/>
   </g>
   <g id="patch_6">
    <path d="M 156.868929 332.629621 
C 154.850999 338.211465 152.99689 343.85118 151.308985 349.541522 
C 149.621081 355.231864 148.100103 360.970395 146.748006 366.749742 
L 442.906198 436.036908 
L 156.868929 332.629621 
z
" style="fill: #20fb39"/>
   </g>
   <g id="patch_7">
    <path d="M 146.748006 366.749742 
C 143.592113 380.239161 141.361528 393.92845 140.071838 407.721956 
C 138.782148 421.515461 138.436364 435.380979 139.036901 449.221624 
L 442.906198 436.036908 
L 146.748006 366.749742 
z
" style="fill: #b858ca"/>
   </g>
   <g id="patch_8">
    <path d="M 139.036901 449.221624 
C 139.12266 451.198106 139.2277 453.173705 139.352007 455.148138 
C 139.476313 457.122571 139.619881 459.095745 139.782689 461.067377 
L 442.906198 436.036908 
L 139.036901 449.221624 
z
" style="fill: #e39ca3"/>
   </g>
   <g id="patch_9">
    <path d="M 139.782689 461.067377 
C 140.271143 466.982647 140.932642 472.882353 141.766336 478.758914 
C 142.60003 484.635475 143.605562 490.486374 144.781639 496.304093 
L 442.906198 436.036908 
L 139.782689 461.067377 
z
" style="fill: #d57a62"/>
   </g>
   <g id="patch_10">
    <path d="M 144.781639 496.304093 
C 145.957717 502.121812 147.303836 507.90386 148.818268 513.642807 
C 150.3327 519.381754 152.014795 525.075141 153.862393 530.715655 
L 442.906198 436.036908 
L 144.781639 496.304093 
z
" style="fill: #ca779d"/>
   </g>
   <g id="patch_11">
    <path d="M 153.862393 530.715655 
C 155.709991 536.356169 157.7223 541.941392 159.896735 547.46415 
C 162.07117 552.986907 164.406799 558.444832 166.900621 563.830913 
L 442.906198 436.036908 
L 153.862393 530.715655 
z
" style="fill: #a8c808"/>
   </g>
   <g id="patch_12">
    <path d="M 166.900621 563.830913 
C 172.721385 576.40242 179.394265 588.561566 186.872634 600.223388 
C 194.351003 611.88521 202.617401 623.022481 211.614068 633.55738 
L 442.906198 436.036908 
L 166.900621 563.830913 
z
" style="fill: #b81db6"/>
   </g>
   <g id="patch_13">
    <path d="M 211.614068 633.55738 
C 215.468559 638.070905 219.454343 642.470636 223.566299 646.75092 
C 227.678255 651.031205 231.91462 655.190209 236.269953 659.22259 
L 442.906198 436.036908 
L 211.614068 633.55738 
z
" style="fill: #e07721"/>
   </g>
   <g id="patch_14">
    <path d="M 236.269953 659.22259 
C 239.173393 661.910737 242.129012 664.541971 245.135122 667.114791 
C 248.141233 669.68761 251.197262 672.201525 254.301464 674.655098 
L 442.906198 436.036908 
L 236.269953 659.22259 
z
" style="fill: #63ef6c"/>
   </g>
   <g id="patch_15">
    <path d="M 254.301464 674.655098 
C 258.957953 678.335605 263.721178 681.87902 268.585021 685.280792 
C 273.448864 688.682563 278.41124 691.941234 283.465774 695.052617 
L 442.906198 436.036908 
L 254.301464 674.655098 
z
" style="fill: #c660b6"/>
   </g>
   <g id="patch_16">
    <path d="M 283.465774 695.052617 
C 288.520307 698.164 293.664834 701.126762 298.892743 703.937097 
C 304.120652 706.747431 309.429704 709.404135 314.813078 711.903794 
L 442.906198 436.036908 
L 283.465774 695.052617 
z
" style="fill: #d88200"/>
   </g>
   <g id="patch_17">
    <path d="M 314.813078 711.903794 
C 321.991309 715.236858 329.296899 718.28848 336.713164 721.05169 
C 344.129428 723.8149 351.650719 726.287593 359.25986 728.464124 
L 442.906198 436.036908 
L 314.813078 711.903794 
z
" style="fill: #542d97"/>
   </g>
   <g id="patch_18">
    <path d="M 359.25986 728.464124 
C 378.295375 733.909072 397.817148 737.482363 417.547159 739.133107 
C 437.277169 740.78385 457.121307 740.504173 476.796961 738.298058 
L 442.906198 436.036908 
L 359.25986 728.464124 
z
" style="fill: #ede5fc"/>
   </g>
   <g id="patch_19">
    <path d="M 476.796961 738.298058 
C 480.729099 737.85717 484.652261 737.339594 488.564204 736.745626 
C 492.476147 736.151657 496.376128 735.481409 500.261918 734.735264 
L 442.906198 436.036908 
L 476.796961 738.298058 
z
" style="fill: #8b6450"/>
   </g>
   <g id="patch_20">
    <path d="M 500.261918 734.735264 
C 517.758647 731.375562 534.92639 726.485 551.567007 720.120021 
C 568.207625 713.755042 584.256852 705.940228 599.529458 696.765773 
L 442.906198 436.036908 
L 500.261918 734.735264 
z
" style="fill: #d0eaaf"/>
   </g>
   <g id="patch_21">
    <path d="M 599.529458 696.765773 
C 611.405141 689.631894 622.779561 681.694971 633.573237 673.010465 
C 644.366913 664.32596 654.554646 654.914145 664.065249 644.840789 
L 442.906198 436.036908 
L 599.529458 696.765773 
z
" style="fill: #edca54"/>
   </g>
   <g id="patch_22">
    <path d="M 664.065249 644.840789 
C 666.781595 641.963713 669.441541 639.033906 672.043566 636.05304 
C 674.645592 633.072174 677.189202 630.040817 679.672945 626.9607 
L 442.906198 436.036908 
L 664.065249 644.840789 
z
" style="fill: #eb55d1"/>
   </g>
   <g id="patch_23">
    <path d="M 679.672945 626.9607 
C 682.156687 623.880583 684.580089 620.752292 686.941766 617.577614 
C 689.303443 614.402936 691.602946 611.182476 693.838962 607.918072 
L 442.906198 436.036908 
L 679.672945 626.9607 
z
" style="fill: #9ad42b"/>
   </g>
   <g id="patch_24">
    <path d="M 693.838962 607.918072 
C 702.787278 594.854245 710.701772 581.111555 717.510238 566.815376 
C 724.318704 552.519197 730.000375 537.713139 734.503416 522.532277 
L 442.906198 436.036908 
L 693.838962 607.918072 
z
" style="fill: #5decb8"/>
   </g>
   <g id="patch_25">
    <path d="M 734.503416 522.532277 
C 736.754081 514.944733 738.707738 507.272233 740.359929 499.532299 
C 742.012119 491.792365 743.361583 483.990892 744.405239 476.145696 
L 442.906198 436.036908 
L 734.503416 522.532277 
z
" style="fill: #e29a0d"/>
   </g>
   <g id="patch_26">
    <path d="M 744.405239 476.145696 
C 745.448895 468.300501 746.185948 460.417558 746.614715 452.51487 
C 747.043482 444.612183 747.163636 436.69577 746.974904 428.78371 
L 442.906198 436.036908 
L 744.405239 476.145696 
z
" style="fill: #5c910b"/>
   </g>
   <g id="patch_27">
    <path d="M 746.974904 428.78371 
C 746.644535 414.933982 745.36831 401.122994 743.155147 387.447249 
C 740.941985 373.771504 737.797051 360.262931 733.742321 347.015922 
L 442.906198 436.036908 
L 746.974904 428.78371 
z
" style="fill: #8f3c02"/>
   </g>
   <g id="patch_28">
    <path d="M 733.742321 347.015922 
C 730.267197 335.662512 726.130245 324.522325 721.35271 313.65257 
C 716.575176 302.782815 711.165252 292.202131 705.15072 281.964856 
L 442.906198 436.036908 
L 733.742321 347.015922 
z
" style="fill: #aec593"/>
   </g>
   <g id="patch_29">
    <path d="M 705.15072 281.964856 
C 700.139047 273.434537 694.714145 265.153826 688.895365 257.152263 
C 683.076585 249.1507 676.870855 241.43781 670.300314 234.041109 
L 442.906198 436.036908 
L 705.15072 281.964856 
z
" style="fill: #0cde67"/>
   </g>
   <g id="patch_30">
    <path d="M 670.300314 234.041109 
C 662.414976 225.164294 654.01661 216.756821 645.148347 208.861866 
C 636.280084 200.966912 626.957129 193.598013 617.227361 186.793014 
L 442.906198 436.036908 
L 670.300314 234.041109 
z
" style="fill: #2d5b3f"/>
   </g>
   <g id="patch_31">
    <path d="M 617.227361 186.793014 
C 612.363518 183.391243 607.401142 180.132573 602.346608 177.02119 
C 597.292074 173.909808 592.147547 170.947046 586.919638 168.136711 
L 442.906198 436.036908 
L 617.227361 186.793014 
z
" style="fill: #3cb112"/>
   </g>
   <g id="patch_32">
    <path d="M 586.919638 168.136711 
C 581.691729 165.326377 576.382677 162.669673 570.999302 160.170014 
C 565.615928 157.670355 560.160537 155.328812 554.64014 153.148392 
L 442.906198 436.036908 
L 586.919638 168.136711 
z
" style="fill: #3a1838"/>
   </g>
   <g id="patch_33">
    <path d="M 554.64014 153.148392 
C 538.069498 146.603399 520.955778 141.527023 503.496498 137.97785 
C 486.037217 134.428677 468.299802 132.420416 450.488967 131.976243 
L 442.906198 436.036908 
L 554.64014 153.148392 
z
" style="fill: #87f910"/>
   </g>
   <g id="patch_34">
    <path d="M 450.488967 131.976243 
C 446.533418 131.877598 442.576321 131.85615 438.619935 131.91191 
C 434.663549 131.967671 430.708628 132.100629 426.75743 132.31071 
L 442.906198 436.036908 
L 450.488967 131.976243 
z
" style="fill: #fc8ef0"/>
   </g>
   <g id="patch_35">
    <path d="M 426.75743 132.31071 
C 422.806232 132.52079 418.85951 132.807953 414.919517 133.172034 
C 410.979524 133.536115 407.047011 133.977045 403.124223 134.494571 
L 442.906198 436.036908 
L 426.75743 132.31071 
z
" style="fill: #45bcea"/>
   </g>
   <g id="patch_36">
    <path d="M 403.124223 134.494571 
C 397.239808 135.270892 391.379378 136.219293 385.550461 137.338556 
C 379.721545 138.457818 373.92664 139.747462 368.173191 141.205831 
L 442.906198 436.036908 
L 403.124223 134.494571 
z
" style="fill: #75bda3"/>
   </g>
   <g id="patch_37">
    <path d="M 368.173191 141.205831 
C 364.33771 142.178039 360.521566 143.224998 356.726938 144.346111 
C 352.932309 145.467223 349.159919 146.662276 345.411921 147.930587 
L 442.906198 436.036908 
L 368.173191 141.205831 
z
" style="fill: #17b53f"/>
   </g>
   <g id="patch_38">
    <path d="M 345.411921 147.930587 
C 341.663924 149.198898 337.941032 150.540224 334.245373 151.953802 
C 330.549713 153.367379 326.88199 154.852937 323.244297 156.409628 
L 442.906198 436.036908 
L 345.411921 147.930587 
z
" style="fill: #6d0fd4"/>
   </g>
   <g id="patch_39">
    <path d="M 323.244297 156.409628 
C 321.425493 157.187955 319.614327 157.984009 317.811057 158.797676 
C 316.007786 159.611343 314.212497 160.442584 312.425446 161.291281 
L 442.906198 436.036908 
L 323.244297 156.409628 
z
" style="fill: #b0916c"/>
   </g>
   <g id="patch_40">
    <path d="M 312.425446 161.291281 
C 299.911327 167.234421 287.817863 174.025613 276.229559 181.617404 
C 264.641254 189.209195 253.585164 197.58386 243.138542 206.682881 
L 442.906198 436.036908 
L 312.425446 161.291281 
z
" style="fill: #915805"/>
   </g>
   <g id="patch_41">
    <path d="M 243.138542 206.682881 
C 240.154857 209.281674 237.222169 211.938442 234.342151 214.651668 
C 231.462133 217.364894 228.635334 220.134061 225.863369 222.957588 
L 442.906198 436.036908 
L 243.138542 206.682881 
z
" style="fill: #263e68"/>
   </g>
   <g id="patch_42">
    <path d="M 225.863369 222.957588 
C 223.091403 225.781116 220.374799 228.658465 217.715107 231.587994 
C 215.055415 234.517522 212.453142 237.498672 209.909774 240.529741 
L 442.906198 436.036908 
L 225.863369 222.957588 
z
" style="fill: #939652"/>
   </g>
   <g id="matplotlib.axis_1"/>
   <g id="matplotlib.axis_2"/>
   <g id="text_1">
    <!-- BGC per Genome -->
    <g transform="translate(390.8175 97.68)scale(0.12 -0.12)">
     <defs>
      <path id="DejaVuSans-42" d="M 1259 2228 
L 1259 519 
L 2272 519 
Q 2781 519 3026 730 
Q 3272 941 3272 1375 
Q 3272 1813 3026 2020 
Q 2781 2228 2272 2228 
L 1259 2228 
z
M 1259 4147 
L 1259 2741 
L 2194 2741 
Q 2656 2741 2882 2914 
Q 3109 3088 3109 3444 
Q 3109 3797 2882 3972 
Q 2656 4147 2194 4147 
L 1259 4147 
z
M 628 4666 
L 2241 4666 
Q 2963 4666 3353 4366 
Q 3744 4066 3744 3513 
Q 3744 3084 3544 2831 
Q 3344 2578 2956 2516 
Q 3422 2416 3680 2098 
Q 3938 1781 3938 1306 
Q 3938 681 3513 340 
Q 3088 0 2303 0 
L 628 0 
L 628 4666 
z
" transform="scale(0.015625)"/>
      <path id="DejaVuSans-47" d="M 3809 666 
L 3809 1919 
L 2778 1919 
L 2778 2438 
L 4434 2438 
L 4434 434 
Q 4069 175 3628 42 
Q 3188 -91 2688 -91 
Q 1594 -91 976 548 
Q 359 1188 359 2328 
Q 359 3472 976 4111 
Q 1594 4750 2688 4750 
Q 3144 4750 3555 4637 
Q 3966 4525 4313 4306 
L 4313 3634 
Q 3963 3931 3569 4081 
Q 3175 4231 2741 4231 
Q 1884 4231 1454 3753 
Q 1025 3275 1025 2328 
Q 1025 1384 1454 906 
Q 1884 428 2741 428 
Q 3075 428 3337 486 
Q 3600 544 3809 666 
z
" transform="scale(0.015625)"/>
      <path id="DejaVuSans-43" d="M 4122 4306 
L 4122 3641 
Q 3803 3938 3442 4084 
Q 3081 4231 2675 4231 
Q 1875 4231 1450 3742 
Q 1025 3253 1025 2328 
Q 1025 1406 1450 917 
Q 1875 428 2675 428 
Q 3081 428 3442 575 
Q 3803 722 4122 1019 
L 4122 359 
Q 3791 134 3420 21 
Q 3050 -91 2638 -91 
Q 1578 -91 968 557 
Q 359 1206 359 2328 
Q 359 3453 968 4101 
Q 1578 4750 2638 4750 
Q 3056 4750 3426 4639 
Q 3797 4528 4122 4306 
z
" transform="scale(0.015625)"/>
      <path id="DejaVuSans-20" transform="scale(0.015625)"/>
      <path id="DejaVuSans-70" d="M 1159 525 
L 1159 -1331 
L 581 -1331 
L 581 3500 
L 1159 3500 
L 1159 2969 
Q 1341 3281 1617 3432 
Q 1894 3584 2278 3584 
Q 2916 3584 3314 3078 
Q 3713 2572 3713 1747 
Q 3713 922 3314 415 
Q 2916 -91 2278 -91 
Q 1894 -91 1617 61 
Q 1341 213 1159 525 
z
M 3116 1747 
Q 3116 2381 2855 2742 
Q 2594 3103 2138 3103 
Q 1681 3103 1420 2742 
Q 1159 2381 1159 1747 
Q 1159 1113 1420 752 
Q 1681 391 2138 391 
Q 2594 391 2855 752 
Q 3116 1113 3116 1747 
z
" transform="scale(0.015625)"/>
      <path id="DejaVuSans-65" d="M 3597 1894 
L 3597 1613 
L 953 1613 
Q 991 1019 1311 708 
Q 1631 397 2203 397 
Q 2534 397 2845 478 
Q 3156 559 3463 722 
L 3463 178 
Q 3153 47 2828 -22 
Q 2503 -91 2169 -91 
Q 1331 -91 842 396 
Q 353 884 353 1716 
Q 353 2575 817 3079 
Q 1281 3584 2069 3584 
Q 2775 3584 3186 3129 
Q 3597 2675 3597 1894 
z
M 3022 2063 
Q 3016 2534 2758 2815 
Q 2500 3097 2075 3097 
Q 1594 3097 1305 2825 
Q 1016 2553 972 2059 
L 3022 2063 
z
" transform="scale(0.015625)"/>
      <path id="DejaVuSans-72" d="M 2631 2963 
Q 2534 3019 2420 3045 
Q 2306 3072 2169 3072 
Q 1681 3072 1420 2755 
Q 1159 2438 1159 1844 
L 1159 0 
L 581 0 
L 581 3500 
L 1159 3500 
L 1159 2956 
Q 1341 3275 1631 3429 
Q 1922 3584 2338 3584 
Q 2397 3584 2469 3576 
Q 2541 3569 2628 3553 
L 2631 2963 
z
" transform="scale(0.015625)"/>
      <path id="DejaVuSans-6e" d="M 3513 2113 
L 3513 0 
L 2938 0 
L 2938 2094 
Q 2938 2591 2744 2837 
Q 2550 3084 2163 3084 
Q 1697 3084 1428 2787 
Q 1159 2491 1159 1978 
L 1159 0 
L 581 0 
L 581 3500 
L 1159 3500 
L 1159 2956 
Q 1366 3272 1645 3428 
Q 1925 3584 2291 3584 
Q 2894 3584 3203 3211 
Q 3513 2838 3513 2113 
z
" transform="scale(0.015625)"/>
      <path id="DejaVuSans-6f" d="M 1959 3097 
Q 1497 3097 1228 2736 
Q 959 2375 959 1747 
Q 959 1119 1226 758 
Q 1494 397 1959 397 
Q 2419 397 2687 759 
Q 2956 1122 2956 1747 
Q 2956 2369 2687 2733 
Q 2419 3097 1959 3097 
z
M 1959 3584 
Q 2709 3584 3137 3096 
Q 3566 2609 3566 1747 
Q 3566 888 3137 398 
Q 2709 -91 1959 -91 
Q 1206 -91 779 398 
Q 353 888 353 1747 
Q 353 2609 779 3096 
Q 1206 3584 1959 3584 
z
" transform="scale(0.015625)"/>
      <path id="DejaVuSans-6d" d="M 3328 2828 
Q 3544 3216 3844 3400 
Q 4144 3584 4550 3584 
Q 5097 3584 5394 3201 
Q 5691 2819 5691 2113 
L 5691 0 
L 5113 0 
L 5113 2094 
Q 5113 2597 4934 2840 
Q 4756 3084 4391 3084 
Q 3944 3084 3684 2787 
Q 3425 2491 3425 1978 
L 3425 0 
L 2847 0 
L 2847 2094 
Q 2847 2600 2669 2842 
Q 2491 3084 2119 3084 
Q 1678 3084 1418 2786 
Q 1159 2488 1159 1978 
L 1159 0 
L 581 0 
L 581 3500 
L 1159 3500 
L 1159 2956 
Q 1356 3278 1631 3431 
Q 1906 3584 2284 3584 
Q 2666 3584 2933 3390 
Q 3200 3197 3328 2828 
z
" transform="scale(0.015625)"/>
     </defs>
     <use xlink:href="#DejaVuSans-42"/>
     <use xlink:href="#DejaVuSans-47" x="66.853516"/>
     <use xlink:href="#DejaVuSans-43" x="144.34375"/>
     <use xlink:href="#DejaVuSans-20" x="214.167969"/>
     <use xlink:href="#DejaVuSans-70" x="245.955078"/>
     <use xlink:href="#DejaVuSans-65" x="309.431641"/>
     <use xlink:href="#DejaVuSans-72" x="370.955078"/>
     <use xlink:href="#DejaVuSans-20" x="412.068359"/>
     <use xlink:href="#DejaVuSans-47" x="443.855469"/>
     <use xlink:href="#DejaVuSans-65" x="521.345703"/>
     <use xlink:href="#DejaVuSans-6e" x="582.869141"/>
     <use xlink:href="#DejaVuSans-6f" x="646.248047"/>
     <use xlink:href="#DejaVuSans-6d" x="707.429688"/>
     <use xlink:href="#DejaVuSans-65" x="804.841797"/>
    </g>
   </g>
   <g id="legend_1">
    <g id="patch_43">
     <path d="M 650.707813 717.655 
L 770.6 717.655 
Q 772.6 717.655 772.6 715.655 
L 772.6 110.68 
Q 772.6 108.68 770.6 108.68 
L 650.707813 108.68 
Q 648.707813 108.68 648.707813 110.68 
L 648.707813 715.655 
Q 648.707813 717.655 650.707813 717.655 
z
" style="fill: #ffffff; opacity: 0.8; stroke: #cccccc; stroke-linejoin: miter"/>
    </g>
    <g id="patch_44">
     <path d="M 652.707813 120.278437 
L 672.707813 120.278437 
L 672.707813 113.278437 
L 652.707813 113.278437 
z
" style="fill: #080174"/>
    </g>
    <g id="text_2">
     <!-- 1492 -->
     <g transform="translate(680.707813 120.278437)scale(0.1 -0.1)">
      <defs>
       <path id="DejaVuSans-31" d="M 794 531 
L 1825 531 
L 1825 4091 
L 703 3866 
L 703 4441 
L 1819 4666 
L 2450 4666 
L 2450 531 
L 3481 531 
L 3481 0 
L 794 0 
L 794 531 
z
" transform="scale(0.015625)"/>
       <path id="DejaVuSans-34" d="M 2419 4116 
L 825 1625 
L 2419 1625 
L 2419 4116 
z
M 2253 4666 
L 3047 4666 
L 3047 1625 
L 3713 1625 
L 3713 1100 
L 3047 1100 
L 3047 0 
L 2419 0 
L 2419 1100 
L 313 1100 
L 313 1709 
L 2253 4666 
z
" transform="scale(0.015625)"/>
       <path id="DejaVuSans-39" d="M 703 97 
L 703 672 
Q 941 559 1184 500 
Q 1428 441 1663 441 
Q 2288 441 2617 861 
Q 2947 1281 2994 2138 
Q 2813 1869 2534 1725 
Q 2256 1581 1919 1581 
Q 1219 1581 811 2004 
Q 403 2428 403 3163 
Q 403 3881 828 4315 
Q 1253 4750 1959 4750 
Q 2769 4750 3195 4129 
Q 3622 3509 3622 2328 
Q 3622 1225 3098 567 
Q 2575 -91 1691 -91 
Q 1453 -91 1209 -44 
Q 966 3 703 97 
z
M 1959 2075 
Q 2384 2075 2632 2365 
Q 2881 2656 2881 3163 
Q 2881 3666 2632 3958 
Q 2384 4250 1959 4250 
Q 1534 4250 1286 3958 
Q 1038 3666 1038 3163 
Q 1038 2656 1286 2365 
Q 1534 2075 1959 2075 
z
" transform="scale(0.015625)"/>
       <path id="DejaVuSans-32" d="M 1228 531 
L 3431 531 
L 3431 0 
L 469 0 
L 469 531 
Q 828 903 1448 1529 
Q 2069 2156 2228 2338 
Q 2531 2678 2651 2914 
Q 2772 3150 2772 3378 
Q 2772 3750 2511 3984 
Q 2250 4219 1831 4219 
Q 1534 4219 1204 4116 
Q 875 4013 500 3803 
L 500 4441 
Q 881 4594 1212 4672 
Q 1544 4750 1819 4750 
Q 2544 4750 2975 4387 
Q 3406 4025 3406 3419 
Q 3406 3131 3298 2873 
Q 3191 2616 2906 2266 
Q 2828 2175 2409 1742 
Q 1991 1309 1228 531 
z
" transform="scale(0.015625)"/>
      </defs>
      <use xlink:href="#DejaVuSans-31"/>
      <use xlink:href="#DejaVuSans-34" x="63.623047"/>
      <use xlink:href="#DejaVuSans-39" x="127.246094"/>
      <use xlink:href="#DejaVuSans-32" x="190.869141"/>
     </g>
    </g>
    <g id="patch_45">
     <path d="M 652.707813 134.956562 
L 672.707813 134.956562 
L 672.707813 127.956562 
L 652.707813 127.956562 
z
" style="fill: #cfdf39"/>
    </g>
    <g id="text_3">
     <!-- 1510_sub -->
     <g transform="translate(680.707813 134.956562)scale(0.1 -0.1)">
      <defs>
       <path id="DejaVuSans-35" d="M 691 4666 
L 3169 4666 
L 3169 4134 
L 1269 4134 
L 1269 2991 
Q 1406 3038 1543 3061 
Q 1681 3084 1819 3084 
Q 2600 3084 3056 2656 
Q 3513 2228 3513 1497 
Q 3513 744 3044 326 
Q 2575 -91 1722 -91 
Q 1428 -91 1123 -41 
Q 819 9 494 109 
L 494 744 
Q 775 591 1075 516 
Q 1375 441 1709 441 
Q 2250 441 2565 725 
Q 2881 1009 2881 1497 
Q 2881 1984 2565 2268 
Q 2250 2553 1709 2553 
Q 1456 2553 1204 2497 
Q 953 2441 691 2322 
L 691 4666 
z
" transform="scale(0.015625)"/>
       <path id="DejaVuSans-30" d="M 2034 4250 
Q 1547 4250 1301 3770 
Q 1056 3291 1056 2328 
Q 1056 1369 1301 889 
Q 1547 409 2034 409 
Q 2525 409 2770 889 
Q 3016 1369 3016 2328 
Q 3016 3291 2770 3770 
Q 2525 4250 2034 4250 
z
M 2034 4750 
Q 2819 4750 3233 4129 
Q 3647 3509 3647 2328 
Q 3647 1150 3233 529 
Q 2819 -91 2034 -91 
Q 1250 -91 836 529 
Q 422 1150 422 2328 
Q 422 3509 836 4129 
Q 1250 4750 2034 4750 
z
" transform="scale(0.015625)"/>
       <path id="DejaVuSans-5f" d="M 3263 -1063 
L 3263 -1509 
L -63 -1509 
L -63 -1063 
L 3263 -1063 
z
" transform="scale(0.015625)"/>
       <path id="DejaVuSans-73" d="M 2834 3397 
L 2834 2853 
Q 2591 2978 2328 3040 
Q 2066 3103 1784 3103 
Q 1356 3103 1142 2972 
Q 928 2841 928 2578 
Q 928 2378 1081 2264 
Q 1234 2150 1697 2047 
L 1894 2003 
Q 2506 1872 2764 1633 
Q 3022 1394 3022 966 
Q 3022 478 2636 193 
Q 2250 -91 1575 -91 
Q 1294 -91 989 -36 
Q 684 19 347 128 
L 347 722 
Q 666 556 975 473 
Q 1284 391 1588 391 
Q 1994 391 2212 530 
Q 2431 669 2431 922 
Q 2431 1156 2273 1281 
Q 2116 1406 1581 1522 
L 1381 1569 
Q 847 1681 609 1914 
Q 372 2147 372 2553 
Q 372 3047 722 3315 
Q 1072 3584 1716 3584 
Q 2034 3584 2315 3537 
Q 2597 3491 2834 3397 
z
" transform="scale(0.015625)"/>
       <path id="DejaVuSans-75" d="M 544 1381 
L 544 3500 
L 1119 3500 
L 1119 1403 
Q 1119 906 1312 657 
Q 1506 409 1894 409 
Q 2359 409 2629 706 
Q 2900 1003 2900 1516 
L 2900 3500 
L 3475 3500 
L 3475 0 
L 2900 0 
L 2900 538 
Q 2691 219 2414 64 
Q 2138 -91 1772 -91 
Q 1169 -91 856 284 
Q 544 659 544 1381 
z
M 1991 3584 
L 1991 3584 
z
" transform="scale(0.015625)"/>
       <path id="DejaVuSans-62" d="M 3116 1747 
Q 3116 2381 2855 2742 
Q 2594 3103 2138 3103 
Q 1681 3103 1420 2742 
Q 1159 2381 1159 1747 
Q 1159 1113 1420 752 
Q 1681 391 2138 391 
Q 2594 391 2855 752 
Q 3116 1113 3116 1747 
z
M 1159 2969 
Q 1341 3281 1617 3432 
Q 1894 3584 2278 3584 
Q 2916 3584 3314 3078 
Q 3713 2572 3713 1747 
Q 3713 922 3314 415 
Q 2916 -91 2278 -91 
Q 1894 -91 1617 61 
Q 1341 213 1159 525 
L 1159 0 
L 581 0 
L 581 4863 
L 1159 4863 
L 1159 2969 
z
" transform="scale(0.015625)"/>
      </defs>
      <use xlink:href="#DejaVuSans-31"/>
      <use xlink:href="#DejaVuSans-35" x="63.623047"/>
      <use xlink:href="#DejaVuSans-31" x="127.246094"/>
      <use xlink:href="#DejaVuSans-30" x="190.869141"/>
      <use xlink:href="#DejaVuSans-5f" x="254.492188"/>
      <use xlink:href="#DejaVuSans-73" x="304.492188"/>
      <use xlink:href="#DejaVuSans-75" x="356.591797"/>
      <use xlink:href="#DejaVuSans-62" x="419.970703"/>
     </g>
    </g>
    <g id="patch_46">
     <path d="M 652.707813 149.912812 
L 672.707813 149.912812 
L 672.707813 142.912812 
L 652.707813 142.912812 
z
" style="fill: #72859d"/>
    </g>
    <g id="text_4">
     <!-- 1565_sub -->
     <g transform="translate(680.707813 149.912812)scale(0.1 -0.1)">
      <defs>
       <path id="DejaVuSans-36" d="M 2113 2584 
Q 1688 2584 1439 2293 
Q 1191 2003 1191 1497 
Q 1191 994 1439 701 
Q 1688 409 2113 409 
Q 2538 409 2786 701 
Q 3034 994 3034 1497 
Q 3034 2003 2786 2293 
Q 2538 2584 2113 2584 
z
M 3366 4563 
L 3366 3988 
Q 3128 4100 2886 4159 
Q 2644 4219 2406 4219 
Q 1781 4219 1451 3797 
Q 1122 3375 1075 2522 
Q 1259 2794 1537 2939 
Q 1816 3084 2150 3084 
Q 2853 3084 3261 2657 
Q 3669 2231 3669 1497 
Q 3669 778 3244 343 
Q 2819 -91 2113 -91 
Q 1303 -91 875 529 
Q 447 1150 447 2328 
Q 447 3434 972 4092 
Q 1497 4750 2381 4750 
Q 2619 4750 2861 4703 
Q 3103 4656 3366 4563 
z
" transform="scale(0.015625)"/>
      </defs>
      <use xlink:href="#DejaVuSans-31"/>
      <use xlink:href="#DejaVuSans-35" x="63.623047"/>
      <use xlink:href="#DejaVuSans-36" x="127.246094"/>
      <use xlink:href="#DejaVuSans-35" x="190.869141"/>
      <use xlink:href="#DejaVuSans-5f" x="254.492188"/>
      <use xlink:href="#DejaVuSans-73" x="304.492188"/>
      <use xlink:href="#DejaVuSans-75" x="356.591797"/>
      <use xlink:href="#DejaVuSans-62" x="419.970703"/>
     </g>
    </g>
    <g id="patch_47">
     <path d="M 652.707813 164.869062 
L 672.707813 164.869062 
L 672.707813 157.869062 
L 652.707813 157.869062 
z
" style="fill: #5be977"/>
    </g>
    <g id="text_5">
     <!-- 1736 -->
     <g transform="translate(680.707813 164.869062)scale(0.1 -0.1)">
      <defs>
       <path id="DejaVuSans-37" d="M 525 4666 
L 3525 4666 
L 3525 4397 
L 1831 0 
L 1172 0 
L 2766 4134 
L 525 4134 
L 525 4666 
z
" transform="scale(0.015625)"/>
       <path id="DejaVuSans-33" d="M 2597 2516 
Q 3050 2419 3304 2112 
Q 3559 1806 3559 1356 
Q 3559 666 3084 287 
Q 2609 -91 1734 -91 
Q 1441 -91 1130 -33 
Q 819 25 488 141 
L 488 750 
Q 750 597 1062 519 
Q 1375 441 1716 441 
Q 2309 441 2620 675 
Q 2931 909 2931 1356 
Q 2931 1769 2642 2001 
Q 2353 2234 1838 2234 
L 1294 2234 
L 1294 2753 
L 1863 2753 
Q 2328 2753 2575 2939 
Q 2822 3125 2822 3475 
Q 2822 3834 2567 4026 
Q 2313 4219 1838 4219 
Q 1578 4219 1281 4162 
Q 984 4106 628 3988 
L 628 4550 
Q 988 4650 1302 4700 
Q 1616 4750 1894 4750 
Q 2613 4750 3031 4423 
Q 3450 4097 3450 3541 
Q 3450 3153 3228 2886 
Q 3006 2619 2597 2516 
z
" transform="scale(0.015625)"/>
      </defs>
      <use xlink:href="#DejaVuSans-31"/>
      <use xlink:href="#DejaVuSans-37" x="63.623047"/>
      <use xlink:href="#DejaVuSans-33" x="127.246094"/>
      <use xlink:href="#DejaVuSans-36" x="190.869141"/>
     </g>
    </g>
    <g id="patch_48">
     <path d="M 652.707813 179.547187 
L 672.707813 179.547187 
L 672.707813 172.547187 
L 652.707813 172.547187 
z
" style="fill: #20fb39"/>
    </g>
    <g id="text_6">
     <!-- 1912 -->
     <g transform="translate(680.707813 179.547187)scale(0.1 -0.1)">
      <use xlink:href="#DejaVuSans-31"/>
      <use xlink:href="#DejaVuSans-39" x="63.623047"/>
      <use xlink:href="#DejaVuSans-31" x="127.246094"/>
      <use xlink:href="#DejaVuSans-32" x="190.869141"/>
     </g>
    </g>
    <g id="patch_49">
     <path d="M 652.707813 194.225312 
L 672.707813 194.225312 
L 672.707813 187.225312 
L 652.707813 187.225312 
z
" style="fill: #b858ca"/>
    </g>
    <g id="text_7">
     <!-- 2169_sub -->
     <g transform="translate(680.707813 194.225312)scale(0.1 -0.1)">
      <use xlink:href="#DejaVuSans-32"/>
      <use xlink:href="#DejaVuSans-31" x="63.623047"/>
      <use xlink:href="#DejaVuSans-36" x="127.246094"/>
      <use xlink:href="#DejaVuSans-39" x="190.869141"/>
      <use xlink:href="#DejaVuSans-5f" x="254.492188"/>
      <use xlink:href="#DejaVuSans-73" x="304.492188"/>
      <use xlink:href="#DejaVuSans-75" x="356.591797"/>
      <use xlink:href="#DejaVuSans-62" x="419.970703"/>
     </g>
    </g>
    <g id="patch_50">
     <path d="M 652.707813 209.181562 
L 672.707813 209.181562 
L 672.707813 202.181562 
L 652.707813 202.181562 
z
" style="fill: #e39ca3"/>
    </g>
    <g id="text_8">
     <!-- 2379 -->
     <g transform="translate(680.707813 209.181562)scale(0.1 -0.1)">
      <use xlink:href="#DejaVuSans-32"/>
      <use xlink:href="#DejaVuSans-33" x="63.623047"/>
      <use xlink:href="#DejaVuSans-37" x="127.246094"/>
      <use xlink:href="#DejaVuSans-39" x="190.869141"/>
     </g>
    </g>
    <g id="patch_51">
     <path d="M 652.707813 223.859687 
L 672.707813 223.859687 
L 672.707813 216.859687 
L 652.707813 216.859687 
z
" style="fill: #d57a62"/>
    </g>
    <g id="text_9">
     <!-- 3945 -->
     <g transform="translate(680.707813 223.859687)scale(0.1 -0.1)">
      <use xlink:href="#DejaVuSans-33"/>
      <use xlink:href="#DejaVuSans-39" x="63.623047"/>
      <use xlink:href="#DejaVuSans-34" x="127.246094"/>
      <use xlink:href="#DejaVuSans-35" x="190.869141"/>
     </g>
    </g>
    <g id="patch_52">
     <path d="M 652.707813 238.537812 
L 672.707813 238.537812 
L 672.707813 231.537812 
L 652.707813 231.537812 
z
" style="fill: #ca779d"/>
    </g>
    <g id="text_10">
     <!-- 416 -->
     <g transform="translate(680.707813 238.537812)scale(0.1 -0.1)">
      <use xlink:href="#DejaVuSans-34"/>
      <use xlink:href="#DejaVuSans-31" x="63.623047"/>
      <use xlink:href="#DejaVuSans-36" x="127.246094"/>
     </g>
    </g>
    <g id="patch_53">
     <path d="M 652.707813 253.215937 
L 672.707813 253.215937 
L 672.707813 246.215937 
L 652.707813 246.215937 
z
" style="fill: #a8c808"/>
    </g>
    <g id="text_11">
     <!-- 481_sub -->
     <g transform="translate(680.707813 253.215937)scale(0.1 -0.1)">
      <defs>
       <path id="DejaVuSans-38" d="M 2034 2216 
Q 1584 2216 1326 1975 
Q 1069 1734 1069 1313 
Q 1069 891 1326 650 
Q 1584 409 2034 409 
Q 2484 409 2743 651 
Q 3003 894 3003 1313 
Q 3003 1734 2745 1975 
Q 2488 2216 2034 2216 
z
M 1403 2484 
Q 997 2584 770 2862 
Q 544 3141 544 3541 
Q 544 4100 942 4425 
Q 1341 4750 2034 4750 
Q 2731 4750 3128 4425 
Q 3525 4100 3525 3541 
Q 3525 3141 3298 2862 
Q 3072 2584 2669 2484 
Q 3125 2378 3379 2068 
Q 3634 1759 3634 1313 
Q 3634 634 3220 271 
Q 2806 -91 2034 -91 
Q 1263 -91 848 271 
Q 434 634 434 1313 
Q 434 1759 690 2068 
Q 947 2378 1403 2484 
z
M 1172 3481 
Q 1172 3119 1398 2916 
Q 1625 2713 2034 2713 
Q 2441 2713 2670 2916 
Q 2900 3119 2900 3481 
Q 2900 3844 2670 4047 
Q 2441 4250 2034 4250 
Q 1625 4250 1398 4047 
Q 1172 3844 1172 3481 
z
" transform="scale(0.015625)"/>
      </defs>
      <use xlink:href="#DejaVuSans-34"/>
      <use xlink:href="#DejaVuSans-38" x="63.623047"/>
      <use xlink:href="#DejaVuSans-31" x="127.246094"/>
      <use xlink:href="#DejaVuSans-5f" x="190.869141"/>
      <use xlink:href="#DejaVuSans-73" x="240.869141"/>
      <use xlink:href="#DejaVuSans-75" x="292.96875"/>
      <use xlink:href="#DejaVuSans-62" x="356.347656"/>
     </g>
    </g>
    <g id="patch_54">
     <path d="M 652.707813 268.172187 
L 672.707813 268.172187 
L 672.707813 261.172187 
L 652.707813 261.172187 
z
" style="fill: #b81db6"/>
    </g>
    <g id="text_12">
     <!-- 483 -->
     <g transform="translate(680.707813 268.172187)scale(0.1 -0.1)">
      <use xlink:href="#DejaVuSans-34"/>
      <use xlink:href="#DejaVuSans-38" x="63.623047"/>
      <use xlink:href="#DejaVuSans-33" x="127.246094"/>
     </g>
    </g>
    <g id="patch_55">
     <path d="M 652.707813 282.850312 
L 672.707813 282.850312 
L 672.707813 275.850312 
L 652.707813 275.850312 
z
" style="fill: #e07721"/>
    </g>
    <g id="text_13">
     <!-- 690 -->
     <g transform="translate(680.707813 282.850312)scale(0.1 -0.1)">
      <use xlink:href="#DejaVuSans-36"/>
      <use xlink:href="#DejaVuSans-39" x="63.623047"/>
      <use xlink:href="#DejaVuSans-30" x="127.246094"/>
     </g>
    </g>
    <g id="patch_56">
     <path d="M 652.707813 297.528437 
L 672.707813 297.528437 
L 672.707813 290.528437 
L 652.707813 290.528437 
z
" style="fill: #63ef6c"/>
    </g>
    <g id="text_14">
     <!-- CONCOCT.14_sub -->
     <g transform="translate(680.707813 297.528437)scale(0.1 -0.1)">
      <defs>
       <path id="DejaVuSans-4f" d="M 2522 4238 
Q 1834 4238 1429 3725 
Q 1025 3213 1025 2328 
Q 1025 1447 1429 934 
Q 1834 422 2522 422 
Q 3209 422 3611 934 
Q 4013 1447 4013 2328 
Q 4013 3213 3611 3725 
Q 3209 4238 2522 4238 
z
M 2522 4750 
Q 3503 4750 4090 4092 
Q 4678 3434 4678 2328 
Q 4678 1225 4090 567 
Q 3503 -91 2522 -91 
Q 1538 -91 948 565 
Q 359 1222 359 2328 
Q 359 3434 948 4092 
Q 1538 4750 2522 4750 
z
" transform="scale(0.015625)"/>
       <path id="DejaVuSans-4e" d="M 628 4666 
L 1478 4666 
L 3547 763 
L 3547 4666 
L 4159 4666 
L 4159 0 
L 3309 0 
L 1241 3903 
L 1241 0 
L 628 0 
L 628 4666 
z
" transform="scale(0.015625)"/>
       <path id="DejaVuSans-54" d="M -19 4666 
L 3928 4666 
L 3928 4134 
L 2272 4134 
L 2272 0 
L 1638 0 
L 1638 4134 
L -19 4134 
L -19 4666 
z
" transform="scale(0.015625)"/>
       <path id="DejaVuSans-2e" d="M 684 794 
L 1344 794 
L 1344 0 
L 684 0 
L 684 794 
z
" transform="scale(0.015625)"/>
      </defs>
      <use xlink:href="#DejaVuSans-43"/>
      <use xlink:href="#DejaVuSans-4f" x="69.824219"/>
      <use xlink:href="#DejaVuSans-4e" x="148.535156"/>
      <use xlink:href="#DejaVuSans-43" x="223.339844"/>
      <use xlink:href="#DejaVuSans-4f" x="293.164062"/>
      <use xlink:href="#DejaVuSans-43" x="371.875"/>
      <use xlink:href="#DejaVuSans-54" x="441.699219"/>
      <use xlink:href="#DejaVuSans-2e" x="490.908203"/>
      <use xlink:href="#DejaVuSans-31" x="522.695312"/>
      <use xlink:href="#DejaVuSans-34" x="586.318359"/>
      <use xlink:href="#DejaVuSans-5f" x="649.941406"/>
      <use xlink:href="#DejaVuSans-73" x="699.941406"/>
      <use xlink:href="#DejaVuSans-75" x="752.041016"/>
      <use xlink:href="#DejaVuSans-62" x="815.419922"/>
     </g>
    </g>
    <g id="patch_57">
     <path d="M 652.707813 312.484687 
L 672.707813 312.484687 
L 672.707813 305.484687 
L 652.707813 305.484687 
z
" style="fill: #c660b6"/>
    </g>
    <g id="text_15">
     <!-- CONCOCT.16_sub -->
     <g transform="translate(680.707813 312.484687)scale(0.1 -0.1)">
      <use xlink:href="#DejaVuSans-43"/>
      <use xlink:href="#DejaVuSans-4f" x="69.824219"/>
      <use xlink:href="#DejaVuSans-4e" x="148.535156"/>
      <use xlink:href="#DejaVuSans-43" x="223.339844"/>
      <use xlink:href="#DejaVuSans-4f" x="293.164062"/>
      <use xlink:href="#DejaVuSans-43" x="371.875"/>
      <use xlink:href="#DejaVuSans-54" x="441.699219"/>
      <use xlink:href="#DejaVuSans-2e" x="490.908203"/>
      <use xlink:href="#DejaVuSans-31" x="522.695312"/>
      <use xlink:href="#DejaVuSans-36" x="586.318359"/>
      <use xlink:href="#DejaVuSans-5f" x="649.941406"/>
      <use xlink:href="#DejaVuSans-73" x="699.941406"/>
      <use xlink:href="#DejaVuSans-75" x="752.041016"/>
      <use xlink:href="#DejaVuSans-62" x="815.419922"/>
     </g>
    </g>
    <g id="patch_58">
     <path d="M 652.707813 327.440938 
L 672.707813 327.440938 
L 672.707813 320.440938 
L 652.707813 320.440938 
z
" style="fill: #d88200"/>
    </g>
    <g id="text_16">
     <!-- CONCOCT.6 -->
     <g transform="translate(680.707813 327.440938)scale(0.1 -0.1)">
      <use xlink:href="#DejaVuSans-43"/>
      <use xlink:href="#DejaVuSans-4f" x="69.824219"/>
      <use xlink:href="#DejaVuSans-4e" x="148.535156"/>
      <use xlink:href="#DejaVuSans-43" x="223.339844"/>
      <use xlink:href="#DejaVuSans-4f" x="293.164062"/>
      <use xlink:href="#DejaVuSans-43" x="371.875"/>
      <use xlink:href="#DejaVuSans-54" x="441.699219"/>
      <use xlink:href="#DejaVuSans-2e" x="490.908203"/>
      <use xlink:href="#DejaVuSans-36" x="522.695312"/>
     </g>
    </g>
    <g id="patch_59">
     <path d="M 652.707813 342.119062 
L 672.707813 342.119062 
L 672.707813 335.119062 
L 652.707813 335.119062 
z
" style="fill: #542d97"/>
    </g>
    <g id="text_17">
     <!-- CONCOCT.8 -->
     <g transform="translate(680.707813 342.119062)scale(0.1 -0.1)">
      <use xlink:href="#DejaVuSans-43"/>
      <use xlink:href="#DejaVuSans-4f" x="69.824219"/>
      <use xlink:href="#DejaVuSans-4e" x="148.535156"/>
      <use xlink:href="#DejaVuSans-43" x="223.339844"/>
      <use xlink:href="#DejaVuSans-4f" x="293.164062"/>
      <use xlink:href="#DejaVuSans-43" x="371.875"/>
      <use xlink:href="#DejaVuSans-54" x="441.699219"/>
      <use xlink:href="#DejaVuSans-2e" x="490.908203"/>
      <use xlink:href="#DejaVuSans-38" x="522.695312"/>
     </g>
    </g>
    <g id="patch_60">
     <path d="M 652.707813 356.797187 
L 672.707813 356.797187 
L 672.707813 349.797187 
L 652.707813 349.797187 
z
" style="fill: #ede5fc"/>
    </g>
    <g id="text_18">
     <!-- bins.029_sub -->
     <g transform="translate(680.707813 356.797187)scale(0.1 -0.1)">
      <defs>
       <path id="DejaVuSans-69" d="M 603 3500 
L 1178 3500 
L 1178 0 
L 603 0 
L 603 3500 
z
M 603 4863 
L 1178 4863 
L 1178 4134 
L 603 4134 
L 603 4863 
z
" transform="scale(0.015625)"/>
      </defs>
      <use xlink:href="#DejaVuSans-62"/>
      <use xlink:href="#DejaVuSans-69" x="63.476562"/>
      <use xlink:href="#DejaVuSans-6e" x="91.259766"/>
      <use xlink:href="#DejaVuSans-73" x="154.638672"/>
      <use xlink:href="#DejaVuSans-2e" x="206.738281"/>
      <use xlink:href="#DejaVuSans-30" x="238.525391"/>
      <use xlink:href="#DejaVuSans-32" x="302.148438"/>
      <use xlink:href="#DejaVuSans-39" x="365.771484"/>
      <use xlink:href="#DejaVuSans-5f" x="429.394531"/>
      <use xlink:href="#DejaVuSans-73" x="479.394531"/>
      <use xlink:href="#DejaVuSans-75" x="531.494141"/>
      <use xlink:href="#DejaVuSans-62" x="594.873047"/>
     </g>
    </g>
    <g id="patch_61">
     <path d="M 652.707813 371.753437 
L 672.707813 371.753437 
L 672.707813 364.753437 
L 652.707813 364.753437 
z
" style="fill: #8b6450"/>
    </g>
    <g id="text_19">
     <!-- bins.049_sub -->
     <g transform="translate(680.707813 371.753437)scale(0.1 -0.1)">
      <use xlink:href="#DejaVuSans-62"/>
      <use xlink:href="#DejaVuSans-69" x="63.476562"/>
      <use xlink:href="#DejaVuSans-6e" x="91.259766"/>
      <use xlink:href="#DejaVuSans-73" x="154.638672"/>
      <use xlink:href="#DejaVuSans-2e" x="206.738281"/>
      <use xlink:href="#DejaVuSans-30" x="238.525391"/>
      <use xlink:href="#DejaVuSans-34" x="302.148438"/>
      <use xlink:href="#DejaVuSans-39" x="365.771484"/>
      <use xlink:href="#DejaVuSans-5f" x="429.394531"/>
      <use xlink:href="#DejaVuSans-73" x="479.394531"/>
      <use xlink:href="#DejaVuSans-75" x="531.494141"/>
      <use xlink:href="#DejaVuSans-62" x="594.873047"/>
     </g>
    </g>
    <g id="patch_62">
     <path d="M 652.707813 386.709687 
L 672.707813 386.709687 
L 672.707813 379.709687 
L 652.707813 379.709687 
z
" style="fill: #d0eaaf"/>
    </g>
    <g id="text_20">
     <!-- bins.059_sub -->
     <g transform="translate(680.707813 386.709687)scale(0.1 -0.1)">
      <use xlink:href="#DejaVuSans-62"/>
      <use xlink:href="#DejaVuSans-69" x="63.476562"/>
      <use xlink:href="#DejaVuSans-6e" x="91.259766"/>
      <use xlink:href="#DejaVuSans-73" x="154.638672"/>
      <use xlink:href="#DejaVuSans-2e" x="206.738281"/>
      <use xlink:href="#DejaVuSans-30" x="238.525391"/>
      <use xlink:href="#DejaVuSans-35" x="302.148438"/>
      <use xlink:href="#DejaVuSans-39" x="365.771484"/>
      <use xlink:href="#DejaVuSans-5f" x="429.394531"/>
      <use xlink:href="#DejaVuSans-73" x="479.394531"/>
      <use xlink:href="#DejaVuSans-75" x="531.494141"/>
      <use xlink:href="#DejaVuSans-62" x="594.873047"/>
     </g>
    </g>
    <g id="patch_63">
     <path d="M 652.707813 401.665937 
L 672.707813 401.665937 
L 672.707813 394.665937 
L 652.707813 394.665937 
z
" style="fill: #edca54"/>
    </g>
    <g id="text_21">
     <!-- bins.10 -->
     <g transform="translate(680.707813 401.665937)scale(0.1 -0.1)">
      <use xlink:href="#DejaVuSans-62"/>
      <use xlink:href="#DejaVuSans-69" x="63.476562"/>
      <use xlink:href="#DejaVuSans-6e" x="91.259766"/>
      <use xlink:href="#DejaVuSans-73" x="154.638672"/>
      <use xlink:href="#DejaVuSans-2e" x="206.738281"/>
      <use xlink:href="#DejaVuSans-31" x="238.525391"/>
      <use xlink:href="#DejaVuSans-30" x="302.148438"/>
     </g>
    </g>
    <g id="patch_64">
     <path d="M 652.707813 416.344063 
L 672.707813 416.344063 
L 672.707813 409.344063 
L 652.707813 409.344063 
z
" style="fill: #eb55d1"/>
    </g>
    <g id="text_22">
     <!-- bins.101 -->
     <g transform="translate(680.707813 416.344063)scale(0.1 -0.1)">
      <use xlink:href="#DejaVuSans-62"/>
      <use xlink:href="#DejaVuSans-69" x="63.476562"/>
      <use xlink:href="#DejaVuSans-6e" x="91.259766"/>
      <use xlink:href="#DejaVuSans-73" x="154.638672"/>
      <use xlink:href="#DejaVuSans-2e" x="206.738281"/>
      <use xlink:href="#DejaVuSans-31" x="238.525391"/>
      <use xlink:href="#DejaVuSans-30" x="302.148438"/>
      <use xlink:href="#DejaVuSans-31" x="365.771484"/>
     </g>
    </g>
    <g id="patch_65">
     <path d="M 652.707813 431.022188 
L 672.707813 431.022188 
L 672.707813 424.022188 
L 652.707813 424.022188 
z
" style="fill: #9ad42b"/>
    </g>
    <g id="text_23">
     <!-- bins.107 -->
     <g transform="translate(680.707813 431.022188)scale(0.1 -0.1)">
      <use xlink:href="#DejaVuSans-62"/>
      <use xlink:href="#DejaVuSans-69" x="63.476562"/>
      <use xlink:href="#DejaVuSans-6e" x="91.259766"/>
      <use xlink:href="#DejaVuSans-73" x="154.638672"/>
      <use xlink:href="#DejaVuSans-2e" x="206.738281"/>
      <use xlink:href="#DejaVuSans-31" x="238.525391"/>
      <use xlink:href="#DejaVuSans-30" x="302.148438"/>
      <use xlink:href="#DejaVuSans-37" x="365.771484"/>
     </g>
    </g>
    <g id="patch_66">
     <path d="M 652.707813 445.700313 
L 672.707813 445.700313 
L 672.707813 438.700313 
L 652.707813 438.700313 
z
" style="fill: #5decb8"/>
    </g>
    <g id="text_24">
     <!-- bins.110 -->
     <g transform="translate(680.707813 445.700313)scale(0.1 -0.1)">
      <use xlink:href="#DejaVuSans-62"/>
      <use xlink:href="#DejaVuSans-69" x="63.476562"/>
      <use xlink:href="#DejaVuSans-6e" x="91.259766"/>
      <use xlink:href="#DejaVuSans-73" x="154.638672"/>
      <use xlink:href="#DejaVuSans-2e" x="206.738281"/>
      <use xlink:href="#DejaVuSans-31" x="238.525391"/>
      <use xlink:href="#DejaVuSans-31" x="302.148438"/>
      <use xlink:href="#DejaVuSans-30" x="365.771484"/>
     </g>
    </g>
    <g id="patch_67">
     <path d="M 652.707813 460.378438 
L 672.707813 460.378438 
L 672.707813 453.378438 
L 652.707813 453.378438 
z
" style="fill: #e29a0d"/>
    </g>
    <g id="text_25">
     <!-- bins.117 -->
     <g transform="translate(680.707813 460.378438)scale(0.1 -0.1)">
      <use xlink:href="#DejaVuSans-62"/>
      <use xlink:href="#DejaVuSans-69" x="63.476562"/>
      <use xlink:href="#DejaVuSans-6e" x="91.259766"/>
      <use xlink:href="#DejaVuSans-73" x="154.638672"/>
      <use xlink:href="#DejaVuSans-2e" x="206.738281"/>
      <use xlink:href="#DejaVuSans-31" x="238.525391"/>
      <use xlink:href="#DejaVuSans-31" x="302.148438"/>
      <use xlink:href="#DejaVuSans-37" x="365.771484"/>
     </g>
    </g>
    <g id="patch_68">
     <path d="M 652.707813 475.056563 
L 672.707813 475.056563 
L 672.707813 468.056563 
L 652.707813 468.056563 
z
" style="fill: #5c910b"/>
    </g>
    <g id="text_26">
     <!-- bins.128_sub -->
     <g transform="translate(680.707813 475.056563)scale(0.1 -0.1)">
      <use xlink:href="#DejaVuSans-62"/>
      <use xlink:href="#DejaVuSans-69" x="63.476562"/>
      <use xlink:href="#DejaVuSans-6e" x="91.259766"/>
      <use xlink:href="#DejaVuSans-73" x="154.638672"/>
      <use xlink:href="#DejaVuSans-2e" x="206.738281"/>
      <use xlink:href="#DejaVuSans-31" x="238.525391"/>
      <use xlink:href="#DejaVuSans-32" x="302.148438"/>
      <use xlink:href="#DejaVuSans-38" x="365.771484"/>
      <use xlink:href="#DejaVuSans-5f" x="429.394531"/>
      <use xlink:href="#DejaVuSans-73" x="479.394531"/>
      <use xlink:href="#DejaVuSans-75" x="531.494141"/>
      <use xlink:href="#DejaVuSans-62" x="594.873047"/>
     </g>
    </g>
    <g id="patch_69">
     <path d="M 652.707813 490.012813 
L 672.707813 490.012813 
L 672.707813 483.012813 
L 652.707813 483.012813 
z
" style="fill: #8f3c02"/>
    </g>
    <g id="text_27">
     <!-- bins.13 -->
     <g transform="translate(680.707813 490.012813)scale(0.1 -0.1)">
      <use xlink:href="#DejaVuSans-62"/>
      <use xlink:href="#DejaVuSans-69" x="63.476562"/>
      <use xlink:href="#DejaVuSans-6e" x="91.259766"/>
      <use xlink:href="#DejaVuSans-73" x="154.638672"/>
      <use xlink:href="#DejaVuSans-2e" x="206.738281"/>
      <use xlink:href="#DejaVuSans-31" x="238.525391"/>
      <use xlink:href="#DejaVuSans-33" x="302.148438"/>
     </g>
    </g>
    <g id="patch_70">
     <path d="M 652.707813 504.690938 
L 672.707813 504.690938 
L 672.707813 497.690938 
L 652.707813 497.690938 
z
" style="fill: #aec593"/>
    </g>
    <g id="text_28">
     <!-- bins.132 -->
     <g transform="translate(680.707813 504.690938)scale(0.1 -0.1)">
      <use xlink:href="#DejaVuSans-62"/>
      <use xlink:href="#DejaVuSans-69" x="63.476562"/>
      <use xlink:href="#DejaVuSans-6e" x="91.259766"/>
      <use xlink:href="#DejaVuSans-73" x="154.638672"/>
      <use xlink:href="#DejaVuSans-2e" x="206.738281"/>
      <use xlink:href="#DejaVuSans-31" x="238.525391"/>
      <use xlink:href="#DejaVuSans-33" x="302.148438"/>
      <use xlink:href="#DejaVuSans-32" x="365.771484"/>
     </g>
    </g>
    <g id="patch_71">
     <path d="M 652.707813 519.369063 
L 672.707813 519.369063 
L 672.707813 512.369063 
L 652.707813 512.369063 
z
" style="fill: #0cde67"/>
    </g>
    <g id="text_29">
     <!-- bins.133_sub -->
     <g transform="translate(680.707813 519.369063)scale(0.1 -0.1)">
      <use xlink:href="#DejaVuSans-62"/>
      <use xlink:href="#DejaVuSans-69" x="63.476562"/>
      <use xlink:href="#DejaVuSans-6e" x="91.259766"/>
      <use xlink:href="#DejaVuSans-73" x="154.638672"/>
      <use xlink:href="#DejaVuSans-2e" x="206.738281"/>
      <use xlink:href="#DejaVuSans-31" x="238.525391"/>
      <use xlink:href="#DejaVuSans-33" x="302.148438"/>
      <use xlink:href="#DejaVuSans-33" x="365.771484"/>
      <use xlink:href="#DejaVuSans-5f" x="429.394531"/>
      <use xlink:href="#DejaVuSans-73" x="479.394531"/>
      <use xlink:href="#DejaVuSans-75" x="531.494141"/>
      <use xlink:href="#DejaVuSans-62" x="594.873047"/>
     </g>
    </g>
    <g id="patch_72">
     <path d="M 652.707813 534.325313 
L 672.707813 534.325313 
L 672.707813 527.325313 
L 652.707813 527.325313 
z
" style="fill: #2d5b3f"/>
    </g>
    <g id="text_30">
     <!-- bins.1_sub -->
     <g transform="translate(680.707813 534.325313)scale(0.1 -0.1)">
      <use xlink:href="#DejaVuSans-62"/>
      <use xlink:href="#DejaVuSans-69" x="63.476562"/>
      <use xlink:href="#DejaVuSans-6e" x="91.259766"/>
      <use xlink:href="#DejaVuSans-73" x="154.638672"/>
      <use xlink:href="#DejaVuSans-2e" x="206.738281"/>
      <use xlink:href="#DejaVuSans-31" x="238.525391"/>
      <use xlink:href="#DejaVuSans-5f" x="302.148438"/>
      <use xlink:href="#DejaVuSans-73" x="352.148438"/>
      <use xlink:href="#DejaVuSans-75" x="404.248047"/>
      <use xlink:href="#DejaVuSans-62" x="467.626953"/>
     </g>
    </g>
    <g id="patch_73">
     <path d="M 652.707813 549.281563 
L 672.707813 549.281563 
L 672.707813 542.281563 
L 652.707813 542.281563 
z
" style="fill: #3cb112"/>
    </g>
    <g id="text_31">
     <!-- bins.30_sub -->
     <g transform="translate(680.707813 549.281563)scale(0.1 -0.1)">
      <use xlink:href="#DejaVuSans-62"/>
      <use xlink:href="#DejaVuSans-69" x="63.476562"/>
      <use xlink:href="#DejaVuSans-6e" x="91.259766"/>
      <use xlink:href="#DejaVuSans-73" x="154.638672"/>
      <use xlink:href="#DejaVuSans-2e" x="206.738281"/>
      <use xlink:href="#DejaVuSans-33" x="238.525391"/>
      <use xlink:href="#DejaVuSans-30" x="302.148438"/>
      <use xlink:href="#DejaVuSans-5f" x="365.771484"/>
      <use xlink:href="#DejaVuSans-73" x="415.771484"/>
      <use xlink:href="#DejaVuSans-75" x="467.871094"/>
      <use xlink:href="#DejaVuSans-62" x="531.25"/>
     </g>
    </g>
    <g id="patch_74">
     <path d="M 652.707813 564.237813 
L 672.707813 564.237813 
L 672.707813 557.237813 
L 652.707813 557.237813 
z
" style="fill: #3a1838"/>
    </g>
    <g id="text_32">
     <!-- bins.31 -->
     <g transform="translate(680.707813 564.237813)scale(0.1 -0.1)">
      <use xlink:href="#DejaVuSans-62"/>
      <use xlink:href="#DejaVuSans-69" x="63.476562"/>
      <use xlink:href="#DejaVuSans-6e" x="91.259766"/>
      <use xlink:href="#DejaVuSans-73" x="154.638672"/>
      <use xlink:href="#DejaVuSans-2e" x="206.738281"/>
      <use xlink:href="#DejaVuSans-33" x="238.525391"/>
      <use xlink:href="#DejaVuSans-31" x="302.148438"/>
     </g>
    </g>
    <g id="patch_75">
     <path d="M 652.707813 578.915938 
L 672.707813 578.915938 
L 672.707813 571.915938 
L 652.707813 571.915938 
z
" style="fill: #87f910"/>
    </g>
    <g id="text_33">
     <!-- bins.39_sub -->
     <g transform="translate(680.707813 578.915938)scale(0.1 -0.1)">
      <use xlink:href="#DejaVuSans-62"/>
      <use xlink:href="#DejaVuSans-69" x="63.476562"/>
      <use xlink:href="#DejaVuSans-6e" x="91.259766"/>
      <use xlink:href="#DejaVuSans-73" x="154.638672"/>
      <use xlink:href="#DejaVuSans-2e" x="206.738281"/>
      <use xlink:href="#DejaVuSans-33" x="238.525391"/>
      <use xlink:href="#DejaVuSans-39" x="302.148438"/>
      <use xlink:href="#DejaVuSans-5f" x="365.771484"/>
      <use xlink:href="#DejaVuSans-73" x="415.771484"/>
      <use xlink:href="#DejaVuSans-75" x="467.871094"/>
      <use xlink:href="#DejaVuSans-62" x="531.25"/>
     </g>
    </g>
    <g id="patch_76">
     <path d="M 652.707813 593.872188 
L 672.707813 593.872188 
L 672.707813 586.872188 
L 652.707813 586.872188 
z
" style="fill: #fc8ef0"/>
    </g>
    <g id="text_34">
     <!-- bins.41 -->
     <g transform="translate(680.707813 593.872188)scale(0.1 -0.1)">
      <use xlink:href="#DejaVuSans-62"/>
      <use xlink:href="#DejaVuSans-69" x="63.476562"/>
      <use xlink:href="#DejaVuSans-6e" x="91.259766"/>
      <use xlink:href="#DejaVuSans-73" x="154.638672"/>
      <use xlink:href="#DejaVuSans-2e" x="206.738281"/>
      <use xlink:href="#DejaVuSans-34" x="238.525391"/>
      <use xlink:href="#DejaVuSans-31" x="302.148438"/>
     </g>
    </g>
    <g id="patch_77">
     <path d="M 652.707813 608.550313 
L 672.707813 608.550313 
L 672.707813 601.550313 
L 652.707813 601.550313 
z
" style="fill: #45bcea"/>
    </g>
    <g id="text_35">
     <!-- bins.51 -->
     <g transform="translate(680.707813 608.550313)scale(0.1 -0.1)">
      <use xlink:href="#DejaVuSans-62"/>
      <use xlink:href="#DejaVuSans-69" x="63.476562"/>
      <use xlink:href="#DejaVuSans-6e" x="91.259766"/>
      <use xlink:href="#DejaVuSans-73" x="154.638672"/>
      <use xlink:href="#DejaVuSans-2e" x="206.738281"/>
      <use xlink:href="#DejaVuSans-35" x="238.525391"/>
      <use xlink:href="#DejaVuSans-31" x="302.148438"/>
     </g>
    </g>
    <g id="patch_78">
     <path d="M 652.707813 623.228438 
L 672.707813 623.228438 
L 672.707813 616.228438 
L 652.707813 616.228438 
z
" style="fill: #75bda3"/>
    </g>
    <g id="text_36">
     <!-- bins.59 -->
     <g transform="translate(680.707813 623.228438)scale(0.1 -0.1)">
      <use xlink:href="#DejaVuSans-62"/>
      <use xlink:href="#DejaVuSans-69" x="63.476562"/>
      <use xlink:href="#DejaVuSans-6e" x="91.259766"/>
      <use xlink:href="#DejaVuSans-73" x="154.638672"/>
      <use xlink:href="#DejaVuSans-2e" x="206.738281"/>
      <use xlink:href="#DejaVuSans-35" x="238.525391"/>
      <use xlink:href="#DejaVuSans-39" x="302.148438"/>
     </g>
    </g>
    <g id="patch_79">
     <path d="M 652.707813 637.906563 
L 672.707813 637.906563 
L 672.707813 630.906563 
L 652.707813 630.906563 
z
" style="fill: #17b53f"/>
    </g>
    <g id="text_37">
     <!-- bins.63 -->
     <g transform="translate(680.707813 637.906563)scale(0.1 -0.1)">
      <use xlink:href="#DejaVuSans-62"/>
      <use xlink:href="#DejaVuSans-69" x="63.476562"/>
      <use xlink:href="#DejaVuSans-6e" x="91.259766"/>
      <use xlink:href="#DejaVuSans-73" x="154.638672"/>
      <use xlink:href="#DejaVuSans-2e" x="206.738281"/>
      <use xlink:href="#DejaVuSans-36" x="238.525391"/>
      <use xlink:href="#DejaVuSans-33" x="302.148438"/>
     </g>
    </g>
    <g id="patch_80">
     <path d="M 652.707813 652.584688 
L 672.707813 652.584688 
L 672.707813 645.584688 
L 652.707813 645.584688 
z
" style="fill: #6d0fd4"/>
    </g>
    <g id="text_38">
     <!-- bins.66 -->
     <g transform="translate(680.707813 652.584688)scale(0.1 -0.1)">
      <use xlink:href="#DejaVuSans-62"/>
      <use xlink:href="#DejaVuSans-69" x="63.476562"/>
      <use xlink:href="#DejaVuSans-6e" x="91.259766"/>
      <use xlink:href="#DejaVuSans-73" x="154.638672"/>
      <use xlink:href="#DejaVuSans-2e" x="206.738281"/>
      <use xlink:href="#DejaVuSans-36" x="238.525391"/>
      <use xlink:href="#DejaVuSans-36" x="302.148438"/>
     </g>
    </g>
    <g id="patch_81">
     <path d="M 652.707813 667.262813 
L 672.707813 667.262813 
L 672.707813 660.262813 
L 652.707813 660.262813 
z
" style="fill: #b0916c"/>
    </g>
    <g id="text_39">
     <!-- bins.76_sub -->
     <g transform="translate(680.707813 667.262813)scale(0.1 -0.1)">
      <use xlink:href="#DejaVuSans-62"/>
      <use xlink:href="#DejaVuSans-69" x="63.476562"/>
      <use xlink:href="#DejaVuSans-6e" x="91.259766"/>
      <use xlink:href="#DejaVuSans-73" x="154.638672"/>
      <use xlink:href="#DejaVuSans-2e" x="206.738281"/>
      <use xlink:href="#DejaVuSans-37" x="238.525391"/>
      <use xlink:href="#DejaVuSans-36" x="302.148438"/>
      <use xlink:href="#DejaVuSans-5f" x="365.771484"/>
      <use xlink:href="#DejaVuSans-73" x="415.771484"/>
      <use xlink:href="#DejaVuSans-75" x="467.871094"/>
      <use xlink:href="#DejaVuSans-62" x="531.25"/>
     </g>
    </g>
    <g id="patch_82">
     <path d="M 652.707813 682.219063 
L 672.707813 682.219063 
L 672.707813 675.219063 
L 652.707813 675.219063 
z
" style="fill: #915805"/>
    </g>
    <g id="text_40">
     <!-- bins.81 -->
     <g transform="translate(680.707813 682.219063)scale(0.1 -0.1)">
      <use xlink:href="#DejaVuSans-62"/>
      <use xlink:href="#DejaVuSans-69" x="63.476562"/>
      <use xlink:href="#DejaVuSans-6e" x="91.259766"/>
      <use xlink:href="#DejaVuSans-73" x="154.638672"/>
      <use xlink:href="#DejaVuSans-2e" x="206.738281"/>
      <use xlink:href="#DejaVuSans-38" x="238.525391"/>
      <use xlink:href="#DejaVuSans-31" x="302.148438"/>
     </g>
    </g>
    <g id="patch_83">
     <path d="M 652.707813 696.897188 
L 672.707813 696.897188 
L 672.707813 689.897188 
L 652.707813 689.897188 
z
" style="fill: #263e68"/>
    </g>
    <g id="text_41">
     <!-- bins.83 -->
     <g transform="translate(680.707813 696.897188)scale(0.1 -0.1)">
      <use xlink:href="#DejaVuSans-62"/>
      <use xlink:href="#DejaVuSans-69" x="63.476562"/>
      <use xlink:href="#DejaVuSans-6e" x="91.259766"/>
      <use xlink:href="#DejaVuSans-73" x="154.638672"/>
      <use xlink:href="#DejaVuSans-2e" x="206.738281"/>
      <use xlink:href="#DejaVuSans-38" x="238.525391"/>
      <use xlink:href="#DejaVuSans-33" x="302.148438"/>
     </g>
    </g>
    <g id="patch_84">
     <path d="M 652.707813 711.575313 
L 672.707813 711.575313 
L 672.707813 704.575313 
L 652.707813 704.575313 
z
" style="fill: #939652"/>
    </g>
    <g id="text_42">
     <!-- bins.94 -->
     <g transform="translate(680.707813 711.575313)scale(0.1 -0.1)">
      <use xlink:href="#DejaVuSans-62"/>
      <use xlink:href="#DejaVuSans-69" x="63.476562"/>
      <use xlink:href="#DejaVuSans-6e" x="91.259766"/>
      <use xlink:href="#DejaVuSans-73" x="154.638672"/>
      <use xlink:href="#DejaVuSans-2e" x="206.738281"/>
      <use xlink:href="#DejaVuSans-39" x="238.525391"/>
      <use xlink:href="#DejaVuSans-34" x="302.148438"/>
     </g>
    </g>
   </g>
  </g>
 </g>
</svg>
