<?xml version="1.0" encoding="utf-8" standalone="no"?>
<!DOCTYPE svg PUBLIC "-//W3C//DTD SVG 1.1//EN"
  "http://www.w3.org/Graphics/SVG/1.1/DTD/svg11.dtd">
<svg xmlns:xlink="http://www.w3.org/1999/xlink" width="864pt" height="864pt" viewBox="0 0 864 864" xmlns="http://www.w3.org/2000/svg" version="1.1">
 <metadata>
  <rdf:RDF xmlns:dc="http://purl.org/dc/elements/1.1/" xmlns:cc="http://creativecommons.org/ns#" xmlns:rdf="http://www.w3.org/1999/02/22-rdf-syntax-ns#">
   <cc:Work>
    <dc:type rdf:resource="http://purl.org/dc/dcmitype/StillImage"/>
    <dc:date>2024-10-22T20:12:50.234721</dc:date>
    <dc:format>image/svg+xml</dc:format>
    <dc:creator>
     <cc:Agent>
      <dc:title>Matplotlib v3.9.1, https://matplotlib.org/</dc:title>
     </cc:Agent>
    </dc:creator>
   </cc:Work>
  </rdf:RDF>
 </metadata>
 <defs>
  <style type="text/css">*{stroke-linejoin: round; stroke-linecap: butt}</style>
 </defs>
 <g id="figure_1">
  <g id="patch_1">
   <path d="M 0 864 
L 864 864 
L 864 0 
L 0 0 
z
" style="fill: #ffffff"/>
  </g>
  <g id="axes_1">
   <g id="patch_2">
    <path d="M 209.643928 240.678826 
C 205.490706 245.628442 201.496149 250.709055 197.666329 255.912942 
C 193.836509 261.116828 190.173369 266.441348 186.682476 271.878408 
L 442.8 436.32 
z
" style="fill: #1f77b4"/>
   </g>
   <g id="patch_3">
    <path d="M 186.682476 271.878408 
C 183.191583 277.315468 179.874709 282.862311 176.736895 288.510503 
C 173.599081 294.158696 170.641919 299.905374 167.869905 305.741802 
L 442.8 436.32 
z
" style="fill: #ff7f0e"/>
   </g>
   <g id="patch_4">
    <path d="M 167.869905 305.741802 
C 166.945969 307.687132 166.042707 309.642213 165.16027 311.606716 
C 164.277833 313.571218 163.416271 315.545031 162.57573 317.527821 
L 442.8 436.32 
z
" style="fill: #2ca02c"/>
   </g>
   <g id="patch_5">
    <path d="M 162.57573 317.527821 
C 160.894601 321.493513 159.297844 325.494445 157.786538 329.527913 
C 156.275233 333.56138 154.849719 337.626475 153.51096 341.72045 
L 442.8 436.32 
z
" style="fill: #d62728"/>
   </g>
   <g id="patch_6">
    <path d="M 153.51096 341.72045 
C 150.833142 349.909323 148.504232 358.208205 146.530525 366.594672 
C 144.556818 374.981138 142.940093 383.447629 141.684718 391.971265 
L 442.8 436.32 
z
" style="fill: #9467bd"/>
   </g>
   <g id="patch_7">
    <path d="M 141.684718 391.971265 
C 139.172839 409.026212 138.114463 426.263776 138.521015 443.497912 
C 138.927567 460.732049 140.797577 477.900532 144.110864 494.818064 
L 442.8 436.32 
z
" style="fill: #8c564b"/>
   </g>
   <g id="patch_8">
    <path d="M 144.110864 494.818064 
C 144.524781 496.931506 144.961116 499.040496 145.419798 501.144677 
C 145.87848 503.248858 146.359481 505.348111 146.862722 507.442082 
L 442.8 436.32 
z
" style="fill: #e377c2"/>
   </g>
   <g id="patch_9">
    <path d="M 146.862722 507.442082 
C 150.891024 524.20375 156.336106 540.592919 163.139201 556.432699 
C 169.942295 572.27248 178.078838 587.505682 187.461012 601.967893 
L 442.8 436.32 
z
" style="fill: #7f7f7f"/>
   </g>
   <g id="patch_10">
    <path d="M 187.461012 601.967893 
C 195.669261 614.620549 204.806622 626.645617 214.797557 637.943682 
C 224.788491 649.241747 235.605391 659.78159 247.158831 669.476077 
L 442.8 436.32 
z
" style="fill: #bcbd22"/>
   </g>
   <g id="patch_11">
    <path d="M 247.158831 669.476077 
C 252.108448 673.629298 257.189061 677.623855 262.392948 681.453675 
C 267.596834 685.283495 272.921355 688.946636 278.358415 692.437528 
L 442.8 436.32 
z
" style="fill: #17becf"/>
   </g>
   <g id="patch_12">
    <path d="M 278.358415 692.437528 
C 285.608305 697.092358 293.052572 701.437256 300.671102 705.460483 
C 308.289631 709.48371 316.075554 713.181637 324.007831 716.544274 
L 442.8 436.32 
z
" style="fill: #1f77b4"/>
   </g>
   <g id="patch_13">
    <path d="M 324.007831 716.544274 
C 331.940108 719.906911 340.011588 722.931224 348.20046 725.609043 
C 356.389332 728.286861 364.688215 730.615771 373.074681 732.589477 
L 442.8 436.32 
z
" style="fill: #ff7f0e"/>
   </g>
   <g id="patch_14">
    <path d="M 373.074681 732.589477 
C 375.171003 733.082835 377.272502 733.553928 379.378823 734.002679 
C 381.485144 734.45143 383.596168 734.877813 385.71154 735.281755 
L 442.8 436.32 
z
" style="fill: #2ca02c"/>
   </g>
   <g id="patch_15">
    <path d="M 385.71154 735.281755 
C 389.942401 736.089662 394.189937 736.807667 398.451275 737.435283 
C 402.712613 738.0629 406.986795 738.599987 411.27093 739.046182 
L 442.8 436.32 
z
" style="fill: #d62728"/>
   </g>
   <g id="patch_16">
    <path d="M 411.27093 739.046182 
C 413.412937 739.269273 415.557252 739.469623 417.703512 739.647199 
C 419.849772 739.824775 421.997857 739.979566 424.147402 740.111547 
L 442.8 436.32 
z
" style="fill: #9467bd"/>
   </g>
   <g id="patch_17">
    <path d="M 424.147402 740.111547 
C 428.446615 740.375516 432.750946 740.548192 437.057488 740.629459 
C 441.36403 740.710726 445.671812 740.700566 449.977922 740.598985 
L 442.8 436.32 
z
" style="fill: #8c564b"/>
   </g>
   <g id="patch_18">
    <path d="M 449.977922 740.598985 
C 467.212059 740.192433 484.380542 738.322422 501.298074 735.009134 
C 518.215605 731.695846 534.821102 726.951246 550.935342 720.82654 
L 442.8 436.32 
z
" style="fill: #e377c2"/>
   </g>
   <g id="patch_19">
    <path d="M 550.935342 720.82654 
C 556.975066 718.53096 562.94016 716.043637 568.821556 713.368355 
C 574.702951 710.693072 580.497667 707.831186 586.196892 704.787046 
L 442.8 436.32 
z
" style="fill: #7f7f7f"/>
   </g>
   <g id="patch_20">
    <path d="M 586.196892 704.787046 
C 589.996197 702.757715 593.751996 700.647961 597.461751 698.459211 
C 601.171506 696.270462 604.83438 694.003208 608.447899 691.658984 
L 442.8 436.32 
z
" style="fill: #bcbd22"/>
   </g>
   <g id="patch_21">
    <path d="M 608.447899 691.658984 
C 610.254608 690.486905 612.048826 689.295683 613.830249 688.08552 
C 615.611673 686.875357 617.380203 685.646321 619.135539 684.398619 
L 442.8 436.32 
z
" style="fill: #17becf"/>
   </g>
   <g id="patch_22">
    <path d="M 619.135539 684.398619 
C 636.705197 671.910017 652.898529 657.590174 667.44275 641.680313 
C 681.986972 625.770452 694.799954 608.360415 705.665857 589.743482 
L 442.8 436.32 
z
" style="fill: #1f77b4"/>
   </g>
   <g id="patch_23">
    <path d="M 705.665857 589.743482 
C 707.837083 586.023444 709.929096 582.257734 711.940483 578.448899 
C 713.95187 574.640063 715.882177 570.788959 717.7301 566.898189 
L 442.8 436.32 
z
" style="fill: #ff7f0e"/>
   </g>
   <g id="patch_24">
    <path d="M 717.7301 566.898189 
C 722.350817 557.169349 726.451874 547.202096 730.015959 537.038502 
C 733.580043 526.874907 736.602135 516.529291 739.069477 506.045323 
L 442.8 436.32 
z
" style="fill: #2ca02c"/>
   </g>
   <g id="patch_25">
    <path d="M 739.069477 506.045323 
C 743.513024 487.164273 746.141499 467.901605 746.919016 448.520308 
C 747.696533 429.139012 746.619538 409.727692 743.702735 390.551367 
L 442.8 436.32 
z
" style="fill: #d62728"/>
   </g>
   <g id="patch_26">
    <path d="M 743.702735 390.551367 
C 742.083139 379.903444 739.899493 369.34899 737.161015 358.932556 
C 734.422537 348.516123 731.133085 338.252385 727.306543 328.184667 
L 442.8 436.32 
z
" style="fill: #9467bd"/>
   </g>
   <g id="patch_27">
    <path d="M 727.306543 328.184667 
C 724.245569 320.131173 720.84402 312.211278 717.111088 304.446385 
C 713.378157 296.681492 709.317208 289.078601 704.939215 281.658255 
L 442.8 436.32 
z
" style="fill: #8c564b"/>
   </g>
   <g id="patch_28">
    <path d="M 704.939215 281.658255 
C 703.844871 279.80343 702.730872 277.960272 701.597405 276.129093 
C 700.463938 274.297913 699.311067 272.478816 698.138988 270.672107 
L 442.8 436.32 
z
" style="fill: #e377c2"/>
   </g>
   <g id="patch_29">
    <path d="M 698.138988 270.672107 
C 679.340949 241.695751 655.746891 216.129536 628.369466 195.070758 
C 600.992041 174.011981 570.228612 157.766293 537.399539 147.030957 
L 442.8 436.32 
z
" style="fill: #7f7f7f"/>
   </g>
   <g id="patch_30">
    <path d="M 537.399539 147.030957 
C 525.113926 143.013476 512.584858 139.782695 499.888462 137.358245 
C 487.192066 134.933796 474.35411 133.320598 461.452602 132.528453 
L 442.8 436.32 
z
" style="fill: #bcbd22"/>
   </g>
   <g id="patch_31">
    <path d="M 461.452602 132.528453 
C 455.003481 132.132482 448.543386 131.941971 442.082138 131.95721 
C 435.620891 131.972449 429.161767 132.193431 422.714585 132.61982 
L 442.8 436.32 
z
" style="fill: #17becf"/>
   </g>
   <g id="patch_32">
    <path d="M 422.714585 132.61982 
C 418.416666 132.904066 414.125265 133.279515 409.843282 133.745913 
C 405.561299 134.212312 401.289699 134.769555 397.031368 135.417265 
L 442.8 436.32 
z
" style="fill: #1f77b4"/>
   </g>
   <g id="patch_33">
    <path d="M 397.031368 135.417265 
C 390.643573 136.388877 384.288337 137.56365 377.975321 138.939798 
C 371.662305 140.315947 365.394711 141.892772 359.182067 143.667878 
L 442.8 436.32 
z
" style="fill: #ff7f0e"/>
   </g>
   <g id="patch_34">
    <path d="M 359.182067 143.667878 
C 352.969422 145.442984 346.814878 147.41547 340.72779 149.582337 
C 334.640702 151.749205 328.624157 154.109355 322.687303 156.6592 
L 442.8 436.32 
z
" style="fill: #2ca02c"/>
   </g>
   <g id="patch_35">
    <path d="M 322.687303 156.6592 
C 318.729585 158.359017 314.808396 160.142656 310.926387 162.008911 
C 307.044378 163.875167 303.202422 165.823619 299.403117 167.85295 
L 442.8 436.32 
z
" style="fill: #d62728"/>
   </g>
   <g id="patch_36">
    <path d="M 299.403117 167.85295 
C 295.603811 169.882281 291.848012 171.992034 288.138257 174.180784 
C 284.428502 176.369534 280.765628 178.636787 277.152109 180.981011 
L 442.8 436.32 
z
" style="fill: #9467bd"/>
   </g>
   <g id="patch_37">
    <path d="M 277.152109 180.981011 
C 275.3454 182.15309 273.551182 183.344312 271.769758 184.554475 
C 269.988335 185.764638 268.219805 186.993674 266.464469 188.241376 
L 442.8 436.32 
z
" style="fill: #8c564b"/>
   </g>
   <g id="patch_38">
    <path d="M 266.464469 188.241376 
C 259.442135 193.232886 252.634908 198.520317 246.061182 204.08938 
C 239.487456 209.658444 233.153158 215.50412 227.075403 221.610612 
L 442.8 436.32 
z
" style="fill: #e377c2"/>
   </g>
   <g id="patch_39">
    <path d="M 227.075403 221.610612 
C 224.036868 224.663514 221.063482 227.780573 218.157253 230.959684 
C 215.251025 234.138794 212.412609 237.379239 209.643925 240.678829 
L 442.8 436.32 
z
" style="fill: #7f7f7f"/>
   </g>
   <g id="matplotlib.axis_1"/>
   <g id="matplotlib.axis_2"/>
   <g id="text_1">
    <!-- BGC per Genome -->
    <g transform="translate(390.8175 97.68) scale(0.12 -0.12)">
     <defs>
      <path id="DejaVuSans-42" d="M 1259 2228 
L 1259 519 
L 2272 519 
Q 2781 519 3026 730 
Q 3272 941 3272 1375 
Q 3272 1813 3026 2020 
Q 2781 2228 2272 2228 
L 1259 2228 
z
M 1259 4147 
L 1259 2741 
L 2194 2741 
Q 2656 2741 2882 2914 
Q 3109 3088 3109 3444 
Q 3109 3797 2882 3972 
Q 2656 4147 2194 4147 
L 1259 4147 
z
M 628 4666 
L 2241 4666 
Q 2963 4666 3353 4366 
Q 3744 4066 3744 3513 
Q 3744 3084 3544 2831 
Q 3344 2578 2956 2516 
Q 3422 2416 3680 2098 
Q 3938 1781 3938 1306 
Q 3938 681 3513 340 
Q 3088 0 2303 0 
L 628 0 
L 628 4666 
z
" transform="scale(0.015625)"/>
      <path id="DejaVuSans-47" d="M 3809 666 
L 3809 1919 
L 2778 1919 
L 2778 2438 
L 4434 2438 
L 4434 434 
Q 4069 175 3628 42 
Q 3188 -91 2688 -91 
Q 1594 -91 976 548 
Q 359 1188 359 2328 
Q 359 3472 976 4111 
Q 1594 4750 2688 4750 
Q 3144 4750 3555 4637 
Q 3966 4525 4313 4306 
L 4313 3634 
Q 3963 3931 3569 4081 
Q 3175 4231 2741 4231 
Q 1884 4231 1454 3753 
Q 1025 3275 1025 2328 
Q 1025 1384 1454 906 
Q 1884 428 2741 428 
Q 3075 428 3337 486 
Q 3600 544 3809 666 
z
" transform="scale(0.015625)"/>
      <path id="DejaVuSans-43" d="M 4122 4306 
L 4122 3641 
Q 3803 3938 3442 4084 
Q 3081 4231 2675 4231 
Q 1875 4231 1450 3742 
Q 1025 3253 1025 2328 
Q 1025 1406 1450 917 
Q 1875 428 2675 428 
Q 3081 428 3442 575 
Q 3803 722 4122 1019 
L 4122 359 
Q 3791 134 3420 21 
Q 3050 -91 2638 -91 
Q 1578 -91 968 557 
Q 359 1206 359 2328 
Q 359 3453 968 4101 
Q 1578 4750 2638 4750 
Q 3056 4750 3426 4639 
Q 3797 4528 4122 4306 
z
" transform="scale(0.015625)"/>
      <path id="DejaVuSans-20" transform="scale(0.015625)"/>
      <path id="DejaVuSans-70" d="M 1159 525 
L 1159 -1331 
L 581 -1331 
L 581 3500 
L 1159 3500 
L 1159 2969 
Q 1341 3281 1617 3432 
Q 1894 3584 2278 3584 
Q 2916 3584 3314 3078 
Q 3713 2572 3713 1747 
Q 3713 922 3314 415 
Q 2916 -91 2278 -91 
Q 1894 -91 1617 61 
Q 1341 213 1159 525 
z
M 3116 1747 
Q 3116 2381 2855 2742 
Q 2594 3103 2138 3103 
Q 1681 3103 1420 2742 
Q 1159 2381 1159 1747 
Q 1159 1113 1420 752 
Q 1681 391 2138 391 
Q 2594 391 2855 752 
Q 3116 1113 3116 1747 
z
" transform="scale(0.015625)"/>
      <path id="DejaVuSans-65" d="M 3597 1894 
L 3597 1613 
L 953 1613 
Q 991 1019 1311 708 
Q 1631 397 2203 397 
Q 2534 397 2845 478 
Q 3156 559 3463 722 
L 3463 178 
Q 3153 47 2828 -22 
Q 2503 -91 2169 -91 
Q 1331 -91 842 396 
Q 353 884 353 1716 
Q 353 2575 817 3079 
Q 1281 3584 2069 3584 
Q 2775 3584 3186 3129 
Q 3597 2675 3597 1894 
z
M 3022 2063 
Q 3016 2534 2758 2815 
Q 2500 3097 2075 3097 
Q 1594 3097 1305 2825 
Q 1016 2553 972 2059 
L 3022 2063 
z
" transform="scale(0.015625)"/>
      <path id="DejaVuSans-72" d="M 2631 2963 
Q 2534 3019 2420 3045 
Q 2306 3072 2169 3072 
Q 1681 3072 1420 2755 
Q 1159 2438 1159 1844 
L 1159 0 
L 581 0 
L 581 3500 
L 1159 3500 
L 1159 2956 
Q 1341 3275 1631 3429 
Q 1922 3584 2338 3584 
Q 2397 3584 2469 3576 
Q 2541 3569 2628 3553 
L 2631 2963 
z
" transform="scale(0.015625)"/>
      <path id="DejaVuSans-6e" d="M 3513 2113 
L 3513 0 
L 2938 0 
L 2938 2094 
Q 2938 2591 2744 2837 
Q 2550 3084 2163 3084 
Q 1697 3084 1428 2787 
Q 1159 2491 1159 1978 
L 1159 0 
L 581 0 
L 581 3500 
L 1159 3500 
L 1159 2956 
Q 1366 3272 1645 3428 
Q 1925 3584 2291 3584 
Q 2894 3584 3203 3211 
Q 3513 2838 3513 2113 
z
" transform="scale(0.015625)"/>
      <path id="DejaVuSans-6f" d="M 1959 3097 
Q 1497 3097 1228 2736 
Q 959 2375 959 1747 
Q 959 1119 1226 758 
Q 1494 397 1959 397 
Q 2419 397 2687 759 
Q 2956 1122 2956 1747 
Q 2956 2369 2687 2733 
Q 2419 3097 1959 3097 
z
M 1959 3584 
Q 2709 3584 3137 3096 
Q 3566 2609 3566 1747 
Q 3566 888 3137 398 
Q 2709 -91 1959 -91 
Q 1206 -91 779 398 
Q 353 888 353 1747 
Q 353 2609 779 3096 
Q 1206 3584 1959 3584 
z
" transform="scale(0.015625)"/>
      <path id="DejaVuSans-6d" d="M 3328 2828 
Q 3544 3216 3844 3400 
Q 4144 3584 4550 3584 
Q 5097 3584 5394 3201 
Q 5691 2819 5691 2113 
L 5691 0 
L 5113 0 
L 5113 2094 
Q 5113 2597 4934 2840 
Q 4756 3084 4391 3084 
Q 3944 3084 3684 2787 
Q 3425 2491 3425 1978 
L 3425 0 
L 2847 0 
L 2847 2094 
Q 2847 2600 2669 2842 
Q 2491 3084 2119 3084 
Q 1678 3084 1418 2786 
Q 1159 2488 1159 1978 
L 1159 0 
L 581 0 
L 581 3500 
L 1159 3500 
L 1159 2956 
Q 1356 3278 1631 3431 
Q 1906 3584 2284 3584 
Q 2666 3584 2933 3390 
Q 3200 3197 3328 2828 
z
" transform="scale(0.015625)"/>
     </defs>
     <use xlink:href="#DejaVuSans-42"/>
     <use xlink:href="#DejaVuSans-47" x="66.853516"/>
     <use xlink:href="#DejaVuSans-43" x="144.34375"/>
     <use xlink:href="#DejaVuSans-20" x="214.167969"/>
     <use xlink:href="#DejaVuSans-70" x="245.955078"/>
     <use xlink:href="#DejaVuSans-65" x="309.431641"/>
     <use xlink:href="#DejaVuSans-72" x="370.955078"/>
     <use xlink:href="#DejaVuSans-20" x="412.068359"/>
     <use xlink:href="#DejaVuSans-47" x="443.855469"/>
     <use xlink:href="#DejaVuSans-65" x="521.345703"/>
     <use xlink:href="#DejaVuSans-6e" x="582.869141"/>
     <use xlink:href="#DejaVuSans-6f" x="646.248047"/>
     <use xlink:href="#DejaVuSans-6d" x="707.429688"/>
     <use xlink:href="#DejaVuSans-65" x="804.841797"/>
    </g>
   </g>
  </g>
 </g>
</svg>
