<?xml version="1.0" encoding="utf-8" standalone="no"?>
<!DOCTYPE svg PUBLIC "-//W3C//DTD SVG 1.1//EN"
  "http://www.w3.org/Graphics/SVG/1.1/DTD/svg11.dtd">
<svg xmlns:xlink="http://www.w3.org/1999/xlink" width="864pt" height="864pt" viewBox="0 0 864 864" xmlns="http://www.w3.org/2000/svg" version="1.1">
 <metadata>
  <rdf:RDF xmlns:dc="http://purl.org/dc/elements/1.1/" xmlns:cc="http://creativecommons.org/ns#" xmlns:rdf="http://www.w3.org/1999/02/22-rdf-syntax-ns#">
   <cc:Work>
    <dc:type rdf:resource="http://purl.org/dc/dcmitype/StillImage"/>
    <dc:date>2025-03-29T22:45:39.633166</dc:date>
    <dc:format>image/svg+xml</dc:format>
    <dc:creator>
     <cc:Agent>
      <dc:title>Matplotlib v3.5.3, https://matplotlib.org/</dc:title>
     </cc:Agent>
    </dc:creator>
   </cc:Work>
  </rdf:RDF>
 </metadata>
 <defs>
  <style type="text/css">*{stroke-linejoin: round; stroke-linecap: butt}</style>
 </defs>
 <g id="figure_1">
  <g id="patch_1">
   <path d="M 0 864 
L 864 864 
L 864 0 
L 0 0 
z
" style="fill: #ffffff"/>
  </g>
  <g id="axes_1">
   <g id="patch_2">
    <path d="M 209.911306 240.822866 
C 203.75329 248.161704 197.945478 255.787415 192.5073 263.674488 
C 187.069123 271.56156 182.006651 279.701188 177.336823 288.066139 
L 442.886421 436.3122 
L 209.911306 240.822866 
z
" style="fill: #363997"/>
   </g>
   <g id="patch_3">
    <path d="M 177.336823 288.066139 
C 175.002234 292.248031 172.766757 296.484487 170.63226 300.771963 
C 168.497764 305.059439 166.464845 309.396739 164.535203 313.780231 
L 442.886421 436.3122 
L 177.336823 288.066139 
z
" style="fill: #c3b4ce"/>
   </g>
   <g id="patch_4">
    <path d="M 164.535203 313.780231 
C 163.570416 315.971901 162.631548 318.17489 161.718795 320.388735 
C 160.806042 322.602581 159.919467 324.82713 159.059257 327.061916 
L 442.886421 436.3122 
L 164.535203 313.780231 
z
" style="fill: #cafa72"/>
   </g>
   <g id="patch_5">
    <path d="M 159.059257 327.061916 
C 157.338776 331.531645 155.72412 336.041391 154.21664 340.587381 
C 152.709159 345.133371 151.309275 349.714337 150.018158 354.326445 
L 442.886421 436.3122 
L 159.059257 327.061916 
z
" style="fill: #fec6c8"/>
   </g>
   <g id="patch_6">
    <path d="M 150.018158 354.326445 
C 147.435564 363.551948 145.290324 372.89433 143.589615 382.322335 
C 141.888906 391.750341 140.634627 401.253442 139.830975 410.799847 
L 442.886421 436.3122 
L 150.018158 354.326445 
z
" style="fill: #8ae53c"/>
   </g>
   <g id="patch_7">
    <path d="M 139.830975 410.799847 
C 138.625216 425.122779 138.436364 439.513189 139.265837 453.86283 
C 140.095311 468.212472 141.941026 482.485274 144.789098 496.573877 
L 442.886421 436.3122 
L 139.830975 410.799847 
z
" style="fill: #346c10"/>
   </g>
   <g id="patch_8">
    <path d="M 144.789098 496.573877 
C 145.738103 501.268333 146.797868 505.939716 147.967507 510.584118 
C 149.137146 515.22852 150.416333 519.844645 151.803996 524.428629 
L 442.886421 436.3122 
L 144.789098 496.573877 
z
" style="fill: #5e7142"/>
   </g>
   <g id="patch_9">
    <path d="M 151.803996 524.428629 
C 155.968533 538.185696 161.10311 551.630236 167.169105 564.66112 
C 173.235101 577.692004 180.217266 590.276476 188.063079 602.319875 
L 442.886421 436.3122 
L 151.803996 524.428629 
z
" style="fill: #a05b70"/>
   </g>
   <g id="patch_10">
    <path d="M 188.063079 602.319875 
C 193.292408 610.346942 198.898102 618.122439 204.861407 625.620351 
C 210.824712 633.118263 217.138971 640.330218 223.783057 647.232088 
L 442.886421 436.3122 
L 188.063079 602.319875 
z
" style="fill: #5141e4"/>
   </g>
   <g id="patch_11">
    <path d="M 223.783057 647.232088 
C 225.443789 648.957255 227.124839 650.662748 228.825854 652.348209 
C 230.526869 654.03367 232.247731 655.698982 233.98808 657.343797 
L 442.886421 436.3122 
L 223.783057 647.232088 
z
" style="fill: #5b982d"/>
   </g>
   <g id="patch_12">
    <path d="M 233.98808 657.343797 
C 240.950691 663.924203 248.220344 670.171947 255.772717 676.066126 
C 263.32509 681.960305 271.151752 687.494339 279.226517 692.649711 
L 442.886421 436.3122 
L 233.98808 657.343797 
z
" style="fill: #30f729"/>
   </g>
   <g id="patch_13">
    <path d="M 279.226517 692.649711 
C 287.301282 697.805083 295.615135 702.576038 304.14026 706.946614 
C 312.665385 711.317191 321.392264 715.282508 330.2917 718.829301 
L 442.886421 436.3122 
L 279.226517 692.649711 
z
" style="fill: #821eba"/>
   </g>
   <g id="patch_14">
    <path d="M 330.2917 718.829301 
C 343.643953 724.150725 357.356675 728.518884 371.326717 731.900921 
C 385.296759 735.282959 399.489004 737.670372 413.796696 739.045204 
L 442.886421 436.3122 
L 330.2917 718.829301 
z
" style="fill: #02325c"/>
   </g>
   <g id="patch_15">
    <path d="M 413.796696 739.045204 
C 416.180343 739.274249 418.566611 739.475134 420.955002 739.647817 
C 423.343393 739.820499 425.733741 739.964968 428.125544 740.081191 
L 442.886421 436.3122 
L 413.796696 739.045204 
z
" style="fill: #c6e51b"/>
   </g>
   <g id="patch_16">
    <path d="M 428.125544 740.081191 
C 442.482199 740.778816 456.870267 740.457783 471.181519 739.120507 
C 485.492771 737.783231 499.691233 735.433074 513.670103 732.087713 
L 442.886421 436.3122 
L 428.125544 740.081191 
z
" style="fill: #2a425b"/>
   </g>
   <g id="patch_17">
    <path d="M 513.670103 732.087713 
C 525.317673 729.300268 536.790427 725.827238 548.02841 721.686771 
C 559.266393 717.546304 570.249995 712.745627 580.921818 707.309825 
L 442.886421 436.3122 
L 513.670103 732.087713 
z
" style="fill: #60e6dc"/>
   </g>
   <g id="patch_18">
    <path d="M 580.921818 707.309825 
C 600.143585 697.519023 618.269229 685.710858 634.992499 672.084841 
C 651.71577 658.458825 666.941949 643.092132 680.413773 626.244401 
L 442.886421 436.3122 
L 580.921818 707.309825 
z
" style="fill: #a4353e"/>
   </g>
   <g id="patch_19">
    <path d="M 680.413773 626.244401 
C 683.404838 622.503805 686.307124 618.693075 689.118204 614.815402 
C 691.929284 610.937728 694.648373 606.994191 697.273195 602.988092 
L 442.886421 436.3122 
L 680.413773 626.244401 
z
" style="fill: #4002ea"/>
   </g>
   <g id="patch_20">
    <path d="M 697.273195 602.988092 
C 702.523573 594.974776 707.392384 586.717849 711.863339 578.244936 
C 716.334294 569.772024 720.402401 561.092584 724.05405 552.235658 
L 442.886421 436.3122 
L 697.273195 602.988092 
z
" style="fill: #cf14ef"/>
   </g>
   <g id="patch_21">
    <path d="M 724.05405 552.235658 
C 727.7057 543.378731 730.936814 534.354206 733.736582 525.192274 
C 736.536351 516.030343 738.901648 506.741235 740.824561 497.356028 
L 442.886421 436.3122 
L 724.05405 552.235658 
z
" style="fill: #d1e336"/>
   </g>
   <g id="patch_22">
    <path d="M 740.824561 497.356028 
C 742.266628 490.317696 743.458837 483.230474 744.398945 476.107702 
C 745.339053 468.984931 746.026468 461.831083 746.459898 454.659624 
L 442.886421 436.3122 
L 740.824561 497.356028 
z
" style="fill: #3cd46d"/>
   </g>
   <g id="patch_23">
    <path d="M 746.459898 454.659624 
C 747.037852 445.096902 747.163636 435.512209 746.836831 425.937613 
C 746.510027 416.363017 745.730997 406.809208 744.502349 397.308149 
L 442.886421 436.3122 
L 746.459898 454.659624 
z
" style="fill: #7d6d3c"/>
   </g>
   <g id="patch_24">
    <path d="M 744.502349 397.308149 
C 744.195241 394.933298 743.860094 392.562157 743.496981 390.195223 
C 743.133867 387.828288 742.74281 385.465725 742.323894 383.108027 
L 442.886421 436.3122 
L 744.502349 397.308149 
z
" style="fill: #9469e1"/>
   </g>
   <g id="patch_25">
    <path d="M 742.323894 383.108027 
C 741.486031 378.392466 740.536894 373.697355 739.477276 369.026624 
C 738.417659 364.355892 737.247856 359.710842 735.968848 355.095361 
L 442.886421 436.3122 
L 742.323894 383.108027 
z
" style="fill: #9822d9"/>
   </g>
   <g id="patch_26">
    <path d="M 735.968848 355.095361 
C 734.050225 348.171738 731.886864 341.318275 729.482838 334.547874 
C 727.078811 327.777473 724.435629 321.094384 721.558267 314.511189 
L 442.886421 436.3122 
L 735.968848 355.095361 
z
" style="fill: #d45544"/>
   </g>
   <g id="patch_27">
    <path d="M 721.558267 314.511189 
C 718.680905 307.927993 715.571169 301.448824 712.234914 295.085879 
C 708.898658 288.722933 705.337978 282.480206 701.559575 276.36945 
L 442.886421 436.3122 
L 721.558267 314.511189 
z
" style="fill: #cd52d9"/>
   </g>
   <g id="patch_28">
    <path d="M 701.559575 276.36945 
C 696.521295 268.221111 691.100813 260.315383 685.316263 252.678717 
C 679.531712 245.042051 673.389553 237.682972 666.910334 230.626102 
L 442.886421 436.3122 
L 701.559575 276.36945 
z
" style="fill: #80fc50"/>
   </g>
   <g id="patch_29">
    <path d="M 666.910334 230.626102 
C 653.944674 216.504497 639.672752 203.640431 624.285221 192.205749 
C 608.89769 180.771067 592.463374 170.816913 575.20181 162.47626 
L 442.886421 436.3122 
L 666.910334 230.626102 
z
" style="fill: #f0189e"/>
   </g>
   <g id="patch_30">
    <path d="M 575.20181 162.47626 
C 560.10057 155.179459 544.421579 149.144328 528.325286 144.432628 
C 512.228993 139.720928 495.770493 136.348786 479.118213 134.35071 
L 442.886421 436.3122 
L 575.20181 162.47626 
z
" style="fill: #268d38"/>
   </g>
   <g id="patch_31">
    <path d="M 479.118213 134.35071 
C 474.362904 133.78013 469.59478 133.321959 464.817831 132.976582 
C 460.040882 132.631204 455.256441 132.398717 450.468512 132.279314 
L 442.886421 436.3122 
L 479.118213 134.35071 
z
" style="fill: #f9dea6"/>
   </g>
   <g id="patch_32">
    <path d="M 450.468512 132.279314 
C 433.702 131.861184 416.929594 132.830705 400.322934 135.177955 
C 383.716273 137.525205 367.332199 141.24215 351.338376 146.290753 
L 442.886421 436.3122 
L 450.468512 132.279314 
z
" style="fill: #6829ab"/>
   </g>
   <g id="patch_33">
    <path d="M 351.338376 146.290753 
C 349.054817 147.011581 346.779852 147.759353 344.513956 148.533914 
C 342.248059 149.308475 339.99139 150.10977 337.74442 150.937633 
L 442.886421 436.3122 
L 351.338376 146.290753 
z
" style="fill: #138d0c"/>
   </g>
   <g id="patch_34">
    <path d="M 337.74442 150.937633 
C 328.754972 154.249661 319.927039 157.984598 311.290156 162.129949 
C 302.653272 166.2753 294.217081 170.826436 286.009807 175.768131 
L 442.886421 436.3122 
L 337.74442 150.937633 
z
" style="fill: #6367da"/>
   </g>
   <g id="patch_35">
    <path d="M 286.009807 175.768131 
C 277.802533 180.709826 269.83334 186.036562 262.12889 191.730519 
C 254.42444 197.424475 246.993334 203.479294 239.860436 209.874718 
L 442.886421 436.3122 
L 286.009807 175.768131 
z
" style="fill: #363697"/>
   </g>
   <g id="patch_36">
    <path d="M 239.860436 209.874718 
C 238.077522 211.473296 236.313551 213.092874 234.568891 214.733116 
C 232.824231 216.373358 231.099004 218.034148 229.393571 219.715139 
L 442.886421 436.3122 
L 239.860436 209.874718 
z
" style="fill: #4771f0"/>
   </g>
   <g id="patch_37">
    <path d="M 229.393571 219.715139 
C 225.982587 223.077238 222.651498 226.519443 219.403092 230.038873 
C 216.154687 233.558302 212.989871 237.153975 209.911292 240.822883 
L 442.886421 436.3122 
L 229.393571 219.715139 
z
" style="fill: #ce58f4"/>
   </g>
   <g id="matplotlib.axis_1"/>
   <g id="matplotlib.axis_2"/>
   <g id="text_1">
    <!-- BGC per Genome -->
    <g transform="translate(390.8175 97.68)scale(0.12 -0.12)">
     <defs>
      <path id="DejaVuSans-42" d="M 1259 2228 
L 1259 519 
L 2272 519 
Q 2781 519 3026 730 
Q 3272 941 3272 1375 
Q 3272 1813 3026 2020 
Q 2781 2228 2272 2228 
L 1259 2228 
z
M 1259 4147 
L 1259 2741 
L 2194 2741 
Q 2656 2741 2882 2914 
Q 3109 3088 3109 3444 
Q 3109 3797 2882 3972 
Q 2656 4147 2194 4147 
L 1259 4147 
z
M 628 4666 
L 2241 4666 
Q 2963 4666 3353 4366 
Q 3744 4066 3744 3513 
Q 3744 3084 3544 2831 
Q 3344 2578 2956 2516 
Q 3422 2416 3680 2098 
Q 3938 1781 3938 1306 
Q 3938 681 3513 340 
Q 3088 0 2303 0 
L 628 0 
L 628 4666 
z
" transform="scale(0.015625)"/>
      <path id="DejaVuSans-47" d="M 3809 666 
L 3809 1919 
L 2778 1919 
L 2778 2438 
L 4434 2438 
L 4434 434 
Q 4069 175 3628 42 
Q 3188 -91 2688 -91 
Q 1594 -91 976 548 
Q 359 1188 359 2328 
Q 359 3472 976 4111 
Q 1594 4750 2688 4750 
Q 3144 4750 3555 4637 
Q 3966 4525 4313 4306 
L 4313 3634 
Q 3963 3931 3569 4081 
Q 3175 4231 2741 4231 
Q 1884 4231 1454 3753 
Q 1025 3275 1025 2328 
Q 1025 1384 1454 906 
Q 1884 428 2741 428 
Q 3075 428 3337 486 
Q 3600 544 3809 666 
z
" transform="scale(0.015625)"/>
      <path id="DejaVuSans-43" d="M 4122 4306 
L 4122 3641 
Q 3803 3938 3442 4084 
Q 3081 4231 2675 4231 
Q 1875 4231 1450 3742 
Q 1025 3253 1025 2328 
Q 1025 1406 1450 917 
Q 1875 428 2675 428 
Q 3081 428 3442 575 
Q 3803 722 4122 1019 
L 4122 359 
Q 3791 134 3420 21 
Q 3050 -91 2638 -91 
Q 1578 -91 968 557 
Q 359 1206 359 2328 
Q 359 3453 968 4101 
Q 1578 4750 2638 4750 
Q 3056 4750 3426 4639 
Q 3797 4528 4122 4306 
z
" transform="scale(0.015625)"/>
      <path id="DejaVuSans-20" transform="scale(0.015625)"/>
      <path id="DejaVuSans-70" d="M 1159 525 
L 1159 -1331 
L 581 -1331 
L 581 3500 
L 1159 3500 
L 1159 2969 
Q 1341 3281 1617 3432 
Q 1894 3584 2278 3584 
Q 2916 3584 3314 3078 
Q 3713 2572 3713 1747 
Q 3713 922 3314 415 
Q 2916 -91 2278 -91 
Q 1894 -91 1617 61 
Q 1341 213 1159 525 
z
M 3116 1747 
Q 3116 2381 2855 2742 
Q 2594 3103 2138 3103 
Q 1681 3103 1420 2742 
Q 1159 2381 1159 1747 
Q 1159 1113 1420 752 
Q 1681 391 2138 391 
Q 2594 391 2855 752 
Q 3116 1113 3116 1747 
z
" transform="scale(0.015625)"/>
      <path id="DejaVuSans-65" d="M 3597 1894 
L 3597 1613 
L 953 1613 
Q 991 1019 1311 708 
Q 1631 397 2203 397 
Q 2534 397 2845 478 
Q 3156 559 3463 722 
L 3463 178 
Q 3153 47 2828 -22 
Q 2503 -91 2169 -91 
Q 1331 -91 842 396 
Q 353 884 353 1716 
Q 353 2575 817 3079 
Q 1281 3584 2069 3584 
Q 2775 3584 3186 3129 
Q 3597 2675 3597 1894 
z
M 3022 2063 
Q 3016 2534 2758 2815 
Q 2500 3097 2075 3097 
Q 1594 3097 1305 2825 
Q 1016 2553 972 2059 
L 3022 2063 
z
" transform="scale(0.015625)"/>
      <path id="DejaVuSans-72" d="M 2631 2963 
Q 2534 3019 2420 3045 
Q 2306 3072 2169 3072 
Q 1681 3072 1420 2755 
Q 1159 2438 1159 1844 
L 1159 0 
L 581 0 
L 581 3500 
L 1159 3500 
L 1159 2956 
Q 1341 3275 1631 3429 
Q 1922 3584 2338 3584 
Q 2397 3584 2469 3576 
Q 2541 3569 2628 3553 
L 2631 2963 
z
" transform="scale(0.015625)"/>
      <path id="DejaVuSans-6e" d="M 3513 2113 
L 3513 0 
L 2938 0 
L 2938 2094 
Q 2938 2591 2744 2837 
Q 2550 3084 2163 3084 
Q 1697 3084 1428 2787 
Q 1159 2491 1159 1978 
L 1159 0 
L 581 0 
L 581 3500 
L 1159 3500 
L 1159 2956 
Q 1366 3272 1645 3428 
Q 1925 3584 2291 3584 
Q 2894 3584 3203 3211 
Q 3513 2838 3513 2113 
z
" transform="scale(0.015625)"/>
      <path id="DejaVuSans-6f" d="M 1959 3097 
Q 1497 3097 1228 2736 
Q 959 2375 959 1747 
Q 959 1119 1226 758 
Q 1494 397 1959 397 
Q 2419 397 2687 759 
Q 2956 1122 2956 1747 
Q 2956 2369 2687 2733 
Q 2419 3097 1959 3097 
z
M 1959 3584 
Q 2709 3584 3137 3096 
Q 3566 2609 3566 1747 
Q 3566 888 3137 398 
Q 2709 -91 1959 -91 
Q 1206 -91 779 398 
Q 353 888 353 1747 
Q 353 2609 779 3096 
Q 1206 3584 1959 3584 
z
" transform="scale(0.015625)"/>
      <path id="DejaVuSans-6d" d="M 3328 2828 
Q 3544 3216 3844 3400 
Q 4144 3584 4550 3584 
Q 5097 3584 5394 3201 
Q 5691 2819 5691 2113 
L 5691 0 
L 5113 0 
L 5113 2094 
Q 5113 2597 4934 2840 
Q 4756 3084 4391 3084 
Q 3944 3084 3684 2787 
Q 3425 2491 3425 1978 
L 3425 0 
L 2847 0 
L 2847 2094 
Q 2847 2600 2669 2842 
Q 2491 3084 2119 3084 
Q 1678 3084 1418 2786 
Q 1159 2488 1159 1978 
L 1159 0 
L 581 0 
L 581 3500 
L 1159 3500 
L 1159 2956 
Q 1356 3278 1631 3431 
Q 1906 3584 2284 3584 
Q 2666 3584 2933 3390 
Q 3200 3197 3328 2828 
z
" transform="scale(0.015625)"/>
     </defs>
     <use xlink:href="#DejaVuSans-42"/>
     <use xlink:href="#DejaVuSans-47" x="66.853516"/>
     <use xlink:href="#DejaVuSans-43" x="144.34375"/>
     <use xlink:href="#DejaVuSans-20" x="214.167969"/>
     <use xlink:href="#DejaVuSans-70" x="245.955078"/>
     <use xlink:href="#DejaVuSans-65" x="309.431641"/>
     <use xlink:href="#DejaVuSans-72" x="370.955078"/>
     <use xlink:href="#DejaVuSans-20" x="412.068359"/>
     <use xlink:href="#DejaVuSans-47" x="443.855469"/>
     <use xlink:href="#DejaVuSans-65" x="521.345703"/>
     <use xlink:href="#DejaVuSans-6e" x="582.869141"/>
     <use xlink:href="#DejaVuSans-6f" x="646.248047"/>
     <use xlink:href="#DejaVuSans-6d" x="707.429688"/>
     <use xlink:href="#DejaVuSans-65" x="804.841797"/>
    </g>
   </g>
   <g id="legend_1">
    <g id="patch_38">
     <path d="M 650.707813 643.98625 
L 770.6 643.98625 
Q 772.6 643.98625 772.6 641.98625 
L 772.6 110.68 
Q 772.6 108.68 770.6 108.68 
L 650.707813 108.68 
Q 648.707813 108.68 648.707813 110.68 
L 648.707813 641.98625 
Q 648.707813 643.98625 650.707813 643.98625 
z
" style="fill: #ffffff; opacity: 0.8; stroke: #cccccc; stroke-linejoin: miter"/>
    </g>
    <g id="patch_39">
     <path d="M 652.707813 120.278437 
L 672.707813 120.278437 
L 672.707813 113.278437 
L 652.707813 113.278437 
z
" style="fill: #363997"/>
    </g>
    <g id="text_2">
     <!-- 1078 -->
     <g transform="translate(680.707813 120.278437)scale(0.1 -0.1)">
      <defs>
       <path id="DejaVuSans-31" d="M 794 531 
L 1825 531 
L 1825 4091 
L 703 3866 
L 703 4441 
L 1819 4666 
L 2450 4666 
L 2450 531 
L 3481 531 
L 3481 0 
L 794 0 
L 794 531 
z
" transform="scale(0.015625)"/>
       <path id="DejaVuSans-30" d="M 2034 4250 
Q 1547 4250 1301 3770 
Q 1056 3291 1056 2328 
Q 1056 1369 1301 889 
Q 1547 409 2034 409 
Q 2525 409 2770 889 
Q 3016 1369 3016 2328 
Q 3016 3291 2770 3770 
Q 2525 4250 2034 4250 
z
M 2034 4750 
Q 2819 4750 3233 4129 
Q 3647 3509 3647 2328 
Q 3647 1150 3233 529 
Q 2819 -91 2034 -91 
Q 1250 -91 836 529 
Q 422 1150 422 2328 
Q 422 3509 836 4129 
Q 1250 4750 2034 4750 
z
" transform="scale(0.015625)"/>
       <path id="DejaVuSans-37" d="M 525 4666 
L 3525 4666 
L 3525 4397 
L 1831 0 
L 1172 0 
L 2766 4134 
L 525 4134 
L 525 4666 
z
" transform="scale(0.015625)"/>
       <path id="DejaVuSans-38" d="M 2034 2216 
Q 1584 2216 1326 1975 
Q 1069 1734 1069 1313 
Q 1069 891 1326 650 
Q 1584 409 2034 409 
Q 2484 409 2743 651 
Q 3003 894 3003 1313 
Q 3003 1734 2745 1975 
Q 2488 2216 2034 2216 
z
M 1403 2484 
Q 997 2584 770 2862 
Q 544 3141 544 3541 
Q 544 4100 942 4425 
Q 1341 4750 2034 4750 
Q 2731 4750 3128 4425 
Q 3525 4100 3525 3541 
Q 3525 3141 3298 2862 
Q 3072 2584 2669 2484 
Q 3125 2378 3379 2068 
Q 3634 1759 3634 1313 
Q 3634 634 3220 271 
Q 2806 -91 2034 -91 
Q 1263 -91 848 271 
Q 434 634 434 1313 
Q 434 1759 690 2068 
Q 947 2378 1403 2484 
z
M 1172 3481 
Q 1172 3119 1398 2916 
Q 1625 2713 2034 2713 
Q 2441 2713 2670 2916 
Q 2900 3119 2900 3481 
Q 2900 3844 2670 4047 
Q 2441 4250 2034 4250 
Q 1625 4250 1398 4047 
Q 1172 3844 1172 3481 
z
" transform="scale(0.015625)"/>
      </defs>
      <use xlink:href="#DejaVuSans-31"/>
      <use xlink:href="#DejaVuSans-30" x="63.623047"/>
      <use xlink:href="#DejaVuSans-37" x="127.246094"/>
      <use xlink:href="#DejaVuSans-38" x="190.869141"/>
     </g>
    </g>
    <g id="patch_40">
     <path d="M 652.707813 134.956563 
L 672.707813 134.956563 
L 672.707813 127.956563 
L 652.707813 127.956563 
z
" style="fill: #c3b4ce"/>
    </g>
    <g id="text_3">
     <!-- 118_sub -->
     <g transform="translate(680.707813 134.956563)scale(0.1 -0.1)">
      <defs>
       <path id="DejaVuSans-5f" d="M 3263 -1063 
L 3263 -1509 
L -63 -1509 
L -63 -1063 
L 3263 -1063 
z
" transform="scale(0.015625)"/>
       <path id="DejaVuSans-73" d="M 2834 3397 
L 2834 2853 
Q 2591 2978 2328 3040 
Q 2066 3103 1784 3103 
Q 1356 3103 1142 2972 
Q 928 2841 928 2578 
Q 928 2378 1081 2264 
Q 1234 2150 1697 2047 
L 1894 2003 
Q 2506 1872 2764 1633 
Q 3022 1394 3022 966 
Q 3022 478 2636 193 
Q 2250 -91 1575 -91 
Q 1294 -91 989 -36 
Q 684 19 347 128 
L 347 722 
Q 666 556 975 473 
Q 1284 391 1588 391 
Q 1994 391 2212 530 
Q 2431 669 2431 922 
Q 2431 1156 2273 1281 
Q 2116 1406 1581 1522 
L 1381 1569 
Q 847 1681 609 1914 
Q 372 2147 372 2553 
Q 372 3047 722 3315 
Q 1072 3584 1716 3584 
Q 2034 3584 2315 3537 
Q 2597 3491 2834 3397 
z
" transform="scale(0.015625)"/>
       <path id="DejaVuSans-75" d="M 544 1381 
L 544 3500 
L 1119 3500 
L 1119 1403 
Q 1119 906 1312 657 
Q 1506 409 1894 409 
Q 2359 409 2629 706 
Q 2900 1003 2900 1516 
L 2900 3500 
L 3475 3500 
L 3475 0 
L 2900 0 
L 2900 538 
Q 2691 219 2414 64 
Q 2138 -91 1772 -91 
Q 1169 -91 856 284 
Q 544 659 544 1381 
z
M 1991 3584 
L 1991 3584 
z
" transform="scale(0.015625)"/>
       <path id="DejaVuSans-62" d="M 3116 1747 
Q 3116 2381 2855 2742 
Q 2594 3103 2138 3103 
Q 1681 3103 1420 2742 
Q 1159 2381 1159 1747 
Q 1159 1113 1420 752 
Q 1681 391 2138 391 
Q 2594 391 2855 752 
Q 3116 1113 3116 1747 
z
M 1159 2969 
Q 1341 3281 1617 3432 
Q 1894 3584 2278 3584 
Q 2916 3584 3314 3078 
Q 3713 2572 3713 1747 
Q 3713 922 3314 415 
Q 2916 -91 2278 -91 
Q 1894 -91 1617 61 
Q 1341 213 1159 525 
L 1159 0 
L 581 0 
L 581 4863 
L 1159 4863 
L 1159 2969 
z
" transform="scale(0.015625)"/>
      </defs>
      <use xlink:href="#DejaVuSans-31"/>
      <use xlink:href="#DejaVuSans-31" x="63.623047"/>
      <use xlink:href="#DejaVuSans-38" x="127.246094"/>
      <use xlink:href="#DejaVuSans-5f" x="190.869141"/>
      <use xlink:href="#DejaVuSans-73" x="240.869141"/>
      <use xlink:href="#DejaVuSans-75" x="292.96875"/>
      <use xlink:href="#DejaVuSans-62" x="356.347656"/>
     </g>
    </g>
    <g id="patch_41">
     <path d="M 652.707813 149.912812 
L 672.707813 149.912812 
L 672.707813 142.912812 
L 652.707813 142.912812 
z
" style="fill: #cafa72"/>
    </g>
    <g id="text_4">
     <!-- 661_sub -->
     <g transform="translate(680.707813 149.912812)scale(0.1 -0.1)">
      <defs>
       <path id="DejaVuSans-36" d="M 2113 2584 
Q 1688 2584 1439 2293 
Q 1191 2003 1191 1497 
Q 1191 994 1439 701 
Q 1688 409 2113 409 
Q 2538 409 2786 701 
Q 3034 994 3034 1497 
Q 3034 2003 2786 2293 
Q 2538 2584 2113 2584 
z
M 3366 4563 
L 3366 3988 
Q 3128 4100 2886 4159 
Q 2644 4219 2406 4219 
Q 1781 4219 1451 3797 
Q 1122 3375 1075 2522 
Q 1259 2794 1537 2939 
Q 1816 3084 2150 3084 
Q 2853 3084 3261 2657 
Q 3669 2231 3669 1497 
Q 3669 778 3244 343 
Q 2819 -91 2113 -91 
Q 1303 -91 875 529 
Q 447 1150 447 2328 
Q 447 3434 972 4092 
Q 1497 4750 2381 4750 
Q 2619 4750 2861 4703 
Q 3103 4656 3366 4563 
z
" transform="scale(0.015625)"/>
      </defs>
      <use xlink:href="#DejaVuSans-36"/>
      <use xlink:href="#DejaVuSans-36" x="63.623047"/>
      <use xlink:href="#DejaVuSans-31" x="127.246094"/>
      <use xlink:href="#DejaVuSans-5f" x="190.869141"/>
      <use xlink:href="#DejaVuSans-73" x="240.869141"/>
      <use xlink:href="#DejaVuSans-75" x="292.96875"/>
      <use xlink:href="#DejaVuSans-62" x="356.347656"/>
     </g>
    </g>
    <g id="patch_42">
     <path d="M 652.707813 164.869062 
L 672.707813 164.869062 
L 672.707813 157.869062 
L 652.707813 157.869062 
z
" style="fill: #fec6c8"/>
    </g>
    <g id="text_5">
     <!-- 708_sub -->
     <g transform="translate(680.707813 164.869062)scale(0.1 -0.1)">
      <use xlink:href="#DejaVuSans-37"/>
      <use xlink:href="#DejaVuSans-30" x="63.623047"/>
      <use xlink:href="#DejaVuSans-38" x="127.246094"/>
      <use xlink:href="#DejaVuSans-5f" x="190.869141"/>
      <use xlink:href="#DejaVuSans-73" x="240.869141"/>
      <use xlink:href="#DejaVuSans-75" x="292.96875"/>
      <use xlink:href="#DejaVuSans-62" x="356.347656"/>
     </g>
    </g>
    <g id="patch_43">
     <path d="M 652.707813 179.825312 
L 672.707813 179.825312 
L 672.707813 172.825312 
L 652.707813 172.825312 
z
" style="fill: #8ae53c"/>
    </g>
    <g id="text_6">
     <!-- 850 -->
     <g transform="translate(680.707813 179.825312)scale(0.1 -0.1)">
      <defs>
       <path id="DejaVuSans-35" d="M 691 4666 
L 3169 4666 
L 3169 4134 
L 1269 4134 
L 1269 2991 
Q 1406 3038 1543 3061 
Q 1681 3084 1819 3084 
Q 2600 3084 3056 2656 
Q 3513 2228 3513 1497 
Q 3513 744 3044 326 
Q 2575 -91 1722 -91 
Q 1428 -91 1123 -41 
Q 819 9 494 109 
L 494 744 
Q 775 591 1075 516 
Q 1375 441 1709 441 
Q 2250 441 2565 725 
Q 2881 1009 2881 1497 
Q 2881 1984 2565 2268 
Q 2250 2553 1709 2553 
Q 1456 2553 1204 2497 
Q 953 2441 691 2322 
L 691 4666 
z
" transform="scale(0.015625)"/>
      </defs>
      <use xlink:href="#DejaVuSans-38"/>
      <use xlink:href="#DejaVuSans-35" x="63.623047"/>
      <use xlink:href="#DejaVuSans-30" x="127.246094"/>
     </g>
    </g>
    <g id="patch_44">
     <path d="M 652.707813 194.503438 
L 672.707813 194.503438 
L 672.707813 187.503438 
L 652.707813 187.503438 
z
" style="fill: #346c10"/>
    </g>
    <g id="text_7">
     <!-- 966_sub -->
     <g transform="translate(680.707813 194.503438)scale(0.1 -0.1)">
      <defs>
       <path id="DejaVuSans-39" d="M 703 97 
L 703 672 
Q 941 559 1184 500 
Q 1428 441 1663 441 
Q 2288 441 2617 861 
Q 2947 1281 2994 2138 
Q 2813 1869 2534 1725 
Q 2256 1581 1919 1581 
Q 1219 1581 811 2004 
Q 403 2428 403 3163 
Q 403 3881 828 4315 
Q 1253 4750 1959 4750 
Q 2769 4750 3195 4129 
Q 3622 3509 3622 2328 
Q 3622 1225 3098 567 
Q 2575 -91 1691 -91 
Q 1453 -91 1209 -44 
Q 966 3 703 97 
z
M 1959 2075 
Q 2384 2075 2632 2365 
Q 2881 2656 2881 3163 
Q 2881 3666 2632 3958 
Q 2384 4250 1959 4250 
Q 1534 4250 1286 3958 
Q 1038 3666 1038 3163 
Q 1038 2656 1286 2365 
Q 1534 2075 1959 2075 
z
" transform="scale(0.015625)"/>
      </defs>
      <use xlink:href="#DejaVuSans-39"/>
      <use xlink:href="#DejaVuSans-36" x="63.623047"/>
      <use xlink:href="#DejaVuSans-36" x="127.246094"/>
      <use xlink:href="#DejaVuSans-5f" x="190.869141"/>
      <use xlink:href="#DejaVuSans-73" x="240.869141"/>
      <use xlink:href="#DejaVuSans-75" x="292.96875"/>
      <use xlink:href="#DejaVuSans-62" x="356.347656"/>
     </g>
    </g>
    <g id="patch_45">
     <path d="M 652.707813 209.459687 
L 672.707813 209.459687 
L 672.707813 202.459687 
L 652.707813 202.459687 
z
" style="fill: #5e7142"/>
    </g>
    <g id="text_8">
     <!-- CONCOCT.11_sub -->
     <g transform="translate(680.707813 209.459687)scale(0.1 -0.1)">
      <defs>
       <path id="DejaVuSans-4f" d="M 2522 4238 
Q 1834 4238 1429 3725 
Q 1025 3213 1025 2328 
Q 1025 1447 1429 934 
Q 1834 422 2522 422 
Q 3209 422 3611 934 
Q 4013 1447 4013 2328 
Q 4013 3213 3611 3725 
Q 3209 4238 2522 4238 
z
M 2522 4750 
Q 3503 4750 4090 4092 
Q 4678 3434 4678 2328 
Q 4678 1225 4090 567 
Q 3503 -91 2522 -91 
Q 1538 -91 948 565 
Q 359 1222 359 2328 
Q 359 3434 948 4092 
Q 1538 4750 2522 4750 
z
" transform="scale(0.015625)"/>
       <path id="DejaVuSans-4e" d="M 628 4666 
L 1478 4666 
L 3547 763 
L 3547 4666 
L 4159 4666 
L 4159 0 
L 3309 0 
L 1241 3903 
L 1241 0 
L 628 0 
L 628 4666 
z
" transform="scale(0.015625)"/>
       <path id="DejaVuSans-54" d="M -19 4666 
L 3928 4666 
L 3928 4134 
L 2272 4134 
L 2272 0 
L 1638 0 
L 1638 4134 
L -19 4134 
L -19 4666 
z
" transform="scale(0.015625)"/>
       <path id="DejaVuSans-2e" d="M 684 794 
L 1344 794 
L 1344 0 
L 684 0 
L 684 794 
z
" transform="scale(0.015625)"/>
      </defs>
      <use xlink:href="#DejaVuSans-43"/>
      <use xlink:href="#DejaVuSans-4f" x="69.824219"/>
      <use xlink:href="#DejaVuSans-4e" x="148.535156"/>
      <use xlink:href="#DejaVuSans-43" x="223.339844"/>
      <use xlink:href="#DejaVuSans-4f" x="293.164062"/>
      <use xlink:href="#DejaVuSans-43" x="371.875"/>
      <use xlink:href="#DejaVuSans-54" x="441.699219"/>
      <use xlink:href="#DejaVuSans-2e" x="490.908203"/>
      <use xlink:href="#DejaVuSans-31" x="522.695312"/>
      <use xlink:href="#DejaVuSans-31" x="586.318359"/>
      <use xlink:href="#DejaVuSans-5f" x="649.941406"/>
      <use xlink:href="#DejaVuSans-73" x="699.941406"/>
      <use xlink:href="#DejaVuSans-75" x="752.041016"/>
      <use xlink:href="#DejaVuSans-62" x="815.419922"/>
     </g>
    </g>
    <g id="patch_46">
     <path d="M 652.707813 224.415937 
L 672.707813 224.415937 
L 672.707813 217.415937 
L 652.707813 217.415937 
z
" style="fill: #a05b70"/>
    </g>
    <g id="text_9">
     <!-- CONCOCT.32 -->
     <g transform="translate(680.707813 224.415937)scale(0.1 -0.1)">
      <defs>
       <path id="DejaVuSans-33" d="M 2597 2516 
Q 3050 2419 3304 2112 
Q 3559 1806 3559 1356 
Q 3559 666 3084 287 
Q 2609 -91 1734 -91 
Q 1441 -91 1130 -33 
Q 819 25 488 141 
L 488 750 
Q 750 597 1062 519 
Q 1375 441 1716 441 
Q 2309 441 2620 675 
Q 2931 909 2931 1356 
Q 2931 1769 2642 2001 
Q 2353 2234 1838 2234 
L 1294 2234 
L 1294 2753 
L 1863 2753 
Q 2328 2753 2575 2939 
Q 2822 3125 2822 3475 
Q 2822 3834 2567 4026 
Q 2313 4219 1838 4219 
Q 1578 4219 1281 4162 
Q 984 4106 628 3988 
L 628 4550 
Q 988 4650 1302 4700 
Q 1616 4750 1894 4750 
Q 2613 4750 3031 4423 
Q 3450 4097 3450 3541 
Q 3450 3153 3228 2886 
Q 3006 2619 2597 2516 
z
" transform="scale(0.015625)"/>
       <path id="DejaVuSans-32" d="M 1228 531 
L 3431 531 
L 3431 0 
L 469 0 
L 469 531 
Q 828 903 1448 1529 
Q 2069 2156 2228 2338 
Q 2531 2678 2651 2914 
Q 2772 3150 2772 3378 
Q 2772 3750 2511 3984 
Q 2250 4219 1831 4219 
Q 1534 4219 1204 4116 
Q 875 4013 500 3803 
L 500 4441 
Q 881 4594 1212 4672 
Q 1544 4750 1819 4750 
Q 2544 4750 2975 4387 
Q 3406 4025 3406 3419 
Q 3406 3131 3298 2873 
Q 3191 2616 2906 2266 
Q 2828 2175 2409 1742 
Q 1991 1309 1228 531 
z
" transform="scale(0.015625)"/>
      </defs>
      <use xlink:href="#DejaVuSans-43"/>
      <use xlink:href="#DejaVuSans-4f" x="69.824219"/>
      <use xlink:href="#DejaVuSans-4e" x="148.535156"/>
      <use xlink:href="#DejaVuSans-43" x="223.339844"/>
      <use xlink:href="#DejaVuSans-4f" x="293.164062"/>
      <use xlink:href="#DejaVuSans-43" x="371.875"/>
      <use xlink:href="#DejaVuSans-54" x="441.699219"/>
      <use xlink:href="#DejaVuSans-2e" x="490.908203"/>
      <use xlink:href="#DejaVuSans-33" x="522.695312"/>
      <use xlink:href="#DejaVuSans-32" x="586.318359"/>
     </g>
    </g>
    <g id="patch_47">
     <path d="M 652.707813 239.094062 
L 672.707813 239.094062 
L 672.707813 232.094062 
L 652.707813 232.094062 
z
" style="fill: #5141e4"/>
    </g>
    <g id="text_10">
     <!-- CONCOCT.48 -->
     <g transform="translate(680.707813 239.094062)scale(0.1 -0.1)">
      <defs>
       <path id="DejaVuSans-34" d="M 2419 4116 
L 825 1625 
L 2419 1625 
L 2419 4116 
z
M 2253 4666 
L 3047 4666 
L 3047 1625 
L 3713 1625 
L 3713 1100 
L 3047 1100 
L 3047 0 
L 2419 0 
L 2419 1100 
L 313 1100 
L 313 1709 
L 2253 4666 
z
" transform="scale(0.015625)"/>
      </defs>
      <use xlink:href="#DejaVuSans-43"/>
      <use xlink:href="#DejaVuSans-4f" x="69.824219"/>
      <use xlink:href="#DejaVuSans-4e" x="148.535156"/>
      <use xlink:href="#DejaVuSans-43" x="223.339844"/>
      <use xlink:href="#DejaVuSans-4f" x="293.164062"/>
      <use xlink:href="#DejaVuSans-43" x="371.875"/>
      <use xlink:href="#DejaVuSans-54" x="441.699219"/>
      <use xlink:href="#DejaVuSans-2e" x="490.908203"/>
      <use xlink:href="#DejaVuSans-34" x="522.695312"/>
      <use xlink:href="#DejaVuSans-38" x="586.318359"/>
     </g>
    </g>
    <g id="patch_48">
     <path d="M 652.707813 253.772187 
L 672.707813 253.772187 
L 672.707813 246.772187 
L 652.707813 246.772187 
z
" style="fill: #5b982d"/>
    </g>
    <g id="text_11">
     <!-- CONCOCT.52_sub -->
     <g transform="translate(680.707813 253.772187)scale(0.1 -0.1)">
      <use xlink:href="#DejaVuSans-43"/>
      <use xlink:href="#DejaVuSans-4f" x="69.824219"/>
      <use xlink:href="#DejaVuSans-4e" x="148.535156"/>
      <use xlink:href="#DejaVuSans-43" x="223.339844"/>
      <use xlink:href="#DejaVuSans-4f" x="293.164062"/>
      <use xlink:href="#DejaVuSans-43" x="371.875"/>
      <use xlink:href="#DejaVuSans-54" x="441.699219"/>
      <use xlink:href="#DejaVuSans-2e" x="490.908203"/>
      <use xlink:href="#DejaVuSans-35" x="522.695312"/>
      <use xlink:href="#DejaVuSans-32" x="586.318359"/>
      <use xlink:href="#DejaVuSans-5f" x="649.941406"/>
      <use xlink:href="#DejaVuSans-73" x="699.941406"/>
      <use xlink:href="#DejaVuSans-75" x="752.041016"/>
      <use xlink:href="#DejaVuSans-62" x="815.419922"/>
     </g>
    </g>
    <g id="patch_49">
     <path d="M 652.707813 268.728437 
L 672.707813 268.728437 
L 672.707813 261.728437 
L 652.707813 261.728437 
z
" style="fill: #30f729"/>
    </g>
    <g id="text_12">
     <!-- CONCOCT.61 -->
     <g transform="translate(680.707813 268.728437)scale(0.1 -0.1)">
      <use xlink:href="#DejaVuSans-43"/>
      <use xlink:href="#DejaVuSans-4f" x="69.824219"/>
      <use xlink:href="#DejaVuSans-4e" x="148.535156"/>
      <use xlink:href="#DejaVuSans-43" x="223.339844"/>
      <use xlink:href="#DejaVuSans-4f" x="293.164062"/>
      <use xlink:href="#DejaVuSans-43" x="371.875"/>
      <use xlink:href="#DejaVuSans-54" x="441.699219"/>
      <use xlink:href="#DejaVuSans-2e" x="490.908203"/>
      <use xlink:href="#DejaVuSans-36" x="522.695312"/>
      <use xlink:href="#DejaVuSans-31" x="586.318359"/>
     </g>
    </g>
    <g id="patch_50">
     <path d="M 652.707813 283.406562 
L 672.707813 283.406562 
L 672.707813 276.406562 
L 652.707813 276.406562 
z
" style="fill: #821eba"/>
    </g>
    <g id="text_13">
     <!-- bins.044_sub -->
     <g transform="translate(680.707813 283.406562)scale(0.1 -0.1)">
      <defs>
       <path id="DejaVuSans-69" d="M 603 3500 
L 1178 3500 
L 1178 0 
L 603 0 
L 603 3500 
z
M 603 4863 
L 1178 4863 
L 1178 4134 
L 603 4134 
L 603 4863 
z
" transform="scale(0.015625)"/>
      </defs>
      <use xlink:href="#DejaVuSans-62"/>
      <use xlink:href="#DejaVuSans-69" x="63.476562"/>
      <use xlink:href="#DejaVuSans-6e" x="91.259766"/>
      <use xlink:href="#DejaVuSans-73" x="154.638672"/>
      <use xlink:href="#DejaVuSans-2e" x="206.738281"/>
      <use xlink:href="#DejaVuSans-30" x="238.525391"/>
      <use xlink:href="#DejaVuSans-34" x="302.148438"/>
      <use xlink:href="#DejaVuSans-34" x="365.771484"/>
      <use xlink:href="#DejaVuSans-5f" x="429.394531"/>
      <use xlink:href="#DejaVuSans-73" x="479.394531"/>
      <use xlink:href="#DejaVuSans-75" x="531.494141"/>
      <use xlink:href="#DejaVuSans-62" x="594.873047"/>
     </g>
    </g>
    <g id="patch_51">
     <path d="M 652.707813 298.362812 
L 672.707813 298.362812 
L 672.707813 291.362812 
L 652.707813 291.362812 
z
" style="fill: #02325c"/>
    </g>
    <g id="text_14">
     <!-- bins.062_sub -->
     <g transform="translate(680.707813 298.362812)scale(0.1 -0.1)">
      <use xlink:href="#DejaVuSans-62"/>
      <use xlink:href="#DejaVuSans-69" x="63.476562"/>
      <use xlink:href="#DejaVuSans-6e" x="91.259766"/>
      <use xlink:href="#DejaVuSans-73" x="154.638672"/>
      <use xlink:href="#DejaVuSans-2e" x="206.738281"/>
      <use xlink:href="#DejaVuSans-30" x="238.525391"/>
      <use xlink:href="#DejaVuSans-36" x="302.148438"/>
      <use xlink:href="#DejaVuSans-32" x="365.771484"/>
      <use xlink:href="#DejaVuSans-5f" x="429.394531"/>
      <use xlink:href="#DejaVuSans-73" x="479.394531"/>
      <use xlink:href="#DejaVuSans-75" x="531.494141"/>
      <use xlink:href="#DejaVuSans-62" x="594.873047"/>
     </g>
    </g>
    <g id="patch_52">
     <path d="M 652.707813 313.319062 
L 672.707813 313.319062 
L 672.707813 306.319062 
L 652.707813 306.319062 
z
" style="fill: #c6e51b"/>
    </g>
    <g id="text_15">
     <!-- bins.077_sub -->
     <g transform="translate(680.707813 313.319062)scale(0.1 -0.1)">
      <use xlink:href="#DejaVuSans-62"/>
      <use xlink:href="#DejaVuSans-69" x="63.476562"/>
      <use xlink:href="#DejaVuSans-6e" x="91.259766"/>
      <use xlink:href="#DejaVuSans-73" x="154.638672"/>
      <use xlink:href="#DejaVuSans-2e" x="206.738281"/>
      <use xlink:href="#DejaVuSans-30" x="238.525391"/>
      <use xlink:href="#DejaVuSans-37" x="302.148438"/>
      <use xlink:href="#DejaVuSans-37" x="365.771484"/>
      <use xlink:href="#DejaVuSans-5f" x="429.394531"/>
      <use xlink:href="#DejaVuSans-73" x="479.394531"/>
      <use xlink:href="#DejaVuSans-75" x="531.494141"/>
      <use xlink:href="#DejaVuSans-62" x="594.873047"/>
     </g>
    </g>
    <g id="patch_53">
     <path d="M 652.707813 328.275312 
L 672.707813 328.275312 
L 672.707813 321.275312 
L 652.707813 321.275312 
z
" style="fill: #2a425b"/>
    </g>
    <g id="text_16">
     <!-- bins.091_sub -->
     <g transform="translate(680.707813 328.275312)scale(0.1 -0.1)">
      <use xlink:href="#DejaVuSans-62"/>
      <use xlink:href="#DejaVuSans-69" x="63.476562"/>
      <use xlink:href="#DejaVuSans-6e" x="91.259766"/>
      <use xlink:href="#DejaVuSans-73" x="154.638672"/>
      <use xlink:href="#DejaVuSans-2e" x="206.738281"/>
      <use xlink:href="#DejaVuSans-30" x="238.525391"/>
      <use xlink:href="#DejaVuSans-39" x="302.148438"/>
      <use xlink:href="#DejaVuSans-31" x="365.771484"/>
      <use xlink:href="#DejaVuSans-5f" x="429.394531"/>
      <use xlink:href="#DejaVuSans-73" x="479.394531"/>
      <use xlink:href="#DejaVuSans-75" x="531.494141"/>
      <use xlink:href="#DejaVuSans-62" x="594.873047"/>
     </g>
    </g>
    <g id="patch_54">
     <path d="M 652.707813 343.231562 
L 672.707813 343.231562 
L 672.707813 336.231562 
L 652.707813 336.231562 
z
" style="fill: #60e6dc"/>
    </g>
    <g id="text_17">
     <!-- bins.100 -->
     <g transform="translate(680.707813 343.231562)scale(0.1 -0.1)">
      <use xlink:href="#DejaVuSans-62"/>
      <use xlink:href="#DejaVuSans-69" x="63.476562"/>
      <use xlink:href="#DejaVuSans-6e" x="91.259766"/>
      <use xlink:href="#DejaVuSans-73" x="154.638672"/>
      <use xlink:href="#DejaVuSans-2e" x="206.738281"/>
      <use xlink:href="#DejaVuSans-31" x="238.525391"/>
      <use xlink:href="#DejaVuSans-30" x="302.148438"/>
      <use xlink:href="#DejaVuSans-30" x="365.771484"/>
     </g>
    </g>
    <g id="patch_55">
     <path d="M 652.707813 357.909687 
L 672.707813 357.909687 
L 672.707813 350.909687 
L 652.707813 350.909687 
z
" style="fill: #a4353e"/>
    </g>
    <g id="text_18">
     <!-- bins.102_sub -->
     <g transform="translate(680.707813 357.909687)scale(0.1 -0.1)">
      <use xlink:href="#DejaVuSans-62"/>
      <use xlink:href="#DejaVuSans-69" x="63.476562"/>
      <use xlink:href="#DejaVuSans-6e" x="91.259766"/>
      <use xlink:href="#DejaVuSans-73" x="154.638672"/>
      <use xlink:href="#DejaVuSans-2e" x="206.738281"/>
      <use xlink:href="#DejaVuSans-31" x="238.525391"/>
      <use xlink:href="#DejaVuSans-30" x="302.148438"/>
      <use xlink:href="#DejaVuSans-32" x="365.771484"/>
      <use xlink:href="#DejaVuSans-5f" x="429.394531"/>
      <use xlink:href="#DejaVuSans-73" x="479.394531"/>
      <use xlink:href="#DejaVuSans-75" x="531.494141"/>
      <use xlink:href="#DejaVuSans-62" x="594.873047"/>
     </g>
    </g>
    <g id="patch_56">
     <path d="M 652.707813 372.865937 
L 672.707813 372.865937 
L 672.707813 365.865937 
L 652.707813 365.865937 
z
" style="fill: #4002ea"/>
    </g>
    <g id="text_19">
     <!-- bins.104 -->
     <g transform="translate(680.707813 372.865937)scale(0.1 -0.1)">
      <use xlink:href="#DejaVuSans-62"/>
      <use xlink:href="#DejaVuSans-69" x="63.476562"/>
      <use xlink:href="#DejaVuSans-6e" x="91.259766"/>
      <use xlink:href="#DejaVuSans-73" x="154.638672"/>
      <use xlink:href="#DejaVuSans-2e" x="206.738281"/>
      <use xlink:href="#DejaVuSans-31" x="238.525391"/>
      <use xlink:href="#DejaVuSans-30" x="302.148438"/>
      <use xlink:href="#DejaVuSans-34" x="365.771484"/>
     </g>
    </g>
    <g id="patch_57">
     <path d="M 652.707813 387.544062 
L 672.707813 387.544062 
L 672.707813 380.544062 
L 652.707813 380.544062 
z
" style="fill: #cf14ef"/>
    </g>
    <g id="text_20">
     <!-- bins.118 -->
     <g transform="translate(680.707813 387.544062)scale(0.1 -0.1)">
      <use xlink:href="#DejaVuSans-62"/>
      <use xlink:href="#DejaVuSans-69" x="63.476562"/>
      <use xlink:href="#DejaVuSans-6e" x="91.259766"/>
      <use xlink:href="#DejaVuSans-73" x="154.638672"/>
      <use xlink:href="#DejaVuSans-2e" x="206.738281"/>
      <use xlink:href="#DejaVuSans-31" x="238.525391"/>
      <use xlink:href="#DejaVuSans-31" x="302.148438"/>
      <use xlink:href="#DejaVuSans-38" x="365.771484"/>
     </g>
    </g>
    <g id="patch_58">
     <path d="M 652.707813 402.222188 
L 672.707813 402.222188 
L 672.707813 395.222188 
L 652.707813 395.222188 
z
" style="fill: #d1e336"/>
    </g>
    <g id="text_21">
     <!-- bins.123_sub -->
     <g transform="translate(680.707813 402.222188)scale(0.1 -0.1)">
      <use xlink:href="#DejaVuSans-62"/>
      <use xlink:href="#DejaVuSans-69" x="63.476562"/>
      <use xlink:href="#DejaVuSans-6e" x="91.259766"/>
      <use xlink:href="#DejaVuSans-73" x="154.638672"/>
      <use xlink:href="#DejaVuSans-2e" x="206.738281"/>
      <use xlink:href="#DejaVuSans-31" x="238.525391"/>
      <use xlink:href="#DejaVuSans-32" x="302.148438"/>
      <use xlink:href="#DejaVuSans-33" x="365.771484"/>
      <use xlink:href="#DejaVuSans-5f" x="429.394531"/>
      <use xlink:href="#DejaVuSans-73" x="479.394531"/>
      <use xlink:href="#DejaVuSans-75" x="531.494141"/>
      <use xlink:href="#DejaVuSans-62" x="594.873047"/>
     </g>
    </g>
    <g id="patch_59">
     <path d="M 652.707813 417.178438 
L 672.707813 417.178438 
L 672.707813 410.178438 
L 652.707813 410.178438 
z
" style="fill: #3cd46d"/>
    </g>
    <g id="text_22">
     <!-- bins.132 -->
     <g transform="translate(680.707813 417.178438)scale(0.1 -0.1)">
      <use xlink:href="#DejaVuSans-62"/>
      <use xlink:href="#DejaVuSans-69" x="63.476562"/>
      <use xlink:href="#DejaVuSans-6e" x="91.259766"/>
      <use xlink:href="#DejaVuSans-73" x="154.638672"/>
      <use xlink:href="#DejaVuSans-2e" x="206.738281"/>
      <use xlink:href="#DejaVuSans-31" x="238.525391"/>
      <use xlink:href="#DejaVuSans-33" x="302.148438"/>
      <use xlink:href="#DejaVuSans-32" x="365.771484"/>
     </g>
    </g>
    <g id="patch_60">
     <path d="M 652.707813 431.856563 
L 672.707813 431.856563 
L 672.707813 424.856563 
L 652.707813 424.856563 
z
" style="fill: #7d6d3c"/>
    </g>
    <g id="text_23">
     <!-- bins.149 -->
     <g transform="translate(680.707813 431.856563)scale(0.1 -0.1)">
      <use xlink:href="#DejaVuSans-62"/>
      <use xlink:href="#DejaVuSans-69" x="63.476562"/>
      <use xlink:href="#DejaVuSans-6e" x="91.259766"/>
      <use xlink:href="#DejaVuSans-73" x="154.638672"/>
      <use xlink:href="#DejaVuSans-2e" x="206.738281"/>
      <use xlink:href="#DejaVuSans-31" x="238.525391"/>
      <use xlink:href="#DejaVuSans-34" x="302.148438"/>
      <use xlink:href="#DejaVuSans-39" x="365.771484"/>
     </g>
    </g>
    <g id="patch_61">
     <path d="M 652.707813 446.534688 
L 672.707813 446.534688 
L 672.707813 439.534688 
L 652.707813 439.534688 
z
" style="fill: #9469e1"/>
    </g>
    <g id="text_24">
     <!-- bins.152 -->
     <g transform="translate(680.707813 446.534688)scale(0.1 -0.1)">
      <use xlink:href="#DejaVuSans-62"/>
      <use xlink:href="#DejaVuSans-69" x="63.476562"/>
      <use xlink:href="#DejaVuSans-6e" x="91.259766"/>
      <use xlink:href="#DejaVuSans-73" x="154.638672"/>
      <use xlink:href="#DejaVuSans-2e" x="206.738281"/>
      <use xlink:href="#DejaVuSans-31" x="238.525391"/>
      <use xlink:href="#DejaVuSans-35" x="302.148438"/>
      <use xlink:href="#DejaVuSans-32" x="365.771484"/>
     </g>
    </g>
    <g id="patch_62">
     <path d="M 652.707813 461.212813 
L 672.707813 461.212813 
L 672.707813 454.212813 
L 652.707813 454.212813 
z
" style="fill: #9822d9"/>
    </g>
    <g id="text_25">
     <!-- bins.157 -->
     <g transform="translate(680.707813 461.212813)scale(0.1 -0.1)">
      <use xlink:href="#DejaVuSans-62"/>
      <use xlink:href="#DejaVuSans-69" x="63.476562"/>
      <use xlink:href="#DejaVuSans-6e" x="91.259766"/>
      <use xlink:href="#DejaVuSans-73" x="154.638672"/>
      <use xlink:href="#DejaVuSans-2e" x="206.738281"/>
      <use xlink:href="#DejaVuSans-31" x="238.525391"/>
      <use xlink:href="#DejaVuSans-35" x="302.148438"/>
      <use xlink:href="#DejaVuSans-37" x="365.771484"/>
     </g>
    </g>
    <g id="patch_63">
     <path d="M 652.707813 475.890938 
L 672.707813 475.890938 
L 672.707813 468.890938 
L 652.707813 468.890938 
z
" style="fill: #d45544"/>
    </g>
    <g id="text_26">
     <!-- bins.16 -->
     <g transform="translate(680.707813 475.890938)scale(0.1 -0.1)">
      <use xlink:href="#DejaVuSans-62"/>
      <use xlink:href="#DejaVuSans-69" x="63.476562"/>
      <use xlink:href="#DejaVuSans-6e" x="91.259766"/>
      <use xlink:href="#DejaVuSans-73" x="154.638672"/>
      <use xlink:href="#DejaVuSans-2e" x="206.738281"/>
      <use xlink:href="#DejaVuSans-31" x="238.525391"/>
      <use xlink:href="#DejaVuSans-36" x="302.148438"/>
     </g>
    </g>
    <g id="patch_64">
     <path d="M 652.707813 490.569063 
L 672.707813 490.569063 
L 672.707813 483.569063 
L 652.707813 483.569063 
z
" style="fill: #cd52d9"/>
    </g>
    <g id="text_27">
     <!-- bins.23 -->
     <g transform="translate(680.707813 490.569063)scale(0.1 -0.1)">
      <use xlink:href="#DejaVuSans-62"/>
      <use xlink:href="#DejaVuSans-69" x="63.476562"/>
      <use xlink:href="#DejaVuSans-6e" x="91.259766"/>
      <use xlink:href="#DejaVuSans-73" x="154.638672"/>
      <use xlink:href="#DejaVuSans-2e" x="206.738281"/>
      <use xlink:href="#DejaVuSans-32" x="238.525391"/>
      <use xlink:href="#DejaVuSans-33" x="302.148438"/>
     </g>
    </g>
    <g id="patch_65">
     <path d="M 652.707813 505.247188 
L 672.707813 505.247188 
L 672.707813 498.247188 
L 652.707813 498.247188 
z
" style="fill: #80fc50"/>
    </g>
    <g id="text_28">
     <!-- bins.33_sub -->
     <g transform="translate(680.707813 505.247188)scale(0.1 -0.1)">
      <use xlink:href="#DejaVuSans-62"/>
      <use xlink:href="#DejaVuSans-69" x="63.476562"/>
      <use xlink:href="#DejaVuSans-6e" x="91.259766"/>
      <use xlink:href="#DejaVuSans-73" x="154.638672"/>
      <use xlink:href="#DejaVuSans-2e" x="206.738281"/>
      <use xlink:href="#DejaVuSans-33" x="238.525391"/>
      <use xlink:href="#DejaVuSans-33" x="302.148438"/>
      <use xlink:href="#DejaVuSans-5f" x="365.771484"/>
      <use xlink:href="#DejaVuSans-73" x="415.771484"/>
      <use xlink:href="#DejaVuSans-75" x="467.871094"/>
      <use xlink:href="#DejaVuSans-62" x="531.25"/>
     </g>
    </g>
    <g id="patch_66">
     <path d="M 652.707813 520.203438 
L 672.707813 520.203438 
L 672.707813 513.203438 
L 652.707813 513.203438 
z
" style="fill: #f0189e"/>
    </g>
    <g id="text_29">
     <!-- bins.36 -->
     <g transform="translate(680.707813 520.203438)scale(0.1 -0.1)">
      <use xlink:href="#DejaVuSans-62"/>
      <use xlink:href="#DejaVuSans-69" x="63.476562"/>
      <use xlink:href="#DejaVuSans-6e" x="91.259766"/>
      <use xlink:href="#DejaVuSans-73" x="154.638672"/>
      <use xlink:href="#DejaVuSans-2e" x="206.738281"/>
      <use xlink:href="#DejaVuSans-33" x="238.525391"/>
      <use xlink:href="#DejaVuSans-36" x="302.148438"/>
     </g>
    </g>
    <g id="patch_67">
     <path d="M 652.707813 534.881563 
L 672.707813 534.881563 
L 672.707813 527.881563 
L 652.707813 527.881563 
z
" style="fill: #268d38"/>
    </g>
    <g id="text_30">
     <!-- bins.40 -->
     <g transform="translate(680.707813 534.881563)scale(0.1 -0.1)">
      <use xlink:href="#DejaVuSans-62"/>
      <use xlink:href="#DejaVuSans-69" x="63.476562"/>
      <use xlink:href="#DejaVuSans-6e" x="91.259766"/>
      <use xlink:href="#DejaVuSans-73" x="154.638672"/>
      <use xlink:href="#DejaVuSans-2e" x="206.738281"/>
      <use xlink:href="#DejaVuSans-34" x="238.525391"/>
      <use xlink:href="#DejaVuSans-30" x="302.148438"/>
     </g>
    </g>
    <g id="patch_68">
     <path d="M 652.707813 549.559688 
L 672.707813 549.559688 
L 672.707813 542.559688 
L 652.707813 542.559688 
z
" style="fill: #f9dea6"/>
    </g>
    <g id="text_31">
     <!-- bins.43 -->
     <g transform="translate(680.707813 549.559688)scale(0.1 -0.1)">
      <use xlink:href="#DejaVuSans-62"/>
      <use xlink:href="#DejaVuSans-69" x="63.476562"/>
      <use xlink:href="#DejaVuSans-6e" x="91.259766"/>
      <use xlink:href="#DejaVuSans-73" x="154.638672"/>
      <use xlink:href="#DejaVuSans-2e" x="206.738281"/>
      <use xlink:href="#DejaVuSans-34" x="238.525391"/>
      <use xlink:href="#DejaVuSans-33" x="302.148438"/>
     </g>
    </g>
    <g id="patch_69">
     <path d="M 652.707813 564.237813 
L 672.707813 564.237813 
L 672.707813 557.237813 
L 652.707813 557.237813 
z
" style="fill: #6829ab"/>
    </g>
    <g id="text_32">
     <!-- bins.49 -->
     <g transform="translate(680.707813 564.237813)scale(0.1 -0.1)">
      <use xlink:href="#DejaVuSans-62"/>
      <use xlink:href="#DejaVuSans-69" x="63.476562"/>
      <use xlink:href="#DejaVuSans-6e" x="91.259766"/>
      <use xlink:href="#DejaVuSans-73" x="154.638672"/>
      <use xlink:href="#DejaVuSans-2e" x="206.738281"/>
      <use xlink:href="#DejaVuSans-34" x="238.525391"/>
      <use xlink:href="#DejaVuSans-39" x="302.148438"/>
     </g>
    </g>
    <g id="patch_70">
     <path d="M 652.707813 578.915938 
L 672.707813 578.915938 
L 672.707813 571.915938 
L 652.707813 571.915938 
z
" style="fill: #138d0c"/>
    </g>
    <g id="text_33">
     <!-- bins.5 -->
     <g transform="translate(680.707813 578.915938)scale(0.1 -0.1)">
      <use xlink:href="#DejaVuSans-62"/>
      <use xlink:href="#DejaVuSans-69" x="63.476562"/>
      <use xlink:href="#DejaVuSans-6e" x="91.259766"/>
      <use xlink:href="#DejaVuSans-73" x="154.638672"/>
      <use xlink:href="#DejaVuSans-2e" x="206.738281"/>
      <use xlink:href="#DejaVuSans-35" x="238.525391"/>
     </g>
    </g>
    <g id="patch_71">
     <path d="M 652.707813 593.594063 
L 672.707813 593.594063 
L 672.707813 586.594063 
L 652.707813 586.594063 
z
" style="fill: #6367da"/>
    </g>
    <g id="text_34">
     <!-- bins.54 -->
     <g transform="translate(680.707813 593.594063)scale(0.1 -0.1)">
      <use xlink:href="#DejaVuSans-62"/>
      <use xlink:href="#DejaVuSans-69" x="63.476562"/>
      <use xlink:href="#DejaVuSans-6e" x="91.259766"/>
      <use xlink:href="#DejaVuSans-73" x="154.638672"/>
      <use xlink:href="#DejaVuSans-2e" x="206.738281"/>
      <use xlink:href="#DejaVuSans-35" x="238.525391"/>
      <use xlink:href="#DejaVuSans-34" x="302.148438"/>
     </g>
    </g>
    <g id="patch_72">
     <path d="M 652.707813 608.272188 
L 672.707813 608.272188 
L 672.707813 601.272188 
L 652.707813 601.272188 
z
" style="fill: #363697"/>
    </g>
    <g id="text_35">
     <!-- bins.61 -->
     <g transform="translate(680.707813 608.272188)scale(0.1 -0.1)">
      <use xlink:href="#DejaVuSans-62"/>
      <use xlink:href="#DejaVuSans-69" x="63.476562"/>
      <use xlink:href="#DejaVuSans-6e" x="91.259766"/>
      <use xlink:href="#DejaVuSans-73" x="154.638672"/>
      <use xlink:href="#DejaVuSans-2e" x="206.738281"/>
      <use xlink:href="#DejaVuSans-36" x="238.525391"/>
      <use xlink:href="#DejaVuSans-31" x="302.148438"/>
     </g>
    </g>
    <g id="patch_73">
     <path d="M 652.707813 622.950313 
L 672.707813 622.950313 
L 672.707813 615.950313 
L 652.707813 615.950313 
z
" style="fill: #4771f0"/>
    </g>
    <g id="text_36">
     <!-- bins.9 -->
     <g transform="translate(680.707813 622.950313)scale(0.1 -0.1)">
      <use xlink:href="#DejaVuSans-62"/>
      <use xlink:href="#DejaVuSans-69" x="63.476562"/>
      <use xlink:href="#DejaVuSans-6e" x="91.259766"/>
      <use xlink:href="#DejaVuSans-73" x="154.638672"/>
      <use xlink:href="#DejaVuSans-2e" x="206.738281"/>
      <use xlink:href="#DejaVuSans-39" x="238.525391"/>
     </g>
    </g>
    <g id="patch_74">
     <path d="M 652.707813 637.628438 
L 672.707813 637.628438 
L 672.707813 630.628438 
L 652.707813 630.628438 
z
" style="fill: #ce58f4"/>
    </g>
    <g id="text_37">
     <!-- bins.99_sub -->
     <g transform="translate(680.707813 637.628438)scale(0.1 -0.1)">
      <use xlink:href="#DejaVuSans-62"/>
      <use xlink:href="#DejaVuSans-69" x="63.476562"/>
      <use xlink:href="#DejaVuSans-6e" x="91.259766"/>
      <use xlink:href="#DejaVuSans-73" x="154.638672"/>
      <use xlink:href="#DejaVuSans-2e" x="206.738281"/>
      <use xlink:href="#DejaVuSans-39" x="238.525391"/>
      <use xlink:href="#DejaVuSans-39" x="302.148438"/>
      <use xlink:href="#DejaVuSans-5f" x="365.771484"/>
      <use xlink:href="#DejaVuSans-73" x="415.771484"/>
      <use xlink:href="#DejaVuSans-75" x="467.871094"/>
      <use xlink:href="#DejaVuSans-62" x="531.25"/>
     </g>
    </g>
   </g>
  </g>
 </g>
</svg>
