<svg xmlns="http://www.w3.org/2000/svg" xmlns:xlink="http://www.w3.org/1999/xlink" version="1.1" x="0" y="0" height="230" width="800" viewBox="0 0 800 230" preserveAspectRatio="none"  >
<g label="Query sequence" class="clusterblast-cluster"  >
<text x="5" y="20" class="clusterblast-acc"  >
Query sequence</text>
<line x1="10" y1="35" x2="778.0" y2="35" style="stroke-width:1; stroke:grey; "  />
<polygon points="0,35 5,30 8,30 8,40 5,40 0,35 " style="fill:#d81515; stroke-width:1; stroke:black; " description="&lt;b&gt;JNAJGP_00145&lt;/b&gt;&lt;br&gt;hypothetical protein&lt;br&gt;Location: 27238 - 27385" locus_tag="JNAJGP_00145" class="clusterblast-orf" id="dummy-1_q0_0_all"  />
<polygon points="26,35 31,30 112,30 112,40 31,40 26,35 " style="fill:#d81515; stroke-width:1; stroke:black; " description="&lt;b&gt;JNAJGP_00150&lt;/b&gt;&lt;br&gt;polyphosphate:AMP phosphotransferase&lt;br&gt;Location: 27695 - 29210" locus_tag="JNAJGP_00150" class="clusterblast-orf" id="dummy-1_q1_0_all"  />
<polygon points="121,40 228,40 233,35 228,30 121,30 121,40 " style="fill:#5cd815; stroke-width:1; stroke:black; " description="&lt;b&gt;JNAJGP_00155&lt;/b&gt;&lt;br&gt;bifunctional tRNA (5-methylaminomethyl-2-thiouridine)(34)-methyltransferase MnmD/FAD-dependent 5-carboxymethylaminomethyl-2-thiouridine(34) oxidoreductase MnmC&lt;br&gt;Location: 29364 - 31350" locus_tag="JNAJGP_00155" class="clusterblast-orf" id="dummy-1_q2_0_all"  />
<polygon points="246,40 342,40 347,35 342,30 246,30 246,40 " style="fill:#15a3d8; stroke-width:1; stroke:black; " description="&lt;b&gt;JNAJGP_00160&lt;/b&gt;&lt;br&gt;N-acetylglutaminylglutamine amidotransferase&lt;br&gt;Location: 31575 - 33348" locus_tag="JNAJGP_00160" class="clusterblast-orf" id="dummy-1_q3_0_all"  />
<polygon points="347,40 441,40 446,35 441,30 347,30 347,40 " style="fill:#c715d8; stroke-width:1; stroke:black; " description="&lt;b&gt;JNAJGP_00165&lt;/b&gt;&lt;br&gt;N-acetylglutaminylglutamine synthetase&lt;br&gt;Location: 33351 - 35100" locus_tag="JNAJGP_00165" class="clusterblast-orf" id="dummy-1_q4_0_all"  />
<polygon points="455,40 518,40 523,35 518,30 455,30 455,40 " style="fill:#d88015; stroke-width:1; stroke:black; " description="&lt;b&gt;JNAJGP_00170&lt;/b&gt;&lt;br&gt;osmoprotectant NAGGN system M42 family peptidase&lt;br&gt;Location: 35263 - 36448" locus_tag="JNAJGP_00170" class="clusterblast-orf" id="dummy-1_q5_0_all"  />
<polygon points="526,40 534,40 539,35 534,30 526,30 526,40 " style="fill:#15d839; stroke-width:1; stroke:black; " description="&lt;b&gt;JNAJGP_00175&lt;/b&gt;&lt;br&gt;UPF0270 protein Pfl01 4103&lt;br&gt;Location: 36507 - 36735" locus_tag="JNAJGP_00175" class="clusterblast-orf" id="dummy-1_q6_0_all"  />
<polygon points="539,35 544,30 550,30 550,40 544,40 539,35 " style="fill:#1539d8; stroke-width:1; stroke:black; " description="&lt;b&gt;JNAJGP_00180&lt;/b&gt;&lt;br&gt;carbon storage regulator CsrA&lt;br&gt;Location: 36743 - 36941" locus_tag="JNAJGP_00180" class="clusterblast-orf" id="dummy-1_q7_0_all"  />
<polygon points="558,35 563,30 604,30 604,40 563,40 558,35 " style="fill:#d81580; stroke-width:1; stroke:black; " description="&lt;b&gt;JNAJGP_00185&lt;/b&gt;&lt;br&gt;SDR family oxidoreductase&lt;br&gt;Location: 37068 - 37884" locus_tag="JNAJGP_00185" class="clusterblast-orf" id="dummy-1_q8_0_all"  />
<polygon points="623,40 626,40 631,35 626,30 623,30 623,40 " style="fill:#c7d815; stroke-width:1; stroke:black; " description="&lt;b&gt;JNAJGP_00190&lt;/b&gt;&lt;br&gt;DUF3309 domain-containing protein&lt;br&gt;Location: 38212 - 38365" locus_tag="JNAJGP_00190" class="clusterblast-orf" id="dummy-1_q9_0_all"  />
<polygon points="634,35 639,30 753,30 753,40 639,40 634,35 " style="fill:#15d8a3; stroke-width:1; stroke:black; " description="&lt;b&gt;JNAJGP_00195&lt;/b&gt;&lt;br&gt;Phosphoglycerol transferase I&lt;br&gt;Location: 38416 - 40504" locus_tag="JNAJGP_00195" class="clusterblast-orf" id="dummy-1_q10_0_all"  />
<polygon points="769,35 774,30 780,30 780,40 774,40 769,35 " style="fill:#5c15d8; stroke-width:1; stroke:black; " description="&lt;b&gt;JNAJGP_00200&lt;/b&gt;&lt;br&gt;Cardiolipin synthase N-terminal domain-containing protein&lt;br&gt;Location: 40796 - 40988" locus_tag="JNAJGP_00200" class="clusterblast-orf" id="dummy-1_q11_0_all"  />
</g>
<g label="NC_023064" description="NC_023064 (4962379-4977540): Pseudomonas sp. TKP, complete sequence (100% of genes show similarity), NAGGN" class="clusterblast-cluster"  >
<text x="5" y="70" class="clusterblast-acc"  >
<a xlink:href="https://antismash-db.secondarymetabolites.org/area?record=NC_023064&amp;start=4962379&amp;end=4977540" target="_blank">NC_023064 (4962379-4977540)</a>: Pseudomonas sp. TKP, complete sequence (100% of genes show similarity), NAGGN</text>
<line x1="10" y1="85" x2="778.0" y2="85" style="stroke-width:1; stroke:grey; "  />
</g>
<g id="a1_000"  >
<polygon points="1,85 6,80 87,80 87,90 6,90 1,85 " style="fill:#d81515; stroke-width:1; stroke:black; " description="&lt;b&gt;U771_RS21995&lt;/b&gt;&lt;br&gt;polyphosphate:AMP phosphotransferase&lt;br&gt;Location: 4963564 - 4965078&lt;br&gt;&lt;br&gt;&lt;b&gt;BlastP hit with JNAJGP_00145&lt;/b&gt;&lt;br&gt;Percentage identity: 96&lt;br&gt;Percentage coverage: 94&lt;br&gt;BLAST bit score: 84&lt;br&gt;E-value: 5.09e-19&lt;br&gt;&lt;br&gt;&lt;b&gt;BlastP hit with JNAJGP_00150&lt;/b&gt;&lt;br&gt;Percentage identity: 94&lt;br&gt;Percentage coverage: 100&lt;br&gt;BLAST bit score: 965&lt;br&gt;E-value: 0.0" locus_tag="U771_RS21995" class="clusterblast-orf" id="dummy-1_h1_6_0"  />
</g>
<g id="a1_001"  >
<polygon points="95,90 203,90 208,85 203,80 95,80 95,90 " style="fill:#5cd815; stroke-width:1; stroke:black; " description="&lt;b&gt;U771_RS22000&lt;/b&gt;&lt;br&gt;bifunctional tRNA (5-methylaminomethyl-2-thiouridine)(34)-methyltransferase MnmD/FAD-dependent 5-carboxymethylaminomethyl-2-thiouridine(34) oxidoreductase MnmC&lt;br&gt;Location: 4965220 - 4967214&lt;br&gt;&lt;br&gt;&lt;b&gt;BlastP hit with JNAJGP_00155&lt;/b&gt;&lt;br&gt;Percentage identity: 89&lt;br&gt;Percentage coverage: 99&lt;br&gt;BLAST bit score: 1192&lt;br&gt;E-value: 0.0" locus_tag="U771_RS22000" class="clusterblast-orf" id="dummy-1_h1_6_1"  />
</g>
<g id="a1_002"  >
<polygon points="217,90 313,90 318,85 313,80 217,80 217,90 " style="fill:#15a3d8; stroke-width:1; stroke:black; " description="&lt;b&gt;U771_RS22005&lt;/b&gt;&lt;br&gt;N-acetylglutaminylglutamine amidotransferase&lt;br&gt;Location: 4967380 - 4969152&lt;br&gt;&lt;br&gt;&lt;b&gt;BlastP hit with JNAJGP_00160&lt;/b&gt;&lt;br&gt;Percentage identity: 97&lt;br&gt;Percentage coverage: 100&lt;br&gt;BLAST bit score: 1169&lt;br&gt;E-value: 0.0" locus_tag="U771_RS22005" class="clusterblast-orf" id="dummy-1_h1_6_2"  />
</g>
<g id="a1_003"  >
<polygon points="318,90 412,90 417,85 412,80 318,80 318,90 " style="fill:#c715d8; stroke-width:1; stroke:black; " description="&lt;b&gt;U771_RS22010&lt;/b&gt;&lt;br&gt;N-acetylglutaminylglutamine synthetase&lt;br&gt;Location: 4969156 - 4970904&lt;br&gt;&lt;br&gt;&lt;b&gt;BlastP hit with JNAJGP_00165&lt;/b&gt;&lt;br&gt;Percentage identity: 95&lt;br&gt;Percentage coverage: 100&lt;br&gt;BLAST bit score: 1101&lt;br&gt;E-value: 0.0" locus_tag="U771_RS22010" class="clusterblast-orf" id="dummy-1_h1_6_3"  />
</g>
<g id="a1_004"  >
<polygon points="443,90 505,90 510,85 505,80 443,80 443,90 " style="fill:#d88015; stroke-width:1; stroke:black; " description="&lt;b&gt;U771_RS22015&lt;/b&gt;&lt;br&gt;osmoprotectant NAGGN system M42 family peptidase&lt;br&gt;Location: 4971356 - 4972540&lt;br&gt;&lt;br&gt;&lt;b&gt;BlastP hit with JNAJGP_00170&lt;/b&gt;&lt;br&gt;Percentage identity: 98&lt;br&gt;Percentage coverage: 100&lt;br&gt;BLAST bit score: 771&lt;br&gt;E-value: 8.17e-283" locus_tag="U771_RS22015" class="clusterblast-orf" id="dummy-1_h1_6_4"  />
</g>
<g id="a1_005"  >
<polygon points="514,90 521,90 526,85 521,80 514,80 514,90 " style="fill:#15d839; stroke-width:1; stroke:black; " description="&lt;b&gt;U771_RS22020&lt;/b&gt;&lt;br&gt;YheU family protein&lt;br&gt;Location: 4972600 - 4972827&lt;br&gt;&lt;br&gt;&lt;b&gt;BlastP hit with JNAJGP_00175&lt;/b&gt;&lt;br&gt;Percentage identity: 97&lt;br&gt;Percentage coverage: 100&lt;br&gt;BLAST bit score: 148&lt;br&gt;E-value: 7.94e-47" locus_tag="U771_RS22020" class="clusterblast-orf" id="dummy-1_h1_6_5"  />
</g>
<g id="a1_006"  >
<polygon points="527,85 532,80 538,80 538,90 532,90 527,85 " style="fill:#1539d8; stroke-width:1; stroke:black; " description="&lt;b&gt;U771_RS22025&lt;/b&gt;&lt;br&gt;carbon storage regulator CsrA&lt;br&gt;Location: 4972836 - 4973033&lt;br&gt;&lt;br&gt;&lt;b&gt;BlastP hit with JNAJGP_00180&lt;/b&gt;&lt;br&gt;Percentage identity: 75&lt;br&gt;Percentage coverage: 94&lt;br&gt;BLAST bit score: 86&lt;br&gt;E-value: 2.09e-22" locus_tag="U771_RS22025" class="clusterblast-orf" id="dummy-1_h1_6_6"  />
</g>
<g id="a1_007"  >
<polygon points="549,85 554,80 595,80 595,90 554,90 549,85 " style="fill:#d81580; stroke-width:1; stroke:black; " description="&lt;b&gt;U771_RS22030&lt;/b&gt;&lt;br&gt;SDR family oxidoreductase&lt;br&gt;Location: 4973222 - 4974037&lt;br&gt;&lt;br&gt;&lt;b&gt;BlastP hit with JNAJGP_00185&lt;/b&gt;&lt;br&gt;Percentage identity: 97&lt;br&gt;Percentage coverage: 100&lt;br&gt;BLAST bit score: 519&lt;br&gt;E-value: 2.81e-187" locus_tag="U771_RS22030" class="clusterblast-orf" id="dummy-1_h1_6_7"  />
</g>
<g id="a1_008"  >
<polygon points="614,90 617,90 622,85 617,80 614,80 614,90 " style="fill:#c7d815; stroke-width:1; stroke:black; " description="&lt;b&gt;U771_RS32215&lt;/b&gt;&lt;br&gt;DUF3309 family protein&lt;br&gt;Location: 4974366 - 4974518&lt;br&gt;&lt;br&gt;&lt;b&gt;BlastP hit with JNAJGP_00190&lt;/b&gt;&lt;br&gt;Percentage identity: 96&lt;br&gt;Percentage coverage: 100&lt;br&gt;BLAST bit score: 77&lt;br&gt;E-value: 2.5e-19" locus_tag="U771_RS32215" class="clusterblast-orf" id="dummy-1_h1_6_8"  />
</g>
<g id="a1_009"  >
<polygon points="625,85 630,80 744,80 744,90 630,90 625,85 " style="fill:#15d8a3; stroke-width:1; stroke:black; " description="&lt;b&gt;U771_RS22040&lt;/b&gt;&lt;br&gt;LTA synthase family protein&lt;br&gt;Location: 4974573 - 4976660&lt;br&gt;&lt;br&gt;&lt;b&gt;BlastP hit with JNAJGP_00195&lt;/b&gt;&lt;br&gt;Percentage identity: 96&lt;br&gt;Percentage coverage: 100&lt;br&gt;BLAST bit score: 1349&lt;br&gt;E-value: 0.0" locus_tag="U771_RS22040" class="clusterblast-orf" id="dummy-1_h1_6_9"  />
</g>
<g id="a1_0010"  >
<polygon points="767,85 772,80 778,80 778,90 772,90 767,85 " style="fill:#5c15d8; stroke-width:1; stroke:black; " description="&lt;b&gt;U771_RS22045&lt;/b&gt;&lt;br&gt;PLDc N-terminal domain-containing protein&lt;br&gt;Location: 4977071 - 4977262&lt;br&gt;&lt;br&gt;&lt;b&gt;BlastP hit with JNAJGP_00200&lt;/b&gt;&lt;br&gt;Percentage identity: 98&lt;br&gt;Percentage coverage: 100&lt;br&gt;BLAST bit score: 119&lt;br&gt;E-value: 9.64e-36" locus_tag="U771_RS22045" class="clusterblast-orf" id="dummy-1_h1_6_10"  />
</g>
</svg>
