<svg xmlns="http://www.w3.org/2000/svg" xmlns:xlink="http://www.w3.org/1999/xlink" version="1.1" x="0" y="0" height="230" width="800" viewBox="0 0 800 230" preserveAspectRatio="none"  >
<g label="Query sequence" class="clusterblast-cluster"  >
<text x="5" y="20" class="clusterblast-acc"  >
Query sequence</text>
<line x1="10" y1="35" x2="778.0" y2="35" style="stroke-width:1; stroke:grey; "  />
<polygon points="1,40 32,40 37,35 32,30 1,30 1,40 " style="fill:#d81515; stroke-width:1; stroke:black; " description="&lt;b&gt;JNAJGP_24070&lt;/b&gt;&lt;br&gt;phage tail protein&lt;br&gt;Location: 5054663 - 5058125" locus_tag="JNAJGP_24070" class="clusterblast-orf" id="dummy-9_q0_0_all"  />
<polygon points="41,40 43,40 48,35 43,30 41,30 41,40 " style="fill:#5cd815; stroke-width:1; stroke:black; " description="&lt;b&gt;JNAJGP_24075&lt;/b&gt;&lt;br&gt;Phage tail protein&lt;br&gt;Location: 5058471 - 5059101" locus_tag="JNAJGP_24075" class="clusterblast-orf" id="dummy-9_q1_0_all"  />
<polygon points="48,40 52,40 57,35 52,30 48,30 48,40 " style="fill:#15c7d8; stroke-width:1; stroke:black; " description="&lt;b&gt;JNAJGP_24080&lt;/b&gt;&lt;br&gt;Phage tail protein&lt;br&gt;Location: 5059159 - 5059927" locus_tag="JNAJGP_24080" class="clusterblast-orf" id="dummy-9_q2_0_all"  />
<polygon points="57,40 60,35 57,30 57,40 " style="fill:white; stroke-width:1; stroke:black; " description="&lt;b&gt;JNAJGP_24085&lt;/b&gt;&lt;br&gt;hypothetical protein&lt;br&gt;Location: 5059926 - 5060217" locus_tag="JNAJGP_24085" class="clusterblast-orf" id="dummy-9_q3_0_all"  />
<polygon points="60,40 62,35 60,30 60,40 " style="fill:white; stroke-width:1; stroke:black; " description="&lt;b&gt;JNAJGP_24090&lt;/b&gt;&lt;br&gt;Phage tail protein&lt;br&gt;Location: 5060213 - 5060465" locus_tag="JNAJGP_24090" class="clusterblast-orf" id="dummy-9_q4_0_all"  />
<polygon points="63,40 64,40 69,35 64,30 63,30 63,40 " style="fill:#8015d8; stroke-width:1; stroke:black; " description="&lt;b&gt;JNAJGP_24095&lt;/b&gt;&lt;br&gt;Chitinase&lt;br&gt;Location: 5060520 - 5061054" locus_tag="JNAJGP_24095" class="clusterblast-orf" id="dummy-9_q5_0_all"  />
<polygon points="69,40 70,40 75,35 70,30 69,30 69,40 " style="fill:#d83915; stroke-width:1; stroke:black; " description="&lt;b&gt;JNAJGP_24100&lt;/b&gt;&lt;br&gt;Lysozyme&lt;br&gt;Location: 5061050 - 5061620" locus_tag="JNAJGP_24100" class="clusterblast-orf" id="dummy-9_q6_0_all"  />
<polygon points="74,35 77,30 77,40 74,35 " style="fill:white; stroke-width:1; stroke:black; " description="&lt;b&gt;JNAJGP_24105&lt;/b&gt;&lt;br&gt;NIPSNAP domain-containing protein&lt;br&gt;Location: 5061579 - 5061843" locus_tag="JNAJGP_24105" class="clusterblast-orf" id="dummy-9_q7_0_all"  />
<polygon points="78,35 82,30 82,40 78,35 " style="fill:#39d815; stroke-width:1; stroke:black; " description="&lt;b&gt;JNAJGP_24110&lt;/b&gt;&lt;br&gt;Lipoprotein&lt;br&gt;Location: 5061930 - 5062311" locus_tag="JNAJGP_24110" class="clusterblast-orf" id="dummy-9_q8_0_all"  />
<polygon points="87,40 91,40 96,35 91,30 87,30 87,40 " style="fill:#15a3d8; stroke-width:1; stroke:black; " description="&lt;b&gt;JNAJGP_24120&lt;/b&gt;&lt;br&gt;LysR family transcriptional regulator&lt;br&gt;Location: 5062760 - 5063663" locus_tag="JNAJGP_24120" class="clusterblast-orf" id="dummy-9_q9_0_all"  />
<polygon points="97,35 102,30 107,30 107,40 102,40 97,35 " style="fill:#a315d8; stroke-width:1; stroke:black; " description="&lt;b&gt;JNAJGP_24125&lt;/b&gt;&lt;br&gt;Cupin&lt;br&gt;Location: 5063700 - 5064642" locus_tag="JNAJGP_24125" class="clusterblast-orf" id="dummy-9_q10_0_all"  />
<polygon points="109,35 112,30 112,40 109,35 " style="fill:#d85c15; stroke-width:1; stroke:black; " description="&lt;b&gt;JNAJGP_24130&lt;/b&gt;&lt;br&gt;hypothetical protein&lt;br&gt;Location: 5064843 - 5065122" locus_tag="JNAJGP_24130" class="clusterblast-orf" id="dummy-9_q11_0_all"  />
<polygon points="114,35 119,30 137,30 137,40 119,40 114,35 " style="fill:#15d815; stroke-width:1; stroke:black; " description="&lt;b&gt;JNAJGP_24135&lt;/b&gt;&lt;br&gt;Ferric siderophore receptor&lt;br&gt;Location: 5065316 - 5067488" locus_tag="JNAJGP_24135" class="clusterblast-orf" id="dummy-9_q12_0_all"  />
<polygon points="138,35 143,30 149,30 149,40 143,40 138,35 " style="fill:#1580d8; stroke-width:1; stroke:black; " description="&lt;b&gt;JNAJGP_24140&lt;/b&gt;&lt;br&gt;Acyltransferase MbtK/IucB-like conserved domain-containing protein&lt;br&gt;Location: 5067586 - 5068606" locus_tag="JNAJGP_24140" class="clusterblast-orf" id="dummy-9_q13_0_all"  />
<polygon points="151,35 156,30 172,30 172,40 156,40 151,35 " style="fill:#c715d8; stroke-width:1; stroke:black; " description="&lt;b&gt;JNAJGP_24145&lt;/b&gt;&lt;br&gt;Fe(3+)-hydroxamate ABC transporter permease FhuB&lt;br&gt;Location: 5068765 - 5070754" locus_tag="JNAJGP_24145" class="clusterblast-orf" id="dummy-9_q14_0_all"  />
<polygon points="172,35 177,30 181,30 181,40 177,40 172,35 " style="fill:#d88015; stroke-width:1; stroke:black; " description="&lt;b&gt;JNAJGP_24150&lt;/b&gt;&lt;br&gt;Periplasmic binding protein&lt;br&gt;Location: 5070746 - 5071658" locus_tag="JNAJGP_24150" class="clusterblast-orf" id="dummy-9_q15_0_all"  />
<polygon points="184,40 196,40 201,35 196,30 184,30 184,40 " style="fill:#15d839; stroke-width:1; stroke:black; " description="&lt;b&gt;JNAJGP_24155&lt;/b&gt;&lt;br&gt;Putative ATP-binding cassette transporter&lt;br&gt;Location: 5071857 - 5073504" locus_tag="JNAJGP_24155" class="clusterblast-orf" id="dummy-9_q16_0_all"  />
<polygon points="203,40 206,40 211,35 206,30 203,30 203,40 " style="fill:#155cd8; stroke-width:1; stroke:black; " description="&lt;b&gt;JNAJGP_24160&lt;/b&gt;&lt;br&gt;Thioesterase&lt;br&gt;Location: 5073678 - 5074422" locus_tag="JNAJGP_24160" class="clusterblast-orf" id="dummy-9_q17_0_all"  />
<polygon points="211,40 217,40 222,35 217,30 211,30 211,40 " style="fill:#d815c7; stroke-width:1; stroke:black; " description="&lt;b&gt;JNAJGP_24165&lt;/b&gt;&lt;br&gt;TauD/TfdA-like domain-containing protein&lt;br&gt;Location: 5074461 - 5075442" locus_tag="JNAJGP_24165" class="clusterblast-orf" id="dummy-9_q18_0_all"  />
<polygon points="222,40 265,40 270,35 265,30 222,30 222,40 " style="fill:#d815c7; stroke-width:1; stroke:black; " description="&lt;b&gt;JNAJGP_24170&lt;/b&gt;&lt;br&gt;Non ribosomal peptide synthase&lt;br&gt;Location: 5075492 - 5079956" locus_tag="JNAJGP_24170" class="clusterblast-orf" id="dummy-9_q19_0_all"  />
<polygon points="270,40 298,40 303,35 298,30 270,30 270,40 " style="fill:#d815c7; stroke-width:1; stroke:black; " description="&lt;b&gt;JNAJGP_24175&lt;/b&gt;&lt;br&gt;Amino acid adenylation&lt;br&gt;Location: 5079967 - 5083114" locus_tag="JNAJGP_24175" class="clusterblast-orf" id="dummy-9_q20_0_all"  />
<polygon points="304,40 381,40 386,35 381,30 304,30 304,40 " style="fill:#d815c7; stroke-width:1; stroke:black; " description="&lt;b&gt;JNAJGP_24180&lt;/b&gt;&lt;br&gt;Carrier domain-containing protein&lt;br&gt;Location: 5083162 - 5090896" locus_tag="JNAJGP_24180" class="clusterblast-orf" id="dummy-9_q21_0_all"  />
<polygon points="386,40 512,40 517,35 512,30 386,30 386,40 " style="fill:#d815c7; stroke-width:1; stroke:black; " description="&lt;b&gt;JNAJGP_24185&lt;/b&gt;&lt;br&gt;non-ribosomal peptide synthetase&lt;br&gt;Location: 5090892 - 5103210" locus_tag="JNAJGP_24185" class="clusterblast-orf" id="dummy-9_q22_0_all"  />
<polygon points="517,40 556,40 561,35 556,30 517,30 517,40 " style="fill:#d815c7; stroke-width:1; stroke:black; " description="&lt;b&gt;JNAJGP_24190&lt;/b&gt;&lt;br&gt;Non-ribosomal peptide synthetase&lt;br&gt;Location: 5103211 - 5107270" locus_tag="JNAJGP_24190" class="clusterblast-orf" id="dummy-9_q23_0_all"  />
<polygon points="561,40 571,40 576,35 571,30 561,30 561,40 " style="fill:#d8a315; stroke-width:1; stroke:black; " description="&lt;b&gt;JNAJGP_24195&lt;/b&gt;&lt;br&gt;L-ornithine 5-monooxygenase&lt;br&gt;Location: 5107342 - 5108698" locus_tag="JNAJGP_24195" class="clusterblast-orf" id="dummy-9_q24_0_all"  />
<polygon points="577,40 580,40 585,35 580,30 577,30 577,40 " style="fill:#15d85c; stroke-width:1; stroke:black; " description="&lt;b&gt;JNAJGP_24200&lt;/b&gt;&lt;br&gt;siderophore-iron reductase FhuF&lt;br&gt;Location: 5108789 - 5109545" locus_tag="JNAJGP_24200" class="clusterblast-orf" id="dummy-9_q25_0_all"  />
<polygon points="585,35 590,30 593,30 593,40 590,40 585,35 " style="fill:#1539d8; stroke-width:1; stroke:black; " description="&lt;b&gt;JNAJGP_24205&lt;/b&gt;&lt;br&gt;Iron-hydroxamate transporter ATP-binding subunit&lt;br&gt;Location: 5109585 - 5110353" locus_tag="JNAJGP_24205" class="clusterblast-orf" id="dummy-9_q26_0_all"  />
<polygon points="596,35 598,30 598,40 596,35 " style="fill:white; stroke-width:1; stroke:black; " description="&lt;b&gt;JNAJGP_24210&lt;/b&gt;&lt;br&gt;hypothetical protein&lt;br&gt;Location: 5110578 - 5110803" locus_tag="JNAJGP_24210" class="clusterblast-orf" id="dummy-9_q27_0_all"  />
<polygon points="600,40 602,40 607,35 602,30 600,30 600,40 " style="fill:#d815a3; stroke-width:1; stroke:black; " description="&lt;b&gt;JNAJGP_24215&lt;/b&gt;&lt;br&gt;Lipoprotein&lt;br&gt;Location: 5110983 - 5111682" locus_tag="JNAJGP_24215" class="clusterblast-orf" id="dummy-9_q28_0_all"  />
<polygon points="609,40 612,35 609,30 609,40 " style="fill:#d8c715; stroke-width:1; stroke:black; " description="&lt;b&gt;JNAJGP_24220&lt;/b&gt;&lt;br&gt;EAL domain-containing protein&lt;br&gt;Location: 5111807 - 5112086" locus_tag="JNAJGP_24220" class="clusterblast-orf" id="dummy-9_q29_0_all"  />
<polygon points="613,40 622,40 627,35 622,30 613,30 613,40 " style="fill:#15d880; stroke-width:1; stroke:black; " description="&lt;b&gt;JNAJGP_24225&lt;/b&gt;&lt;br&gt;Methyl-accepting chemotaxis protein (2 PAS,MCP domains)&lt;br&gt;Location: 5112170 - 5113484" locus_tag="JNAJGP_24225" class="clusterblast-orf" id="dummy-9_q30_0_all"  />
<polygon points="629,40 647,40 652,35 647,30 629,30 629,40 " style="fill:#1515d8; stroke-width:1; stroke:black; " description="&lt;b&gt;JNAJGP_24230&lt;/b&gt;&lt;br&gt;Outer membrane siderophore receptor&lt;br&gt;Location: 5113706 - 5115821" locus_tag="JNAJGP_24230" class="clusterblast-orf" id="dummy-9_q31_0_all"  />
<polygon points="652,35 657,30 671,30 671,40 657,40 652,35 " style="fill:#d81580; stroke-width:1; stroke:black; " description="&lt;b&gt;JNAJGP_24235&lt;/b&gt;&lt;br&gt;Sigma-54 factor interaction domain-containing protein&lt;br&gt;Location: 5115830 - 5117648" locus_tag="JNAJGP_24235" class="clusterblast-orf" id="dummy-9_q32_0_all"  />
<polygon points="674,40 681,40 686,35 681,30 674,30 674,40 " style="fill:#c7d815; stroke-width:1; stroke:black; " description="&lt;b&gt;JNAJGP_24240&lt;/b&gt;&lt;br&gt;sn-glycerol-3-phosphate import ATP-binding protein UgpC&lt;br&gt;Location: 5117939 - 5119034" locus_tag="JNAJGP_24240" class="clusterblast-orf" id="dummy-9_q33_0_all"  />
<polygon points="686,40 692,40 697,35 692,30 686,30 686,40 " style="fill:#15d8a3; stroke-width:1; stroke:black; " description="&lt;b&gt;JNAJGP_24245&lt;/b&gt;&lt;br&gt;ABC transporter ATP-binding protein&lt;br&gt;Location: 5119033 - 5120131" locus_tag="JNAJGP_24245" class="clusterblast-orf" id="dummy-9_q34_0_all"  />
<polygon points="697,40 702,40 707,35 702,30 697,30 697,40 " style="fill:#3915d8; stroke-width:1; stroke:black; " description="&lt;b&gt;JNAJGP_24250&lt;/b&gt;&lt;br&gt;ABC-type sugar transport system, permease component&lt;br&gt;Location: 5120127 - 5120994" locus_tag="JNAJGP_24250" class="clusterblast-orf" id="dummy-9_q35_0_all"  />
<polygon points="707,40 710,40 715,35 710,30 707,30 707,40 " style="fill:#d8155c; stroke-width:1; stroke:black; " description="&lt;b&gt;JNAJGP_24255&lt;/b&gt;&lt;br&gt;ABC-type glycerol-3-phosphate transport system, permease component&lt;br&gt;Location: 5121004 - 5121805" locus_tag="JNAJGP_24255" class="clusterblast-orf" id="dummy-9_q36_0_all"  />
<polygon points="715,40 718,35 715,30 715,40 " style="fill:#a3d815; stroke-width:1; stroke:black; " description="&lt;b&gt;JNAJGP_24260&lt;/b&gt;&lt;br&gt;Small integral membrane protein&lt;br&gt;Location: 5121815 - 5122088" locus_tag="JNAJGP_24260" class="clusterblast-orf" id="dummy-9_q37_0_all"  />
<polygon points="719,40 732,40 737,35 732,30 719,30 719,40 " style="fill:#15d8c7; stroke-width:1; stroke:black; " description="&lt;b&gt;JNAJGP_24265&lt;/b&gt;&lt;br&gt;ABC transporter substrate-binding protein&lt;br&gt;Location: 5122120 - 5123863" locus_tag="JNAJGP_24265" class="clusterblast-orf" id="dummy-9_q38_0_all"  />
<polygon points="742,40 751,40 756,35 751,30 742,30 742,40 " style="fill:#5c15d8; stroke-width:1; stroke:black; " description="&lt;b&gt;JNAJGP_24270&lt;/b&gt;&lt;br&gt;Iron-containing redox enzyme family protein&lt;br&gt;Location: 5124300 - 5125680" locus_tag="JNAJGP_24270" class="clusterblast-orf" id="dummy-9_q39_0_all"  />
<polygon points="757,40 762,40 767,35 762,30 757,30 757,40 " style="fill:#d81539; stroke-width:1; stroke:black; " description="&lt;b&gt;JNAJGP_24275&lt;/b&gt;&lt;br&gt;Release factor glutamine methyltransferase&lt;br&gt;Location: 5125690 - 5126635" locus_tag="JNAJGP_24275" class="clusterblast-orf" id="dummy-9_q40_0_all"  />
<polygon points="767,40 774,40 779,35 774,30 767,30 767,40 " style="fill:#80d815; stroke-width:1; stroke:black; " description="&lt;b&gt;JNAJGP_24280&lt;/b&gt;&lt;br&gt;carboxylate-amine ligase&lt;br&gt;Location: 5126641 - 5127760" locus_tag="JNAJGP_24280" class="clusterblast-orf" id="dummy-9_q41_0_all"  />
</g>
<g label="NZ_VBWF01000010" description="NZ_VBWF01000010 (725997-800239): Pseudomonas sp. 9.1(2019) scaffold10, whole ... (45% of genes show similarity), NRP-metallophore,NRPS" class="clusterblast-cluster"  >
<text x="5" y="70" class="clusterblast-acc"  >
<a xlink:href="https://antismash-db.secondarymetabolites.org/area?record=NZ_VBWF01000010&amp;start=725997&amp;end=800239" target="_blank">NZ_VBWF01000010 (725997-800239)</a>: Pseudomonas sp. 9.1(2019) scaffold10, whole ... (45% of genes show similarity), NRP-metallophore,NRPS</text>
<line x1="10" y1="85" x2="778.0" y2="85" style="stroke-width:1; stroke:grey; "  />
</g>
<g id="a9_000"  >
<polygon points="0,85 3,80 3,90 0,85 " style="fill:white; stroke-width:1; stroke:black; " description="&lt;b&gt;FEZ21_RS16790&lt;/b&gt;&lt;br&gt;urease subunit gamma&lt;br&gt;Location: 799999 - 799697" locus_tag="FEZ21_RS16790" class="clusterblast-orf" id="dummy-9_h9_5_0"  />
</g>
<g id="a9_001"  >
<polygon points="8,85 13,80 19,80 19,90 13,90 8,85 " style="fill:white; stroke-width:1; stroke:black; " description="&lt;b&gt;FEZ21_RS16785&lt;/b&gt;&lt;br&gt;FUSC family protein&lt;br&gt;Location: 799225 - 798125" locus_tag="FEZ21_RS16785" class="clusterblast-orf" id="dummy-9_h9_5_1"  />
</g>
<g id="a9_002"  >
<polygon points="23,90 28,90 33,85 28,80 23,80 23,90 " style="fill:white; stroke-width:1; stroke:black; " description="&lt;b&gt;FEZ21_RS16780&lt;/b&gt;&lt;br&gt;LysR family transcriptional regulator&lt;br&gt;Location: 797779 - 796871" locus_tag="FEZ21_RS16780" class="clusterblast-orf" id="dummy-9_h9_5_2"  />
</g>
<g id="a9_003"  >
<polygon points="35,90 46,90 51,85 46,80 35,80 35,90 " style="fill:white; stroke-width:1; stroke:black; " description="&lt;b&gt;FEZ21_RS16775&lt;/b&gt;&lt;br&gt;MFS transporter&lt;br&gt;Location: 796680 - 795133" locus_tag="FEZ21_RS16775" class="clusterblast-orf" id="dummy-9_h9_5_3"  />
</g>
<g id="a9_004"  >
<polygon points="51,90 58,90 63,85 58,80 51,80 51,90 " style="fill:white; stroke-width:1; stroke:black; " description="&lt;b&gt;FEZ21_RS16770&lt;/b&gt;&lt;br&gt;HlyD family secretion protein&lt;br&gt;Location: 795136 - 794072" locus_tag="FEZ21_RS16770" class="clusterblast-orf" id="dummy-9_h9_5_4"  />
</g>
<g id="a9_005"  >
<polygon points="63,90 73,90 78,85 73,80 63,80 63,90 " style="fill:white; stroke-width:1; stroke:black; " description="&lt;b&gt;FEZ21_RS16765&lt;/b&gt;&lt;br&gt;efflux transporter outer membrane subunit&lt;br&gt;Location: 794075 - 792645" locus_tag="FEZ21_RS16765" class="clusterblast-orf" id="dummy-9_h9_5_5"  />
</g>
<g id="a9_006"  >
<polygon points="84,90 93,90 98,85 93,80 84,80 84,90 " style="fill:white; stroke-width:1; stroke:black; " description="&lt;b&gt;FEZ21_RS16760&lt;/b&gt;&lt;br&gt;MFS transporter&lt;br&gt;Location: 792082 - 790763" locus_tag="FEZ21_RS16760" class="clusterblast-orf" id="dummy-9_h9_5_6"  />
</g>
<g id="a9_007"  >
<polygon points="99,90 101,85 99,80 99,90 " style="fill:white; stroke-width:1; stroke:black; " description="&lt;b&gt;FEZ21_RS16755&lt;/b&gt;&lt;br&gt;MbtH family NRPS accessory protein&lt;br&gt;Location: 790655 - 790452" locus_tag="FEZ21_RS16755" class="clusterblast-orf" id="dummy-9_h9_5_7"  />
</g>
<g id="a9_008"  >
<polygon points="104,85 109,80 127,80 127,90 109,90 104,85 " style="fill:#15d815; stroke-width:1; stroke:black; " description="&lt;b&gt;FEZ21_RS16750&lt;/b&gt;&lt;br&gt;TonB-dependent siderophore receptor&lt;br&gt;Location: 790175 - 788004&lt;br&gt;&lt;br&gt;&lt;b&gt;BlastP hit with JNAJGP_24135&lt;/b&gt;&lt;br&gt;Percentage identity: 88&lt;br&gt;Percentage coverage: 100&lt;br&gt;BLAST bit score: 1306&lt;br&gt;E-value: 0.0" locus_tag="FEZ21_RS16750" class="clusterblast-orf" id="dummy-9_h9_5_8"  />
</g>
<g id="a9_009"  >
<polygon points="128,85 133,80 139,80 139,90 133,90 128,85 " style="fill:#1580d8; stroke-width:1; stroke:black; " description="&lt;b&gt;FEZ21_RS16745&lt;/b&gt;&lt;br&gt;GNAT family N-acetyltransferase&lt;br&gt;Location: 787903 - 786884&lt;br&gt;&lt;br&gt;&lt;b&gt;BlastP hit with JNAJGP_24140&lt;/b&gt;&lt;br&gt;Percentage identity: 91&lt;br&gt;Percentage coverage: 100&lt;br&gt;BLAST bit score: 664&lt;br&gt;E-value: 2.65e-242" locus_tag="FEZ21_RS16745" class="clusterblast-orf" id="dummy-9_h9_5_9"  />
</g>
<g id="a9_0010"  >
<polygon points="141,85 146,80 162,80 162,90 146,90 141,85 " style="fill:#c715d8; stroke-width:1; stroke:black; " description="&lt;b&gt;FEZ21_RS16740&lt;/b&gt;&lt;br&gt;Fe(3+)-hydroxamate ABC transporter permease FhuB&lt;br&gt;Location: 786722 - 784755&lt;br&gt;&lt;br&gt;&lt;b&gt;BlastP hit with JNAJGP_24145&lt;/b&gt;&lt;br&gt;Percentage identity: 90&lt;br&gt;Percentage coverage: 99&lt;br&gt;BLAST bit score: 1066&lt;br&gt;E-value: 0.0" locus_tag="FEZ21_RS16740" class="clusterblast-orf" id="dummy-9_h9_5_10"  />
</g>
<g id="a9_0011"  >
<polygon points="162,85 167,80 172,80 172,90 167,90 162,85 " style="fill:#d88015; stroke-width:1; stroke:black; " description="&lt;b&gt;FEZ21_RS16735&lt;/b&gt;&lt;br&gt;ABC transporter substrate-binding protein&lt;br&gt;Location: 784741 - 783830&lt;br&gt;&lt;br&gt;&lt;b&gt;BlastP hit with JNAJGP_24150&lt;/b&gt;&lt;br&gt;Percentage identity: 86&lt;br&gt;Percentage coverage: 99&lt;br&gt;BLAST bit score: 509&lt;br&gt;E-value: 3e-182" locus_tag="FEZ21_RS16735" class="clusterblast-orf" id="dummy-9_h9_5_11"  />
</g>
<g id="a9_0012"  >
<polygon points="174,90 186,90 191,85 186,80 174,80 174,90 " style="fill:#15d839; stroke-width:1; stroke:black; " description="&lt;b&gt;FEZ21_RS16730&lt;/b&gt;&lt;br&gt;cyclic peptide export ABC transporter&lt;br&gt;Location: 783636 - 782029&lt;br&gt;&lt;br&gt;&lt;b&gt;BlastP hit with JNAJGP_24155&lt;/b&gt;&lt;br&gt;Percentage identity: 94&lt;br&gt;Percentage coverage: 98&lt;br&gt;BLAST bit score: 949&lt;br&gt;E-value: 0.0" locus_tag="FEZ21_RS16730" class="clusterblast-orf" id="dummy-9_h9_5_12"  />
</g>
<g id="a9_0013"  >
<polygon points="202,90 204,90 209,85 204,80 202,80 202,90 " style="fill:#155cd8; stroke-width:1; stroke:black; " description="&lt;b&gt;FEZ21_RS16725&lt;/b&gt;&lt;br&gt;alpha/beta fold hydrolase&lt;br&gt;Location: 781010 - 780279&lt;br&gt;&lt;br&gt;&lt;b&gt;BlastP hit with JNAJGP_24160&lt;/b&gt;&lt;br&gt;Percentage identity: 85&lt;br&gt;Percentage coverage: 98&lt;br&gt;BLAST bit score: 403&lt;br&gt;E-value: 2.88e-142" locus_tag="FEZ21_RS16725" class="clusterblast-orf" id="dummy-9_h9_5_13"  />
</g>
<g id="a9_0014"  >
<polygon points="210,90 215,90 220,85 215,80 210,80 210,90 " style="fill:#d815c7; stroke-width:1; stroke:black; " description="&lt;b&gt;FEZ21_RS16720&lt;/b&gt;&lt;br&gt;TauD/TfdA family dioxygenase&lt;br&gt;Location: 780239 - 779259&lt;br&gt;&lt;br&gt;&lt;b&gt;BlastP hit with JNAJGP_24165&lt;/b&gt;&lt;br&gt;Percentage identity: 93&lt;br&gt;Percentage coverage: 100&lt;br&gt;BLAST bit score: 629&lt;br&gt;E-value: 5.05e-229" locus_tag="FEZ21_RS16720" class="clusterblast-orf" id="dummy-9_h9_5_14"  />
</g>
<g id="a9_0015"  >
<polygon points="221,90 263,90 268,85 263,80 221,80 221,90 " style="fill:#d815c7; stroke-width:1; stroke:black; " description="&lt;b&gt;FEZ21_RS16715&lt;/b&gt;&lt;br&gt;AMP-binding protein&lt;br&gt;Location: 779209 - 774737&lt;br&gt;&lt;br&gt;&lt;b&gt;BlastP hit with JNAJGP_24165&lt;/b&gt;&lt;br&gt;Percentage identity: 45&lt;br&gt;Percentage coverage: 94&lt;br&gt;BLAST bit score: 264&lt;br&gt;E-value: 1.14e-77&lt;br&gt;&lt;br&gt;&lt;b&gt;BlastP hit with JNAJGP_24170&lt;/b&gt;&lt;br&gt;Percentage identity: 88&lt;br&gt;Percentage coverage: 100&lt;br&gt;BLAST bit score: 2603&lt;br&gt;E-value: 0.0" locus_tag="FEZ21_RS16715" class="clusterblast-orf" id="dummy-9_h9_5_15"  />
</g>
<g id="a9_0016"  >
<polygon points="269,90 297,90 302,85 297,80 269,80 269,90 " style="fill:#d815c7; stroke-width:1; stroke:black; " description="&lt;b&gt;FEZ21_RS16710&lt;/b&gt;&lt;br&gt;amino acid adenylation domain-containing protein&lt;br&gt;Location: 774726 - 771580&lt;br&gt;&lt;br&gt;&lt;b&gt;BlastP hit with JNAJGP_24175&lt;/b&gt;&lt;br&gt;Percentage identity: 78&lt;br&gt;Percentage coverage: 100&lt;br&gt;BLAST bit score: 1593&lt;br&gt;E-value: 0.0" locus_tag="FEZ21_RS16710" class="clusterblast-orf" id="dummy-9_h9_5_16"  />
</g>
<g id="a9_0017"  >
<polygon points="303,90 380,90 385,85 380,80 303,80 303,90 " style="fill:#d815c7; stroke-width:1; stroke:black; " description="&lt;b&gt;FEZ21_RS16705&lt;/b&gt;&lt;br&gt;non-ribosomal peptide synthetase&lt;br&gt;Location: 771531 - 763807&lt;br&gt;&lt;br&gt;&lt;b&gt;BlastP hit with JNAJGP_24175&lt;/b&gt;&lt;br&gt;Percentage identity: 33&lt;br&gt;Percentage coverage: 88&lt;br&gt;BLAST bit score: 351&lt;br&gt;E-value: 4.09e-99&lt;br&gt;&lt;br&gt;&lt;b&gt;BlastP hit with JNAJGP_24180&lt;/b&gt;&lt;br&gt;Percentage identity: 85&lt;br&gt;Percentage coverage: 100&lt;br&gt;BLAST bit score: 4399&lt;br&gt;E-value: 0.0&lt;br&gt;&lt;br&gt;&lt;b&gt;BlastP hit with JNAJGP_24185&lt;/b&gt;&lt;br&gt;Percentage identity: 40&lt;br&gt;Percentage coverage: 99&lt;br&gt;BLAST bit score: 2476&lt;br&gt;E-value: 0.0" locus_tag="FEZ21_RS16705" class="clusterblast-orf" id="dummy-9_h9_5_17"  />
</g>
<g id="a9_0018"  >
<polygon points="385,90 511,90 516,85 511,80 385,80 385,90 " style="fill:#d815c7; stroke-width:1; stroke:black; " description="&lt;b&gt;FEZ21_RS16700&lt;/b&gt;&lt;br&gt;non-ribosomal peptide synthase/polyketide synthase&lt;br&gt;Location: 763810 - 751481&lt;br&gt;&lt;br&gt;&lt;b&gt;BlastP hit with JNAJGP_24175&lt;/b&gt;&lt;br&gt;Percentage identity: 33&lt;br&gt;Percentage coverage: 94&lt;br&gt;BLAST bit score: 336&lt;br&gt;E-value: 5.13e-94&lt;br&gt;&lt;br&gt;&lt;b&gt;BlastP hit with JNAJGP_24180&lt;/b&gt;&lt;br&gt;Percentage identity: 40&lt;br&gt;Percentage coverage: 159&lt;br&gt;BLAST bit score: 2460&lt;br&gt;E-value: 0.0&lt;br&gt;&lt;br&gt;&lt;b&gt;BlastP hit with JNAJGP_24185&lt;/b&gt;&lt;br&gt;Percentage identity: 86&lt;br&gt;Percentage coverage: 100&lt;br&gt;BLAST bit score: 6937&lt;br&gt;E-value: 0.0&lt;br&gt;&lt;br&gt;&lt;b&gt;BlastP hit with JNAJGP_24190&lt;/b&gt;&lt;br&gt;Percentage identity: 37&lt;br&gt;Percentage coverage: 81&lt;br&gt;BLAST bit score: 547&lt;br&gt;E-value: 3.23e-162" locus_tag="FEZ21_RS16700" class="clusterblast-orf" id="dummy-9_h9_5_18"  />
</g>
<g id="a9_0019"  >
<polygon points="516,90 554,90 559,85 554,80 516,80 516,90 " style="fill:#d815c7; stroke-width:1; stroke:black; " description="&lt;b&gt;FEZ21_RS16695&lt;/b&gt;&lt;br&gt;non-ribosomal peptide synthetase&lt;br&gt;Location: 751479 - 747421&lt;br&gt;&lt;br&gt;&lt;b&gt;BlastP hit with JNAJGP_24175&lt;/b&gt;&lt;br&gt;Percentage identity: 33&lt;br&gt;Percentage coverage: 84&lt;br&gt;BLAST bit score: 311&lt;br&gt;E-value: 1.13e-86&lt;br&gt;&lt;br&gt;&lt;b&gt;BlastP hit with JNAJGP_24190&lt;/b&gt;&lt;br&gt;Percentage identity: 85&lt;br&gt;Percentage coverage: 100&lt;br&gt;BLAST bit score: 2220&lt;br&gt;E-value: 0.0" locus_tag="FEZ21_RS16695" class="clusterblast-orf" id="dummy-9_h9_5_19"  />
</g>
<g id="a9_0020"  >
<polygon points="560,90 569,90 574,85 569,80 560,80 560,90 " style="fill:#d8a315; stroke-width:1; stroke:black; " description="&lt;b&gt;FEZ21_RS16690&lt;/b&gt;&lt;br&gt;SidA/IucD/PvdA family monooxygenase&lt;br&gt;Location: 747347 - 745998&lt;br&gt;&lt;br&gt;&lt;b&gt;BlastP hit with JNAJGP_24195&lt;/b&gt;&lt;br&gt;Percentage identity: 88&lt;br&gt;Percentage coverage: 98&lt;br&gt;BLAST bit score: 764&lt;br&gt;E-value: 2.47e-278" locus_tag="FEZ21_RS16690" class="clusterblast-orf" id="dummy-9_h9_5_20"  />
</g>
<g id="a9_0021"  >
<polygon points="575,90 578,90 583,85 578,80 575,80 575,90 " style="fill:#15d85c; stroke-width:1; stroke:black; " description="&lt;b&gt;FEZ21_RS16685&lt;/b&gt;&lt;br&gt;siderophore-iron reductase FhuF&lt;br&gt;Location: 745912 - 745148&lt;br&gt;&lt;br&gt;&lt;b&gt;BlastP hit with JNAJGP_24200&lt;/b&gt;&lt;br&gt;Percentage identity: 85&lt;br&gt;Percentage coverage: 100&lt;br&gt;BLAST bit score: 435&lt;br&gt;E-value: 1.13e-154" locus_tag="FEZ21_RS16685" class="clusterblast-orf" id="dummy-9_h9_5_21"  />
</g>
<g id="a9_0022"  >
<polygon points="584,85 589,80 592,80 592,90 589,90 584,85 " style="fill:#1539d8; stroke-width:1; stroke:black; " description="&lt;b&gt;FEZ21_RS16680&lt;/b&gt;&lt;br&gt;ATP-binding cassette domain-containing protein&lt;br&gt;Location: 745132 - 744365&lt;br&gt;&lt;br&gt;&lt;b&gt;BlastP hit with JNAJGP_24205&lt;/b&gt;&lt;br&gt;Percentage identity: 93&lt;br&gt;Percentage coverage: 100&lt;br&gt;BLAST bit score: 474&lt;br&gt;E-value: 3.94e-170" locus_tag="FEZ21_RS16680" class="clusterblast-orf" id="dummy-9_h9_5_22"  />
</g>
<g id="a9_0023"  >
<polygon points="594,90 594,90 599,85 594,80 594,80 594,90 " style="fill:white; stroke-width:1; stroke:black; " description="&lt;b&gt;FEZ21_RS16675&lt;/b&gt;&lt;br&gt;sigma-70 family RNA polymerase sigma factor&lt;br&gt;Location: 744177 - 743683" locus_tag="FEZ21_RS16675" class="clusterblast-orf" id="dummy-9_h9_5_23"  />
</g>
<g id="a9_0024"  >
<polygon points="599,90 605,90 610,85 605,80 599,80 599,90 " style="fill:white; stroke-width:1; stroke:black; " description="&lt;b&gt;FEZ21_RS16670&lt;/b&gt;&lt;br&gt;FecR family protein&lt;br&gt;Location: 743659 - 742688" locus_tag="FEZ21_RS16670" class="clusterblast-orf" id="dummy-9_h9_5_24"  />
</g>
<g id="a9_0025"  >
<polygon points="611,90 632,90 637,85 632,80 611,80 611,90 " style="fill:white; stroke-width:1; stroke:black; " description="&lt;b&gt;FEZ21_RS16665&lt;/b&gt;&lt;br&gt;TonB-dependent receptor&lt;br&gt;Location: 742528 - 740111" locus_tag="FEZ21_RS16665" class="clusterblast-orf" id="dummy-9_h9_5_25"  />
</g>
<g id="a9_0026"  >
<polygon points="642,85 647,80 651,80 651,90 647,90 642,85 " style="fill:#15a3d8; stroke-width:1; stroke:black; " description="&lt;b&gt;FEZ21_RS16660&lt;/b&gt;&lt;br&gt;LysR family transcriptional regulator&lt;br&gt;Location: 739654 - 738773&lt;br&gt;&lt;br&gt;&lt;b&gt;BlastP hit with JNAJGP_24120&lt;/b&gt;&lt;br&gt;Percentage identity: 31&lt;br&gt;Percentage coverage: 97&lt;br&gt;BLAST bit score: 125&lt;br&gt;E-value: 7.28e-32" locus_tag="FEZ21_RS16660" class="clusterblast-orf" id="dummy-9_h9_5_26"  />
</g>
<g id="a9_0027"  >
<polygon points="652,90 658,90 663,85 658,80 652,80 652,90 " style="fill:white; stroke-width:1; stroke:black; " description="&lt;b&gt;FEZ21_RS16655&lt;/b&gt;&lt;br&gt;NAD(P)-dependent alcohol dehydrogenase&lt;br&gt;Location: 738667 - 737645" locus_tag="FEZ21_RS16655" class="clusterblast-orf" id="dummy-9_h9_5_27"  />
</g>
<g id="a9_0028"  >
<polygon points="665,85 670,80 677,80 677,90 670,90 665,85 " style="fill:white; stroke-width:1; stroke:black; " description="&lt;b&gt;FEZ21_RS16650&lt;/b&gt;&lt;br&gt;MFS transporter&lt;br&gt;Location: 737466 - 736315" locus_tag="FEZ21_RS16650" class="clusterblast-orf" id="dummy-9_h9_5_28"  />
</g>
<g id="a9_0029"  >
<polygon points="679,90 683,85 679,80 679,90 " style="fill:white; stroke-width:1; stroke:black; " description="&lt;b&gt;FEZ21_RS16645&lt;/b&gt;&lt;br&gt;RidA family protein&lt;br&gt;Location: 736166 - 735744" locus_tag="FEZ21_RS16645" class="clusterblast-orf" id="dummy-9_h9_5_29"  />
</g>
<g id="a9_0030"  >
<polygon points="685,85 690,80 706,80 706,90 690,90 685,85 " style="fill:white; stroke-width:1; stroke:black; " description="&lt;b&gt;FEZ21_RS16640&lt;/b&gt;&lt;br&gt;excinuclease ABC subunit UvrB&lt;br&gt;Location: 735611 - 733596" locus_tag="FEZ21_RS16640" class="clusterblast-orf" id="dummy-9_h9_5_30"  />
</g>
<g id="a9_0031"  >
<polygon points="710,90 718,90 723,85 718,80 710,80 710,90 " style="fill:white; stroke-width:1; stroke:black; " description="&lt;b&gt;FEZ21_RS16635&lt;/b&gt;&lt;br&gt;amino acid aminotransferase&lt;br&gt;Location: 733261 - 732065" locus_tag="FEZ21_RS16635" class="clusterblast-orf" id="dummy-9_h9_5_31"  />
</g>
<g id="a9_0032"  >
<polygon points="726,85 731,80 758,80 758,90 731,90 726,85 " style="fill:white; stroke-width:1; stroke:black; " description="&lt;b&gt;FEZ21_RS16625&lt;/b&gt;&lt;br&gt;FAD-binding and (Fe-S)-binding domain-containing protein&lt;br&gt;Location: 731771 - 728718" locus_tag="FEZ21_RS16625" class="clusterblast-orf" id="dummy-9_h9_5_32"  />
</g>
<g id="a9_0033"  >
<polygon points="760,90 765,90 770,85 765,80 760,80 760,90 " style="fill:white; stroke-width:1; stroke:black; " description="&lt;b&gt;FEZ21_RS16620&lt;/b&gt;&lt;br&gt;LysR substrate-binding domain-containing protein&lt;br&gt;Location: 728560 - 727655" locus_tag="FEZ21_RS16620" class="clusterblast-orf" id="dummy-9_h9_5_33"  />
</g>
<g id="a9_0034"  >
<polygon points="770,85 775,80 780,80 780,90 775,90 770,85 " style="fill:white; stroke-width:1; stroke:black; " description="&lt;b&gt;FEZ21_RS16615&lt;/b&gt;&lt;br&gt;sugar ABC transporter substrate-binding protein&lt;br&gt;Location: 727645 - 726719" locus_tag="FEZ21_RS16615" class="clusterblast-orf" id="dummy-9_h9_5_34"  />
</g>
</svg>
