<svg xmlns="http://www.w3.org/2000/svg" xmlns:xlink="http://www.w3.org/1999/xlink" version="1.1" x="0" y="0" height="230" width="800" viewBox="0 0 800 230" preserveAspectRatio="none"  >
<g label="Query sequence" class="clusterblast-cluster"  >
<text x="5" y="20" class="clusterblast-acc"  >
Query sequence</text>
<line x1="10" y1="35" x2="778.0" y2="35" style="stroke-width:1; stroke:grey; "  />
<polygon points="0,40 24,40 29,35 24,30 0,30 0,40 " style="fill:#d81515; stroke-width:1; stroke:black; " description="&lt;b&gt;JNAJGP_08685&lt;/b&gt;&lt;br&gt;YdiU family protein&lt;br&gt;Location: 1807450 - 1808914" locus_tag="JNAJGP_08685" class="clusterblast-orf" id="dummy-3_q0_0_all"  />
<polygon points="29,35 34,30 37,30 37,40 34,40 29,35 " style="fill:#6fd815; stroke-width:1; stroke:black; " description="&lt;b&gt;JNAJGP_08690&lt;/b&gt;&lt;br&gt;Antitoxin HigA&lt;br&gt;Location: 1808932 - 1809334" locus_tag="JNAJGP_08690" class="clusterblast-orf" id="dummy-3_q1_0_all"  />
<polygon points="37,35 42,30 43,30 43,40 42,40 37,35 " style="fill:#15c9d8; stroke-width:1; stroke:black; " description="&lt;b&gt;JNAJGP_08695&lt;/b&gt;&lt;br&gt;mRNA interferase toxin HigB&lt;br&gt;Location: 1809341 - 1809629" locus_tag="JNAJGP_08695" class="clusterblast-orf" id="dummy-3_q2_0_all"  />
<polygon points="47,40 51,40 56,35 51,30 47,30 47,40 " style="fill:#8d15d8; stroke-width:1; stroke:black; " description="&lt;b&gt;JNAJGP_08700&lt;/b&gt;&lt;br&gt;thioredoxin TrxC&lt;br&gt;Location: 1809863 - 1810298" locus_tag="JNAJGP_08700" class="clusterblast-orf" id="dummy-3_q3_0_all"  />
<polygon points="58,35 63,30 63,30 63,40 63,40 58,35 " style="fill:#d83315; stroke-width:1; stroke:black; " description="&lt;b&gt;JNAJGP_08705&lt;/b&gt;&lt;br&gt;DUF3077 domain-containing protein&lt;br&gt;Location: 1810426 - 1810660" locus_tag="JNAJGP_08705" class="clusterblast-orf" id="dummy-3_q4_0_all"  />
<polygon points="70,35 75,30 86,30 86,40 75,40 70,35 " style="fill:#51d815; stroke-width:1; stroke:black; " description="&lt;b&gt;JNAJGP_08715&lt;/b&gt;&lt;br&gt;ParA-like ATPase involved in chromosome/plasmid partitioning or cellulose biosynthesis protein BcsQ&lt;br&gt;Location: 1811037 - 1811808" locus_tag="JNAJGP_08715" class="clusterblast-orf" id="dummy-3_q5_0_all"  />
<polygon points="92,40 101,40 106,35 101,30 92,30 92,40 " style="fill:#15abd8; stroke-width:1; stroke:black; " description="&lt;b&gt;JNAJGP_08720&lt;/b&gt;&lt;br&gt;Beta-ketoacyl synthase N-terminal domain-containing protein&lt;br&gt;Location: 1812135 - 1812855" locus_tag="JNAJGP_08720" class="clusterblast-orf" id="dummy-3_q6_0_all"  />
<polygon points="106,40 117,40 122,35 117,30 106,30 106,40 " style="fill:#ab15d8; stroke-width:1; stroke:black; " description="&lt;b&gt;JNAJGP_08725&lt;/b&gt;&lt;br&gt;Phospholipid/glycerol acyltransferase domain-containing protein&lt;br&gt;Location: 1812830 - 1813643" locus_tag="JNAJGP_08725" class="clusterblast-orf" id="dummy-3_q7_0_all"  />
<polygon points="121,40 122,40 127,35 122,30 121,30 121,40 " style="fill:#d85115; stroke-width:1; stroke:black; " description="&lt;b&gt;JNAJGP_08730&lt;/b&gt;&lt;br&gt;Acyl carrier protein&lt;br&gt;Location: 1813620 - 1813890" locus_tag="JNAJGP_08730" class="clusterblast-orf" id="dummy-3_q8_0_all"  />
<polygon points="127,40 127,40 132,35 127,30 127,30 127,40 " style="fill:#33d815; stroke-width:1; stroke:black; " description="&lt;b&gt;JNAJGP_08735&lt;/b&gt;&lt;br&gt;acyl carrier protein&lt;br&gt;Location: 1813899 - 1814154" locus_tag="JNAJGP_08735" class="clusterblast-orf" id="dummy-3_q9_0_all"  />
<polygon points="132,40 137,40 142,35 137,30 132,30 132,40 " style="fill:#158dd8; stroke-width:1; stroke:black; " description="&lt;b&gt;JNAJGP_08740&lt;/b&gt;&lt;br&gt;Intracellular septation protein a&lt;br&gt;Location: 1814150 - 1814696" locus_tag="JNAJGP_08740" class="clusterblast-orf" id="dummy-3_q10_0_all"  />
<polygon points="142,40 170,40 175,35 170,30 142,30 142,40 " style="fill:#c915d8; stroke-width:1; stroke:black; " description="&lt;b&gt;JNAJGP_08745&lt;/b&gt;&lt;br&gt;Acetyl-coenzyme A synthetase&lt;br&gt;Location: 1814692 - 1816363" locus_tag="JNAJGP_08745" class="clusterblast-orf" id="dummy-3_q11_0_all"  />
<polygon points="179,40 188,40 193,35 188,30 179,30 179,40 " style="fill:#d86f15; stroke-width:1; stroke:black; " description="&lt;b&gt;JNAJGP_08750&lt;/b&gt;&lt;br&gt;Glycosyl transferase&lt;br&gt;Location: 1816530 - 1817265" locus_tag="JNAJGP_08750" class="clusterblast-orf" id="dummy-3_q12_0_all"  />
<polygon points="193,40 206,40 211,35 206,30 193,30 193,40 " style="fill:#15d815; stroke-width:1; stroke:black; " description="&lt;b&gt;JNAJGP_08755&lt;/b&gt;&lt;br&gt;Glycosyl transferase&lt;br&gt;Location: 1817261 - 1818197" locus_tag="JNAJGP_08755" class="clusterblast-orf" id="dummy-3_q13_0_all"  />
<polygon points="211,40 236,40 241,35 236,30 211,30 211,40 " style="fill:#156fd8; stroke-width:1; stroke:black; " description="&lt;b&gt;JNAJGP_08760&lt;/b&gt;&lt;br&gt;Histidine ammonia-lyase&lt;br&gt;Location: 1818180 - 1819722" locus_tag="JNAJGP_08760" class="clusterblast-orf" id="dummy-3_q14_0_all"  />
<polygon points="241,40 245,40 250,35 245,30 241,30 241,40 " style="fill:#d815c9; stroke-width:1; stroke:black; " description="&lt;b&gt;JNAJGP_08765&lt;/b&gt;&lt;br&gt;Thioesterase domain-containing protein&lt;br&gt;Location: 1819714 - 1820140" locus_tag="JNAJGP_08765" class="clusterblast-orf" id="dummy-3_q15_0_all"  />
<polygon points="250,40 256,40 261,35 256,30 250,30 250,40 " style="fill:#d88d15; stroke-width:1; stroke:black; " description="&lt;b&gt;JNAJGP_08770&lt;/b&gt;&lt;br&gt;Outer membrane lipoprotein carrier protein LolA&lt;br&gt;Location: 1820136 - 1820727" locus_tag="JNAJGP_08770" class="clusterblast-orf" id="dummy-3_q16_0_all"  />
<polygon points="261,40 302,40 307,35 302,30 261,30 261,40 " style="fill:#15d833; stroke-width:1; stroke:black; " description="&lt;b&gt;JNAJGP_08775&lt;/b&gt;&lt;br&gt;Membrane transport protein MMPL domain-containing protein&lt;br&gt;Location: 1820716 - 1823029" locus_tag="JNAJGP_08775" class="clusterblast-orf" id="dummy-3_q17_0_all"  />
<polygon points="307,40 327,40 332,35 327,30 307,30 307,40 " style="fill:#1551d8; stroke-width:1; stroke:black; " description="&lt;b&gt;JNAJGP_08780&lt;/b&gt;&lt;br&gt;FAD-binding domain-containing protein&lt;br&gt;Location: 1823062 - 1824310" locus_tag="JNAJGP_08780" class="clusterblast-orf" id="dummy-3_q18_0_all"  />
<polygon points="332,40 341,40 346,35 341,30 332,30 332,40 " style="fill:#d815ab; stroke-width:1; stroke:black; " description="&lt;b&gt;JNAJGP_08785&lt;/b&gt;&lt;br&gt;Methyltransferase type 11 domain-containing protein&lt;br&gt;Location: 1824306 - 1825041" locus_tag="JNAJGP_08785" class="clusterblast-orf" id="dummy-3_q19_0_all"  />
<polygon points="346,40 351,40 356,35 351,30 346,30 346,40 " style="fill:#d8ab15; stroke-width:1; stroke:black; " description="&lt;b&gt;JNAJGP_08790&lt;/b&gt;&lt;br&gt;Lipoprotein&lt;br&gt;Location: 1825037 - 1825520" locus_tag="JNAJGP_08790" class="clusterblast-orf" id="dummy-3_q20_0_all"  />
<polygon points="356,40 374,40 379,35 374,30 356,30 356,40 " style="fill:#15d851; stroke-width:1; stroke:black; " description="&lt;b&gt;JNAJGP_08795&lt;/b&gt;&lt;br&gt;3-oxoacyl-(Acyl carrier protein) synthase&lt;br&gt;Location: 1825516 - 1826683" locus_tag="JNAJGP_08795" class="clusterblast-orf" id="dummy-3_q21_0_all"  />
<polygon points="378,40 383,40 388,35 383,30 378,30 378,40 " style="fill:#1533d8; stroke-width:1; stroke:black; " description="&lt;b&gt;JNAJGP_08800&lt;/b&gt;&lt;br&gt;3-hydroxydecanoyl-(ACP) dehydratase&lt;br&gt;Location: 1826679 - 1827141" locus_tag="JNAJGP_08800" class="clusterblast-orf" id="dummy-3_q22_0_all"  />
<polygon points="387,40 397,40 402,35 397,30 387,30 387,40 " style="fill:#d8158d; stroke-width:1; stroke:black; " description="&lt;b&gt;JNAJGP_08805&lt;/b&gt;&lt;br&gt;3-oxoacyl-ACP reductase FabG&lt;br&gt;Location: 1827137 - 1827866" locus_tag="JNAJGP_08805" class="clusterblast-orf" id="dummy-3_q23_0_all"  />
<polygon points="402,40 421,40 426,35 421,30 402,30 402,40 " style="fill:#d8c915; stroke-width:1; stroke:black; " description="&lt;b&gt;JNAJGP_08810&lt;/b&gt;&lt;br&gt;beta-ketoacyl-ACP synthase&lt;br&gt;Location: 1827865 - 1829092" locus_tag="JNAJGP_08810" class="clusterblast-orf" id="dummy-3_q24_0_all"  />
<polygon points="426,40 430,40 435,35 430,30 426,30 426,40 " style="fill:#15d86f; stroke-width:1; stroke:black; " description="&lt;b&gt;JNAJGP_08815&lt;/b&gt;&lt;br&gt;Lipoprotein&lt;br&gt;Location: 1829118 - 1829571" locus_tag="JNAJGP_08815" class="clusterblast-orf" id="dummy-3_q25_0_all"  />
<polygon points="440,35 445,30 447,30 447,40 445,40 440,35 " style="fill:#1515d8; stroke-width:1; stroke:black; " description="&lt;b&gt;JNAJGP_08820&lt;/b&gt;&lt;br&gt;Type II toxin-antitoxin system PemK/MazF family toxin&lt;br&gt;Location: 1829787 - 1830171" locus_tag="JNAJGP_08820" class="clusterblast-orf" id="dummy-3_q26_0_all"  />
<polygon points="449,35 454,30 467,30 467,40 454,40 449,35 " style="fill:#d8156f; stroke-width:1; stroke:black; " description="&lt;b&gt;JNAJGP_08825&lt;/b&gt;&lt;br&gt;HTH lysR-type domain-containing protein&lt;br&gt;Location: 1830258 - 1831152" locus_tag="JNAJGP_08825" class="clusterblast-orf" id="dummy-3_q27_0_all"  />
<polygon points="469,40 489,40 494,35 489,30 469,30 469,40 " style="fill:#c9d815; stroke-width:1; stroke:black; " description="&lt;b&gt;JNAJGP_08830&lt;/b&gt;&lt;br&gt;Major facilitator superfamily (MFS) profile domain-containing protein&lt;br&gt;Location: 1831274 - 1832549" locus_tag="JNAJGP_08830" class="clusterblast-orf" id="dummy-3_q28_0_all"  />
<polygon points="495,35 500,30 516,30 516,40 500,40 495,35 " style="fill:#15d88d; stroke-width:1; stroke:black; " description="&lt;b&gt;JNAJGP_08835&lt;/b&gt;&lt;br&gt;uroporphyrinogen decarboxylase&lt;br&gt;Location: 1832609 - 1833677" locus_tag="JNAJGP_08835" class="clusterblast-orf" id="dummy-3_q29_0_all"  />
<polygon points="521,35 526,30 549,30 549,40 526,40 521,35 " style="fill:#3315d8; stroke-width:1; stroke:black; " description="&lt;b&gt;JNAJGP_08840&lt;/b&gt;&lt;br&gt;NADPH-dependent glutamate synthase beta chain or related oxidoreductase&lt;br&gt;Location: 1833919 - 1835338" locus_tag="JNAJGP_08840" class="clusterblast-orf" id="dummy-3_q30_0_all"  />
<polygon points="550,35 555,30 637,30 637,40 555,40 550,35 " style="fill:#d81551; stroke-width:1; stroke:black; " description="&lt;b&gt;JNAJGP_08845&lt;/b&gt;&lt;br&gt;Glutamate synthase large subunit&lt;br&gt;Location: 1835370 - 1839816" locus_tag="JNAJGP_08845" class="clusterblast-orf" id="dummy-3_q31_0_all"  />
<polygon points="644,35 649,30 675,30 675,40 649,40 644,35 " style="fill:#abd815; stroke-width:1; stroke:black; " description="&lt;b&gt;JNAJGP_08850&lt;/b&gt;&lt;br&gt;General secretion pathway protein a&lt;br&gt;Location: 1840170 - 1841733" locus_tag="JNAJGP_08850" class="clusterblast-orf" id="dummy-3_q32_0_all"  />
<polygon points="675,35 680,30 697,30 697,40 680,40 675,35 " style="fill:#15d8ab; stroke-width:1; stroke:black; " description="&lt;b&gt;JNAJGP_08855&lt;/b&gt;&lt;br&gt;3-dehydroquinate synthase&lt;br&gt;Location: 1841743 - 1842844" locus_tag="JNAJGP_08855" class="clusterblast-orf" id="dummy-3_q33_0_all"  />
<polygon points="699,35 704,30 709,30 709,40 704,40 699,35 " style="fill:#5115d8; stroke-width:1; stroke:black; " description="&lt;b&gt;JNAJGP_08860&lt;/b&gt;&lt;br&gt;shikimate kinase AroK&lt;br&gt;Location: 1842959 - 1843451" locus_tag="JNAJGP_08860" class="clusterblast-orf" id="dummy-3_q34_0_all"  />
<polygon points="709,35 714,30 737,30 737,40 714,40 709,35 " style="fill:#d81533; stroke-width:1; stroke:black; " description="&lt;b&gt;JNAJGP_08865&lt;/b&gt;&lt;br&gt;Type IV fimbriae biogenesis protein&lt;br&gt;Location: 1843482 - 1844865" locus_tag="JNAJGP_08865" class="clusterblast-orf" id="dummy-3_q35_0_all"  />
<polygon points="737,35 742,30 756,30 756,40 742,40 737,35 " style="fill:#8dd815; stroke-width:1; stroke:black; " description="&lt;b&gt;JNAJGP_08870&lt;/b&gt;&lt;br&gt;Pilus assembly protein&lt;br&gt;Location: 1844878 - 1845850" locus_tag="JNAJGP_08870" class="clusterblast-orf" id="dummy-3_q36_0_all"  />
<polygon points="756,35 761,30 767,30 767,40 761,40 756,35 " style="fill:#15d8c9; stroke-width:1; stroke:black; " description="&lt;b&gt;JNAJGP_08875&lt;/b&gt;&lt;br&gt;Type IV pilus assembly protein&lt;br&gt;Location: 1845846 - 1846401" locus_tag="JNAJGP_08875" class="clusterblast-orf" id="dummy-3_q37_0_all"  />
<polygon points="767,35 772,30 780,30 780,40 772,40 767,35 " style="fill:#6f15d8; stroke-width:1; stroke:black; " description="&lt;b&gt;JNAJGP_08880&lt;/b&gt;&lt;br&gt;Type IV pilus assembly protein&lt;br&gt;Location: 1846397 - 1847051" locus_tag="JNAJGP_08880" class="clusterblast-orf" id="dummy-3_q38_0_all"  />
</g>
<g label="NZ_CP022960" description="NZ_CP022960 (1821056-1864632): Pseudomonas sp. NS1(2017) strain NS1 chromosome (100% of genes show similarity), arylpolyene" class="clusterblast-cluster"  >
<text x="5" y="70" class="clusterblast-acc"  >
<a xlink:href="https://antismash-db.secondarymetabolites.org/area?record=NZ_CP022960&amp;start=1821056&amp;end=1864632" target="_blank">NZ_CP022960 (1821056-1864632)</a>: Pseudomonas sp. NS1(2017) strain NS1 chromosome (100% of genes show similarity), arylpolyene</text>
<line x1="10" y1="85" x2="778.0" y2="85" style="stroke-width:1; stroke:grey; "  />
</g>
<g id="a3_000"  >
<polygon points="5,90 29,90 34,85 29,80 5,80 5,90 " style="fill:#d81515; stroke-width:1; stroke:black; " description="&lt;b&gt;CI807_RS08925&lt;/b&gt;&lt;br&gt;YdiU family protein&lt;br&gt;Location: 1862510 - 1861047&lt;br&gt;&lt;br&gt;&lt;b&gt;BlastP hit with JNAJGP_08685&lt;/b&gt;&lt;br&gt;Percentage identity: 95&lt;br&gt;Percentage coverage: 100&lt;br&gt;BLAST bit score: 938&lt;br&gt;E-value: 0.0" locus_tag="CI807_RS08925" class="clusterblast-orf" id="dummy-3_h3_9_0"  />
</g>
<g id="a3_001"  >
<polygon points="35,85 40,80 43,80 43,90 40,90 35,85 " style="fill:#6fd815; stroke-width:1; stroke:black; " description="&lt;b&gt;CI807_RS08920&lt;/b&gt;&lt;br&gt;transcriptional regulator&lt;br&gt;Location: 1861007 - 1860606&lt;br&gt;&lt;br&gt;&lt;b&gt;BlastP hit with JNAJGP_08690&lt;/b&gt;&lt;br&gt;Percentage identity: 96&lt;br&gt;Percentage coverage: 100&lt;br&gt;BLAST bit score: 257&lt;br&gt;E-value: 5.19e-88" locus_tag="CI807_RS08920" class="clusterblast-orf" id="dummy-3_h3_9_1"  />
</g>
<g id="a3_002"  >
<polygon points="43,85 48,80 49,80 49,90 48,90 43,85 " style="fill:#15c9d8; stroke-width:1; stroke:black; " description="&lt;b&gt;CI807_RS08915&lt;/b&gt;&lt;br&gt;type II toxin-antitoxin system HigB family toxin&lt;br&gt;Location: 1860609 - 1860310&lt;br&gt;&lt;br&gt;&lt;b&gt;BlastP hit with JNAJGP_08695&lt;/b&gt;&lt;br&gt;Percentage identity: 87&lt;br&gt;Percentage coverage: 100&lt;br&gt;BLAST bit score: 176&lt;br&gt;E-value: 3.88e-57" locus_tag="CI807_RS08915" class="clusterblast-orf" id="dummy-3_h3_9_2"  />
</g>
<g id="a3_003"  >
<polygon points="53,90 57,90 62,85 57,80 53,80 53,90 " style="fill:#8d15d8; stroke-width:1; stroke:black; " description="&lt;b&gt;CI807_RS08910&lt;/b&gt;&lt;br&gt;thioredoxin TrxC&lt;br&gt;Location: 1860072 - 1859632&lt;br&gt;&lt;br&gt;&lt;b&gt;BlastP hit with JNAJGP_08700&lt;/b&gt;&lt;br&gt;Percentage identity: 100&lt;br&gt;Percentage coverage: 100&lt;br&gt;BLAST bit score: 305&lt;br&gt;E-value: 1.54e-106" locus_tag="CI807_RS08910" class="clusterblast-orf" id="dummy-3_h3_9_3"  />
</g>
<g id="a3_004"  >
<polygon points="64,85 69,80 69,80 69,90 69,90 64,85 " style="fill:#d83315; stroke-width:1; stroke:black; " description="&lt;b&gt;CI807_RS08905&lt;/b&gt;&lt;br&gt;DUF6124 family protein&lt;br&gt;Location: 1859510 - 1859295&lt;br&gt;&lt;br&gt;&lt;b&gt;BlastP hit with JNAJGP_08705&lt;/b&gt;&lt;br&gt;Percentage identity: 88&lt;br&gt;Percentage coverage: 88&lt;br&gt;BLAST bit score: 124&lt;br&gt;E-value: 4.51e-37" locus_tag="CI807_RS08905" class="clusterblast-orf" id="dummy-3_h3_9_4"  />
</g>
<g id="a3_005"  >
<polygon points="75,85 80,80 91,80 91,90 80,90 75,85 " style="fill:#51d815; stroke-width:1; stroke:black; " description="&lt;b&gt;CI807_RS08900&lt;/b&gt;&lt;br&gt;ParA family protein&lt;br&gt;Location: 1858957 - 1858187&lt;br&gt;&lt;br&gt;&lt;b&gt;BlastP hit with JNAJGP_08715&lt;/b&gt;&lt;br&gt;Percentage identity: 97&lt;br&gt;Percentage coverage: 100&lt;br&gt;BLAST bit score: 490&lt;br&gt;E-value: 2.39e-176" locus_tag="CI807_RS08900" class="clusterblast-orf" id="dummy-3_h3_9_5"  />
</g>
<g id="a3_006"  >
<polygon points="97,90 107,90 112,85 107,80 97,80 97,90 " style="fill:#15abd8; stroke-width:1; stroke:black; " description="&lt;b&gt;CI807_RS08895&lt;/b&gt;&lt;br&gt;beta-ketoacyl synthase chain length factor&lt;br&gt;Location: 1857838 - 1857119&lt;br&gt;&lt;br&gt;&lt;b&gt;BlastP hit with JNAJGP_08720&lt;/b&gt;&lt;br&gt;Percentage identity: 94&lt;br&gt;Percentage coverage: 100&lt;br&gt;BLAST bit score: 457&lt;br&gt;E-value: 8.34e-164" locus_tag="CI807_RS08895" class="clusterblast-orf" id="dummy-3_h3_9_6"  />
</g>
<g id="a3_007"  >
<polygon points="111,90 122,90 127,85 122,80 111,80 111,90 " style="fill:#ab15d8; stroke-width:1; stroke:black; " description="&lt;b&gt;CI807_RS08890&lt;/b&gt;&lt;br&gt;1-acyl-sn-glycerol-3-phosphate acyltransferase&lt;br&gt;Location: 1857143 - 1856331&lt;br&gt;&lt;br&gt;&lt;b&gt;BlastP hit with JNAJGP_08725&lt;/b&gt;&lt;br&gt;Percentage identity: 91&lt;br&gt;Percentage coverage: 100&lt;br&gt;BLAST bit score: 498&lt;br&gt;E-value: 8.93e-179" locus_tag="CI807_RS08890" class="clusterblast-orf" id="dummy-3_h3_9_7"  />
</g>
<g id="a3_008"  >
<polygon points="127,90 127,90 132,85 127,80 127,80 127,90 " style="fill:#d85115; stroke-width:1; stroke:black; " description="&lt;b&gt;CI807_RS08885&lt;/b&gt;&lt;br&gt;phosphopantetheine-binding protein&lt;br&gt;Location: 1856353 - 1856084&lt;br&gt;&lt;br&gt;&lt;b&gt;BlastP hit with JNAJGP_08730&lt;/b&gt;&lt;br&gt;Percentage identity: 96&lt;br&gt;Percentage coverage: 100&lt;br&gt;BLAST bit score: 160&lt;br&gt;E-value: 4e-51" locus_tag="CI807_RS08885" class="clusterblast-orf" id="dummy-3_h3_9_8"  />
</g>
<g id="a3_009"  >
<polygon points="132,90 132,90 137,85 132,80 132,80 132,90 " style="fill:#33d815; stroke-width:1; stroke:black; " description="&lt;b&gt;CI807_RS08880&lt;/b&gt;&lt;br&gt;acyl carrier protein&lt;br&gt;Location: 1856074 - 1855820&lt;br&gt;&lt;br&gt;&lt;b&gt;BlastP hit with JNAJGP_08735&lt;/b&gt;&lt;br&gt;Percentage identity: 98&lt;br&gt;Percentage coverage: 100&lt;br&gt;BLAST bit score: 155&lt;br&gt;E-value: 1.9e-49" locus_tag="CI807_RS08880" class="clusterblast-orf" id="dummy-3_h3_9_9"  />
</g>
<g id="a3_0010"  >
<polygon points="137,90 143,90 148,85 143,80 137,80 137,90 " style="fill:#158dd8; stroke-width:1; stroke:black; " description="&lt;b&gt;CI807_RS08875&lt;/b&gt;&lt;br&gt;hypothetical protein&lt;br&gt;Location: 1855823 - 1855278&lt;br&gt;&lt;br&gt;&lt;b&gt;BlastP hit with JNAJGP_08740&lt;/b&gt;&lt;br&gt;Percentage identity: 98&lt;br&gt;Percentage coverage: 100&lt;br&gt;BLAST bit score: 363&lt;br&gt;E-value: 1.57e-128" locus_tag="CI807_RS08875" class="clusterblast-orf" id="dummy-3_h3_9_10"  />
</g>
<g id="a3_0011"  >
<polygon points="148,90 176,90 181,85 176,80 148,80 148,90 " style="fill:#c915d8; stroke-width:1; stroke:black; " description="&lt;b&gt;CI807_RS08870&lt;/b&gt;&lt;br&gt;acyl-CoA synthetase family protein&lt;br&gt;Location: 1855281 - 1853611&lt;br&gt;&lt;br&gt;&lt;b&gt;BlastP hit with JNAJGP_08745&lt;/b&gt;&lt;br&gt;Percentage identity: 92&lt;br&gt;Percentage coverage: 100&lt;br&gt;BLAST bit score: 1024&lt;br&gt;E-value: 0.0" locus_tag="CI807_RS08870" class="clusterblast-orf" id="dummy-3_h3_9_11"  />
</g>
<g id="a3_0012"  >
<polygon points="181,90 190,90 195,85 190,80 181,80 181,90 " style="fill:#d86f15; stroke-width:1; stroke:black; " description="&lt;b&gt;CI807_RS08865&lt;/b&gt;&lt;br&gt;glycosyltransferase family 2 protein&lt;br&gt;Location: 1853618 - 1852884&lt;br&gt;&lt;br&gt;&lt;b&gt;BlastP hit with JNAJGP_08750&lt;/b&gt;&lt;br&gt;Percentage identity: 94&lt;br&gt;Percentage coverage: 100&lt;br&gt;BLAST bit score: 481&lt;br&gt;E-value: 6.15e-173" locus_tag="CI807_RS08865" class="clusterblast-orf" id="dummy-3_h3_9_12"  />
</g>
<g id="a3_0013"  >
<polygon points="195,90 208,90 213,85 208,80 195,80 195,90 " style="fill:#15d815; stroke-width:1; stroke:black; " description="&lt;b&gt;CI807_RS08860&lt;/b&gt;&lt;br&gt;glycosyl transferase&lt;br&gt;Location: 1852887 - 1851952&lt;br&gt;&lt;br&gt;&lt;b&gt;BlastP hit with JNAJGP_08755&lt;/b&gt;&lt;br&gt;Percentage identity: 92&lt;br&gt;Percentage coverage: 100&lt;br&gt;BLAST bit score: 586&lt;br&gt;E-value: 1.86e-212" locus_tag="CI807_RS08860" class="clusterblast-orf" id="dummy-3_h3_9_13"  />
</g>
<g id="a3_0014"  >
<polygon points="213,90 238,90 243,85 238,80 213,80 213,90 " style="fill:#156fd8; stroke-width:1; stroke:black; " description="&lt;b&gt;CI807_RS08855&lt;/b&gt;&lt;br&gt;aromatic amino acid ammonia-lyase&lt;br&gt;Location: 1851968 - 1850427&lt;br&gt;&lt;br&gt;&lt;b&gt;BlastP hit with JNAJGP_08760&lt;/b&gt;&lt;br&gt;Percentage identity: 99&lt;br&gt;Percentage coverage: 100&lt;br&gt;BLAST bit score: 999&lt;br&gt;E-value: 0.0" locus_tag="CI807_RS08855" class="clusterblast-orf" id="dummy-3_h3_9_14"  />
</g>
<g id="a3_0015"  >
<polygon points="243,90 247,90 252,85 247,80 243,80 243,90 " style="fill:#d815c9; stroke-width:1; stroke:black; " description="&lt;b&gt;CI807_RS08850&lt;/b&gt;&lt;br&gt;acyl-CoA thioesterase&lt;br&gt;Location: 1850434 - 1850009&lt;br&gt;&lt;br&gt;&lt;b&gt;BlastP hit with JNAJGP_08765&lt;/b&gt;&lt;br&gt;Percentage identity: 94&lt;br&gt;Percentage coverage: 100&lt;br&gt;BLAST bit score: 273&lt;br&gt;E-value: 2.61e-94" locus_tag="CI807_RS08850" class="clusterblast-orf" id="dummy-3_h3_9_15"  />
</g>
<g id="a3_0016"  >
<polygon points="252,90 258,90 263,85 258,80 252,80 252,90 " style="fill:#d88d15; stroke-width:1; stroke:black; " description="&lt;b&gt;CI807_RS08845&lt;/b&gt;&lt;br&gt;outer membrane lipoprotein carrier protein LolA&lt;br&gt;Location: 1850012 - 1849422&lt;br&gt;&lt;br&gt;&lt;b&gt;BlastP hit with JNAJGP_08770&lt;/b&gt;&lt;br&gt;Percentage identity: 93&lt;br&gt;Percentage coverage: 100&lt;br&gt;BLAST bit score: 353&lt;br&gt;E-value: 4.52e-124" locus_tag="CI807_RS08845" class="clusterblast-orf" id="dummy-3_h3_9_16"  />
</g>
<g id="a3_0017"  >
<polygon points="263,90 304,90 309,85 304,80 263,80 263,90 " style="fill:#15d833; stroke-width:1; stroke:black; " description="&lt;b&gt;CI807_RS08840&lt;/b&gt;&lt;br&gt;MMPL family transporter&lt;br&gt;Location: 1849432 - 1847120&lt;br&gt;&lt;br&gt;&lt;b&gt;BlastP hit with JNAJGP_08775&lt;/b&gt;&lt;br&gt;Percentage identity: 94&lt;br&gt;Percentage coverage: 100&lt;br&gt;BLAST bit score: 1366&lt;br&gt;E-value: 0.0" locus_tag="CI807_RS08840" class="clusterblast-orf" id="dummy-3_h3_9_17"  />
</g>
<g id="a3_0018"  >
<polygon points="309,90 329,90 334,85 329,80 309,80 309,90 " style="fill:#1551d8; stroke-width:1; stroke:black; " description="&lt;b&gt;CI807_RS08835&lt;/b&gt;&lt;br&gt;tryptophan 7-halogenase&lt;br&gt;Location: 1847086 - 1845839&lt;br&gt;&lt;br&gt;&lt;b&gt;BlastP hit with JNAJGP_08780&lt;/b&gt;&lt;br&gt;Percentage identity: 92&lt;br&gt;Percentage coverage: 100&lt;br&gt;BLAST bit score: 785&lt;br&gt;E-value: 9.67e-288" locus_tag="CI807_RS08835" class="clusterblast-orf" id="dummy-3_h3_9_18"  />
</g>
<g id="a3_0019"  >
<polygon points="334,90 343,90 348,85 343,80 334,80 334,90 " style="fill:#d815ab; stroke-width:1; stroke:black; " description="&lt;b&gt;CI807_RS08830&lt;/b&gt;&lt;br&gt;class I SAM-dependent methyltransferase&lt;br&gt;Location: 1845842 - 1845108&lt;br&gt;&lt;br&gt;&lt;b&gt;BlastP hit with JNAJGP_08785&lt;/b&gt;&lt;br&gt;Percentage identity: 88&lt;br&gt;Percentage coverage: 100&lt;br&gt;BLAST bit score: 459&lt;br&gt;E-value: 2.12e-164" locus_tag="CI807_RS08830" class="clusterblast-orf" id="dummy-3_h3_9_19"  />
</g>
<g id="a3_0020"  >
<polygon points="348,90 353,90 358,85 353,80 348,80 348,90 " style="fill:#d8ab15; stroke-width:1; stroke:black; " description="&lt;b&gt;CI807_RS08825&lt;/b&gt;&lt;br&gt;hypothetical protein&lt;br&gt;Location: 1845111 - 1844629&lt;br&gt;&lt;br&gt;&lt;b&gt;BlastP hit with JNAJGP_08790&lt;/b&gt;&lt;br&gt;Percentage identity: 90&lt;br&gt;Percentage coverage: 100&lt;br&gt;BLAST bit score: 294&lt;br&gt;E-value: 6.32e-102" locus_tag="CI807_RS08825" class="clusterblast-orf" id="dummy-3_h3_9_20"  />
</g>
<g id="a3_0021"  >
<polygon points="358,90 376,90 381,85 376,80 358,80 358,90 " style="fill:#15d851; stroke-width:1; stroke:black; " description="&lt;b&gt;CI807_RS08820&lt;/b&gt;&lt;br&gt;beta-ketoacyl-[acyl-carrier-protein] synthase family protein&lt;br&gt;Location: 1844632 - 1843466&lt;br&gt;&lt;br&gt;&lt;b&gt;BlastP hit with JNAJGP_08795&lt;/b&gt;&lt;br&gt;Percentage identity: 89&lt;br&gt;Percentage coverage: 100&lt;br&gt;BLAST bit score: 689&lt;br&gt;E-value: 1.48e-250" locus_tag="CI807_RS08820" class="clusterblast-orf" id="dummy-3_h3_9_21"  />
</g>
<g id="a3_0022"  >
<polygon points="380,90 385,90 390,85 385,80 380,80 380,90 " style="fill:#1533d8; stroke-width:1; stroke:black; " description="&lt;b&gt;CI807_RS08815&lt;/b&gt;&lt;br&gt;hotdog family protein&lt;br&gt;Location: 1843469 - 1843008&lt;br&gt;&lt;br&gt;&lt;b&gt;BlastP hit with JNAJGP_08800&lt;/b&gt;&lt;br&gt;Percentage identity: 91&lt;br&gt;Percentage coverage: 99&lt;br&gt;BLAST bit score: 279&lt;br&gt;E-value: 4.7e-96" locus_tag="CI807_RS08815" class="clusterblast-orf" id="dummy-3_h3_9_22"  />
</g>
<g id="a3_0023"  >
<polygon points="389,90 399,90 404,85 399,80 389,80 389,90 " style="fill:#d8158d; stroke-width:1; stroke:black; " description="&lt;b&gt;CI807_RS08810&lt;/b&gt;&lt;br&gt;3-ketoacyl-ACP reductase FabG2&lt;br&gt;Location: 1843011 - 1842283&lt;br&gt;&lt;br&gt;&lt;b&gt;BlastP hit with JNAJGP_08805&lt;/b&gt;&lt;br&gt;Percentage identity: 97&lt;br&gt;Percentage coverage: 100&lt;br&gt;BLAST bit score: 458&lt;br&gt;E-value: 3.66e-164" locus_tag="CI807_RS08810" class="clusterblast-orf" id="dummy-3_h3_9_23"  />
</g>
<g id="a3_0024"  >
<polygon points="404,90 423,90 428,85 423,80 404,80 404,90 " style="fill:#d8c915; stroke-width:1; stroke:black; " description="&lt;b&gt;CI807_RS08805&lt;/b&gt;&lt;br&gt;beta-ketoacyl-ACP synthase&lt;br&gt;Location: 1842283 - 1841057&lt;br&gt;&lt;br&gt;&lt;b&gt;BlastP hit with JNAJGP_08810&lt;/b&gt;&lt;br&gt;Percentage identity: 98&lt;br&gt;Percentage coverage: 100&lt;br&gt;BLAST bit score: 807&lt;br&gt;E-value: 1.15e-296" locus_tag="CI807_RS08805" class="clusterblast-orf" id="dummy-3_h3_9_24"  />
</g>
<g id="a3_0025"  >
<polygon points="428,90 432,90 437,85 432,80 428,80 428,90 " style="fill:#15d86f; stroke-width:1; stroke:black; " description="&lt;b&gt;CI807_RS08800&lt;/b&gt;&lt;br&gt;hypothetical protein&lt;br&gt;Location: 1841030 - 1840587&lt;br&gt;&lt;br&gt;&lt;b&gt;BlastP hit with JNAJGP_08815&lt;/b&gt;&lt;br&gt;Percentage identity: 91&lt;br&gt;Percentage coverage: 99&lt;br&gt;BLAST bit score: 253&lt;br&gt;E-value: 5.56e-86" locus_tag="CI807_RS08800" class="clusterblast-orf" id="dummy-3_h3_9_25"  />
</g>
<g id="a3_0026"  >
<polygon points="446,85 451,80 463,80 463,90 451,90 446,85 " style="fill:#d8156f; stroke-width:1; stroke:black; " description="&lt;b&gt;CI807_RS08795&lt;/b&gt;&lt;br&gt;LysR family transcriptional regulator&lt;br&gt;Location: 1840166 - 1839273&lt;br&gt;&lt;br&gt;&lt;b&gt;BlastP hit with JNAJGP_08825&lt;/b&gt;&lt;br&gt;Percentage identity: 95&lt;br&gt;Percentage coverage: 99&lt;br&gt;BLAST bit score: 530&lt;br&gt;E-value: 1.12e-190" locus_tag="CI807_RS08795" class="clusterblast-orf" id="dummy-3_h3_9_26"  />
</g>
<g id="a3_0027"  >
<polygon points="466,90 486,90 491,85 486,80 466,80 466,90 " style="fill:#c9d815; stroke-width:1; stroke:black; " description="&lt;b&gt;CI807_RS08790&lt;/b&gt;&lt;br&gt;MFS transporter&lt;br&gt;Location: 1839148 - 1837874&lt;br&gt;&lt;br&gt;&lt;b&gt;BlastP hit with JNAJGP_08830&lt;/b&gt;&lt;br&gt;Percentage identity: 94&lt;br&gt;Percentage coverage: 100&lt;br&gt;BLAST bit score: 755&lt;br&gt;E-value: 2.12e-275" locus_tag="CI807_RS08790" class="clusterblast-orf" id="dummy-3_h3_9_27"  />
</g>
<g id="a3_0028"  >
<polygon points="492,85 497,80 513,80 513,90 497,90 492,85 " style="fill:#15d88d; stroke-width:1; stroke:black; " description="&lt;b&gt;CI807_RS08785&lt;/b&gt;&lt;br&gt;uroporphyrinogen decarboxylase&lt;br&gt;Location: 1837816 - 1836749&lt;br&gt;&lt;br&gt;&lt;b&gt;BlastP hit with JNAJGP_08835&lt;/b&gt;&lt;br&gt;Percentage identity: 98&lt;br&gt;Percentage coverage: 100&lt;br&gt;BLAST bit score: 706&lt;br&gt;E-value: 2.24e-258" locus_tag="CI807_RS08785" class="clusterblast-orf" id="dummy-3_h3_9_28"  />
</g>
<g id="a3_0029"  >
<polygon points="515,85 520,80 543,80 543,90 520,90 515,85 " style="fill:#3315d8; stroke-width:1; stroke:black; " description="&lt;b&gt;CI807_RS08780&lt;/b&gt;&lt;br&gt;FAD-dependent oxidoreductase&lt;br&gt;Location: 1836639 - 1835221&lt;br&gt;&lt;br&gt;&lt;b&gt;BlastP hit with JNAJGP_08840&lt;/b&gt;&lt;br&gt;Percentage identity: 99&lt;br&gt;Percentage coverage: 100&lt;br&gt;BLAST bit score: 952&lt;br&gt;E-value: 0.0" locus_tag="CI807_RS08780" class="clusterblast-orf" id="dummy-3_h3_9_29"  />
</g>
<g id="a3_0030"  >
<polygon points="544,85 549,80 631,80 631,90 549,90 544,85 " style="fill:#d81551; stroke-width:1; stroke:black; " description="&lt;b&gt;CI807_RS08775&lt;/b&gt;&lt;br&gt;glutamate synthase large subunit&lt;br&gt;Location: 1835188 - 1830743&lt;br&gt;&lt;br&gt;&lt;b&gt;BlastP hit with JNAJGP_08845&lt;/b&gt;&lt;br&gt;Percentage identity: 99&lt;br&gt;Percentage coverage: 100&lt;br&gt;BLAST bit score: 2864&lt;br&gt;E-value: 0.0" locus_tag="CI807_RS08775" class="clusterblast-orf" id="dummy-3_h3_9_30"  />
</g>
<g id="a3_0031"  >
<polygon points="638,85 643,80 669,80 669,90 643,90 638,85 " style="fill:#abd815; stroke-width:1; stroke:black; " description="&lt;b&gt;CI807_RS08765&lt;/b&gt;&lt;br&gt;SPOR domain-containing protein&lt;br&gt;Location: 1830390 - 1828825&lt;br&gt;&lt;br&gt;&lt;b&gt;BlastP hit with JNAJGP_08850&lt;/b&gt;&lt;br&gt;Percentage identity: 91&lt;br&gt;Percentage coverage: 101&lt;br&gt;BLAST bit score: 837&lt;br&gt;E-value: 1.31e-304" locus_tag="CI807_RS08765" class="clusterblast-orf" id="dummy-3_h3_9_31"  />
</g>
<g id="a3_0032"  >
<polygon points="669,85 674,80 691,80 691,90 674,90 669,85 " style="fill:#15d8ab; stroke-width:1; stroke:black; " description="&lt;b&gt;CI807_RS08760&lt;/b&gt;&lt;br&gt;3-dehydroquinate synthase&lt;br&gt;Location: 1828814 - 1827714&lt;br&gt;&lt;br&gt;&lt;b&gt;BlastP hit with JNAJGP_08855&lt;/b&gt;&lt;br&gt;Percentage identity: 98&lt;br&gt;Percentage coverage: 100&lt;br&gt;BLAST bit score: 711&lt;br&gt;E-value: 5.51e-260" locus_tag="CI807_RS08760" class="clusterblast-orf" id="dummy-3_h3_9_32"  />
</g>
<g id="a3_0033"  >
<polygon points="693,85 698,80 703,80 703,90 698,90 693,85 " style="fill:#5115d8; stroke-width:1; stroke:black; " description="&lt;b&gt;CI807_RS08755&lt;/b&gt;&lt;br&gt;shikimate kinase AroK&lt;br&gt;Location: 1827588 - 1827070&lt;br&gt;&lt;br&gt;&lt;b&gt;BlastP hit with JNAJGP_08860&lt;/b&gt;&lt;br&gt;Percentage identity: 98&lt;br&gt;Percentage coverage: 100&lt;br&gt;BLAST bit score: 313&lt;br&gt;E-value: 5.19e-109" locus_tag="CI807_RS08755" class="clusterblast-orf" id="dummy-3_h3_9_33"  />
</g>
<g id="a3_0034"  >
<polygon points="704,85 709,80 730,80 730,90 709,90 704,85 " style="fill:#d81533; stroke-width:1; stroke:black; " description="&lt;b&gt;CI807_RS08750&lt;/b&gt;&lt;br&gt;type IV pilus secretin PilQ family protein&lt;br&gt;Location: 1827065 - 1825740&lt;br&gt;&lt;br&gt;&lt;b&gt;BlastP hit with JNAJGP_08865&lt;/b&gt;&lt;br&gt;Percentage identity: 91&lt;br&gt;Percentage coverage: 96&lt;br&gt;BLAST bit score: 767&lt;br&gt;E-value: 3.18e-279" locus_tag="CI807_RS08750" class="clusterblast-orf" id="dummy-3_h3_9_34"  />
</g>
<g id="a3_0035"  >
<polygon points="731,85 736,80 750,80 750,90 736,90 731,85 " style="fill:#8dd815; stroke-width:1; stroke:black; " description="&lt;b&gt;CI807_RS08745&lt;/b&gt;&lt;br&gt;pilus assembly protein PilP&lt;br&gt;Location: 1825670 - 1824711&lt;br&gt;&lt;br&gt;&lt;b&gt;BlastP hit with JNAJGP_08870&lt;/b&gt;&lt;br&gt;Percentage identity: 68&lt;br&gt;Percentage coverage: 100&lt;br&gt;BLAST bit score: 420&lt;br&gt;E-value: 1.68e-146" locus_tag="CI807_RS08745" class="clusterblast-orf" id="dummy-3_h3_9_35"  />
</g>
<g id="a3_0036"  >
<polygon points="750,85 755,80 761,80 761,90 755,90 750,85 " style="fill:#15d8c9; stroke-width:1; stroke:black; " description="&lt;b&gt;CI807_RS08740&lt;/b&gt;&lt;br&gt;PilN domain-containing protein&lt;br&gt;Location: 1824714 - 1824160&lt;br&gt;&lt;br&gt;&lt;b&gt;BlastP hit with JNAJGP_08875&lt;/b&gt;&lt;br&gt;Percentage identity: 83&lt;br&gt;Percentage coverage: 100&lt;br&gt;BLAST bit score: 282&lt;br&gt;E-value: 2.85e-96" locus_tag="CI807_RS08740" class="clusterblast-orf" id="dummy-3_h3_9_36"  />
</g>
<g id="a3_0037"  >
<polygon points="761,85 766,80 774,80 774,90 766,90 761,85 " style="fill:#6f15d8; stroke-width:1; stroke:black; " description="&lt;b&gt;CI807_RS08735&lt;/b&gt;&lt;br&gt;type IV pilus assembly protein PilM&lt;br&gt;Location: 1824163 - 1823510&lt;br&gt;&lt;br&gt;&lt;b&gt;BlastP hit with JNAJGP_08880&lt;/b&gt;&lt;br&gt;Percentage identity: 73&lt;br&gt;Percentage coverage: 100&lt;br&gt;BLAST bit score: 306&lt;br&gt;E-value: 5.87e-105" locus_tag="CI807_RS08735" class="clusterblast-orf" id="dummy-3_h3_9_37"  />
</g>
</svg>
