<svg xmlns="http://www.w3.org/2000/svg" xmlns:xlink="http://www.w3.org/1999/xlink" version="1.1" x="0" y="0" height="230" width="800" viewBox="0 0 800 230" preserveAspectRatio="none"  >
<g label="Query sequence" class="clusterblast-cluster"  >
<text x="5" y="20" class="clusterblast-acc"  >
Query sequence</text>
<line x1="10" y1="35" x2="778.0" y2="35" style="stroke-width:1; stroke:grey; "  />
<polygon points="0,35 5,30 8,30 8,40 5,40 0,35 " style="fill:#d81515; stroke-width:1; stroke:black; " description="&lt;b&gt;JNAJGP_00145&lt;/b&gt;&lt;br&gt;hypothetical protein&lt;br&gt;Location: 27238 - 27385" locus_tag="JNAJGP_00145" class="clusterblast-orf" id="dummy-1_q0_0_all"  />
<polygon points="26,35 31,30 112,30 112,40 31,40 26,35 " style="fill:#d81515; stroke-width:1; stroke:black; " description="&lt;b&gt;JNAJGP_00150&lt;/b&gt;&lt;br&gt;polyphosphate:AMP phosphotransferase&lt;br&gt;Location: 27695 - 29210" locus_tag="JNAJGP_00150" class="clusterblast-orf" id="dummy-1_q1_0_all"  />
<polygon points="121,40 228,40 233,35 228,30 121,30 121,40 " style="fill:#5cd815; stroke-width:1; stroke:black; " description="&lt;b&gt;JNAJGP_00155&lt;/b&gt;&lt;br&gt;bifunctional tRNA (5-methylaminomethyl-2-thiouridine)(34)-methyltransferase MnmD/FAD-dependent 5-carboxymethylaminomethyl-2-thiouridine(34) oxidoreductase MnmC&lt;br&gt;Location: 29364 - 31350" locus_tag="JNAJGP_00155" class="clusterblast-orf" id="dummy-1_q2_0_all"  />
<polygon points="246,40 342,40 347,35 342,30 246,30 246,40 " style="fill:#15a3d8; stroke-width:1; stroke:black; " description="&lt;b&gt;JNAJGP_00160&lt;/b&gt;&lt;br&gt;N-acetylglutaminylglutamine amidotransferase&lt;br&gt;Location: 31575 - 33348" locus_tag="JNAJGP_00160" class="clusterblast-orf" id="dummy-1_q3_0_all"  />
<polygon points="347,40 441,40 446,35 441,30 347,30 347,40 " style="fill:#c715d8; stroke-width:1; stroke:black; " description="&lt;b&gt;JNAJGP_00165&lt;/b&gt;&lt;br&gt;N-acetylglutaminylglutamine synthetase&lt;br&gt;Location: 33351 - 35100" locus_tag="JNAJGP_00165" class="clusterblast-orf" id="dummy-1_q4_0_all"  />
<polygon points="455,40 518,40 523,35 518,30 455,30 455,40 " style="fill:#d88015; stroke-width:1; stroke:black; " description="&lt;b&gt;JNAJGP_00170&lt;/b&gt;&lt;br&gt;osmoprotectant NAGGN system M42 family peptidase&lt;br&gt;Location: 35263 - 36448" locus_tag="JNAJGP_00170" class="clusterblast-orf" id="dummy-1_q5_0_all"  />
<polygon points="526,40 534,40 539,35 534,30 526,30 526,40 " style="fill:#15d839; stroke-width:1; stroke:black; " description="&lt;b&gt;JNAJGP_00175&lt;/b&gt;&lt;br&gt;UPF0270 protein Pfl01 4103&lt;br&gt;Location: 36507 - 36735" locus_tag="JNAJGP_00175" class="clusterblast-orf" id="dummy-1_q6_0_all"  />
<polygon points="539,35 544,30 550,30 550,40 544,40 539,35 " style="fill:#1539d8; stroke-width:1; stroke:black; " description="&lt;b&gt;JNAJGP_00180&lt;/b&gt;&lt;br&gt;carbon storage regulator CsrA&lt;br&gt;Location: 36743 - 36941" locus_tag="JNAJGP_00180" class="clusterblast-orf" id="dummy-1_q7_0_all"  />
<polygon points="558,35 563,30 604,30 604,40 563,40 558,35 " style="fill:#d81580; stroke-width:1; stroke:black; " description="&lt;b&gt;JNAJGP_00185&lt;/b&gt;&lt;br&gt;SDR family oxidoreductase&lt;br&gt;Location: 37068 - 37884" locus_tag="JNAJGP_00185" class="clusterblast-orf" id="dummy-1_q8_0_all"  />
<polygon points="623,40 626,40 631,35 626,30 623,30 623,40 " style="fill:#c7d815; stroke-width:1; stroke:black; " description="&lt;b&gt;JNAJGP_00190&lt;/b&gt;&lt;br&gt;DUF3309 domain-containing protein&lt;br&gt;Location: 38212 - 38365" locus_tag="JNAJGP_00190" class="clusterblast-orf" id="dummy-1_q9_0_all"  />
<polygon points="634,35 639,30 753,30 753,40 639,40 634,35 " style="fill:#15d8a3; stroke-width:1; stroke:black; " description="&lt;b&gt;JNAJGP_00195&lt;/b&gt;&lt;br&gt;Phosphoglycerol transferase I&lt;br&gt;Location: 38416 - 40504" locus_tag="JNAJGP_00195" class="clusterblast-orf" id="dummy-1_q10_0_all"  />
<polygon points="769,35 774,30 780,30 780,40 774,40 769,35 " style="fill:#5c15d8; stroke-width:1; stroke:black; " description="&lt;b&gt;JNAJGP_00200&lt;/b&gt;&lt;br&gt;Cardiolipin synthase N-terminal domain-containing protein&lt;br&gt;Location: 40796 - 40988" locus_tag="JNAJGP_00200" class="clusterblast-orf" id="dummy-1_q11_0_all"  />
</g>
<g label="NZ_MOAZ01000003" description="NZ_MOAZ01000003 (227439-242158): Pseudomonas canadensis strain 36C8 36C8 cont... (100% of genes show similarity), NAGGN" class="clusterblast-cluster"  >
<text x="5" y="70" class="clusterblast-acc"  >
<a xlink:href="https://antismash-db.secondarymetabolites.org/area?record=NZ_MOAZ01000003&amp;start=227439&amp;end=242158" target="_blank">NZ_MOAZ01000003 (227439-242158)</a>: Pseudomonas canadensis strain 36C8 36C8 cont... (100% of genes show similarity), NAGGN</text>
<line x1="10" y1="85" x2="778.0" y2="85" style="stroke-width:1; stroke:grey; "  />
</g>
<g id="a1_000"  >
<polygon points="3,85 8,80 89,80 89,90 8,90 3,85 " style="fill:#d81515; stroke-width:1; stroke:black; " description="&lt;b&gt;BK649_RS03830&lt;/b&gt;&lt;br&gt;polyphosphate:AMP phosphotransferase&lt;br&gt;Location: 228160 - 229677&lt;br&gt;&lt;br&gt;&lt;b&gt;BlastP hit with JNAJGP_00145&lt;/b&gt;&lt;br&gt;Percentage identity: 87&lt;br&gt;Percentage coverage: 94&lt;br&gt;BLAST bit score: 78&lt;br&gt;E-value: 4.09e-17&lt;br&gt;&lt;br&gt;&lt;b&gt;BlastP hit with JNAJGP_00150&lt;/b&gt;&lt;br&gt;Percentage identity: 96&lt;br&gt;Percentage coverage: 100&lt;br&gt;BLAST bit score: 988&lt;br&gt;E-value: 0.0" locus_tag="BK649_RS03830" class="clusterblast-orf" id="dummy-1_h1_5_0"  />
</g>
<g id="a1_001"  >
<polygon points="97,90 205,90 210,85 205,80 97,80 97,90 " style="fill:#5cd815; stroke-width:1; stroke:black; " description="&lt;b&gt;BK649_RS03835&lt;/b&gt;&lt;br&gt;bifunctional tRNA (5-methylaminomethyl-2-thiouridine)(34)-methyltransferase MnmD/FAD-dependent 5-carboxymethylaminomethyl-2-thiouridine(34) oxidoreductase MnmC&lt;br&gt;Location: 229819 - 231801&lt;br&gt;&lt;br&gt;&lt;b&gt;BlastP hit with JNAJGP_00155&lt;/b&gt;&lt;br&gt;Percentage identity: 88&lt;br&gt;Percentage coverage: 99&lt;br&gt;BLAST bit score: 1172&lt;br&gt;E-value: 0.0" locus_tag="BK649_RS03835" class="clusterblast-orf" id="dummy-1_h1_5_1"  />
</g>
<g id="a1_002"  >
<polygon points="246,90 341,90 346,85 341,80 246,80 246,90 " style="fill:#15a3d8; stroke-width:1; stroke:black; " description="&lt;b&gt;BK649_RS03840&lt;/b&gt;&lt;br&gt;N-acetylglutaminylglutamine amidotransferase&lt;br&gt;Location: 232440 - 234212&lt;br&gt;&lt;br&gt;&lt;b&gt;BlastP hit with JNAJGP_00160&lt;/b&gt;&lt;br&gt;Percentage identity: 97&lt;br&gt;Percentage coverage: 100&lt;br&gt;BLAST bit score: 1166&lt;br&gt;E-value: 0.0" locus_tag="BK649_RS03840" class="clusterblast-orf" id="dummy-1_h1_5_2"  />
</g>
<g id="a1_003"  >
<polygon points="347,90 440,90 445,85 440,80 347,80 347,90 " style="fill:#c715d8; stroke-width:1; stroke:black; " description="&lt;b&gt;BK649_RS03845&lt;/b&gt;&lt;br&gt;N-acetylglutaminylglutamine synthetase&lt;br&gt;Location: 234216 - 235949&lt;br&gt;&lt;br&gt;&lt;b&gt;BlastP hit with JNAJGP_00165&lt;/b&gt;&lt;br&gt;Percentage identity: 96&lt;br&gt;Percentage coverage: 99&lt;br&gt;BLAST bit score: 1102&lt;br&gt;E-value: 0.0" locus_tag="BK649_RS03845" class="clusterblast-orf" id="dummy-1_h1_5_3"  />
</g>
<g id="a1_004"  >
<polygon points="446,90 509,90 514,85 509,80 446,80 446,90 " style="fill:#d88015; stroke-width:1; stroke:black; " description="&lt;b&gt;BK649_RS03850&lt;/b&gt;&lt;br&gt;osmoprotectant NAGGN system M42 family peptidase&lt;br&gt;Location: 235974 - 237158&lt;br&gt;&lt;br&gt;&lt;b&gt;BlastP hit with JNAJGP_00170&lt;/b&gt;&lt;br&gt;Percentage identity: 98&lt;br&gt;Percentage coverage: 100&lt;br&gt;BLAST bit score: 771&lt;br&gt;E-value: 8.17e-283" locus_tag="BK649_RS03850" class="clusterblast-orf" id="dummy-1_h1_5_4"  />
</g>
<g id="a1_005"  >
<polygon points="517,90 525,90 530,85 525,80 517,80 517,90 " style="fill:#15d839; stroke-width:1; stroke:black; " description="&lt;b&gt;BK649_RS03855&lt;/b&gt;&lt;br&gt;YheU family protein&lt;br&gt;Location: 237218 - 237445&lt;br&gt;&lt;br&gt;&lt;b&gt;BlastP hit with JNAJGP_00175&lt;/b&gt;&lt;br&gt;Percentage identity: 99&lt;br&gt;Percentage coverage: 100&lt;br&gt;BLAST bit score: 149&lt;br&gt;E-value: 2.77e-47" locus_tag="BK649_RS03855" class="clusterblast-orf" id="dummy-1_h1_5_5"  />
</g>
<g id="a1_006"  >
<polygon points="530,85 535,80 542,80 542,90 535,90 530,85 " style="fill:#1539d8; stroke-width:1; stroke:black; " description="&lt;b&gt;BK649_RS03860&lt;/b&gt;&lt;br&gt;carbon storage regulator CsrA&lt;br&gt;Location: 237453 - 237656&lt;br&gt;&lt;br&gt;&lt;b&gt;BlastP hit with JNAJGP_00180&lt;/b&gt;&lt;br&gt;Percentage identity: 80&lt;br&gt;Percentage coverage: 100&lt;br&gt;BLAST bit score: 95&lt;br&gt;E-value: 9.71e-26" locus_tag="BK649_RS03860" class="clusterblast-orf" id="dummy-1_h1_5_6"  />
</g>
<g id="a1_007"  >
<polygon points="549,85 554,80 595,80 595,90 554,90 549,85 " style="fill:#d81580; stroke-width:1; stroke:black; " description="&lt;b&gt;BK649_RS03865&lt;/b&gt;&lt;br&gt;SDR family oxidoreductase&lt;br&gt;Location: 237786 - 238601&lt;br&gt;&lt;br&gt;&lt;b&gt;BlastP hit with JNAJGP_00185&lt;/b&gt;&lt;br&gt;Percentage identity: 98&lt;br&gt;Percentage coverage: 100&lt;br&gt;BLAST bit score: 522&lt;br&gt;E-value: 2.41e-188" locus_tag="BK649_RS03865" class="clusterblast-orf" id="dummy-1_h1_5_7"  />
</g>
<g id="a1_008"  >
<polygon points="615,90 618,90 623,85 618,80 615,80 615,90 " style="fill:#c7d815; stroke-width:1; stroke:black; " description="&lt;b&gt;BK649_RS03870&lt;/b&gt;&lt;br&gt;DUF3309 family protein&lt;br&gt;Location: 238942 - 239094&lt;br&gt;&lt;br&gt;&lt;b&gt;BlastP hit with JNAJGP_00190&lt;/b&gt;&lt;br&gt;Percentage identity: 100&lt;br&gt;Percentage coverage: 100&lt;br&gt;BLAST bit score: 81&lt;br&gt;E-value: 1.5e-20" locus_tag="BK649_RS03870" class="clusterblast-orf" id="dummy-1_h1_5_8"  />
</g>
<g id="a1_009"  >
<polygon points="626,85 631,80 745,80 745,90 631,90 626,85 " style="fill:#15d8a3; stroke-width:1; stroke:black; " description="&lt;b&gt;BK649_RS03875&lt;/b&gt;&lt;br&gt;LTA synthase family protein&lt;br&gt;Location: 239147 - 241234&lt;br&gt;&lt;br&gt;&lt;b&gt;BlastP hit with JNAJGP_00195&lt;/b&gt;&lt;br&gt;Percentage identity: 95&lt;br&gt;Percentage coverage: 100&lt;br&gt;BLAST bit score: 1337&lt;br&gt;E-value: 0.0" locus_tag="BK649_RS03875" class="clusterblast-orf" id="dummy-1_h1_5_9"  />
</g>
<g id="a1_0010"  >
<polygon points="765,85 770,80 776,80 776,90 770,90 765,85 " style="fill:#5c15d8; stroke-width:1; stroke:black; " description="&lt;b&gt;BK649_RS03880&lt;/b&gt;&lt;br&gt;PLDc N-terminal domain-containing protein&lt;br&gt;Location: 241593 - 241784&lt;br&gt;&lt;br&gt;&lt;b&gt;BlastP hit with JNAJGP_00200&lt;/b&gt;&lt;br&gt;Percentage identity: 100&lt;br&gt;Percentage coverage: 100&lt;br&gt;BLAST bit score: 121&lt;br&gt;E-value: 2.36e-36" locus_tag="BK649_RS03880" class="clusterblast-orf" id="dummy-1_h1_5_10"  />
</g>
</svg>
