<svg xmlns="http://www.w3.org/2000/svg" xmlns:xlink="http://www.w3.org/1999/xlink" version="1.1" x="0" y="0" height="230" width="800" viewBox="0 0 800 230" preserveAspectRatio="none"  >
<g label="Query sequence" class="clusterblast-cluster"  >
<text x="5" y="20" class="clusterblast-acc"  >
Query sequence</text>
<line x1="10" y1="35" x2="778.0" y2="35" style="stroke-width:1; stroke:grey; "  />
<polygon points="46,40 107,40 112,35 107,30 46,30 46,40 " style="fill:#d81515; stroke-width:1; stroke:black; " description="&lt;b&gt;JNAJGP_13890&lt;/b&gt;&lt;br&gt;phenylacyl-CoA dehydrogenase&lt;br&gt;Location: 2957054 - 2958860" locus_tag="JNAJGP_13890" class="clusterblast-orf" id="dummy-6_q0_0_all"  />
<polygon points="119,40 161,40 166,35 161,30 119,30 119,40 " style="fill:#4dd815; stroke-width:1; stroke:black; " description="&lt;b&gt;JNAJGP_13895&lt;/b&gt;&lt;br&gt;GGDEF domain-containing protein&lt;br&gt;Location: 2959064 - 2960357" locus_tag="JNAJGP_13895" class="clusterblast-orf" id="dummy-6_q1_0_all"  />
<polygon points="170,40 229,40 234,35 229,30 170,30 170,40 " style="fill:#d81515; stroke-width:1; stroke:black; " description="&lt;b&gt;JNAJGP_13900&lt;/b&gt;&lt;br&gt;Acyl-CoA dehydrogenase&lt;br&gt;Location: 2960447 - 2962217" locus_tag="JNAJGP_13900" class="clusterblast-orf" id="dummy-6_q2_0_all"  />
<polygon points="238,40 298,40 303,35 298,30 238,30 238,40 " style="fill:#d81515; stroke-width:1; stroke:black; " description="&lt;b&gt;JNAJGP_13905&lt;/b&gt;&lt;br&gt;Acyl-CoA dehydrogenase&lt;br&gt;Location: 2962339 - 2964118" locus_tag="JNAJGP_13905" class="clusterblast-orf" id="dummy-6_q3_0_all"  />
<polygon points="311,35 316,30 344,30 344,40 316,40 311,35 " style="fill:#1585d8; stroke-width:1; stroke:black; " description="&lt;b&gt;JNAJGP_13915&lt;/b&gt;&lt;br&gt;HTH lysR-type domain-containing protein&lt;br&gt;Location: 2964345 - 2965245" locus_tag="JNAJGP_13915" class="clusterblast-orf" id="dummy-6_q4_0_all"  />
<polygon points="351,40 392,40 397,35 392,30 351,30 351,40 " style="fill:#a115d8; stroke-width:1; stroke:black; " description="&lt;b&gt;JNAJGP_13920&lt;/b&gt;&lt;br&gt;Acetylornithine and succinylornithine aminotransferase&lt;br&gt;Location: 2965442 - 2966705" locus_tag="JNAJGP_13920" class="clusterblast-orf" id="dummy-6_q5_0_all"  />
<polygon points="404,40 404,40 409,35 404,30 404,30 404,40 " style="fill:#d86915; stroke-width:1; stroke:black; " description="&lt;b&gt;JNAJGP_13925&lt;/b&gt;&lt;br&gt;Membrane putative modulator PMP3/YqaE, plasma membrane proteolipid 3 (PMP3)/Esi3/RCI2/UPF0057 family&lt;br&gt;Location: 2966887 - 2967046" locus_tag="JNAJGP_13925" class="clusterblast-orf" id="dummy-6_q6_0_all"  />
<polygon points="410,35 415,30 452,30 452,40 415,40 410,35 " style="fill:#15d831; stroke-width:1; stroke:black; " description="&lt;b&gt;JNAJGP_13930&lt;/b&gt;&lt;br&gt;pyrroloquinoline quinone biosynthesis protein PqqE&lt;br&gt;Location: 2967051 - 2968203" locus_tag="JNAJGP_13930" class="clusterblast-orf" id="dummy-6_q7_0_all"  />
<polygon points="451,35 456,30 461,30 461,40 456,40 451,35 " style="fill:#1531d8; stroke-width:1; stroke:black; " description="&lt;b&gt;JNAJGP_13935&lt;/b&gt;&lt;br&gt;pyrroloquinoline quinone biosynthesis peptide chaperone PqqD&lt;br&gt;Location: 2968174 - 2968450" locus_tag="JNAJGP_13935" class="clusterblast-orf" id="dummy-6_q8_0_all"  />
<polygon points="460,35 465,30 488,30 488,40 465,40 460,35 " style="fill:#d815bc; stroke-width:1; stroke:black; " description="&lt;b&gt;JNAJGP_13940&lt;/b&gt;&lt;br&gt;pyrroloquinoline-quinone synthase PqqC&lt;br&gt;Location: 2968446 - 2969199" locus_tag="JNAJGP_13940" class="clusterblast-orf" id="dummy-6_q9_0_all"  />
<polygon points="488,35 493,30 521,30 521,40 493,40 488,35 " style="fill:#d8bc15; stroke-width:1; stroke:black; " description="&lt;b&gt;JNAJGP_13945&lt;/b&gt;&lt;br&gt;pyrroloquinoline quinone biosynthesis protein PqqB&lt;br&gt;Location: 2969210 - 2970122" locus_tag="JNAJGP_13945" class="clusterblast-orf" id="dummy-6_q10_0_all"  />
<polygon points="524,35 527,30 527,40 524,35 " style="fill:#15d885; stroke-width:1; stroke:black; " description="&lt;b&gt;JNAJGP_13950&lt;/b&gt;&lt;br&gt;pyrroloquinoline quinone precursor peptide PqqA&lt;br&gt;Location: 2970193 - 2970268" locus_tag="JNAJGP_13950" class="clusterblast-orf" id="dummy-6_q11_0_all"  />
<polygon points="532,35 537,30 619,30 619,40 537,40 532,35 " style="fill:#4d15d8; stroke-width:1; stroke:black; " description="&lt;b&gt;JNAJGP_13955&lt;/b&gt;&lt;br&gt;pyrroloquinoline quinone biosynthesis protein PqqF&lt;br&gt;Location: 2970427 - 2972797" locus_tag="JNAJGP_13955" class="clusterblast-orf" id="dummy-6_q12_0_all"  />
<polygon points="621,35 626,30 650,30 650,40 626,40 621,35 " style="fill:#d81569; stroke-width:1; stroke:black; " description="&lt;b&gt;JNAJGP_13960&lt;/b&gt;&lt;br&gt;(R)-stereoselective amidase&lt;br&gt;Location: 2972856 - 2973651" locus_tag="JNAJGP_13960" class="clusterblast-orf" id="dummy-6_q13_0_all"  />
<polygon points="650,35 655,30 712,30 712,40 655,40 650,35 " style="fill:#a1d815; stroke-width:1; stroke:black; " description="&lt;b&gt;JNAJGP_13965&lt;/b&gt;&lt;br&gt;Monoamine oxidase&lt;br&gt;Location: 2973662 - 2975366" locus_tag="JNAJGP_13965" class="clusterblast-orf" id="dummy-6_q14_0_all"  />
<polygon points="717,35 722,30 733,30 733,40 722,40 717,35 " style="fill:#15d8d8; stroke-width:1; stroke:black; " description="&lt;b&gt;JNAJGP_13970&lt;/b&gt;&lt;br&gt;DNA-binding transcriptional regulator, Lrp family&lt;br&gt;Location: 2975511 - 2975958" locus_tag="JNAJGP_13970" class="clusterblast-orf" id="dummy-6_q15_0_all"  />
</g>
<g label="NZ_AP025169" description="NZ_AP025169 (6305813-6327961): Pseudomonas sp. CYM-20-01 chromosome, complete... (76% of genes show similarity), redox-cofactor" class="clusterblast-cluster"  >
<text x="5" y="70" class="clusterblast-acc"  >
<a xlink:href="https://antismash-db.secondarymetabolites.org/area?record=NZ_AP025169&amp;start=6305813&amp;end=6327961" target="_blank">NZ_AP025169 (6305813-6327961)</a>: Pseudomonas sp. CYM-20-01 chromosome, complete... (76% of genes show similarity), redox-cofactor</text>
<line x1="10" y1="85" x2="778.0" y2="85" style="stroke-width:1; stroke:grey; "  />
</g>
<g id="a6_000"  >
<polygon points="0,90 60,90 65,85 60,80 0,80 0,90 " style="fill:#d81515; stroke-width:1; stroke:black; " description="&lt;b&gt;M2497_RS28920&lt;/b&gt;&lt;br&gt;phenylacyl-CoA dehydrogenase&lt;br&gt;Location: 6327959 - 6326154&lt;br&gt;&lt;br&gt;&lt;b&gt;BlastP hit with JNAJGP_13890&lt;/b&gt;&lt;br&gt;Percentage identity: 98&lt;br&gt;Percentage coverage: 100&lt;br&gt;BLAST bit score: 1192&lt;br&gt;E-value: 0.0&lt;br&gt;&lt;br&gt;&lt;b&gt;BlastP hit with JNAJGP_13900&lt;/b&gt;&lt;br&gt;Percentage identity: 65&lt;br&gt;Percentage coverage: 102&lt;br&gt;BLAST bit score: 783&lt;br&gt;E-value: 7.19e-281&lt;br&gt;&lt;br&gt;&lt;b&gt;BlastP hit with JNAJGP_13905&lt;/b&gt;&lt;br&gt;Percentage identity: 54&lt;br&gt;Percentage coverage: 101&lt;br&gt;BLAST bit score: 619&lt;br&gt;E-value: 3.59e-216" locus_tag="M2497_RS28920" class="clusterblast-orf" id="dummy-6_h6_10_0"  />
</g>
<g id="a6_001"  >
<polygon points="73,90 115,90 120,85 115,80 73,80 73,90 " style="fill:#4dd815; stroke-width:1; stroke:black; " description="&lt;b&gt;M2497_RS28915&lt;/b&gt;&lt;br&gt;GGDEF domain-containing protein&lt;br&gt;Location: 6325947 - 6324658&lt;br&gt;&lt;br&gt;&lt;b&gt;BlastP hit with JNAJGP_13895&lt;/b&gt;&lt;br&gt;Percentage identity: 91&lt;br&gt;Percentage coverage: 100&lt;br&gt;BLAST bit score: 771&lt;br&gt;E-value: 1.84e-281" locus_tag="M2497_RS28915" class="clusterblast-orf" id="dummy-6_h6_10_1"  />
</g>
<g id="a6_002"  >
<polygon points="123,90 182,90 187,85 182,80 123,80 123,90 " style="fill:#d81515; stroke-width:1; stroke:black; " description="&lt;b&gt;M2497_RS28910&lt;/b&gt;&lt;br&gt;acyl-CoA dehydrogenase C-terminal domain-containing protein&lt;br&gt;Location: 6324567 - 6322798&lt;br&gt;&lt;br&gt;&lt;b&gt;BlastP hit with JNAJGP_13890&lt;/b&gt;&lt;br&gt;Percentage identity: 66&lt;br&gt;Percentage coverage: 99&lt;br&gt;BLAST bit score: 790&lt;br&gt;E-value: 1.91e-283&lt;br&gt;&lt;br&gt;&lt;b&gt;BlastP hit with JNAJGP_13900&lt;/b&gt;&lt;br&gt;Percentage identity: 94&lt;br&gt;Percentage coverage: 100&lt;br&gt;BLAST bit score: 1132&lt;br&gt;E-value: 0.0&lt;br&gt;&lt;br&gt;&lt;b&gt;BlastP hit with JNAJGP_13905&lt;/b&gt;&lt;br&gt;Percentage identity: 57&lt;br&gt;Percentage coverage: 101&lt;br&gt;BLAST bit score: 644&lt;br&gt;E-value: 4.73e-226" locus_tag="M2497_RS28910" class="clusterblast-orf" id="dummy-6_h6_10_2"  />
</g>
<g id="a6_003"  >
<polygon points="192,90 251,90 256,85 251,80 192,80 192,90 " style="fill:#d81515; stroke-width:1; stroke:black; " description="&lt;b&gt;M2497_RS28905&lt;/b&gt;&lt;br&gt;acyl-CoA dehydrogenase C-terminal domain-containing protein&lt;br&gt;Location: 6322674 - 6320896&lt;br&gt;&lt;br&gt;&lt;b&gt;BlastP hit with JNAJGP_13890&lt;/b&gt;&lt;br&gt;Percentage identity: 53&lt;br&gt;Percentage coverage: 100&lt;br&gt;BLAST bit score: 619&lt;br&gt;E-value: 5.17e-216&lt;br&gt;&lt;br&gt;&lt;b&gt;BlastP hit with JNAJGP_13900&lt;/b&gt;&lt;br&gt;Percentage identity: 57&lt;br&gt;Percentage coverage: 100&lt;br&gt;BLAST bit score: 636&lt;br&gt;E-value: 3.57e-223&lt;br&gt;&lt;br&gt;&lt;b&gt;BlastP hit with JNAJGP_13905&lt;/b&gt;&lt;br&gt;Percentage identity: 96&lt;br&gt;Percentage coverage: 100&lt;br&gt;BLAST bit score: 1124&lt;br&gt;E-value: 0.0" locus_tag="M2497_RS28905" class="clusterblast-orf" id="dummy-6_h6_10_3"  />
</g>
<g id="a6_004"  >
<polygon points="265,85 270,80 297,80 297,90 270,90 265,85 " style="fill:#1585d8; stroke-width:1; stroke:black; " description="&lt;b&gt;M2497_RS28900&lt;/b&gt;&lt;br&gt;LysR family transcriptional regulator&lt;br&gt;Location: 6320669 - 6319770&lt;br&gt;&lt;br&gt;&lt;b&gt;BlastP hit with JNAJGP_13915&lt;/b&gt;&lt;br&gt;Percentage identity: 97&lt;br&gt;Percentage coverage: 100&lt;br&gt;BLAST bit score: 563&lt;br&gt;E-value: 7.22e-204" locus_tag="M2497_RS28900" class="clusterblast-orf" id="dummy-6_h6_10_4"  />
</g>
<g id="a6_005"  >
<polygon points="305,90 346,90 351,85 346,80 305,80 305,90 " style="fill:#a115d8; stroke-width:1; stroke:black; " description="&lt;b&gt;M2497_RS28895&lt;/b&gt;&lt;br&gt;aminotransferase class III-fold pyridoxal phosphate-dependent enzyme&lt;br&gt;Location: 6319560 - 6318298&lt;br&gt;&lt;br&gt;&lt;b&gt;BlastP hit with JNAJGP_13920&lt;/b&gt;&lt;br&gt;Percentage identity: 88&lt;br&gt;Percentage coverage: 100&lt;br&gt;BLAST bit score: 729&lt;br&gt;E-value: 3.56e-265" locus_tag="M2497_RS28895" class="clusterblast-orf" id="dummy-6_h6_10_5"  />
</g>
<g id="a6_006"  >
<polygon points="357,90 358,90 363,85 358,80 357,80 357,90 " style="fill:#d86915; stroke-width:1; stroke:black; " description="&lt;b&gt;M2497_RS28890&lt;/b&gt;&lt;br&gt;YqaE/Pmp3 family membrane protein&lt;br&gt;Location: 6318125 - 6317967&lt;br&gt;&lt;br&gt;&lt;b&gt;BlastP hit with JNAJGP_13925&lt;/b&gt;&lt;br&gt;Percentage identity: 96&lt;br&gt;Percentage coverage: 100&lt;br&gt;BLAST bit score: 101&lt;br&gt;E-value: 6.84e-29" locus_tag="M2497_RS28890" class="clusterblast-orf" id="dummy-6_h6_10_6"  />
</g>
<g id="a6_007"  >
<polygon points="363,85 368,80 405,80 405,90 368,90 363,85 " style="fill:#15d831; stroke-width:1; stroke:black; " description="&lt;b&gt;M2497_RS28885&lt;/b&gt;&lt;br&gt;pyrroloquinoline quinone biosynthesis protein PqqE&lt;br&gt;Location: 6317961 - 6316810&lt;br&gt;&lt;br&gt;&lt;b&gt;BlastP hit with JNAJGP_13930&lt;/b&gt;&lt;br&gt;Percentage identity: 97&lt;br&gt;Percentage coverage: 100&lt;br&gt;BLAST bit score: 775&lt;br&gt;E-value: 7.27e-285" locus_tag="M2497_RS28885" class="clusterblast-orf" id="dummy-6_h6_10_7"  />
</g>
<g id="a6_008"  >
<polygon points="404,85 409,80 414,80 414,90 409,90 404,85 " style="fill:#1531d8; stroke-width:1; stroke:black; " description="&lt;b&gt;M2497_RS28880&lt;/b&gt;&lt;br&gt;pyrroloquinoline quinone biosynthesis peptide chaperone PqqD&lt;br&gt;Location: 6316838 - 6316563&lt;br&gt;&lt;br&gt;&lt;b&gt;BlastP hit with JNAJGP_13935&lt;/b&gt;&lt;br&gt;Percentage identity: 93&lt;br&gt;Percentage coverage: 100&lt;br&gt;BLAST bit score: 177&lt;br&gt;E-value: 1.27e-57" locus_tag="M2497_RS28880" class="clusterblast-orf" id="dummy-6_h6_10_8"  />
</g>
<g id="a6_009"  >
<polygon points="414,85 419,80 441,80 441,90 419,90 414,85 " style="fill:#d815bc; stroke-width:1; stroke:black; " description="&lt;b&gt;M2497_RS28875&lt;/b&gt;&lt;br&gt;pyrroloquinoline-quinone synthase PqqC&lt;br&gt;Location: 6316566 - 6315814&lt;br&gt;&lt;br&gt;&lt;b&gt;BlastP hit with JNAJGP_13940&lt;/b&gt;&lt;br&gt;Percentage identity: 98&lt;br&gt;Percentage coverage: 100&lt;br&gt;BLAST bit score: 515&lt;br&gt;E-value: 2.63e-186" locus_tag="M2497_RS28875" class="clusterblast-orf" id="dummy-6_h6_10_9"  />
</g>
<g id="a6_0010"  >
<polygon points="441,85 446,80 475,80 475,90 446,90 441,85 " style="fill:#d8bc15; stroke-width:1; stroke:black; " description="&lt;b&gt;M2497_RS28870&lt;/b&gt;&lt;br&gt;pyrroloquinoline quinone biosynthesis protein PqqB&lt;br&gt;Location: 6315802 - 6314891&lt;br&gt;&lt;br&gt;&lt;b&gt;BlastP hit with JNAJGP_13945&lt;/b&gt;&lt;br&gt;Percentage identity: 99&lt;br&gt;Percentage coverage: 100&lt;br&gt;BLAST bit score: 627&lt;br&gt;E-value: 4.87e-229" locus_tag="M2497_RS28870" class="clusterblast-orf" id="dummy-6_h6_10_10"  />
</g>
<g id="a6_0011"  >
<polygon points="477,85 480,80 480,90 477,85 " style="fill:#15d885; stroke-width:1; stroke:black; " description="&lt;b&gt;M2497_RS28865&lt;/b&gt;&lt;br&gt;pyrroloquinoline quinone precursor peptide PqqA&lt;br&gt;Location: 6314824 - 6314750&lt;br&gt;&lt;br&gt;&lt;b&gt;BlastP hit with JNAJGP_13950&lt;/b&gt;&lt;br&gt;Percentage identity: 100&lt;br&gt;Percentage coverage: 100&lt;br&gt;BLAST bit score: 55&lt;br&gt;E-value: 3.69e-11" locus_tag="M2497_RS28865" class="clusterblast-orf" id="dummy-6_h6_10_11"  />
</g>
<g id="a6_0012"  >
<polygon points="486,85 491,80 571,80 571,90 491,90 486,85 " style="fill:#4d15d8; stroke-width:1; stroke:black; " description="&lt;b&gt;M2497_RS28860&lt;/b&gt;&lt;br&gt;pyrroloquinoline quinone biosynthesis protein PqqF&lt;br&gt;Location: 6314590 - 6312242&lt;br&gt;&lt;br&gt;&lt;b&gt;BlastP hit with JNAJGP_13955&lt;/b&gt;&lt;br&gt;Percentage identity: 75&lt;br&gt;Percentage coverage: 100&lt;br&gt;BLAST bit score: 1155&lt;br&gt;E-value: 0.0" locus_tag="M2497_RS28860" class="clusterblast-orf" id="dummy-6_h6_10_12"  />
</g>
<g id="a6_0013"  >
<polygon points="573,85 578,80 602,80 602,90 578,90 573,85 " style="fill:#d81569; stroke-width:1; stroke:black; " description="&lt;b&gt;M2497_RS28855&lt;/b&gt;&lt;br&gt;carbon-nitrogen hydrolase family protein&lt;br&gt;Location: 6312193 - 6311399&lt;br&gt;&lt;br&gt;&lt;b&gt;BlastP hit with JNAJGP_13960&lt;/b&gt;&lt;br&gt;Percentage identity: 92&lt;br&gt;Percentage coverage: 100&lt;br&gt;BLAST bit score: 493&lt;br&gt;E-value: 2.67e-177" locus_tag="M2497_RS28855" class="clusterblast-orf" id="dummy-6_h6_10_13"  />
</g>
<g id="a6_0014"  >
<polygon points="602,85 607,80 663,80 663,90 607,90 602,85 " style="fill:#a1d815; stroke-width:1; stroke:black; " description="&lt;b&gt;M2497_RS28850&lt;/b&gt;&lt;br&gt;FAD-dependent oxidoreductase&lt;br&gt;Location: 6311388 - 6309697&lt;br&gt;&lt;br&gt;&lt;b&gt;BlastP hit with JNAJGP_13965&lt;/b&gt;&lt;br&gt;Percentage identity: 97&lt;br&gt;Percentage coverage: 99&lt;br&gt;BLAST bit score: 1127&lt;br&gt;E-value: 0.0" locus_tag="M2497_RS28850" class="clusterblast-orf" id="dummy-6_h6_10_14"  />
</g>
<g id="a6_0015"  >
<polygon points="669,85 674,80 685,80 685,90 674,90 669,85 " style="fill:#15d8d8; stroke-width:1; stroke:black; " description="&lt;b&gt;M2497_RS28845&lt;/b&gt;&lt;br&gt;Lrp/AsnC family transcriptional regulator&lt;br&gt;Location: 6309550 - 6309104&lt;br&gt;&lt;br&gt;&lt;b&gt;BlastP hit with JNAJGP_13970&lt;/b&gt;&lt;br&gt;Percentage identity: 99&lt;br&gt;Percentage coverage: 100&lt;br&gt;BLAST bit score: 276&lt;br&gt;E-value: 2.65e-95" locus_tag="M2497_RS28845" class="clusterblast-orf" id="dummy-6_h6_10_15"  />
</g>
<g id="a6_0016"  >
<polygon points="686,85 691,80 718,80 718,90 691,90 686,85 " style="fill:white; stroke-width:1; stroke:black; " description="&lt;b&gt;M2497_RS28840&lt;/b&gt;&lt;br&gt;LysR family transcriptional regulator&lt;br&gt;Location: 6309064 - 6308195" locus_tag="M2497_RS28840" class="clusterblast-orf" id="dummy-6_h6_10_16"  />
</g>
<g id="a6_0017"  >
<polygon points="722,90 733,90 738,85 733,80 722,80 722,90 " style="fill:white; stroke-width:1; stroke:black; " description="&lt;b&gt;M2497_RS28835&lt;/b&gt;&lt;br&gt;VOC family protein&lt;br&gt;Location: 6308082 - 6307657" locus_tag="M2497_RS28835" class="clusterblast-orf" id="dummy-6_h6_10_17"  />
</g>
<g id="a6_0018"  >
<polygon points="740,90 744,90 749,85 744,80 740,80 740,90 " style="fill:white; stroke-width:1; stroke:black; " description="&lt;b&gt;M2497_RS28830&lt;/b&gt;&lt;br&gt;DUF4160 domain-containing protein&lt;br&gt;Location: 6307576 - 6307346" locus_tag="M2497_RS28830" class="clusterblast-orf" id="dummy-6_h6_10_18"  />
</g>
<g id="a6_0019"  >
<polygon points="748,90 760,90 765,85 760,80 748,80 748,90 " style="fill:white; stroke-width:1; stroke:black; " description="&lt;b&gt;M2497_RS28825&lt;/b&gt;&lt;br&gt;DUF2442 domain-containing protein&lt;br&gt;Location: 6307358 - 6306894" locus_tag="M2497_RS28825" class="clusterblast-orf" id="dummy-6_h6_10_19"  />
</g>
<g id="a6_0020"  >
<polygon points="774,90 775,90 780,85 775,80 774,80 774,90 " style="fill:white; stroke-width:1; stroke:black; " description="&lt;b&gt;M2497_RS28820&lt;/b&gt;&lt;br&gt;phage portal protein&lt;br&gt;Location: 6306658 - 6306503" locus_tag="M2497_RS28820" class="clusterblast-orf" id="dummy-6_h6_10_20"  />
</g>
</svg>
