<svg xmlns="http://www.w3.org/2000/svg" xmlns:xlink="http://www.w3.org/1999/xlink" version="1.1" x="0" y="0" height="230" width="800" viewBox="0 0 800 230" preserveAspectRatio="none"  >
<g label="Query sequence" class="clusterblast-cluster"  >
<text x="5" y="20" class="clusterblast-acc"  >
Query sequence</text>
<line x1="10" y1="35" x2="778.0" y2="35" style="stroke-width:1; stroke:grey; "  />
<polygon points="13,40 44,40 49,35 44,30 13,30 13,40 " style="fill:#d81515; stroke-width:1; stroke:black; " description="&lt;b&gt;JNAJGP_24070&lt;/b&gt;&lt;br&gt;phage tail protein&lt;br&gt;Location: 5054663 - 5058125" locus_tag="JNAJGP_24070" class="clusterblast-orf" id="dummy-9_q0_0_all"  />
<polygon points="52,40 54,40 59,35 54,30 52,30 52,40 " style="fill:#5cd815; stroke-width:1; stroke:black; " description="&lt;b&gt;JNAJGP_24075&lt;/b&gt;&lt;br&gt;Phage tail protein&lt;br&gt;Location: 5058471 - 5059101" locus_tag="JNAJGP_24075" class="clusterblast-orf" id="dummy-9_q1_0_all"  />
<polygon points="59,40 62,40 67,35 62,30 59,30 59,40 " style="fill:#15c7d8; stroke-width:1; stroke:black; " description="&lt;b&gt;JNAJGP_24080&lt;/b&gt;&lt;br&gt;Phage tail protein&lt;br&gt;Location: 5059159 - 5059927" locus_tag="JNAJGP_24080" class="clusterblast-orf" id="dummy-9_q2_0_all"  />
<polygon points="67,40 70,35 67,30 67,40 " style="fill:white; stroke-width:1; stroke:black; " description="&lt;b&gt;JNAJGP_24085&lt;/b&gt;&lt;br&gt;hypothetical protein&lt;br&gt;Location: 5059926 - 5060217" locus_tag="JNAJGP_24085" class="clusterblast-orf" id="dummy-9_q3_0_all"  />
<polygon points="70,40 73,35 70,30 70,40 " style="fill:white; stroke-width:1; stroke:black; " description="&lt;b&gt;JNAJGP_24090&lt;/b&gt;&lt;br&gt;Phage tail protein&lt;br&gt;Location: 5060213 - 5060465" locus_tag="JNAJGP_24090" class="clusterblast-orf" id="dummy-9_q4_0_all"  />
<polygon points="73,40 74,40 79,35 74,30 73,30 73,40 " style="fill:#8015d8; stroke-width:1; stroke:black; " description="&lt;b&gt;JNAJGP_24095&lt;/b&gt;&lt;br&gt;Chitinase&lt;br&gt;Location: 5060520 - 5061054" locus_tag="JNAJGP_24095" class="clusterblast-orf" id="dummy-9_q5_0_all"  />
<polygon points="79,40 80,40 85,35 80,30 79,30 79,40 " style="fill:#d83915; stroke-width:1; stroke:black; " description="&lt;b&gt;JNAJGP_24100&lt;/b&gt;&lt;br&gt;Lysozyme&lt;br&gt;Location: 5061050 - 5061620" locus_tag="JNAJGP_24100" class="clusterblast-orf" id="dummy-9_q6_0_all"  />
<polygon points="84,35 87,30 87,40 84,35 " style="fill:white; stroke-width:1; stroke:black; " description="&lt;b&gt;JNAJGP_24105&lt;/b&gt;&lt;br&gt;NIPSNAP domain-containing protein&lt;br&gt;Location: 5061579 - 5061843" locus_tag="JNAJGP_24105" class="clusterblast-orf" id="dummy-9_q7_0_all"  />
<polygon points="88,35 92,30 92,40 88,35 " style="fill:#39d815; stroke-width:1; stroke:black; " description="&lt;b&gt;JNAJGP_24110&lt;/b&gt;&lt;br&gt;Lipoprotein&lt;br&gt;Location: 5061930 - 5062311" locus_tag="JNAJGP_24110" class="clusterblast-orf" id="dummy-9_q8_0_all"  />
<polygon points="96,40 101,40 106,35 101,30 96,30 96,40 " style="fill:#15a3d8; stroke-width:1; stroke:black; " description="&lt;b&gt;JNAJGP_24120&lt;/b&gt;&lt;br&gt;LysR family transcriptional regulator&lt;br&gt;Location: 5062760 - 5063663" locus_tag="JNAJGP_24120" class="clusterblast-orf" id="dummy-9_q9_0_all"  />
<polygon points="106,35 111,30 116,30 116,40 111,40 106,35 " style="fill:#a315d8; stroke-width:1; stroke:black; " description="&lt;b&gt;JNAJGP_24125&lt;/b&gt;&lt;br&gt;Cupin&lt;br&gt;Location: 5063700 - 5064642" locus_tag="JNAJGP_24125" class="clusterblast-orf" id="dummy-9_q10_0_all"  />
<polygon points="118,35 121,30 121,40 118,35 " style="fill:#d85c15; stroke-width:1; stroke:black; " description="&lt;b&gt;JNAJGP_24130&lt;/b&gt;&lt;br&gt;hypothetical protein&lt;br&gt;Location: 5064843 - 5065122" locus_tag="JNAJGP_24130" class="clusterblast-orf" id="dummy-9_q11_0_all"  />
<polygon points="123,35 128,30 145,30 145,40 128,40 123,35 " style="fill:#15d815; stroke-width:1; stroke:black; " description="&lt;b&gt;JNAJGP_24135&lt;/b&gt;&lt;br&gt;Ferric siderophore receptor&lt;br&gt;Location: 5065316 - 5067488" locus_tag="JNAJGP_24135" class="clusterblast-orf" id="dummy-9_q12_0_all"  />
<polygon points="146,35 151,30 157,30 157,40 151,40 146,35 " style="fill:#1580d8; stroke-width:1; stroke:black; " description="&lt;b&gt;JNAJGP_24140&lt;/b&gt;&lt;br&gt;Acyltransferase MbtK/IucB-like conserved domain-containing protein&lt;br&gt;Location: 5067586 - 5068606" locus_tag="JNAJGP_24140" class="clusterblast-orf" id="dummy-9_q13_0_all"  />
<polygon points="158,35 163,30 179,30 179,40 163,40 158,35 " style="fill:#c715d8; stroke-width:1; stroke:black; " description="&lt;b&gt;JNAJGP_24145&lt;/b&gt;&lt;br&gt;Fe(3+)-hydroxamate ABC transporter permease FhuB&lt;br&gt;Location: 5068765 - 5070754" locus_tag="JNAJGP_24145" class="clusterblast-orf" id="dummy-9_q14_0_all"  />
<polygon points="179,35 184,30 188,30 188,40 184,40 179,35 " style="fill:#d88015; stroke-width:1; stroke:black; " description="&lt;b&gt;JNAJGP_24150&lt;/b&gt;&lt;br&gt;Periplasmic binding protein&lt;br&gt;Location: 5070746 - 5071658" locus_tag="JNAJGP_24150" class="clusterblast-orf" id="dummy-9_q15_0_all"  />
<polygon points="190,40 202,40 207,35 202,30 190,30 190,40 " style="fill:#15d839; stroke-width:1; stroke:black; " description="&lt;b&gt;JNAJGP_24155&lt;/b&gt;&lt;br&gt;Putative ATP-binding cassette transporter&lt;br&gt;Location: 5071857 - 5073504" locus_tag="JNAJGP_24155" class="clusterblast-orf" id="dummy-9_q16_0_all"  />
<polygon points="209,40 212,40 217,35 212,30 209,30 209,40 " style="fill:#155cd8; stroke-width:1; stroke:black; " description="&lt;b&gt;JNAJGP_24160&lt;/b&gt;&lt;br&gt;Thioesterase&lt;br&gt;Location: 5073678 - 5074422" locus_tag="JNAJGP_24160" class="clusterblast-orf" id="dummy-9_q17_0_all"  />
<polygon points="217,40 222,40 227,35 222,30 217,30 217,40 " style="fill:#d815c7; stroke-width:1; stroke:black; " description="&lt;b&gt;JNAJGP_24165&lt;/b&gt;&lt;br&gt;TauD/TfdA-like domain-containing protein&lt;br&gt;Location: 5074461 - 5075442" locus_tag="JNAJGP_24165" class="clusterblast-orf" id="dummy-9_q18_0_all"  />
<polygon points="228,40 269,40 274,35 269,30 228,30 228,40 " style="fill:#d815c7; stroke-width:1; stroke:black; " description="&lt;b&gt;JNAJGP_24170&lt;/b&gt;&lt;br&gt;Non ribosomal peptide synthase&lt;br&gt;Location: 5075492 - 5079956" locus_tag="JNAJGP_24170" class="clusterblast-orf" id="dummy-9_q19_0_all"  />
<polygon points="274,40 301,40 306,35 301,30 274,30 274,40 " style="fill:#d815c7; stroke-width:1; stroke:black; " description="&lt;b&gt;JNAJGP_24175&lt;/b&gt;&lt;br&gt;Amino acid adenylation&lt;br&gt;Location: 5079967 - 5083114" locus_tag="JNAJGP_24175" class="clusterblast-orf" id="dummy-9_q20_0_all"  />
<polygon points="307,40 381,40 386,35 381,30 307,30 307,40 " style="fill:#d815c7; stroke-width:1; stroke:black; " description="&lt;b&gt;JNAJGP_24180&lt;/b&gt;&lt;br&gt;Carrier domain-containing protein&lt;br&gt;Location: 5083162 - 5090896" locus_tag="JNAJGP_24180" class="clusterblast-orf" id="dummy-9_q21_0_all"  />
<polygon points="386,40 508,40 513,35 508,30 386,30 386,40 " style="fill:#d815c7; stroke-width:1; stroke:black; " description="&lt;b&gt;JNAJGP_24185&lt;/b&gt;&lt;br&gt;non-ribosomal peptide synthetase&lt;br&gt;Location: 5090892 - 5103210" locus_tag="JNAJGP_24185" class="clusterblast-orf" id="dummy-9_q22_0_all"  />
<polygon points="513,40 550,40 555,35 550,30 513,30 513,40 " style="fill:#d815c7; stroke-width:1; stroke:black; " description="&lt;b&gt;JNAJGP_24190&lt;/b&gt;&lt;br&gt;Non-ribosomal peptide synthetase&lt;br&gt;Location: 5103211 - 5107270" locus_tag="JNAJGP_24190" class="clusterblast-orf" id="dummy-9_q23_0_all"  />
<polygon points="556,40 565,40 570,35 565,30 556,30 556,40 " style="fill:#d8a315; stroke-width:1; stroke:black; " description="&lt;b&gt;JNAJGP_24195&lt;/b&gt;&lt;br&gt;L-ornithine 5-monooxygenase&lt;br&gt;Location: 5107342 - 5108698" locus_tag="JNAJGP_24195" class="clusterblast-orf" id="dummy-9_q24_0_all"  />
<polygon points="571,40 573,40 578,35 573,30 571,30 571,40 " style="fill:#15d85c; stroke-width:1; stroke:black; " description="&lt;b&gt;JNAJGP_24200&lt;/b&gt;&lt;br&gt;siderophore-iron reductase FhuF&lt;br&gt;Location: 5108789 - 5109545" locus_tag="JNAJGP_24200" class="clusterblast-orf" id="dummy-9_q25_0_all"  />
<polygon points="579,35 584,30 587,30 587,40 584,40 579,35 " style="fill:#1539d8; stroke-width:1; stroke:black; " description="&lt;b&gt;JNAJGP_24205&lt;/b&gt;&lt;br&gt;Iron-hydroxamate transporter ATP-binding subunit&lt;br&gt;Location: 5109585 - 5110353" locus_tag="JNAJGP_24205" class="clusterblast-orf" id="dummy-9_q26_0_all"  />
<polygon points="589,35 591,30 591,40 589,35 " style="fill:white; stroke-width:1; stroke:black; " description="&lt;b&gt;JNAJGP_24210&lt;/b&gt;&lt;br&gt;hypothetical protein&lt;br&gt;Location: 5110578 - 5110803" locus_tag="JNAJGP_24210" class="clusterblast-orf" id="dummy-9_q27_0_all"  />
<polygon points="593,40 595,40 600,35 595,30 593,30 593,40 " style="fill:#d815a3; stroke-width:1; stroke:black; " description="&lt;b&gt;JNAJGP_24215&lt;/b&gt;&lt;br&gt;Lipoprotein&lt;br&gt;Location: 5110983 - 5111682" locus_tag="JNAJGP_24215" class="clusterblast-orf" id="dummy-9_q28_0_all"  />
<polygon points="602,40 605,35 602,30 602,40 " style="fill:#d8c715; stroke-width:1; stroke:black; " description="&lt;b&gt;JNAJGP_24220&lt;/b&gt;&lt;br&gt;EAL domain-containing protein&lt;br&gt;Location: 5111807 - 5112086" locus_tag="JNAJGP_24220" class="clusterblast-orf" id="dummy-9_q29_0_all"  />
<polygon points="606,40 614,40 619,35 614,30 606,30 606,40 " style="fill:#15d880; stroke-width:1; stroke:black; " description="&lt;b&gt;JNAJGP_24225&lt;/b&gt;&lt;br&gt;Methyl-accepting chemotaxis protein (2 PAS,MCP domains)&lt;br&gt;Location: 5112170 - 5113484" locus_tag="JNAJGP_24225" class="clusterblast-orf" id="dummy-9_q30_0_all"  />
<polygon points="621,40 638,40 643,35 638,30 621,30 621,40 " style="fill:#1515d8; stroke-width:1; stroke:black; " description="&lt;b&gt;JNAJGP_24230&lt;/b&gt;&lt;br&gt;Outer membrane siderophore receptor&lt;br&gt;Location: 5113706 - 5115821" locus_tag="JNAJGP_24230" class="clusterblast-orf" id="dummy-9_q31_0_all"  />
<polygon points="643,35 648,30 662,30 662,40 648,40 643,35 " style="fill:#d81580; stroke-width:1; stroke:black; " description="&lt;b&gt;JNAJGP_24235&lt;/b&gt;&lt;br&gt;Sigma-54 factor interaction domain-containing protein&lt;br&gt;Location: 5115830 - 5117648" locus_tag="JNAJGP_24235" class="clusterblast-orf" id="dummy-9_q32_0_all"  />
<polygon points="665,40 671,40 676,35 671,30 665,30 665,40 " style="fill:#c7d815; stroke-width:1; stroke:black; " description="&lt;b&gt;JNAJGP_24240&lt;/b&gt;&lt;br&gt;sn-glycerol-3-phosphate import ATP-binding protein UgpC&lt;br&gt;Location: 5117939 - 5119034" locus_tag="JNAJGP_24240" class="clusterblast-orf" id="dummy-9_q33_0_all"  />
<polygon points="676,40 683,40 688,35 683,30 676,30 676,40 " style="fill:#15d8a3; stroke-width:1; stroke:black; " description="&lt;b&gt;JNAJGP_24245&lt;/b&gt;&lt;br&gt;ABC transporter ATP-binding protein&lt;br&gt;Location: 5119033 - 5120131" locus_tag="JNAJGP_24245" class="clusterblast-orf" id="dummy-9_q34_0_all"  />
<polygon points="687,40 691,40 696,35 691,30 687,30 687,40 " style="fill:#3915d8; stroke-width:1; stroke:black; " description="&lt;b&gt;JNAJGP_24250&lt;/b&gt;&lt;br&gt;ABC-type sugar transport system, permease component&lt;br&gt;Location: 5120127 - 5120994" locus_tag="JNAJGP_24250" class="clusterblast-orf" id="dummy-9_q35_0_all"  />
<polygon points="697,40 700,40 705,35 700,30 697,30 697,40 " style="fill:#d8155c; stroke-width:1; stroke:black; " description="&lt;b&gt;JNAJGP_24255&lt;/b&gt;&lt;br&gt;ABC-type glycerol-3-phosphate transport system, permease component&lt;br&gt;Location: 5121004 - 5121805" locus_tag="JNAJGP_24255" class="clusterblast-orf" id="dummy-9_q36_0_all"  />
<polygon points="705,40 708,35 705,30 705,40 " style="fill:#a3d815; stroke-width:1; stroke:black; " description="&lt;b&gt;JNAJGP_24260&lt;/b&gt;&lt;br&gt;Small integral membrane protein&lt;br&gt;Location: 5121815 - 5122088" locus_tag="JNAJGP_24260" class="clusterblast-orf" id="dummy-9_q37_0_all"  />
<polygon points="708,40 721,40 726,35 721,30 708,30 708,40 " style="fill:#15d8c7; stroke-width:1; stroke:black; " description="&lt;b&gt;JNAJGP_24265&lt;/b&gt;&lt;br&gt;ABC transporter substrate-binding protein&lt;br&gt;Location: 5122120 - 5123863" locus_tag="JNAJGP_24265" class="clusterblast-orf" id="dummy-9_q38_0_all"  />
<polygon points="730,40 740,40 745,35 740,30 730,30 730,40 " style="fill:#5c15d8; stroke-width:1; stroke:black; " description="&lt;b&gt;JNAJGP_24270&lt;/b&gt;&lt;br&gt;Iron-containing redox enzyme family protein&lt;br&gt;Location: 5124300 - 5125680" locus_tag="JNAJGP_24270" class="clusterblast-orf" id="dummy-9_q39_0_all"  />
<polygon points="745,40 750,40 755,35 750,30 745,30 745,40 " style="fill:#d81539; stroke-width:1; stroke:black; " description="&lt;b&gt;JNAJGP_24275&lt;/b&gt;&lt;br&gt;Release factor glutamine methyltransferase&lt;br&gt;Location: 5125690 - 5126635" locus_tag="JNAJGP_24275" class="clusterblast-orf" id="dummy-9_q40_0_all"  />
<polygon points="755,40 761,40 766,35 761,30 755,30 755,40 " style="fill:#80d815; stroke-width:1; stroke:black; " description="&lt;b&gt;JNAJGP_24280&lt;/b&gt;&lt;br&gt;carboxylate-amine ligase&lt;br&gt;Location: 5126641 - 5127760" locus_tag="JNAJGP_24280" class="clusterblast-orf" id="dummy-9_q41_0_all"  />
</g>
<g label="NZ_CP081201" description="NZ_CP081201 (1934388-2011023): Pseudomonas phytophila strain ICMP 23753 chrom... (28% of genes show similarity), NRP-metallophore,NRPS" class="clusterblast-cluster"  >
<text x="5" y="70" class="clusterblast-acc"  >
<a xlink:href="https://antismash-db.secondarymetabolites.org/area?record=NZ_CP081201&amp;start=1934388&amp;end=2011023" target="_blank">NZ_CP081201 (1934388-2011023)</a>: Pseudomonas phytophila strain ICMP 23753 chrom... (28% of genes show similarity), NRP-metallophore,NRPS</text>
<line x1="10" y1="85" x2="778.0" y2="85" style="stroke-width:1; stroke:grey; "  />
</g>
<g id="a9_000"  >
<polygon points="0,90 14,90 19,85 14,80 0,80 0,90 " style="fill:#15d880; stroke-width:1; stroke:black; " description="&lt;b&gt;K3169_RS08700&lt;/b&gt;&lt;br&gt;methyl-accepting chemotaxis protein&lt;br&gt;Location: 1934991 - 1936871&lt;br&gt;&lt;br&gt;&lt;b&gt;BlastP hit with JNAJGP_24225&lt;/b&gt;&lt;br&gt;Percentage identity: 55&lt;br&gt;Percentage coverage: 19&lt;br&gt;BLAST bit score: 76&lt;br&gt;E-value: 1.77e-12" locus_tag="K3169_RS08700" class="clusterblast-orf" id="dummy-9_h9_10_0"  />
</g>
<g id="a9_001"  >
<polygon points="20,85 25,80 32,80 32,90 25,90 20,85 " style="fill:white; stroke-width:1; stroke:black; " description="&lt;b&gt;K3169_RS08705&lt;/b&gt;&lt;br&gt;FAD-dependent monooxygenase&lt;br&gt;Location: 1936970 - 1938151" locus_tag="K3169_RS08705" class="clusterblast-orf" id="dummy-9_h9_10_1"  />
</g>
<g id="a9_002"  >
<polygon points="33,85 38,80 38,80 38,90 38,90 33,85 " style="fill:white; stroke-width:1; stroke:black; " description="&lt;b&gt;K3169_RS08710&lt;/b&gt;&lt;br&gt;MarR family transcriptional regulator&lt;br&gt;Location: 1938222 - 1938758" locus_tag="K3169_RS08710" class="clusterblast-orf" id="dummy-9_h9_10_2"  />
</g>
<g id="a9_003"  >
<polygon points="41,90 49,90 54,85 49,80 41,80 41,90 " style="fill:white; stroke-width:1; stroke:black; " description="&lt;b&gt;K3169_RS08715&lt;/b&gt;&lt;br&gt;HAAAP family serine/threonine permease&lt;br&gt;Location: 1938993 - 1940270" locus_tag="K3169_RS08715" class="clusterblast-orf" id="dummy-9_h9_10_3"  />
</g>
<g id="a9_004"  >
<polygon points="56,85 60,80 60,90 56,85 " style="fill:white; stroke-width:1; stroke:black; " description="&lt;b&gt;K3169_RS08720&lt;/b&gt;&lt;br&gt;DUF411 domain-containing protein&lt;br&gt;Location: 1940446 - 1940895" locus_tag="K3169_RS08720" class="clusterblast-orf" id="dummy-9_h9_10_4"  />
</g>
<g id="a9_005"  >
<polygon points="62,85 67,80 79,80 79,90 67,90 62,85 " style="fill:white; stroke-width:1; stroke:black; " description="&lt;b&gt;K3169_RS08725&lt;/b&gt;&lt;br&gt;gamma-glutamyltransferase&lt;br&gt;Location: 1941087 - 1942682" locus_tag="K3169_RS08725" class="clusterblast-orf" id="dummy-9_h9_10_5"  />
</g>
<g id="a9_006"  >
<polygon points="79,85 84,80 88,80 88,90 84,90 79,85 " style="fill:white; stroke-width:1; stroke:black; " description="&lt;b&gt;K3169_RS08730&lt;/b&gt;&lt;br&gt;ABC transporter permease&lt;br&gt;Location: 1942715 - 1943587" locus_tag="K3169_RS08730" class="clusterblast-orf" id="dummy-9_h9_10_6"  />
</g>
<g id="a9_007"  >
<polygon points="88,85 93,80 98,80 98,90 93,90 88,85 " style="fill:white; stroke-width:1; stroke:black; " description="&lt;b&gt;K3169_RS08735&lt;/b&gt;&lt;br&gt;ABC transporter permease&lt;br&gt;Location: 1943587 - 1944531" locus_tag="K3169_RS08735" class="clusterblast-orf" id="dummy-9_h9_10_7"  />
</g>
<g id="a9_008"  >
<polygon points="98,85 103,80 114,80 114,90 103,90 98,85 " style="fill:white; stroke-width:1; stroke:black; " description="&lt;b&gt;K3169_RS08740&lt;/b&gt;&lt;br&gt;ABC transporter substrate-binding protein&lt;br&gt;Location: 1944560 - 1946062" locus_tag="K3169_RS08740" class="clusterblast-orf" id="dummy-9_h9_10_8"  />
</g>
<g id="a9_009"  >
<polygon points="114,85 119,80 125,80 125,90 119,90 114,85 " style="fill:white; stroke-width:1; stroke:black; " description="&lt;b&gt;K3169_RS08745&lt;/b&gt;&lt;br&gt;ATP-binding cassette domain-containing protein&lt;br&gt;Location: 1946059 - 1947192" locus_tag="K3169_RS08745" class="clusterblast-orf" id="dummy-9_h9_10_9"  />
</g>
<g id="a9_0010"  >
<polygon points="125,85 130,80 136,80 136,90 130,90 125,85 " style="fill:white; stroke-width:1; stroke:black; " description="&lt;b&gt;K3169_RS08750&lt;/b&gt;&lt;br&gt;ATP-binding cassette domain-containing protein&lt;br&gt;Location: 1947189 - 1948196" locus_tag="K3169_RS08750" class="clusterblast-orf" id="dummy-9_h9_10_10"  />
</g>
<g id="a9_0011"  >
<polygon points="136,85 141,80 143,80 143,90 141,90 136,85 " style="fill:white; stroke-width:1; stroke:black; " description="&lt;b&gt;K3169_RS08755&lt;/b&gt;&lt;br&gt;FCD domain-containing protein&lt;br&gt;Location: 1948193 - 1948930" locus_tag="K3169_RS08755" class="clusterblast-orf" id="dummy-9_h9_10_11"  />
</g>
<g id="a9_0012"  >
<polygon points="148,85 153,80 157,80 157,90 153,90 148,85 " style="fill:white; stroke-width:1; stroke:black; " description="&lt;b&gt;K3169_RS08760&lt;/b&gt;&lt;br&gt;bile acid:sodium symporter family protein&lt;br&gt;Location: 1949360 - 1950322" locus_tag="K3169_RS08760" class="clusterblast-orf" id="dummy-9_h9_10_12"  />
</g>
<g id="a9_0013"  >
<polygon points="159,85 164,80 168,80 168,90 164,90 159,85 " style="fill:white; stroke-width:1; stroke:black; " description="&lt;b&gt;K3169_RS08765&lt;/b&gt;&lt;br&gt;recombination-associated protein RdgC&lt;br&gt;Location: 1950469 - 1951389" locus_tag="K3169_RS08765" class="clusterblast-orf" id="dummy-9_h9_10_13"  />
</g>
<g id="a9_0014"  >
<polygon points="177,90 179,90 184,85 179,80 177,80 177,90 " style="fill:white; stroke-width:1; stroke:black; " description="&lt;b&gt;K3169_RS08780&lt;/b&gt;&lt;br&gt;hypothetical protein&lt;br&gt;Location: 1952209 - 1952934" locus_tag="K3169_RS08780" class="clusterblast-orf" id="dummy-9_h9_10_14"  />
</g>
<g id="a9_0015"  >
<polygon points="189,90 192,85 189,80 189,90 " style="fill:white; stroke-width:1; stroke:black; " description="&lt;b&gt;K3169_RS08785&lt;/b&gt;&lt;br&gt;MbtH family protein&lt;br&gt;Location: 1953418 - 1953636" locus_tag="K3169_RS08785" class="clusterblast-orf" id="dummy-9_h9_10_15"  />
</g>
<g id="a9_0016"  >
<polygon points="192,90 194,90 199,85 194,80 192,80 192,90 " style="fill:#155cd8; stroke-width:1; stroke:black; " description="&lt;b&gt;K3169_RS08790&lt;/b&gt;&lt;br&gt;alpha/beta fold hydrolase&lt;br&gt;Location: 1953640 - 1954374&lt;br&gt;&lt;br&gt;&lt;b&gt;BlastP hit with JNAJGP_24160&lt;/b&gt;&lt;br&gt;Percentage identity: 48&lt;br&gt;Percentage coverage: 94&lt;br&gt;BLAST bit score: 201&lt;br&gt;E-value: 2.34e-62" locus_tag="K3169_RS08790" class="clusterblast-orf" id="dummy-9_h9_10_16"  />
</g>
<g id="a9_0017"  >
<polygon points="199,90 205,90 210,85 205,80 199,80 199,90 " style="fill:#d815c7; stroke-width:1; stroke:black; " description="&lt;b&gt;K3169_RS08795&lt;/b&gt;&lt;br&gt;TauD/TfdA family dioxygenase&lt;br&gt;Location: 1954389 - 1955375&lt;br&gt;&lt;br&gt;&lt;b&gt;BlastP hit with JNAJGP_24165&lt;/b&gt;&lt;br&gt;Percentage identity: 69&lt;br&gt;Percentage coverage: 93&lt;br&gt;BLAST bit score: 452&lt;br&gt;E-value: 6.18e-159" locus_tag="K3169_RS08795" class="clusterblast-orf" id="dummy-9_h9_10_17"  />
</g>
<g id="a9_0018"  >
<polygon points="211,90 338,90 343,85 338,80 211,80 211,90 " style="fill:#d815c7; stroke-width:1; stroke:black; " description="&lt;b&gt;K3169_RS08800&lt;/b&gt;&lt;br&gt;non-ribosomal peptide synthase/polyketide synthase&lt;br&gt;Location: 1955507 - 1968343&lt;br&gt;&lt;br&gt;&lt;b&gt;BlastP hit with JNAJGP_24170&lt;/b&gt;&lt;br&gt;Percentage identity: 43&lt;br&gt;Percentage coverage: 74&lt;br&gt;BLAST bit score: 784&lt;br&gt;E-value: 2.51e-241&lt;br&gt;&lt;br&gt;&lt;b&gt;BlastP hit with JNAJGP_24175&lt;/b&gt;&lt;br&gt;Percentage identity: 34&lt;br&gt;Percentage coverage: 84&lt;br&gt;BLAST bit score: 356&lt;br&gt;E-value: 1.43e-100&lt;br&gt;&lt;br&gt;&lt;b&gt;BlastP hit with JNAJGP_24180&lt;/b&gt;&lt;br&gt;Percentage identity: 47&lt;br&gt;Percentage coverage: 101&lt;br&gt;BLAST bit score: 2042&lt;br&gt;E-value: 0.0&lt;br&gt;&lt;br&gt;&lt;b&gt;BlastP hit with JNAJGP_24185&lt;/b&gt;&lt;br&gt;Percentage identity: 39&lt;br&gt;Percentage coverage: 100&lt;br&gt;BLAST bit score: 2244&lt;br&gt;E-value: 0.0&lt;br&gt;&lt;br&gt;&lt;b&gt;BlastP hit with JNAJGP_24190&lt;/b&gt;&lt;br&gt;Percentage identity: 41&lt;br&gt;Percentage coverage: 79&lt;br&gt;BLAST bit score: 675&lt;br&gt;E-value: 1.33e-205" locus_tag="K3169_RS08800" class="clusterblast-orf" id="dummy-9_h9_10_18"  />
</g>
<g id="a9_0019"  >
<polygon points="343,90 466,90 471,85 466,80 343,80 343,90 " style="fill:#d815c7; stroke-width:1; stroke:black; " description="&lt;b&gt;K3169_RS08805&lt;/b&gt;&lt;br&gt;non-ribosomal peptide synthase/polyketide synthase&lt;br&gt;Location: 1968343 - 1980720&lt;br&gt;&lt;br&gt;&lt;b&gt;BlastP hit with JNAJGP_24175&lt;/b&gt;&lt;br&gt;Percentage identity: 35&lt;br&gt;Percentage coverage: 88&lt;br&gt;BLAST bit score: 342&lt;br&gt;E-value: 8.18e-96&lt;br&gt;&lt;br&gt;&lt;b&gt;BlastP hit with JNAJGP_24180&lt;/b&gt;&lt;br&gt;Percentage identity: 49&lt;br&gt;Percentage coverage: 100&lt;br&gt;BLAST bit score: 2202&lt;br&gt;E-value: 0.0&lt;br&gt;&lt;br&gt;&lt;b&gt;BlastP hit with JNAJGP_24185&lt;/b&gt;&lt;br&gt;Percentage identity: 42&lt;br&gt;Percentage coverage: 101&lt;br&gt;BLAST bit score: 2801&lt;br&gt;E-value: 0.0&lt;br&gt;&lt;br&gt;&lt;b&gt;BlastP hit with JNAJGP_24190&lt;/b&gt;&lt;br&gt;Percentage identity: 38&lt;br&gt;Percentage coverage: 82&lt;br&gt;BLAST bit score: 589&lt;br&gt;E-value: 2.53e-176" locus_tag="K3169_RS08805" class="clusterblast-orf" id="dummy-9_h9_10_19"  />
</g>
<g id="a9_0020"  >
<polygon points="471,90 476,90 481,85 476,80 471,80 471,90 " style="fill:white; stroke-width:1; stroke:black; " description="&lt;b&gt;K3169_RS08810&lt;/b&gt;&lt;br&gt;alpha/beta hydrolase&lt;br&gt;Location: 1980747 - 1981691" locus_tag="K3169_RS08810" class="clusterblast-orf" id="dummy-9_h9_10_20"  />
</g>
<g id="a9_0021"  >
<polygon points="481,85 486,80 502,80 502,90 486,90 481,85 " style="fill:#c715d8; stroke-width:1; stroke:black; " description="&lt;b&gt;K3169_RS08815&lt;/b&gt;&lt;br&gt;Fe(3+)-hydroxamate ABC transporter permease FhuB&lt;br&gt;Location: 1981754 - 1983760&lt;br&gt;&lt;br&gt;&lt;b&gt;BlastP hit with JNAJGP_24145&lt;/b&gt;&lt;br&gt;Percentage identity: 48&lt;br&gt;Percentage coverage: 99&lt;br&gt;BLAST bit score: 501&lt;br&gt;E-value: 8.51e-168" locus_tag="K3169_RS08815" class="clusterblast-orf" id="dummy-9_h9_10_21"  />
</g>
<g id="a9_0022"  >
<polygon points="502,85 507,80 511,80 511,90 507,90 502,85 " style="fill:#d88015; stroke-width:1; stroke:black; " description="&lt;b&gt;K3169_RS08820&lt;/b&gt;&lt;br&gt;ABC transporter substrate-binding protein&lt;br&gt;Location: 1983753 - 1984664&lt;br&gt;&lt;br&gt;&lt;b&gt;BlastP hit with JNAJGP_24150&lt;/b&gt;&lt;br&gt;Percentage identity: 37&lt;br&gt;Percentage coverage: 97&lt;br&gt;BLAST bit score: 162&lt;br&gt;E-value: 5.29e-46" locus_tag="K3169_RS08820" class="clusterblast-orf" id="dummy-9_h9_10_22"  />
</g>
<g id="a9_0023"  >
<polygon points="513,85 518,80 537,80 537,90 518,90 513,85 " style="fill:#15d815; stroke-width:1; stroke:black; " description="&lt;b&gt;K3169_RS08825&lt;/b&gt;&lt;br&gt;TonB-dependent siderophore receptor&lt;br&gt;Location: 1984836 - 1987175&lt;br&gt;&lt;br&gt;&lt;b&gt;BlastP hit with JNAJGP_24135&lt;/b&gt;&lt;br&gt;Percentage identity: 41&lt;br&gt;Percentage coverage: 94&lt;br&gt;BLAST bit score: 409&lt;br&gt;E-value: 5.07e-130" locus_tag="K3169_RS08825" class="clusterblast-orf" id="dummy-9_h9_10_23"  />
</g>
<g id="a9_0024"  >
<polygon points="539,85 544,80 556,80 556,90 544,90 539,85 " style="fill:#15d839; stroke-width:1; stroke:black; " description="&lt;b&gt;K3169_RS08830&lt;/b&gt;&lt;br&gt;cyclic peptide export ABC transporter&lt;br&gt;Location: 1987355 - 1989043&lt;br&gt;&lt;br&gt;&lt;b&gt;BlastP hit with JNAJGP_24155&lt;/b&gt;&lt;br&gt;Percentage identity: 41&lt;br&gt;Percentage coverage: 94&lt;br&gt;BLAST bit score: 358&lt;br&gt;E-value: 3.55e-115" locus_tag="K3169_RS08830" class="clusterblast-orf" id="dummy-9_h9_10_24"  />
</g>
<g id="a9_0025"  >
<polygon points="563,90 572,90 577,85 572,80 563,80 563,90 " style="fill:#d8a315; stroke-width:1; stroke:black; " description="&lt;b&gt;K3169_RS08835&lt;/b&gt;&lt;br&gt;SidA/IucD/PvdA family monooxygenase&lt;br&gt;Location: 1989689 - 1991023&lt;br&gt;&lt;br&gt;&lt;b&gt;BlastP hit with JNAJGP_24195&lt;/b&gt;&lt;br&gt;Percentage identity: 68&lt;br&gt;Percentage coverage: 94&lt;br&gt;BLAST bit score: 571&lt;br&gt;E-value: 7.01e-202" locus_tag="K3169_RS08835" class="clusterblast-orf" id="dummy-9_h9_10_25"  />
</g>
<g id="a9_0026"  >
<polygon points="578,90 581,85 578,80 578,90 " style="fill:white; stroke-width:1; stroke:black; " description="&lt;b&gt;K3169_RS08840&lt;/b&gt;&lt;br&gt;hypothetical protein&lt;br&gt;Location: 1991144 - 1991392" locus_tag="K3169_RS08840" class="clusterblast-orf" id="dummy-9_h9_10_26"  />
</g>
<g id="a9_0027"  >
<polygon points="581,90 584,90 589,85 584,80 581,80 581,90 " style="fill:#15d85c; stroke-width:1; stroke:black; " description="&lt;b&gt;K3169_RS08845&lt;/b&gt;&lt;br&gt;siderophore-iron reductase FhuF&lt;br&gt;Location: 1991448 - 1992203&lt;br&gt;&lt;br&gt;&lt;b&gt;BlastP hit with JNAJGP_24200&lt;/b&gt;&lt;br&gt;Percentage identity: 53&lt;br&gt;Percentage coverage: 99&lt;br&gt;BLAST bit score: 264&lt;br&gt;E-value: 5.03e-87" locus_tag="K3169_RS08845" class="clusterblast-orf" id="dummy-9_h9_10_27"  />
</g>
<g id="a9_0028"  >
<polygon points="590,85 595,80 598,80 598,90 595,90 590,85 " style="fill:#1539d8; stroke-width:1; stroke:black; " description="&lt;b&gt;K3169_RS08850&lt;/b&gt;&lt;br&gt;ATP-binding cassette domain-containing protein&lt;br&gt;Location: 1992279 - 1993046&lt;br&gt;&lt;br&gt;&lt;b&gt;BlastP hit with JNAJGP_24205&lt;/b&gt;&lt;br&gt;Percentage identity: 72&lt;br&gt;Percentage coverage: 99&lt;br&gt;BLAST bit score: 378&lt;br&gt;E-value: 6.8e-132" locus_tag="K3169_RS08850" class="clusterblast-orf" id="dummy-9_h9_10_28"  />
</g>
<g id="a9_0029"  >
<polygon points="602,90 605,90 610,85 605,80 602,80 602,90 " style="fill:white; stroke-width:1; stroke:black; " description="&lt;b&gt;K3169_RS08855&lt;/b&gt;&lt;br&gt;FKBP-type peptidyl-prolyl cis-trans isomerase&lt;br&gt;Location: 1993496 - 1994245" locus_tag="K3169_RS08855" class="clusterblast-orf" id="dummy-9_h9_10_29"  />
</g>
<g id="a9_0030"  >
<polygon points="614,90 614,90 619,85 614,80 614,80 614,90 " style="fill:white; stroke-width:1; stroke:black; " description="&lt;b&gt;K3169_RS08860&lt;/b&gt;&lt;br&gt;YkvA family protein&lt;br&gt;Location: 1994629 - 1995081" locus_tag="K3169_RS08860" class="clusterblast-orf" id="dummy-9_h9_10_30"  />
</g>
<g id="a9_0031"  >
<polygon points="620,90 624,85 620,80 620,90 " style="fill:white; stroke-width:1; stroke:black; " description="&lt;b&gt;K3169_RS08865&lt;/b&gt;&lt;br&gt;helix-turn-helix transcriptional regulator&lt;br&gt;Location: 1995216 - 1995563" locus_tag="K3169_RS08865" class="clusterblast-orf" id="dummy-9_h9_10_31"  />
</g>
<g id="a9_0032"  >
<polygon points="623,90 627,85 623,80 623,90 " style="fill:white; stroke-width:1; stroke:black; " description="&lt;b&gt;K3169_RS08870&lt;/b&gt;&lt;br&gt;hypothetical protein&lt;br&gt;Location: 1995560 - 1995919" locus_tag="K3169_RS08870" class="clusterblast-orf" id="dummy-9_h9_10_32"  />
</g>
<g id="a9_0033"  >
<polygon points="629,85 634,80 648,80 648,90 634,90 629,85 " style="fill:white; stroke-width:1; stroke:black; " description="&lt;b&gt;K3169_RS08875&lt;/b&gt;&lt;br&gt;EAL and GGDEF domain-containing protein&lt;br&gt;Location: 1996138 - 1997913" locus_tag="K3169_RS08875" class="clusterblast-orf" id="dummy-9_h9_10_33"  />
</g>
<g id="a9_0034"  >
<polygon points="650,85 655,80 672,80 672,90 655,90 650,85 " style="fill:white; stroke-width:1; stroke:black; " description="&lt;b&gt;K3169_RS08880&lt;/b&gt;&lt;br&gt;carboxy terminal-processing peptidase&lt;br&gt;Location: 1998151 - 2000232" locus_tag="K3169_RS08880" class="clusterblast-orf" id="dummy-9_h9_10_34"  />
</g>
<g id="a9_0035"  >
<polygon points="673,90 678,90 683,85 678,80 673,80 673,90 " style="fill:white; stroke-width:1; stroke:black; " description="&lt;b&gt;K3169_RS08885&lt;/b&gt;&lt;br&gt;NAD(P)H-quinone oxidoreductase&lt;br&gt;Location: 2000375 - 2001337" locus_tag="K3169_RS08885" class="clusterblast-orf" id="dummy-9_h9_10_35"  />
</g>
<g id="a9_0036"  >
<polygon points="685,85 690,80 691,80 691,90 690,90 685,85 " style="fill:white; stroke-width:1; stroke:black; " description="&lt;b&gt;K3169_RS08890&lt;/b&gt;&lt;br&gt;HAD-IB family hydrolase&lt;br&gt;Location: 2001498 - 2002151" locus_tag="K3169_RS08890" class="clusterblast-orf" id="dummy-9_h9_10_36"  />
</g>
<g id="a9_0037"  >
<polygon points="694,85 699,80 704,80 704,90 699,90 694,85 " style="fill:#c7d815; stroke-width:1; stroke:black; " description="&lt;b&gt;K3169_RS08895&lt;/b&gt;&lt;br&gt;ABC transporter ATP-binding protein&lt;br&gt;Location: 2002385 - 2003374&lt;br&gt;&lt;br&gt;&lt;b&gt;BlastP hit with JNAJGP_24240&lt;/b&gt;&lt;br&gt;Percentage identity: 35&lt;br&gt;Percentage coverage: 63&lt;br&gt;BLAST bit score: 151&lt;br&gt;E-value: 9.66e-41" locus_tag="K3169_RS08895" class="clusterblast-orf" id="dummy-9_h9_10_37"  />
</g>
<g id="a9_0038"  >
<polygon points="704,85 709,80 712,80 712,90 709,90 704,85 " style="fill:white; stroke-width:1; stroke:black; " description="&lt;b&gt;K3169_RS08900&lt;/b&gt;&lt;br&gt;ABC transporter permease&lt;br&gt;Location: 2003376 - 2004173" locus_tag="K3169_RS08900" class="clusterblast-orf" id="dummy-9_h9_10_38"  />
</g>
<g id="a9_0039"  >
<polygon points="712,85 717,80 721,80 721,90 717,90 712,85 " style="fill:white; stroke-width:1; stroke:black; " description="&lt;b&gt;K3169_RS08905&lt;/b&gt;&lt;br&gt;ABC transporter permease subunit&lt;br&gt;Location: 2004160 - 2005002" locus_tag="K3169_RS08905" class="clusterblast-orf" id="dummy-9_h9_10_39"  />
</g>
<g id="a9_0040"  >
<polygon points="721,85 726,80 729,80 729,90 726,90 721,85 " style="fill:white; stroke-width:1; stroke:black; " description="&lt;b&gt;K3169_RS08910&lt;/b&gt;&lt;br&gt;alkaline phosphatase family protein&lt;br&gt;Location: 2004999 - 2005805" locus_tag="K3169_RS08910" class="clusterblast-orf" id="dummy-9_h9_10_40"  />
</g>
<g id="a9_0041"  >
<polygon points="730,85 735,80 741,80 741,90 735,90 730,85 " style="fill:white; stroke-width:1; stroke:black; " description="&lt;b&gt;K3169_RS08915&lt;/b&gt;&lt;br&gt;ABC transporter substrate-binding protein&lt;br&gt;Location: 2005894 - 2006961" locus_tag="K3169_RS08915" class="clusterblast-orf" id="dummy-9_h9_10_41"  />
</g>
<g id="a9_0042"  >
<polygon points="745,90 747,90 752,85 747,80 745,80 745,90 " style="fill:white; stroke-width:1; stroke:black; " description="&lt;b&gt;K3169_RS08920&lt;/b&gt;&lt;br&gt;UTRA domain-containing protein&lt;br&gt;Location: 2007323 - 2008042" locus_tag="K3169_RS08920" class="clusterblast-orf" id="dummy-9_h9_10_42"  />
</g>
<g id="a9_0043"  >
<polygon points="755,85 757,80 757,90 755,85 " style="fill:white; stroke-width:1; stroke:black; " description="&lt;b&gt;K3169_RS08925&lt;/b&gt;&lt;br&gt;hypothetical protein&lt;br&gt;Location: 2008313 - 2008477" locus_tag="K3169_RS08925" class="clusterblast-orf" id="dummy-9_h9_10_43"  />
</g>
<g id="a9_0044"  >
<polygon points="758,85 763,80 771,80 771,90 763,90 758,85 " style="fill:white; stroke-width:1; stroke:black; " description="&lt;b&gt;K3169_RS08930&lt;/b&gt;&lt;br&gt;M18 family aminopeptidase&lt;br&gt;Location: 2008595 - 2009884" locus_tag="K3169_RS08930" class="clusterblast-orf" id="dummy-9_h9_10_44"  />
</g>
<g id="a9_0045"  >
<polygon points="773,85 778,80 780,80 780,90 778,90 773,85 " style="fill:white; stroke-width:1; stroke:black; " description="&lt;b&gt;K3169_RS08935&lt;/b&gt;&lt;br&gt;RluA family pseudouridine synthase&lt;br&gt;Location: 2010068 - 2010703" locus_tag="K3169_RS08935" class="clusterblast-orf" id="dummy-9_h9_10_45"  />
</g>
</svg>
