<svg xmlns="http://www.w3.org/2000/svg" xmlns:xlink="http://www.w3.org/1999/xlink" version="1.1" x="0" y="0" height="230" width="800" viewBox="0 0 800 230" preserveAspectRatio="none"  >
<g label="Query sequence" class="clusterblast-cluster"  >
<text x="5" y="20" class="clusterblast-acc"  >
Query sequence</text>
<line x1="10" y1="35" x2="778.0" y2="35" style="stroke-width:1; stroke:grey; "  />
<polygon points="0,35 5,30 57,30 57,40 5,40 0,35 " style="fill:#d81515; stroke-width:1; stroke:black; " description="&lt;b&gt;JNAJGP_27310&lt;/b&gt;&lt;br&gt;Transcriptional regulator, AraC family&lt;br&gt;Location: 5819740 - 5820610" locus_tag="JNAJGP_27310" class="clusterblast-orf" id="dummy-10_q0_0_all"  />
<polygon points="69,40 104,40 109,35 104,30 69,30 69,40 " style="fill:#3cd815; stroke-width:1; stroke:black; " description="&lt;b&gt;JNAJGP_27315&lt;/b&gt;&lt;br&gt;Lysine transporter LysE&lt;br&gt;Location: 5820798 - 5821419" locus_tag="JNAJGP_27315" class="clusterblast-orf" id="dummy-10_q1_0_all"  />
<polygon points="114,40 140,40 145,35 140,30 114,30 114,40 " style="fill:#1563d8; stroke-width:1; stroke:black; " description="&lt;b&gt;JNAJGP_27320&lt;/b&gt;&lt;br&gt;PhnB-like domain-containing protein&lt;br&gt;Location: 5821494 - 5821977" locus_tag="JNAJGP_27320" class="clusterblast-orf" id="dummy-10_q2_0_all"  />
<polygon points="152,40 198,40 203,35 198,30 152,30 152,40 " style="fill:#b115d8; stroke-width:1; stroke:black; " description="&lt;b&gt;JNAJGP_27325&lt;/b&gt;&lt;br&gt;cysteine synthase family protein&lt;br&gt;Location: 5822078 - 5822870" locus_tag="JNAJGP_27325" class="clusterblast-orf" id="dummy-10_q3_0_all"  />
<polygon points="203,40 236,40 241,35 236,30 203,30 203,40 " style="fill:#b115d8; stroke-width:1; stroke:black; " description="&lt;b&gt;JNAJGP_27330&lt;/b&gt;&lt;br&gt;CBS domain-containing protein&lt;br&gt;Location: 5822870 - 5823455" locus_tag="JNAJGP_27330" class="clusterblast-orf" id="dummy-10_q4_0_all"  />
<polygon points="241,40 312,40 317,35 312,30 241,30 241,40 " style="fill:#d88a15; stroke-width:1; stroke:black; " description="&lt;b&gt;JNAJGP_27335&lt;/b&gt;&lt;br&gt;cystathionine gamma-synthase&lt;br&gt;Location: 5823451 - 5824618" locus_tag="JNAJGP_27335" class="clusterblast-orf" id="dummy-10_q5_0_all"  />
<polygon points="320,35 325,30 463,30 463,40 325,40 320,35 " style="fill:#15d863; stroke-width:1; stroke:black; " description="&lt;b&gt;JNAJGP_27340&lt;/b&gt;&lt;br&gt;OsmC domain/YcaO domain-containing protein&lt;br&gt;Location: 5824670 - 5826872" locus_tag="JNAJGP_27340" class="clusterblast-orf" id="dummy-10_q6_0_all"  />
<polygon points="474,40 486,40 491,35 486,30 474,30 474,40 " style="fill:#3c15d8; stroke-width:1; stroke:black; " description="&lt;b&gt;JNAJGP_27345&lt;/b&gt;&lt;br&gt;PAS domain-containing protein&lt;br&gt;Location: 5827033 - 5827303" locus_tag="JNAJGP_27345" class="clusterblast-orf" id="dummy-10_q7_0_all"  />
<polygon points="491,35 496,30 519,30 519,40 496,40 491,35 " style="fill:#15d863; stroke-width:1; stroke:black; " description="&lt;b&gt;JNAJGP_27350&lt;/b&gt;&lt;br&gt;Osmotically inducible protein OsmC&lt;br&gt;Location: 5827292 - 5827724" locus_tag="JNAJGP_27350" class="clusterblast-orf" id="dummy-10_q8_0_all"  />
<polygon points="524,40 621,40 626,35 621,30 524,30 524,40 " style="fill:#3c15d8; stroke-width:1; stroke:black; " description="&lt;b&gt;JNAJGP_27355&lt;/b&gt;&lt;br&gt;Methyl-accepting transducer domain-containing protein&lt;br&gt;Location: 5827804 - 5829370" locus_tag="JNAJGP_27355" class="clusterblast-orf" id="dummy-10_q9_0_all"  />
<polygon points="642,40 689,40 694,35 689,30 642,30 642,40 " style="fill:#d8158a; stroke-width:1; stroke:black; " description="&lt;b&gt;JNAJGP_27360&lt;/b&gt;&lt;br&gt;Suppressor of fused-like domain-containing protein&lt;br&gt;Location: 5829618 - 5830428" locus_tag="JNAJGP_27360" class="clusterblast-orf" id="dummy-10_q10_0_all"  />
<polygon points="694,40 727,40 732,35 727,30 694,30 694,40 " style="fill:#b1d815; stroke-width:1; stroke:black; " description="&lt;b&gt;JNAJGP_27365&lt;/b&gt;&lt;br&gt;hypothetical protein&lt;br&gt;Location: 5830427 - 5831009" locus_tag="JNAJGP_27365" class="clusterblast-orf" id="dummy-10_q11_0_all"  />
<polygon points="744,40 775,40 780,35 775,30 744,30 744,40 " style="fill:#15d8d8; stroke-width:1; stroke:black; " description="&lt;b&gt;JNAJGP_27370&lt;/b&gt;&lt;br&gt;Hydrolase, isochorismatase family&lt;br&gt;Location: 5831188 - 5831749" locus_tag="JNAJGP_27370" class="clusterblast-orf" id="dummy-10_q12_0_all"  />
</g>
<g label="NZ_CM001025" description="NZ_CM001025 (2765361-2777563): Pseudomonas fluorescens WH6 chromosome, whole ... (100% of genes show similarity), RiPP-like" class="clusterblast-cluster"  >
<text x="5" y="70" class="clusterblast-acc"  >
<a xlink:href="https://antismash-db.secondarymetabolites.org/area?record=NZ_CM001025&amp;start=2765361&amp;end=2777563" target="_blank">NZ_CM001025 (2765361-2777563)</a>: Pseudomonas fluorescens WH6 chromosome, whole ... (100% of genes show similarity), RiPP-like</text>
<line x1="10" y1="85" x2="778.0" y2="85" style="stroke-width:1; stroke:grey; "  />
</g>
<g id="a10_000"  >
<polygon points="25,85 30,80 81,80 81,90 30,90 25,85 " style="fill:#d81515; stroke-width:1; stroke:black; " description="&lt;b&gt;PFWH6_RS12675&lt;/b&gt;&lt;br&gt;AraC family transcriptional regulator&lt;br&gt;Location: 2777493 - 2776624&lt;br&gt;&lt;br&gt;&lt;b&gt;BlastP hit with JNAJGP_27310&lt;/b&gt;&lt;br&gt;Percentage identity: 99&lt;br&gt;Percentage coverage: 100&lt;br&gt;BLAST bit score: 585&lt;br&gt;E-value: 9.66e-213" locus_tag="PFWH6_RS12675" class="clusterblast-orf" id="dummy-10_h10_1_0"  />
</g>
<g id="a10_001"  >
<polygon points="93,90 129,90 134,85 129,80 93,80 93,90 " style="fill:#3cd815; stroke-width:1; stroke:black; " description="&lt;b&gt;PFWH6_RS12670&lt;/b&gt;&lt;br&gt;LysE family translocator&lt;br&gt;Location: 2776435 - 2775815&lt;br&gt;&lt;br&gt;&lt;b&gt;BlastP hit with JNAJGP_27315&lt;/b&gt;&lt;br&gt;Percentage identity: 98&lt;br&gt;Percentage coverage: 100&lt;br&gt;BLAST bit score: 387&lt;br&gt;E-value: 3.72e-137" locus_tag="PFWH6_RS12670" class="clusterblast-orf" id="dummy-10_h10_1_1"  />
</g>
<g id="a10_002"  >
<polygon points="138,90 165,90 170,85 165,80 138,80 138,90 " style="fill:#1563d8; stroke-width:1; stroke:black; " description="&lt;b&gt;PFWH6_RS12665&lt;/b&gt;&lt;br&gt;VOC family protein&lt;br&gt;Location: 2775739 - 2775257&lt;br&gt;&lt;br&gt;&lt;b&gt;BlastP hit with JNAJGP_27320&lt;/b&gt;&lt;br&gt;Percentage identity: 100&lt;br&gt;Percentage coverage: 100&lt;br&gt;BLAST bit score: 334&lt;br&gt;E-value: 8.7e-118" locus_tag="PFWH6_RS12665" class="clusterblast-orf" id="dummy-10_h10_1_2"  />
</g>
<g id="a10_003"  >
<polygon points="176,90 261,90 266,85 261,80 176,80 176,90 " style="fill:#b115d8; stroke-width:1; stroke:black; " description="&lt;b&gt;PFWH6_RS12660&lt;/b&gt;&lt;br&gt;cystathionine beta-synthase&lt;br&gt;Location: 2775155 - 2773779&lt;br&gt;&lt;br&gt;&lt;b&gt;BlastP hit with JNAJGP_27325&lt;/b&gt;&lt;br&gt;Percentage identity: 99&lt;br&gt;Percentage coverage: 100&lt;br&gt;BLAST bit score: 519&lt;br&gt;E-value: 2.42e-184&lt;br&gt;&lt;br&gt;&lt;b&gt;BlastP hit with JNAJGP_27330&lt;/b&gt;&lt;br&gt;Percentage identity: 99&lt;br&gt;Percentage coverage: 100&lt;br&gt;BLAST bit score: 376&lt;br&gt;E-value: 3.31e-129" locus_tag="PFWH6_RS12660" class="clusterblast-orf" id="dummy-10_h10_1_3"  />
</g>
<g id="a10_004"  >
<polygon points="266,90 336,90 341,85 336,80 266,80 266,90 " style="fill:#d88a15; stroke-width:1; stroke:black; " description="&lt;b&gt;PFWH6_RS12655&lt;/b&gt;&lt;br&gt;cystathionine gamma-synthase&lt;br&gt;Location: 2773782 - 2772616&lt;br&gt;&lt;br&gt;&lt;b&gt;BlastP hit with JNAJGP_27335&lt;/b&gt;&lt;br&gt;Percentage identity: 99&lt;br&gt;Percentage coverage: 100&lt;br&gt;BLAST bit score: 763&lt;br&gt;E-value: 1.15e-279" locus_tag="PFWH6_RS12655" class="clusterblast-orf" id="dummy-10_h10_1_4"  />
</g>
<g id="a10_005"  >
<polygon points="345,85 350,80 488,80 488,90 350,90 345,85 " style="fill:#15d863; stroke-width:1; stroke:black; " description="&lt;b&gt;PFWH6_RS12650&lt;/b&gt;&lt;br&gt;OsmC domain/YcaO domain-containing protein&lt;br&gt;Location: 2772563 - 2770362&lt;br&gt;&lt;br&gt;&lt;b&gt;BlastP hit with JNAJGP_27340&lt;/b&gt;&lt;br&gt;Percentage identity: 100&lt;br&gt;Percentage coverage: 100&lt;br&gt;BLAST bit score: 1464&lt;br&gt;E-value: 0.0&lt;br&gt;&lt;br&gt;&lt;b&gt;BlastP hit with JNAJGP_27350&lt;/b&gt;&lt;br&gt;Percentage identity: 100&lt;br&gt;Percentage coverage: 80&lt;br&gt;BLAST bit score: 234&lt;br&gt;E-value: 6.93e-72" locus_tag="PFWH6_RS12650" class="clusterblast-orf" id="dummy-10_h10_1_5"  />
</g>
<g id="a10_006"  >
<polygon points="498,90 595,90 600,85 595,80 498,80 498,90 " style="fill:#3c15d8; stroke-width:1; stroke:black; " description="&lt;b&gt;PFWH6_RS12645&lt;/b&gt;&lt;br&gt;PAS domain-containing methyl-accepting chemotaxis protein&lt;br&gt;Location: 2770200 - 2768635&lt;br&gt;&lt;br&gt;&lt;b&gt;BlastP hit with JNAJGP_27345&lt;/b&gt;&lt;br&gt;Percentage identity: 99&lt;br&gt;Percentage coverage: 100&lt;br&gt;BLAST bit score: 183&lt;br&gt;E-value: 3.05e-55&lt;br&gt;&lt;br&gt;&lt;b&gt;BlastP hit with JNAJGP_27355&lt;/b&gt;&lt;br&gt;Percentage identity: 100&lt;br&gt;Percentage coverage: 100&lt;br&gt;BLAST bit score: 909&lt;br&gt;E-value: 0.0" locus_tag="PFWH6_RS12645" class="clusterblast-orf" id="dummy-10_h10_1_6"  />
</g>
<g id="a10_007"  >
<polygon points="616,90 664,90 669,85 664,80 616,80 616,90 " style="fill:#d8158a; stroke-width:1; stroke:black; " description="&lt;b&gt;PFWH6_RS12640&lt;/b&gt;&lt;br&gt;suppressor of fused domain protein&lt;br&gt;Location: 2768386 - 2767577&lt;br&gt;&lt;br&gt;&lt;b&gt;BlastP hit with JNAJGP_27360&lt;/b&gt;&lt;br&gt;Percentage identity: 100&lt;br&gt;Percentage coverage: 100&lt;br&gt;BLAST bit score: 526&lt;br&gt;E-value: 3.05e-190" locus_tag="PFWH6_RS12640" class="clusterblast-orf" id="dummy-10_h10_1_7"  />
</g>
<g id="a10_008"  >
<polygon points="669,90 701,90 706,85 701,80 669,80 669,90 " style="fill:#b1d815; stroke-width:1; stroke:black; " description="&lt;b&gt;PFWH6_RS12635&lt;/b&gt;&lt;br&gt;hypothetical protein&lt;br&gt;Location: 2767577 - 2766996&lt;br&gt;&lt;br&gt;&lt;b&gt;BlastP hit with JNAJGP_27365&lt;/b&gt;&lt;br&gt;Percentage identity: 98&lt;br&gt;Percentage coverage: 100&lt;br&gt;BLAST bit score: 377&lt;br&gt;E-value: 1.27e-133" locus_tag="PFWH6_RS12635" class="clusterblast-orf" id="dummy-10_h10_1_8"  />
</g>
<g id="a10_009"  >
<polygon points="718,90 749,90 754,85 749,80 718,80 718,90 " style="fill:#15d8d8; stroke-width:1; stroke:black; " description="&lt;b&gt;PFWH6_RS12630&lt;/b&gt;&lt;br&gt;cysteine hydrolase family protein&lt;br&gt;Location: 2766817 - 2766257&lt;br&gt;&lt;br&gt;&lt;b&gt;BlastP hit with JNAJGP_27370&lt;/b&gt;&lt;br&gt;Percentage identity: 100&lt;br&gt;Percentage coverage: 100&lt;br&gt;BLAST bit score: 375&lt;br&gt;E-value: 3.03e-133" locus_tag="PFWH6_RS12630" class="clusterblast-orf" id="dummy-10_h10_1_9"  />
</g>
</svg>
