<svg xmlns="http://www.w3.org/2000/svg" xmlns:xlink="http://www.w3.org/1999/xlink" version="1.1" x="0" y="0" height="230" width="800" viewBox="0 0 800 230" preserveAspectRatio="none"  >
<g label="Query sequence" class="clusterblast-cluster"  >
<text x="5" y="20" class="clusterblast-acc"  >
Query sequence</text>
<line x1="10" y1="35" x2="778.0" y2="35" style="stroke-width:1; stroke:grey; "  />
<polygon points="0,40 32,40 37,35 32,30 0,30 0,40 " style="fill:#d81515; stroke-width:1; stroke:black; " description="&lt;b&gt;JNAJGP_24070&lt;/b&gt;&lt;br&gt;phage tail protein&lt;br&gt;Location: 5054663 - 5058125" locus_tag="JNAJGP_24070" class="clusterblast-orf" id="dummy-9_q0_0_all"  />
<polygon points="40,40 42,40 47,35 42,30 40,30 40,40 " style="fill:#5cd815; stroke-width:1; stroke:black; " description="&lt;b&gt;JNAJGP_24075&lt;/b&gt;&lt;br&gt;Phage tail protein&lt;br&gt;Location: 5058471 - 5059101" locus_tag="JNAJGP_24075" class="clusterblast-orf" id="dummy-9_q1_0_all"  />
<polygon points="48,40 51,40 56,35 51,30 48,30 48,40 " style="fill:#15c7d8; stroke-width:1; stroke:black; " description="&lt;b&gt;JNAJGP_24080&lt;/b&gt;&lt;br&gt;Phage tail protein&lt;br&gt;Location: 5059159 - 5059927" locus_tag="JNAJGP_24080" class="clusterblast-orf" id="dummy-9_q2_0_all"  />
<polygon points="56,40 59,35 56,30 56,40 " style="fill:white; stroke-width:1; stroke:black; " description="&lt;b&gt;JNAJGP_24085&lt;/b&gt;&lt;br&gt;hypothetical protein&lt;br&gt;Location: 5059926 - 5060217" locus_tag="JNAJGP_24085" class="clusterblast-orf" id="dummy-9_q3_0_all"  />
<polygon points="59,40 62,35 59,30 59,40 " style="fill:white; stroke-width:1; stroke:black; " description="&lt;b&gt;JNAJGP_24090&lt;/b&gt;&lt;br&gt;Phage tail protein&lt;br&gt;Location: 5060213 - 5060465" locus_tag="JNAJGP_24090" class="clusterblast-orf" id="dummy-9_q4_0_all"  />
<polygon points="62,40 63,40 68,35 63,30 62,30 62,40 " style="fill:#8015d8; stroke-width:1; stroke:black; " description="&lt;b&gt;JNAJGP_24095&lt;/b&gt;&lt;br&gt;Chitinase&lt;br&gt;Location: 5060520 - 5061054" locus_tag="JNAJGP_24095" class="clusterblast-orf" id="dummy-9_q5_0_all"  />
<polygon points="68,40 69,40 74,35 69,30 68,30 68,40 " style="fill:#d83915; stroke-width:1; stroke:black; " description="&lt;b&gt;JNAJGP_24100&lt;/b&gt;&lt;br&gt;Lysozyme&lt;br&gt;Location: 5061050 - 5061620" locus_tag="JNAJGP_24100" class="clusterblast-orf" id="dummy-9_q6_0_all"  />
<polygon points="73,35 76,30 76,40 73,35 " style="fill:white; stroke-width:1; stroke:black; " description="&lt;b&gt;JNAJGP_24105&lt;/b&gt;&lt;br&gt;NIPSNAP domain-containing protein&lt;br&gt;Location: 5061579 - 5061843" locus_tag="JNAJGP_24105" class="clusterblast-orf" id="dummy-9_q7_0_all"  />
<polygon points="77,35 81,30 81,40 77,35 " style="fill:#39d815; stroke-width:1; stroke:black; " description="&lt;b&gt;JNAJGP_24110&lt;/b&gt;&lt;br&gt;Lipoprotein&lt;br&gt;Location: 5061930 - 5062311" locus_tag="JNAJGP_24110" class="clusterblast-orf" id="dummy-9_q8_0_all"  />
<polygon points="86,40 91,40 96,35 91,30 86,30 86,40 " style="fill:#15a3d8; stroke-width:1; stroke:black; " description="&lt;b&gt;JNAJGP_24120&lt;/b&gt;&lt;br&gt;LysR family transcriptional regulator&lt;br&gt;Location: 5062760 - 5063663" locus_tag="JNAJGP_24120" class="clusterblast-orf" id="dummy-9_q9_0_all"  />
<polygon points="96,35 101,30 106,30 106,40 101,40 96,35 " style="fill:#a315d8; stroke-width:1; stroke:black; " description="&lt;b&gt;JNAJGP_24125&lt;/b&gt;&lt;br&gt;Cupin&lt;br&gt;Location: 5063700 - 5064642" locus_tag="JNAJGP_24125" class="clusterblast-orf" id="dummy-9_q10_0_all"  />
<polygon points="108,35 111,30 111,40 108,35 " style="fill:#d85c15; stroke-width:1; stroke:black; " description="&lt;b&gt;JNAJGP_24130&lt;/b&gt;&lt;br&gt;hypothetical protein&lt;br&gt;Location: 5064843 - 5065122" locus_tag="JNAJGP_24130" class="clusterblast-orf" id="dummy-9_q11_0_all"  />
<polygon points="113,35 118,30 136,30 136,40 118,40 113,35 " style="fill:#15d815; stroke-width:1; stroke:black; " description="&lt;b&gt;JNAJGP_24135&lt;/b&gt;&lt;br&gt;Ferric siderophore receptor&lt;br&gt;Location: 5065316 - 5067488" locus_tag="JNAJGP_24135" class="clusterblast-orf" id="dummy-9_q12_0_all"  />
<polygon points="138,35 143,30 148,30 148,40 143,40 138,35 " style="fill:#1580d8; stroke-width:1; stroke:black; " description="&lt;b&gt;JNAJGP_24140&lt;/b&gt;&lt;br&gt;Acyltransferase MbtK/IucB-like conserved domain-containing protein&lt;br&gt;Location: 5067586 - 5068606" locus_tag="JNAJGP_24140" class="clusterblast-orf" id="dummy-9_q13_0_all"  />
<polygon points="150,35 155,30 171,30 171,40 155,40 150,35 " style="fill:#c715d8; stroke-width:1; stroke:black; " description="&lt;b&gt;JNAJGP_24145&lt;/b&gt;&lt;br&gt;Fe(3+)-hydroxamate ABC transporter permease FhuB&lt;br&gt;Location: 5068765 - 5070754" locus_tag="JNAJGP_24145" class="clusterblast-orf" id="dummy-9_q14_0_all"  />
<polygon points="171,35 176,30 181,30 181,40 176,40 171,35 " style="fill:#d88015; stroke-width:1; stroke:black; " description="&lt;b&gt;JNAJGP_24150&lt;/b&gt;&lt;br&gt;Periplasmic binding protein&lt;br&gt;Location: 5070746 - 5071658" locus_tag="JNAJGP_24150" class="clusterblast-orf" id="dummy-9_q15_0_all"  />
<polygon points="183,40 196,40 201,35 196,30 183,30 183,40 " style="fill:#15d839; stroke-width:1; stroke:black; " description="&lt;b&gt;JNAJGP_24155&lt;/b&gt;&lt;br&gt;Putative ATP-binding cassette transporter&lt;br&gt;Location: 5071857 - 5073504" locus_tag="JNAJGP_24155" class="clusterblast-orf" id="dummy-9_q16_0_all"  />
<polygon points="203,40 205,40 210,35 205,30 203,30 203,40 " style="fill:#155cd8; stroke-width:1; stroke:black; " description="&lt;b&gt;JNAJGP_24160&lt;/b&gt;&lt;br&gt;Thioesterase&lt;br&gt;Location: 5073678 - 5074422" locus_tag="JNAJGP_24160" class="clusterblast-orf" id="dummy-9_q17_0_all"  />
<polygon points="211,40 216,40 221,35 216,30 211,30 211,40 " style="fill:#d815c7; stroke-width:1; stroke:black; " description="&lt;b&gt;JNAJGP_24165&lt;/b&gt;&lt;br&gt;TauD/TfdA-like domain-containing protein&lt;br&gt;Location: 5074461 - 5075442" locus_tag="JNAJGP_24165" class="clusterblast-orf" id="dummy-9_q18_0_all"  />
<polygon points="222,40 265,40 270,35 265,30 222,30 222,40 " style="fill:#d815c7; stroke-width:1; stroke:black; " description="&lt;b&gt;JNAJGP_24170&lt;/b&gt;&lt;br&gt;Non ribosomal peptide synthase&lt;br&gt;Location: 5075492 - 5079956" locus_tag="JNAJGP_24170" class="clusterblast-orf" id="dummy-9_q19_0_all"  />
<polygon points="270,40 298,40 303,35 298,30 270,30 270,40 " style="fill:#d815c7; stroke-width:1; stroke:black; " description="&lt;b&gt;JNAJGP_24175&lt;/b&gt;&lt;br&gt;Amino acid adenylation&lt;br&gt;Location: 5079967 - 5083114" locus_tag="JNAJGP_24175" class="clusterblast-orf" id="dummy-9_q20_0_all"  />
<polygon points="304,40 381,40 386,35 381,30 304,30 304,40 " style="fill:#d815c7; stroke-width:1; stroke:black; " description="&lt;b&gt;JNAJGP_24180&lt;/b&gt;&lt;br&gt;Carrier domain-containing protein&lt;br&gt;Location: 5083162 - 5090896" locus_tag="JNAJGP_24180" class="clusterblast-orf" id="dummy-9_q21_0_all"  />
<polygon points="386,40 513,40 518,35 513,30 386,30 386,40 " style="fill:#d815c7; stroke-width:1; stroke:black; " description="&lt;b&gt;JNAJGP_24185&lt;/b&gt;&lt;br&gt;non-ribosomal peptide synthetase&lt;br&gt;Location: 5090892 - 5103210" locus_tag="JNAJGP_24185" class="clusterblast-orf" id="dummy-9_q22_0_all"  />
<polygon points="518,40 556,40 561,35 556,30 518,30 518,40 " style="fill:#d815c7; stroke-width:1; stroke:black; " description="&lt;b&gt;JNAJGP_24190&lt;/b&gt;&lt;br&gt;Non-ribosomal peptide synthetase&lt;br&gt;Location: 5103211 - 5107270" locus_tag="JNAJGP_24190" class="clusterblast-orf" id="dummy-9_q23_0_all"  />
<polygon points="562,40 571,40 576,35 571,30 562,30 562,40 " style="fill:#d8a315; stroke-width:1; stroke:black; " description="&lt;b&gt;JNAJGP_24195&lt;/b&gt;&lt;br&gt;L-ornithine 5-monooxygenase&lt;br&gt;Location: 5107342 - 5108698" locus_tag="JNAJGP_24195" class="clusterblast-orf" id="dummy-9_q24_0_all"  />
<polygon points="577,40 580,40 585,35 580,30 577,30 577,40 " style="fill:#15d85c; stroke-width:1; stroke:black; " description="&lt;b&gt;JNAJGP_24200&lt;/b&gt;&lt;br&gt;siderophore-iron reductase FhuF&lt;br&gt;Location: 5108789 - 5109545" locus_tag="JNAJGP_24200" class="clusterblast-orf" id="dummy-9_q25_0_all"  />
<polygon points="586,35 591,30 594,30 594,40 591,40 586,35 " style="fill:#1539d8; stroke-width:1; stroke:black; " description="&lt;b&gt;JNAJGP_24205&lt;/b&gt;&lt;br&gt;Iron-hydroxamate transporter ATP-binding subunit&lt;br&gt;Location: 5109585 - 5110353" locus_tag="JNAJGP_24205" class="clusterblast-orf" id="dummy-9_q26_0_all"  />
<polygon points="596,35 599,30 599,40 596,35 " style="fill:white; stroke-width:1; stroke:black; " description="&lt;b&gt;JNAJGP_24210&lt;/b&gt;&lt;br&gt;hypothetical protein&lt;br&gt;Location: 5110578 - 5110803" locus_tag="JNAJGP_24210" class="clusterblast-orf" id="dummy-9_q27_0_all"  />
<polygon points="601,40 603,40 608,35 603,30 601,30 601,40 " style="fill:#d815a3; stroke-width:1; stroke:black; " description="&lt;b&gt;JNAJGP_24215&lt;/b&gt;&lt;br&gt;Lipoprotein&lt;br&gt;Location: 5110983 - 5111682" locus_tag="JNAJGP_24215" class="clusterblast-orf" id="dummy-9_q28_0_all"  />
<polygon points="609,40 612,35 609,30 609,40 " style="fill:#d8c715; stroke-width:1; stroke:black; " description="&lt;b&gt;JNAJGP_24220&lt;/b&gt;&lt;br&gt;EAL domain-containing protein&lt;br&gt;Location: 5111807 - 5112086" locus_tag="JNAJGP_24220" class="clusterblast-orf" id="dummy-9_q29_0_all"  />
<polygon points="613,40 622,40 627,35 622,30 613,30 613,40 " style="fill:#15d880; stroke-width:1; stroke:black; " description="&lt;b&gt;JNAJGP_24225&lt;/b&gt;&lt;br&gt;Methyl-accepting chemotaxis protein (2 PAS,MCP domains)&lt;br&gt;Location: 5112170 - 5113484" locus_tag="JNAJGP_24225" class="clusterblast-orf" id="dummy-9_q30_0_all"  />
<polygon points="630,40 647,40 652,35 647,30 630,30 630,40 " style="fill:#1515d8; stroke-width:1; stroke:black; " description="&lt;b&gt;JNAJGP_24230&lt;/b&gt;&lt;br&gt;Outer membrane siderophore receptor&lt;br&gt;Location: 5113706 - 5115821" locus_tag="JNAJGP_24230" class="clusterblast-orf" id="dummy-9_q31_0_all"  />
<polygon points="652,35 657,30 672,30 672,40 657,40 652,35 " style="fill:#d81580; stroke-width:1; stroke:black; " description="&lt;b&gt;JNAJGP_24235&lt;/b&gt;&lt;br&gt;Sigma-54 factor interaction domain-containing protein&lt;br&gt;Location: 5115830 - 5117648" locus_tag="JNAJGP_24235" class="clusterblast-orf" id="dummy-9_q32_0_all"  />
<polygon points="675,40 681,40 686,35 681,30 675,30 675,40 " style="fill:#c7d815; stroke-width:1; stroke:black; " description="&lt;b&gt;JNAJGP_24240&lt;/b&gt;&lt;br&gt;sn-glycerol-3-phosphate import ATP-binding protein UgpC&lt;br&gt;Location: 5117939 - 5119034" locus_tag="JNAJGP_24240" class="clusterblast-orf" id="dummy-9_q33_0_all"  />
<polygon points="686,40 693,40 698,35 693,30 686,30 686,40 " style="fill:#15d8a3; stroke-width:1; stroke:black; " description="&lt;b&gt;JNAJGP_24245&lt;/b&gt;&lt;br&gt;ABC transporter ATP-binding protein&lt;br&gt;Location: 5119033 - 5120131" locus_tag="JNAJGP_24245" class="clusterblast-orf" id="dummy-9_q34_0_all"  />
<polygon points="698,40 702,40 707,35 702,30 698,30 698,40 " style="fill:#3915d8; stroke-width:1; stroke:black; " description="&lt;b&gt;JNAJGP_24250&lt;/b&gt;&lt;br&gt;ABC-type sugar transport system, permease component&lt;br&gt;Location: 5120127 - 5120994" locus_tag="JNAJGP_24250" class="clusterblast-orf" id="dummy-9_q35_0_all"  />
<polygon points="708,40 711,40 716,35 711,30 708,30 708,40 " style="fill:#d8155c; stroke-width:1; stroke:black; " description="&lt;b&gt;JNAJGP_24255&lt;/b&gt;&lt;br&gt;ABC-type glycerol-3-phosphate transport system, permease component&lt;br&gt;Location: 5121004 - 5121805" locus_tag="JNAJGP_24255" class="clusterblast-orf" id="dummy-9_q36_0_all"  />
<polygon points="716,40 719,35 716,30 716,40 " style="fill:#a3d815; stroke-width:1; stroke:black; " description="&lt;b&gt;JNAJGP_24260&lt;/b&gt;&lt;br&gt;Small integral membrane protein&lt;br&gt;Location: 5121815 - 5122088" locus_tag="JNAJGP_24260" class="clusterblast-orf" id="dummy-9_q37_0_all"  />
<polygon points="719,40 733,40 738,35 733,30 719,30 719,40 " style="fill:#15d8c7; stroke-width:1; stroke:black; " description="&lt;b&gt;JNAJGP_24265&lt;/b&gt;&lt;br&gt;ABC transporter substrate-binding protein&lt;br&gt;Location: 5122120 - 5123863" locus_tag="JNAJGP_24265" class="clusterblast-orf" id="dummy-9_q38_0_all"  />
<polygon points="743,40 752,40 757,35 752,30 743,30 743,40 " style="fill:#5c15d8; stroke-width:1; stroke:black; " description="&lt;b&gt;JNAJGP_24270&lt;/b&gt;&lt;br&gt;Iron-containing redox enzyme family protein&lt;br&gt;Location: 5124300 - 5125680" locus_tag="JNAJGP_24270" class="clusterblast-orf" id="dummy-9_q39_0_all"  />
<polygon points="758,40 763,40 768,35 763,30 758,30 758,40 " style="fill:#d81539; stroke-width:1; stroke:black; " description="&lt;b&gt;JNAJGP_24275&lt;/b&gt;&lt;br&gt;Release factor glutamine methyltransferase&lt;br&gt;Location: 5125690 - 5126635" locus_tag="JNAJGP_24275" class="clusterblast-orf" id="dummy-9_q40_0_all"  />
<polygon points="768,40 775,40 780,35 775,30 768,30 768,40 " style="fill:#80d815; stroke-width:1; stroke:black; " description="&lt;b&gt;JNAJGP_24280&lt;/b&gt;&lt;br&gt;carboxylate-amine ligase&lt;br&gt;Location: 5126641 - 5127760" locus_tag="JNAJGP_24280" class="clusterblast-orf" id="dummy-9_q41_0_all"  />
</g>
<g label="NZ_CP013861" description="NZ_CP013861 (3063695-3137942): Pseudomonas fragi strain P121 chromosome, comp... (52% of genes show similarity), NRP-metallophore,NRPS" class="clusterblast-cluster"  >
<text x="5" y="70" class="clusterblast-acc"  >
<a xlink:href="https://antismash-db.secondarymetabolites.org/area?record=NZ_CP013861&amp;start=3063695&amp;end=3137942" target="_blank">NZ_CP013861 (3063695-3137942)</a>: Pseudomonas fragi strain P121 chromosome, comp... (52% of genes show similarity), NRP-metallophore,NRPS</text>
<line x1="10" y1="85" x2="778.0" y2="85" style="stroke-width:1; stroke:grey; "  />
</g>
<g id="a9_000"  >
<polygon points="2,90 7,90 12,85 7,80 2,80 2,90 " style="fill:white; stroke-width:1; stroke:black; " description="&lt;b&gt;AV641_RS13975&lt;/b&gt;&lt;br&gt;LysR family transcriptional regulator&lt;br&gt;Location: 3137077 - 3136169" locus_tag="AV641_RS13975" class="clusterblast-orf" id="dummy-9_h9_4_0"  />
</g>
<g id="a9_001"  >
<polygon points="14,90 26,90 31,85 26,80 14,80 14,90 " style="fill:white; stroke-width:1; stroke:black; " description="&lt;b&gt;AV641_RS13970&lt;/b&gt;&lt;br&gt;MFS transporter&lt;br&gt;Location: 3135978 - 3134431" locus_tag="AV641_RS13970" class="clusterblast-orf" id="dummy-9_h9_4_1"  />
</g>
<g id="a9_002"  >
<polygon points="30,90 37,90 42,85 37,80 30,80 30,90 " style="fill:white; stroke-width:1; stroke:black; " description="&lt;b&gt;AV641_RS13965&lt;/b&gt;&lt;br&gt;HlyD family secretion protein&lt;br&gt;Location: 3134434 - 3133370" locus_tag="AV641_RS13965" class="clusterblast-orf" id="dummy-9_h9_4_2"  />
</g>
<g id="a9_003"  >
<polygon points="42,90 53,90 58,85 53,80 42,80 42,90 " style="fill:white; stroke-width:1; stroke:black; " description="&lt;b&gt;AV641_RS13960&lt;/b&gt;&lt;br&gt;efflux transporter outer membrane subunit&lt;br&gt;Location: 3133373 - 3131882" locus_tag="AV641_RS13960" class="clusterblast-orf" id="dummy-9_h9_4_3"  />
</g>
<g id="a9_004"  >
<polygon points="72,90 81,90 86,85 81,80 72,80 72,90 " style="fill:white; stroke-width:1; stroke:black; " description="&lt;b&gt;AV641_RS13955&lt;/b&gt;&lt;br&gt;MFS transporter&lt;br&gt;Location: 3130550 - 3129231" locus_tag="AV641_RS13955" class="clusterblast-orf" id="dummy-9_h9_4_4"  />
</g>
<g id="a9_005"  >
<polygon points="87,90 89,85 87,80 87,90 " style="fill:white; stroke-width:1; stroke:black; " description="&lt;b&gt;AV641_RS13950&lt;/b&gt;&lt;br&gt;MbtH family NRPS accessory protein&lt;br&gt;Location: 3129123 - 3128920" locus_tag="AV641_RS13950" class="clusterblast-orf" id="dummy-9_h9_4_5"  />
</g>
<g id="a9_006"  >
<polygon points="93,85 98,80 117,80 117,90 98,90 93,85 " style="fill:#15d815; stroke-width:1; stroke:black; " description="&lt;b&gt;AV641_RS13945&lt;/b&gt;&lt;br&gt;TonB-dependent siderophore receptor&lt;br&gt;Location: 3128532 - 3126361&lt;br&gt;&lt;br&gt;&lt;b&gt;BlastP hit with JNAJGP_24135&lt;/b&gt;&lt;br&gt;Percentage identity: 88&lt;br&gt;Percentage coverage: 100&lt;br&gt;BLAST bit score: 1306&lt;br&gt;E-value: 0.0" locus_tag="AV641_RS13945" class="clusterblast-orf" id="dummy-9_h9_4_6"  />
</g>
<g id="a9_007"  >
<polygon points="118,85 123,80 129,80 129,90 123,90 118,85 " style="fill:#1580d8; stroke-width:1; stroke:black; " description="&lt;b&gt;AV641_RS13940&lt;/b&gt;&lt;br&gt;GNAT family N-acetyltransferase&lt;br&gt;Location: 3126260 - 3125241&lt;br&gt;&lt;br&gt;&lt;b&gt;BlastP hit with JNAJGP_24140&lt;/b&gt;&lt;br&gt;Percentage identity: 92&lt;br&gt;Percentage coverage: 100&lt;br&gt;BLAST bit score: 667&lt;br&gt;E-value: 1.13e-243" locus_tag="AV641_RS13940" class="clusterblast-orf" id="dummy-9_h9_4_7"  />
</g>
<g id="a9_008"  >
<polygon points="130,85 135,80 152,80 152,90 135,90 130,85 " style="fill:#c715d8; stroke-width:1; stroke:black; " description="&lt;b&gt;AV641_RS13935&lt;/b&gt;&lt;br&gt;Fe(3+)-hydroxamate ABC transporter permease FhuB&lt;br&gt;Location: 3125079 - 3123091&lt;br&gt;&lt;br&gt;&lt;b&gt;BlastP hit with JNAJGP_24145&lt;/b&gt;&lt;br&gt;Percentage identity: 90&lt;br&gt;Percentage coverage: 100&lt;br&gt;BLAST bit score: 1075&lt;br&gt;E-value: 0.0" locus_tag="AV641_RS13935" class="clusterblast-orf" id="dummy-9_h9_4_8"  />
</g>
<g id="a9_009"  >
<polygon points="151,85 156,80 161,80 161,90 156,90 151,85 " style="fill:#d88015; stroke-width:1; stroke:black; " description="&lt;b&gt;AV641_RS13930&lt;/b&gt;&lt;br&gt;ABC transporter substrate-binding protein&lt;br&gt;Location: 3123098 - 3122187&lt;br&gt;&lt;br&gt;&lt;b&gt;BlastP hit with JNAJGP_24150&lt;/b&gt;&lt;br&gt;Percentage identity: 86&lt;br&gt;Percentage coverage: 99&lt;br&gt;BLAST bit score: 508&lt;br&gt;E-value: 6.05e-182" locus_tag="AV641_RS13930" class="clusterblast-orf" id="dummy-9_h9_4_9"  />
</g>
<g id="a9_0010"  >
<polygon points="163,90 176,90 181,85 176,80 163,80 163,90 " style="fill:#15d839; stroke-width:1; stroke:black; " description="&lt;b&gt;AV641_RS13925&lt;/b&gt;&lt;br&gt;cyclic peptide export ABC transporter&lt;br&gt;Location: 3121993 - 3120341&lt;br&gt;&lt;br&gt;&lt;b&gt;BlastP hit with JNAJGP_24155&lt;/b&gt;&lt;br&gt;Percentage identity: 93&lt;br&gt;Percentage coverage: 99&lt;br&gt;BLAST bit score: 948&lt;br&gt;E-value: 0.0" locus_tag="AV641_RS13925" class="clusterblast-orf" id="dummy-9_h9_4_10"  />
</g>
<g id="a9_0011"  >
<polygon points="198,90 201,90 206,85 201,80 198,80 198,90 " style="fill:#155cd8; stroke-width:1; stroke:black; " description="&lt;b&gt;AV641_RS13915&lt;/b&gt;&lt;br&gt;alpha/beta fold hydrolase&lt;br&gt;Location: 3118740 - 3117982&lt;br&gt;&lt;br&gt;&lt;b&gt;BlastP hit with JNAJGP_24160&lt;/b&gt;&lt;br&gt;Percentage identity: 85&lt;br&gt;Percentage coverage: 102&lt;br&gt;BLAST bit score: 417&lt;br&gt;E-value: 1.85e-147" locus_tag="AV641_RS13915" class="clusterblast-orf" id="dummy-9_h9_4_11"  />
</g>
<g id="a9_0012"  >
<polygon points="206,90 212,90 217,85 212,80 206,80 206,90 " style="fill:#d815c7; stroke-width:1; stroke:black; " description="&lt;b&gt;AV641_RS13910&lt;/b&gt;&lt;br&gt;TauD/TfdA family dioxygenase&lt;br&gt;Location: 3117942 - 3116962&lt;br&gt;&lt;br&gt;&lt;b&gt;BlastP hit with JNAJGP_24165&lt;/b&gt;&lt;br&gt;Percentage identity: 93&lt;br&gt;Percentage coverage: 100&lt;br&gt;BLAST bit score: 629&lt;br&gt;E-value: 5.05e-229" locus_tag="AV641_RS13910" class="clusterblast-orf" id="dummy-9_h9_4_12"  />
</g>
<g id="a9_0013"  >
<polygon points="217,90 251,90 256,85 251,80 217,80 217,90 " style="fill:#d815c7; stroke-width:1; stroke:black; " description="&lt;b&gt;AV641_RS13905&lt;/b&gt;&lt;br&gt;AMP-binding protein&lt;br&gt;Location: 3116912 - 3113298&lt;br&gt;&lt;br&gt;&lt;b&gt;BlastP hit with JNAJGP_24170&lt;/b&gt;&lt;br&gt;Percentage identity: 86&lt;br&gt;Percentage coverage: 80&lt;br&gt;BLAST bit score: 2011&lt;br&gt;E-value: 0.0" locus_tag="AV641_RS13905" class="clusterblast-orf" id="dummy-9_h9_4_13"  />
</g>
<g id="a9_0014"  >
<polygon points="256,90 260,90 265,85 260,80 256,80 256,90 " style="fill:#d815c7; stroke-width:1; stroke:black; " description="&lt;b&gt;AV641_RS23840&lt;/b&gt;&lt;br&gt;TauD/TfdA family dioxygenase&lt;br&gt;Location: 3113301 - 3112441&lt;br&gt;&lt;br&gt;&lt;b&gt;BlastP hit with JNAJGP_24165&lt;/b&gt;&lt;br&gt;Percentage identity: 46&lt;br&gt;Percentage coverage: 80&lt;br&gt;BLAST bit score: 243&lt;br&gt;E-value: 4.6e-77&lt;br&gt;&lt;br&gt;&lt;b&gt;BlastP hit with JNAJGP_24170&lt;/b&gt;&lt;br&gt;Percentage identity: 93&lt;br&gt;Percentage coverage: 19&lt;br&gt;BLAST bit score: 560&lt;br&gt;E-value: 9.45e-187" locus_tag="AV641_RS23840" class="clusterblast-orf" id="dummy-9_h9_4_14"  />
</g>
<g id="a9_0015"  >
<polygon points="265,90 294,90 299,85 294,80 265,80 265,90 " style="fill:#d815c7; stroke-width:1; stroke:black; " description="&lt;b&gt;AV641_RS13900&lt;/b&gt;&lt;br&gt;amino acid adenylation domain-containing protein&lt;br&gt;Location: 3112430 - 3109284&lt;br&gt;&lt;br&gt;&lt;b&gt;BlastP hit with JNAJGP_24175&lt;/b&gt;&lt;br&gt;Percentage identity: 78&lt;br&gt;Percentage coverage: 100&lt;br&gt;BLAST bit score: 1582&lt;br&gt;E-value: 0.0" locus_tag="AV641_RS13900" class="clusterblast-orf" id="dummy-9_h9_4_15"  />
</g>
<g id="a9_0016"  >
<polygon points="299,90 318,90 323,85 318,80 299,80 299,90 " style="fill:#d815c7; stroke-width:1; stroke:black; " description="&lt;b&gt;AV641_RS13895&lt;/b&gt;&lt;br&gt;condensation domain-containing protein&lt;br&gt;Location: 3109235 - 3106983&lt;br&gt;&lt;br&gt;&lt;b&gt;BlastP hit with JNAJGP_24180&lt;/b&gt;&lt;br&gt;Percentage identity: 85&lt;br&gt;Percentage coverage: 28&lt;br&gt;BLAST bit score: 1214&lt;br&gt;E-value: 0.0" locus_tag="AV641_RS13895" class="clusterblast-orf" id="dummy-9_h9_4_16"  />
</g>
<g id="a9_0017"  >
<polygon points="323,90 377,90 382,85 377,80 323,80 323,90 " style="fill:#d815c7; stroke-width:1; stroke:black; " description="&lt;b&gt;AV641_RS13890&lt;/b&gt;&lt;br&gt;non-ribosomal peptide synthetase&lt;br&gt;Location: 3107056 - 3101513&lt;br&gt;&lt;br&gt;&lt;b&gt;BlastP hit with JNAJGP_24175&lt;/b&gt;&lt;br&gt;Percentage identity: 33&lt;br&gt;Percentage coverage: 88&lt;br&gt;BLAST bit score: 348&lt;br&gt;E-value: 2.21e-98&lt;br&gt;&lt;br&gt;&lt;b&gt;BlastP hit with JNAJGP_24180&lt;/b&gt;&lt;br&gt;Percentage identity: 85&lt;br&gt;Percentage coverage: 72&lt;br&gt;BLAST bit score: 3153&lt;br&gt;E-value: 0.0&lt;br&gt;&lt;br&gt;&lt;b&gt;BlastP hit with JNAJGP_24185&lt;/b&gt;&lt;br&gt;Percentage identity: 61&lt;br&gt;Percentage coverage: 45&lt;br&gt;BLAST bit score: 2086&lt;br&gt;E-value: 0.0" locus_tag="AV641_RS13890" class="clusterblast-orf" id="dummy-9_h9_4_17"  />
</g>
<g id="a9_0018"  >
<polygon points="382,90 480,90 485,85 480,80 382,80 382,90 " style="fill:#d815c7; stroke-width:1; stroke:black; " description="&lt;b&gt;AV641_RS23835&lt;/b&gt;&lt;br&gt;amino acid adenylation domain-containing protein&lt;br&gt;Location: 3101516 - 3091869&lt;br&gt;&lt;br&gt;&lt;b&gt;BlastP hit with JNAJGP_24175&lt;/b&gt;&lt;br&gt;Percentage identity: 38&lt;br&gt;Percentage coverage: 58&lt;br&gt;BLAST bit score: 316&lt;br&gt;E-value: 2.85e-87&lt;br&gt;&lt;br&gt;&lt;b&gt;BlastP hit with JNAJGP_24180&lt;/b&gt;&lt;br&gt;Percentage identity: 53&lt;br&gt;Percentage coverage: 100&lt;br&gt;BLAST bit score: 2402&lt;br&gt;E-value: 0.0&lt;br&gt;&lt;br&gt;&lt;b&gt;BlastP hit with JNAJGP_24185&lt;/b&gt;&lt;br&gt;Percentage identity: 85&lt;br&gt;Percentage coverage: 78&lt;br&gt;BLAST bit score: 5364&lt;br&gt;E-value: 0.0&lt;br&gt;&lt;br&gt;&lt;b&gt;BlastP hit with JNAJGP_24190&lt;/b&gt;&lt;br&gt;Percentage identity: 37&lt;br&gt;Percentage coverage: 80&lt;br&gt;BLAST bit score: 551&lt;br&gt;E-value: 1.89e-163" locus_tag="AV641_RS23835" class="clusterblast-orf" id="dummy-9_h9_4_18"  />
</g>
<g id="a9_0019"  >
<polygon points="485,90 508,90 513,85 508,80 485,80 485,90 " style="fill:#d815c7; stroke-width:1; stroke:black; " description="&lt;b&gt;AV641_RS23940&lt;/b&gt;&lt;br&gt;non-ribosomal peptide synthetase&lt;br&gt;Location: 3091815 - 3089179&lt;br&gt;&lt;br&gt;&lt;b&gt;BlastP hit with JNAJGP_24175&lt;/b&gt;&lt;br&gt;Percentage identity: 35&lt;br&gt;Percentage coverage: 77&lt;br&gt;BLAST bit score: 330&lt;br&gt;E-value: 7.25e-96&lt;br&gt;&lt;br&gt;&lt;b&gt;BlastP hit with JNAJGP_24180&lt;/b&gt;&lt;br&gt;Percentage identity: 72&lt;br&gt;Percentage coverage: 34&lt;br&gt;BLAST bit score: 1254&lt;br&gt;E-value: 0.0&lt;br&gt;&lt;br&gt;&lt;b&gt;BlastP hit with JNAJGP_24185&lt;/b&gt;&lt;br&gt;Percentage identity: 88&lt;br&gt;Percentage coverage: 21&lt;br&gt;BLAST bit score: 1565&lt;br&gt;E-value: 0.0" locus_tag="AV641_RS23940" class="clusterblast-orf" id="dummy-9_h9_4_19"  />
</g>
<g id="a9_0020"  >
<polygon points="513,90 552,90 557,85 552,80 513,80 513,90 " style="fill:#d815c7; stroke-width:1; stroke:black; " description="&lt;b&gt;AV641_RS13880&lt;/b&gt;&lt;br&gt;non-ribosomal peptide synthetase&lt;br&gt;Location: 3089177 - 3085119&lt;br&gt;&lt;br&gt;&lt;b&gt;BlastP hit with JNAJGP_24175&lt;/b&gt;&lt;br&gt;Percentage identity: 33&lt;br&gt;Percentage coverage: 84&lt;br&gt;BLAST bit score: 307&lt;br&gt;E-value: 3.19e-85&lt;br&gt;&lt;br&gt;&lt;b&gt;BlastP hit with JNAJGP_24190&lt;/b&gt;&lt;br&gt;Percentage identity: 85&lt;br&gt;Percentage coverage: 100&lt;br&gt;BLAST bit score: 2224&lt;br&gt;E-value: 0.0" locus_tag="AV641_RS13880" class="clusterblast-orf" id="dummy-9_h9_4_20"  />
</g>
<g id="a9_0021"  >
<polygon points="558,90 567,90 572,85 567,80 558,80 558,90 " style="fill:#d8a315; stroke-width:1; stroke:black; " description="&lt;b&gt;AV641_RS13875&lt;/b&gt;&lt;br&gt;SidA/IucD/PvdA family monooxygenase&lt;br&gt;Location: 3085045 - 3083696&lt;br&gt;&lt;br&gt;&lt;b&gt;BlastP hit with JNAJGP_24195&lt;/b&gt;&lt;br&gt;Percentage identity: 88&lt;br&gt;Percentage coverage: 98&lt;br&gt;BLAST bit score: 763&lt;br&gt;E-value: 1.42e-277" locus_tag="AV641_RS13875" class="clusterblast-orf" id="dummy-9_h9_4_21"  />
</g>
<g id="a9_0022"  >
<polygon points="573,90 576,90 581,85 576,80 573,80 573,90 " style="fill:#15d85c; stroke-width:1; stroke:black; " description="&lt;b&gt;AV641_RS13870&lt;/b&gt;&lt;br&gt;siderophore-iron reductase FhuF&lt;br&gt;Location: 3083610 - 3082846&lt;br&gt;&lt;br&gt;&lt;b&gt;BlastP hit with JNAJGP_24200&lt;/b&gt;&lt;br&gt;Percentage identity: 84&lt;br&gt;Percentage coverage: 100&lt;br&gt;BLAST bit score: 434&lt;br&gt;E-value: 3.25e-154" locus_tag="AV641_RS13870" class="clusterblast-orf" id="dummy-9_h9_4_22"  />
</g>
<g id="a9_0023"  >
<polygon points="581,85 586,80 589,80 589,90 586,90 581,85 " style="fill:#1539d8; stroke-width:1; stroke:black; " description="&lt;b&gt;AV641_RS13865&lt;/b&gt;&lt;br&gt;ATP-binding cassette domain-containing protein&lt;br&gt;Location: 3082830 - 3082063&lt;br&gt;&lt;br&gt;&lt;b&gt;BlastP hit with JNAJGP_24205&lt;/b&gt;&lt;br&gt;Percentage identity: 93&lt;br&gt;Percentage coverage: 100&lt;br&gt;BLAST bit score: 474&lt;br&gt;E-value: 3.94e-170" locus_tag="AV641_RS13865" class="clusterblast-orf" id="dummy-9_h9_4_23"  />
</g>
<g id="a9_0024"  >
<polygon points="591,90 592,90 597,85 592,80 591,80 591,90 " style="fill:white; stroke-width:1; stroke:black; " description="&lt;b&gt;AV641_RS13860&lt;/b&gt;&lt;br&gt;sigma-70 family RNA polymerase sigma factor&lt;br&gt;Location: 3081875 - 3081381" locus_tag="AV641_RS13860" class="clusterblast-orf" id="dummy-9_h9_4_24"  />
</g>
<g id="a9_0025"  >
<polygon points="597,90 602,90 607,85 602,80 597,80 597,90 " style="fill:white; stroke-width:1; stroke:black; " description="&lt;b&gt;AV641_RS13855&lt;/b&gt;&lt;br&gt;FecR family protein&lt;br&gt;Location: 3081357 - 3080386" locus_tag="AV641_RS13855" class="clusterblast-orf" id="dummy-9_h9_4_25"  />
</g>
<g id="a9_0026"  >
<polygon points="609,90 630,90 635,85 630,80 609,80 609,90 " style="fill:white; stroke-width:1; stroke:black; " description="&lt;b&gt;AV641_RS13850&lt;/b&gt;&lt;br&gt;TonB-dependent receptor&lt;br&gt;Location: 3080226 - 3077809" locus_tag="AV641_RS13850" class="clusterblast-orf" id="dummy-9_h9_4_26"  />
</g>
<g id="a9_0027"  >
<polygon points="639,85 644,80 648,80 648,90 644,90 639,85 " style="fill:#15a3d8; stroke-width:1; stroke:black; " description="&lt;b&gt;AV641_RS13845&lt;/b&gt;&lt;br&gt;LysR family transcriptional regulator&lt;br&gt;Location: 3077421 - 3076540&lt;br&gt;&lt;br&gt;&lt;b&gt;BlastP hit with JNAJGP_24120&lt;/b&gt;&lt;br&gt;Percentage identity: 31&lt;br&gt;Percentage coverage: 95&lt;br&gt;BLAST bit score: 125&lt;br&gt;E-value: 7.28e-32" locus_tag="AV641_RS13845" class="clusterblast-orf" id="dummy-9_h9_4_27"  />
</g>
<g id="a9_0028"  >
<polygon points="649,90 655,90 660,85 655,80 649,80 649,90 " style="fill:white; stroke-width:1; stroke:black; " description="&lt;b&gt;AV641_RS13840&lt;/b&gt;&lt;br&gt;NAD(P)-dependent alcohol dehydrogenase&lt;br&gt;Location: 3076449 - 3075412" locus_tag="AV641_RS13840" class="clusterblast-orf" id="dummy-9_h9_4_28"  />
</g>
<g id="a9_0029"  >
<polygon points="662,85 667,80 674,80 674,90 667,90 662,85 " style="fill:white; stroke-width:1; stroke:black; " description="&lt;b&gt;AV641_RS13835&lt;/b&gt;&lt;br&gt;MFS transporter&lt;br&gt;Location: 3075233 - 3074082" locus_tag="AV641_RS13835" class="clusterblast-orf" id="dummy-9_h9_4_29"  />
</g>
<g id="a9_0030"  >
<polygon points="676,90 676,90 681,85 676,80 676,80 676,90 " style="fill:white; stroke-width:1; stroke:black; " description="&lt;b&gt;AV641_RS13830&lt;/b&gt;&lt;br&gt;RidA family protein&lt;br&gt;Location: 3073933 - 3073511" locus_tag="AV641_RS13830" class="clusterblast-orf" id="dummy-9_h9_4_30"  />
</g>
<g id="a9_0031"  >
<polygon points="682,85 687,80 703,80 703,90 687,90 682,85 " style="fill:white; stroke-width:1; stroke:black; " description="&lt;b&gt;AV641_RS13825&lt;/b&gt;&lt;br&gt;excinuclease ABC subunit UvrB&lt;br&gt;Location: 3073396 - 3071381" locus_tag="AV641_RS13825" class="clusterblast-orf" id="dummy-9_h9_4_31"  />
</g>
<g id="a9_0032"  >
<polygon points="707,90 715,90 720,85 715,80 707,80 707,90 " style="fill:white; stroke-width:1; stroke:black; " description="&lt;b&gt;AV641_RS13820&lt;/b&gt;&lt;br&gt;aspartate/tyrosine/aromatic aminotransferase&lt;br&gt;Location: 3071046 - 3069850" locus_tag="AV641_RS13820" class="clusterblast-orf" id="dummy-9_h9_4_32"  />
</g>
<g id="a9_0033"  >
<polygon points="723,85 728,80 755,80 755,90 728,90 723,85 " style="fill:white; stroke-width:1; stroke:black; " description="&lt;b&gt;AV641_RS13810&lt;/b&gt;&lt;br&gt;FAD-binding and (Fe-S)-binding domain-containing protein&lt;br&gt;Location: 3069556 - 3066503" locus_tag="AV641_RS13810" class="clusterblast-orf" id="dummy-9_h9_4_33"  />
</g>
<g id="a9_0034"  >
<polygon points="757,90 762,90 767,85 762,80 757,80 757,90 " style="fill:white; stroke-width:1; stroke:black; " description="&lt;b&gt;AV641_RS13805&lt;/b&gt;&lt;br&gt;LysR substrate-binding domain-containing protein&lt;br&gt;Location: 3066344 - 3065439" locus_tag="AV641_RS13805" class="clusterblast-orf" id="dummy-9_h9_4_34"  />
</g>
<g id="a9_0035"  >
<polygon points="767,85 772,80 777,80 777,90 772,90 767,85 " style="fill:white; stroke-width:1; stroke:black; " description="&lt;b&gt;AV641_RS13800&lt;/b&gt;&lt;br&gt;sugar ABC transporter substrate-binding protein&lt;br&gt;Location: 3065429 - 3064503" locus_tag="AV641_RS13800" class="clusterblast-orf" id="dummy-9_h9_4_35"  />
</g>
</svg>
