<svg xmlns="http://www.w3.org/2000/svg" xmlns:xlink="http://www.w3.org/1999/xlink" version="1.1" x="0" y="0" height="230" width="800" viewBox="0 0 800 230" preserveAspectRatio="none"  >
<g label="Query sequence" class="clusterblast-cluster"  >
<text x="5" y="20" class="clusterblast-acc"  >
Query sequence</text>
<line x1="10" y1="35" x2="778.0" y2="35" style="stroke-width:1; stroke:grey; "  />
<polygon points="1,35 6,30 40,30 40,40 6,40 1,35 " style="fill:#d81515; stroke-width:1; stroke:black; " description="&lt;b&gt;JNAJGP_10370&lt;/b&gt;&lt;br&gt;Membrane fusion protein biotin-lipoyl like domain-containing protein&lt;br&gt;Location: 2187504 - 2189601" locus_tag="JNAJGP_10370" class="clusterblast-orf" id="dummy-4_q0_0_all"  />
<polygon points="40,35 45,30 64,30 64,40 45,40 40,35 " style="fill:#58d815; stroke-width:1; stroke:black; " description="&lt;b&gt;JNAJGP_10375&lt;/b&gt;&lt;br&gt;Membrane fusion protein biotin-lipoyl like domain-containing protein&lt;br&gt;Location: 2189600 - 2190920" locus_tag="JNAJGP_10375" class="clusterblast-orf" id="dummy-4_q1_0_all"  />
<polygon points="64,35 69,30 78,30 78,40 69,40 64,35 " style="fill:#15c4d8; stroke-width:1; stroke:black; " description="&lt;b&gt;JNAJGP_10380&lt;/b&gt;&lt;br&gt;Membrane fusion protein biotin-lipoyl like domain-containing protein&lt;br&gt;Location: 2190916 - 2191690" locus_tag="JNAJGP_10380" class="clusterblast-orf" id="dummy-4_q2_0_all"  />
<polygon points="81,40 116,40 121,35 116,30 81,30 81,40 " style="fill:#8115d8; stroke-width:1; stroke:black; " description="&lt;b&gt;JNAJGP_10385&lt;/b&gt;&lt;br&gt;Outer membrane assembly lipoprotein YfiO&lt;br&gt;Location: 2191852 - 2194012" locus_tag="JNAJGP_10385" class="clusterblast-orf" id="dummy-4_q3_0_all"  />
<polygon points="121,40 129,40 134,35 129,30 121,30 121,40 " style="fill:#d83e15; stroke-width:1; stroke:black; " description="&lt;b&gt;JNAJGP_10390&lt;/b&gt;&lt;br&gt;DUF3142 domain-containing protein&lt;br&gt;Location: 2194008 - 2194713" locus_tag="JNAJGP_10390" class="clusterblast-orf" id="dummy-4_q4_0_all"  />
<polygon points="139,40 143,35 139,30 139,40 " style="fill:#30d815; stroke-width:1; stroke:black; " description="&lt;b&gt;JNAJGP_10395&lt;/b&gt;&lt;br&gt;Nucleotidyl transferase AbiEii/AbiGii toxin family protein&lt;br&gt;Location: 2195001 - 2195217" locus_tag="JNAJGP_10395" class="clusterblast-orf" id="dummy-4_q5_0_all"  />
<polygon points="150,35 155,30 176,30 176,40 155,40 150,35 " style="fill:#159cd8; stroke-width:1; stroke:black; " description="&lt;b&gt;JNAJGP_10400&lt;/b&gt;&lt;br&gt;RND transporter&lt;br&gt;Location: 2195577 - 2197023" locus_tag="JNAJGP_10400" class="clusterblast-orf" id="dummy-4_q6_0_all"  />
<polygon points="176,35 181,30 196,30 196,40 181,40 176,35 " style="fill:#a915d8; stroke-width:1; stroke:black; " description="&lt;b&gt;JNAJGP_10405&lt;/b&gt;&lt;br&gt;HlyD family secretion protein&lt;br&gt;Location: 2197019 - 2198078" locus_tag="JNAJGP_10405" class="clusterblast-orf" id="dummy-4_q7_0_all"  />
<polygon points="196,35 201,30 224,30 224,40 201,40 196,35 " style="fill:#d86615; stroke-width:1; stroke:black; " description="&lt;b&gt;JNAJGP_10410&lt;/b&gt;&lt;br&gt;Major facilitator superfamily (MFS) profile domain-containing protein&lt;br&gt;Location: 2198094 - 2199630" locus_tag="JNAJGP_10410" class="clusterblast-orf" id="dummy-4_q8_0_all"  />
<polygon points="228,35 233,30 245,30 245,40 233,40 228,35 " style="fill:#15d823; stroke-width:1; stroke:black; " description="&lt;b&gt;JNAJGP_10415&lt;/b&gt;&lt;br&gt;HTH lysR-type domain-containing protein&lt;br&gt;Location: 2199845 - 2200766" locus_tag="JNAJGP_10415" class="clusterblast-orf" id="dummy-4_q9_0_all"  />
<polygon points="246,35 251,30 262,30 262,40 251,40 246,35 " style="fill:#1573d8; stroke-width:1; stroke:black; " description="&lt;b&gt;JNAJGP_10420&lt;/b&gt;&lt;br&gt;ABC transmembrane type-1 domain-containing protein&lt;br&gt;Location: 2200820 - 2201669" locus_tag="JNAJGP_10420" class="clusterblast-orf" id="dummy-4_q10_0_all"  />
<polygon points="262,35 267,30 278,30 278,40 267,40 262,35 " style="fill:#d215d8; stroke-width:1; stroke:black; " description="&lt;b&gt;JNAJGP_10425&lt;/b&gt;&lt;br&gt;Vitamin B12 import ATP-binding protein BtuD&lt;br&gt;Location: 2201680 - 2202532" locus_tag="JNAJGP_10425" class="clusterblast-orf" id="dummy-4_q11_0_all"  />
<polygon points="278,35 283,30 297,30 297,40 283,40 278,35 " style="fill:#d88e15; stroke-width:1; stroke:black; " description="&lt;b&gt;JNAJGP_10430&lt;/b&gt;&lt;br&gt;SsuA/THI5-like domain-containing protein&lt;br&gt;Location: 2202533 - 2203559" locus_tag="JNAJGP_10430" class="clusterblast-orf" id="dummy-4_q12_0_all"  />
<polygon points="297,35 302,30 313,30 313,40 302,40 297,35 " style="fill:#15d84b; stroke-width:1; stroke:black; " description="&lt;b&gt;JNAJGP_10435&lt;/b&gt;&lt;br&gt;Alpha-ketoglutarate-dependent taurine dioxygenase&lt;br&gt;Location: 2203573 - 2204467" locus_tag="JNAJGP_10435" class="clusterblast-orf" id="dummy-4_q13_0_all"  />
<polygon points="318,40 326,40 331,35 326,30 318,30 318,40 " style="fill:#154bd8; stroke-width:1; stroke:black; " description="&lt;b&gt;JNAJGP_10440&lt;/b&gt;&lt;br&gt;HTH gntR-type domain-containing protein&lt;br&gt;Location: 2204734 - 2205445" locus_tag="JNAJGP_10440" class="clusterblast-orf" id="dummy-4_q14_0_all"  />
<polygon points="337,40 346,40 351,35 346,30 337,30 337,40 " style="fill:#d815b7; stroke-width:1; stroke:black; " description="&lt;b&gt;JNAJGP_10445&lt;/b&gt;&lt;br&gt;Mangotoxin biosynthesis-involved protein MgoB&lt;br&gt;Location: 2205768 - 2206527" locus_tag="JNAJGP_10445" class="clusterblast-orf" id="dummy-4_q15_0_all"  />
<polygon points="351,40 364,40 369,35 364,30 351,30 351,40 " style="fill:#d8b715; stroke-width:1; stroke:black; " description="&lt;b&gt;JNAJGP_10450&lt;/b&gt;&lt;br&gt;p-aminobenzoate N-oxygenase AurF&lt;br&gt;Location: 2206523 - 2207462" locus_tag="JNAJGP_10450" class="clusterblast-orf" id="dummy-4_q16_0_all"  />
<polygon points="369,40 426,40 431,35 426,30 369,30 369,40 " style="fill:#15d873; stroke-width:1; stroke:black; " description="&lt;b&gt;JNAJGP_10455&lt;/b&gt;&lt;br&gt;Amino acid adenylation:thioester reductase&lt;br&gt;Location: 2207458 - 2210839" locus_tag="JNAJGP_10455" class="clusterblast-orf" id="dummy-4_q17_0_all"  />
<polygon points="431,40 435,40 440,35 435,30 431,30 431,40 " style="fill:#1523d8; stroke-width:1; stroke:black; " description="&lt;b&gt;JNAJGP_10460&lt;/b&gt;&lt;br&gt;Polyketide cyclase/dehydrase&lt;br&gt;Location: 2210858 - 2211323" locus_tag="JNAJGP_10460" class="clusterblast-orf" id="dummy-4_q18_0_all"  />
<polygon points="440,35 445,30 475,30 475,40 445,40 440,35 " style="fill:#d8158e; stroke-width:1; stroke:black; " description="&lt;b&gt;JNAJGP_10465&lt;/b&gt;&lt;br&gt;Chemotaxis protein&lt;br&gt;Location: 2211358 - 2213239" locus_tag="JNAJGP_10465" class="clusterblast-orf" id="dummy-4_q19_0_all"  />
<polygon points="587,35 592,30 609,30 609,40 592,40 587,35 " style="fill:#d2d815; stroke-width:1; stroke:black; " description="&lt;b&gt;JNAJGP_10495&lt;/b&gt;&lt;br&gt;CoA-transferase&lt;br&gt;Location: 2219310 - 2220531" locus_tag="JNAJGP_10495" class="clusterblast-orf" id="dummy-4_q20_0_all"  />
<polygon points="610,35 615,30 631,30 631,40 615,40 610,35 " style="fill:#15d89c; stroke-width:1; stroke:black; " description="&lt;b&gt;JNAJGP_10500&lt;/b&gt;&lt;br&gt;Acyl-CoA dehydrogenase related to the alkylation response protein AidB&lt;br&gt;Location: 2220543 - 2221725" locus_tag="JNAJGP_10500" class="clusterblast-orf" id="dummy-4_q21_0_all"  />
<polygon points="634,40 646,40 651,35 646,30 634,30 634,40 " style="fill:#3015d8; stroke-width:1; stroke:black; " description="&lt;b&gt;JNAJGP_10505&lt;/b&gt;&lt;br&gt;HTH lysR-type domain-containing protein&lt;br&gt;Location: 2221881 - 2222781" locus_tag="JNAJGP_10505" class="clusterblast-orf" id="dummy-4_q22_0_all"  />
<polygon points="659,40 675,40 680,35 675,30 659,30 659,40 " style="fill:#d81566; stroke-width:1; stroke:black; " description="&lt;b&gt;JNAJGP_10510&lt;/b&gt;&lt;br&gt;Re/Si-specific NAD(P)(+) transhydrogenase subunit alpha&lt;br&gt;Location: 2223233 - 2224355" locus_tag="JNAJGP_10510" class="clusterblast-orf" id="dummy-4_q23_0_all"  />
<polygon points="680,40 681,40 686,35 681,30 680,30 680,40 " style="fill:#a9d815; stroke-width:1; stroke:black; " description="&lt;b&gt;JNAJGP_10515&lt;/b&gt;&lt;br&gt;proton-translocating NAD(P)(+) transhydrogenase&lt;br&gt;Location: 2224370 - 2224691" locus_tag="JNAJGP_10515" class="clusterblast-orf" id="dummy-4_q24_0_all"  />
<polygon points="686,40 707,40 712,35 707,30 686,30 686,40 " style="fill:#15d8c4; stroke-width:1; stroke:black; " description="&lt;b&gt;JNAJGP_10520&lt;/b&gt;&lt;br&gt;NAD/NADP transhydrogenase beta subunit&lt;br&gt;Location: 2224690 - 2226127" locus_tag="JNAJGP_10520" class="clusterblast-orf" id="dummy-4_q25_0_all"  />
<polygon points="716,40 738,40 743,35 738,30 716,30 716,40 " style="fill:#5815d8; stroke-width:1; stroke:black; " description="&lt;b&gt;JNAJGP_10525&lt;/b&gt;&lt;br&gt;Propionyl CoA:succinate CoA transferase&lt;br&gt;Location: 2226306 - 2227800" locus_tag="JNAJGP_10525" class="clusterblast-orf" id="dummy-4_q26_0_all"  />
<polygon points="749,40 753,35 749,30 749,40 " style="fill:#d8153e; stroke-width:1; stroke:black; " description="&lt;b&gt;JNAJGP_10530&lt;/b&gt;&lt;br&gt;DUF1127 domain-containing protein&lt;br&gt;Location: 2228118 - 2228334" locus_tag="JNAJGP_10530" class="clusterblast-orf" id="dummy-4_q27_0_all"  />
<polygon points="758,40 759,40 764,35 759,30 758,30 758,40 " style="fill:#81d815; stroke-width:1; stroke:black; " description="&lt;b&gt;JNAJGP_10535&lt;/b&gt;&lt;br&gt;Holliday junction resolvasome, helicase subunit&lt;br&gt;Location: 2228618 - 2228939" locus_tag="JNAJGP_10535" class="clusterblast-orf" id="dummy-4_q28_0_all"  />
<polygon points="766,40 767,40 772,35 767,30 766,30 766,40 " style="fill:#81d815; stroke-width:1; stroke:black; " description="&lt;b&gt;JNAJGP_10540&lt;/b&gt;&lt;br&gt;Holliday junction resolvasome, helicase subunit&lt;br&gt;Location: 2229038 - 2229347" locus_tag="JNAJGP_10540" class="clusterblast-orf" id="dummy-4_q29_0_all"  />
<polygon points="772,40 773,40 778,35 773,30 772,30 772,40 " style="fill:#81d815; stroke-width:1; stroke:black; " description="&lt;b&gt;JNAJGP_10545&lt;/b&gt;&lt;br&gt;DUF2388 domain-containing protein&lt;br&gt;Location: 2229386 - 2229707" locus_tag="JNAJGP_10545" class="clusterblast-orf" id="dummy-4_q30_0_all"  />
</g>
<g label="NZ_CP120377" description="NZ_CP120377 (365595-408967): Pseudomonas sp. G11 chromosome, complete genome (90% of genes show similarity), NRPS-like" class="clusterblast-cluster"  >
<text x="5" y="70" class="clusterblast-acc"  >
<a xlink:href="https://antismash-db.secondarymetabolites.org/area?record=NZ_CP120377&amp;start=365595&amp;end=408967" target="_blank">NZ_CP120377 (365595-408967)</a>: Pseudomonas sp. G11 chromosome, complete genome (90% of genes show similarity), NRPS-like</text>
<line x1="10" y1="85" x2="778.0" y2="85" style="stroke-width:1; stroke:grey; "  />
</g>
<g id="a4_000"  >
<polygon points="0,85 5,80 24,80 24,90 5,90 0,85 " style="fill:#58d815; stroke-width:1; stroke:black; " description="&lt;b&gt;P2T68_RS01825&lt;/b&gt;&lt;br&gt;HlyD family efflux transporter periplasmic adaptor subunit&lt;br&gt;Location: 408388 - 407069&lt;br&gt;&lt;br&gt;&lt;b&gt;BlastP hit with JNAJGP_10375&lt;/b&gt;&lt;br&gt;Percentage identity: 90&lt;br&gt;Percentage coverage: 100&lt;br&gt;BLAST bit score: 743&lt;br&gt;E-value: 3.56e-270" locus_tag="P2T68_RS01825" class="clusterblast-orf" id="dummy-4_h4_6_0"  />
</g>
<g id="a4_001"  >
<polygon points="24,85 29,80 37,80 37,90 29,90 24,85 " style="fill:#15c4d8; stroke-width:1; stroke:black; " description="&lt;b&gt;P2T68_RS01820&lt;/b&gt;&lt;br&gt;efflux RND transporter periplasmic adaptor subunit&lt;br&gt;Location: 407072 - 406341&lt;br&gt;&lt;br&gt;&lt;b&gt;BlastP hit with JNAJGP_10380&lt;/b&gt;&lt;br&gt;Percentage identity: 89&lt;br&gt;Percentage coverage: 95&lt;br&gt;BLAST bit score: 416&lt;br&gt;E-value: 5.71e-147" locus_tag="P2T68_RS01820" class="clusterblast-orf" id="dummy-4_h4_6_1"  />
</g>
<g id="a4_002"  >
<polygon points="41,90 76,90 81,85 76,80 41,80 41,90 " style="fill:#8115d8; stroke-width:1; stroke:black; " description="&lt;b&gt;P2T68_RS01815&lt;/b&gt;&lt;br&gt;outer membrane assembly lipoprotein YfiO&lt;br&gt;Location: 406141 - 403979&lt;br&gt;&lt;br&gt;&lt;b&gt;BlastP hit with JNAJGP_10385&lt;/b&gt;&lt;br&gt;Percentage identity: 79&lt;br&gt;Percentage coverage: 100&lt;br&gt;BLAST bit score: 1142&lt;br&gt;E-value: 0.0" locus_tag="P2T68_RS01815" class="clusterblast-orf" id="dummy-4_h4_6_2"  />
</g>
<g id="a4_003"  >
<polygon points="81,90 89,90 94,85 89,80 81,80 81,90 " style="fill:#d83e15; stroke-width:1; stroke:black; " description="&lt;b&gt;P2T68_RS01810&lt;/b&gt;&lt;br&gt;DUF3142 domain-containing protein&lt;br&gt;Location: 403982 - 403278&lt;br&gt;&lt;br&gt;&lt;b&gt;BlastP hit with JNAJGP_10390&lt;/b&gt;&lt;br&gt;Percentage identity: 92&lt;br&gt;Percentage coverage: 100&lt;br&gt;BLAST bit score: 455&lt;br&gt;E-value: 4.67e-163" locus_tag="P2T68_RS01810" class="clusterblast-orf" id="dummy-4_h4_6_3"  />
</g>
<g id="a4_004"  >
<polygon points="95,90 103,90 108,85 103,80 95,80 95,90 " style="fill:white; stroke-width:1; stroke:black; " description="&lt;b&gt;P2T68_RS01805&lt;/b&gt;&lt;br&gt;hypothetical protein&lt;br&gt;Location: 403207 - 402518" locus_tag="P2T68_RS01805" class="clusterblast-orf" id="dummy-4_h4_6_4"  />
</g>
<g id="a4_005"  >
<polygon points="108,90 116,90 121,85 116,80 108,80 108,90 " style="fill:#30d815; stroke-width:1; stroke:black; " description="&lt;b&gt;P2T68_RS01800&lt;/b&gt;&lt;br&gt;hypothetical protein&lt;br&gt;Location: 402500 - 401817&lt;br&gt;&lt;br&gt;&lt;b&gt;BlastP hit with JNAJGP_10395&lt;/b&gt;&lt;br&gt;Percentage identity: 82&lt;br&gt;Percentage coverage: 72&lt;br&gt;BLAST bit score: 92&lt;br&gt;E-value: 1.16e-22" locus_tag="P2T68_RS01800" class="clusterblast-orf" id="dummy-4_h4_6_5"  />
</g>
<g id="a4_006"  >
<polygon points="120,90 128,90 133,85 128,80 120,80 120,90 " style="fill:white; stroke-width:1; stroke:black; " description="&lt;b&gt;P2T68_RS01795&lt;/b&gt;&lt;br&gt;protein phosphatase 2C domain-containing protein&lt;br&gt;Location: 401820 - 401149" locus_tag="P2T68_RS01795" class="clusterblast-orf" id="dummy-4_h4_6_6"  />
</g>
<g id="a4_007"  >
<polygon points="136,85 141,80 163,80 163,90 141,90 136,85 " style="fill:#159cd8; stroke-width:1; stroke:black; " description="&lt;b&gt;P2T68_RS01790&lt;/b&gt;&lt;br&gt;efflux transporter outer membrane subunit&lt;br&gt;Location: 400963 - 399518&lt;br&gt;&lt;br&gt;&lt;b&gt;BlastP hit with JNAJGP_10400&lt;/b&gt;&lt;br&gt;Percentage identity: 93&lt;br&gt;Percentage coverage: 100&lt;br&gt;BLAST bit score: 859&lt;br&gt;E-value: 9.13e-315" locus_tag="P2T68_RS01790" class="clusterblast-orf" id="dummy-4_h4_6_7"  />
</g>
<g id="a4_008"  >
<polygon points="163,85 168,80 182,80 182,90 168,90 163,85 " style="fill:#a915d8; stroke-width:1; stroke:black; " description="&lt;b&gt;P2T68_RS01785&lt;/b&gt;&lt;br&gt;HlyD family secretion protein&lt;br&gt;Location: 399521 - 398463&lt;br&gt;&lt;br&gt;&lt;b&gt;BlastP hit with JNAJGP_10405&lt;/b&gt;&lt;br&gt;Percentage identity: 93&lt;br&gt;Percentage coverage: 100&lt;br&gt;BLAST bit score: 593&lt;br&gt;E-value: 7.9e-214" locus_tag="P2T68_RS01785" class="clusterblast-orf" id="dummy-4_h4_6_8"  />
</g>
<g id="a4_009"  >
<polygon points="183,85 188,80 211,80 211,90 188,90 183,85 " style="fill:#d86615; stroke-width:1; stroke:black; " description="&lt;b&gt;P2T68_RS01780&lt;/b&gt;&lt;br&gt;MFS transporter&lt;br&gt;Location: 398447 - 396912&lt;br&gt;&lt;br&gt;&lt;b&gt;BlastP hit with JNAJGP_10410&lt;/b&gt;&lt;br&gt;Percentage identity: 92&lt;br&gt;Percentage coverage: 100&lt;br&gt;BLAST bit score: 915&lt;br&gt;E-value: 0.0" locus_tag="P2T68_RS01780" class="clusterblast-orf" id="dummy-4_h4_6_9"  />
</g>
<g id="a4_0010"  >
<polygon points="215,85 220,80 232,80 232,90 220,90 215,85 " style="fill:#15d823; stroke-width:1; stroke:black; " description="&lt;b&gt;P2T68_RS01775&lt;/b&gt;&lt;br&gt;LysR family transcriptional regulator&lt;br&gt;Location: 396679 - 395759&lt;br&gt;&lt;br&gt;&lt;b&gt;BlastP hit with JNAJGP_10415&lt;/b&gt;&lt;br&gt;Percentage identity: 98&lt;br&gt;Percentage coverage: 100&lt;br&gt;BLAST bit score: 591&lt;br&gt;E-value: 1.87e-214" locus_tag="P2T68_RS01775" class="clusterblast-orf" id="dummy-4_h4_6_10"  />
</g>
<g id="a4_0011"  >
<polygon points="233,85 238,80 249,80 249,90 238,90 233,85 " style="fill:#1573d8; stroke-width:1; stroke:black; " description="&lt;b&gt;P2T68_RS01770&lt;/b&gt;&lt;br&gt;ABC transporter permease&lt;br&gt;Location: 395699 - 394851&lt;br&gt;&lt;br&gt;&lt;b&gt;BlastP hit with JNAJGP_10420&lt;/b&gt;&lt;br&gt;Percentage identity: 99&lt;br&gt;Percentage coverage: 100&lt;br&gt;BLAST bit score: 533&lt;br&gt;E-value: 3.04e-192" locus_tag="P2T68_RS01770" class="clusterblast-orf" id="dummy-4_h4_6_11"  />
</g>
<g id="a4_0012"  >
<polygon points="249,85 254,80 265,80 265,90 254,90 249,85 " style="fill:#d215d8; stroke-width:1; stroke:black; " description="&lt;b&gt;P2T68_RS01765&lt;/b&gt;&lt;br&gt;ABC transporter ATP-binding protein&lt;br&gt;Location: 394838 - 393987&lt;br&gt;&lt;br&gt;&lt;b&gt;BlastP hit with JNAJGP_10425&lt;/b&gt;&lt;br&gt;Percentage identity: 96&lt;br&gt;Percentage coverage: 100&lt;br&gt;BLAST bit score: 527&lt;br&gt;E-value: 4.46e-190" locus_tag="P2T68_RS01765" class="clusterblast-orf" id="dummy-4_h4_6_12"  />
</g>
<g id="a4_0013"  >
<polygon points="265,85 270,80 284,80 284,90 270,90 265,85 " style="fill:#d88e15; stroke-width:1; stroke:black; " description="&lt;b&gt;P2T68_RS01760&lt;/b&gt;&lt;br&gt;ABC transporter substrate-binding protein&lt;br&gt;Location: 393985 - 392960&lt;br&gt;&lt;br&gt;&lt;b&gt;BlastP hit with JNAJGP_10430&lt;/b&gt;&lt;br&gt;Percentage identity: 97&lt;br&gt;Percentage coverage: 100&lt;br&gt;BLAST bit score: 663&lt;br&gt;E-value: 8.88e-242" locus_tag="P2T68_RS01760" class="clusterblast-orf" id="dummy-4_h4_6_13"  />
</g>
<g id="a4_0014"  >
<polygon points="284,85 289,80 300,80 300,90 289,90 284,85 " style="fill:#15d84b; stroke-width:1; stroke:black; " description="&lt;b&gt;P2T68_RS01755&lt;/b&gt;&lt;br&gt;TauD/TfdA family dioxygenase&lt;br&gt;Location: 392945 - 392052&lt;br&gt;&lt;br&gt;&lt;b&gt;BlastP hit with JNAJGP_10435&lt;/b&gt;&lt;br&gt;Percentage identity: 94&lt;br&gt;Percentage coverage: 100&lt;br&gt;BLAST bit score: 570&lt;br&gt;E-value: 1.59e-206" locus_tag="P2T68_RS01755" class="clusterblast-orf" id="dummy-4_h4_6_14"  />
</g>
<g id="a4_0015"  >
<polygon points="306,90 314,90 319,85 314,80 306,80 306,90 " style="fill:#154bd8; stroke-width:1; stroke:black; " description="&lt;b&gt;P2T68_RS01750&lt;/b&gt;&lt;br&gt;GntR family transcriptional regulator&lt;br&gt;Location: 391730 - 391032&lt;br&gt;&lt;br&gt;&lt;b&gt;BlastP hit with JNAJGP_10440&lt;/b&gt;&lt;br&gt;Percentage identity: 93&lt;br&gt;Percentage coverage: 97&lt;br&gt;BLAST bit score: 409&lt;br&gt;E-value: 9.2e-145" locus_tag="P2T68_RS01750" class="clusterblast-orf" id="dummy-4_h4_6_15"  />
</g>
<g id="a4_0016"  >
<polygon points="326,90 335,90 340,85 335,80 326,80 326,90 " style="fill:#d815b7; stroke-width:1; stroke:black; " description="&lt;b&gt;P2T68_RS01745&lt;/b&gt;&lt;br&gt;DUF3050 domain-containing protein&lt;br&gt;Location: 390666 - 389908&lt;br&gt;&lt;br&gt;&lt;b&gt;BlastP hit with JNAJGP_10445&lt;/b&gt;&lt;br&gt;Percentage identity: 69&lt;br&gt;Percentage coverage: 100&lt;br&gt;BLAST bit score: 350&lt;br&gt;E-value: 3.48e-121" locus_tag="P2T68_RS01745" class="clusterblast-orf" id="dummy-4_h4_6_16"  />
</g>
<g id="a4_0017"  >
<polygon points="340,90 352,90 357,85 352,80 340,80 340,90 " style="fill:#d8b715; stroke-width:1; stroke:black; " description="&lt;b&gt;P2T68_RS01740&lt;/b&gt;&lt;br&gt;diiron oxygenase&lt;br&gt;Location: 389911 - 388964&lt;br&gt;&lt;br&gt;&lt;b&gt;BlastP hit with JNAJGP_10450&lt;/b&gt;&lt;br&gt;Percentage identity: 83&lt;br&gt;Percentage coverage: 99&lt;br&gt;BLAST bit score: 515&lt;br&gt;E-value: 3.45e-184" locus_tag="P2T68_RS01740" class="clusterblast-orf" id="dummy-4_h4_6_17"  />
</g>
<g id="a4_0018"  >
<polygon points="357,90 414,90 419,85 414,80 357,80 357,90 " style="fill:#15d873; stroke-width:1; stroke:black; " description="&lt;b&gt;P2T68_RS01735&lt;/b&gt;&lt;br&gt;amino acid adenylation domain-containing protein&lt;br&gt;Location: 388967 - 385596&lt;br&gt;&lt;br&gt;&lt;b&gt;BlastP hit with JNAJGP_10455&lt;/b&gt;&lt;br&gt;Percentage identity: 69&lt;br&gt;Percentage coverage: 100&lt;br&gt;BLAST bit score: 1547&lt;br&gt;E-value: 0.0" locus_tag="P2T68_RS01735" class="clusterblast-orf" id="dummy-4_h4_6_18"  />
</g>
<g id="a4_0019"  >
<polygon points="420,90 423,90 428,85 423,80 420,80 420,90 " style="fill:#1523d8; stroke-width:1; stroke:black; " description="&lt;b&gt;P2T68_RS01730&lt;/b&gt;&lt;br&gt;SRPBCC family protein&lt;br&gt;Location: 385576 - 385118&lt;br&gt;&lt;br&gt;&lt;b&gt;BlastP hit with JNAJGP_10460&lt;/b&gt;&lt;br&gt;Percentage identity: 70&lt;br&gt;Percentage coverage: 98&lt;br&gt;BLAST bit score: 219&lt;br&gt;E-value: 1.39e-72" locus_tag="P2T68_RS01730" class="clusterblast-orf" id="dummy-4_h4_6_19"  />
</g>
<g id="a4_0020"  >
<polygon points="429,85 434,80 463,80 463,90 434,90 429,85 " style="fill:#d8158e; stroke-width:1; stroke:black; " description="&lt;b&gt;P2T68_RS01725&lt;/b&gt;&lt;br&gt;methyl-accepting chemotaxis protein&lt;br&gt;Location: 385078 - 383198&lt;br&gt;&lt;br&gt;&lt;b&gt;BlastP hit with JNAJGP_10465&lt;/b&gt;&lt;br&gt;Percentage identity: 92&lt;br&gt;Percentage coverage: 100&lt;br&gt;BLAST bit score: 980&lt;br&gt;E-value: 0.0" locus_tag="P2T68_RS01725" class="clusterblast-orf" id="dummy-4_h4_6_20"  />
</g>
<g id="a4_0021"  >
<polygon points="582,85 587,80 605,80 605,90 587,90 582,85 " style="fill:#d2d815; stroke-width:1; stroke:black; " description="&lt;b&gt;P2T68_RS01690&lt;/b&gt;&lt;br&gt;CaiB/BaiF CoA-transferase family protein&lt;br&gt;Location: 376756 - 375536&lt;br&gt;&lt;br&gt;&lt;b&gt;BlastP hit with JNAJGP_10495&lt;/b&gt;&lt;br&gt;Percentage identity: 95&lt;br&gt;Percentage coverage: 100&lt;br&gt;BLAST bit score: 765&lt;br&gt;E-value: 5.72e-280" locus_tag="P2T68_RS01690" class="clusterblast-orf" id="dummy-4_h4_6_21"  />
</g>
<g id="a4_0022"  >
<polygon points="605,85 610,80 627,80 627,90 610,90 605,85 " style="fill:#15d89c; stroke-width:1; stroke:black; " description="&lt;b&gt;P2T68_RS01685&lt;/b&gt;&lt;br&gt;acyl-CoA dehydrogenase&lt;br&gt;Location: 375522 - 374341&lt;br&gt;&lt;br&gt;&lt;b&gt;BlastP hit with JNAJGP_10500&lt;/b&gt;&lt;br&gt;Percentage identity: 100&lt;br&gt;Percentage coverage: 100&lt;br&gt;BLAST bit score: 790&lt;br&gt;E-value: 2.56e-290" locus_tag="P2T68_RS01685" class="clusterblast-orf" id="dummy-4_h4_6_22"  />
</g>
<g id="a4_0023"  >
<polygon points="630,90 641,90 646,85 641,80 630,80 630,90 " style="fill:#3015d8; stroke-width:1; stroke:black; " description="&lt;b&gt;P2T68_RS01680&lt;/b&gt;&lt;br&gt;LysR family transcriptional regulator&lt;br&gt;Location: 374183 - 373284&lt;br&gt;&lt;br&gt;&lt;b&gt;BlastP hit with JNAJGP_10505&lt;/b&gt;&lt;br&gt;Percentage identity: 92&lt;br&gt;Percentage coverage: 100&lt;br&gt;BLAST bit score: 545&lt;br&gt;E-value: 1.05e-196" locus_tag="P2T68_RS01680" class="clusterblast-orf" id="dummy-4_h4_6_23"  />
</g>
<g id="a4_0024"  >
<polygon points="654,90 670,90 675,85 670,80 654,80 654,90 " style="fill:#d81566; stroke-width:1; stroke:black; " description="&lt;b&gt;P2T68_RS01675&lt;/b&gt;&lt;br&gt;Re/Si-specific NAD(P)(+) transhydrogenase subunit alpha&lt;br&gt;Location: 372831 - 371710&lt;br&gt;&lt;br&gt;&lt;b&gt;BlastP hit with JNAJGP_10510&lt;/b&gt;&lt;br&gt;Percentage identity: 97&lt;br&gt;Percentage coverage: 100&lt;br&gt;BLAST bit score: 680&lt;br&gt;E-value: 2.1e-247" locus_tag="P2T68_RS01675" class="clusterblast-orf" id="dummy-4_h4_6_24"  />
</g>
<g id="a4_0025"  >
<polygon points="675,90 676,90 681,85 676,80 675,80 675,90 " style="fill:#a9d815; stroke-width:1; stroke:black; " description="&lt;b&gt;P2T68_RS01670&lt;/b&gt;&lt;br&gt;NAD(P) transhydrogenase subunit alpha&lt;br&gt;Location: 371694 - 371374&lt;br&gt;&lt;br&gt;&lt;b&gt;BlastP hit with JNAJGP_10515&lt;/b&gt;&lt;br&gt;Percentage identity: 99&lt;br&gt;Percentage coverage: 100&lt;br&gt;BLAST bit score: 189&lt;br&gt;E-value: 3.48e-62" locus_tag="P2T68_RS01670" class="clusterblast-orf" id="dummy-4_h4_6_25"  />
</g>
<g id="a4_0026"  >
<polygon points="681,90 703,90 708,85 703,80 681,80 681,90 " style="fill:#15d8c4; stroke-width:1; stroke:black; " description="&lt;b&gt;P2T68_RS01665&lt;/b&gt;&lt;br&gt;NAD(P)(+) transhydrogenase (Re/Si-specific) subunit beta&lt;br&gt;Location: 371374 - 369938&lt;br&gt;&lt;br&gt;&lt;b&gt;BlastP hit with JNAJGP_10520&lt;/b&gt;&lt;br&gt;Percentage identity: 99&lt;br&gt;Percentage coverage: 100&lt;br&gt;BLAST bit score: 884&lt;br&gt;E-value: 0.0" locus_tag="P2T68_RS01665" class="clusterblast-orf" id="dummy-4_h4_6_26"  />
</g>
<g id="a4_0027"  >
<polygon points="711,90 734,90 739,85 734,80 711,80 711,90 " style="fill:#5815d8; stroke-width:1; stroke:black; " description="&lt;b&gt;P2T68_RS01660&lt;/b&gt;&lt;br&gt;acetyl-CoA hydrolase/transferase family protein&lt;br&gt;Location: 369757 - 368264&lt;br&gt;&lt;br&gt;&lt;b&gt;BlastP hit with JNAJGP_10525&lt;/b&gt;&lt;br&gt;Percentage identity: 97&lt;br&gt;Percentage coverage: 100&lt;br&gt;BLAST bit score: 947&lt;br&gt;E-value: 0.0" locus_tag="P2T68_RS01660" class="clusterblast-orf" id="dummy-4_h4_6_27"  />
</g>
<g id="a4_0028"  >
<polygon points="744,90 748,85 744,80 744,90 " style="fill:#d8153e; stroke-width:1; stroke:black; " description="&lt;b&gt;P2T68_RS01655&lt;/b&gt;&lt;br&gt;DUF1127 domain-containing protein&lt;br&gt;Location: 367945 - 367730&lt;br&gt;&lt;br&gt;&lt;b&gt;BlastP hit with JNAJGP_10530&lt;/b&gt;&lt;br&gt;Percentage identity: 97&lt;br&gt;Percentage coverage: 100&lt;br&gt;BLAST bit score: 135&lt;br&gt;E-value: 6.52e-42" locus_tag="P2T68_RS01655" class="clusterblast-orf" id="dummy-4_h4_6_28"  />
</g>
<g id="a4_0029"  >
<polygon points="753,90 757,85 753,80 753,90 " style="fill:white; stroke-width:1; stroke:black; " description="&lt;b&gt;P2T68_RS01650&lt;/b&gt;&lt;br&gt;DUF1127 domain-containing protein&lt;br&gt;Location: 367469 - 367284" locus_tag="P2T68_RS01650" class="clusterblast-orf" id="dummy-4_h4_6_29"  />
</g>
<g id="a4_0030"  >
<polygon points="760,90 761,90 766,85 761,80 760,80 760,90 " style="fill:#81d815; stroke-width:1; stroke:black; " description="&lt;b&gt;P2T68_RS01645&lt;/b&gt;&lt;br&gt;DUF2388 domain-containing protein&lt;br&gt;Location: 367121 - 366801&lt;br&gt;&lt;br&gt;&lt;b&gt;BlastP hit with JNAJGP_10535&lt;/b&gt;&lt;br&gt;Percentage identity: 93&lt;br&gt;Percentage coverage: 100&lt;br&gt;BLAST bit score: 159&lt;br&gt;E-value: 5.51e-50&lt;br&gt;&lt;br&gt;&lt;b&gt;BlastP hit with JNAJGP_10545&lt;/b&gt;&lt;br&gt;Percentage identity: 50&lt;br&gt;Percentage coverage: 91&lt;br&gt;BLAST bit score: 77&lt;br&gt;E-value: 1.34e-17" locus_tag="P2T68_RS01645" class="clusterblast-orf" id="dummy-4_h4_6_30"  />
</g>
<g id="a4_0031"  >
<polygon points="767,90 768,90 773,85 768,80 767,80 767,90 " style="fill:#81d815; stroke-width:1; stroke:black; " description="&lt;b&gt;P2T68_RS01640&lt;/b&gt;&lt;br&gt;DUF2388 domain-containing protein&lt;br&gt;Location: 366696 - 366388&lt;br&gt;&lt;br&gt;&lt;b&gt;BlastP hit with JNAJGP_10535&lt;/b&gt;&lt;br&gt;Percentage identity: 49&lt;br&gt;Percentage coverage: 82&lt;br&gt;BLAST bit score: 61&lt;br&gt;E-value: 2.62e-11&lt;br&gt;&lt;br&gt;&lt;b&gt;BlastP hit with JNAJGP_10540&lt;/b&gt;&lt;br&gt;Percentage identity: 88&lt;br&gt;Percentage coverage: 100&lt;br&gt;BLAST bit score: 170&lt;br&gt;E-value: 1.57e-54&lt;br&gt;&lt;br&gt;&lt;b&gt;BlastP hit with JNAJGP_10545&lt;/b&gt;&lt;br&gt;Percentage identity: 49&lt;br&gt;Percentage coverage: 59&lt;br&gt;BLAST bit score: 50&lt;br&gt;E-value: 5.75e-07" locus_tag="P2T68_RS01640" class="clusterblast-orf" id="dummy-4_h4_6_31"  />
</g>
<g id="a4_0032"  >
<polygon points="774,90 775,90 780,85 775,80 774,80 774,90 " style="fill:#81d815; stroke-width:1; stroke:black; " description="&lt;b&gt;P2T68_RS01635&lt;/b&gt;&lt;br&gt;DUF2388 domain-containing protein&lt;br&gt;Location: 366361 - 366041&lt;br&gt;&lt;br&gt;&lt;b&gt;BlastP hit with JNAJGP_10535&lt;/b&gt;&lt;br&gt;Percentage identity: 51&lt;br&gt;Percentage coverage: 90&lt;br&gt;BLAST bit score: 70&lt;br&gt;E-value: 7.02e-15&lt;br&gt;&lt;br&gt;&lt;b&gt;BlastP hit with JNAJGP_10540&lt;/b&gt;&lt;br&gt;Percentage identity: 42&lt;br&gt;Percentage coverage: 79&lt;br&gt;BLAST bit score: 56&lt;br&gt;E-value: 2.25e-09&lt;br&gt;&lt;br&gt;&lt;b&gt;BlastP hit with JNAJGP_10545&lt;/b&gt;&lt;br&gt;Percentage identity: 97&lt;br&gt;Percentage coverage: 100&lt;br&gt;BLAST bit score: 182&lt;br&gt;E-value: 1.94e-59" locus_tag="P2T68_RS01635" class="clusterblast-orf" id="dummy-4_h4_6_32"  />
</g>
</svg>
