<svg xmlns="http://www.w3.org/2000/svg" xmlns:xlink="http://www.w3.org/1999/xlink" version="1.1" x="0" y="0" height="230" width="800" viewBox="0 0 800 230" preserveAspectRatio="none"  >
<g label="Query sequence" class="clusterblast-cluster"  >
<text x="5" y="20" class="clusterblast-acc"  >
Query sequence</text>
<line x1="10" y1="35" x2="778.0" y2="35" style="stroke-width:1; stroke:grey; "  />
<polygon points="349,35 354,30 355,30 355,40 354,40 349,35 " style="fill:#d81515; stroke-width:1; stroke:black; " description="&lt;b&gt;JNAJGP_28595&lt;/b&gt;&lt;br&gt;IclR family transcriptional regulator&lt;br&gt;Location: 6127537 - 6128356" locus_tag="JNAJGP_28595" class="clusterblast-orf" id="dummy-11_q0_0_all"  />
<polygon points="357,40 360,40 365,35 360,30 357,30 357,40 " style="fill:#77d815; stroke-width:1; stroke:black; " description="&lt;b&gt;JNAJGP_28600&lt;/b&gt;&lt;br&gt;Iron(III) transport system ATP-binding&lt;br&gt;Location: 6128596 - 6129625" locus_tag="JNAJGP_28600" class="clusterblast-orf" id="dummy-11_q1_0_all"  />
<polygon points="365,40 366,40 371,35 366,30 365,30 365,40 " style="fill:#15d8d8; stroke-width:1; stroke:black; " description="&lt;b&gt;JNAJGP_28605&lt;/b&gt;&lt;br&gt;ABC transmembrane type-1 domain-containing protein&lt;br&gt;Location: 6129621 - 6130467" locus_tag="JNAJGP_28605" class="clusterblast-orf" id="dummy-11_q2_0_all"  />
<polygon points="371,40 372,40 377,35 372,30 371,30 371,40 " style="fill:#7715d8; stroke-width:1; stroke:black; " description="&lt;b&gt;JNAJGP_28610&lt;/b&gt;&lt;br&gt;ABC-type spermidine/putrescine transport system, permease component II&lt;br&gt;Location: 6130471 - 6131266" locus_tag="JNAJGP_28610" class="clusterblast-orf" id="dummy-11_q3_0_all"  />
<polygon points="377,40 379,35 377,30 377,40 " style="fill:#d87715; stroke-width:1; stroke:black; " description="&lt;b&gt;JNAJGP_28615&lt;/b&gt;&lt;br&gt;Ferredoxin&lt;br&gt;Location: 6131265 - 6131556" locus_tag="JNAJGP_28615" class="clusterblast-orf" id="dummy-11_q4_0_all"  />
<polygon points="379,40 383,40 388,35 383,30 379,30 379,40 " style="fill:#15d815; stroke-width:1; stroke:black; " description="&lt;b&gt;JNAJGP_28620&lt;/b&gt;&lt;br&gt;FAD/NAD(P)-binding oxidoreductase&lt;br&gt;Location: 6131552 - 6132896" locus_tag="JNAJGP_28620" class="clusterblast-orf" id="dummy-11_q5_0_all"  />
<polygon points="388,40 391,40 396,35 391,30 388,30 388,40 " style="fill:#1577d8; stroke-width:1; stroke:black; " description="&lt;b&gt;JNAJGP_28625&lt;/b&gt;&lt;br&gt;FAD dependent oxidoreductase domain-containing protein&lt;br&gt;Location: 6132892 - 6133990" locus_tag="JNAJGP_28625" class="clusterblast-orf" id="dummy-11_q6_0_all"  />
<polygon points="397,40 399,40 404,35 399,30 397,30 397,40 " style="fill:#d815d8; stroke-width:1; stroke:black; " description="&lt;b&gt;JNAJGP_28630&lt;/b&gt;&lt;br&gt;ABC transporter substrate-binding protein&lt;br&gt;Location: 6134004 - 6135036" locus_tag="JNAJGP_28630" class="clusterblast-orf" id="dummy-11_q7_0_all"  />
<polygon points="404,35 409,30 410,30 410,40 409,40 404,35 " style="fill:#d8d815; stroke-width:1; stroke:black; " description="&lt;b&gt;JNAJGP_28635&lt;/b&gt;&lt;br&gt;ammonia-dependent NAD(+) synthetase&lt;br&gt;Location: 6135036 - 6135846" locus_tag="JNAJGP_28635" class="clusterblast-orf" id="dummy-11_q8_0_all"  />
<polygon points="410,35 415,30 419,30 419,40 415,40 410,35 " style="fill:#15d877; stroke-width:1; stroke:black; " description="&lt;b&gt;JNAJGP_28640&lt;/b&gt;&lt;br&gt;nicotinate phosphoribosyltransferase&lt;br&gt;Location: 6135847 - 6137065" locus_tag="JNAJGP_28640" class="clusterblast-orf" id="dummy-11_q9_0_all"  />
<polygon points="419,35 424,30 424,30 424,40 424,40 419,35 " style="fill:#1515d8; stroke-width:1; stroke:black; " description="&lt;b&gt;JNAJGP_28645&lt;/b&gt;&lt;br&gt;Isochorismatase&lt;br&gt;Location: 6137076 - 6137724" locus_tag="JNAJGP_28645" class="clusterblast-orf" id="dummy-11_q10_0_all"  />
<polygon points="425,40 428,35 425,30 425,40 " style="fill:#d81577; stroke-width:1; stroke:black; " description="&lt;b&gt;JNAJGP_28650&lt;/b&gt;&lt;br&gt;NUDIX hydrolase&lt;br&gt;Location: 6137870 - 6138347" locus_tag="JNAJGP_28650" class="clusterblast-orf" id="dummy-11_q11_0_all"  />
<polygon points="428,40 430,35 428,30 428,40 " style="fill:#d81577; stroke-width:1; stroke:black; " description="&lt;b&gt;JNAJGP_28655&lt;/b&gt;&lt;br&gt;hypothetical protein&lt;br&gt;Location: 6138330 - 6138564" locus_tag="JNAJGP_28655" class="clusterblast-orf" id="dummy-11_q12_0_all"  />
</g>
<g label="NZ_LT629708" description="NZ_LT629708 (6251782-6359311): Pseudomonas extremorientalis strain LMG 19695 ... (25% of genes show similarity), NRP-metallophore,NRPS,hydrogen-cyanide" class="clusterblast-cluster"  >
<text x="5" y="70" class="clusterblast-acc"  >
<a xlink:href="https://antismash-db.secondarymetabolites.org/area?record=NZ_LT629708&amp;start=6251782&amp;end=6359311" target="_blank">NZ_LT629708 (6251782-6359311)</a>: Pseudomonas extremorientalis strain LMG 19695 ... (25% of genes show similarity), NRP-metallophore,NRPS,hydrogen-cyanide</text>
<line x1="10" y1="85" x2="778.0" y2="85" style="stroke-width:1; stroke:grey; "  />
</g>
<g id="a11_000"  >
<polygon points="0,85 5,80 5,80 5,90 5,90 0,85 " style="fill:white; stroke-width:1; stroke:black; " description="&lt;b&gt;BLT33_RS28935&lt;/b&gt;&lt;br&gt;protein TolQ&lt;br&gt;Location: 6359067 - 6358375" locus_tag="BLT33_RS28935" class="clusterblast-orf" id="dummy-11_h11_7_0"  />
</g>
<g id="a11_001"  >
<polygon points="5,85 10,80 18,80 18,90 10,90 5,85 " style="fill:white; stroke-width:1; stroke:black; " description="&lt;b&gt;BLT33_RS28930&lt;/b&gt;&lt;br&gt;phytase&lt;br&gt;Location: 6358327 - 6356465" locus_tag="BLT33_RS28930" class="clusterblast-orf" id="dummy-11_h11_7_1"  />
</g>
<g id="a11_002"  >
<polygon points="20,85 25,80 38,80 38,90 25,90 20,85 " style="fill:white; stroke-width:1; stroke:black; " description="&lt;b&gt;BLT33_RS28925&lt;/b&gt;&lt;br&gt;TonB-dependent receptor&lt;br&gt;Location: 6356320 - 6353807" locus_tag="BLT33_RS28925" class="clusterblast-orf" id="dummy-11_h11_7_2"  />
</g>
<g id="a11_003"  >
<polygon points="41,90 42,90 47,85 42,80 41,80 41,90 " style="fill:white; stroke-width:1; stroke:black; " description="&lt;b&gt;BLT33_RS28920&lt;/b&gt;&lt;br&gt;GGDEF domain-containing protein&lt;br&gt;Location: 6353426 - 6352512" locus_tag="BLT33_RS28920" class="clusterblast-orf" id="dummy-11_h11_7_3"  />
</g>
<g id="a11_004"  >
<polygon points="47,90 50,90 55,85 50,80 47,80 47,90 " style="fill:white; stroke-width:1; stroke:black; " description="&lt;b&gt;BLT33_RS28915&lt;/b&gt;&lt;br&gt;AraC family transcriptional regulator&lt;br&gt;Location: 6352510 - 6351473" locus_tag="BLT33_RS28915" class="clusterblast-orf" id="dummy-11_h11_7_4"  />
</g>
<g id="a11_005"  >
<polygon points="55,85 60,80 61,80 61,90 60,90 55,85 " style="fill:white; stroke-width:1; stroke:black; " description="&lt;b&gt;BLT33_RS28910&lt;/b&gt;&lt;br&gt;LysR family transcriptional regulator&lt;br&gt;Location: 6351486 - 6350605" locus_tag="BLT33_RS28910" class="clusterblast-orf" id="dummy-11_h11_7_5"  />
</g>
<g id="a11_006"  >
<polygon points="63,85 67,80 67,90 63,85 " style="fill:white; stroke-width:1; stroke:black; " description="&lt;b&gt;BLT33_RS28905&lt;/b&gt;&lt;br&gt;hydrolase&lt;br&gt;Location: 6350412 - 6349798" locus_tag="BLT33_RS28905" class="clusterblast-orf" id="dummy-11_h11_7_6"  />
</g>
<g id="a11_007"  >
<polygon points="67,85 72,80 81,80 81,90 72,90 67,85 " style="fill:white; stroke-width:1; stroke:black; " description="&lt;b&gt;BLT33_RS28900&lt;/b&gt;&lt;br&gt;amidohydrolase&lt;br&gt;Location: 6349768 - 6347930" locus_tag="BLT33_RS28900" class="clusterblast-orf" id="dummy-11_h11_7_7"  />
</g>
<g id="a11_008"  >
<polygon points="81,85 85,80 85,90 81,85 " style="fill:white; stroke-width:1; stroke:black; " description="&lt;b&gt;BLT33_RS28895&lt;/b&gt;&lt;br&gt;antibiotic biosynthesis monooxygenase&lt;br&gt;Location: 6347933 - 6347343" locus_tag="BLT33_RS28895" class="clusterblast-orf" id="dummy-11_h11_7_8"  />
</g>
<g id="a11_009"  >
<polygon points="88,85 93,80 96,80 96,90 93,90 88,85 " style="fill:white; stroke-width:1; stroke:black; " description="&lt;b&gt;BLT33_RS28890&lt;/b&gt;&lt;br&gt;IS3 family transposase&lt;br&gt;Location: 6346956 - 6345821" locus_tag="BLT33_RS28890" class="clusterblast-orf" id="dummy-11_h11_7_9"  />
</g>
<g id="a11_0010"  >
<polygon points="97,85 101,80 101,90 97,85 " style="fill:white; stroke-width:1; stroke:black; " description="&lt;b&gt;BLT33_RS28885&lt;/b&gt;&lt;br&gt;Lrp/AsnC family transcriptional regulator&lt;br&gt;Location: 6345647 - 6345177" locus_tag="BLT33_RS28885" class="clusterblast-orf" id="dummy-11_h11_7_10"  />
</g>
<g id="a11_0011"  >
<polygon points="102,90 106,90 111,85 106,80 102,80 102,90 " style="fill:white; stroke-width:1; stroke:black; " description="&lt;b&gt;BLT33_RS28880&lt;/b&gt;&lt;br&gt;methionine gamma-lyase&lt;br&gt;Location: 6345053 - 6343818" locus_tag="BLT33_RS28880" class="clusterblast-orf" id="dummy-11_h11_7_11"  />
</g>
<g id="a11_0012"  >
<polygon points="112,90 112,90 117,85 112,80 112,80 112,90 " style="fill:white; stroke-width:1; stroke:black; " description="&lt;b&gt;BLT33_RS28875&lt;/b&gt;&lt;br&gt;helix-turn-helix transcriptional regulator&lt;br&gt;Location: 6343661 - 6342990" locus_tag="BLT33_RS28875" class="clusterblast-orf" id="dummy-11_h11_7_12"  />
</g>
<g id="a11_0013"  >
<polygon points="118,85 123,80 132,80 132,90 123,90 118,85 " style="fill:white; stroke-width:1; stroke:black; " description="&lt;b&gt;BLT33_RS28870&lt;/b&gt;&lt;br&gt;MacB family efflux pump subunit&lt;br&gt;Location: 6342859 - 6340901" locus_tag="BLT33_RS28870" class="clusterblast-orf" id="dummy-11_h11_7_13"  />
</g>
<g id="a11_0014"  >
<polygon points="132,85 137,80 140,80 140,90 137,90 132,85 " style="fill:white; stroke-width:1; stroke:black; " description="&lt;b&gt;BLT33_RS28865&lt;/b&gt;&lt;br&gt;macrolide transporter subunit MacA&lt;br&gt;Location: 6340897 - 6339746" locus_tag="BLT33_RS28865" class="clusterblast-orf" id="dummy-11_h11_7_14"  />
</g>
<g id="a11_0015"  >
<polygon points="144,85 149,80 226,80 226,90 149,90 144,85 " style="fill:white; stroke-width:1; stroke:black; " description="&lt;b&gt;BLT33_RS28860&lt;/b&gt;&lt;br&gt;non-ribosomal peptide synthetase&lt;br&gt;Location: 6339311 - 6328017" locus_tag="BLT33_RS28860" class="clusterblast-orf" id="dummy-11_h11_7_15"  />
</g>
<g id="a11_0016"  >
<polygon points="226,85 231,80 319,80 319,90 231,90 226,85 " style="fill:white; stroke-width:1; stroke:black; " description="&lt;b&gt;BLT33_RS28855&lt;/b&gt;&lt;br&gt;non-ribosomal peptide synthetase&lt;br&gt;Location: 6328020 - 6315193" locus_tag="BLT33_RS28855" class="clusterblast-orf" id="dummy-11_h11_7_16"  />
</g>
<g id="a11_0017"  >
<polygon points="322,85 327,80 334,80 334,90 327,90 322,85 " style="fill:white; stroke-width:1; stroke:black; " description="&lt;b&gt;BLT33_RS28850&lt;/b&gt;&lt;br&gt;PvdJ/PvdD/PvdP-like protein&lt;br&gt;Location: 6314785 - 6313166" locus_tag="BLT33_RS28850" class="clusterblast-orf" id="dummy-11_h11_7_17"  />
</g>
<g id="a11_0018"  >
<polygon points="335,90 340,90 345,85 340,80 335,80 335,90 " style="fill:white; stroke-width:1; stroke:black; " description="&lt;b&gt;BLT33_RS28845&lt;/b&gt;&lt;br&gt;pyoverdine-tailoring dipeptidase-like protein PvdM&lt;br&gt;Location: 6313023 - 6311674" locus_tag="BLT33_RS28845" class="clusterblast-orf" id="dummy-11_h11_7_18"  />
</g>
<g id="a11_0019"  >
<polygon points="345,90 349,90 354,85 349,80 345,80 345,90 " style="fill:white; stroke-width:1; stroke:black; " description="&lt;b&gt;BLT33_RS28840&lt;/b&gt;&lt;br&gt;aminotransferase class V-fold PLP-dependent enzyme&lt;br&gt;Location: 6311655 - 6310384" locus_tag="BLT33_RS28840" class="clusterblast-orf" id="dummy-11_h11_7_19"  />
</g>
<g id="a11_0020"  >
<polygon points="355,90 356,90 361,85 356,80 355,80 355,90 " style="fill:white; stroke-width:1; stroke:black; " description="&lt;b&gt;BLT33_RS28835&lt;/b&gt;&lt;br&gt;formylglycine-generating enzyme family protein&lt;br&gt;Location: 6310349 - 6309489" locus_tag="BLT33_RS28835" class="clusterblast-orf" id="dummy-11_h11_7_20"  />
</g>
<g id="a11_0021"  >
<polygon points="361,85 366,80 367,80 367,90 366,90 361,85 " style="fill:white; stroke-width:1; stroke:black; " description="&lt;b&gt;BLT33_RS28830&lt;/b&gt;&lt;br&gt;N(5)-hydroxyornithine transformylase PvdF&lt;br&gt;Location: 6309423 - 6308593" locus_tag="BLT33_RS28830" class="clusterblast-orf" id="dummy-11_h11_7_21"  />
</g>
<g id="a11_0022"  >
<polygon points="369,90 376,90 381,85 376,80 369,80 369,90 " style="fill:white; stroke-width:1; stroke:black; " description="&lt;b&gt;BLT33_RS28825&lt;/b&gt;&lt;br&gt;cyclic peptide export ABC transporter&lt;br&gt;Location: 6308392 - 6306740" locus_tag="BLT33_RS28825" class="clusterblast-orf" id="dummy-11_h11_7_22"  />
</g>
<g id="a11_0023"  >
<polygon points="382,90 394,90 399,85 394,80 382,80 382,90 " style="fill:white; stroke-width:1; stroke:black; " description="&lt;b&gt;BLT33_RS28820&lt;/b&gt;&lt;br&gt;TonB-dependent siderophore receptor&lt;br&gt;Location: 6306631 - 6304214" locus_tag="BLT33_RS28820" class="clusterblast-orf" id="dummy-11_h11_7_23"  />
</g>
<g id="a11_0024"  >
<polygon points="400,85 405,80 499,80 499,90 405,90 400,85 " style="fill:white; stroke-width:1; stroke:black; " description="&lt;b&gt;BLT33_RS29745&lt;/b&gt;&lt;br&gt;non-ribosomal peptide synthase/polyketide synthase&lt;br&gt;Location: 6304075 - 6290513" locus_tag="BLT33_RS29745" class="clusterblast-orf" id="dummy-11_h11_7_24"  />
</g>
<g id="a11_0025"  >
<polygon points="500,85 505,80 556,80 556,90 505,90 500,85 " style="fill:white; stroke-width:1; stroke:black; " description="&lt;b&gt;BLT33_RS28810&lt;/b&gt;&lt;br&gt;amino acid adenylation domain-containing protein&lt;br&gt;Location: 6290385 - 6282721" locus_tag="BLT33_RS28810" class="clusterblast-orf" id="dummy-11_h11_7_25"  />
</g>
<g id="a11_0026"  >
<polygon points="556,85 561,80 636,80 636,90 561,90 556,85 " style="fill:white; stroke-width:1; stroke:black; " description="&lt;b&gt;BLT33_RS28805&lt;/b&gt;&lt;br&gt;non-ribosomal peptide synthase/polyketide synthase&lt;br&gt;Location: 6282717 - 6271783" locus_tag="BLT33_RS28805" class="clusterblast-orf" id="dummy-11_h11_7_26"  />
</g>
<g id="a11_0027"  >
<polygon points="637,90 639,85 637,80 637,90 " style="fill:white; stroke-width:1; stroke:black; " description="&lt;b&gt;BLT33_RS28800&lt;/b&gt;&lt;br&gt;toxin-antitoxin system HicB family antitoxin&lt;br&gt;Location: 6271656 - 6271354" locus_tag="BLT33_RS28800" class="clusterblast-orf" id="dummy-11_h11_7_27"  />
</g>
<g id="a11_0028"  >
<polygon points="639,85 644,80 647,80 647,90 644,90 639,85 " style="fill:white; stroke-width:1; stroke:black; " description="&lt;b&gt;BLT33_RS28795&lt;/b&gt;&lt;br&gt;MFS transporter&lt;br&gt;Location: 6271353 - 6270181" locus_tag="BLT33_RS28795" class="clusterblast-orf" id="dummy-11_h11_7_28"  />
</g>
<g id="a11_0029"  >
<polygon points="648,85 653,80 658,80 658,90 653,90 648,85 " style="fill:white; stroke-width:1; stroke:black; " description="&lt;b&gt;BLT33_RS28790&lt;/b&gt;&lt;br&gt;MATE family efflux transporter&lt;br&gt;Location: 6270140 - 6268785" locus_tag="BLT33_RS28790" class="clusterblast-orf" id="dummy-11_h11_7_29"  />
</g>
<g id="a11_0030"  >
<polygon points="658,85 662,80 662,90 658,85 " style="fill:white; stroke-width:1; stroke:black; " description="&lt;b&gt;BLT33_RS28785&lt;/b&gt;&lt;br&gt;DUF2239 family protein&lt;br&gt;Location: 6268759 - 6268187" locus_tag="BLT33_RS28785" class="clusterblast-orf" id="dummy-11_h11_7_30"  />
</g>
<g id="a11_0031"  >
<polygon points="665,85 670,80 673,80 673,90 670,90 665,85 " style="fill:white; stroke-width:1; stroke:black; " description="&lt;b&gt;BLT33_RS29235&lt;/b&gt;&lt;br&gt;hypothetical protein&lt;br&gt;Location: 6267827 - 6266694" locus_tag="BLT33_RS29235" class="clusterblast-orf" id="dummy-11_h11_7_31"  />
</g>
<g id="a11_0032"  >
<polygon points="675,85 680,80 681,80 681,90 680,90 675,85 " style="fill:#d81515; stroke-width:1; stroke:black; " description="&lt;b&gt;BLT33_RS28770&lt;/b&gt;&lt;br&gt;IclR family transcriptional regulator&lt;br&gt;Location: 6266402 - 6265572&lt;br&gt;&lt;br&gt;&lt;b&gt;BlastP hit with JNAJGP_28595&lt;/b&gt;&lt;br&gt;Percentage identity: 95&lt;br&gt;Percentage coverage: 101&lt;br&gt;BLAST bit score: 497&lt;br&gt;E-value: 2.43e-178" locus_tag="BLT33_RS28770" class="clusterblast-orf" id="dummy-11_h11_7_32"  />
</g>
<g id="a11_0033"  >
<polygon points="683,90 685,90 690,85 685,80 683,80 683,90 " style="fill:#77d815; stroke-width:1; stroke:black; " description="&lt;b&gt;BLT33_RS28765&lt;/b&gt;&lt;br&gt;ABC transporter ATP-binding protein&lt;br&gt;Location: 6265329 - 6264301&lt;br&gt;&lt;br&gt;&lt;b&gt;BlastP hit with JNAJGP_28600&lt;/b&gt;&lt;br&gt;Percentage identity: 94&lt;br&gt;Percentage coverage: 100&lt;br&gt;BLAST bit score: 626&lt;br&gt;E-value: 4.11e-227" locus_tag="BLT33_RS28765" class="clusterblast-orf" id="dummy-11_h11_7_33"  />
</g>
<g id="a11_0034"  >
<polygon points="690,90 691,90 696,85 691,80 690,80 690,90 " style="fill:#15d8d8; stroke-width:1; stroke:black; " description="&lt;b&gt;BLT33_RS28760&lt;/b&gt;&lt;br&gt;ABC transporter permease&lt;br&gt;Location: 6264304 - 6263459&lt;br&gt;&lt;br&gt;&lt;b&gt;BlastP hit with JNAJGP_28605&lt;/b&gt;&lt;br&gt;Percentage identity: 98&lt;br&gt;Percentage coverage: 100&lt;br&gt;BLAST bit score: 511&lt;br&gt;E-value: 1.37e-183" locus_tag="BLT33_RS28760" class="clusterblast-orf" id="dummy-11_h11_7_34"  />
</g>
<g id="a11_0035"  >
<polygon points="696,90 697,90 702,85 697,80 696,80 696,90 " style="fill:#7715d8; stroke-width:1; stroke:black; " description="&lt;b&gt;BLT33_RS28755&lt;/b&gt;&lt;br&gt;ABC transporter permease&lt;br&gt;Location: 6263454 - 6262660&lt;br&gt;&lt;br&gt;&lt;b&gt;BlastP hit with JNAJGP_28610&lt;/b&gt;&lt;br&gt;Percentage identity: 98&lt;br&gt;Percentage coverage: 100&lt;br&gt;BLAST bit score: 473&lt;br&gt;E-value: 2.25e-169" locus_tag="BLT33_RS28755" class="clusterblast-orf" id="dummy-11_h11_7_35"  />
</g>
<g id="a11_0036"  >
<polygon points="702,90 704,85 702,80 702,90 " style="fill:#d87715; stroke-width:1; stroke:black; " description="&lt;b&gt;BLT33_RS28750&lt;/b&gt;&lt;br&gt;(2Fe-2S)-binding protein&lt;br&gt;Location: 6262660 - 6262370&lt;br&gt;&lt;br&gt;&lt;b&gt;BlastP hit with JNAJGP_28615&lt;/b&gt;&lt;br&gt;Percentage identity: 92&lt;br&gt;Percentage coverage: 99&lt;br&gt;BLAST bit score: 181&lt;br&gt;E-value: 2.69e-59" locus_tag="BLT33_RS28750" class="clusterblast-orf" id="dummy-11_h11_7_36"  />
</g>
<g id="a11_0037"  >
<polygon points="704,90 709,90 714,85 709,80 704,80 704,90 " style="fill:#15d815; stroke-width:1; stroke:black; " description="&lt;b&gt;BLT33_RS28745&lt;/b&gt;&lt;br&gt;FAD/NAD(P)-binding oxidoreductase&lt;br&gt;Location: 6262373 - 6261030&lt;br&gt;&lt;br&gt;&lt;b&gt;BlastP hit with JNAJGP_28620&lt;/b&gt;&lt;br&gt;Percentage identity: 86&lt;br&gt;Percentage coverage: 100&lt;br&gt;BLAST bit score: 783&lt;br&gt;E-value: 6.71e-286" locus_tag="BLT33_RS28745" class="clusterblast-orf" id="dummy-11_h11_7_37"  />
</g>
<g id="a11_0038"  >
<polygon points="714,90 717,90 722,85 717,80 714,80 714,90 " style="fill:#1577d8; stroke-width:1; stroke:black; " description="&lt;b&gt;BLT33_RS28740&lt;/b&gt;&lt;br&gt;FAD-dependent oxidoreductase&lt;br&gt;Location: 6261033 - 6259936&lt;br&gt;&lt;br&gt;&lt;b&gt;BlastP hit with JNAJGP_28625&lt;/b&gt;&lt;br&gt;Percentage identity: 93&lt;br&gt;Percentage coverage: 100&lt;br&gt;BLAST bit score: 679&lt;br&gt;E-value: 2.28e-247" locus_tag="BLT33_RS28740" class="clusterblast-orf" id="dummy-11_h11_7_38"  />
</g>
<g id="a11_0039"  >
<polygon points="722,90 725,90 730,85 725,80 722,80 722,90 " style="fill:#d815d8; stroke-width:1; stroke:black; " description="&lt;b&gt;BLT33_RS28735&lt;/b&gt;&lt;br&gt;ABC transporter substrate-binding protein&lt;br&gt;Location: 6259921 - 6258890&lt;br&gt;&lt;br&gt;&lt;b&gt;BlastP hit with JNAJGP_28630&lt;/b&gt;&lt;br&gt;Percentage identity: 97&lt;br&gt;Percentage coverage: 100&lt;br&gt;BLAST bit score: 653&lt;br&gt;E-value: 9.53e-238" locus_tag="BLT33_RS28735" class="clusterblast-orf" id="dummy-11_h11_7_39"  />
</g>
<g id="a11_0040"  >
<polygon points="730,85 735,80 736,80 736,90 735,90 730,85 " style="fill:#d8d815; stroke-width:1; stroke:black; " description="&lt;b&gt;BLT33_RS28730&lt;/b&gt;&lt;br&gt;ammonia-dependent NAD(+) synthetase&lt;br&gt;Location: 6258889 - 6258080&lt;br&gt;&lt;br&gt;&lt;b&gt;BlastP hit with JNAJGP_28635&lt;/b&gt;&lt;br&gt;Percentage identity: 88&lt;br&gt;Percentage coverage: 100&lt;br&gt;BLAST bit score: 459&lt;br&gt;E-value: 1.01e-163" locus_tag="BLT33_RS28730" class="clusterblast-orf" id="dummy-11_h11_7_40"  />
</g>
<g id="a11_0041"  >
<polygon points="736,85 741,80 745,80 745,90 741,90 736,85 " style="fill:#15d877; stroke-width:1; stroke:black; " description="&lt;b&gt;BLT33_RS28725&lt;/b&gt;&lt;br&gt;nicotinate phosphoribosyltransferase&lt;br&gt;Location: 6258078 - 6256861&lt;br&gt;&lt;br&gt;&lt;b&gt;BlastP hit with JNAJGP_28640&lt;/b&gt;&lt;br&gt;Percentage identity: 94&lt;br&gt;Percentage coverage: 100&lt;br&gt;BLAST bit score: 784&lt;br&gt;E-value: 1.8e-287" locus_tag="BLT33_RS28725" class="clusterblast-orf" id="dummy-11_h11_7_41"  />
</g>
<g id="a11_0042"  >
<polygon points="745,85 749,80 749,90 745,85 " style="fill:#1515d8; stroke-width:1; stroke:black; " description="&lt;b&gt;BLT33_RS28720&lt;/b&gt;&lt;br&gt;nicotinamidase&lt;br&gt;Location: 6256849 - 6256202&lt;br&gt;&lt;br&gt;&lt;b&gt;BlastP hit with JNAJGP_28645&lt;/b&gt;&lt;br&gt;Percentage identity: 92&lt;br&gt;Percentage coverage: 100&lt;br&gt;BLAST bit score: 411&lt;br&gt;E-value: 1.84e-146" locus_tag="BLT33_RS28720" class="clusterblast-orf" id="dummy-11_h11_7_42"  />
</g>
<g id="a11_0043"  >
<polygon points="750,90 750,90 755,85 750,80 750,80 750,90 " style="fill:#d81577; stroke-width:1; stroke:black; " description="&lt;b&gt;BLT33_RS28715&lt;/b&gt;&lt;br&gt;NUDIX hydrolase&lt;br&gt;Location: 6256055 - 6255363&lt;br&gt;&lt;br&gt;&lt;b&gt;BlastP hit with JNAJGP_28650&lt;/b&gt;&lt;br&gt;Percentage identity: 85&lt;br&gt;Percentage coverage: 96&lt;br&gt;BLAST bit score: 266&lt;br&gt;E-value: 1.19e-89&lt;br&gt;&lt;br&gt;&lt;b&gt;BlastP hit with JNAJGP_28655&lt;/b&gt;&lt;br&gt;Percentage identity: 95&lt;br&gt;Percentage coverage: 100&lt;br&gt;BLAST bit score: 147&lt;br&gt;E-value: 3.59e-44" locus_tag="BLT33_RS28715" class="clusterblast-orf" id="dummy-11_h11_7_43"  />
</g>
<g id="a11_0044"  >
<polygon points="756,85 761,80 762,80 762,90 761,90 756,85 " style="fill:white; stroke-width:1; stroke:black; " description="&lt;b&gt;BLT33_RS28710&lt;/b&gt;&lt;br&gt;L-iditol 2-dehydrogenase&lt;br&gt;Location: 6255298 - 6254525" locus_tag="BLT33_RS28710" class="clusterblast-orf" id="dummy-11_h11_7_44"  />
</g>
<g id="a11_0045"  >
<polygon points="762,85 767,80 771,80 771,90 767,90 762,85 " style="fill:white; stroke-width:1; stroke:black; " description="&lt;b&gt;BLT33_RS28705&lt;/b&gt;&lt;br&gt;sugar ABC transporter substrate-binding protein&lt;br&gt;Location: 6254505 - 6253195" locus_tag="BLT33_RS28705" class="clusterblast-orf" id="dummy-11_h11_7_45"  />
</g>
<g id="a11_0046"  >
<polygon points="773,90 775,90 780,85 775,80 773,80 773,90 " style="fill:white; stroke-width:1; stroke:black; " description="&lt;b&gt;BLT33_RS28700&lt;/b&gt;&lt;br&gt;AraC family transcriptional regulator&lt;br&gt;Location: 6252983 - 6252063" locus_tag="BLT33_RS28700" class="clusterblast-orf" id="dummy-11_h11_7_46"  />
</g>
</svg>
