<svg xmlns="http://www.w3.org/2000/svg" xmlns:xlink="http://www.w3.org/1999/xlink" version="1.1" x="0" y="0" height="230" width="800" viewBox="0 0 800 230" preserveAspectRatio="none"  >
<g label="Query sequence" class="clusterblast-cluster"  >
<text x="5" y="20" class="clusterblast-acc"  >
Query sequence</text>
<line x1="10" y1="35" x2="778.0" y2="35" style="stroke-width:1; stroke:grey; "  />
<polygon points="0,40 61,40 66,35 61,30 0,30 0,40 " style="fill:#d81515; stroke-width:1; stroke:black; " description="&lt;b&gt;JNAJGP_22300&lt;/b&gt;&lt;br&gt;ABC transmembrane type-1 domain-containing protein&lt;br&gt;Location: 4711370 - 4712327" locus_tag="JNAJGP_22300" class="clusterblast-orf" id="dummy-7_q0_0_all"  />
<polygon points="66,40 121,40 126,35 121,30 66,30 66,40 " style="fill:#3cd815; stroke-width:1; stroke:black; " description="&lt;b&gt;JNAJGP_22305&lt;/b&gt;&lt;br&gt;DNA-directed RNA polymerase subunit alpha&lt;br&gt;Location: 4712323 - 4713199" locus_tag="JNAJGP_22305" class="clusterblast-orf" id="dummy-7_q1_0_all"  />
<polygon points="126,40 247,40 252,35 247,30 126,30 126,40 " style="fill:#1563d8; stroke-width:1; stroke:black; " description="&lt;b&gt;JNAJGP_22310&lt;/b&gt;&lt;br&gt;nickel import ATP-binding protein NikE&lt;br&gt;Location: 4713200 - 4715042" locus_tag="JNAJGP_22310" class="clusterblast-orf" id="dummy-7_q2_0_all"  />
<polygon points="252,40 268,40 273,35 268,30 252,30 252,40 " style="fill:#b115d8; stroke-width:1; stroke:black; " description="&lt;b&gt;JNAJGP_22315&lt;/b&gt;&lt;br&gt;NAD(FAD)-dependent dehydrogenase&lt;br&gt;Location: 4715038 - 4715347" locus_tag="JNAJGP_22315" class="clusterblast-orf" id="dummy-7_q3_0_all"  />
<polygon points="272,40 361,40 366,35 361,30 272,30 272,40 " style="fill:#d88a15; stroke-width:1; stroke:black; " description="&lt;b&gt;JNAJGP_22320&lt;/b&gt;&lt;br&gt;Hydrogen cyanide synthase subunit HcnB&lt;br&gt;Location: 4715328 - 4716708" locus_tag="JNAJGP_22320" class="clusterblast-orf" id="dummy-7_q4_0_all"  />
<polygon points="366,40 440,40 445,35 440,30 366,30 366,40 " style="fill:#15d863; stroke-width:1; stroke:black; " description="&lt;b&gt;JNAJGP_22325&lt;/b&gt;&lt;br&gt;FAD dependent oxidoreductase domain-containing protein&lt;br&gt;Location: 4716704 - 4717856" locus_tag="JNAJGP_22325" class="clusterblast-orf" id="dummy-7_q5_0_all"  />
<polygon points="445,40 519,40 524,35 519,30 445,30 445,40 " style="fill:#3c15d8; stroke-width:1; stroke:black; " description="&lt;b&gt;JNAJGP_22330&lt;/b&gt;&lt;br&gt;acetylornithine deacetylase&lt;br&gt;Location: 4717852 - 4719010" locus_tag="JNAJGP_22330" class="clusterblast-orf" id="dummy-7_q6_0_all"  />
<polygon points="532,40 628,40 633,35 628,30 532,30 532,40 " style="fill:#d8158a; stroke-width:1; stroke:black; " description="&lt;b&gt;JNAJGP_22335&lt;/b&gt;&lt;br&gt;Glutarate-semialdehyde dehydrogenase Succinate-semialdehyde dehydrogenase [NADP+]&lt;br&gt;Location: 4719127 - 4720588" locus_tag="JNAJGP_22335" class="clusterblast-orf" id="dummy-7_q7_0_all"  />
<polygon points="633,40 703,40 708,35 703,30 633,30 633,40 " style="fill:#b1d815; stroke-width:1; stroke:black; " description="&lt;b&gt;JNAJGP_22340&lt;/b&gt;&lt;br&gt;tartrate dehydrogenase&lt;br&gt;Location: 4720601 - 4721687" locus_tag="JNAJGP_22340" class="clusterblast-orf" id="dummy-7_q8_0_all"  />
<polygon points="709,35 714,30 716,30 716,40 714,40 709,35 " style="fill:white; stroke-width:1; stroke:black; " description="&lt;b&gt;JNAJGP_22345&lt;/b&gt;&lt;br&gt;hypothetical protein&lt;br&gt;Location: 4721698 - 4721812" locus_tag="JNAJGP_22345" class="clusterblast-orf" id="dummy-7_q9_0_all"  />
<polygon points="716,35 721,30 780,30 780,40 721,40 716,35 " style="fill:#15d8d8; stroke-width:1; stroke:black; " description="&lt;b&gt;JNAJGP_22350&lt;/b&gt;&lt;br&gt;D-3-phosphoglycerate dehydrogenase&lt;br&gt;Location: 4721811 - 4722738" locus_tag="JNAJGP_22350" class="clusterblast-orf" id="dummy-7_q10_0_all"  />
</g>
<g label="NZ_CVTP01000028" description="NZ_CVTP01000028 (376556-389374): Pseudomonas sp. 58 R 12, whole genome shotgu... (100% of genes show similarity), hydrogen-cyanide" class="clusterblast-cluster"  >
<text x="5" y="70" class="clusterblast-acc"  >
<a xlink:href="https://antismash-db.secondarymetabolites.org/area?record=NZ_CVTP01000028&amp;start=376556&amp;end=389374" target="_blank">NZ_CVTP01000028 (376556-389374)</a>: Pseudomonas sp. 58 R 12, whole genome shotgu... (100% of genes show similarity), hydrogen-cyanide</text>
<line x1="10" y1="85" x2="778.0" y2="85" style="stroke-width:1; stroke:grey; "  />
</g>
<g id="a7_000"  >
<polygon points="0,90 60,90 65,85 60,80 0,80 0,90 " style="fill:#d81515; stroke-width:1; stroke:black; " description="&lt;b&gt;BFP95_RS26110&lt;/b&gt;&lt;br&gt;ABC transporter permease&lt;br&gt;Location: 377889 - 378845&lt;br&gt;&lt;br&gt;&lt;b&gt;BlastP hit with JNAJGP_22300&lt;/b&gt;&lt;br&gt;Percentage identity: 98&lt;br&gt;Percentage coverage: 100&lt;br&gt;BLAST bit score: 574&lt;br&gt;E-value: 2.4e-207" locus_tag="BFP95_RS26110" class="clusterblast-orf" id="dummy-7_h7_5_0"  />
</g>
<g id="a7_001"  >
<polygon points="65,90 120,90 125,85 120,80 65,80 65,90 " style="fill:#3cd815; stroke-width:1; stroke:black; " description="&lt;b&gt;BFP95_RS26115&lt;/b&gt;&lt;br&gt;ABC transporter permease&lt;br&gt;Location: 378842 - 379717&lt;br&gt;&lt;br&gt;&lt;b&gt;BlastP hit with JNAJGP_22305&lt;/b&gt;&lt;br&gt;Percentage identity: 97&lt;br&gt;Percentage coverage: 100&lt;br&gt;BLAST bit score: 533&lt;br&gt;E-value: 6.07e-192" locus_tag="BFP95_RS26115" class="clusterblast-orf" id="dummy-7_h7_5_1"  />
</g>
<g id="a7_002"  >
<polygon points="125,90 246,90 251,85 246,80 125,80 125,90 " style="fill:#1563d8; stroke-width:1; stroke:black; " description="&lt;b&gt;BFP95_RS26120&lt;/b&gt;&lt;br&gt;ABC transporter ATP-binding protein&lt;br&gt;Location: 379719 - 381560&lt;br&gt;&lt;br&gt;&lt;b&gt;BlastP hit with JNAJGP_22310&lt;/b&gt;&lt;br&gt;Percentage identity: 93&lt;br&gt;Percentage coverage: 100&lt;br&gt;BLAST bit score: 1091&lt;br&gt;E-value: 0.0" locus_tag="BFP95_RS26120" class="clusterblast-orf" id="dummy-7_h7_5_2"  />
</g>
<g id="a7_003"  >
<polygon points="251,90 267,90 272,85 267,80 251,80 251,90 " style="fill:#b115d8; stroke-width:1; stroke:black; " description="&lt;b&gt;BFP95_RS26125&lt;/b&gt;&lt;br&gt;(2Fe-2S)-binding protein&lt;br&gt;Location: 381557 - 381865&lt;br&gt;&lt;br&gt;&lt;b&gt;BlastP hit with JNAJGP_22315&lt;/b&gt;&lt;br&gt;Percentage identity: 98&lt;br&gt;Percentage coverage: 100&lt;br&gt;BLAST bit score: 211&lt;br&gt;E-value: 7.43e-71" locus_tag="BFP95_RS26125" class="clusterblast-orf" id="dummy-7_h7_5_3"  />
</g>
<g id="a7_004"  >
<polygon points="271,90 360,90 365,85 360,80 271,80 271,90 " style="fill:#d88a15; stroke-width:1; stroke:black; " description="&lt;b&gt;BFP95_RS26130&lt;/b&gt;&lt;br&gt;NAD(P)/FAD-dependent oxidoreductase&lt;br&gt;Location: 381847 - 383223&lt;br&gt;&lt;br&gt;&lt;b&gt;BlastP hit with JNAJGP_22320&lt;/b&gt;&lt;br&gt;Percentage identity: 95&lt;br&gt;Percentage coverage: 100&lt;br&gt;BLAST bit score: 854&lt;br&gt;E-value: 1.52e-313" locus_tag="BFP95_RS26130" class="clusterblast-orf" id="dummy-7_h7_5_4"  />
</g>
<g id="a7_005"  >
<polygon points="365,90 439,90 444,85 439,80 365,80 365,90 " style="fill:#15d863; stroke-width:1; stroke:black; " description="&lt;b&gt;BFP95_RS26135&lt;/b&gt;&lt;br&gt;FAD-binding oxidoreductase&lt;br&gt;Location: 383220 - 384374&lt;br&gt;&lt;br&gt;&lt;b&gt;BlastP hit with JNAJGP_22325&lt;/b&gt;&lt;br&gt;Percentage identity: 95&lt;br&gt;Percentage coverage: 100&lt;br&gt;BLAST bit score: 717&lt;br&gt;E-value: 5.51e-262" locus_tag="BFP95_RS26135" class="clusterblast-orf" id="dummy-7_h7_5_5"  />
</g>
<g id="a7_006"  >
<polygon points="444,90 518,90 523,85 518,80 444,80 444,90 " style="fill:#3c15d8; stroke-width:1; stroke:black; " description="&lt;b&gt;BFP95_RS26140&lt;/b&gt;&lt;br&gt;acetylornithine deacetylase&lt;br&gt;Location: 384371 - 385528&lt;br&gt;&lt;br&gt;&lt;b&gt;BlastP hit with JNAJGP_22330&lt;/b&gt;&lt;br&gt;Percentage identity: 94&lt;br&gt;Percentage coverage: 100&lt;br&gt;BLAST bit score: 715&lt;br&gt;E-value: 5.09e-261" locus_tag="BFP95_RS26140" class="clusterblast-orf" id="dummy-7_h7_5_6"  />
</g>
<g id="a7_007"  >
<polygon points="532,90 627,90 632,85 627,80 532,80 532,90 " style="fill:#d8158a; stroke-width:1; stroke:black; " description="&lt;b&gt;BFP95_RS26145&lt;/b&gt;&lt;br&gt;NAD-dependent succinate-semialdehyde dehydrogenase&lt;br&gt;Location: 385646 - 387106&lt;br&gt;&lt;br&gt;&lt;b&gt;BlastP hit with JNAJGP_22335&lt;/b&gt;&lt;br&gt;Percentage identity: 94&lt;br&gt;Percentage coverage: 100&lt;br&gt;BLAST bit score: 848&lt;br&gt;E-value: 3.52e-310" locus_tag="BFP95_RS26145" class="clusterblast-orf" id="dummy-7_h7_5_7"  />
</g>
<g id="a7_008"  >
<polygon points="633,90 702,90 707,85 702,80 633,80 633,90 " style="fill:#b1d815; stroke-width:1; stroke:black; " description="&lt;b&gt;BFP95_RS26150&lt;/b&gt;&lt;br&gt;tartrate dehydrogenase&lt;br&gt;Location: 387127 - 388212&lt;br&gt;&lt;br&gt;&lt;b&gt;BlastP hit with JNAJGP_22340&lt;/b&gt;&lt;br&gt;Percentage identity: 94&lt;br&gt;Percentage coverage: 99&lt;br&gt;BLAST bit score: 703&lt;br&gt;E-value: 4.17e-257" locus_tag="BFP95_RS26150" class="clusterblast-orf" id="dummy-7_h7_5_8"  />
</g>
<g id="a7_009"  >
<polygon points="716,85 721,80 780,80 780,90 721,90 716,85 " style="fill:#15d8d8; stroke-width:1; stroke:black; " description="&lt;b&gt;BFP95_RS26155&lt;/b&gt;&lt;br&gt;glyoxylate/hydroxypyruvate reductase A&lt;br&gt;Location: 388336 - 389262&lt;br&gt;&lt;br&gt;&lt;b&gt;BlastP hit with JNAJGP_22350&lt;/b&gt;&lt;br&gt;Percentage identity: 90&lt;br&gt;Percentage coverage: 100&lt;br&gt;BLAST bit score: 567&lt;br&gt;E-value: 4.33e-205" locus_tag="BFP95_RS26155" class="clusterblast-orf" id="dummy-7_h7_5_9"  />
</g>
</svg>
