<svg xmlns="http://www.w3.org/2000/svg" xmlns:xlink="http://www.w3.org/1999/xlink" version="1.1" x="0" y="0" height="230" width="800" viewBox="0 0 800 230" preserveAspectRatio="none"  >
<g label="Query sequence" class="clusterblast-cluster"  >
<text x="5" y="20" class="clusterblast-acc"  >
Query sequence</text>
<line x1="10" y1="35" x2="778.0" y2="35" style="stroke-width:1; stroke:grey; "  />
<polygon points="0,40 11,40 16,35 11,30 0,30 0,40 " style="fill:#d81515; stroke-width:1; stroke:black; " description="&lt;b&gt;JNAJGP_22985&lt;/b&gt;&lt;br&gt;Cytochrome b561 bacterial/Ni-hydrogenase domain-containing protein&lt;br&gt;Location: 4860170 - 4860710" locus_tag="JNAJGP_22985" class="clusterblast-orf" id="dummy-8_q0_0_all"  />
<polygon points="18,35 23,30 52,30 52,40 23,40 18,35 " style="fill:#56d815; stroke-width:1; stroke:black; " description="&lt;b&gt;JNAJGP_22990&lt;/b&gt;&lt;br&gt;Peptidase M14 carboxypeptidase A domain-containing protein&lt;br&gt;Location: 4860766 - 4861918" locus_tag="JNAJGP_22990" class="clusterblast-orf" id="dummy-8_q1_0_all"  />
<polygon points="66,35 71,30 77,30 77,40 71,40 66,35 " style="fill:#1597d8; stroke-width:1; stroke:black; " description="&lt;b&gt;JNAJGP_23000&lt;/b&gt;&lt;br&gt;DUF3077 domain-containing protein&lt;br&gt;Location: 4862380 - 4862731" locus_tag="JNAJGP_23000" class="clusterblast-orf" id="dummy-8_q2_0_all"  />
<polygon points="81,40 95,40 100,35 95,30 81,30 81,40 " style="fill:#9715d8; stroke-width:1; stroke:black; " description="&lt;b&gt;JNAJGP_23005&lt;/b&gt;&lt;br&gt;Putative prophage repressor&lt;br&gt;Location: 4862860 - 4863496" locus_tag="JNAJGP_23005" class="clusterblast-orf" id="dummy-8_q3_0_all"  />
<polygon points="100,35 105,30 158,30 158,40 105,40 100,35 " style="fill:#d85615; stroke-width:1; stroke:black; " description="&lt;b&gt;JNAJGP_23010&lt;/b&gt;&lt;br&gt;Methylcrotonyl-CoA carboxylase, alpha-subunit LiuD&lt;br&gt;Location: 4863492 - 4865418" locus_tag="JNAJGP_23010" class="clusterblast-orf" id="dummy-8_q4_0_all"  />
<polygon points="158,35 163,30 182,30 182,40 163,40 158,35 " style="fill:#15d815; stroke-width:1; stroke:black; " description="&lt;b&gt;JNAJGP_23015&lt;/b&gt;&lt;br&gt;gamma-carboxygeranoyl-CoA hydratase&lt;br&gt;Location: 4865414 - 4866221" locus_tag="JNAJGP_23015" class="clusterblast-orf" id="dummy-8_q5_0_all"  />
<polygon points="183,35 188,30 231,30 231,40 188,40 183,35 " style="fill:#1556d8; stroke-width:1; stroke:black; " description="&lt;b&gt;JNAJGP_23020&lt;/b&gt;&lt;br&gt;Acetyl-CoA carboxylase, carboxyltransferase component&lt;br&gt;Location: 4866236 - 4867844" locus_tag="JNAJGP_23020" class="clusterblast-orf" id="dummy-8_q6_0_all"  />
<polygon points="231,35 236,30 267,30 267,40 236,40 231,35 " style="fill:#d815d8; stroke-width:1; stroke:black; " description="&lt;b&gt;JNAJGP_23025&lt;/b&gt;&lt;br&gt;Acyl-CoA dehydrogenase related to the alkylation response protein AidB&lt;br&gt;Location: 4867855 - 4869019" locus_tag="JNAJGP_23025" class="clusterblast-orf" id="dummy-8_q7_0_all"  />
<polygon points="271,40 315,40 320,35 315,30 271,30 271,40 " style="fill:#d89715; stroke-width:1; stroke:black; " description="&lt;b&gt;JNAJGP_23030&lt;/b&gt;&lt;br&gt;Long-chain-fatty-acid--CoA ligase&lt;br&gt;Location: 4869168 - 4870800" locus_tag="JNAJGP_23030" class="clusterblast-orf" id="dummy-8_q8_0_all"  />
<polygon points="323,40 473,40 478,35 473,30 323,30 323,40 " style="fill:#15d856; stroke-width:1; stroke:black; " description="&lt;b&gt;JNAJGP_23035&lt;/b&gt;&lt;br&gt;RING-type E3 ubiquitin transferase&lt;br&gt;Location: 4870898 - 4876037" locus_tag="JNAJGP_23035" class="clusterblast-orf" id="dummy-8_q9_0_all"  />
<polygon points="495,35 500,30 522,30 522,40 500,40 495,35 " style="fill:#1515d8; stroke-width:1; stroke:black; " description="&lt;b&gt;JNAJGP_23045&lt;/b&gt;&lt;br&gt;hydroxymethylglutaryl-CoA lyase&lt;br&gt;Location: 4876585 - 4877485" locus_tag="JNAJGP_23045" class="clusterblast-orf" id="dummy-8_q10_0_all"  />
<polygon points="522,35 527,30 534,30 534,40 527,40 522,35 " style="fill:#d81597; stroke-width:1; stroke:black; " description="&lt;b&gt;JNAJGP_23050&lt;/b&gt;&lt;br&gt;HTH merR-type domain-containing protein&lt;br&gt;Location: 4877501 - 4877894" locus_tag="JNAJGP_23050" class="clusterblast-orf" id="dummy-8_q11_0_all"  />
<polygon points="538,35 543,30 566,30 566,40 543,40 538,35 " style="fill:#d8d815; stroke-width:1; stroke:black; " description="&lt;b&gt;JNAJGP_23055&lt;/b&gt;&lt;br&gt;DNA-binding transcriptional regulator, LysR family&lt;br&gt;Location: 4878031 - 4878967" locus_tag="JNAJGP_23055" class="clusterblast-orf" id="dummy-8_q12_0_all"  />
<polygon points="571,40 603,40 608,35 603,30 571,30 571,40 " style="fill:#15d897; stroke-width:1; stroke:black; " description="&lt;b&gt;JNAJGP_23060&lt;/b&gt;&lt;br&gt;Acyl-CoA dehydrogenase related to the alkylation response protein AidB&lt;br&gt;Location: 4879133 - 4880363" locus_tag="JNAJGP_23060" class="clusterblast-orf" id="dummy-8_q13_0_all"  />
<polygon points="612,35 617,30 652,30 652,40 617,40 612,35 " style="fill:#5615d8; stroke-width:1; stroke:black; " description="&lt;b&gt;JNAJGP_23065&lt;/b&gt;&lt;br&gt;OmpA-like domain-containing protein&lt;br&gt;Location: 4880479 - 4881811" locus_tag="JNAJGP_23065" class="clusterblast-orf" id="dummy-8_q14_0_all"  />
<polygon points="656,35 661,30 680,30 680,40 661,40 656,35 " style="fill:#d81556; stroke-width:1; stroke:black; " description="&lt;b&gt;JNAJGP_23070&lt;/b&gt;&lt;br&gt;exodeoxyribonuclease III&lt;br&gt;Location: 4881934 - 4882747" locus_tag="JNAJGP_23070" class="clusterblast-orf" id="dummy-8_q15_0_all"  />
<polygon points="685,40 700,40 705,35 700,30 685,30 685,40 " style="fill:#97d815; stroke-width:1; stroke:black; " description="&lt;b&gt;JNAJGP_23075&lt;/b&gt;&lt;br&gt;N-acetyltransferase domain-containing protein&lt;br&gt;Location: 4882916 - 4883567" locus_tag="JNAJGP_23075" class="clusterblast-orf" id="dummy-8_q16_0_all"  />
<polygon points="708,40 754,40 759,35 754,30 708,30 708,40 " style="fill:#15d8d8; stroke-width:1; stroke:black; " description="&lt;b&gt;JNAJGP_23080&lt;/b&gt;&lt;br&gt;Translocation and assembly module subunit TamA&lt;br&gt;Location: 4883660 - 4885358" locus_tag="JNAJGP_23080" class="clusterblast-orf" id="dummy-8_q17_0_all"  />
<polygon points="759,40 775,40 780,35 775,30 759,30 759,40 " style="fill:white; stroke-width:1; stroke:black; " description="&lt;b&gt;JNAJGP_23085&lt;/b&gt;&lt;br&gt;hypothetical protein&lt;br&gt;Location: 4885357 - 4886047" locus_tag="JNAJGP_23085" class="clusterblast-orf" id="dummy-8_q18_0_all"  />
</g>
<g label="NZ_LT629801" description="NZ_LT629801 (1635911-1664260): Pseudomonas rhodesiae strain LMG 17764 chromos... (100% of genes show similarity), betalactone" class="clusterblast-cluster"  >
<text x="5" y="70" class="clusterblast-acc"  >
<a xlink:href="https://antismash-db.secondarymetabolites.org/area?record=NZ_LT629801&amp;start=1635911&amp;end=1664260" target="_blank">NZ_LT629801 (1635911-1664260)</a>: Pseudomonas rhodesiae strain LMG 17764 chromos... (100% of genes show similarity), betalactone</text>
<line x1="10" y1="85" x2="778.0" y2="85" style="stroke-width:1; stroke:grey; "  />
</g>
<g id="a8_000"  >
<polygon points="10,90 22,90 27,85 22,80 10,80 10,90 " style="fill:#d81515; stroke-width:1; stroke:black; " description="&lt;b&gt;BLU13_RS07695&lt;/b&gt;&lt;br&gt;cytochrome b&lt;br&gt;Location: 1636945 - 1637484&lt;br&gt;&lt;br&gt;&lt;b&gt;BlastP hit with JNAJGP_22985&lt;/b&gt;&lt;br&gt;Percentage identity: 89&lt;br&gt;Percentage coverage: 99&lt;br&gt;BLAST bit score: 297&lt;br&gt;E-value: 2.25e-102" locus_tag="BLU13_RS07695" class="clusterblast-orf" id="dummy-8_h8_5_0"  />
</g>
<g id="a8_001"  >
<polygon points="27,85 32,80 62,80 62,90 32,90 27,85 " style="fill:#56d815; stroke-width:1; stroke:black; " description="&lt;b&gt;BLU13_RS07700&lt;/b&gt;&lt;br&gt;M14-type cytosolic carboxypeptidase&lt;br&gt;Location: 1637503 - 1638654&lt;br&gt;&lt;br&gt;&lt;b&gt;BlastP hit with JNAJGP_22990&lt;/b&gt;&lt;br&gt;Percentage identity: 93&lt;br&gt;Percentage coverage: 100&lt;br&gt;BLAST bit score: 743&lt;br&gt;E-value: 3.26e-272" locus_tag="BLU13_RS07700" class="clusterblast-orf" id="dummy-8_h8_5_1"  />
</g>
<g id="a8_002"  >
<polygon points="76,85 81,80 86,80 86,90 81,90 76,85 " style="fill:#1597d8; stroke-width:1; stroke:black; " description="&lt;b&gt;BLU13_RS07710&lt;/b&gt;&lt;br&gt;DUF3077 domain-containing protein&lt;br&gt;Location: 1639121 - 1639471&lt;br&gt;&lt;br&gt;&lt;b&gt;BlastP hit with JNAJGP_23000&lt;/b&gt;&lt;br&gt;Percentage identity: 83&lt;br&gt;Percentage coverage: 99&lt;br&gt;BLAST bit score: 175&lt;br&gt;E-value: 4.47e-56" locus_tag="BLU13_RS07710" class="clusterblast-orf" id="dummy-8_h8_5_2"  />
</g>
<g id="a8_003"  >
<polygon points="90,90 105,90 110,85 105,80 90,80 90,90 " style="fill:#9715d8; stroke-width:1; stroke:black; " description="&lt;b&gt;BLU13_RS07715&lt;/b&gt;&lt;br&gt;helix-turn-helix domain-containing protein&lt;br&gt;Location: 1639603 - 1640238&lt;br&gt;&lt;br&gt;&lt;b&gt;BlastP hit with JNAJGP_23005&lt;/b&gt;&lt;br&gt;Percentage identity: 79&lt;br&gt;Percentage coverage: 100&lt;br&gt;BLAST bit score: 338&lt;br&gt;E-value: 1.23e-117" locus_tag="BLU13_RS07715" class="clusterblast-orf" id="dummy-8_h8_5_3"  />
</g>
<g id="a8_004"  >
<polygon points="109,85 114,80 168,80 168,90 114,90 109,85 " style="fill:#d85615; stroke-width:1; stroke:black; " description="&lt;b&gt;BLU13_RS07720&lt;/b&gt;&lt;br&gt;acetyl/propionyl/methylcrotonyl-CoA carboxylase subunit alpha&lt;br&gt;Location: 1640235 - 1642160&lt;br&gt;&lt;br&gt;&lt;b&gt;BlastP hit with JNAJGP_23010&lt;/b&gt;&lt;br&gt;Percentage identity: 91&lt;br&gt;Percentage coverage: 100&lt;br&gt;BLAST bit score: 1135&lt;br&gt;E-value: 0.0" locus_tag="BLU13_RS07720" class="clusterblast-orf" id="dummy-8_h8_5_4"  />
</g>
<g id="a8_005"  >
<polygon points="167,85 172,80 192,80 192,90 172,90 167,85 " style="fill:#15d815; stroke-width:1; stroke:black; " description="&lt;b&gt;BLU13_RS07725&lt;/b&gt;&lt;br&gt;gamma-carboxygeranoyl-CoA hydratase&lt;br&gt;Location: 1642157 - 1642963&lt;br&gt;&lt;br&gt;&lt;b&gt;BlastP hit with JNAJGP_23015&lt;/b&gt;&lt;br&gt;Percentage identity: 97&lt;br&gt;Percentage coverage: 100&lt;br&gt;BLAST bit score: 501&lt;br&gt;E-value: 2.29e-180" locus_tag="BLU13_RS07725" class="clusterblast-orf" id="dummy-8_h8_5_5"  />
</g>
<g id="a8_006"  >
<polygon points="192,85 197,80 241,80 241,90 197,90 192,85 " style="fill:#1556d8; stroke-width:1; stroke:black; " description="&lt;b&gt;BLU13_RS07730&lt;/b&gt;&lt;br&gt;methylcrotonoyl-CoA carboxylase&lt;br&gt;Location: 1642979 - 1644586&lt;br&gt;&lt;br&gt;&lt;b&gt;BlastP hit with JNAJGP_23020&lt;/b&gt;&lt;br&gt;Percentage identity: 97&lt;br&gt;Percentage coverage: 100&lt;br&gt;BLAST bit score: 1036&lt;br&gt;E-value: 0.0" locus_tag="BLU13_RS07730" class="clusterblast-orf" id="dummy-8_h8_5_6"  />
</g>
<g id="a8_007"  >
<polygon points="241,85 246,80 276,80 276,90 246,90 241,85 " style="fill:#d815d8; stroke-width:1; stroke:black; " description="&lt;b&gt;BLU13_RS07735&lt;/b&gt;&lt;br&gt;isovaleryl-CoA dehydrogenase&lt;br&gt;Location: 1644598 - 1645761&lt;br&gt;&lt;br&gt;&lt;b&gt;BlastP hit with JNAJGP_23025&lt;/b&gt;&lt;br&gt;Percentage identity: 98&lt;br&gt;Percentage coverage: 100&lt;br&gt;BLAST bit score: 753&lt;br&gt;E-value: 4.86e-276" locus_tag="BLU13_RS07735" class="clusterblast-orf" id="dummy-8_h8_5_7"  />
</g>
<g id="a8_008"  >
<polygon points="281,90 325,90 330,85 325,80 281,80 281,90 " style="fill:#d89715; stroke-width:1; stroke:black; " description="&lt;b&gt;BLU13_RS07740&lt;/b&gt;&lt;br&gt;AMP-binding protein&lt;br&gt;Location: 1645912 - 1647546&lt;br&gt;&lt;br&gt;&lt;b&gt;BlastP hit with JNAJGP_23030&lt;/b&gt;&lt;br&gt;Percentage identity: 89&lt;br&gt;Percentage coverage: 100&lt;br&gt;BLAST bit score: 1000&lt;br&gt;E-value: 0.0" locus_tag="BLU13_RS07740" class="clusterblast-orf" id="dummy-8_h8_5_8"  />
</g>
<g id="a8_009"  >
<polygon points="332,90 484,90 489,85 484,80 332,80 332,90 " style="fill:#15d856; stroke-width:1; stroke:black; " description="&lt;b&gt;BLU13_RS07745&lt;/b&gt;&lt;br&gt;NEL-type E3 ubiquitin ligase domain-containing protein&lt;br&gt;Location: 1647628 - 1652811&lt;br&gt;&lt;br&gt;&lt;b&gt;BlastP hit with JNAJGP_23035&lt;/b&gt;&lt;br&gt;Percentage identity: 53&lt;br&gt;Percentage coverage: 100&lt;br&gt;BLAST bit score: 1710&lt;br&gt;E-value: 0.0" locus_tag="BLU13_RS07745" class="clusterblast-orf" id="dummy-8_h8_5_9"  />
</g>
<g id="a8_0010"  >
<polygon points="505,85 510,80 532,80 532,90 510,90 505,85 " style="fill:#1515d8; stroke-width:1; stroke:black; " description="&lt;b&gt;BLU13_RS07750&lt;/b&gt;&lt;br&gt;hydroxymethylglutaryl-CoA lyase&lt;br&gt;Location: 1653361 - 1654260&lt;br&gt;&lt;br&gt;&lt;b&gt;BlastP hit with JNAJGP_23045&lt;/b&gt;&lt;br&gt;Percentage identity: 93&lt;br&gt;Percentage coverage: 100&lt;br&gt;BLAST bit score: 541&lt;br&gt;E-value: 3.51e-195" locus_tag="BLU13_RS07750" class="clusterblast-orf" id="dummy-8_h8_5_10"  />
</g>
<g id="a8_0011"  >
<polygon points="533,85 538,80 545,80 545,90 538,90 533,85 " style="fill:#d81597; stroke-width:1; stroke:black; " description="&lt;b&gt;BLU13_RS07755&lt;/b&gt;&lt;br&gt;MerR family DNA-binding transcriptional regulator&lt;br&gt;Location: 1654277 - 1654669&lt;br&gt;&lt;br&gt;&lt;b&gt;BlastP hit with JNAJGP_23050&lt;/b&gt;&lt;br&gt;Percentage identity: 98&lt;br&gt;Percentage coverage: 99&lt;br&gt;BLAST bit score: 234&lt;br&gt;E-value: 4.13e-79" locus_tag="BLU13_RS07755" class="clusterblast-orf" id="dummy-8_h8_5_11"  />
</g>
<g id="a8_0012"  >
<polygon points="549,85 554,80 577,80 577,90 554,90 549,85 " style="fill:#d8d815; stroke-width:1; stroke:black; " description="&lt;b&gt;BLU13_RS07760&lt;/b&gt;&lt;br&gt;LysR family transcriptional regulator&lt;br&gt;Location: 1654805 - 1655740&lt;br&gt;&lt;br&gt;&lt;b&gt;BlastP hit with JNAJGP_23055&lt;/b&gt;&lt;br&gt;Percentage identity: 97&lt;br&gt;Percentage coverage: 100&lt;br&gt;BLAST bit score: 599&lt;br&gt;E-value: 1.22e-217" locus_tag="BLU13_RS07760" class="clusterblast-orf" id="dummy-8_h8_5_12"  />
</g>
<g id="a8_0013"  >
<polygon points="581,90 613,90 618,85 613,80 581,80 581,90 " style="fill:#15d897; stroke-width:1; stroke:black; " description="&lt;b&gt;BLU13_RS07765&lt;/b&gt;&lt;br&gt;acyl-CoA dehydrogenase&lt;br&gt;Location: 1655892 - 1657121&lt;br&gt;&lt;br&gt;&lt;b&gt;BlastP hit with JNAJGP_23060&lt;/b&gt;&lt;br&gt;Percentage identity: 98&lt;br&gt;Percentage coverage: 100&lt;br&gt;BLAST bit score: 815&lt;br&gt;E-value: 1.11e-299" locus_tag="BLU13_RS07765" class="clusterblast-orf" id="dummy-8_h8_5_13"  />
</g>
<g id="a8_0014"  >
<polygon points="622,85 627,80 662,80 662,90 627,90 622,85 " style="fill:#5615d8; stroke-width:1; stroke:black; " description="&lt;b&gt;BLU13_RS07770&lt;/b&gt;&lt;br&gt;phosphate ABC transporter substrate-binding/OmpA family protein&lt;br&gt;Location: 1657233 - 1658567&lt;br&gt;&lt;br&gt;&lt;b&gt;BlastP hit with JNAJGP_23065&lt;/b&gt;&lt;br&gt;Percentage identity: 89&lt;br&gt;Percentage coverage: 100&lt;br&gt;BLAST bit score: 756&lt;br&gt;E-value: 4.74e-275" locus_tag="BLU13_RS07770" class="clusterblast-orf" id="dummy-8_h8_5_14"  />
</g>
<g id="a8_0015"  >
<polygon points="665,85 670,80 690,80 690,90 670,90 665,85 " style="fill:#d81556; stroke-width:1; stroke:black; " description="&lt;b&gt;BLU13_RS07775&lt;/b&gt;&lt;br&gt;exodeoxyribonuclease III&lt;br&gt;Location: 1658678 - 1659490&lt;br&gt;&lt;br&gt;&lt;b&gt;BlastP hit with JNAJGP_23070&lt;/b&gt;&lt;br&gt;Percentage identity: 97&lt;br&gt;Percentage coverage: 100&lt;br&gt;BLAST bit score: 550&lt;br&gt;E-value: 1.65e-199" locus_tag="BLU13_RS07775" class="clusterblast-orf" id="dummy-8_h8_5_15"  />
</g>
<g id="a8_0016"  >
<polygon points="695,90 710,90 715,85 710,80 695,80 695,90 " style="fill:#97d815; stroke-width:1; stroke:black; " description="&lt;b&gt;BLU13_RS07780&lt;/b&gt;&lt;br&gt;GNAT family N-acetyltransferase&lt;br&gt;Location: 1659661 - 1660311&lt;br&gt;&lt;br&gt;&lt;b&gt;BlastP hit with JNAJGP_23075&lt;/b&gt;&lt;br&gt;Percentage identity: 94&lt;br&gt;Percentage coverage: 100&lt;br&gt;BLAST bit score: 426&lt;br&gt;E-value: 2.24e-152" locus_tag="BLU13_RS07780" class="clusterblast-orf" id="dummy-8_h8_5_16"  />
</g>
<g id="a8_0017"  >
<polygon points="717,90 764,90 769,85 764,80 717,80 717,90 " style="fill:#15d8d8; stroke-width:1; stroke:black; " description="&lt;b&gt;BLU13_RS07785&lt;/b&gt;&lt;br&gt;autotransporter assembly complex protein TamA&lt;br&gt;Location: 1660376 - 1662103&lt;br&gt;&lt;br&gt;&lt;b&gt;BlastP hit with JNAJGP_23080&lt;/b&gt;&lt;br&gt;Percentage identity: 94&lt;br&gt;Percentage coverage: 100&lt;br&gt;BLAST bit score: 1104&lt;br&gt;E-value: 0.0" locus_tag="BLU13_RS07785" class="clusterblast-orf" id="dummy-8_h8_5_17"  />
</g>
</svg>
