<svg xmlns="http://www.w3.org/2000/svg" xmlns:xlink="http://www.w3.org/1999/xlink" version="1.1" x="0" y="0" height="230" width="800" viewBox="0 0 800 230" preserveAspectRatio="none"  >
<g label="Query sequence" class="clusterblast-cluster"  >
<text x="5" y="20" class="clusterblast-acc"  >
Query sequence</text>
<line x1="10" y1="35" x2="778.0" y2="35" style="stroke-width:1; stroke:grey; "  />
<polygon points="226,35 231,30 249,30 249,40 231,40 226,35 " style="fill:#d81515; stroke-width:1; stroke:black; " description="&lt;b&gt;JNAJGP_27310&lt;/b&gt;&lt;br&gt;Transcriptional regulator, AraC family&lt;br&gt;Location: 5819740 - 5820610" locus_tag="JNAJGP_27310" class="clusterblast-orf" id="dummy-10_q0_0_all"  />
<polygon points="255,40 267,40 272,35 267,30 255,30 255,40 " style="fill:#3cd815; stroke-width:1; stroke:black; " description="&lt;b&gt;JNAJGP_27315&lt;/b&gt;&lt;br&gt;Lysine transporter LysE&lt;br&gt;Location: 5820798 - 5821419" locus_tag="JNAJGP_27315" class="clusterblast-orf" id="dummy-10_q1_0_all"  />
<polygon points="274,40 282,40 287,35 282,30 274,30 274,40 " style="fill:#1563d8; stroke-width:1; stroke:black; " description="&lt;b&gt;JNAJGP_27320&lt;/b&gt;&lt;br&gt;PhnB-like domain-containing protein&lt;br&gt;Location: 5821494 - 5821977" locus_tag="JNAJGP_27320" class="clusterblast-orf" id="dummy-10_q2_0_all"  />
<polygon points="290,40 306,40 311,35 306,30 290,30 290,40 " style="fill:#b115d8; stroke-width:1; stroke:black; " description="&lt;b&gt;JNAJGP_27325&lt;/b&gt;&lt;br&gt;cysteine synthase family protein&lt;br&gt;Location: 5822078 - 5822870" locus_tag="JNAJGP_27325" class="clusterblast-orf" id="dummy-10_q3_0_all"  />
<polygon points="311,40 322,40 327,35 322,30 311,30 311,40 " style="fill:#b115d8; stroke-width:1; stroke:black; " description="&lt;b&gt;JNAJGP_27330&lt;/b&gt;&lt;br&gt;CBS domain-containing protein&lt;br&gt;Location: 5822870 - 5823455" locus_tag="JNAJGP_27330" class="clusterblast-orf" id="dummy-10_q4_0_all"  />
<polygon points="327,40 354,40 359,35 354,30 327,30 327,40 " style="fill:#d88a15; stroke-width:1; stroke:black; " description="&lt;b&gt;JNAJGP_27335&lt;/b&gt;&lt;br&gt;cystathionine gamma-synthase&lt;br&gt;Location: 5823451 - 5824618" locus_tag="JNAJGP_27335" class="clusterblast-orf" id="dummy-10_q5_0_all"  />
<polygon points="360,35 365,30 421,30 421,40 365,40 360,35 " style="fill:#15d863; stroke-width:1; stroke:black; " description="&lt;b&gt;JNAJGP_27340&lt;/b&gt;&lt;br&gt;OsmC domain/YcaO domain-containing protein&lt;br&gt;Location: 5824670 - 5826872" locus_tag="JNAJGP_27340" class="clusterblast-orf" id="dummy-10_q6_0_all"  />
<polygon points="425,40 427,40 432,35 427,30 425,30 425,40 " style="fill:#3c15d8; stroke-width:1; stroke:black; " description="&lt;b&gt;JNAJGP_27345&lt;/b&gt;&lt;br&gt;PAS domain-containing protein&lt;br&gt;Location: 5827033 - 5827303" locus_tag="JNAJGP_27345" class="clusterblast-orf" id="dummy-10_q7_0_all"  />
<polygon points="432,35 437,30 444,30 444,40 437,40 432,35 " style="fill:#15d863; stroke-width:1; stroke:black; " description="&lt;b&gt;JNAJGP_27350&lt;/b&gt;&lt;br&gt;Osmotically inducible protein OsmC&lt;br&gt;Location: 5827292 - 5827724" locus_tag="JNAJGP_27350" class="clusterblast-orf" id="dummy-10_q8_0_all"  />
<polygon points="446,40 484,40 489,35 484,30 446,30 446,40 " style="fill:#3c15d8; stroke-width:1; stroke:black; " description="&lt;b&gt;JNAJGP_27355&lt;/b&gt;&lt;br&gt;Methyl-accepting transducer domain-containing protein&lt;br&gt;Location: 5827804 - 5829370" locus_tag="JNAJGP_27355" class="clusterblast-orf" id="dummy-10_q9_0_all"  />
<polygon points="496,40 513,40 518,35 513,30 496,30 496,40 " style="fill:#d8158a; stroke-width:1; stroke:black; " description="&lt;b&gt;JNAJGP_27360&lt;/b&gt;&lt;br&gt;Suppressor of fused-like domain-containing protein&lt;br&gt;Location: 5829618 - 5830428" locus_tag="JNAJGP_27360" class="clusterblast-orf" id="dummy-10_q10_0_all"  />
<polygon points="518,40 529,40 534,35 529,30 518,30 518,40 " style="fill:#b1d815; stroke-width:1; stroke:black; " description="&lt;b&gt;JNAJGP_27365&lt;/b&gt;&lt;br&gt;hypothetical protein&lt;br&gt;Location: 5830427 - 5831009" locus_tag="JNAJGP_27365" class="clusterblast-orf" id="dummy-10_q11_0_all"  />
<polygon points="539,40 549,40 554,35 549,30 539,30 539,40 " style="fill:#15d8d8; stroke-width:1; stroke:black; " description="&lt;b&gt;JNAJGP_27370&lt;/b&gt;&lt;br&gt;Hydrolase, isochorismatase family&lt;br&gt;Location: 5831188 - 5831749" locus_tag="JNAJGP_27370" class="clusterblast-orf" id="dummy-10_q12_0_all"  />
</g>
<g label="NZ_LT629708" description="NZ_LT629708 (706141-735650): Pseudomonas extremorientalis strain LMG 19695 ch... (30% of genes show similarity), thiopeptide" class="clusterblast-cluster"  >
<text x="5" y="70" class="clusterblast-acc"  >
<a xlink:href="https://antismash-db.secondarymetabolites.org/area?record=NZ_LT629708&amp;start=706141&amp;end=735650" target="_blank">NZ_LT629708 (706141-735650)</a>: Pseudomonas extremorientalis strain LMG 19695 ch... (30% of genes show similarity), thiopeptide</text>
<line x1="10" y1="85" x2="778.0" y2="85" style="stroke-width:1; stroke:grey; "  />
</g>
<g id="a10_000"  >
<polygon points="0,90 10,90 15,85 10,80 0,80 0,90 " style="fill:white; stroke-width:1; stroke:black; " description="&lt;b&gt;BLT33_RS02990&lt;/b&gt;&lt;br&gt;adenylate kinase&lt;br&gt;Location: 706604 - 707158" locus_tag="BLT33_RS02990" class="clusterblast-orf" id="dummy-10_h10_10_0"  />
</g>
<g id="a10_001"  >
<polygon points="17,90 18,90 23,85 18,80 17,80 17,90 " style="fill:white; stroke-width:1; stroke:black; " description="&lt;b&gt;BLT33_RS02995&lt;/b&gt;&lt;br&gt;hypothetical protein&lt;br&gt;Location: 707233 - 707452" locus_tag="BLT33_RS02995" class="clusterblast-orf" id="dummy-10_h10_10_1"  />
</g>
<g id="a10_002"  >
<polygon points="32,90 71,90 76,85 71,80 32,80 32,90 " style="fill:#3c15d8; stroke-width:1; stroke:black; " description="&lt;b&gt;BLT33_RS03000&lt;/b&gt;&lt;br&gt;methyl-accepting chemotaxis protein&lt;br&gt;Location: 707777 - 709414&lt;br&gt;&lt;br&gt;&lt;b&gt;BlastP hit with JNAJGP_27355&lt;/b&gt;&lt;br&gt;Percentage identity: 40&lt;br&gt;Percentage coverage: 61&lt;br&gt;BLAST bit score: 139&lt;br&gt;E-value: 1.7e-33" locus_tag="BLT33_RS03000" class="clusterblast-orf" id="dummy-10_h10_10_2"  />
</g>
<g id="a10_003"  >
<polygon points="84,90 103,90 108,85 103,80 84,80 84,90 " style="fill:white; stroke-width:1; stroke:black; " description="&lt;b&gt;BLT33_RS03005&lt;/b&gt;&lt;br&gt;protein deglycase HchA&lt;br&gt;Location: 709687 - 710565" locus_tag="BLT33_RS03005" class="clusterblast-orf" id="dummy-10_h10_10_3"  />
</g>
<g id="a10_004"  >
<polygon points="108,90 122,90 127,85 122,80 108,80 108,90 " style="fill:white; stroke-width:1; stroke:black; " description="&lt;b&gt;BLT33_RS03010&lt;/b&gt;&lt;br&gt;LuxR C-terminal-related transcriptional regulator&lt;br&gt;Location: 710562 - 711281" locus_tag="BLT33_RS03010" class="clusterblast-orf" id="dummy-10_h10_10_4"  />
</g>
<g id="a10_005"  >
<polygon points="131,85 136,80 140,80 140,90 136,90 131,85 " style="fill:white; stroke-width:1; stroke:black; " description="&lt;b&gt;BLT33_RS03015&lt;/b&gt;&lt;br&gt;hypothetical protein&lt;br&gt;Location: 711402 - 711752" locus_tag="BLT33_RS03015" class="clusterblast-orf" id="dummy-10_h10_10_5"  />
</g>
<g id="a10_006"  >
<polygon points="147,90 166,90 171,85 166,80 147,80 147,90 " style="fill:white; stroke-width:1; stroke:black; " description="&lt;b&gt;BLT33_RS03020&lt;/b&gt;&lt;br&gt;alpha/beta hydrolase&lt;br&gt;Location: 711990 - 712892" locus_tag="BLT33_RS03020" class="clusterblast-orf" id="dummy-10_h10_10_6"  />
</g>
<g id="a10_007"  >
<polygon points="176,85 181,80 188,80 188,90 181,90 176,85 " style="fill:white; stroke-width:1; stroke:black; " description="&lt;b&gt;BLT33_RS03025&lt;/b&gt;&lt;br&gt;hypothetical protein&lt;br&gt;Location: 713058 - 713495" locus_tag="BLT33_RS03025" class="clusterblast-orf" id="dummy-10_h10_10_7"  />
</g>
<g id="a10_008"  >
<polygon points="192,85 197,80 222,80 222,90 197,90 192,85 " style="fill:white; stroke-width:1; stroke:black; " description="&lt;b&gt;BLT33_RS29430&lt;/b&gt;&lt;br&gt;DUF4113 domain-containing protein&lt;br&gt;Location: 713658 - 714757" locus_tag="BLT33_RS29430" class="clusterblast-orf" id="dummy-10_h10_10_8"  />
</g>
<g id="a10_009"  >
<polygon points="232,90 235,90 240,85 235,80 232,80 232,90 " style="fill:white; stroke-width:1; stroke:black; " description="&lt;b&gt;BLT33_RS03040&lt;/b&gt;&lt;br&gt;hypothetical protein&lt;br&gt;Location: 715109 - 715408" locus_tag="BLT33_RS03040" class="clusterblast-orf" id="dummy-10_h10_10_9"  />
</g>
<g id="a10_0010"  >
<polygon points="243,90 255,90 260,85 255,80 243,80 243,90 " style="fill:#3cd815; stroke-width:1; stroke:black; " description="&lt;b&gt;BLT33_RS03045&lt;/b&gt;&lt;br&gt;LysE family translocator&lt;br&gt;Location: 715518 - 716138&lt;br&gt;&lt;br&gt;&lt;b&gt;BlastP hit with JNAJGP_27315&lt;/b&gt;&lt;br&gt;Percentage identity: 93&lt;br&gt;Percentage coverage: 100&lt;br&gt;BLAST bit score: 367&lt;br&gt;E-value: 4.46e-129" locus_tag="BLT33_RS03045" class="clusterblast-orf" id="dummy-10_h10_10_10"  />
</g>
<g id="a10_0011"  >
<polygon points="260,90 266,90 271,85 266,80 260,80 260,90 " style="fill:white; stroke-width:1; stroke:black; " description="&lt;b&gt;BLT33_RS03050&lt;/b&gt;&lt;br&gt;ester cyclase&lt;br&gt;Location: 716142 - 716534" locus_tag="BLT33_RS03050" class="clusterblast-orf" id="dummy-10_h10_10_11"  />
</g>
<g id="a10_0012"  >
<polygon points="272,90 280,90 285,85 280,80 272,80 272,90 " style="fill:#1563d8; stroke-width:1; stroke:black; " description="&lt;b&gt;BLT33_RS03055&lt;/b&gt;&lt;br&gt;VOC family protein&lt;br&gt;Location: 716569 - 717051&lt;br&gt;&lt;br&gt;&lt;b&gt;BlastP hit with JNAJGP_27320&lt;/b&gt;&lt;br&gt;Percentage identity: 88&lt;br&gt;Percentage coverage: 99&lt;br&gt;BLAST bit score: 294&lt;br&gt;E-value: 6.32e-102" locus_tag="BLT33_RS03055" class="clusterblast-orf" id="dummy-10_h10_10_12"  />
</g>
<g id="a10_0013"  >
<polygon points="285,85 290,80 309,80 309,90 290,90 285,85 " style="fill:white; stroke-width:1; stroke:black; " description="&lt;b&gt;BLT33_RS03060&lt;/b&gt;&lt;br&gt;SGNH/GDSL hydrolase family protein&lt;br&gt;Location: 717048 - 717944" locus_tag="BLT33_RS03060" class="clusterblast-orf" id="dummy-10_h10_10_13"  />
</g>
<g id="a10_0014"  >
<polygon points="315,90 348,90 353,85 348,80 315,80 315,90 " style="fill:white; stroke-width:1; stroke:black; " description="&lt;b&gt;BLT33_RS03065&lt;/b&gt;&lt;br&gt;hypothetical protein&lt;br&gt;Location: 718152 - 719543" locus_tag="BLT33_RS03065" class="clusterblast-orf" id="dummy-10_h10_10_14"  />
</g>
<g id="a10_0015"  >
<polygon points="361,90 380,90 385,85 380,80 361,80 361,90 " style="fill:white; stroke-width:1; stroke:black; " description="&lt;b&gt;BLT33_RS03070&lt;/b&gt;&lt;br&gt;4-hydroxy-tetrahydrodipicolinate synthase&lt;br&gt;Location: 719837 - 720700" locus_tag="BLT33_RS03070" class="clusterblast-orf" id="dummy-10_h10_10_15"  />
</g>
<g id="a10_0016"  >
<polygon points="388,90 421,90 426,85 421,80 388,80 388,90 " style="fill:#b115d8; stroke-width:1; stroke:black; " description="&lt;b&gt;BLT33_RS03075&lt;/b&gt;&lt;br&gt;pyridoxal-phosphate dependent enzyme&lt;br&gt;Location: 720817 - 722193&lt;br&gt;&lt;br&gt;&lt;b&gt;BlastP hit with JNAJGP_27325&lt;/b&gt;&lt;br&gt;Percentage identity: 94&lt;br&gt;Percentage coverage: 100&lt;br&gt;BLAST bit score: 492&lt;br&gt;E-value: 7.5e-174&lt;br&gt;&lt;br&gt;&lt;b&gt;BlastP hit with JNAJGP_27330&lt;/b&gt;&lt;br&gt;Percentage identity: 90&lt;br&gt;Percentage coverage: 100&lt;br&gt;BLAST bit score: 346&lt;br&gt;E-value: 2.18e-117" locus_tag="BLT33_RS03075" class="clusterblast-orf" id="dummy-10_h10_10_16"  />
</g>
<g id="a10_0017"  >
<polygon points="425,90 452,90 457,85 452,80 425,80 425,90 " style="fill:#d88a15; stroke-width:1; stroke:black; " description="&lt;b&gt;BLT33_RS03080&lt;/b&gt;&lt;br&gt;cystathionine gamma-synthase&lt;br&gt;Location: 722190 - 723356&lt;br&gt;&lt;br&gt;&lt;b&gt;BlastP hit with JNAJGP_27335&lt;/b&gt;&lt;br&gt;Percentage identity: 95&lt;br&gt;Percentage coverage: 100&lt;br&gt;BLAST bit score: 735&lt;br&gt;E-value: 1.09e-268" locus_tag="BLT33_RS03080" class="clusterblast-orf" id="dummy-10_h10_10_17"  />
</g>
<g id="a10_0018"  >
<polygon points="460,85 465,80 520,80 520,90 465,90 460,85 " style="fill:#15d863; stroke-width:1; stroke:black; " description="&lt;b&gt;BLT33_RS03085&lt;/b&gt;&lt;br&gt;OsmC domain/YcaO domain-containing protein&lt;br&gt;Location: 723452 - 725650&lt;br&gt;&lt;br&gt;&lt;b&gt;BlastP hit with JNAJGP_27340&lt;/b&gt;&lt;br&gt;Percentage identity: 95&lt;br&gt;Percentage coverage: 100&lt;br&gt;BLAST bit score: 1400&lt;br&gt;E-value: 0.0&lt;br&gt;&lt;br&gt;&lt;b&gt;BlastP hit with JNAJGP_27350&lt;/b&gt;&lt;br&gt;Percentage identity: 98&lt;br&gt;Percentage coverage: 80&lt;br&gt;BLAST bit score: 230&lt;br&gt;E-value: 1.4e-70" locus_tag="BLT33_RS03085" class="clusterblast-orf" id="dummy-10_h10_10_18"  />
</g>
<g id="a10_0019"  >
<polygon points="524,90 562,90 567,85 562,80 524,80 524,90 " style="fill:#3c15d8; stroke-width:1; stroke:black; " description="&lt;b&gt;BLT33_RS03090&lt;/b&gt;&lt;br&gt;PAS domain-containing methyl-accepting chemotaxis protein&lt;br&gt;Location: 725813 - 727378&lt;br&gt;&lt;br&gt;&lt;b&gt;BlastP hit with JNAJGP_27345&lt;/b&gt;&lt;br&gt;Percentage identity: 90&lt;br&gt;Percentage coverage: 100&lt;br&gt;BLAST bit score: 167&lt;br&gt;E-value: 3.15e-49&lt;br&gt;&lt;br&gt;&lt;b&gt;BlastP hit with JNAJGP_27355&lt;/b&gt;&lt;br&gt;Percentage identity: 90&lt;br&gt;Percentage coverage: 100&lt;br&gt;BLAST bit score: 820&lt;br&gt;E-value: 6.81e-298" locus_tag="BLT33_RS03090" class="clusterblast-orf" id="dummy-10_h10_10_19"  />
</g>
<g id="a10_0020"  >
<polygon points="574,90 586,90 591,85 586,80 574,80 574,90 " style="fill:white; stroke-width:1; stroke:black; " description="&lt;b&gt;BLT33_RS03095&lt;/b&gt;&lt;br&gt;LysE family translocator&lt;br&gt;Location: 727628 - 728248" locus_tag="BLT33_RS03095" class="clusterblast-orf" id="dummy-10_h10_10_20"  />
</g>
<g id="a10_0021"  >
<polygon points="591,85 596,80 609,80 609,90 596,90 591,85 " style="fill:white; stroke-width:1; stroke:black; " description="&lt;b&gt;BLT33_RS03100&lt;/b&gt;&lt;br&gt;class I SAM-dependent methyltransferase&lt;br&gt;Location: 728235 - 728897" locus_tag="BLT33_RS03100" class="clusterblast-orf" id="dummy-10_h10_10_21"  />
</g>
<g id="a10_0022"  >
<polygon points="612,90 624,90 629,85 624,80 612,80 612,90 " style="fill:white; stroke-width:1; stroke:black; " description="&lt;b&gt;BLT33_RS03105&lt;/b&gt;&lt;br&gt;TetR family transcriptional regulator&lt;br&gt;Location: 729009 - 729641" locus_tag="BLT33_RS03105" class="clusterblast-orf" id="dummy-10_h10_10_22"  />
</g>
<g id="a10_0023"  >
<polygon points="630,90 647,90 652,85 647,80 630,80 630,90 " style="fill:#d8158a; stroke-width:1; stroke:black; " description="&lt;b&gt;BLT33_RS03110&lt;/b&gt;&lt;br&gt;suppressor of fused domain protein&lt;br&gt;Location: 729671 - 730462&lt;br&gt;&lt;br&gt;&lt;b&gt;BlastP hit with JNAJGP_27360&lt;/b&gt;&lt;br&gt;Percentage identity: 84&lt;br&gt;Percentage coverage: 100&lt;br&gt;BLAST bit score: 434&lt;br&gt;E-value: 9.2e-154" locus_tag="BLT33_RS03110" class="clusterblast-orf" id="dummy-10_h10_10_23"  />
</g>
<g id="a10_0024"  >
<polygon points="656,90 664,90 669,85 664,80 656,80 656,90 " style="fill:white; stroke-width:1; stroke:black; " description="&lt;b&gt;BLT33_RS03115&lt;/b&gt;&lt;br&gt;GNAT family N-acetyltransferase&lt;br&gt;Location: 730634 - 731116" locus_tag="BLT33_RS03115" class="clusterblast-orf" id="dummy-10_h10_10_24"  />
</g>
<g id="a10_0025"  >
<polygon points="670,85 675,80 684,80 684,90 675,90 670,85 " style="fill:white; stroke-width:1; stroke:black; " description="&lt;b&gt;BLT33_RS03120&lt;/b&gt;&lt;br&gt;GNAT family N-acetyltransferase&lt;br&gt;Location: 731126 - 731653" locus_tag="BLT33_RS03120" class="clusterblast-orf" id="dummy-10_h10_10_25"  />
</g>
<g id="a10_0026"  >
<polygon points="689,90 699,90 704,85 699,80 689,80 689,90 " style="fill:#15d8d8; stroke-width:1; stroke:black; " description="&lt;b&gt;BLT33_RS03125&lt;/b&gt;&lt;br&gt;cysteine hydrolase family protein&lt;br&gt;Location: 731816 - 732376&lt;br&gt;&lt;br&gt;&lt;b&gt;BlastP hit with JNAJGP_27370&lt;/b&gt;&lt;br&gt;Percentage identity: 84&lt;br&gt;Percentage coverage: 98&lt;br&gt;BLAST bit score: 317&lt;br&gt;E-value: 3.18e-110" locus_tag="BLT33_RS03125" class="clusterblast-orf" id="dummy-10_h10_10_26"  />
</g>
<g id="a10_0027"  >
<polygon points="708,85 713,80 749,80 749,90 713,90 708,85 " style="fill:white; stroke-width:1; stroke:black; " description="&lt;b&gt;BLT33_RS03130&lt;/b&gt;&lt;br&gt;FAD-dependent oxidoreductase&lt;br&gt;Location: 732520 - 734022" locus_tag="BLT33_RS03130" class="clusterblast-orf" id="dummy-10_h10_10_27"  />
</g>
<g id="a10_0028"  >
<polygon points="750,90 759,90 764,85 759,80 750,80 750,90 " style="fill:white; stroke-width:1; stroke:black; " description="&lt;b&gt;BLT33_RS03135&lt;/b&gt;&lt;br&gt;MarR family winged helix-turn-helix transcriptional regulator&lt;br&gt;Location: 734072 - 734569" locus_tag="BLT33_RS03135" class="clusterblast-orf" id="dummy-10_h10_10_28"  />
</g>
<g id="a10_0029"  >
<polygon points="770,85 775,80 780,80 780,90 775,90 770,85 " style="fill:white; stroke-width:1; stroke:black; " description="&lt;b&gt;BLT33_RS03140&lt;/b&gt;&lt;br&gt;nitrite reductase small subunit NirD&lt;br&gt;Location: 734783 - 735145" locus_tag="BLT33_RS03140" class="clusterblast-orf" id="dummy-10_h10_10_29"  />
</g>
</svg>
