<svg xmlns="http://www.w3.org/2000/svg" xmlns:xlink="http://www.w3.org/1999/xlink" version="1.1" x="0" y="0" height="230" width="800" viewBox="0 0 800 230" preserveAspectRatio="none"  >
<g label="Query sequence" class="clusterblast-cluster"  >
<text x="5" y="20" class="clusterblast-acc"  >
Query sequence</text>
<line x1="10" y1="35" x2="778.0" y2="35" style="stroke-width:1; stroke:grey; "  />
<polygon points="0,35 5,30 8,30 8,40 5,40 0,35 " style="fill:#d81515; stroke-width:1; stroke:black; " description="&lt;b&gt;JNAJGP_00145&lt;/b&gt;&lt;br&gt;hypothetical protein&lt;br&gt;Location: 27238 - 27385" locus_tag="JNAJGP_00145" class="clusterblast-orf" id="dummy-1_q0_0_all"  />
<polygon points="26,35 31,30 112,30 112,40 31,40 26,35 " style="fill:#d81515; stroke-width:1; stroke:black; " description="&lt;b&gt;JNAJGP_00150&lt;/b&gt;&lt;br&gt;polyphosphate:AMP phosphotransferase&lt;br&gt;Location: 27695 - 29210" locus_tag="JNAJGP_00150" class="clusterblast-orf" id="dummy-1_q1_0_all"  />
<polygon points="121,40 228,40 233,35 228,30 121,30 121,40 " style="fill:#5cd815; stroke-width:1; stroke:black; " description="&lt;b&gt;JNAJGP_00155&lt;/b&gt;&lt;br&gt;bifunctional tRNA (5-methylaminomethyl-2-thiouridine)(34)-methyltransferase MnmD/FAD-dependent 5-carboxymethylaminomethyl-2-thiouridine(34) oxidoreductase MnmC&lt;br&gt;Location: 29364 - 31350" locus_tag="JNAJGP_00155" class="clusterblast-orf" id="dummy-1_q2_0_all"  />
<polygon points="246,40 342,40 347,35 342,30 246,30 246,40 " style="fill:#15a3d8; stroke-width:1; stroke:black; " description="&lt;b&gt;JNAJGP_00160&lt;/b&gt;&lt;br&gt;N-acetylglutaminylglutamine amidotransferase&lt;br&gt;Location: 31575 - 33348" locus_tag="JNAJGP_00160" class="clusterblast-orf" id="dummy-1_q3_0_all"  />
<polygon points="347,40 441,40 446,35 441,30 347,30 347,40 " style="fill:#c715d8; stroke-width:1; stroke:black; " description="&lt;b&gt;JNAJGP_00165&lt;/b&gt;&lt;br&gt;N-acetylglutaminylglutamine synthetase&lt;br&gt;Location: 33351 - 35100" locus_tag="JNAJGP_00165" class="clusterblast-orf" id="dummy-1_q4_0_all"  />
<polygon points="455,40 518,40 523,35 518,30 455,30 455,40 " style="fill:#d88015; stroke-width:1; stroke:black; " description="&lt;b&gt;JNAJGP_00170&lt;/b&gt;&lt;br&gt;osmoprotectant NAGGN system M42 family peptidase&lt;br&gt;Location: 35263 - 36448" locus_tag="JNAJGP_00170" class="clusterblast-orf" id="dummy-1_q5_0_all"  />
<polygon points="526,40 534,40 539,35 534,30 526,30 526,40 " style="fill:#15d839; stroke-width:1; stroke:black; " description="&lt;b&gt;JNAJGP_00175&lt;/b&gt;&lt;br&gt;UPF0270 protein Pfl01 4103&lt;br&gt;Location: 36507 - 36735" locus_tag="JNAJGP_00175" class="clusterblast-orf" id="dummy-1_q6_0_all"  />
<polygon points="539,35 544,30 550,30 550,40 544,40 539,35 " style="fill:#1539d8; stroke-width:1; stroke:black; " description="&lt;b&gt;JNAJGP_00180&lt;/b&gt;&lt;br&gt;carbon storage regulator CsrA&lt;br&gt;Location: 36743 - 36941" locus_tag="JNAJGP_00180" class="clusterblast-orf" id="dummy-1_q7_0_all"  />
<polygon points="558,35 563,30 604,30 604,40 563,40 558,35 " style="fill:#d81580; stroke-width:1; stroke:black; " description="&lt;b&gt;JNAJGP_00185&lt;/b&gt;&lt;br&gt;SDR family oxidoreductase&lt;br&gt;Location: 37068 - 37884" locus_tag="JNAJGP_00185" class="clusterblast-orf" id="dummy-1_q8_0_all"  />
<polygon points="623,40 626,40 631,35 626,30 623,30 623,40 " style="fill:#c7d815; stroke-width:1; stroke:black; " description="&lt;b&gt;JNAJGP_00190&lt;/b&gt;&lt;br&gt;DUF3309 domain-containing protein&lt;br&gt;Location: 38212 - 38365" locus_tag="JNAJGP_00190" class="clusterblast-orf" id="dummy-1_q9_0_all"  />
<polygon points="634,35 639,30 753,30 753,40 639,40 634,35 " style="fill:#15d8a3; stroke-width:1; stroke:black; " description="&lt;b&gt;JNAJGP_00195&lt;/b&gt;&lt;br&gt;Phosphoglycerol transferase I&lt;br&gt;Location: 38416 - 40504" locus_tag="JNAJGP_00195" class="clusterblast-orf" id="dummy-1_q10_0_all"  />
<polygon points="769,35 774,30 780,30 780,40 774,40 769,35 " style="fill:#5c15d8; stroke-width:1; stroke:black; " description="&lt;b&gt;JNAJGP_00200&lt;/b&gt;&lt;br&gt;Cardiolipin synthase N-terminal domain-containing protein&lt;br&gt;Location: 40796 - 40988" locus_tag="JNAJGP_00200" class="clusterblast-orf" id="dummy-1_q11_0_all"  />
</g>
<g label="NZ_CP063073" description="NZ_CP063073 (863451-878294): Pseudomonas poae strain PMA22 chromosome, comple... (100% of genes show similarity), NAGGN" class="clusterblast-cluster"  >
<text x="5" y="70" class="clusterblast-acc"  >
<a xlink:href="https://antismash-db.secondarymetabolites.org/area?record=NZ_CP063073&amp;start=863451&amp;end=878294" target="_blank">NZ_CP063073 (863451-878294)</a>: Pseudomonas poae strain PMA22 chromosome, comple... (100% of genes show similarity), NAGGN</text>
<line x1="10" y1="85" x2="778.0" y2="85" style="stroke-width:1; stroke:grey; "  />
</g>
<g id="a1_000"  >
<polygon points="5,85 10,80 91,80 91,90 10,90 5,85 " style="fill:#d81515; stroke-width:1; stroke:black; " description="&lt;b&gt;IMF22_RS04045&lt;/b&gt;&lt;br&gt;polyphosphate:AMP phosphotransferase&lt;br&gt;Location: 877085 - 875571&lt;br&gt;&lt;br&gt;&lt;b&gt;BlastP hit with JNAJGP_00145&lt;/b&gt;&lt;br&gt;Percentage identity: 87&lt;br&gt;Percentage coverage: 94&lt;br&gt;BLAST bit score: 80&lt;br&gt;E-value: 1.17e-17&lt;br&gt;&lt;br&gt;&lt;b&gt;BlastP hit with JNAJGP_00150&lt;/b&gt;&lt;br&gt;Percentage identity: 96&lt;br&gt;Percentage coverage: 100&lt;br&gt;BLAST bit score: 990&lt;br&gt;E-value: 0.0" locus_tag="IMF22_RS04045" class="clusterblast-orf" id="dummy-1_h1_9_0"  />
</g>
<g id="a1_001"  >
<polygon points="99,90 207,90 212,85 207,80 99,80 99,90 " style="fill:#5cd815; stroke-width:1; stroke:black; " description="&lt;b&gt;IMF22_RS04040&lt;/b&gt;&lt;br&gt;bifunctional tRNA (5-methylaminomethyl-2-thiouridine)(34)-methyltransferase MnmD/FAD-dependent 5-carboxymethylaminomethyl-2-thiouridine(34) oxidoreductase MnmC&lt;br&gt;Location: 875429 - 873438&lt;br&gt;&lt;br&gt;&lt;b&gt;BlastP hit with JNAJGP_00155&lt;/b&gt;&lt;br&gt;Percentage identity: 85&lt;br&gt;Percentage coverage: 100&lt;br&gt;BLAST bit score: 1136&lt;br&gt;E-value: 0.0" locus_tag="IMF22_RS04040" class="clusterblast-orf" id="dummy-1_h1_9_1"  />
</g>
<g id="a1_002"  >
<polygon points="220,90 316,90 321,85 316,80 220,80 220,90 " style="fill:#15a3d8; stroke-width:1; stroke:black; " description="&lt;b&gt;IMF22_RS04035&lt;/b&gt;&lt;br&gt;N-acetylglutaminylglutamine amidotransferase&lt;br&gt;Location: 873294 - 871522&lt;br&gt;&lt;br&gt;&lt;b&gt;BlastP hit with JNAJGP_00160&lt;/b&gt;&lt;br&gt;Percentage identity: 98&lt;br&gt;Percentage coverage: 100&lt;br&gt;BLAST bit score: 1180&lt;br&gt;E-value: 0.0" locus_tag="IMF22_RS04035" class="clusterblast-orf" id="dummy-1_h1_9_2"  />
</g>
<g id="a1_003"  >
<polygon points="321,90 415,90 420,85 415,80 321,80 321,90 " style="fill:#c715d8; stroke-width:1; stroke:black; " description="&lt;b&gt;IMF22_RS04030&lt;/b&gt;&lt;br&gt;N-acetylglutaminylglutamine synthetase&lt;br&gt;Location: 871518 - 869773&lt;br&gt;&lt;br&gt;&lt;b&gt;BlastP hit with JNAJGP_00165&lt;/b&gt;&lt;br&gt;Percentage identity: 94&lt;br&gt;Percentage coverage: 100&lt;br&gt;BLAST bit score: 1097&lt;br&gt;E-value: 0.0" locus_tag="IMF22_RS04030" class="clusterblast-orf" id="dummy-1_h1_9_3"  />
</g>
<g id="a1_004"  >
<polygon points="428,90 490,90 495,85 490,80 428,80 428,90 " style="fill:#d88015; stroke-width:1; stroke:black; " description="&lt;b&gt;IMF22_RS04025&lt;/b&gt;&lt;br&gt;osmoprotectant NAGGN system M42 family peptidase&lt;br&gt;Location: 869636 - 868452&lt;br&gt;&lt;br&gt;&lt;b&gt;BlastP hit with JNAJGP_00170&lt;/b&gt;&lt;br&gt;Percentage identity: 99&lt;br&gt;Percentage coverage: 100&lt;br&gt;BLAST bit score: 775&lt;br&gt;E-value: 1.72e-284" locus_tag="IMF22_RS04025" class="clusterblast-orf" id="dummy-1_h1_9_4"  />
</g>
<g id="a1_005"  >
<polygon points="499,90 507,90 512,85 507,80 499,80 499,90 " style="fill:#15d839; stroke-width:1; stroke:black; " description="&lt;b&gt;IMF22_RS04020&lt;/b&gt;&lt;br&gt;YheU family protein&lt;br&gt;Location: 868376 - 868149&lt;br&gt;&lt;br&gt;&lt;b&gt;BlastP hit with JNAJGP_00175&lt;/b&gt;&lt;br&gt;Percentage identity: 99&lt;br&gt;Percentage coverage: 100&lt;br&gt;BLAST bit score: 149&lt;br&gt;E-value: 2.77e-47" locus_tag="IMF22_RS04020" class="clusterblast-orf" id="dummy-1_h1_9_5"  />
</g>
<g id="a1_006"  >
<polygon points="513,85 518,80 524,80 524,90 518,90 513,85 " style="fill:#1539d8; stroke-width:1; stroke:black; " description="&lt;b&gt;IMF22_RS04015&lt;/b&gt;&lt;br&gt;carbon storage regulator CsrA&lt;br&gt;Location: 868141 - 867950&lt;br&gt;&lt;br&gt;&lt;b&gt;BlastP hit with JNAJGP_00180&lt;/b&gt;&lt;br&gt;Percentage identity: 83&lt;br&gt;Percentage coverage: 92&lt;br&gt;BLAST bit score: 92&lt;br&gt;E-value: 1.02e-24" locus_tag="IMF22_RS04015" class="clusterblast-orf" id="dummy-1_h1_9_6"  />
</g>
<g id="a1_007"  >
<polygon points="539,85 544,80 585,80 585,90 544,90 539,85 " style="fill:#d81580; stroke-width:1; stroke:black; " description="&lt;b&gt;IMF22_RS04010&lt;/b&gt;&lt;br&gt;SDR family oxidoreductase&lt;br&gt;Location: 867681 - 866866&lt;br&gt;&lt;br&gt;&lt;b&gt;BlastP hit with JNAJGP_00185&lt;/b&gt;&lt;br&gt;Percentage identity: 97&lt;br&gt;Percentage coverage: 100&lt;br&gt;BLAST bit score: 522&lt;br&gt;E-value: 1.69e-188" locus_tag="IMF22_RS04010" class="clusterblast-orf" id="dummy-1_h1_9_7"  />
</g>
<g id="a1_008"  >
<polygon points="604,90 607,90 612,85 607,80 604,80 604,90 " style="fill:#c7d815; stroke-width:1; stroke:black; " description="&lt;b&gt;IMF22_RS04005&lt;/b&gt;&lt;br&gt;DUF3309 family protein&lt;br&gt;Location: 866537 - 866385&lt;br&gt;&lt;br&gt;&lt;b&gt;BlastP hit with JNAJGP_00190&lt;/b&gt;&lt;br&gt;Percentage identity: 98&lt;br&gt;Percentage coverage: 100&lt;br&gt;BLAST bit score: 81&lt;br&gt;E-value: 1.5e-20" locus_tag="IMF22_RS04005" class="clusterblast-orf" id="dummy-1_h1_9_8"  />
</g>
<g id="a1_009"  >
<polygon points="616,85 621,80 734,80 734,90 621,90 616,85 " style="fill:#15d8a3; stroke-width:1; stroke:black; " description="&lt;b&gt;IMF22_RS04000&lt;/b&gt;&lt;br&gt;LTA synthase family protein&lt;br&gt;Location: 866330 - 864243&lt;br&gt;&lt;br&gt;&lt;b&gt;BlastP hit with JNAJGP_00195&lt;/b&gt;&lt;br&gt;Percentage identity: 97&lt;br&gt;Percentage coverage: 100&lt;br&gt;BLAST bit score: 1356&lt;br&gt;E-value: 0.0" locus_tag="IMF22_RS04000" class="clusterblast-orf" id="dummy-1_h1_9_9"  />
</g>
<g id="a1_0010"  >
<polygon points="763,85 768,80 774,80 774,90 768,90 763,85 " style="fill:#5c15d8; stroke-width:1; stroke:black; " description="&lt;b&gt;IMF22_RS03995&lt;/b&gt;&lt;br&gt;PLDc N-terminal domain-containing protein&lt;br&gt;Location: 863735 - 863544&lt;br&gt;&lt;br&gt;&lt;b&gt;BlastP hit with JNAJGP_00200&lt;/b&gt;&lt;br&gt;Percentage identity: 95&lt;br&gt;Percentage coverage: 100&lt;br&gt;BLAST bit score: 117&lt;br&gt;E-value: 1.13e-34" locus_tag="IMF22_RS03995" class="clusterblast-orf" id="dummy-1_h1_9_10"  />
</g>
</svg>
