<svg xmlns="http://www.w3.org/2000/svg" xmlns:xlink="http://www.w3.org/1999/xlink" version="1.1" x="0" y="0" height="230" width="800" viewBox="0 0 800 230" preserveAspectRatio="none"  >
<g label="Query sequence" class="clusterblast-cluster"  >
<text x="5" y="20" class="clusterblast-acc"  >
Query sequence</text>
<line x1="10" y1="35" x2="778.0" y2="35" style="stroke-width:1; stroke:grey; "  />
<polygon points="5,35 10,30 43,30 43,40 10,40 5,35 " style="fill:#d81515; stroke-width:1; stroke:black; " description="&lt;b&gt;JNAJGP_10370&lt;/b&gt;&lt;br&gt;Membrane fusion protein biotin-lipoyl like domain-containing protein&lt;br&gt;Location: 2187504 - 2189601" locus_tag="JNAJGP_10370" class="clusterblast-orf" id="dummy-4_q0_0_all"  />
<polygon points="43,35 48,30 67,30 67,40 48,40 43,35 " style="fill:#58d815; stroke-width:1; stroke:black; " description="&lt;b&gt;JNAJGP_10375&lt;/b&gt;&lt;br&gt;Membrane fusion protein biotin-lipoyl like domain-containing protein&lt;br&gt;Location: 2189600 - 2190920" locus_tag="JNAJGP_10375" class="clusterblast-orf" id="dummy-4_q1_0_all"  />
<polygon points="67,35 72,30 81,30 81,40 72,40 67,35 " style="fill:#15c4d8; stroke-width:1; stroke:black; " description="&lt;b&gt;JNAJGP_10380&lt;/b&gt;&lt;br&gt;Membrane fusion protein biotin-lipoyl like domain-containing protein&lt;br&gt;Location: 2190916 - 2191690" locus_tag="JNAJGP_10380" class="clusterblast-orf" id="dummy-4_q2_0_all"  />
<polygon points="84,40 119,40 124,35 119,30 84,30 84,40 " style="fill:#8115d8; stroke-width:1; stroke:black; " description="&lt;b&gt;JNAJGP_10385&lt;/b&gt;&lt;br&gt;Outer membrane assembly lipoprotein YfiO&lt;br&gt;Location: 2191852 - 2194012" locus_tag="JNAJGP_10385" class="clusterblast-orf" id="dummy-4_q3_0_all"  />
<polygon points="124,40 131,40 136,35 131,30 124,30 124,40 " style="fill:#d83e15; stroke-width:1; stroke:black; " description="&lt;b&gt;JNAJGP_10390&lt;/b&gt;&lt;br&gt;DUF3142 domain-containing protein&lt;br&gt;Location: 2194008 - 2194713" locus_tag="JNAJGP_10390" class="clusterblast-orf" id="dummy-4_q4_0_all"  />
<polygon points="142,40 146,35 142,30 142,40 " style="fill:#30d815; stroke-width:1; stroke:black; " description="&lt;b&gt;JNAJGP_10395&lt;/b&gt;&lt;br&gt;Nucleotidyl transferase AbiEii/AbiGii toxin family protein&lt;br&gt;Location: 2195001 - 2195217" locus_tag="JNAJGP_10395" class="clusterblast-orf" id="dummy-4_q5_0_all"  />
<polygon points="152,35 157,30 179,30 179,40 157,40 152,35 " style="fill:#159cd8; stroke-width:1; stroke:black; " description="&lt;b&gt;JNAJGP_10400&lt;/b&gt;&lt;br&gt;RND transporter&lt;br&gt;Location: 2195577 - 2197023" locus_tag="JNAJGP_10400" class="clusterblast-orf" id="dummy-4_q6_0_all"  />
<polygon points="178,35 183,30 198,30 198,40 183,40 178,35 " style="fill:#a915d8; stroke-width:1; stroke:black; " description="&lt;b&gt;JNAJGP_10405&lt;/b&gt;&lt;br&gt;HlyD family secretion protein&lt;br&gt;Location: 2197019 - 2198078" locus_tag="JNAJGP_10405" class="clusterblast-orf" id="dummy-4_q7_0_all"  />
<polygon points="198,35 203,30 226,30 226,40 203,40 198,35 " style="fill:#d86615; stroke-width:1; stroke:black; " description="&lt;b&gt;JNAJGP_10410&lt;/b&gt;&lt;br&gt;Major facilitator superfamily (MFS) profile domain-containing protein&lt;br&gt;Location: 2198094 - 2199630" locus_tag="JNAJGP_10410" class="clusterblast-orf" id="dummy-4_q8_0_all"  />
<polygon points="230,35 235,30 247,30 247,40 235,40 230,35 " style="fill:#15d823; stroke-width:1; stroke:black; " description="&lt;b&gt;JNAJGP_10415&lt;/b&gt;&lt;br&gt;HTH lysR-type domain-containing protein&lt;br&gt;Location: 2199845 - 2200766" locus_tag="JNAJGP_10415" class="clusterblast-orf" id="dummy-4_q9_0_all"  />
<polygon points="248,35 253,30 263,30 263,40 253,40 248,35 " style="fill:#1573d8; stroke-width:1; stroke:black; " description="&lt;b&gt;JNAJGP_10420&lt;/b&gt;&lt;br&gt;ABC transmembrane type-1 domain-containing protein&lt;br&gt;Location: 2200820 - 2201669" locus_tag="JNAJGP_10420" class="clusterblast-orf" id="dummy-4_q10_0_all"  />
<polygon points="263,35 268,30 279,30 279,40 268,40 263,35 " style="fill:#d215d8; stroke-width:1; stroke:black; " description="&lt;b&gt;JNAJGP_10425&lt;/b&gt;&lt;br&gt;Vitamin B12 import ATP-binding protein BtuD&lt;br&gt;Location: 2201680 - 2202532" locus_tag="JNAJGP_10425" class="clusterblast-orf" id="dummy-4_q11_0_all"  />
<polygon points="279,35 284,30 298,30 298,40 284,40 279,35 " style="fill:#d88e15; stroke-width:1; stroke:black; " description="&lt;b&gt;JNAJGP_10430&lt;/b&gt;&lt;br&gt;SsuA/THI5-like domain-containing protein&lt;br&gt;Location: 2202533 - 2203559" locus_tag="JNAJGP_10430" class="clusterblast-orf" id="dummy-4_q12_0_all"  />
<polygon points="298,35 303,30 314,30 314,40 303,40 298,35 " style="fill:#15d84b; stroke-width:1; stroke:black; " description="&lt;b&gt;JNAJGP_10435&lt;/b&gt;&lt;br&gt;Alpha-ketoglutarate-dependent taurine dioxygenase&lt;br&gt;Location: 2203573 - 2204467" locus_tag="JNAJGP_10435" class="clusterblast-orf" id="dummy-4_q13_0_all"  />
<polygon points="319,40 327,40 332,35 327,30 319,30 319,40 " style="fill:#154bd8; stroke-width:1; stroke:black; " description="&lt;b&gt;JNAJGP_10440&lt;/b&gt;&lt;br&gt;HTH gntR-type domain-containing protein&lt;br&gt;Location: 2204734 - 2205445" locus_tag="JNAJGP_10440" class="clusterblast-orf" id="dummy-4_q14_0_all"  />
<polygon points="338,40 347,40 352,35 347,30 338,30 338,40 " style="fill:#d815b7; stroke-width:1; stroke:black; " description="&lt;b&gt;JNAJGP_10445&lt;/b&gt;&lt;br&gt;Mangotoxin biosynthesis-involved protein MgoB&lt;br&gt;Location: 2205768 - 2206527" locus_tag="JNAJGP_10445" class="clusterblast-orf" id="dummy-4_q15_0_all"  />
<polygon points="352,40 364,40 369,35 364,30 352,30 352,40 " style="fill:#d8b715; stroke-width:1; stroke:black; " description="&lt;b&gt;JNAJGP_10450&lt;/b&gt;&lt;br&gt;p-aminobenzoate N-oxygenase AurF&lt;br&gt;Location: 2206523 - 2207462" locus_tag="JNAJGP_10450" class="clusterblast-orf" id="dummy-4_q16_0_all"  />
<polygon points="369,40 425,40 430,35 425,30 369,30 369,40 " style="fill:#15d873; stroke-width:1; stroke:black; " description="&lt;b&gt;JNAJGP_10455&lt;/b&gt;&lt;br&gt;Amino acid adenylation:thioester reductase&lt;br&gt;Location: 2207458 - 2210839" locus_tag="JNAJGP_10455" class="clusterblast-orf" id="dummy-4_q17_0_all"  />
<polygon points="431,40 434,40 439,35 434,30 431,30 431,40 " style="fill:#1523d8; stroke-width:1; stroke:black; " description="&lt;b&gt;JNAJGP_10460&lt;/b&gt;&lt;br&gt;Polyketide cyclase/dehydrase&lt;br&gt;Location: 2210858 - 2211323" locus_tag="JNAJGP_10460" class="clusterblast-orf" id="dummy-4_q18_0_all"  />
<polygon points="440,35 445,30 474,30 474,40 445,40 440,35 " style="fill:#d8158e; stroke-width:1; stroke:black; " description="&lt;b&gt;JNAJGP_10465&lt;/b&gt;&lt;br&gt;Chemotaxis protein&lt;br&gt;Location: 2211358 - 2213239" locus_tag="JNAJGP_10465" class="clusterblast-orf" id="dummy-4_q19_0_all"  />
<polygon points="585,35 590,30 607,30 607,40 590,40 585,35 " style="fill:#d2d815; stroke-width:1; stroke:black; " description="&lt;b&gt;JNAJGP_10495&lt;/b&gt;&lt;br&gt;CoA-transferase&lt;br&gt;Location: 2219310 - 2220531" locus_tag="JNAJGP_10495" class="clusterblast-orf" id="dummy-4_q20_0_all"  />
<polygon points="607,35 612,30 629,30 629,40 612,40 607,35 " style="fill:#15d89c; stroke-width:1; stroke:black; " description="&lt;b&gt;JNAJGP_10500&lt;/b&gt;&lt;br&gt;Acyl-CoA dehydrogenase related to the alkylation response protein AidB&lt;br&gt;Location: 2220543 - 2221725" locus_tag="JNAJGP_10500" class="clusterblast-orf" id="dummy-4_q21_0_all"  />
<polygon points="632,40 643,40 648,35 643,30 632,30 632,40 " style="fill:#3015d8; stroke-width:1; stroke:black; " description="&lt;b&gt;JNAJGP_10505&lt;/b&gt;&lt;br&gt;HTH lysR-type domain-containing protein&lt;br&gt;Location: 2221881 - 2222781" locus_tag="JNAJGP_10505" class="clusterblast-orf" id="dummy-4_q22_0_all"  />
<polygon points="656,40 672,40 677,35 672,30 656,30 656,40 " style="fill:#d81566; stroke-width:1; stroke:black; " description="&lt;b&gt;JNAJGP_10510&lt;/b&gt;&lt;br&gt;Re/Si-specific NAD(P)(+) transhydrogenase subunit alpha&lt;br&gt;Location: 2223233 - 2224355" locus_tag="JNAJGP_10510" class="clusterblast-orf" id="dummy-4_q23_0_all"  />
<polygon points="677,40 678,40 683,35 678,30 677,30 677,40 " style="fill:#a9d815; stroke-width:1; stroke:black; " description="&lt;b&gt;JNAJGP_10515&lt;/b&gt;&lt;br&gt;proton-translocating NAD(P)(+) transhydrogenase&lt;br&gt;Location: 2224370 - 2224691" locus_tag="JNAJGP_10515" class="clusterblast-orf" id="dummy-4_q24_0_all"  />
<polygon points="683,40 704,40 709,35 704,30 683,30 683,40 " style="fill:#15d8c4; stroke-width:1; stroke:black; " description="&lt;b&gt;JNAJGP_10520&lt;/b&gt;&lt;br&gt;NAD/NADP transhydrogenase beta subunit&lt;br&gt;Location: 2224690 - 2226127" locus_tag="JNAJGP_10520" class="clusterblast-orf" id="dummy-4_q25_0_all"  />
<polygon points="712,40 735,40 740,35 735,30 712,30 712,40 " style="fill:#5815d8; stroke-width:1; stroke:black; " description="&lt;b&gt;JNAJGP_10525&lt;/b&gt;&lt;br&gt;Propionyl CoA:succinate CoA transferase&lt;br&gt;Location: 2226306 - 2227800" locus_tag="JNAJGP_10525" class="clusterblast-orf" id="dummy-4_q26_0_all"  />
<polygon points="745,40 749,35 745,30 745,40 " style="fill:#d8153e; stroke-width:1; stroke:black; " description="&lt;b&gt;JNAJGP_10530&lt;/b&gt;&lt;br&gt;DUF1127 domain-containing protein&lt;br&gt;Location: 2228118 - 2228334" locus_tag="JNAJGP_10530" class="clusterblast-orf" id="dummy-4_q27_0_all"  />
<polygon points="755,40 755,40 760,35 755,30 755,30 755,40 " style="fill:#81d815; stroke-width:1; stroke:black; " description="&lt;b&gt;JNAJGP_10535&lt;/b&gt;&lt;br&gt;Holliday junction resolvasome, helicase subunit&lt;br&gt;Location: 2228618 - 2228939" locus_tag="JNAJGP_10535" class="clusterblast-orf" id="dummy-4_q28_0_all"  />
<polygon points="762,40 763,40 768,35 763,30 762,30 762,40 " style="fill:#81d815; stroke-width:1; stroke:black; " description="&lt;b&gt;JNAJGP_10540&lt;/b&gt;&lt;br&gt;Holliday junction resolvasome, helicase subunit&lt;br&gt;Location: 2229038 - 2229347" locus_tag="JNAJGP_10540" class="clusterblast-orf" id="dummy-4_q29_0_all"  />
<polygon points="769,40 769,40 774,35 769,30 769,30 769,40 " style="fill:#81d815; stroke-width:1; stroke:black; " description="&lt;b&gt;JNAJGP_10545&lt;/b&gt;&lt;br&gt;DUF2388 domain-containing protein&lt;br&gt;Location: 2229386 - 2229707" locus_tag="JNAJGP_10545" class="clusterblast-orf" id="dummy-4_q30_0_all"  />
</g>
<g label="NZ_CP070980" description="NZ_CP070980 (311308-354686): Pseudomonas rhodesiae strain AAMF24 chromosome, ... (90% of genes show similarity), NRPS-like" class="clusterblast-cluster"  >
<text x="5" y="70" class="clusterblast-acc"  >
<a xlink:href="https://antismash-db.secondarymetabolites.org/area?record=NZ_CP070980&amp;start=311308&amp;end=354686" target="_blank">NZ_CP070980 (311308-354686)</a>: Pseudomonas rhodesiae strain AAMF24 chromosome, ... (90% of genes show similarity), NRPS-like</text>
<line x1="10" y1="85" x2="778.0" y2="85" style="stroke-width:1; stroke:grey; "  />
</g>
<g id="a4_000"  >
<polygon points="0,85 5,80 14,80 14,90 5,90 0,85 " style="fill:#15c4d8; stroke-width:1; stroke:black; " description="&lt;b&gt;JYG35_RS01575&lt;/b&gt;&lt;br&gt;efflux RND transporter periplasmic adaptor subunit&lt;br&gt;Location: 354630 - 353857&lt;br&gt;&lt;br&gt;&lt;b&gt;BlastP hit with JNAJGP_10380&lt;/b&gt;&lt;br&gt;Percentage identity: 84&lt;br&gt;Percentage coverage: 100&lt;br&gt;BLAST bit score: 418&lt;br&gt;E-value: 1.15e-147" locus_tag="JYG35_RS01575" class="clusterblast-orf" id="dummy-4_h4_8_0"  />
</g>
<g id="a4_001"  >
<polygon points="17,90 51,90 56,85 51,80 17,80 17,90 " style="fill:#8115d8; stroke-width:1; stroke:black; " description="&lt;b&gt;JYG35_RS01570&lt;/b&gt;&lt;br&gt;outer membrane assembly lipoprotein YfiO&lt;br&gt;Location: 353696 - 351525&lt;br&gt;&lt;br&gt;&lt;b&gt;BlastP hit with JNAJGP_10385&lt;/b&gt;&lt;br&gt;Percentage identity: 76&lt;br&gt;Percentage coverage: 101&lt;br&gt;BLAST bit score: 1083&lt;br&gt;E-value: 0.0" locus_tag="JYG35_RS01570" class="clusterblast-orf" id="dummy-4_h4_8_1"  />
</g>
<g id="a4_002"  >
<polygon points="56,90 64,90 69,85 64,80 56,80 56,90 " style="fill:#d83e15; stroke-width:1; stroke:black; " description="&lt;b&gt;JYG35_RS01565&lt;/b&gt;&lt;br&gt;DUF3142 domain-containing protein&lt;br&gt;Location: 351528 - 350824&lt;br&gt;&lt;br&gt;&lt;b&gt;BlastP hit with JNAJGP_10390&lt;/b&gt;&lt;br&gt;Percentage identity: 92&lt;br&gt;Percentage coverage: 100&lt;br&gt;BLAST bit score: 456&lt;br&gt;E-value: 2.31e-163" locus_tag="JYG35_RS01565" class="clusterblast-orf" id="dummy-4_h4_8_2"  />
</g>
<g id="a4_003"  >
<polygon points="70,85 75,80 114,80 114,90 75,90 70,85 " style="fill:white; stroke-width:1; stroke:black; " description="&lt;b&gt;JYG35_RS01560&lt;/b&gt;&lt;br&gt;TonB-dependent siderophore receptor&lt;br&gt;Location: 350783 - 348330" locus_tag="JYG35_RS01560" class="clusterblast-orf" id="dummy-4_h4_8_3"  />
</g>
<g id="a4_004"  >
<polygon points="116,85 121,80 133,80 133,90 121,90 116,85 " style="fill:white; stroke-width:1; stroke:black; " description="&lt;b&gt;JYG35_RS01555&lt;/b&gt;&lt;br&gt;FecR domain-containing protein&lt;br&gt;Location: 348237 - 347287" locus_tag="JYG35_RS01555" class="clusterblast-orf" id="dummy-4_h4_8_4"  />
</g>
<g id="a4_005"  >
<polygon points="133,85 138,80 143,80 143,90 138,90 133,85 " style="fill:white; stroke-width:1; stroke:black; " description="&lt;b&gt;JYG35_RS01550&lt;/b&gt;&lt;br&gt;sigma-70 family RNA polymerase sigma factor&lt;br&gt;Location: 347290 - 346781" locus_tag="JYG35_RS01550" class="clusterblast-orf" id="dummy-4_h4_8_5"  />
</g>
<g id="a4_006"  >
<polygon points="144,85 149,80 170,80 170,90 149,90 144,85 " style="fill:#159cd8; stroke-width:1; stroke:black; " description="&lt;b&gt;JYG35_RS01545&lt;/b&gt;&lt;br&gt;efflux transporter outer membrane subunit&lt;br&gt;Location: 346707 - 345262&lt;br&gt;&lt;br&gt;&lt;b&gt;BlastP hit with JNAJGP_10400&lt;/b&gt;&lt;br&gt;Percentage identity: 93&lt;br&gt;Percentage coverage: 100&lt;br&gt;BLAST bit score: 848&lt;br&gt;E-value: 3.4e-310" locus_tag="JYG35_RS01545" class="clusterblast-orf" id="dummy-4_h4_8_6"  />
</g>
<g id="a4_007"  >
<polygon points="170,85 175,80 190,80 190,90 175,90 170,85 " style="fill:#a915d8; stroke-width:1; stroke:black; " description="&lt;b&gt;JYG35_RS01540&lt;/b&gt;&lt;br&gt;HlyD family secretion protein&lt;br&gt;Location: 345265 - 344207&lt;br&gt;&lt;br&gt;&lt;b&gt;BlastP hit with JNAJGP_10405&lt;/b&gt;&lt;br&gt;Percentage identity: 94&lt;br&gt;Percentage coverage: 100&lt;br&gt;BLAST bit score: 606&lt;br&gt;E-value: 7.43e-219" locus_tag="JYG35_RS01540" class="clusterblast-orf" id="dummy-4_h4_8_7"  />
</g>
<g id="a4_008"  >
<polygon points="190,85 195,80 218,80 218,90 195,90 190,85 " style="fill:#d86615; stroke-width:1; stroke:black; " description="&lt;b&gt;JYG35_RS01535&lt;/b&gt;&lt;br&gt;MFS transporter&lt;br&gt;Location: 344191 - 342656&lt;br&gt;&lt;br&gt;&lt;b&gt;BlastP hit with JNAJGP_10410&lt;/b&gt;&lt;br&gt;Percentage identity: 90&lt;br&gt;Percentage coverage: 100&lt;br&gt;BLAST bit score: 895&lt;br&gt;E-value: 0.0" locus_tag="JYG35_RS01535" class="clusterblast-orf" id="dummy-4_h4_8_8"  />
</g>
<g id="a4_009"  >
<polygon points="222,85 227,80 239,80 239,90 227,90 222,85 " style="fill:#15d823; stroke-width:1; stroke:black; " description="&lt;b&gt;JYG35_RS01530&lt;/b&gt;&lt;br&gt;LysR family transcriptional regulator&lt;br&gt;Location: 342420 - 341500&lt;br&gt;&lt;br&gt;&lt;b&gt;BlastP hit with JNAJGP_10415&lt;/b&gt;&lt;br&gt;Percentage identity: 96&lt;br&gt;Percentage coverage: 100&lt;br&gt;BLAST bit score: 581&lt;br&gt;E-value: 1.21e-210" locus_tag="JYG35_RS01530" class="clusterblast-orf" id="dummy-4_h4_8_9"  />
</g>
<g id="a4_0010"  >
<polygon points="240,85 245,80 255,80 255,90 245,90 240,85 " style="fill:#1573d8; stroke-width:1; stroke:black; " description="&lt;b&gt;JYG35_RS01525&lt;/b&gt;&lt;br&gt;ABC transporter permease&lt;br&gt;Location: 341440 - 340592&lt;br&gt;&lt;br&gt;&lt;b&gt;BlastP hit with JNAJGP_10420&lt;/b&gt;&lt;br&gt;Percentage identity: 97&lt;br&gt;Percentage coverage: 100&lt;br&gt;BLAST bit score: 527&lt;br&gt;E-value: 4.13e-190" locus_tag="JYG35_RS01525" class="clusterblast-orf" id="dummy-4_h4_8_10"  />
</g>
<g id="a4_0011"  >
<polygon points="256,85 261,80 271,80 271,90 261,90 256,85 " style="fill:#d215d8; stroke-width:1; stroke:black; " description="&lt;b&gt;JYG35_RS01520&lt;/b&gt;&lt;br&gt;ABC transporter ATP-binding protein&lt;br&gt;Location: 340581 - 339730&lt;br&gt;&lt;br&gt;&lt;b&gt;BlastP hit with JNAJGP_10425&lt;/b&gt;&lt;br&gt;Percentage identity: 94&lt;br&gt;Percentage coverage: 100&lt;br&gt;BLAST bit score: 516&lt;br&gt;E-value: 8.26e-186" locus_tag="JYG35_RS01520" class="clusterblast-orf" id="dummy-4_h4_8_11"  />
</g>
<g id="a4_0012"  >
<polygon points="271,85 276,80 290,80 290,90 276,90 271,85 " style="fill:#d88e15; stroke-width:1; stroke:black; " description="&lt;b&gt;JYG35_RS01515&lt;/b&gt;&lt;br&gt;ABC transporter substrate-binding protein&lt;br&gt;Location: 339728 - 338703&lt;br&gt;&lt;br&gt;&lt;b&gt;BlastP hit with JNAJGP_10430&lt;/b&gt;&lt;br&gt;Percentage identity: 94&lt;br&gt;Percentage coverage: 100&lt;br&gt;BLAST bit score: 649&lt;br&gt;E-value: 1.92e-236" locus_tag="JYG35_RS01515" class="clusterblast-orf" id="dummy-4_h4_8_12"  />
</g>
<g id="a4_0013"  >
<polygon points="290,85 295,80 306,80 306,90 295,90 290,85 " style="fill:#15d84b; stroke-width:1; stroke:black; " description="&lt;b&gt;JYG35_RS01510&lt;/b&gt;&lt;br&gt;TauD/TfdA family dioxygenase&lt;br&gt;Location: 338688 - 337795&lt;br&gt;&lt;br&gt;&lt;b&gt;BlastP hit with JNAJGP_10435&lt;/b&gt;&lt;br&gt;Percentage identity: 92&lt;br&gt;Percentage coverage: 100&lt;br&gt;BLAST bit score: 560&lt;br&gt;E-value: 2.07e-202" locus_tag="JYG35_RS01510" class="clusterblast-orf" id="dummy-4_h4_8_13"  />
</g>
<g id="a4_0014"  >
<polygon points="312,90 320,90 325,85 320,80 312,80 312,90 " style="fill:#154bd8; stroke-width:1; stroke:black; " description="&lt;b&gt;JYG35_RS01505&lt;/b&gt;&lt;br&gt;GntR family transcriptional regulator&lt;br&gt;Location: 337483 - 336773&lt;br&gt;&lt;br&gt;&lt;b&gt;BlastP hit with JNAJGP_10440&lt;/b&gt;&lt;br&gt;Percentage identity: 94&lt;br&gt;Percentage coverage: 100&lt;br&gt;BLAST bit score: 422&lt;br&gt;E-value: 3.47e-150" locus_tag="JYG35_RS01505" class="clusterblast-orf" id="dummy-4_h4_8_14"  />
</g>
<g id="a4_0015"  >
<polygon points="332,90 341,90 346,85 341,80 332,80 332,90 " style="fill:#d815b7; stroke-width:1; stroke:black; " description="&lt;b&gt;JYG35_RS01500&lt;/b&gt;&lt;br&gt;DUF3050 domain-containing protein&lt;br&gt;Location: 336385 - 335627&lt;br&gt;&lt;br&gt;&lt;b&gt;BlastP hit with JNAJGP_10445&lt;/b&gt;&lt;br&gt;Percentage identity: 69&lt;br&gt;Percentage coverage: 100&lt;br&gt;BLAST bit score: 352&lt;br&gt;E-value: 1.22e-121" locus_tag="JYG35_RS01500" class="clusterblast-orf" id="dummy-4_h4_8_15"  />
</g>
<g id="a4_0016"  >
<polygon points="346,90 358,90 363,85 358,80 346,80 346,90 " style="fill:#d8b715; stroke-width:1; stroke:black; " description="&lt;b&gt;JYG35_RS01495&lt;/b&gt;&lt;br&gt;diiron oxygenase&lt;br&gt;Location: 335630 - 334683&lt;br&gt;&lt;br&gt;&lt;b&gt;BlastP hit with JNAJGP_10450&lt;/b&gt;&lt;br&gt;Percentage identity: 84&lt;br&gt;Percentage coverage: 99&lt;br&gt;BLAST bit score: 522&lt;br&gt;E-value: 4.4e-187" locus_tag="JYG35_RS01495" class="clusterblast-orf" id="dummy-4_h4_8_16"  />
</g>
<g id="a4_0017"  >
<polygon points="363,90 420,90 425,85 420,80 363,80 363,90 " style="fill:#15d873; stroke-width:1; stroke:black; " description="&lt;b&gt;JYG35_RS01490&lt;/b&gt;&lt;br&gt;non-ribosomal peptide synthetase&lt;br&gt;Location: 334686 - 331309&lt;br&gt;&lt;br&gt;&lt;b&gt;BlastP hit with JNAJGP_10455&lt;/b&gt;&lt;br&gt;Percentage identity: 75&lt;br&gt;Percentage coverage: 100&lt;br&gt;BLAST bit score: 1666&lt;br&gt;E-value: 0.0" locus_tag="JYG35_RS01490" class="clusterblast-orf" id="dummy-4_h4_8_17"  />
</g>
<g id="a4_0018"  >
<polygon points="425,90 428,90 433,85 428,80 425,80 425,90 " style="fill:#1523d8; stroke-width:1; stroke:black; " description="&lt;b&gt;JYG35_RS01485&lt;/b&gt;&lt;br&gt;SRPBCC family protein&lt;br&gt;Location: 331289 - 330825&lt;br&gt;&lt;br&gt;&lt;b&gt;BlastP hit with JNAJGP_10460&lt;/b&gt;&lt;br&gt;Percentage identity: 75&lt;br&gt;Percentage coverage: 100&lt;br&gt;BLAST bit score: 240&lt;br&gt;E-value: 8.84e-81" locus_tag="JYG35_RS01485" class="clusterblast-orf" id="dummy-4_h4_8_18"  />
</g>
<g id="a4_0019"  >
<polygon points="434,85 439,80 468,80 468,90 439,90 434,85 " style="fill:#d8158e; stroke-width:1; stroke:black; " description="&lt;b&gt;JYG35_RS01480&lt;/b&gt;&lt;br&gt;methyl-accepting chemotaxis protein&lt;br&gt;Location: 330786 - 328906&lt;br&gt;&lt;br&gt;&lt;b&gt;BlastP hit with JNAJGP_10465&lt;/b&gt;&lt;br&gt;Percentage identity: 92&lt;br&gt;Percentage coverage: 100&lt;br&gt;BLAST bit score: 984&lt;br&gt;E-value: 0.0" locus_tag="JYG35_RS01480" class="clusterblast-orf" id="dummy-4_h4_8_19"  />
</g>
<g id="a4_0020"  >
<polygon points="585,85 590,80 607,80 607,90 590,90 585,85 " style="fill:#d2d815; stroke-width:1; stroke:black; " description="&lt;b&gt;JYG35_RS01445&lt;/b&gt;&lt;br&gt;CoA transferase&lt;br&gt;Location: 322524 - 321304&lt;br&gt;&lt;br&gt;&lt;b&gt;BlastP hit with JNAJGP_10495&lt;/b&gt;&lt;br&gt;Percentage identity: 92&lt;br&gt;Percentage coverage: 100&lt;br&gt;BLAST bit score: 751&lt;br&gt;E-value: 1.75e-274" locus_tag="JYG35_RS01445" class="clusterblast-orf" id="dummy-4_h4_8_20"  />
</g>
<g id="a4_0021"  >
<polygon points="607,85 612,80 629,80 629,90 612,90 607,85 " style="fill:#15d89c; stroke-width:1; stroke:black; " description="&lt;b&gt;JYG35_RS01440&lt;/b&gt;&lt;br&gt;acyl-CoA dehydrogenase&lt;br&gt;Location: 321290 - 320109&lt;br&gt;&lt;br&gt;&lt;b&gt;BlastP hit with JNAJGP_10500&lt;/b&gt;&lt;br&gt;Percentage identity: 100&lt;br&gt;Percentage coverage: 100&lt;br&gt;BLAST bit score: 789&lt;br&gt;E-value: 5.18e-290" locus_tag="JYG35_RS01440" class="clusterblast-orf" id="dummy-4_h4_8_21"  />
</g>
<g id="a4_0022"  >
<polygon points="632,90 643,90 648,85 643,80 632,80 632,90 " style="fill:#3015d8; stroke-width:1; stroke:black; " description="&lt;b&gt;JYG35_RS01435&lt;/b&gt;&lt;br&gt;LysR family transcriptional regulator&lt;br&gt;Location: 319950 - 319051&lt;br&gt;&lt;br&gt;&lt;b&gt;BlastP hit with JNAJGP_10505&lt;/b&gt;&lt;br&gt;Percentage identity: 90&lt;br&gt;Percentage coverage: 100&lt;br&gt;BLAST bit score: 543&lt;br&gt;E-value: 6.08e-196" locus_tag="JYG35_RS01435" class="clusterblast-orf" id="dummy-4_h4_8_22"  />
</g>
<g id="a4_0023"  >
<polygon points="656,90 672,90 677,85 672,80 656,80 656,90 " style="fill:#d81566; stroke-width:1; stroke:black; " description="&lt;b&gt;JYG35_RS01430&lt;/b&gt;&lt;br&gt;Re/Si-specific NAD(P)(+) transhydrogenase subunit alpha&lt;br&gt;Location: 318599 - 317478&lt;br&gt;&lt;br&gt;&lt;b&gt;BlastP hit with JNAJGP_10510&lt;/b&gt;&lt;br&gt;Percentage identity: 97&lt;br&gt;Percentage coverage: 100&lt;br&gt;BLAST bit score: 681&lt;br&gt;E-value: 1.04e-247" locus_tag="JYG35_RS01430" class="clusterblast-orf" id="dummy-4_h4_8_23"  />
</g>
<g id="a4_0024"  >
<polygon points="677,90 678,90 683,85 678,80 677,80 677,90 " style="fill:#a9d815; stroke-width:1; stroke:black; " description="&lt;b&gt;JYG35_RS01425&lt;/b&gt;&lt;br&gt;NAD(P) transhydrogenase subunit alpha&lt;br&gt;Location: 317462 - 317142&lt;br&gt;&lt;br&gt;&lt;b&gt;BlastP hit with JNAJGP_10515&lt;/b&gt;&lt;br&gt;Percentage identity: 99&lt;br&gt;Percentage coverage: 100&lt;br&gt;BLAST bit score: 188&lt;br&gt;E-value: 1.42e-61" locus_tag="JYG35_RS01425" class="clusterblast-orf" id="dummy-4_h4_8_24"  />
</g>
<g id="a4_0025"  >
<polygon points="683,90 704,90 709,85 704,80 683,80 683,90 " style="fill:#15d8c4; stroke-width:1; stroke:black; " description="&lt;b&gt;JYG35_RS01420&lt;/b&gt;&lt;br&gt;NAD(P)(+) transhydrogenase (Re/Si-specific) subunit beta&lt;br&gt;Location: 317142 - 315706&lt;br&gt;&lt;br&gt;&lt;b&gt;BlastP hit with JNAJGP_10520&lt;/b&gt;&lt;br&gt;Percentage identity: 99&lt;br&gt;Percentage coverage: 100&lt;br&gt;BLAST bit score: 885&lt;br&gt;E-value: 0.0" locus_tag="JYG35_RS01420" class="clusterblast-orf" id="dummy-4_h4_8_25"  />
</g>
<g id="a4_0026"  >
<polygon points="712,90 735,90 740,85 735,80 712,80 712,90 " style="fill:#5815d8; stroke-width:1; stroke:black; " description="&lt;b&gt;JYG35_RS01415&lt;/b&gt;&lt;br&gt;acetyl-CoA hydrolase/transferase family protein&lt;br&gt;Location: 315526 - 314033&lt;br&gt;&lt;br&gt;&lt;b&gt;BlastP hit with JNAJGP_10525&lt;/b&gt;&lt;br&gt;Percentage identity: 98&lt;br&gt;Percentage coverage: 100&lt;br&gt;BLAST bit score: 947&lt;br&gt;E-value: 0.0" locus_tag="JYG35_RS01415" class="clusterblast-orf" id="dummy-4_h4_8_26"  />
</g>
<g id="a4_0027"  >
<polygon points="745,90 749,85 745,80 745,90 " style="fill:#d8153e; stroke-width:1; stroke:black; " description="&lt;b&gt;JYG35_RS01410&lt;/b&gt;&lt;br&gt;DUF1127 domain-containing protein&lt;br&gt;Location: 313715 - 313503&lt;br&gt;&lt;br&gt;&lt;b&gt;BlastP hit with JNAJGP_10530&lt;/b&gt;&lt;br&gt;Percentage identity: 94&lt;br&gt;Percentage coverage: 100&lt;br&gt;BLAST bit score: 126&lt;br&gt;E-value: 4.15e-38" locus_tag="JYG35_RS01410" class="clusterblast-orf" id="dummy-4_h4_8_27"  />
</g>
<g id="a4_0028"  >
<polygon points="754,90 757,85 754,80 754,90 " style="fill:#d8153e; stroke-width:1; stroke:black; " description="&lt;b&gt;JYG35_RS01405&lt;/b&gt;&lt;br&gt;DUF1127 domain-containing protein&lt;br&gt;Location: 313242 - 313057&lt;br&gt;&lt;br&gt;&lt;b&gt;BlastP hit with JNAJGP_10530&lt;/b&gt;&lt;br&gt;Percentage identity: 52&lt;br&gt;Percentage coverage: 70&lt;br&gt;BLAST bit score: 51&lt;br&gt;E-value: 2.49e-08" locus_tag="JYG35_RS01405" class="clusterblast-orf" id="dummy-4_h4_8_28"  />
</g>
<g id="a4_0029"  >
<polygon points="760,90 761,90 766,85 761,80 760,80 760,90 " style="fill:#81d815; stroke-width:1; stroke:black; " description="&lt;b&gt;JYG35_RS01400&lt;/b&gt;&lt;br&gt;DUF2388 domain-containing protein&lt;br&gt;Location: 312923 - 312603&lt;br&gt;&lt;br&gt;&lt;b&gt;BlastP hit with JNAJGP_10535&lt;/b&gt;&lt;br&gt;Percentage identity: 93&lt;br&gt;Percentage coverage: 100&lt;br&gt;BLAST bit score: 159&lt;br&gt;E-value: 2.73e-50&lt;br&gt;&lt;br&gt;&lt;b&gt;BlastP hit with JNAJGP_10540&lt;/b&gt;&lt;br&gt;Percentage identity: 47&lt;br&gt;Percentage coverage: 81&lt;br&gt;BLAST bit score: 63&lt;br&gt;E-value: 3.16e-12&lt;br&gt;&lt;br&gt;&lt;b&gt;BlastP hit with JNAJGP_10545&lt;/b&gt;&lt;br&gt;Percentage identity: 52&lt;br&gt;Percentage coverage: 91&lt;br&gt;BLAST bit score: 81&lt;br&gt;E-value: 4.12e-19" locus_tag="JYG35_RS01400" class="clusterblast-orf" id="dummy-4_h4_8_29"  />
</g>
<g id="a4_0030"  >
<polygon points="768,90 768,90 773,85 768,80 768,80 768,90 " style="fill:#81d815; stroke-width:1; stroke:black; " description="&lt;b&gt;JYG35_RS01395&lt;/b&gt;&lt;br&gt;DUF2388 domain-containing protein&lt;br&gt;Location: 312499 - 312191&lt;br&gt;&lt;br&gt;&lt;b&gt;BlastP hit with JNAJGP_10535&lt;/b&gt;&lt;br&gt;Percentage identity: 51&lt;br&gt;Percentage coverage: 79&lt;br&gt;BLAST bit score: 57&lt;br&gt;E-value: 5.89e-10&lt;br&gt;&lt;br&gt;&lt;b&gt;BlastP hit with JNAJGP_10540&lt;/b&gt;&lt;br&gt;Percentage identity: 82&lt;br&gt;Percentage coverage: 100&lt;br&gt;BLAST bit score: 164&lt;br&gt;E-value: 4.31e-52&lt;br&gt;&lt;br&gt;&lt;b&gt;BlastP hit with JNAJGP_10545&lt;/b&gt;&lt;br&gt;Percentage identity: 54&lt;br&gt;Percentage coverage: 59&lt;br&gt;BLAST bit score: 51&lt;br&gt;E-value: 2.05e-07" locus_tag="JYG35_RS01395" class="clusterblast-orf" id="dummy-4_h4_8_30"  />
</g>
<g id="a4_0031"  >
<polygon points="774,90 775,90 780,85 775,80 774,80 774,90 " style="fill:#81d815; stroke-width:1; stroke:black; " description="&lt;b&gt;JYG35_RS01390&lt;/b&gt;&lt;br&gt;DUF2388 domain-containing protein&lt;br&gt;Location: 312164 - 311844&lt;br&gt;&lt;br&gt;&lt;b&gt;BlastP hit with JNAJGP_10535&lt;/b&gt;&lt;br&gt;Percentage identity: 50&lt;br&gt;Percentage coverage: 90&lt;br&gt;BLAST bit score: 69&lt;br&gt;E-value: 1.41e-14&lt;br&gt;&lt;br&gt;&lt;b&gt;BlastP hit with JNAJGP_10540&lt;/b&gt;&lt;br&gt;Percentage identity: 43&lt;br&gt;Percentage coverage: 79&lt;br&gt;BLAST bit score: 56&lt;br&gt;E-value: 1.6e-09&lt;br&gt;&lt;br&gt;&lt;b&gt;BlastP hit with JNAJGP_10545&lt;/b&gt;&lt;br&gt;Percentage identity: 98&lt;br&gt;Percentage coverage: 100&lt;br&gt;BLAST bit score: 182&lt;br&gt;E-value: 1.94e-59" locus_tag="JYG35_RS01390" class="clusterblast-orf" id="dummy-4_h4_8_31"  />
</g>
</svg>
