<svg xmlns="http://www.w3.org/2000/svg" xmlns:xlink="http://www.w3.org/1999/xlink" version="1.1" x="0" y="0" height="230" width="800" viewBox="0 0 800 230" preserveAspectRatio="none"  >
<g label="Query sequence" class="clusterblast-cluster"  >
<text x="5" y="20" class="clusterblast-acc"  >
Query sequence</text>
<line x1="10" y1="35" x2="778.0" y2="35" style="stroke-width:1; stroke:grey; "  />
<polygon points="223,35 228,30 247,30 247,40 228,40 223,35 " style="fill:#d81515; stroke-width:1; stroke:black; " description="&lt;b&gt;JNAJGP_27310&lt;/b&gt;&lt;br&gt;Transcriptional regulator, AraC family&lt;br&gt;Location: 5819740 - 5820610" locus_tag="JNAJGP_27310" class="clusterblast-orf" id="dummy-10_q0_0_all"  />
<polygon points="252,40 264,40 269,35 264,30 252,30 252,40 " style="fill:#3cd815; stroke-width:1; stroke:black; " description="&lt;b&gt;JNAJGP_27315&lt;/b&gt;&lt;br&gt;Lysine transporter LysE&lt;br&gt;Location: 5820798 - 5821419" locus_tag="JNAJGP_27315" class="clusterblast-orf" id="dummy-10_q1_0_all"  />
<polygon points="272,40 280,40 285,35 280,30 272,30 272,40 " style="fill:#1563d8; stroke-width:1; stroke:black; " description="&lt;b&gt;JNAJGP_27320&lt;/b&gt;&lt;br&gt;PhnB-like domain-containing protein&lt;br&gt;Location: 5821494 - 5821977" locus_tag="JNAJGP_27320" class="clusterblast-orf" id="dummy-10_q2_0_all"  />
<polygon points="288,40 305,40 310,35 305,30 288,30 288,40 " style="fill:#b115d8; stroke-width:1; stroke:black; " description="&lt;b&gt;JNAJGP_27325&lt;/b&gt;&lt;br&gt;cysteine synthase family protein&lt;br&gt;Location: 5822078 - 5822870" locus_tag="JNAJGP_27325" class="clusterblast-orf" id="dummy-10_q3_0_all"  />
<polygon points="310,40 321,40 326,35 321,30 310,30 310,40 " style="fill:#b115d8; stroke-width:1; stroke:black; " description="&lt;b&gt;JNAJGP_27330&lt;/b&gt;&lt;br&gt;CBS domain-containing protein&lt;br&gt;Location: 5822870 - 5823455" locus_tag="JNAJGP_27330" class="clusterblast-orf" id="dummy-10_q4_0_all"  />
<polygon points="326,40 353,40 358,35 353,30 326,30 326,40 " style="fill:#d88a15; stroke-width:1; stroke:black; " description="&lt;b&gt;JNAJGP_27335&lt;/b&gt;&lt;br&gt;cystathionine gamma-synthase&lt;br&gt;Location: 5823451 - 5824618" locus_tag="JNAJGP_27335" class="clusterblast-orf" id="dummy-10_q5_0_all"  />
<polygon points="360,35 365,30 421,30 421,40 365,40 360,35 " style="fill:#15d863; stroke-width:1; stroke:black; " description="&lt;b&gt;JNAJGP_27340&lt;/b&gt;&lt;br&gt;OsmC domain/YcaO domain-containing protein&lt;br&gt;Location: 5824670 - 5826872" locus_tag="JNAJGP_27340" class="clusterblast-orf" id="dummy-10_q6_0_all"  />
<polygon points="426,40 428,40 433,35 428,30 426,30 426,40 " style="fill:#3c15d8; stroke-width:1; stroke:black; " description="&lt;b&gt;JNAJGP_27345&lt;/b&gt;&lt;br&gt;PAS domain-containing protein&lt;br&gt;Location: 5827033 - 5827303" locus_tag="JNAJGP_27345" class="clusterblast-orf" id="dummy-10_q7_0_all"  />
<polygon points="433,35 438,30 445,30 445,40 438,40 433,35 " style="fill:#15d863; stroke-width:1; stroke:black; " description="&lt;b&gt;JNAJGP_27350&lt;/b&gt;&lt;br&gt;Osmotically inducible protein OsmC&lt;br&gt;Location: 5827292 - 5827724" locus_tag="JNAJGP_27350" class="clusterblast-orf" id="dummy-10_q8_0_all"  />
<polygon points="447,40 486,40 491,35 486,30 447,30 447,40 " style="fill:#3c15d8; stroke-width:1; stroke:black; " description="&lt;b&gt;JNAJGP_27355&lt;/b&gt;&lt;br&gt;Methyl-accepting transducer domain-containing protein&lt;br&gt;Location: 5827804 - 5829370" locus_tag="JNAJGP_27355" class="clusterblast-orf" id="dummy-10_q9_0_all"  />
<polygon points="498,40 515,40 520,35 515,30 498,30 498,40 " style="fill:#d8158a; stroke-width:1; stroke:black; " description="&lt;b&gt;JNAJGP_27360&lt;/b&gt;&lt;br&gt;Suppressor of fused-like domain-containing protein&lt;br&gt;Location: 5829618 - 5830428" locus_tag="JNAJGP_27360" class="clusterblast-orf" id="dummy-10_q10_0_all"  />
<polygon points="520,40 531,40 536,35 531,30 520,30 520,40 " style="fill:#b1d815; stroke-width:1; stroke:black; " description="&lt;b&gt;JNAJGP_27365&lt;/b&gt;&lt;br&gt;hypothetical protein&lt;br&gt;Location: 5830427 - 5831009" locus_tag="JNAJGP_27365" class="clusterblast-orf" id="dummy-10_q11_0_all"  />
<polygon points="541,40 552,40 557,35 552,30 541,30 541,40 " style="fill:#15d8d8; stroke-width:1; stroke:black; " description="&lt;b&gt;JNAJGP_27370&lt;/b&gt;&lt;br&gt;Hydrolase, isochorismatase family&lt;br&gt;Location: 5831188 - 5831749" locus_tag="JNAJGP_27370" class="clusterblast-orf" id="dummy-10_q12_0_all"  />
</g>
<g label="NZ_CABVGW010000001" description="NZ_CABVGW010000001 (75337-103892): Pseudomonas fluorescens isolate PS682, who... (31% of genes show similarity), thiopeptide" class="clusterblast-cluster"  >
<text x="5" y="70" class="clusterblast-acc"  >
<a xlink:href="https://antismash-db.secondarymetabolites.org/area?record=NZ_CABVGW010000001&amp;start=75337&amp;end=103892" target="_blank">NZ_CABVGW010000001 (75337-103892)</a>: Pseudomonas fluorescens isolate PS682, who... (31% of genes show similarity), thiopeptide</text>
<line x1="10" y1="85" x2="778.0" y2="85" style="stroke-width:1; stroke:grey; "  />
</g>
<g id="a10_000"  >
<polygon points="0,90 8,90 13,85 8,80 0,80 0,90 " style="fill:white; stroke-width:1; stroke:black; " description="&lt;b&gt;F8N22_RS00455&lt;/b&gt;&lt;br&gt;Lrp/AsnC family transcriptional regulator&lt;br&gt;Location: 103694 - 103203" locus_tag="F8N22_RS00455" class="clusterblast-orf" id="dummy-10_h10_6_0"  />
</g>
<g id="a10_001"  >
<polygon points="18,90 73,90 78,85 73,80 18,80 18,90 " style="fill:white; stroke-width:1; stroke:black; " description="&lt;b&gt;F8N22_RS00450&lt;/b&gt;&lt;br&gt;TonB-dependent siderophore receptor&lt;br&gt;Location: 103018 - 100865" locus_tag="F8N22_RS00450" class="clusterblast-orf" id="dummy-10_h10_6_1"  />
</g>
<g id="a10_002"  >
<polygon points="83,90 119,90 124,85 119,80 83,80 83,90 " style="fill:#3c15d8; stroke-width:1; stroke:black; " description="&lt;b&gt;F8N22_RS00445&lt;/b&gt;&lt;br&gt;methyl-accepting chemotaxis protein&lt;br&gt;Location: 100699 - 99206&lt;br&gt;&lt;br&gt;&lt;b&gt;BlastP hit with JNAJGP_27355&lt;/b&gt;&lt;br&gt;Percentage identity: 34&lt;br&gt;Percentage coverage: 61&lt;br&gt;BLAST bit score: 117&lt;br&gt;E-value: 3.81e-26" locus_tag="F8N22_RS00445" class="clusterblast-orf" id="dummy-10_h10_6_2"  />
</g>
<g id="a10_003"  >
<polygon points="135,90 167,90 172,85 167,80 135,80 135,90 " style="fill:white; stroke-width:1; stroke:black; " description="&lt;b&gt;F8N22_RS00440&lt;/b&gt;&lt;br&gt;MFS transporter&lt;br&gt;Location: 98832 - 97495" locus_tag="F8N22_RS00440" class="clusterblast-orf" id="dummy-10_h10_6_3"  />
</g>
<g id="a10_004"  >
<polygon points="187,90 194,90 199,85 194,80 187,80 187,90 " style="fill:white; stroke-width:1; stroke:black; " description="&lt;b&gt;F8N22_RS00435&lt;/b&gt;&lt;br&gt;thiol-disulfide oxidoreductase DCC family protein&lt;br&gt;Location: 96966 - 96514" locus_tag="F8N22_RS00435" class="clusterblast-orf" id="dummy-10_h10_6_4"  />
</g>
<g id="a10_005"  >
<polygon points="199,85 204,80 220,80 220,90 204,90 199,85 " style="fill:white; stroke-width:1; stroke:black; " description="&lt;b&gt;F8N22_RS00430&lt;/b&gt;&lt;br&gt;NAD(P)-binding domain-containing protein&lt;br&gt;Location: 96519 - 95752" locus_tag="F8N22_RS00430" class="clusterblast-orf" id="dummy-10_h10_6_5"  />
</g>
<g id="a10_006"  >
<polygon points="224,90 229,90 234,85 229,80 224,80 224,90 " style="fill:white; stroke-width:1; stroke:black; " description="&lt;b&gt;F8N22_RS00425&lt;/b&gt;&lt;br&gt;VOC family protein&lt;br&gt;Location: 95621 - 95250" locus_tag="F8N22_RS00425" class="clusterblast-orf" id="dummy-10_h10_6_6"  />
</g>
<g id="a10_007"  >
<polygon points="236,90 246,90 251,85 246,80 236,80 236,90 " style="fill:white; stroke-width:1; stroke:black; " description="&lt;b&gt;F8N22_RS00420&lt;/b&gt;&lt;br&gt;adenylate kinase&lt;br&gt;Location: 95183 - 94647" locus_tag="F8N22_RS00420" class="clusterblast-orf" id="dummy-10_h10_6_7"  />
</g>
<g id="a10_008"  >
<polygon points="254,90 266,90 271,85 266,80 254,80 254,90 " style="fill:#3cd815; stroke-width:1; stroke:black; " description="&lt;b&gt;F8N22_RS00415&lt;/b&gt;&lt;br&gt;LysE family translocator&lt;br&gt;Location: 94551 - 93931&lt;br&gt;&lt;br&gt;&lt;b&gt;BlastP hit with JNAJGP_27315&lt;/b&gt;&lt;br&gt;Percentage identity: 91&lt;br&gt;Percentage coverage: 100&lt;br&gt;BLAST bit score: 362&lt;br&gt;E-value: 3.01e-127" locus_tag="F8N22_RS00415" class="clusterblast-orf" id="dummy-10_h10_6_8"  />
</g>
<g id="a10_009"  >
<polygon points="272,90 278,90 283,85 278,80 272,80 272,90 " style="fill:white; stroke-width:1; stroke:black; " description="&lt;b&gt;F8N22_RS00410&lt;/b&gt;&lt;br&gt;ester cyclase&lt;br&gt;Location: 93892 - 93500" locus_tag="F8N22_RS00410" class="clusterblast-orf" id="dummy-10_h10_6_9"  />
</g>
<g id="a10_0010"  >
<polygon points="284,90 292,90 297,85 292,80 284,80 284,90 " style="fill:#1563d8; stroke-width:1; stroke:black; " description="&lt;b&gt;F8N22_RS00405&lt;/b&gt;&lt;br&gt;VOC family protein&lt;br&gt;Location: 93465 - 92986&lt;br&gt;&lt;br&gt;&lt;b&gt;BlastP hit with JNAJGP_27320&lt;/b&gt;&lt;br&gt;Percentage identity: 89&lt;br&gt;Percentage coverage: 99&lt;br&gt;BLAST bit score: 296&lt;br&gt;E-value: 1.5e-102" locus_tag="F8N22_RS00405" class="clusterblast-orf" id="dummy-10_h10_6_10"  />
</g>
<g id="a10_0011"  >
<polygon points="301,90 335,90 340,85 335,80 301,80 301,90 " style="fill:white; stroke-width:1; stroke:black; " description="&lt;b&gt;F8N22_RS00400&lt;/b&gt;&lt;br&gt;hypothetical protein&lt;br&gt;Location: 92861 - 91470" locus_tag="F8N22_RS00400" class="clusterblast-orf" id="dummy-10_h10_6_11"  />
</g>
<g id="a10_0012"  >
<polygon points="348,90 367,90 372,85 367,80 348,80 348,90 " style="fill:white; stroke-width:1; stroke:black; " description="&lt;b&gt;F8N22_RS00395&lt;/b&gt;&lt;br&gt;4-hydroxy-tetrahydrodipicolinate synthase&lt;br&gt;Location: 91176 - 90313" locus_tag="F8N22_RS00395" class="clusterblast-orf" id="dummy-10_h10_6_12"  />
</g>
<g id="a10_0013"  >
<polygon points="375,90 408,90 413,85 408,80 375,80 375,90 " style="fill:#b115d8; stroke-width:1; stroke:black; " description="&lt;b&gt;F8N22_RS00390&lt;/b&gt;&lt;br&gt;cystathionine beta-synthase&lt;br&gt;Location: 90196 - 88820&lt;br&gt;&lt;br&gt;&lt;b&gt;BlastP hit with JNAJGP_27325&lt;/b&gt;&lt;br&gt;Percentage identity: 95&lt;br&gt;Percentage coverage: 100&lt;br&gt;BLAST bit score: 494&lt;br&gt;E-value: 1.3e-174&lt;br&gt;&lt;br&gt;&lt;b&gt;BlastP hit with JNAJGP_27330&lt;/b&gt;&lt;br&gt;Percentage identity: 93&lt;br&gt;Percentage coverage: 100&lt;br&gt;BLAST bit score: 353&lt;br&gt;E-value: 2.9e-120" locus_tag="F8N22_RS00390" class="clusterblast-orf" id="dummy-10_h10_6_13"  />
</g>
<g id="a10_0014"  >
<polygon points="413,90 441,90 446,85 441,80 413,80 413,90 " style="fill:#d88a15; stroke-width:1; stroke:black; " description="&lt;b&gt;F8N22_RS00385&lt;/b&gt;&lt;br&gt;cystathionine gamma-synthase&lt;br&gt;Location: 88823 - 87657&lt;br&gt;&lt;br&gt;&lt;b&gt;BlastP hit with JNAJGP_27335&lt;/b&gt;&lt;br&gt;Percentage identity: 94&lt;br&gt;Percentage coverage: 100&lt;br&gt;BLAST bit score: 727&lt;br&gt;E-value: 1.72e-265" locus_tag="F8N22_RS00385" class="clusterblast-orf" id="dummy-10_h10_6_14"  />
</g>
<g id="a10_0015"  >
<polygon points="449,85 454,80 510,80 510,90 454,90 449,85 " style="fill:#15d863; stroke-width:1; stroke:black; " description="&lt;b&gt;F8N22_RS00380&lt;/b&gt;&lt;br&gt;OsmC domain/YcaO domain-containing protein&lt;br&gt;Location: 87536 - 85338&lt;br&gt;&lt;br&gt;&lt;b&gt;BlastP hit with JNAJGP_27340&lt;/b&gt;&lt;br&gt;Percentage identity: 95&lt;br&gt;Percentage coverage: 100&lt;br&gt;BLAST bit score: 1409&lt;br&gt;E-value: 0.0&lt;br&gt;&lt;br&gt;&lt;b&gt;BlastP hit with JNAJGP_27350&lt;/b&gt;&lt;br&gt;Percentage identity: 99&lt;br&gt;Percentage coverage: 80&lt;br&gt;BLAST bit score: 232&lt;br&gt;E-value: 3.65e-71" locus_tag="F8N22_RS00380" class="clusterblast-orf" id="dummy-10_h10_6_15"  />
</g>
<g id="a10_0016"  >
<polygon points="515,90 553,90 558,85 553,80 515,80 515,90 " style="fill:#3c15d8; stroke-width:1; stroke:black; " description="&lt;b&gt;F8N22_RS00375&lt;/b&gt;&lt;br&gt;methyl-accepting chemotaxis protein&lt;br&gt;Location: 85174 - 83609&lt;br&gt;&lt;br&gt;&lt;b&gt;BlastP hit with JNAJGP_27345&lt;/b&gt;&lt;br&gt;Percentage identity: 91&lt;br&gt;Percentage coverage: 100&lt;br&gt;BLAST bit score: 169&lt;br&gt;E-value: 8.19e-50&lt;br&gt;&lt;br&gt;&lt;b&gt;BlastP hit with JNAJGP_27355&lt;/b&gt;&lt;br&gt;Percentage identity: 89&lt;br&gt;Percentage coverage: 100&lt;br&gt;BLAST bit score: 833&lt;br&gt;E-value: 6.45e-303" locus_tag="F8N22_RS00375" class="clusterblast-orf" id="dummy-10_h10_6_16"  />
</g>
<g id="a10_0017"  >
<polygon points="562,90 574,90 579,85 574,80 562,80 562,90 " style="fill:white; stroke-width:1; stroke:black; " description="&lt;b&gt;F8N22_RS00370&lt;/b&gt;&lt;br&gt;LysE family translocator&lt;br&gt;Location: 83481 - 82861" locus_tag="F8N22_RS00370" class="clusterblast-orf" id="dummy-10_h10_6_17"  />
</g>
<g id="a10_0018"  >
<polygon points="581,85 586,80 599,80 599,90 586,90 581,85 " style="fill:white; stroke-width:1; stroke:black; " description="&lt;b&gt;F8N22_RS00365&lt;/b&gt;&lt;br&gt;class I SAM-dependent methyltransferase&lt;br&gt;Location: 82788 - 82132" locus_tag="F8N22_RS00365" class="clusterblast-orf" id="dummy-10_h10_6_18"  />
</g>
<g id="a10_0019"  >
<polygon points="602,90 615,90 620,85 615,80 602,80 602,90 " style="fill:white; stroke-width:1; stroke:black; " description="&lt;b&gt;F8N22_RS00360&lt;/b&gt;&lt;br&gt;TetR family transcriptional regulator&lt;br&gt;Location: 82020 - 81388" locus_tag="F8N22_RS00360" class="clusterblast-orf" id="dummy-10_h10_6_19"  />
</g>
<g id="a10_0020"  >
<polygon points="621,90 638,90 643,85 638,80 621,80 621,90 " style="fill:#d8158a; stroke-width:1; stroke:black; " description="&lt;b&gt;F8N22_RS00355&lt;/b&gt;&lt;br&gt;suppressor of fused domain protein&lt;br&gt;Location: 81359 - 80559&lt;br&gt;&lt;br&gt;&lt;b&gt;BlastP hit with JNAJGP_27360&lt;/b&gt;&lt;br&gt;Percentage identity: 84&lt;br&gt;Percentage coverage: 100&lt;br&gt;BLAST bit score: 441&lt;br&gt;E-value: 1.31e-156" locus_tag="F8N22_RS00355" class="clusterblast-orf" id="dummy-10_h10_6_20"  />
</g>
<g id="a10_0021"  >
<polygon points="650,85 655,80 662,80 662,90 655,90 650,85 " style="fill:white; stroke-width:1; stroke:black; " description="&lt;b&gt;F8N22_RS00350&lt;/b&gt;&lt;br&gt;VOC family protein&lt;br&gt;Location: 80313 - 79882" locus_tag="F8N22_RS00350" class="clusterblast-orf" id="dummy-10_h10_6_21"  />
</g>
<g id="a10_0022"  >
<polygon points="670,90 677,90 682,85 677,80 670,80 670,90 " style="fill:white; stroke-width:1; stroke:black; " description="&lt;b&gt;F8N22_RS00345&lt;/b&gt;&lt;br&gt;hypothetical protein&lt;br&gt;Location: 79605 - 79150" locus_tag="F8N22_RS00345" class="clusterblast-orf" id="dummy-10_h10_6_22"  />
</g>
<g id="a10_0023"  >
<polygon points="687,90 694,90 699,85 694,80 687,80 687,90 " style="fill:white; stroke-width:1; stroke:black; " description="&lt;b&gt;F8N22_RS00340&lt;/b&gt;&lt;br&gt;hypothetical protein&lt;br&gt;Location: 78993 - 78553" locus_tag="F8N22_RS00340" class="clusterblast-orf" id="dummy-10_h10_6_23"  />
</g>
<g id="a10_0024"  >
<polygon points="704,85 709,80 719,80 719,90 709,90 704,85 " style="fill:white; stroke-width:1; stroke:black; " description="&lt;b&gt;F8N22_RS00335&lt;/b&gt;&lt;br&gt;GNAT family N-acetyltransferase&lt;br&gt;Location: 78383 - 77836" locus_tag="F8N22_RS00335" class="clusterblast-orf" id="dummy-10_h10_6_24"  />
</g>
<g id="a10_0025"  >
<polygon points="720,85 725,80 731,80 731,90 725,90 720,85 " style="fill:white; stroke-width:1; stroke:black; " description="&lt;b&gt;F8N22_RS00330&lt;/b&gt;&lt;br&gt;hypothetical protein&lt;br&gt;Location: 77804 - 77385" locus_tag="F8N22_RS00330" class="clusterblast-orf" id="dummy-10_h10_6_25"  />
</g>
<g id="a10_0026"  >
<polygon points="731,85 736,80 745,80 745,90 736,90 731,85 " style="fill:white; stroke-width:1; stroke:black; " description="&lt;b&gt;F8N22_RS00325&lt;/b&gt;&lt;br&gt;hypothetical protein&lt;br&gt;Location: 77388 - 76912" locus_tag="F8N22_RS00325" class="clusterblast-orf" id="dummy-10_h10_6_26"  />
</g>
<g id="a10_0027"  >
<polygon points="744,85 749,80 759,80 759,90 749,90 744,85 " style="fill:white; stroke-width:1; stroke:black; " description="&lt;b&gt;F8N22_RS00320&lt;/b&gt;&lt;br&gt;GNAT family N-acetyltransferase&lt;br&gt;Location: 76925 - 76380" locus_tag="F8N22_RS00320" class="clusterblast-orf" id="dummy-10_h10_6_27"  />
</g>
<g id="a10_0028"  >
<polygon points="764,90 775,90 780,85 775,80 764,80 764,90 " style="fill:#15d8d8; stroke-width:1; stroke:black; " description="&lt;b&gt;F8N22_RS00315&lt;/b&gt;&lt;br&gt;cysteine hydrolase&lt;br&gt;Location: 76215 - 75655&lt;br&gt;&lt;br&gt;&lt;b&gt;BlastP hit with JNAJGP_27370&lt;/b&gt;&lt;br&gt;Percentage identity: 83&lt;br&gt;Percentage coverage: 98&lt;br&gt;BLAST bit score: 312&lt;br&gt;E-value: 4.33e-108" locus_tag="F8N22_RS00315" class="clusterblast-orf" id="dummy-10_h10_6_28"  />
</g>
</svg>
