<svg xmlns="http://www.w3.org/2000/svg" xmlns:xlink="http://www.w3.org/1999/xlink" version="1.1" x="0" y="0" height="230" width="800" viewBox="0 0 800 230" preserveAspectRatio="none"  >
<g label="Query sequence" class="clusterblast-cluster"  >
<text x="5" y="20" class="clusterblast-acc"  >
Query sequence</text>
<line x1="10" y1="35" x2="778.0" y2="35" style="stroke-width:1; stroke:grey; "  />
<polygon points="0,35 5,30 8,30 8,40 5,40 0,35 " style="fill:#d81515; stroke-width:1; stroke:black; " description="&lt;b&gt;JNAJGP_00145&lt;/b&gt;&lt;br&gt;hypothetical protein&lt;br&gt;Location: 27238 - 27385" locus_tag="JNAJGP_00145" class="clusterblast-orf" id="dummy-1_q0_0_all"  />
<polygon points="26,35 31,30 112,30 112,40 31,40 26,35 " style="fill:#d81515; stroke-width:1; stroke:black; " description="&lt;b&gt;JNAJGP_00150&lt;/b&gt;&lt;br&gt;polyphosphate:AMP phosphotransferase&lt;br&gt;Location: 27695 - 29210" locus_tag="JNAJGP_00150" class="clusterblast-orf" id="dummy-1_q1_0_all"  />
<polygon points="121,40 228,40 233,35 228,30 121,30 121,40 " style="fill:#5cd815; stroke-width:1; stroke:black; " description="&lt;b&gt;JNAJGP_00155&lt;/b&gt;&lt;br&gt;bifunctional tRNA (5-methylaminomethyl-2-thiouridine)(34)-methyltransferase MnmD/FAD-dependent 5-carboxymethylaminomethyl-2-thiouridine(34) oxidoreductase MnmC&lt;br&gt;Location: 29364 - 31350" locus_tag="JNAJGP_00155" class="clusterblast-orf" id="dummy-1_q2_0_all"  />
<polygon points="246,40 342,40 347,35 342,30 246,30 246,40 " style="fill:#15a3d8; stroke-width:1; stroke:black; " description="&lt;b&gt;JNAJGP_00160&lt;/b&gt;&lt;br&gt;N-acetylglutaminylglutamine amidotransferase&lt;br&gt;Location: 31575 - 33348" locus_tag="JNAJGP_00160" class="clusterblast-orf" id="dummy-1_q3_0_all"  />
<polygon points="347,40 441,40 446,35 441,30 347,30 347,40 " style="fill:#c715d8; stroke-width:1; stroke:black; " description="&lt;b&gt;JNAJGP_00165&lt;/b&gt;&lt;br&gt;N-acetylglutaminylglutamine synthetase&lt;br&gt;Location: 33351 - 35100" locus_tag="JNAJGP_00165" class="clusterblast-orf" id="dummy-1_q4_0_all"  />
<polygon points="455,40 518,40 523,35 518,30 455,30 455,40 " style="fill:#d88015; stroke-width:1; stroke:black; " description="&lt;b&gt;JNAJGP_00170&lt;/b&gt;&lt;br&gt;osmoprotectant NAGGN system M42 family peptidase&lt;br&gt;Location: 35263 - 36448" locus_tag="JNAJGP_00170" class="clusterblast-orf" id="dummy-1_q5_0_all"  />
<polygon points="526,40 534,40 539,35 534,30 526,30 526,40 " style="fill:#15d839; stroke-width:1; stroke:black; " description="&lt;b&gt;JNAJGP_00175&lt;/b&gt;&lt;br&gt;UPF0270 protein Pfl01 4103&lt;br&gt;Location: 36507 - 36735" locus_tag="JNAJGP_00175" class="clusterblast-orf" id="dummy-1_q6_0_all"  />
<polygon points="539,35 544,30 550,30 550,40 544,40 539,35 " style="fill:#1539d8; stroke-width:1; stroke:black; " description="&lt;b&gt;JNAJGP_00180&lt;/b&gt;&lt;br&gt;carbon storage regulator CsrA&lt;br&gt;Location: 36743 - 36941" locus_tag="JNAJGP_00180" class="clusterblast-orf" id="dummy-1_q7_0_all"  />
<polygon points="558,35 563,30 604,30 604,40 563,40 558,35 " style="fill:#d81580; stroke-width:1; stroke:black; " description="&lt;b&gt;JNAJGP_00185&lt;/b&gt;&lt;br&gt;SDR family oxidoreductase&lt;br&gt;Location: 37068 - 37884" locus_tag="JNAJGP_00185" class="clusterblast-orf" id="dummy-1_q8_0_all"  />
<polygon points="623,40 626,40 631,35 626,30 623,30 623,40 " style="fill:#c7d815; stroke-width:1; stroke:black; " description="&lt;b&gt;JNAJGP_00190&lt;/b&gt;&lt;br&gt;DUF3309 domain-containing protein&lt;br&gt;Location: 38212 - 38365" locus_tag="JNAJGP_00190" class="clusterblast-orf" id="dummy-1_q9_0_all"  />
<polygon points="634,35 639,30 753,30 753,40 639,40 634,35 " style="fill:#15d8a3; stroke-width:1; stroke:black; " description="&lt;b&gt;JNAJGP_00195&lt;/b&gt;&lt;br&gt;Phosphoglycerol transferase I&lt;br&gt;Location: 38416 - 40504" locus_tag="JNAJGP_00195" class="clusterblast-orf" id="dummy-1_q10_0_all"  />
<polygon points="769,35 774,30 780,30 780,40 774,40 769,35 " style="fill:#5c15d8; stroke-width:1; stroke:black; " description="&lt;b&gt;JNAJGP_00200&lt;/b&gt;&lt;br&gt;Cardiolipin synthase N-terminal domain-containing protein&lt;br&gt;Location: 40796 - 40988" locus_tag="JNAJGP_00200" class="clusterblast-orf" id="dummy-1_q11_0_all"  />
</g>
<g label="NZ_MSDJ01000006" description="NZ_MSDJ01000006 (947993-962866): Pseudomonas fluorescens strain G2Y PF G2Y co... (100% of genes show similarity), NAGGN" class="clusterblast-cluster"  >
<text x="5" y="70" class="clusterblast-acc"  >
<a xlink:href="https://antismash-db.secondarymetabolites.org/area?record=NZ_MSDJ01000006&amp;start=947993&amp;end=962866" target="_blank">NZ_MSDJ01000006 (947993-962866)</a>: Pseudomonas fluorescens strain G2Y PF G2Y co... (100% of genes show similarity), NAGGN</text>
<line x1="10" y1="85" x2="778.0" y2="85" style="stroke-width:1; stroke:grey; "  />
</g>
<g id="a1_000"  >
<polygon points="12,85 17,80 98,80 98,90 17,90 12,85 " style="fill:#d81515; stroke-width:1; stroke:black; " description="&lt;b&gt;BFW92_RS09270&lt;/b&gt;&lt;br&gt;polyphosphate:AMP phosphotransferase&lt;br&gt;Location: 961745 - 960231&lt;br&gt;&lt;br&gt;&lt;b&gt;BlastP hit with JNAJGP_00145&lt;/b&gt;&lt;br&gt;Percentage identity: 98&lt;br&gt;Percentage coverage: 94&lt;br&gt;BLAST bit score: 87&lt;br&gt;E-value: 3.01e-20&lt;br&gt;&lt;br&gt;&lt;b&gt;BlastP hit with JNAJGP_00150&lt;/b&gt;&lt;br&gt;Percentage identity: 100&lt;br&gt;Percentage coverage: 100&lt;br&gt;BLAST bit score: 1016&lt;br&gt;E-value: 0.0" locus_tag="BFW92_RS09270" class="clusterblast-orf" id="dummy-1_h1_2_0"  />
</g>
<g id="a1_001"  >
<polygon points="107,90 215,90 220,85 215,80 107,80 107,90 " style="fill:#5cd815; stroke-width:1; stroke:black; " description="&lt;b&gt;BFW92_RS09265&lt;/b&gt;&lt;br&gt;bifunctional tRNA (5-methylaminomethyl-2-thiouridine)(34)-methyltransferase MnmD/FAD-dependent 5-carboxymethylaminomethyl-2-thiouridine(34) oxidoreductase MnmC&lt;br&gt;Location: 960076 - 958091&lt;br&gt;&lt;br&gt;&lt;b&gt;BlastP hit with JNAJGP_00155&lt;/b&gt;&lt;br&gt;Percentage identity: 99&lt;br&gt;Percentage coverage: 100&lt;br&gt;BLAST bit score: 1325&lt;br&gt;E-value: 0.0" locus_tag="BFW92_RS09265" class="clusterblast-orf" id="dummy-1_h1_2_1"  />
</g>
<g id="a1_002"  >
<polygon points="233,90 328,90 333,85 328,80 233,80 233,90 " style="fill:#15a3d8; stroke-width:1; stroke:black; " description="&lt;b&gt;BFW92_RS09260&lt;/b&gt;&lt;br&gt;N-acetylglutaminylglutamine amidotransferase&lt;br&gt;Location: 957866 - 956094&lt;br&gt;&lt;br&gt;&lt;b&gt;BlastP hit with JNAJGP_00160&lt;/b&gt;&lt;br&gt;Percentage identity: 100&lt;br&gt;Percentage coverage: 100&lt;br&gt;BLAST bit score: 1200&lt;br&gt;E-value: 0.0" locus_tag="BFW92_RS09260" class="clusterblast-orf" id="dummy-1_h1_2_2"  />
</g>
<g id="a1_003"  >
<polygon points="333,90 427,90 432,85 427,80 333,80 333,90 " style="fill:#c715d8; stroke-width:1; stroke:black; " description="&lt;b&gt;BFW92_RS09255&lt;/b&gt;&lt;br&gt;N-acetylglutaminylglutamine synthetase&lt;br&gt;Location: 956090 - 954342&lt;br&gt;&lt;br&gt;&lt;b&gt;BlastP hit with JNAJGP_00165&lt;/b&gt;&lt;br&gt;Percentage identity: 99&lt;br&gt;Percentage coverage: 100&lt;br&gt;BLAST bit score: 1150&lt;br&gt;E-value: 0.0" locus_tag="BFW92_RS09255" class="clusterblast-orf" id="dummy-1_h1_2_3"  />
</g>
<g id="a1_004"  >
<polygon points="442,90 504,90 509,85 504,80 442,80 442,90 " style="fill:#d88015; stroke-width:1; stroke:black; " description="&lt;b&gt;BFW92_RS09250&lt;/b&gt;&lt;br&gt;osmoprotectant NAGGN system M42 family peptidase&lt;br&gt;Location: 954178 - 952994&lt;br&gt;&lt;br&gt;&lt;b&gt;BlastP hit with JNAJGP_00170&lt;/b&gt;&lt;br&gt;Percentage identity: 100&lt;br&gt;Percentage coverage: 100&lt;br&gt;BLAST bit score: 782&lt;br&gt;E-value: 3.1e-287" locus_tag="BFW92_RS09250" class="clusterblast-orf" id="dummy-1_h1_2_4"  />
</g>
<g id="a1_005"  >
<polygon points="512,90 520,90 525,85 520,80 512,80 512,90 " style="fill:#15d839; stroke-width:1; stroke:black; " description="&lt;b&gt;BFW92_RS09245&lt;/b&gt;&lt;br&gt;YheU family protein&lt;br&gt;Location: 952934 - 952707&lt;br&gt;&lt;br&gt;&lt;b&gt;BlastP hit with JNAJGP_00175&lt;/b&gt;&lt;br&gt;Percentage identity: 100&lt;br&gt;Percentage coverage: 100&lt;br&gt;BLAST bit score: 152&lt;br&gt;E-value: 3.36e-48" locus_tag="BFW92_RS09245" class="clusterblast-orf" id="dummy-1_h1_2_5"  />
</g>
<g id="a1_006"  >
<polygon points="526,85 531,80 537,80 537,90 531,90 526,85 " style="fill:#1539d8; stroke-width:1; stroke:black; " description="&lt;b&gt;BFW92_RS09240&lt;/b&gt;&lt;br&gt;carbon storage regulator CsrA&lt;br&gt;Location: 952698 - 952501&lt;br&gt;&lt;br&gt;&lt;b&gt;BlastP hit with JNAJGP_00180&lt;/b&gt;&lt;br&gt;Percentage identity: 99&lt;br&gt;Percentage coverage: 100&lt;br&gt;BLAST bit score: 119&lt;br&gt;E-value: 1.11e-35" locus_tag="BFW92_RS09240" class="clusterblast-orf" id="dummy-1_h1_2_6"  />
</g>
<g id="a1_007"  >
<polygon points="544,85 549,80 590,80 590,90 549,90 544,85 " style="fill:#d81580; stroke-width:1; stroke:black; " description="&lt;b&gt;BFW92_RS09235&lt;/b&gt;&lt;br&gt;SDR family oxidoreductase&lt;br&gt;Location: 952373 - 951558&lt;br&gt;&lt;br&gt;&lt;b&gt;BlastP hit with JNAJGP_00185&lt;/b&gt;&lt;br&gt;Percentage identity: 100&lt;br&gt;Percentage coverage: 100&lt;br&gt;BLAST bit score: 530&lt;br&gt;E-value: 2.15e-191" locus_tag="BFW92_RS09235" class="clusterblast-orf" id="dummy-1_h1_2_7"  />
</g>
<g id="a1_008"  >
<polygon points="609,90 613,90 618,85 613,80 609,80 609,90 " style="fill:#c7d815; stroke-width:1; stroke:black; " description="&lt;b&gt;BFW92_RS09230&lt;/b&gt;&lt;br&gt;DUF3309 family protein&lt;br&gt;Location: 951229 - 951077&lt;br&gt;&lt;br&gt;&lt;b&gt;BlastP hit with JNAJGP_00190&lt;/b&gt;&lt;br&gt;Percentage identity: 100&lt;br&gt;Percentage coverage: 100&lt;br&gt;BLAST bit score: 81&lt;br&gt;E-value: 1.5e-20" locus_tag="BFW92_RS09230" class="clusterblast-orf" id="dummy-1_h1_2_8"  />
</g>
<g id="a1_009"  >
<polygon points="621,85 626,80 739,80 739,90 626,90 621,85 " style="fill:#15d8a3; stroke-width:1; stroke:black; " description="&lt;b&gt;BFW92_RS09225&lt;/b&gt;&lt;br&gt;LTA synthase family protein&lt;br&gt;Location: 951024 - 948937&lt;br&gt;&lt;br&gt;&lt;b&gt;BlastP hit with JNAJGP_00195&lt;/b&gt;&lt;br&gt;Percentage identity: 99&lt;br&gt;Percentage coverage: 100&lt;br&gt;BLAST bit score: 1389&lt;br&gt;E-value: 0.0" locus_tag="BFW92_RS09225" class="clusterblast-orf" id="dummy-1_h1_2_9"  />
</g>
<g id="a1_0010"  >
<polygon points="756,85 761,80 766,80 766,90 761,90 756,85 " style="fill:#5c15d8; stroke-width:1; stroke:black; " description="&lt;b&gt;BFW92_RS09220&lt;/b&gt;&lt;br&gt;PLDc N-terminal domain-containing protein&lt;br&gt;Location: 948645 - 948454&lt;br&gt;&lt;br&gt;&lt;b&gt;BlastP hit with JNAJGP_00200&lt;/b&gt;&lt;br&gt;Percentage identity: 100&lt;br&gt;Percentage coverage: 100&lt;br&gt;BLAST bit score: 121&lt;br&gt;E-value: 2.36e-36" locus_tag="BFW92_RS09220" class="clusterblast-orf" id="dummy-1_h1_2_10"  />
</g>
</svg>
