<svg xmlns="http://www.w3.org/2000/svg" xmlns:xlink="http://www.w3.org/1999/xlink" version="1.1" x="0" y="0" height="230" width="800" viewBox="0 0 800 230" preserveAspectRatio="none"  >
<g label="Query sequence" class="clusterblast-cluster"  >
<text x="5" y="20" class="clusterblast-acc"  >
Query sequence</text>
<line x1="10" y1="35" x2="778.0" y2="35" style="stroke-width:1; stroke:grey; "  />
<polygon points="5,40 29,40 34,35 29,30 5,30 5,40 " style="fill:#d81515; stroke-width:1; stroke:black; " description="&lt;b&gt;JNAJGP_08685&lt;/b&gt;&lt;br&gt;YdiU family protein&lt;br&gt;Location: 1807450 - 1808914" locus_tag="JNAJGP_08685" class="clusterblast-orf" id="dummy-3_q0_0_all"  />
<polygon points="34,35 39,30 42,30 42,40 39,40 34,35 " style="fill:#6fd815; stroke-width:1; stroke:black; " description="&lt;b&gt;JNAJGP_08690&lt;/b&gt;&lt;br&gt;Antitoxin HigA&lt;br&gt;Location: 1808932 - 1809334" locus_tag="JNAJGP_08690" class="clusterblast-orf" id="dummy-3_q1_0_all"  />
<polygon points="42,35 47,30 48,30 48,40 47,40 42,35 " style="fill:#15c9d8; stroke-width:1; stroke:black; " description="&lt;b&gt;JNAJGP_08695&lt;/b&gt;&lt;br&gt;mRNA interferase toxin HigB&lt;br&gt;Location: 1809341 - 1809629" locus_tag="JNAJGP_08695" class="clusterblast-orf" id="dummy-3_q2_0_all"  />
<polygon points="52,40 56,40 61,35 56,30 52,30 52,40 " style="fill:#8d15d8; stroke-width:1; stroke:black; " description="&lt;b&gt;JNAJGP_08700&lt;/b&gt;&lt;br&gt;thioredoxin TrxC&lt;br&gt;Location: 1809863 - 1810298" locus_tag="JNAJGP_08700" class="clusterblast-orf" id="dummy-3_q3_0_all"  />
<polygon points="63,35 68,30 68,30 68,40 68,40 63,35 " style="fill:#d83315; stroke-width:1; stroke:black; " description="&lt;b&gt;JNAJGP_08705&lt;/b&gt;&lt;br&gt;DUF3077 domain-containing protein&lt;br&gt;Location: 1810426 - 1810660" locus_tag="JNAJGP_08705" class="clusterblast-orf" id="dummy-3_q4_0_all"  />
<polygon points="75,35 80,30 90,30 90,40 80,40 75,35 " style="fill:#51d815; stroke-width:1; stroke:black; " description="&lt;b&gt;JNAJGP_08715&lt;/b&gt;&lt;br&gt;ParA-like ATPase involved in chromosome/plasmid partitioning or cellulose biosynthesis protein BcsQ&lt;br&gt;Location: 1811037 - 1811808" locus_tag="JNAJGP_08715" class="clusterblast-orf" id="dummy-3_q5_0_all"  />
<polygon points="96,40 105,40 110,35 105,30 96,30 96,40 " style="fill:#15abd8; stroke-width:1; stroke:black; " description="&lt;b&gt;JNAJGP_08720&lt;/b&gt;&lt;br&gt;Beta-ketoacyl synthase N-terminal domain-containing protein&lt;br&gt;Location: 1812135 - 1812855" locus_tag="JNAJGP_08720" class="clusterblast-orf" id="dummy-3_q6_0_all"  />
<polygon points="110,40 120,40 125,35 120,30 110,30 110,40 " style="fill:#ab15d8; stroke-width:1; stroke:black; " description="&lt;b&gt;JNAJGP_08725&lt;/b&gt;&lt;br&gt;Phospholipid/glycerol acyltransferase domain-containing protein&lt;br&gt;Location: 1812830 - 1813643" locus_tag="JNAJGP_08725" class="clusterblast-orf" id="dummy-3_q7_0_all"  />
<polygon points="125,40 125,40 130,35 125,30 125,30 125,40 " style="fill:#d85115; stroke-width:1; stroke:black; " description="&lt;b&gt;JNAJGP_08730&lt;/b&gt;&lt;br&gt;Acyl carrier protein&lt;br&gt;Location: 1813620 - 1813890" locus_tag="JNAJGP_08730" class="clusterblast-orf" id="dummy-3_q8_0_all"  />
<polygon points="130,40 130,40 135,35 130,30 130,30 130,40 " style="fill:#33d815; stroke-width:1; stroke:black; " description="&lt;b&gt;JNAJGP_08735&lt;/b&gt;&lt;br&gt;acyl carrier protein&lt;br&gt;Location: 1813899 - 1814154" locus_tag="JNAJGP_08735" class="clusterblast-orf" id="dummy-3_q9_0_all"  />
<polygon points="135,40 141,40 146,35 141,30 135,30 135,40 " style="fill:#158dd8; stroke-width:1; stroke:black; " description="&lt;b&gt;JNAJGP_08740&lt;/b&gt;&lt;br&gt;Intracellular septation protein a&lt;br&gt;Location: 1814150 - 1814696" locus_tag="JNAJGP_08740" class="clusterblast-orf" id="dummy-3_q10_0_all"  />
<polygon points="146,40 173,40 178,35 173,30 146,30 146,40 " style="fill:#c915d8; stroke-width:1; stroke:black; " description="&lt;b&gt;JNAJGP_08745&lt;/b&gt;&lt;br&gt;Acetyl-coenzyme A synthetase&lt;br&gt;Location: 1814692 - 1816363" locus_tag="JNAJGP_08745" class="clusterblast-orf" id="dummy-3_q11_0_all"  />
<polygon points="182,40 191,40 196,35 191,30 182,30 182,40 " style="fill:#d86f15; stroke-width:1; stroke:black; " description="&lt;b&gt;JNAJGP_08750&lt;/b&gt;&lt;br&gt;Glycosyl transferase&lt;br&gt;Location: 1816530 - 1817265" locus_tag="JNAJGP_08750" class="clusterblast-orf" id="dummy-3_q12_0_all"  />
<polygon points="196,40 209,40 214,35 209,30 196,30 196,40 " style="fill:#15d815; stroke-width:1; stroke:black; " description="&lt;b&gt;JNAJGP_08755&lt;/b&gt;&lt;br&gt;Glycosyl transferase&lt;br&gt;Location: 1817261 - 1818197" locus_tag="JNAJGP_08755" class="clusterblast-orf" id="dummy-3_q13_0_all"  />
<polygon points="214,40 239,40 244,35 239,30 214,30 214,40 " style="fill:#156fd8; stroke-width:1; stroke:black; " description="&lt;b&gt;JNAJGP_08760&lt;/b&gt;&lt;br&gt;Histidine ammonia-lyase&lt;br&gt;Location: 1818180 - 1819722" locus_tag="JNAJGP_08760" class="clusterblast-orf" id="dummy-3_q14_0_all"  />
<polygon points="243,40 247,40 252,35 247,30 243,30 243,40 " style="fill:#d815c9; stroke-width:1; stroke:black; " description="&lt;b&gt;JNAJGP_08765&lt;/b&gt;&lt;br&gt;Thioesterase domain-containing protein&lt;br&gt;Location: 1819714 - 1820140" locus_tag="JNAJGP_08765" class="clusterblast-orf" id="dummy-3_q15_0_all"  />
<polygon points="252,40 258,40 263,35 258,30 252,30 252,40 " style="fill:#d88d15; stroke-width:1; stroke:black; " description="&lt;b&gt;JNAJGP_08770&lt;/b&gt;&lt;br&gt;Outer membrane lipoprotein carrier protein LolA&lt;br&gt;Location: 1820136 - 1820727" locus_tag="JNAJGP_08770" class="clusterblast-orf" id="dummy-3_q16_0_all"  />
<polygon points="263,40 303,40 308,35 303,30 263,30 263,40 " style="fill:#15d833; stroke-width:1; stroke:black; " description="&lt;b&gt;JNAJGP_08775&lt;/b&gt;&lt;br&gt;Membrane transport protein MMPL domain-containing protein&lt;br&gt;Location: 1820716 - 1823029" locus_tag="JNAJGP_08775" class="clusterblast-orf" id="dummy-3_q17_0_all"  />
<polygon points="308,40 328,40 333,35 328,30 308,30 308,40 " style="fill:#1551d8; stroke-width:1; stroke:black; " description="&lt;b&gt;JNAJGP_08780&lt;/b&gt;&lt;br&gt;FAD-binding domain-containing protein&lt;br&gt;Location: 1823062 - 1824310" locus_tag="JNAJGP_08780" class="clusterblast-orf" id="dummy-3_q18_0_all"  />
<polygon points="333,40 342,40 347,35 342,30 333,30 333,40 " style="fill:#d815ab; stroke-width:1; stroke:black; " description="&lt;b&gt;JNAJGP_08785&lt;/b&gt;&lt;br&gt;Methyltransferase type 11 domain-containing protein&lt;br&gt;Location: 1824306 - 1825041" locus_tag="JNAJGP_08785" class="clusterblast-orf" id="dummy-3_q19_0_all"  />
<polygon points="347,40 351,40 356,35 351,30 347,30 347,40 " style="fill:#d8ab15; stroke-width:1; stroke:black; " description="&lt;b&gt;JNAJGP_08790&lt;/b&gt;&lt;br&gt;Lipoprotein&lt;br&gt;Location: 1825037 - 1825520" locus_tag="JNAJGP_08790" class="clusterblast-orf" id="dummy-3_q20_0_all"  />
<polygon points="356,40 374,40 379,35 374,30 356,30 356,40 " style="fill:#15d851; stroke-width:1; stroke:black; " description="&lt;b&gt;JNAJGP_08795&lt;/b&gt;&lt;br&gt;3-oxoacyl-(Acyl carrier protein) synthase&lt;br&gt;Location: 1825516 - 1826683" locus_tag="JNAJGP_08795" class="clusterblast-orf" id="dummy-3_q21_0_all"  />
<polygon points="379,40 383,40 388,35 383,30 379,30 379,40 " style="fill:#1533d8; stroke-width:1; stroke:black; " description="&lt;b&gt;JNAJGP_08800&lt;/b&gt;&lt;br&gt;3-hydroxydecanoyl-(ACP) dehydratase&lt;br&gt;Location: 1826679 - 1827141" locus_tag="JNAJGP_08800" class="clusterblast-orf" id="dummy-3_q22_0_all"  />
<polygon points="387,40 397,40 402,35 397,30 387,30 387,40 " style="fill:#d8158d; stroke-width:1; stroke:black; " description="&lt;b&gt;JNAJGP_08805&lt;/b&gt;&lt;br&gt;3-oxoacyl-ACP reductase FabG&lt;br&gt;Location: 1827137 - 1827866" locus_tag="JNAJGP_08805" class="clusterblast-orf" id="dummy-3_q23_0_all"  />
<polygon points="402,40 420,40 425,35 420,30 402,30 402,40 " style="fill:#d8c915; stroke-width:1; stroke:black; " description="&lt;b&gt;JNAJGP_08810&lt;/b&gt;&lt;br&gt;beta-ketoacyl-ACP synthase&lt;br&gt;Location: 1827865 - 1829092" locus_tag="JNAJGP_08810" class="clusterblast-orf" id="dummy-3_q24_0_all"  />
<polygon points="426,40 430,40 435,35 430,30 426,30 426,40 " style="fill:#15d86f; stroke-width:1; stroke:black; " description="&lt;b&gt;JNAJGP_08815&lt;/b&gt;&lt;br&gt;Lipoprotein&lt;br&gt;Location: 1829118 - 1829571" locus_tag="JNAJGP_08815" class="clusterblast-orf" id="dummy-3_q25_0_all"  />
<polygon points="439,35 444,30 446,30 446,40 444,40 439,35 " style="fill:#1515d8; stroke-width:1; stroke:black; " description="&lt;b&gt;JNAJGP_08820&lt;/b&gt;&lt;br&gt;Type II toxin-antitoxin system PemK/MazF family toxin&lt;br&gt;Location: 1829787 - 1830171" locus_tag="JNAJGP_08820" class="clusterblast-orf" id="dummy-3_q26_0_all"  />
<polygon points="448,35 453,30 465,30 465,40 453,40 448,35 " style="fill:#d8156f; stroke-width:1; stroke:black; " description="&lt;b&gt;JNAJGP_08825&lt;/b&gt;&lt;br&gt;HTH lysR-type domain-containing protein&lt;br&gt;Location: 1830258 - 1831152" locus_tag="JNAJGP_08825" class="clusterblast-orf" id="dummy-3_q27_0_all"  />
<polygon points="468,40 488,40 493,35 488,30 468,30 468,40 " style="fill:#c9d815; stroke-width:1; stroke:black; " description="&lt;b&gt;JNAJGP_08830&lt;/b&gt;&lt;br&gt;Major facilitator superfamily (MFS) profile domain-containing protein&lt;br&gt;Location: 1831274 - 1832549" locus_tag="JNAJGP_08830" class="clusterblast-orf" id="dummy-3_q28_0_all"  />
<polygon points="494,35 499,30 514,30 514,40 499,40 494,35 " style="fill:#15d88d; stroke-width:1; stroke:black; " description="&lt;b&gt;JNAJGP_08835&lt;/b&gt;&lt;br&gt;uroporphyrinogen decarboxylase&lt;br&gt;Location: 1832609 - 1833677" locus_tag="JNAJGP_08835" class="clusterblast-orf" id="dummy-3_q29_0_all"  />
<polygon points="519,35 524,30 547,30 547,40 524,40 519,35 " style="fill:#3315d8; stroke-width:1; stroke:black; " description="&lt;b&gt;JNAJGP_08840&lt;/b&gt;&lt;br&gt;NADPH-dependent glutamate synthase beta chain or related oxidoreductase&lt;br&gt;Location: 1833919 - 1835338" locus_tag="JNAJGP_08840" class="clusterblast-orf" id="dummy-3_q30_0_all"  />
<polygon points="547,35 552,30 634,30 634,40 552,40 547,35 " style="fill:#d81551; stroke-width:1; stroke:black; " description="&lt;b&gt;JNAJGP_08845&lt;/b&gt;&lt;br&gt;Glutamate synthase large subunit&lt;br&gt;Location: 1835370 - 1839816" locus_tag="JNAJGP_08845" class="clusterblast-orf" id="dummy-3_q31_0_all"  />
<polygon points="641,35 646,30 671,30 671,40 646,40 641,35 " style="fill:#abd815; stroke-width:1; stroke:black; " description="&lt;b&gt;JNAJGP_08850&lt;/b&gt;&lt;br&gt;General secretion pathway protein a&lt;br&gt;Location: 1840170 - 1841733" locus_tag="JNAJGP_08850" class="clusterblast-orf" id="dummy-3_q32_0_all"  />
<polygon points="671,35 676,30 692,30 692,40 676,40 671,35 " style="fill:#15d8ab; stroke-width:1; stroke:black; " description="&lt;b&gt;JNAJGP_08855&lt;/b&gt;&lt;br&gt;3-dehydroquinate synthase&lt;br&gt;Location: 1841743 - 1842844" locus_tag="JNAJGP_08855" class="clusterblast-orf" id="dummy-3_q33_0_all"  />
<polygon points="695,35 700,30 704,30 704,40 700,40 695,35 " style="fill:#5115d8; stroke-width:1; stroke:black; " description="&lt;b&gt;JNAJGP_08860&lt;/b&gt;&lt;br&gt;shikimate kinase AroK&lt;br&gt;Location: 1842959 - 1843451" locus_tag="JNAJGP_08860" class="clusterblast-orf" id="dummy-3_q34_0_all"  />
<polygon points="705,35 710,30 732,30 732,40 710,40 705,35 " style="fill:#d81533; stroke-width:1; stroke:black; " description="&lt;b&gt;JNAJGP_08865&lt;/b&gt;&lt;br&gt;Type IV fimbriae biogenesis protein&lt;br&gt;Location: 1843482 - 1844865" locus_tag="JNAJGP_08865" class="clusterblast-orf" id="dummy-3_q35_0_all"  />
<polygon points="732,35 737,30 751,30 751,40 737,40 732,35 " style="fill:#8dd815; stroke-width:1; stroke:black; " description="&lt;b&gt;JNAJGP_08870&lt;/b&gt;&lt;br&gt;Pilus assembly protein&lt;br&gt;Location: 1844878 - 1845850" locus_tag="JNAJGP_08870" class="clusterblast-orf" id="dummy-3_q36_0_all"  />
<polygon points="751,35 756,30 762,30 762,40 756,40 751,35 " style="fill:#15d8c9; stroke-width:1; stroke:black; " description="&lt;b&gt;JNAJGP_08875&lt;/b&gt;&lt;br&gt;Type IV pilus assembly protein&lt;br&gt;Location: 1845846 - 1846401" locus_tag="JNAJGP_08875" class="clusterblast-orf" id="dummy-3_q37_0_all"  />
<polygon points="761,35 766,30 774,30 774,40 766,40 761,35 " style="fill:#6f15d8; stroke-width:1; stroke:black; " description="&lt;b&gt;JNAJGP_08880&lt;/b&gt;&lt;br&gt;Type IV pilus assembly protein&lt;br&gt;Location: 1846397 - 1847051" locus_tag="JNAJGP_08880" class="clusterblast-orf" id="dummy-3_q38_0_all"  />
</g>
<g label="NZ_CP023969" description="NZ_CP023969 (1285219-1328795): Pseudomonas sp. FDAARGOS 380 chromosome, compl... (100% of genes show similarity), arylpolyene" class="clusterblast-cluster"  >
<text x="5" y="70" class="clusterblast-acc"  >
<a xlink:href="https://antismash-db.secondarymetabolites.org/area?record=NZ_CP023969&amp;start=1285219&amp;end=1328795" target="_blank">NZ_CP023969 (1285219-1328795)</a>: Pseudomonas sp. FDAARGOS 380 chromosome, compl... (100% of genes show similarity), arylpolyene</text>
<line x1="10" y1="85" x2="778.0" y2="85" style="stroke-width:1; stroke:grey; "  />
</g>
<g id="a3_000"  >
<polygon points="0,90 23,90 28,85 23,80 0,80 0,90 " style="fill:#d81515; stroke-width:1; stroke:black; " description="&lt;b&gt;CRN80_RS06150&lt;/b&gt;&lt;br&gt;YdiU family protein&lt;br&gt;Location: 1286620 - 1288083&lt;br&gt;&lt;br&gt;&lt;b&gt;BlastP hit with JNAJGP_08685&lt;/b&gt;&lt;br&gt;Percentage identity: 95&lt;br&gt;Percentage coverage: 100&lt;br&gt;BLAST bit score: 941&lt;br&gt;E-value: 0.0" locus_tag="CRN80_RS06150" class="clusterblast-orf" id="dummy-3_h3_4_0"  />
</g>
<g id="a3_001"  >
<polygon points="28,85 33,80 36,80 36,90 33,90 28,85 " style="fill:#6fd815; stroke-width:1; stroke:black; " description="&lt;b&gt;CRN80_RS06155&lt;/b&gt;&lt;br&gt;transcriptional regulator&lt;br&gt;Location: 1288088 - 1288489&lt;br&gt;&lt;br&gt;&lt;b&gt;BlastP hit with JNAJGP_08690&lt;/b&gt;&lt;br&gt;Percentage identity: 75&lt;br&gt;Percentage coverage: 100&lt;br&gt;BLAST bit score: 197&lt;br&gt;E-value: 1.56e-64" locus_tag="CRN80_RS06155" class="clusterblast-orf" id="dummy-3_h3_4_1"  />
</g>
<g id="a3_002"  >
<polygon points="36,85 41,80 41,80 41,90 41,90 36,85 " style="fill:#15c9d8; stroke-width:1; stroke:black; " description="&lt;b&gt;CRN80_RS06160&lt;/b&gt;&lt;br&gt;type II toxin-antitoxin system HigB family toxin&lt;br&gt;Location: 1288486 - 1288782&lt;br&gt;&lt;br&gt;&lt;b&gt;BlastP hit with JNAJGP_08695&lt;/b&gt;&lt;br&gt;Percentage identity: 70&lt;br&gt;Percentage coverage: 100&lt;br&gt;BLAST bit score: 141&lt;br&gt;E-value: 2.84e-43" locus_tag="CRN80_RS06160" class="clusterblast-orf" id="dummy-3_h3_4_2"  />
</g>
<g id="a3_003"  >
<polygon points="46,90 49,90 54,85 49,80 46,80 46,90 " style="fill:#8d15d8; stroke-width:1; stroke:black; " description="&lt;b&gt;CRN80_RS06165&lt;/b&gt;&lt;br&gt;thioredoxin TrxC&lt;br&gt;Location: 1288999 - 1289433&lt;br&gt;&lt;br&gt;&lt;b&gt;BlastP hit with JNAJGP_08700&lt;/b&gt;&lt;br&gt;Percentage identity: 98&lt;br&gt;Percentage coverage: 100&lt;br&gt;BLAST bit score: 298&lt;br&gt;E-value: 3.98e-104" locus_tag="CRN80_RS06165" class="clusterblast-orf" id="dummy-3_h3_4_3"  />
</g>
<g id="a3_004"  >
<polygon points="57,85 61,80 61,90 57,85 " style="fill:#d83315; stroke-width:1; stroke:black; " description="&lt;b&gt;CRN80_RS06170&lt;/b&gt;&lt;br&gt;DUF6124 family protein&lt;br&gt;Location: 1289565 - 1289777&lt;br&gt;&lt;br&gt;&lt;b&gt;BlastP hit with JNAJGP_08705&lt;/b&gt;&lt;br&gt;Percentage identity: 88&lt;br&gt;Percentage coverage: 90&lt;br&gt;BLAST bit score: 124&lt;br&gt;E-value: 2.17e-37" locus_tag="CRN80_RS06170" class="clusterblast-orf" id="dummy-3_h3_4_4"  />
</g>
<g id="a3_005"  >
<polygon points="78,85 83,80 93,80 93,90 83,90 78,85 " style="fill:#51d815; stroke-width:1; stroke:black; " description="&lt;b&gt;CRN80_RS06180&lt;/b&gt;&lt;br&gt;ParA family protein&lt;br&gt;Location: 1290663 - 1291433&lt;br&gt;&lt;br&gt;&lt;b&gt;BlastP hit with JNAJGP_08715&lt;/b&gt;&lt;br&gt;Percentage identity: 98&lt;br&gt;Percentage coverage: 100&lt;br&gt;BLAST bit score: 493&lt;br&gt;E-value: 2.05e-177" locus_tag="CRN80_RS06180" class="clusterblast-orf" id="dummy-3_h3_4_5"  />
</g>
<g id="a3_006"  >
<polygon points="99,90 108,90 113,85 108,80 99,80 99,90 " style="fill:#15abd8; stroke-width:1; stroke:black; " description="&lt;b&gt;CRN80_RS06185&lt;/b&gt;&lt;br&gt;beta-ketoacyl synthase chain length factor&lt;br&gt;Location: 1291749 - 1292468&lt;br&gt;&lt;br&gt;&lt;b&gt;BlastP hit with JNAJGP_08720&lt;/b&gt;&lt;br&gt;Percentage identity: 93&lt;br&gt;Percentage coverage: 100&lt;br&gt;BLAST bit score: 457&lt;br&gt;E-value: 1.19e-163" locus_tag="CRN80_RS06185" class="clusterblast-orf" id="dummy-3_h3_4_6"  />
</g>
<g id="a3_007"  >
<polygon points="113,90 123,90 128,85 123,80 113,80 113,90 " style="fill:#ab15d8; stroke-width:1; stroke:black; " description="&lt;b&gt;CRN80_RS06190&lt;/b&gt;&lt;br&gt;1-acyl-sn-glycerol-3-phosphate acyltransferase&lt;br&gt;Location: 1292444 - 1293256&lt;br&gt;&lt;br&gt;&lt;b&gt;BlastP hit with JNAJGP_08725&lt;/b&gt;&lt;br&gt;Percentage identity: 90&lt;br&gt;Percentage coverage: 100&lt;br&gt;BLAST bit score: 493&lt;br&gt;E-value: 4.24e-177" locus_tag="CRN80_RS06190" class="clusterblast-orf" id="dummy-3_h3_4_7"  />
</g>
<g id="a3_008"  >
<polygon points="128,90 128,90 133,85 128,80 128,80 128,90 " style="fill:#d85115; stroke-width:1; stroke:black; " description="&lt;b&gt;CRN80_RS06195&lt;/b&gt;&lt;br&gt;phosphopantetheine-binding protein&lt;br&gt;Location: 1293234 - 1293503&lt;br&gt;&lt;br&gt;&lt;b&gt;BlastP hit with JNAJGP_08730&lt;/b&gt;&lt;br&gt;Percentage identity: 94&lt;br&gt;Percentage coverage: 100&lt;br&gt;BLAST bit score: 161&lt;br&gt;E-value: 1.4e-51" locus_tag="CRN80_RS06195" class="clusterblast-orf" id="dummy-3_h3_4_8"  />
</g>
<g id="a3_009"  >
<polygon points="133,90 133,90 138,85 133,80 133,80 133,90 " style="fill:#33d815; stroke-width:1; stroke:black; " description="&lt;b&gt;CRN80_RS06200&lt;/b&gt;&lt;br&gt;acyl carrier protein&lt;br&gt;Location: 1293513 - 1293767&lt;br&gt;&lt;br&gt;&lt;b&gt;BlastP hit with JNAJGP_08735&lt;/b&gt;&lt;br&gt;Percentage identity: 99&lt;br&gt;Percentage coverage: 100&lt;br&gt;BLAST bit score: 158&lt;br&gt;E-value: 2.3e-50" locus_tag="CRN80_RS06200" class="clusterblast-orf" id="dummy-3_h3_4_9"  />
</g>
<g id="a3_0010"  >
<polygon points="138,90 144,90 149,85 144,80 138,80 138,90 " style="fill:#158dd8; stroke-width:1; stroke:black; " description="&lt;b&gt;CRN80_RS06205&lt;/b&gt;&lt;br&gt;membrane protein&lt;br&gt;Location: 1293764 - 1294309&lt;br&gt;&lt;br&gt;&lt;b&gt;BlastP hit with JNAJGP_08740&lt;/b&gt;&lt;br&gt;Percentage identity: 94&lt;br&gt;Percentage coverage: 100&lt;br&gt;BLAST bit score: 349&lt;br&gt;E-value: 4.85e-123" locus_tag="CRN80_RS06205" class="clusterblast-orf" id="dummy-3_h3_4_10"  />
</g>
<g id="a3_0011"  >
<polygon points="149,90 176,90 181,85 176,80 149,80 149,90 " style="fill:#c915d8; stroke-width:1; stroke:black; " description="&lt;b&gt;CRN80_RS06210&lt;/b&gt;&lt;br&gt;acyl-CoA synthetase family protein&lt;br&gt;Location: 1294306 - 1295976&lt;br&gt;&lt;br&gt;&lt;b&gt;BlastP hit with JNAJGP_08745&lt;/b&gt;&lt;br&gt;Percentage identity: 90&lt;br&gt;Percentage coverage: 100&lt;br&gt;BLAST bit score: 998&lt;br&gt;E-value: 0.0" locus_tag="CRN80_RS06210" class="clusterblast-orf" id="dummy-3_h3_4_11"  />
</g>
<g id="a3_0012"  >
<polygon points="184,90 193,90 198,85 193,80 184,80 184,90 " style="fill:#d86f15; stroke-width:1; stroke:black; " description="&lt;b&gt;CRN80_RS06215&lt;/b&gt;&lt;br&gt;glycosyltransferase family 2 protein&lt;br&gt;Location: 1296126 - 1296860&lt;br&gt;&lt;br&gt;&lt;b&gt;BlastP hit with JNAJGP_08750&lt;/b&gt;&lt;br&gt;Percentage identity: 91&lt;br&gt;Percentage coverage: 100&lt;br&gt;BLAST bit score: 470&lt;br&gt;E-value: 1.14e-168" locus_tag="CRN80_RS06215" class="clusterblast-orf" id="dummy-3_h3_4_12"  />
</g>
<g id="a3_0013"  >
<polygon points="198,90 211,90 216,85 211,80 198,80 198,90 " style="fill:#15d815; stroke-width:1; stroke:black; " description="&lt;b&gt;CRN80_RS06220&lt;/b&gt;&lt;br&gt;glycosyl transferase&lt;br&gt;Location: 1296857 - 1297792&lt;br&gt;&lt;br&gt;&lt;b&gt;BlastP hit with JNAJGP_08755&lt;/b&gt;&lt;br&gt;Percentage identity: 89&lt;br&gt;Percentage coverage: 100&lt;br&gt;BLAST bit score: 574&lt;br&gt;E-value: 9.86e-208" locus_tag="CRN80_RS06220" class="clusterblast-orf" id="dummy-3_h3_4_13"  />
</g>
<g id="a3_0014"  >
<polygon points="216,90 241,90 246,85 241,80 216,80 216,90 " style="fill:#156fd8; stroke-width:1; stroke:black; " description="&lt;b&gt;CRN80_RS06225&lt;/b&gt;&lt;br&gt;aromatic amino acid ammonia-lyase&lt;br&gt;Location: 1297776 - 1299317&lt;br&gt;&lt;br&gt;&lt;b&gt;BlastP hit with JNAJGP_08760&lt;/b&gt;&lt;br&gt;Percentage identity: 97&lt;br&gt;Percentage coverage: 100&lt;br&gt;BLAST bit score: 981&lt;br&gt;E-value: 0.0" locus_tag="CRN80_RS06225" class="clusterblast-orf" id="dummy-3_h3_4_14"  />
</g>
<g id="a3_0015"  >
<polygon points="246,90 249,90 254,85 249,80 246,80 246,90 " style="fill:#d815c9; stroke-width:1; stroke:black; " description="&lt;b&gt;CRN80_RS06230&lt;/b&gt;&lt;br&gt;acyl-CoA thioesterase&lt;br&gt;Location: 1299310 - 1299735&lt;br&gt;&lt;br&gt;&lt;b&gt;BlastP hit with JNAJGP_08765&lt;/b&gt;&lt;br&gt;Percentage identity: 99&lt;br&gt;Percentage coverage: 99&lt;br&gt;BLAST bit score: 276&lt;br&gt;E-value: 1.57e-95" locus_tag="CRN80_RS06230" class="clusterblast-orf" id="dummy-3_h3_4_15"  />
</g>
<g id="a3_0016"  >
<polygon points="254,90 262,90 267,85 262,80 254,80 254,90 " style="fill:#d88d15; stroke-width:1; stroke:black; " description="&lt;b&gt;CRN80_RS06235&lt;/b&gt;&lt;br&gt;outer membrane lipoprotein carrier protein LolA&lt;br&gt;Location: 1299732 - 1300415&lt;br&gt;&lt;br&gt;&lt;b&gt;BlastP hit with JNAJGP_08770&lt;/b&gt;&lt;br&gt;Percentage identity: 93&lt;br&gt;Percentage coverage: 96&lt;br&gt;BLAST bit score: 343&lt;br&gt;E-value: 8.69e-120" locus_tag="CRN80_RS06235" class="clusterblast-orf" id="dummy-3_h3_4_16"  />
</g>
<g id="a3_0017"  >
<polygon points="267,90 307,90 312,85 307,80 267,80 267,90 " style="fill:#15d833; stroke-width:1; stroke:black; " description="&lt;b&gt;CRN80_RS06240&lt;/b&gt;&lt;br&gt;MMPL family transporter&lt;br&gt;Location: 1300387 - 1302717&lt;br&gt;&lt;br&gt;&lt;b&gt;BlastP hit with JNAJGP_08775&lt;/b&gt;&lt;br&gt;Percentage identity: 93&lt;br&gt;Percentage coverage: 100&lt;br&gt;BLAST bit score: 1351&lt;br&gt;E-value: 0.0" locus_tag="CRN80_RS06240" class="clusterblast-orf" id="dummy-3_h3_4_17"  />
</g>
<g id="a3_0018"  >
<polygon points="313,90 332,90 337,85 332,80 313,80 313,90 " style="fill:#1551d8; stroke-width:1; stroke:black; " description="&lt;b&gt;CRN80_RS06245&lt;/b&gt;&lt;br&gt;tryptophan 7-halogenase&lt;br&gt;Location: 1302751 - 1303998&lt;br&gt;&lt;br&gt;&lt;b&gt;BlastP hit with JNAJGP_08780&lt;/b&gt;&lt;br&gt;Percentage identity: 94&lt;br&gt;Percentage coverage: 100&lt;br&gt;BLAST bit score: 799&lt;br&gt;E-value: 4.48e-293" locus_tag="CRN80_RS06245" class="clusterblast-orf" id="dummy-3_h3_4_18"  />
</g>
<g id="a3_0019"  >
<polygon points="337,90 346,90 351,85 346,80 337,80 337,90 " style="fill:#d815ab; stroke-width:1; stroke:black; " description="&lt;b&gt;CRN80_RS06250&lt;/b&gt;&lt;br&gt;class I SAM-dependent methyltransferase&lt;br&gt;Location: 1303995 - 1304744&lt;br&gt;&lt;br&gt;&lt;b&gt;BlastP hit with JNAJGP_08785&lt;/b&gt;&lt;br&gt;Percentage identity: 88&lt;br&gt;Percentage coverage: 98&lt;br&gt;BLAST bit score: 449&lt;br&gt;E-value: 1.64e-160" locus_tag="CRN80_RS06250" class="clusterblast-orf" id="dummy-3_h3_4_19"  />
</g>
<g id="a3_0020"  >
<polygon points="351,90 356,90 361,85 356,80 351,80 351,90 " style="fill:#d8ab15; stroke-width:1; stroke:black; " description="&lt;b&gt;CRN80_RS06255&lt;/b&gt;&lt;br&gt;hypothetical protein&lt;br&gt;Location: 1304741 - 1305223&lt;br&gt;&lt;br&gt;&lt;b&gt;BlastP hit with JNAJGP_08790&lt;/b&gt;&lt;br&gt;Percentage identity: 83&lt;br&gt;Percentage coverage: 100&lt;br&gt;BLAST bit score: 262&lt;br&gt;E-value: 2.84e-89" locus_tag="CRN80_RS06255" class="clusterblast-orf" id="dummy-3_h3_4_20"  />
</g>
<g id="a3_0021"  >
<polygon points="361,90 378,90 383,85 378,80 361,80 361,90 " style="fill:#15d851; stroke-width:1; stroke:black; " description="&lt;b&gt;CRN80_RS06260&lt;/b&gt;&lt;br&gt;beta-ketoacyl-[acyl-carrier-protein] synthase family protein&lt;br&gt;Location: 1305220 - 1306386&lt;br&gt;&lt;br&gt;&lt;b&gt;BlastP hit with JNAJGP_08795&lt;/b&gt;&lt;br&gt;Percentage identity: 86&lt;br&gt;Percentage coverage: 100&lt;br&gt;BLAST bit score: 664&lt;br&gt;E-value: 8.29e-241" locus_tag="CRN80_RS06260" class="clusterblast-orf" id="dummy-3_h3_4_21"  />
</g>
<g id="a3_0022"  >
<polygon points="383,90 387,90 392,85 387,80 383,80 383,90 " style="fill:#1533d8; stroke-width:1; stroke:black; " description="&lt;b&gt;CRN80_RS06265&lt;/b&gt;&lt;br&gt;hotdog family protein&lt;br&gt;Location: 1306383 - 1306844&lt;br&gt;&lt;br&gt;&lt;b&gt;BlastP hit with JNAJGP_08800&lt;/b&gt;&lt;br&gt;Percentage identity: 91&lt;br&gt;Percentage coverage: 99&lt;br&gt;BLAST bit score: 285&lt;br&gt;E-value: 2.42e-98" locus_tag="CRN80_RS06265" class="clusterblast-orf" id="dummy-3_h3_4_22"  />
</g>
<g id="a3_0023"  >
<polygon points="392,90 401,90 406,85 401,80 392,80 392,90 " style="fill:#d8158d; stroke-width:1; stroke:black; " description="&lt;b&gt;CRN80_RS06270&lt;/b&gt;&lt;br&gt;3-oxoacyl-ACP reductase FabG&lt;br&gt;Location: 1306841 - 1307569&lt;br&gt;&lt;br&gt;&lt;b&gt;BlastP hit with JNAJGP_08805&lt;/b&gt;&lt;br&gt;Percentage identity: 98&lt;br&gt;Percentage coverage: 100&lt;br&gt;BLAST bit score: 460&lt;br&gt;E-value: 9e-165" locus_tag="CRN80_RS06270" class="clusterblast-orf" id="dummy-3_h3_4_23"  />
</g>
<g id="a3_0024"  >
<polygon points="406,90 425,90 430,85 425,80 406,80 406,90 " style="fill:#d8c915; stroke-width:1; stroke:black; " description="&lt;b&gt;CRN80_RS06275&lt;/b&gt;&lt;br&gt;beta-ketoacyl-ACP synthase&lt;br&gt;Location: 1307569 - 1308795&lt;br&gt;&lt;br&gt;&lt;b&gt;BlastP hit with JNAJGP_08810&lt;/b&gt;&lt;br&gt;Percentage identity: 98&lt;br&gt;Percentage coverage: 100&lt;br&gt;BLAST bit score: 808&lt;br&gt;E-value: 8.08e-297" locus_tag="CRN80_RS06275" class="clusterblast-orf" id="dummy-3_h3_4_24"  />
</g>
<g id="a3_0025"  >
<polygon points="431,90 433,90 438,85 433,80 431,80 431,90 " style="fill:#15d86f; stroke-width:1; stroke:black; " description="&lt;b&gt;CRN80_RS06280&lt;/b&gt;&lt;br&gt;hypothetical protein&lt;br&gt;Location: 1308822 - 1309217&lt;br&gt;&lt;br&gt;&lt;b&gt;BlastP hit with JNAJGP_08815&lt;/b&gt;&lt;br&gt;Percentage identity: 89&lt;br&gt;Percentage coverage: 87&lt;br&gt;BLAST bit score: 216&lt;br&gt;E-value: 1.4e-71" locus_tag="CRN80_RS06280" class="clusterblast-orf" id="dummy-3_h3_4_25"  />
</g>
<g id="a3_0026"  >
<polygon points="442,85 447,80 450,80 450,90 447,90 442,85 " style="fill:#1515d8; stroke-width:1; stroke:black; " description="&lt;b&gt;CRN80_RS06285&lt;/b&gt;&lt;br&gt;type II toxin-antitoxin system PemK/MazF family toxin&lt;br&gt;Location: 1309420 - 1309806&lt;br&gt;&lt;br&gt;&lt;b&gt;BlastP hit with JNAJGP_08820&lt;/b&gt;&lt;br&gt;Percentage identity: 91&lt;br&gt;Percentage coverage: 100&lt;br&gt;BLAST bit score: 232&lt;br&gt;E-value: 2.81e-78" locus_tag="CRN80_RS06285" class="clusterblast-orf" id="dummy-3_h3_4_26"  />
</g>
<g id="a3_0027"  >
<polygon points="451,85 456,80 469,80 469,90 456,90 451,85 " style="fill:#d8156f; stroke-width:1; stroke:black; " description="&lt;b&gt;CRN80_RS06290&lt;/b&gt;&lt;br&gt;LysR family transcriptional regulator&lt;br&gt;Location: 1309894 - 1310787&lt;br&gt;&lt;br&gt;&lt;b&gt;BlastP hit with JNAJGP_08825&lt;/b&gt;&lt;br&gt;Percentage identity: 94&lt;br&gt;Percentage coverage: 100&lt;br&gt;BLAST bit score: 530&lt;br&gt;E-value: 1.6e-190" locus_tag="CRN80_RS06290" class="clusterblast-orf" id="dummy-3_h3_4_27"  />
</g>
<g id="a3_0028"  >
<polygon points="471,90 491,90 496,85 491,80 471,80 471,90 " style="fill:#c9d815; stroke-width:1; stroke:black; " description="&lt;b&gt;CRN80_RS06295&lt;/b&gt;&lt;br&gt;MFS transporter&lt;br&gt;Location: 1310912 - 1312186&lt;br&gt;&lt;br&gt;&lt;b&gt;BlastP hit with JNAJGP_08830&lt;/b&gt;&lt;br&gt;Percentage identity: 93&lt;br&gt;Percentage coverage: 100&lt;br&gt;BLAST bit score: 749&lt;br&gt;E-value: 2.88e-273" locus_tag="CRN80_RS06295" class="clusterblast-orf" id="dummy-3_h3_4_28"  />
</g>
<g id="a3_0029"  >
<polygon points="499,85 504,80 520,80 520,90 504,90 499,85 " style="fill:#15d88d; stroke-width:1; stroke:black; " description="&lt;b&gt;CRN80_RS06300&lt;/b&gt;&lt;br&gt;uroporphyrinogen decarboxylase&lt;br&gt;Location: 1312342 - 1313409&lt;br&gt;&lt;br&gt;&lt;b&gt;BlastP hit with JNAJGP_08835&lt;/b&gt;&lt;br&gt;Percentage identity: 99&lt;br&gt;Percentage coverage: 100&lt;br&gt;BLAST bit score: 711&lt;br&gt;E-value: 3.31e-260" locus_tag="CRN80_RS06300" class="clusterblast-orf" id="dummy-3_h3_4_29"  />
</g>
<g id="a3_0030"  >
<polygon points="524,85 529,80 552,80 552,90 529,90 524,85 " style="fill:#3315d8; stroke-width:1; stroke:black; " description="&lt;b&gt;CRN80_RS06305&lt;/b&gt;&lt;br&gt;FAD-dependent oxidoreductase&lt;br&gt;Location: 1313636 - 1315054&lt;br&gt;&lt;br&gt;&lt;b&gt;BlastP hit with JNAJGP_08840&lt;/b&gt;&lt;br&gt;Percentage identity: 99&lt;br&gt;Percentage coverage: 100&lt;br&gt;BLAST bit score: 951&lt;br&gt;E-value: 0.0" locus_tag="CRN80_RS06305" class="clusterblast-orf" id="dummy-3_h3_4_30"  />
</g>
<g id="a3_0031"  >
<polygon points="552,85 557,80 639,80 639,90 557,90 552,85 " style="fill:#d81551; stroke-width:1; stroke:black; " description="&lt;b&gt;CRN80_RS06310&lt;/b&gt;&lt;br&gt;glutamate synthase large subunit&lt;br&gt;Location: 1315087 - 1319532&lt;br&gt;&lt;br&gt;&lt;b&gt;BlastP hit with JNAJGP_08845&lt;/b&gt;&lt;br&gt;Percentage identity: 98&lt;br&gt;Percentage coverage: 100&lt;br&gt;BLAST bit score: 2843&lt;br&gt;E-value: 0.0" locus_tag="CRN80_RS06310" class="clusterblast-orf" id="dummy-3_h3_4_31"  />
</g>
<g id="a3_0032"  >
<polygon points="645,85 650,80 676,80 676,90 650,90 645,85 " style="fill:#abd815; stroke-width:1; stroke:black; " description="&lt;b&gt;CRN80_RS06320&lt;/b&gt;&lt;br&gt;SPOR domain-containing protein&lt;br&gt;Location: 1319885 - 1321462&lt;br&gt;&lt;br&gt;&lt;b&gt;BlastP hit with JNAJGP_08850&lt;/b&gt;&lt;br&gt;Percentage identity: 92&lt;br&gt;Percentage coverage: 101&lt;br&gt;BLAST bit score: 844&lt;br&gt;E-value: 2.77e-307" locus_tag="CRN80_RS06320" class="clusterblast-orf" id="dummy-3_h3_4_32"  />
</g>
<g id="a3_0033"  >
<polygon points="676,85 681,80 698,80 698,90 681,90 676,85 " style="fill:#15d8ab; stroke-width:1; stroke:black; " description="&lt;b&gt;CRN80_RS06325&lt;/b&gt;&lt;br&gt;3-dehydroquinate synthase&lt;br&gt;Location: 1321472 - 1322572&lt;br&gt;&lt;br&gt;&lt;b&gt;BlastP hit with JNAJGP_08855&lt;/b&gt;&lt;br&gt;Percentage identity: 97&lt;br&gt;Percentage coverage: 100&lt;br&gt;BLAST bit score: 705&lt;br&gt;E-value: 1.07e-257" locus_tag="CRN80_RS06325" class="clusterblast-orf" id="dummy-3_h3_4_33"  />
</g>
<g id="a3_0034"  >
<polygon points="700,85 705,80 710,80 710,90 705,90 700,85 " style="fill:#5115d8; stroke-width:1; stroke:black; " description="&lt;b&gt;CRN80_RS06330&lt;/b&gt;&lt;br&gt;shikimate kinase AroK&lt;br&gt;Location: 1322699 - 1323217&lt;br&gt;&lt;br&gt;&lt;b&gt;BlastP hit with JNAJGP_08860&lt;/b&gt;&lt;br&gt;Percentage identity: 99&lt;br&gt;Percentage coverage: 100&lt;br&gt;BLAST bit score: 315&lt;br&gt;E-value: 4.45e-110" locus_tag="CRN80_RS06330" class="clusterblast-orf" id="dummy-3_h3_4_34"  />
</g>
<g id="a3_0035"  >
<polygon points="710,85 715,80 736,80 736,90 715,90 710,85 " style="fill:#d81533; stroke-width:1; stroke:black; " description="&lt;b&gt;CRN80_RS06335&lt;/b&gt;&lt;br&gt;type IV pilus secretin PilQ family protein&lt;br&gt;Location: 1323222 - 1324547&lt;br&gt;&lt;br&gt;&lt;b&gt;BlastP hit with JNAJGP_08865&lt;/b&gt;&lt;br&gt;Percentage identity: 90&lt;br&gt;Percentage coverage: 96&lt;br&gt;BLAST bit score: 753&lt;br&gt;E-value: 9.67e-274" locus_tag="CRN80_RS06335" class="clusterblast-orf" id="dummy-3_h3_4_35"  />
</g>
<g id="a3_0036"  >
<polygon points="737,85 742,80 756,80 756,90 742,90 737,85 " style="fill:#8dd815; stroke-width:1; stroke:black; " description="&lt;b&gt;CRN80_RS06340&lt;/b&gt;&lt;br&gt;pilus assembly protein PilP&lt;br&gt;Location: 1324617 - 1325588&lt;br&gt;&lt;br&gt;&lt;b&gt;BlastP hit with JNAJGP_08870&lt;/b&gt;&lt;br&gt;Percentage identity: 61&lt;br&gt;Percentage coverage: 100&lt;br&gt;BLAST bit score: 377&lt;br&gt;E-value: 2.85e-129" locus_tag="CRN80_RS06340" class="clusterblast-orf" id="dummy-3_h3_4_36"  />
</g>
<g id="a3_0037"  >
<polygon points="756,85 761,80 767,80 767,90 761,90 756,85 " style="fill:#15d8c9; stroke-width:1; stroke:black; " description="&lt;b&gt;CRN80_RS06345&lt;/b&gt;&lt;br&gt;PilN domain-containing protein&lt;br&gt;Location: 1325585 - 1326136&lt;br&gt;&lt;br&gt;&lt;b&gt;BlastP hit with JNAJGP_08875&lt;/b&gt;&lt;br&gt;Percentage identity: 78&lt;br&gt;Percentage coverage: 99&lt;br&gt;BLAST bit score: 266&lt;br&gt;E-value: 4.83e-90" locus_tag="CRN80_RS06345" class="clusterblast-orf" id="dummy-3_h3_4_37"  />
</g>
<g id="a3_0038"  >
<polygon points="767,85 772,80 780,80 780,90 772,90 767,85 " style="fill:#6f15d8; stroke-width:1; stroke:black; " description="&lt;b&gt;CRN80_RS06350&lt;/b&gt;&lt;br&gt;type IV pilus assembly protein PilM&lt;br&gt;Location: 1326133 - 1326789&lt;br&gt;&lt;br&gt;&lt;b&gt;BlastP hit with JNAJGP_08880&lt;/b&gt;&lt;br&gt;Percentage identity: 71&lt;br&gt;Percentage coverage: 100&lt;br&gt;BLAST bit score: 294&lt;br&gt;E-value: 6.39e-100" locus_tag="CRN80_RS06350" class="clusterblast-orf" id="dummy-3_h3_4_38"  />
</g>
</svg>
