<svg xmlns="http://www.w3.org/2000/svg" xmlns:xlink="http://www.w3.org/1999/xlink" version="1.1" x="0" y="0" height="230" width="800" viewBox="0 0 800 230" preserveAspectRatio="none"  >
<g label="Query sequence" class="clusterblast-cluster"  >
<text x="5" y="20" class="clusterblast-acc"  >
Query sequence</text>
<line x1="10" y1="35" x2="778.0" y2="35" style="stroke-width:1; stroke:grey; "  />
<polygon points="2,40 79,40 84,35 79,30 2,30 2,40 " style="fill:#d81515; stroke-width:1; stroke:black; " description="&lt;b&gt;JNAJGP_11390&lt;/b&gt;&lt;br&gt;Protein HflC&lt;br&gt;Location: 2434299 - 2435289" locus_tag="JNAJGP_11390" class="clusterblast-orf" id="dummy-5_q0_0_all"  />
<polygon points="83,40 164,40 169,35 164,30 83,30 83,40 " style="fill:#15d815; stroke-width:1; stroke:black; " description="&lt;b&gt;JNAJGP_11395&lt;/b&gt;&lt;br&gt;Modulator of FtsH protease HflK&lt;br&gt;Location: 2435285 - 2436320" locus_tag="JNAJGP_11395" class="clusterblast-orf" id="dummy-5_q1_0_all"  />
<polygon points="169,40 319,40 324,35 319,30 169,30 169,40 " style="fill:#1597d8; stroke-width:1; stroke:black; " description="&lt;b&gt;JNAJGP_11400&lt;/b&gt;&lt;br&gt;Cadmium-translocating P-type ATPase&lt;br&gt;Location: 2436316 - 2438203" locus_tag="JNAJGP_11400" class="clusterblast-orf" id="dummy-5_q2_0_all"  />
<polygon points="334,40 350,40 355,35 350,30 334,30 334,40 " style="fill:#9715d8; stroke-width:1; stroke:black; " description="&lt;b&gt;JNAJGP_11405&lt;/b&gt;&lt;br&gt;Integral membrane protein&lt;br&gt;Location: 2438320 - 2438572" locus_tag="JNAJGP_11405" class="clusterblast-orf" id="dummy-5_q3_0_all"  />
<polygon points="360,40 425,40 430,35 425,30 360,30 360,40 " style="fill:#d89715; stroke-width:1; stroke:black; " description="&lt;b&gt;JNAJGP_11410&lt;/b&gt;&lt;br&gt;UPF0276 protein BW43 00573&lt;br&gt;Location: 2438638 - 2439484" locus_tag="JNAJGP_11410" class="clusterblast-orf" id="dummy-5_q4_0_all"  />
<polygon points="429,40 490,40 495,35 490,30 429,30 429,40 " style="fill:#15d897; stroke-width:1; stroke:black; " description="&lt;b&gt;JNAJGP_11415&lt;/b&gt;&lt;br&gt;DUF2063 domain-containing protein&lt;br&gt;Location: 2439474 - 2440263" locus_tag="JNAJGP_11415" class="clusterblast-orf" id="dummy-5_q5_0_all"  />
<polygon points="502,40 595,40 600,35 595,30 502,30 502,40 " style="fill:#1515d8; stroke-width:1; stroke:black; " description="&lt;b&gt;JNAJGP_11420&lt;/b&gt;&lt;br&gt;C17 cyclopropane fatty acid synthase CfaB&lt;br&gt;Location: 2440350 - 2441535" locus_tag="JNAJGP_11420" class="clusterblast-orf" id="dummy-5_q6_0_all"  />
<polygon points="606,35 611,30 725,30 725,40 611,40 606,35 " style="fill:#d81597; stroke-width:1; stroke:black; " description="&lt;b&gt;JNAJGP_11425&lt;/b&gt;&lt;br&gt;cardiolipin synthase&lt;br&gt;Location: 2441609 - 2443049" locus_tag="JNAJGP_11425" class="clusterblast-orf" id="dummy-5_q7_0_all"  />
<polygon points="735,40 774,40 779,35 774,30 735,30 735,40 " style="fill:#97d815; stroke-width:1; stroke:black; " description="&lt;b&gt;JNAJGP_11430&lt;/b&gt;&lt;br&gt;DUF3617 domain-containing protein&lt;br&gt;Location: 2443180 - 2443702" locus_tag="JNAJGP_11430" class="clusterblast-orf" id="dummy-5_q8_0_all"  />
</g>
<g label="NZ_CABVGU010000001" description="NZ_CABVGU010000001 (517632-528478): Pseudomonas fluorescens isolate PS664, wh... (100% of genes show similarity), RiPP-like" class="clusterblast-cluster"  >
<text x="5" y="70" class="clusterblast-acc"  >
<a xlink:href="https://antismash-db.secondarymetabolites.org/area?record=NZ_CABVGU010000001&amp;start=517632&amp;end=528478" target="_blank">NZ_CABVGU010000001 (517632-528478)</a>: Pseudomonas fluorescens isolate PS664, wh... (100% of genes show similarity), RiPP-like</text>
<line x1="10" y1="85" x2="778.0" y2="85" style="stroke-width:1; stroke:grey; "  />
</g>
<g id="a5_000"  >
<polygon points="0,90 77,90 82,85 77,80 0,80 0,90 " style="fill:#d81515; stroke-width:1; stroke:black; " description="&lt;b&gt;F8N47_RS02495&lt;/b&gt;&lt;br&gt;protease modulator HflC&lt;br&gt;Location: 527828 - 526827&lt;br&gt;&lt;br&gt;&lt;b&gt;BlastP hit with JNAJGP_11390&lt;/b&gt;&lt;br&gt;Percentage identity: 98&lt;br&gt;Percentage coverage: 94&lt;br&gt;BLAST bit score: 514&lt;br&gt;E-value: 3.72e-183" locus_tag="F8N47_RS02495" class="clusterblast-orf" id="dummy-5_h5_5_0"  />
</g>
<g id="a5_001"  >
<polygon points="82,90 162,90 167,85 162,80 82,80 82,90 " style="fill:#15d815; stroke-width:1; stroke:black; " description="&lt;b&gt;F8N47_RS02490&lt;/b&gt;&lt;br&gt;protease modulator HflK&lt;br&gt;Location: 526830 - 525796&lt;br&gt;&lt;br&gt;&lt;b&gt;BlastP hit with JNAJGP_11395&lt;/b&gt;&lt;br&gt;Percentage identity: 97&lt;br&gt;Percentage coverage: 100&lt;br&gt;BLAST bit score: 552&lt;br&gt;E-value: 8.48e-198" locus_tag="F8N47_RS02490" class="clusterblast-orf" id="dummy-5_h5_5_1"  />
</g>
<g id="a5_002"  >
<polygon points="167,90 318,90 323,85 318,80 167,80 167,90 " style="fill:#1597d8; stroke-width:1; stroke:black; " description="&lt;b&gt;F8N47_RS02485&lt;/b&gt;&lt;br&gt;cation-translocating P-type ATPase&lt;br&gt;Location: 525799 - 523913&lt;br&gt;&lt;br&gt;&lt;b&gt;BlastP hit with JNAJGP_11400&lt;/b&gt;&lt;br&gt;Percentage identity: 97&lt;br&gt;Percentage coverage: 100&lt;br&gt;BLAST bit score: 1075&lt;br&gt;E-value: 0.0" locus_tag="F8N47_RS02485" class="clusterblast-orf" id="dummy-5_h5_5_2"  />
</g>
<g id="a5_003"  >
<polygon points="333,90 348,90 353,85 348,80 333,80 333,90 " style="fill:#9715d8; stroke-width:1; stroke:black; " description="&lt;b&gt;F8N47_RS02480&lt;/b&gt;&lt;br&gt;hypothetical protein&lt;br&gt;Location: 523795 - 523544&lt;br&gt;&lt;br&gt;&lt;b&gt;BlastP hit with JNAJGP_11405&lt;/b&gt;&lt;br&gt;Percentage identity: 89&lt;br&gt;Percentage coverage: 100&lt;br&gt;BLAST bit score: 88&lt;br&gt;E-value: 1.72e-22" locus_tag="F8N47_RS02480" class="clusterblast-orf" id="dummy-5_h5_5_3"  />
</g>
<g id="a5_004"  >
<polygon points="359,90 424,90 429,85 424,80 359,80 359,90 " style="fill:#d89715; stroke-width:1; stroke:black; " description="&lt;b&gt;F8N47_RS02475&lt;/b&gt;&lt;br&gt;DUF692 domain-containing protein&lt;br&gt;Location: 523478 - 522633&lt;br&gt;&lt;br&gt;&lt;b&gt;BlastP hit with JNAJGP_11410&lt;/b&gt;&lt;br&gt;Percentage identity: 96&lt;br&gt;Percentage coverage: 100&lt;br&gt;BLAST bit score: 560&lt;br&gt;E-value: 4.22e-203" locus_tag="F8N47_RS02475" class="clusterblast-orf" id="dummy-5_h5_5_4"  />
</g>
<g id="a5_005"  >
<polygon points="428,90 488,90 493,85 488,80 428,80 428,90 " style="fill:#15d897; stroke-width:1; stroke:black; " description="&lt;b&gt;F8N47_RS02470&lt;/b&gt;&lt;br&gt;DNA-binding domain-containing protein&lt;br&gt;Location: 522642 - 521854&lt;br&gt;&lt;br&gt;&lt;b&gt;BlastP hit with JNAJGP_11415&lt;/b&gt;&lt;br&gt;Percentage identity: 84&lt;br&gt;Percentage coverage: 100&lt;br&gt;BLAST bit score: 457&lt;br&gt;E-value: 3.42e-163" locus_tag="F8N47_RS02470" class="clusterblast-orf" id="dummy-5_h5_5_5"  />
</g>
<g id="a5_006"  >
<polygon points="500,90 593,90 598,85 593,80 500,80 500,90 " style="fill:#1515d8; stroke-width:1; stroke:black; " description="&lt;b&gt;F8N47_RS02465&lt;/b&gt;&lt;br&gt;C17 cyclopropane fatty acid synthase CfaB&lt;br&gt;Location: 521767 - 520583&lt;br&gt;&lt;br&gt;&lt;b&gt;BlastP hit with JNAJGP_11420&lt;/b&gt;&lt;br&gt;Percentage identity: 97&lt;br&gt;Percentage coverage: 100&lt;br&gt;BLAST bit score: 776&lt;br&gt;E-value: 1.21e-284" locus_tag="F8N47_RS02465" class="clusterblast-orf" id="dummy-5_h5_5_6"  />
</g>
<g id="a5_007"  >
<polygon points="607,85 612,80 726,80 726,90 612,90 607,85 " style="fill:#d81597; stroke-width:1; stroke:black; " description="&lt;b&gt;F8N47_RS02460&lt;/b&gt;&lt;br&gt;cardiolipin synthase&lt;br&gt;Location: 520474 - 519035&lt;br&gt;&lt;br&gt;&lt;b&gt;BlastP hit with JNAJGP_11425&lt;/b&gt;&lt;br&gt;Percentage identity: 98&lt;br&gt;Percentage coverage: 100&lt;br&gt;BLAST bit score: 926&lt;br&gt;E-value: 0.0" locus_tag="F8N47_RS02460" class="clusterblast-orf" id="dummy-5_h5_5_7"  />
</g>
<g id="a5_008"  >
<polygon points="736,90 775,90 780,85 775,80 736,80 736,90 " style="fill:#97d815; stroke-width:1; stroke:black; " description="&lt;b&gt;F8N47_RS02455&lt;/b&gt;&lt;br&gt;DUF3617 domain-containing protein&lt;br&gt;Location: 518904 - 518383&lt;br&gt;&lt;br&gt;&lt;b&gt;BlastP hit with JNAJGP_11430&lt;/b&gt;&lt;br&gt;Percentage identity: 98&lt;br&gt;Percentage coverage: 100&lt;br&gt;BLAST bit score: 336&lt;br&gt;E-value: 5.74e-118" locus_tag="F8N47_RS02455" class="clusterblast-orf" id="dummy-5_h5_5_8"  />
</g>
</svg>
