<svg xmlns="http://www.w3.org/2000/svg" xmlns:xlink="http://www.w3.org/1999/xlink" version="1.1" x="0" y="0" height="230" width="800" viewBox="0 0 800 230" preserveAspectRatio="none"  >
<g label="Query sequence" class="clusterblast-cluster"  >
<text x="5" y="20" class="clusterblast-acc"  >
Query sequence</text>
<line x1="10" y1="35" x2="778.0" y2="35" style="stroke-width:1; stroke:grey; "  />
<polygon points="221,35 226,30 245,30 245,40 226,40 221,35 " style="fill:#d81515; stroke-width:1; stroke:black; " description="&lt;b&gt;JNAJGP_27310&lt;/b&gt;&lt;br&gt;Transcriptional regulator, AraC family&lt;br&gt;Location: 5819740 - 5820610" locus_tag="JNAJGP_27310" class="clusterblast-orf" id="dummy-10_q0_0_all"  />
<polygon points="251,40 263,40 268,35 263,30 251,30 251,40 " style="fill:#3cd815; stroke-width:1; stroke:black; " description="&lt;b&gt;JNAJGP_27315&lt;/b&gt;&lt;br&gt;Lysine transporter LysE&lt;br&gt;Location: 5820798 - 5821419" locus_tag="JNAJGP_27315" class="clusterblast-orf" id="dummy-10_q1_0_all"  />
<polygon points="270,40 279,40 284,35 279,30 270,30 270,40 " style="fill:#1563d8; stroke-width:1; stroke:black; " description="&lt;b&gt;JNAJGP_27320&lt;/b&gt;&lt;br&gt;PhnB-like domain-containing protein&lt;br&gt;Location: 5821494 - 5821977" locus_tag="JNAJGP_27320" class="clusterblast-orf" id="dummy-10_q2_0_all"  />
<polygon points="287,40 304,40 309,35 304,30 287,30 287,40 " style="fill:#b115d8; stroke-width:1; stroke:black; " description="&lt;b&gt;JNAJGP_27325&lt;/b&gt;&lt;br&gt;cysteine synthase family protein&lt;br&gt;Location: 5822078 - 5822870" locus_tag="JNAJGP_27325" class="clusterblast-orf" id="dummy-10_q3_0_all"  />
<polygon points="309,40 320,40 325,35 320,30 309,30 309,40 " style="fill:#b115d8; stroke-width:1; stroke:black; " description="&lt;b&gt;JNAJGP_27330&lt;/b&gt;&lt;br&gt;CBS domain-containing protein&lt;br&gt;Location: 5822870 - 5823455" locus_tag="JNAJGP_27330" class="clusterblast-orf" id="dummy-10_q4_0_all"  />
<polygon points="325,40 353,40 358,35 353,30 325,30 325,40 " style="fill:#d88a15; stroke-width:1; stroke:black; " description="&lt;b&gt;JNAJGP_27335&lt;/b&gt;&lt;br&gt;cystathionine gamma-synthase&lt;br&gt;Location: 5823451 - 5824618" locus_tag="JNAJGP_27335" class="clusterblast-orf" id="dummy-10_q5_0_all"  />
<polygon points="360,35 365,30 421,30 421,40 365,40 360,35 " style="fill:#15d863; stroke-width:1; stroke:black; " description="&lt;b&gt;JNAJGP_27340&lt;/b&gt;&lt;br&gt;OsmC domain/YcaO domain-containing protein&lt;br&gt;Location: 5824670 - 5826872" locus_tag="JNAJGP_27340" class="clusterblast-orf" id="dummy-10_q6_0_all"  />
<polygon points="426,40 429,40 434,35 429,30 426,30 426,40 " style="fill:#3c15d8; stroke-width:1; stroke:black; " description="&lt;b&gt;JNAJGP_27345&lt;/b&gt;&lt;br&gt;PAS domain-containing protein&lt;br&gt;Location: 5827033 - 5827303" locus_tag="JNAJGP_27345" class="clusterblast-orf" id="dummy-10_q7_0_all"  />
<polygon points="433,35 438,30 445,30 445,40 438,40 433,35 " style="fill:#15d863; stroke-width:1; stroke:black; " description="&lt;b&gt;JNAJGP_27350&lt;/b&gt;&lt;br&gt;Osmotically inducible protein OsmC&lt;br&gt;Location: 5827292 - 5827724" locus_tag="JNAJGP_27350" class="clusterblast-orf" id="dummy-10_q8_0_all"  />
<polygon points="448,40 487,40 492,35 487,30 448,30 448,40 " style="fill:#3c15d8; stroke-width:1; stroke:black; " description="&lt;b&gt;JNAJGP_27355&lt;/b&gt;&lt;br&gt;Methyl-accepting transducer domain-containing protein&lt;br&gt;Location: 5827804 - 5829370" locus_tag="JNAJGP_27355" class="clusterblast-orf" id="dummy-10_q9_0_all"  />
<polygon points="499,40 517,40 522,35 517,30 499,30 499,40 " style="fill:#d8158a; stroke-width:1; stroke:black; " description="&lt;b&gt;JNAJGP_27360&lt;/b&gt;&lt;br&gt;Suppressor of fused-like domain-containing protein&lt;br&gt;Location: 5829618 - 5830428" locus_tag="JNAJGP_27360" class="clusterblast-orf" id="dummy-10_q10_0_all"  />
<polygon points="521,40 533,40 538,35 533,30 521,30 521,40 " style="fill:#b1d815; stroke-width:1; stroke:black; " description="&lt;b&gt;JNAJGP_27365&lt;/b&gt;&lt;br&gt;hypothetical protein&lt;br&gt;Location: 5830427 - 5831009" locus_tag="JNAJGP_27365" class="clusterblast-orf" id="dummy-10_q11_0_all"  />
<polygon points="543,40 554,40 559,35 554,30 543,30 543,40 " style="fill:#15d8d8; stroke-width:1; stroke:black; " description="&lt;b&gt;JNAJGP_27370&lt;/b&gt;&lt;br&gt;Hydrolase, isochorismatase family&lt;br&gt;Location: 5831188 - 5831749" locus_tag="JNAJGP_27370" class="clusterblast-orf" id="dummy-10_q12_0_all"  />
</g>
<g label="NZ_CP023272" description="NZ_CP023272 (3235529-3264084): Pseudomonas lurida strain MYb11 chromosome, co... (32% of genes show similarity), thiopeptide" class="clusterblast-cluster"  >
<text x="5" y="70" class="clusterblast-acc"  >
<a xlink:href="https://antismash-db.secondarymetabolites.org/area?record=NZ_CP023272&amp;start=3235529&amp;end=3264084" target="_blank">NZ_CP023272 (3235529-3264084)</a>: Pseudomonas lurida strain MYb11 chromosome, co... (32% of genes show similarity), thiopeptide</text>
<line x1="10" y1="85" x2="778.0" y2="85" style="stroke-width:1; stroke:grey; "  />
</g>
<g id="a10_000"  >
<polygon points="0,90 55,90 60,85 55,80 0,80 0,90 " style="fill:white; stroke-width:1; stroke:black; " description="&lt;b&gt;CLM75_RS14640&lt;/b&gt;&lt;br&gt;TonB-dependent siderophore receptor&lt;br&gt;Location: 3236043 - 3238196" locus_tag="CLM75_RS14640" class="clusterblast-orf" id="dummy-10_h10_9_0"  />
</g>
<g id="a10_001"  >
<polygon points="65,90 102,90 107,85 102,80 65,80 65,90 " style="fill:#3c15d8; stroke-width:1; stroke:black; " description="&lt;b&gt;CLM75_RS14645&lt;/b&gt;&lt;br&gt;methyl-accepting chemotaxis protein&lt;br&gt;Location: 3238363 - 3239856&lt;br&gt;&lt;br&gt;&lt;b&gt;BlastP hit with JNAJGP_27355&lt;/b&gt;&lt;br&gt;Percentage identity: 34&lt;br&gt;Percentage coverage: 61&lt;br&gt;BLAST bit score: 117&lt;br&gt;E-value: 3.81e-26" locus_tag="CLM75_RS14645" class="clusterblast-orf" id="dummy-10_h10_9_1"  />
</g>
<g id="a10_002"  >
<polygon points="117,90 150,90 155,85 150,80 117,80 117,90 " style="fill:white; stroke-width:1; stroke:black; " description="&lt;b&gt;CLM75_RS14650&lt;/b&gt;&lt;br&gt;MFS transporter&lt;br&gt;Location: 3240230 - 3241567" locus_tag="CLM75_RS14650" class="clusterblast-orf" id="dummy-10_h10_9_2"  />
</g>
<g id="a10_003"  >
<polygon points="180,90 188,90 193,85 188,80 180,80 180,90 " style="fill:white; stroke-width:1; stroke:black; " description="&lt;b&gt;CLM75_RS14655&lt;/b&gt;&lt;br&gt;thiol-disulfide oxidoreductase DCC family protein&lt;br&gt;Location: 3242456 - 3242908" locus_tag="CLM75_RS14655" class="clusterblast-orf" id="dummy-10_h10_9_3"  />
</g>
<g id="a10_004"  >
<polygon points="192,85 197,80 214,80 214,90 197,90 192,85 " style="fill:white; stroke-width:1; stroke:black; " description="&lt;b&gt;CLM75_RS14660&lt;/b&gt;&lt;br&gt;NAD(P)-binding domain-containing protein&lt;br&gt;Location: 3242903 - 3243670" locus_tag="CLM75_RS14660" class="clusterblast-orf" id="dummy-10_h10_9_4"  />
</g>
<g id="a10_005"  >
<polygon points="218,90 223,90 228,85 223,80 218,80 218,90 " style="fill:white; stroke-width:1; stroke:black; " description="&lt;b&gt;CLM75_RS14665&lt;/b&gt;&lt;br&gt;VOC family protein&lt;br&gt;Location: 3243801 - 3244172" locus_tag="CLM75_RS14665" class="clusterblast-orf" id="dummy-10_h10_9_5"  />
</g>
<g id="a10_006"  >
<polygon points="230,90 240,90 245,85 240,80 230,80 230,90 " style="fill:white; stroke-width:1; stroke:black; " description="&lt;b&gt;CLM75_RS14670&lt;/b&gt;&lt;br&gt;adenylate kinase&lt;br&gt;Location: 3244239 - 3244775" locus_tag="CLM75_RS14670" class="clusterblast-orf" id="dummy-10_h10_9_6"  />
</g>
<g id="a10_007"  >
<polygon points="248,90 260,90 265,85 260,80 248,80 248,90 " style="fill:#3cd815; stroke-width:1; stroke:black; " description="&lt;b&gt;CLM75_RS14675&lt;/b&gt;&lt;br&gt;LysE family translocator&lt;br&gt;Location: 3244871 - 3245491&lt;br&gt;&lt;br&gt;&lt;b&gt;BlastP hit with JNAJGP_27315&lt;/b&gt;&lt;br&gt;Percentage identity: 91&lt;br&gt;Percentage coverage: 100&lt;br&gt;BLAST bit score: 362&lt;br&gt;E-value: 2.12e-127" locus_tag="CLM75_RS14675" class="clusterblast-orf" id="dummy-10_h10_9_7"  />
</g>
<g id="a10_008"  >
<polygon points="266,90 272,90 277,85 272,80 266,80 266,90 " style="fill:white; stroke-width:1; stroke:black; " description="&lt;b&gt;CLM75_RS14680&lt;/b&gt;&lt;br&gt;ester cyclase&lt;br&gt;Location: 3245530 - 3245922" locus_tag="CLM75_RS14680" class="clusterblast-orf" id="dummy-10_h10_9_8"  />
</g>
<g id="a10_009"  >
<polygon points="278,90 287,90 292,85 287,80 278,80 278,90 " style="fill:#1563d8; stroke-width:1; stroke:black; " description="&lt;b&gt;CLM75_RS14685&lt;/b&gt;&lt;br&gt;VOC family protein&lt;br&gt;Location: 3245957 - 3246436&lt;br&gt;&lt;br&gt;&lt;b&gt;BlastP hit with JNAJGP_27320&lt;/b&gt;&lt;br&gt;Percentage identity: 89&lt;br&gt;Percentage coverage: 99&lt;br&gt;BLAST bit score: 294&lt;br&gt;E-value: 6.11e-102" locus_tag="CLM75_RS14685" class="clusterblast-orf" id="dummy-10_h10_9_9"  />
</g>
<g id="a10_0010"  >
<polygon points="295,90 330,90 335,85 330,80 295,80 295,90 " style="fill:white; stroke-width:1; stroke:black; " description="&lt;b&gt;CLM75_RS14690&lt;/b&gt;&lt;br&gt;hypothetical protein&lt;br&gt;Location: 3246561 - 3247952" locus_tag="CLM75_RS14690" class="clusterblast-orf" id="dummy-10_h10_9_10"  />
</g>
<g id="a10_0011"  >
<polygon points="343,90 362,90 367,85 362,80 343,80 343,90 " style="fill:white; stroke-width:1; stroke:black; " description="&lt;b&gt;CLM75_RS14695&lt;/b&gt;&lt;br&gt;4-hydroxy-tetrahydrodipicolinate synthase&lt;br&gt;Location: 3248246 - 3249109" locus_tag="CLM75_RS14695" class="clusterblast-orf" id="dummy-10_h10_9_11"  />
</g>
<g id="a10_0012"  >
<polygon points="370,90 404,90 409,85 404,80 370,80 370,90 " style="fill:#b115d8; stroke-width:1; stroke:black; " description="&lt;b&gt;CLM75_RS14700&lt;/b&gt;&lt;br&gt;cystathionine beta-synthase&lt;br&gt;Location: 3249226 - 3250602&lt;br&gt;&lt;br&gt;&lt;b&gt;BlastP hit with JNAJGP_27325&lt;/b&gt;&lt;br&gt;Percentage identity: 94&lt;br&gt;Percentage coverage: 100&lt;br&gt;BLAST bit score: 493&lt;br&gt;E-value: 3.72e-174&lt;br&gt;&lt;br&gt;&lt;b&gt;BlastP hit with JNAJGP_27330&lt;/b&gt;&lt;br&gt;Percentage identity: 93&lt;br&gt;Percentage coverage: 100&lt;br&gt;BLAST bit score: 353&lt;br&gt;E-value: 2.9e-120" locus_tag="CLM75_RS14700" class="clusterblast-orf" id="dummy-10_h10_9_12"  />
</g>
<g id="a10_0013"  >
<polygon points="409,90 437,90 442,85 437,80 409,80 409,90 " style="fill:#d88a15; stroke-width:1; stroke:black; " description="&lt;b&gt;CLM75_RS14705&lt;/b&gt;&lt;br&gt;cystathionine gamma-synthase&lt;br&gt;Location: 3250599 - 3251765&lt;br&gt;&lt;br&gt;&lt;b&gt;BlastP hit with JNAJGP_27335&lt;/b&gt;&lt;br&gt;Percentage identity: 93&lt;br&gt;Percentage coverage: 100&lt;br&gt;BLAST bit score: 725&lt;br&gt;E-value: 9.96e-265" locus_tag="CLM75_RS14705" class="clusterblast-orf" id="dummy-10_h10_9_13"  />
</g>
<g id="a10_0014"  >
<polygon points="445,85 450,80 507,80 507,90 450,90 445,85 " style="fill:#15d863; stroke-width:1; stroke:black; " description="&lt;b&gt;CLM75_RS14710&lt;/b&gt;&lt;br&gt;OsmC domain/YcaO domain-containing protein&lt;br&gt;Location: 3251886 - 3254084&lt;br&gt;&lt;br&gt;&lt;b&gt;BlastP hit with JNAJGP_27340&lt;/b&gt;&lt;br&gt;Percentage identity: 95&lt;br&gt;Percentage coverage: 100&lt;br&gt;BLAST bit score: 1408&lt;br&gt;E-value: 0.0&lt;br&gt;&lt;br&gt;&lt;b&gt;BlastP hit with JNAJGP_27350&lt;/b&gt;&lt;br&gt;Percentage identity: 99&lt;br&gt;Percentage coverage: 80&lt;br&gt;BLAST bit score: 232&lt;br&gt;E-value: 3.65e-71" locus_tag="CLM75_RS14710" class="clusterblast-orf" id="dummy-10_h10_9_14"  />
</g>
<g id="a10_0015"  >
<polygon points="512,90 551,90 556,85 551,80 512,80 512,90 " style="fill:#3c15d8; stroke-width:1; stroke:black; " description="&lt;b&gt;CLM75_RS14715&lt;/b&gt;&lt;br&gt;PAS domain-containing methyl-accepting chemotaxis protein&lt;br&gt;Location: 3254248 - 3255813&lt;br&gt;&lt;br&gt;&lt;b&gt;BlastP hit with JNAJGP_27345&lt;/b&gt;&lt;br&gt;Percentage identity: 91&lt;br&gt;Percentage coverage: 100&lt;br&gt;BLAST bit score: 169&lt;br&gt;E-value: 8.19e-50&lt;br&gt;&lt;br&gt;&lt;b&gt;BlastP hit with JNAJGP_27355&lt;/b&gt;&lt;br&gt;Percentage identity: 91&lt;br&gt;Percentage coverage: 100&lt;br&gt;BLAST bit score: 833&lt;br&gt;E-value: 6.45e-303" locus_tag="CLM75_RS14715" class="clusterblast-orf" id="dummy-10_h10_9_15"  />
</g>
<g id="a10_0016"  >
<polygon points="559,90 572,90 577,85 572,80 559,80 559,90 " style="fill:white; stroke-width:1; stroke:black; " description="&lt;b&gt;CLM75_RS14720&lt;/b&gt;&lt;br&gt;LysE family translocator&lt;br&gt;Location: 3255941 - 3256561" locus_tag="CLM75_RS14720" class="clusterblast-orf" id="dummy-10_h10_9_16"  />
</g>
<g id="a10_0017"  >
<polygon points="579,85 584,80 597,80 597,90 584,90 579,85 " style="fill:white; stroke-width:1; stroke:black; " description="&lt;b&gt;CLM75_RS14725&lt;/b&gt;&lt;br&gt;class I SAM-dependent methyltransferase&lt;br&gt;Location: 3256634 - 3257290" locus_tag="CLM75_RS14725" class="clusterblast-orf" id="dummy-10_h10_9_17"  />
</g>
<g id="a10_0018"  >
<polygon points="600,90 613,90 618,85 613,80 600,80 600,90 " style="fill:white; stroke-width:1; stroke:black; " description="&lt;b&gt;CLM75_RS14730&lt;/b&gt;&lt;br&gt;TetR family transcriptional regulator&lt;br&gt;Location: 3257402 - 3258034" locus_tag="CLM75_RS14730" class="clusterblast-orf" id="dummy-10_h10_9_18"  />
</g>
<g id="a10_0019"  >
<polygon points="619,90 636,90 641,85 636,80 619,80 619,90 " style="fill:#d8158a; stroke-width:1; stroke:black; " description="&lt;b&gt;CLM75_RS14735&lt;/b&gt;&lt;br&gt;suppressor of fused domain protein&lt;br&gt;Location: 3258063 - 3258863&lt;br&gt;&lt;br&gt;&lt;b&gt;BlastP hit with JNAJGP_27360&lt;/b&gt;&lt;br&gt;Percentage identity: 84&lt;br&gt;Percentage coverage: 100&lt;br&gt;BLAST bit score: 442&lt;br&gt;E-value: 4.57e-157" locus_tag="CLM75_RS14735" class="clusterblast-orf" id="dummy-10_h10_9_19"  />
</g>
<g id="a10_0020"  >
<polygon points="648,85 653,80 660,80 660,90 653,90 648,85 " style="fill:white; stroke-width:1; stroke:black; " description="&lt;b&gt;CLM75_RS14740&lt;/b&gt;&lt;br&gt;VOC family protein&lt;br&gt;Location: 3259109 - 3259540" locus_tag="CLM75_RS14740" class="clusterblast-orf" id="dummy-10_h10_9_20"  />
</g>
<g id="a10_0021"  >
<polygon points="668,90 676,90 681,85 676,80 668,80 668,90 " style="fill:white; stroke-width:1; stroke:black; " description="&lt;b&gt;CLM75_RS14745&lt;/b&gt;&lt;br&gt;hypothetical protein&lt;br&gt;Location: 3259817 - 3260272" locus_tag="CLM75_RS14745" class="clusterblast-orf" id="dummy-10_h10_9_21"  />
</g>
<g id="a10_0022"  >
<polygon points="685,90 693,90 698,85 693,80 685,80 685,90 " style="fill:white; stroke-width:1; stroke:black; " description="&lt;b&gt;CLM75_RS14750&lt;/b&gt;&lt;br&gt;hypothetical protein&lt;br&gt;Location: 3260429 - 3260869" locus_tag="CLM75_RS14750" class="clusterblast-orf" id="dummy-10_h10_9_22"  />
</g>
<g id="a10_0023"  >
<polygon points="703,85 708,80 718,80 718,90 708,90 703,85 " style="fill:white; stroke-width:1; stroke:black; " description="&lt;b&gt;CLM75_RS14755&lt;/b&gt;&lt;br&gt;GNAT family N-acetyltransferase&lt;br&gt;Location: 3261042 - 3261590" locus_tag="CLM75_RS14755" class="clusterblast-orf" id="dummy-10_h10_9_23"  />
</g>
<g id="a10_0024"  >
<polygon points="719,85 724,80 731,80 731,90 724,90 719,85 " style="fill:white; stroke-width:1; stroke:black; " description="&lt;b&gt;CLM75_RS14760&lt;/b&gt;&lt;br&gt;hypothetical protein&lt;br&gt;Location: 3261622 - 3262041" locus_tag="CLM75_RS14760" class="clusterblast-orf" id="dummy-10_h10_9_24"  />
</g>
<g id="a10_0025"  >
<polygon points="731,85 736,80 744,80 744,90 736,90 731,85 " style="fill:white; stroke-width:1; stroke:black; " description="&lt;b&gt;CLM75_RS14765&lt;/b&gt;&lt;br&gt;hypothetical protein&lt;br&gt;Location: 3262038 - 3262514" locus_tag="CLM75_RS14765" class="clusterblast-orf" id="dummy-10_h10_9_25"  />
</g>
<g id="a10_0026"  >
<polygon points="744,85 749,80 759,80 759,90 749,90 744,85 " style="fill:white; stroke-width:1; stroke:black; " description="&lt;b&gt;CLM75_RS14770&lt;/b&gt;&lt;br&gt;GNAT family N-acetyltransferase&lt;br&gt;Location: 3262501 - 3263046" locus_tag="CLM75_RS14770" class="clusterblast-orf" id="dummy-10_h10_9_26"  />
</g>
<g id="a10_0027"  >
<polygon points="764,90 775,90 780,85 775,80 764,80 764,90 " style="fill:#15d8d8; stroke-width:1; stroke:black; " description="&lt;b&gt;CLM75_RS14775&lt;/b&gt;&lt;br&gt;cysteine hydrolase family protein&lt;br&gt;Location: 3263211 - 3263771&lt;br&gt;&lt;br&gt;&lt;b&gt;BlastP hit with JNAJGP_27370&lt;/b&gt;&lt;br&gt;Percentage identity: 84&lt;br&gt;Percentage coverage: 98&lt;br&gt;BLAST bit score: 314&lt;br&gt;E-value: 5.27e-109" locus_tag="CLM75_RS14775" class="clusterblast-orf" id="dummy-10_h10_9_27"  />
</g>
</svg>
