<svg xmlns="http://www.w3.org/2000/svg" xmlns:xlink="http://www.w3.org/1999/xlink" version="1.1" x="0" y="0" height="230" width="800" viewBox="0 0 800 230" preserveAspectRatio="none"  >
<g label="Query sequence" class="clusterblast-cluster"  >
<text x="5" y="20" class="clusterblast-acc"  >
Query sequence</text>
<line x1="10" y1="35" x2="778.0" y2="35" style="stroke-width:1; stroke:grey; "  />
<polygon points="0,40 24,40 29,35 24,30 0,30 0,40 " style="fill:#d81515; stroke-width:1; stroke:black; " description="&lt;b&gt;JNAJGP_08685&lt;/b&gt;&lt;br&gt;YdiU family protein&lt;br&gt;Location: 1807450 - 1808914" locus_tag="JNAJGP_08685" class="clusterblast-orf" id="dummy-3_q0_0_all"  />
<polygon points="29,35 34,30 37,30 37,40 34,40 29,35 " style="fill:#6fd815; stroke-width:1; stroke:black; " description="&lt;b&gt;JNAJGP_08690&lt;/b&gt;&lt;br&gt;Antitoxin HigA&lt;br&gt;Location: 1808932 - 1809334" locus_tag="JNAJGP_08690" class="clusterblast-orf" id="dummy-3_q1_0_all"  />
<polygon points="37,35 42,30 43,30 43,40 42,40 37,35 " style="fill:#15c9d8; stroke-width:1; stroke:black; " description="&lt;b&gt;JNAJGP_08695&lt;/b&gt;&lt;br&gt;mRNA interferase toxin HigB&lt;br&gt;Location: 1809341 - 1809629" locus_tag="JNAJGP_08695" class="clusterblast-orf" id="dummy-3_q2_0_all"  />
<polygon points="47,40 51,40 56,35 51,30 47,30 47,40 " style="fill:#8d15d8; stroke-width:1; stroke:black; " description="&lt;b&gt;JNAJGP_08700&lt;/b&gt;&lt;br&gt;thioredoxin TrxC&lt;br&gt;Location: 1809863 - 1810298" locus_tag="JNAJGP_08700" class="clusterblast-orf" id="dummy-3_q3_0_all"  />
<polygon points="58,35 63,30 63,30 63,40 63,40 58,35 " style="fill:#d83315; stroke-width:1; stroke:black; " description="&lt;b&gt;JNAJGP_08705&lt;/b&gt;&lt;br&gt;DUF3077 domain-containing protein&lt;br&gt;Location: 1810426 - 1810660" locus_tag="JNAJGP_08705" class="clusterblast-orf" id="dummy-3_q4_0_all"  />
<polygon points="70,35 75,30 86,30 86,40 75,40 70,35 " style="fill:#51d815; stroke-width:1; stroke:black; " description="&lt;b&gt;JNAJGP_08715&lt;/b&gt;&lt;br&gt;ParA-like ATPase involved in chromosome/plasmid partitioning or cellulose biosynthesis protein BcsQ&lt;br&gt;Location: 1811037 - 1811808" locus_tag="JNAJGP_08715" class="clusterblast-orf" id="dummy-3_q5_0_all"  />
<polygon points="92,40 101,40 106,35 101,30 92,30 92,40 " style="fill:#15abd8; stroke-width:1; stroke:black; " description="&lt;b&gt;JNAJGP_08720&lt;/b&gt;&lt;br&gt;Beta-ketoacyl synthase N-terminal domain-containing protein&lt;br&gt;Location: 1812135 - 1812855" locus_tag="JNAJGP_08720" class="clusterblast-orf" id="dummy-3_q6_0_all"  />
<polygon points="106,40 117,40 122,35 117,30 106,30 106,40 " style="fill:#ab15d8; stroke-width:1; stroke:black; " description="&lt;b&gt;JNAJGP_08725&lt;/b&gt;&lt;br&gt;Phospholipid/glycerol acyltransferase domain-containing protein&lt;br&gt;Location: 1812830 - 1813643" locus_tag="JNAJGP_08725" class="clusterblast-orf" id="dummy-3_q7_0_all"  />
<polygon points="121,40 122,40 127,35 122,30 121,30 121,40 " style="fill:#d85115; stroke-width:1; stroke:black; " description="&lt;b&gt;JNAJGP_08730&lt;/b&gt;&lt;br&gt;Acyl carrier protein&lt;br&gt;Location: 1813620 - 1813890" locus_tag="JNAJGP_08730" class="clusterblast-orf" id="dummy-3_q8_0_all"  />
<polygon points="127,40 127,40 132,35 127,30 127,30 127,40 " style="fill:#33d815; stroke-width:1; stroke:black; " description="&lt;b&gt;JNAJGP_08735&lt;/b&gt;&lt;br&gt;acyl carrier protein&lt;br&gt;Location: 1813899 - 1814154" locus_tag="JNAJGP_08735" class="clusterblast-orf" id="dummy-3_q9_0_all"  />
<polygon points="132,40 137,40 142,35 137,30 132,30 132,40 " style="fill:#158dd8; stroke-width:1; stroke:black; " description="&lt;b&gt;JNAJGP_08740&lt;/b&gt;&lt;br&gt;Intracellular septation protein a&lt;br&gt;Location: 1814150 - 1814696" locus_tag="JNAJGP_08740" class="clusterblast-orf" id="dummy-3_q10_0_all"  />
<polygon points="142,40 170,40 175,35 170,30 142,30 142,40 " style="fill:#c915d8; stroke-width:1; stroke:black; " description="&lt;b&gt;JNAJGP_08745&lt;/b&gt;&lt;br&gt;Acetyl-coenzyme A synthetase&lt;br&gt;Location: 1814692 - 1816363" locus_tag="JNAJGP_08745" class="clusterblast-orf" id="dummy-3_q11_0_all"  />
<polygon points="179,40 188,40 193,35 188,30 179,30 179,40 " style="fill:#d86f15; stroke-width:1; stroke:black; " description="&lt;b&gt;JNAJGP_08750&lt;/b&gt;&lt;br&gt;Glycosyl transferase&lt;br&gt;Location: 1816530 - 1817265" locus_tag="JNAJGP_08750" class="clusterblast-orf" id="dummy-3_q12_0_all"  />
<polygon points="193,40 206,40 211,35 206,30 193,30 193,40 " style="fill:#15d815; stroke-width:1; stroke:black; " description="&lt;b&gt;JNAJGP_08755&lt;/b&gt;&lt;br&gt;Glycosyl transferase&lt;br&gt;Location: 1817261 - 1818197" locus_tag="JNAJGP_08755" class="clusterblast-orf" id="dummy-3_q13_0_all"  />
<polygon points="211,40 236,40 241,35 236,30 211,30 211,40 " style="fill:#156fd8; stroke-width:1; stroke:black; " description="&lt;b&gt;JNAJGP_08760&lt;/b&gt;&lt;br&gt;Histidine ammonia-lyase&lt;br&gt;Location: 1818180 - 1819722" locus_tag="JNAJGP_08760" class="clusterblast-orf" id="dummy-3_q14_0_all"  />
<polygon points="241,40 245,40 250,35 245,30 241,30 241,40 " style="fill:#d815c9; stroke-width:1; stroke:black; " description="&lt;b&gt;JNAJGP_08765&lt;/b&gt;&lt;br&gt;Thioesterase domain-containing protein&lt;br&gt;Location: 1819714 - 1820140" locus_tag="JNAJGP_08765" class="clusterblast-orf" id="dummy-3_q15_0_all"  />
<polygon points="250,40 256,40 261,35 256,30 250,30 250,40 " style="fill:#d88d15; stroke-width:1; stroke:black; " description="&lt;b&gt;JNAJGP_08770&lt;/b&gt;&lt;br&gt;Outer membrane lipoprotein carrier protein LolA&lt;br&gt;Location: 1820136 - 1820727" locus_tag="JNAJGP_08770" class="clusterblast-orf" id="dummy-3_q16_0_all"  />
<polygon points="261,40 302,40 307,35 302,30 261,30 261,40 " style="fill:#15d833; stroke-width:1; stroke:black; " description="&lt;b&gt;JNAJGP_08775&lt;/b&gt;&lt;br&gt;Membrane transport protein MMPL domain-containing protein&lt;br&gt;Location: 1820716 - 1823029" locus_tag="JNAJGP_08775" class="clusterblast-orf" id="dummy-3_q17_0_all"  />
<polygon points="307,40 327,40 332,35 327,30 307,30 307,40 " style="fill:#1551d8; stroke-width:1; stroke:black; " description="&lt;b&gt;JNAJGP_08780&lt;/b&gt;&lt;br&gt;FAD-binding domain-containing protein&lt;br&gt;Location: 1823062 - 1824310" locus_tag="JNAJGP_08780" class="clusterblast-orf" id="dummy-3_q18_0_all"  />
<polygon points="332,40 341,40 346,35 341,30 332,30 332,40 " style="fill:#d815ab; stroke-width:1; stroke:black; " description="&lt;b&gt;JNAJGP_08785&lt;/b&gt;&lt;br&gt;Methyltransferase type 11 domain-containing protein&lt;br&gt;Location: 1824306 - 1825041" locus_tag="JNAJGP_08785" class="clusterblast-orf" id="dummy-3_q19_0_all"  />
<polygon points="346,40 351,40 356,35 351,30 346,30 346,40 " style="fill:#d8ab15; stroke-width:1; stroke:black; " description="&lt;b&gt;JNAJGP_08790&lt;/b&gt;&lt;br&gt;Lipoprotein&lt;br&gt;Location: 1825037 - 1825520" locus_tag="JNAJGP_08790" class="clusterblast-orf" id="dummy-3_q20_0_all"  />
<polygon points="356,40 374,40 379,35 374,30 356,30 356,40 " style="fill:#15d851; stroke-width:1; stroke:black; " description="&lt;b&gt;JNAJGP_08795&lt;/b&gt;&lt;br&gt;3-oxoacyl-(Acyl carrier protein) synthase&lt;br&gt;Location: 1825516 - 1826683" locus_tag="JNAJGP_08795" class="clusterblast-orf" id="dummy-3_q21_0_all"  />
<polygon points="378,40 383,40 388,35 383,30 378,30 378,40 " style="fill:#1533d8; stroke-width:1; stroke:black; " description="&lt;b&gt;JNAJGP_08800&lt;/b&gt;&lt;br&gt;3-hydroxydecanoyl-(ACP) dehydratase&lt;br&gt;Location: 1826679 - 1827141" locus_tag="JNAJGP_08800" class="clusterblast-orf" id="dummy-3_q22_0_all"  />
<polygon points="387,40 397,40 402,35 397,30 387,30 387,40 " style="fill:#d8158d; stroke-width:1; stroke:black; " description="&lt;b&gt;JNAJGP_08805&lt;/b&gt;&lt;br&gt;3-oxoacyl-ACP reductase FabG&lt;br&gt;Location: 1827137 - 1827866" locus_tag="JNAJGP_08805" class="clusterblast-orf" id="dummy-3_q23_0_all"  />
<polygon points="402,40 421,40 426,35 421,30 402,30 402,40 " style="fill:#d8c915; stroke-width:1; stroke:black; " description="&lt;b&gt;JNAJGP_08810&lt;/b&gt;&lt;br&gt;beta-ketoacyl-ACP synthase&lt;br&gt;Location: 1827865 - 1829092" locus_tag="JNAJGP_08810" class="clusterblast-orf" id="dummy-3_q24_0_all"  />
<polygon points="426,40 430,40 435,35 430,30 426,30 426,40 " style="fill:#15d86f; stroke-width:1; stroke:black; " description="&lt;b&gt;JNAJGP_08815&lt;/b&gt;&lt;br&gt;Lipoprotein&lt;br&gt;Location: 1829118 - 1829571" locus_tag="JNAJGP_08815" class="clusterblast-orf" id="dummy-3_q25_0_all"  />
<polygon points="440,35 445,30 447,30 447,40 445,40 440,35 " style="fill:#1515d8; stroke-width:1; stroke:black; " description="&lt;b&gt;JNAJGP_08820&lt;/b&gt;&lt;br&gt;Type II toxin-antitoxin system PemK/MazF family toxin&lt;br&gt;Location: 1829787 - 1830171" locus_tag="JNAJGP_08820" class="clusterblast-orf" id="dummy-3_q26_0_all"  />
<polygon points="449,35 454,30 467,30 467,40 454,40 449,35 " style="fill:#d8156f; stroke-width:1; stroke:black; " description="&lt;b&gt;JNAJGP_08825&lt;/b&gt;&lt;br&gt;HTH lysR-type domain-containing protein&lt;br&gt;Location: 1830258 - 1831152" locus_tag="JNAJGP_08825" class="clusterblast-orf" id="dummy-3_q27_0_all"  />
<polygon points="469,40 489,40 494,35 489,30 469,30 469,40 " style="fill:#c9d815; stroke-width:1; stroke:black; " description="&lt;b&gt;JNAJGP_08830&lt;/b&gt;&lt;br&gt;Major facilitator superfamily (MFS) profile domain-containing protein&lt;br&gt;Location: 1831274 - 1832549" locus_tag="JNAJGP_08830" class="clusterblast-orf" id="dummy-3_q28_0_all"  />
<polygon points="495,35 500,30 516,30 516,40 500,40 495,35 " style="fill:#15d88d; stroke-width:1; stroke:black; " description="&lt;b&gt;JNAJGP_08835&lt;/b&gt;&lt;br&gt;uroporphyrinogen decarboxylase&lt;br&gt;Location: 1832609 - 1833677" locus_tag="JNAJGP_08835" class="clusterblast-orf" id="dummy-3_q29_0_all"  />
<polygon points="521,35 526,30 549,30 549,40 526,40 521,35 " style="fill:#3315d8; stroke-width:1; stroke:black; " description="&lt;b&gt;JNAJGP_08840&lt;/b&gt;&lt;br&gt;NADPH-dependent glutamate synthase beta chain or related oxidoreductase&lt;br&gt;Location: 1833919 - 1835338" locus_tag="JNAJGP_08840" class="clusterblast-orf" id="dummy-3_q30_0_all"  />
<polygon points="550,35 555,30 637,30 637,40 555,40 550,35 " style="fill:#d81551; stroke-width:1; stroke:black; " description="&lt;b&gt;JNAJGP_08845&lt;/b&gt;&lt;br&gt;Glutamate synthase large subunit&lt;br&gt;Location: 1835370 - 1839816" locus_tag="JNAJGP_08845" class="clusterblast-orf" id="dummy-3_q31_0_all"  />
<polygon points="644,35 649,30 675,30 675,40 649,40 644,35 " style="fill:#abd815; stroke-width:1; stroke:black; " description="&lt;b&gt;JNAJGP_08850&lt;/b&gt;&lt;br&gt;General secretion pathway protein a&lt;br&gt;Location: 1840170 - 1841733" locus_tag="JNAJGP_08850" class="clusterblast-orf" id="dummy-3_q32_0_all"  />
<polygon points="675,35 680,30 697,30 697,40 680,40 675,35 " style="fill:#15d8ab; stroke-width:1; stroke:black; " description="&lt;b&gt;JNAJGP_08855&lt;/b&gt;&lt;br&gt;3-dehydroquinate synthase&lt;br&gt;Location: 1841743 - 1842844" locus_tag="JNAJGP_08855" class="clusterblast-orf" id="dummy-3_q33_0_all"  />
<polygon points="699,35 704,30 709,30 709,40 704,40 699,35 " style="fill:#5115d8; stroke-width:1; stroke:black; " description="&lt;b&gt;JNAJGP_08860&lt;/b&gt;&lt;br&gt;shikimate kinase AroK&lt;br&gt;Location: 1842959 - 1843451" locus_tag="JNAJGP_08860" class="clusterblast-orf" id="dummy-3_q34_0_all"  />
<polygon points="709,35 714,30 737,30 737,40 714,40 709,35 " style="fill:#d81533; stroke-width:1; stroke:black; " description="&lt;b&gt;JNAJGP_08865&lt;/b&gt;&lt;br&gt;Type IV fimbriae biogenesis protein&lt;br&gt;Location: 1843482 - 1844865" locus_tag="JNAJGP_08865" class="clusterblast-orf" id="dummy-3_q35_0_all"  />
<polygon points="737,35 742,30 756,30 756,40 742,40 737,35 " style="fill:#8dd815; stroke-width:1; stroke:black; " description="&lt;b&gt;JNAJGP_08870&lt;/b&gt;&lt;br&gt;Pilus assembly protein&lt;br&gt;Location: 1844878 - 1845850" locus_tag="JNAJGP_08870" class="clusterblast-orf" id="dummy-3_q36_0_all"  />
<polygon points="756,35 761,30 767,30 767,40 761,40 756,35 " style="fill:#15d8c9; stroke-width:1; stroke:black; " description="&lt;b&gt;JNAJGP_08875&lt;/b&gt;&lt;br&gt;Type IV pilus assembly protein&lt;br&gt;Location: 1845846 - 1846401" locus_tag="JNAJGP_08875" class="clusterblast-orf" id="dummy-3_q37_0_all"  />
<polygon points="767,35 772,30 780,30 780,40 772,40 767,35 " style="fill:#6f15d8; stroke-width:1; stroke:black; " description="&lt;b&gt;JNAJGP_08880&lt;/b&gt;&lt;br&gt;Type IV pilus assembly protein&lt;br&gt;Location: 1846397 - 1847051" locus_tag="JNAJGP_08880" class="clusterblast-orf" id="dummy-3_q38_0_all"  />
</g>
<g label="NZ_JACAQN010000031" description="NZ_JACAQN010000031 (109477-153053): Pseudomonas sp. IPO3749 IPO 3749 S32 L002... (97% of genes show similarity), arylpolyene" class="clusterblast-cluster"  >
<text x="5" y="70" class="clusterblast-acc"  >
<a xlink:href="https://antismash-db.secondarymetabolites.org/area?record=NZ_JACAQN010000031&amp;start=109477&amp;end=153053" target="_blank">NZ_JACAQN010000031 (109477-153053)</a>: Pseudomonas sp. IPO3749 IPO 3749 S32 L002... (97% of genes show similarity), arylpolyene</text>
<line x1="10" y1="85" x2="778.0" y2="85" style="stroke-width:1; stroke:grey; "  />
</g>
<g id="a3_000"  >
<polygon points="3,90 27,90 32,85 27,80 3,80 3,90 " style="fill:#d81515; stroke-width:1; stroke:black; " description="&lt;b&gt;HX832_RS26340&lt;/b&gt;&lt;br&gt;YdiU family protein&lt;br&gt;Location: 150957 - 149512&lt;br&gt;&lt;br&gt;&lt;b&gt;BlastP hit with JNAJGP_08685&lt;/b&gt;&lt;br&gt;Percentage identity: 95&lt;br&gt;Percentage coverage: 99&lt;br&gt;BLAST bit score: 925&lt;br&gt;E-value: 0.0" locus_tag="HX832_RS26340" class="clusterblast-orf" id="dummy-3_h3_10_0"  />
</g>
<g id="a3_001"  >
<polygon points="33,85 38,80 41,80 41,90 38,90 33,85 " style="fill:#6fd815; stroke-width:1; stroke:black; " description="&lt;b&gt;HX832_RS26335&lt;/b&gt;&lt;br&gt;transcriptional regulator&lt;br&gt;Location: 149472 - 149071&lt;br&gt;&lt;br&gt;&lt;b&gt;BlastP hit with JNAJGP_08690&lt;/b&gt;&lt;br&gt;Percentage identity: 96&lt;br&gt;Percentage coverage: 100&lt;br&gt;BLAST bit score: 260&lt;br&gt;E-value: 3.12e-89" locus_tag="HX832_RS26335" class="clusterblast-orf" id="dummy-3_h3_10_1"  />
</g>
<g id="a3_002"  >
<polygon points="40,85 45,80 46,80 46,90 45,90 40,85 " style="fill:#15c9d8; stroke-width:1; stroke:black; " description="&lt;b&gt;HX832_RS26330&lt;/b&gt;&lt;br&gt;type II toxin-antitoxin system HigB family toxin&lt;br&gt;Location: 149074 - 148775&lt;br&gt;&lt;br&gt;&lt;b&gt;BlastP hit with JNAJGP_08695&lt;/b&gt;&lt;br&gt;Percentage identity: 87&lt;br&gt;Percentage coverage: 100&lt;br&gt;BLAST bit score: 177&lt;br&gt;E-value: 1.92e-57" locus_tag="HX832_RS26330" class="clusterblast-orf" id="dummy-3_h3_10_2"  />
</g>
<g id="a3_003"  >
<polygon points="51,90 55,90 60,85 55,80 51,80 51,90 " style="fill:#8d15d8; stroke-width:1; stroke:black; " description="&lt;b&gt;HX832_RS26325&lt;/b&gt;&lt;br&gt;thioredoxin TrxC&lt;br&gt;Location: 148537 - 148103&lt;br&gt;&lt;br&gt;&lt;b&gt;BlastP hit with JNAJGP_08700&lt;/b&gt;&lt;br&gt;Percentage identity: 99&lt;br&gt;Percentage coverage: 100&lt;br&gt;BLAST bit score: 304&lt;br&gt;E-value: 2.05e-106" locus_tag="HX832_RS26325" class="clusterblast-orf" id="dummy-3_h3_10_3"  />
</g>
<g id="a3_004"  >
<polygon points="59,85 64,80 64,80 64,90 64,90 59,85 " style="fill:#d83315; stroke-width:1; stroke:black; " description="&lt;b&gt;HX832_RS26320&lt;/b&gt;&lt;br&gt;DUF6124 family protein&lt;br&gt;Location: 148115 - 147888&lt;br&gt;&lt;br&gt;&lt;b&gt;BlastP hit with JNAJGP_08705&lt;/b&gt;&lt;br&gt;Percentage identity: 87&lt;br&gt;Percentage coverage: 90&lt;br&gt;BLAST bit score: 124&lt;br&gt;E-value: 5.05e-37" locus_tag="HX832_RS26320" class="clusterblast-orf" id="dummy-3_h3_10_4"  />
</g>
<g id="a3_005"  >
<polygon points="71,85 76,80 86,80 86,90 76,90 71,85 " style="fill:#51d815; stroke-width:1; stroke:black; " description="&lt;b&gt;HX832_RS26315&lt;/b&gt;&lt;br&gt;ParA family protein&lt;br&gt;Location: 147535 - 146765&lt;br&gt;&lt;br&gt;&lt;b&gt;BlastP hit with JNAJGP_08715&lt;/b&gt;&lt;br&gt;Percentage identity: 97&lt;br&gt;Percentage coverage: 100&lt;br&gt;BLAST bit score: 490&lt;br&gt;E-value: 2.39e-176" locus_tag="HX832_RS26315" class="clusterblast-orf" id="dummy-3_h3_10_5"  />
</g>
<g id="a3_006"  >
<polygon points="92,90 102,90 107,85 102,80 92,80 92,90 " style="fill:#15abd8; stroke-width:1; stroke:black; " description="&lt;b&gt;HX832_RS26310&lt;/b&gt;&lt;br&gt;beta-ketoacyl synthase chain length factor&lt;br&gt;Location: 146479 - 145697&lt;br&gt;&lt;br&gt;&lt;b&gt;BlastP hit with JNAJGP_08720&lt;/b&gt;&lt;br&gt;Percentage identity: 94&lt;br&gt;Percentage coverage: 100&lt;br&gt;BLAST bit score: 460&lt;br&gt;E-value: 1.53e-164" locus_tag="HX832_RS26310" class="clusterblast-orf" id="dummy-3_h3_10_6"  />
</g>
<g id="a3_007"  >
<polygon points="106,90 117,90 122,85 117,80 106,80 106,90 " style="fill:#ab15d8; stroke-width:1; stroke:black; " description="&lt;b&gt;HX832_RS26305&lt;/b&gt;&lt;br&gt;1-acyl-sn-glycerol-3-phosphate acyltransferase&lt;br&gt;Location: 145721 - 144909&lt;br&gt;&lt;br&gt;&lt;b&gt;BlastP hit with JNAJGP_08725&lt;/b&gt;&lt;br&gt;Percentage identity: 90&lt;br&gt;Percentage coverage: 100&lt;br&gt;BLAST bit score: 494&lt;br&gt;E-value: 2.99e-177" locus_tag="HX832_RS26305" class="clusterblast-orf" id="dummy-3_h3_10_7"  />
</g>
<g id="a3_008"  >
<polygon points="122,90 122,90 127,85 122,80 122,80 122,90 " style="fill:#d85115; stroke-width:1; stroke:black; " description="&lt;b&gt;HX832_RS26300&lt;/b&gt;&lt;br&gt;phosphopantetheine-binding protein&lt;br&gt;Location: 144931 - 144662&lt;br&gt;&lt;br&gt;&lt;b&gt;BlastP hit with JNAJGP_08730&lt;/b&gt;&lt;br&gt;Percentage identity: 96&lt;br&gt;Percentage coverage: 100&lt;br&gt;BLAST bit score: 160&lt;br&gt;E-value: 4e-51" locus_tag="HX832_RS26300" class="clusterblast-orf" id="dummy-3_h3_10_8"  />
</g>
<g id="a3_009"  >
<polygon points="128,90 128,90 133,85 128,80 128,80 128,90 " style="fill:#33d815; stroke-width:1; stroke:black; " description="&lt;b&gt;HX832_RS26295&lt;/b&gt;&lt;br&gt;acyl carrier protein&lt;br&gt;Location: 144652 - 144398&lt;br&gt;&lt;br&gt;&lt;b&gt;BlastP hit with JNAJGP_08735&lt;/b&gt;&lt;br&gt;Percentage identity: 98&lt;br&gt;Percentage coverage: 100&lt;br&gt;BLAST bit score: 155&lt;br&gt;E-value: 1.9e-49" locus_tag="HX832_RS26295" class="clusterblast-orf" id="dummy-3_h3_10_9"  />
</g>
<g id="a3_0010"  >
<polygon points="132,90 138,90 143,85 138,80 132,80 132,90 " style="fill:#158dd8; stroke-width:1; stroke:black; " description="&lt;b&gt;HX832_RS26290&lt;/b&gt;&lt;br&gt;membrane protein&lt;br&gt;Location: 144401 - 143856&lt;br&gt;&lt;br&gt;&lt;b&gt;BlastP hit with JNAJGP_08740&lt;/b&gt;&lt;br&gt;Percentage identity: 97&lt;br&gt;Percentage coverage: 100&lt;br&gt;BLAST bit score: 359&lt;br&gt;E-value: 7.47e-127" locus_tag="HX832_RS26290" class="clusterblast-orf" id="dummy-3_h3_10_10"  />
</g>
<g id="a3_0011"  >
<polygon points="143,90 171,90 176,85 171,80 143,80 143,90 " style="fill:#c915d8; stroke-width:1; stroke:black; " description="&lt;b&gt;HX832_RS26285&lt;/b&gt;&lt;br&gt;acyl-CoA synthetase family protein&lt;br&gt;Location: 143859 - 142189&lt;br&gt;&lt;br&gt;&lt;b&gt;BlastP hit with JNAJGP_08745&lt;/b&gt;&lt;br&gt;Percentage identity: 93&lt;br&gt;Percentage coverage: 99&lt;br&gt;BLAST bit score: 1027&lt;br&gt;E-value: 0.0" locus_tag="HX832_RS26285" class="clusterblast-orf" id="dummy-3_h3_10_11"  />
</g>
<g id="a3_0012"  >
<polygon points="179,90 188,90 193,85 188,80 179,80 179,90 " style="fill:#d86f15; stroke-width:1; stroke:black; " description="&lt;b&gt;HX832_RS26280&lt;/b&gt;&lt;br&gt;glycosyltransferase family 2 protein&lt;br&gt;Location: 142039 - 141305&lt;br&gt;&lt;br&gt;&lt;b&gt;BlastP hit with JNAJGP_08750&lt;/b&gt;&lt;br&gt;Percentage identity: 94&lt;br&gt;Percentage coverage: 100&lt;br&gt;BLAST bit score: 481&lt;br&gt;E-value: 4.33e-173" locus_tag="HX832_RS26280" class="clusterblast-orf" id="dummy-3_h3_10_12"  />
</g>
<g id="a3_0013"  >
<polygon points="193,90 207,90 212,85 207,80 193,80 193,90 " style="fill:#15d815; stroke-width:1; stroke:black; " description="&lt;b&gt;HX832_RS26275&lt;/b&gt;&lt;br&gt;glycosyl transferase&lt;br&gt;Location: 141308 - 140373&lt;br&gt;&lt;br&gt;&lt;b&gt;BlastP hit with JNAJGP_08755&lt;/b&gt;&lt;br&gt;Percentage identity: 92&lt;br&gt;Percentage coverage: 100&lt;br&gt;BLAST bit score: 583&lt;br&gt;E-value: 2.17e-211" locus_tag="HX832_RS26275" class="clusterblast-orf" id="dummy-3_h3_10_13"  />
</g>
<g id="a3_0014"  >
<polygon points="212,90 237,90 242,85 237,80 212,80 212,90 " style="fill:#156fd8; stroke-width:1; stroke:black; " description="&lt;b&gt;HX832_RS26270&lt;/b&gt;&lt;br&gt;aromatic amino acid ammonia-lyase&lt;br&gt;Location: 140389 - 138848&lt;br&gt;&lt;br&gt;&lt;b&gt;BlastP hit with JNAJGP_08760&lt;/b&gt;&lt;br&gt;Percentage identity: 98&lt;br&gt;Percentage coverage: 100&lt;br&gt;BLAST bit score: 991&lt;br&gt;E-value: 0.0" locus_tag="HX832_RS26270" class="clusterblast-orf" id="dummy-3_h3_10_14"  />
</g>
<g id="a3_0015"  >
<polygon points="242,90 245,90 250,85 245,80 242,80 242,90 " style="fill:#d815c9; stroke-width:1; stroke:black; " description="&lt;b&gt;HX832_RS26265&lt;/b&gt;&lt;br&gt;acyl-CoA thioesterase&lt;br&gt;Location: 138855 - 138430&lt;br&gt;&lt;br&gt;&lt;b&gt;BlastP hit with JNAJGP_08765&lt;/b&gt;&lt;br&gt;Percentage identity: 92&lt;br&gt;Percentage coverage: 100&lt;br&gt;BLAST bit score: 266&lt;br&gt;E-value: 2.06e-91" locus_tag="HX832_RS26265" class="clusterblast-orf" id="dummy-3_h3_10_15"  />
</g>
<g id="a3_0016"  >
<polygon points="250,90 257,90 262,85 257,80 250,80 250,90 " style="fill:#d88d15; stroke-width:1; stroke:black; " description="&lt;b&gt;HX832_RS26260&lt;/b&gt;&lt;br&gt;outer membrane lipoprotein carrier protein LolA&lt;br&gt;Location: 138433 - 137843&lt;br&gt;&lt;br&gt;&lt;b&gt;BlastP hit with JNAJGP_08770&lt;/b&gt;&lt;br&gt;Percentage identity: 93&lt;br&gt;Percentage coverage: 100&lt;br&gt;BLAST bit score: 352&lt;br&gt;E-value: 1.84e-123" locus_tag="HX832_RS26260" class="clusterblast-orf" id="dummy-3_h3_10_16"  />
</g>
<g id="a3_0017"  >
<polygon points="261,90 302,90 307,85 302,80 261,80 261,90 " style="fill:#15d833; stroke-width:1; stroke:black; " description="&lt;b&gt;HX832_RS26255&lt;/b&gt;&lt;br&gt;MMPL family transporter&lt;br&gt;Location: 137853 - 135541&lt;br&gt;&lt;br&gt;&lt;b&gt;BlastP hit with JNAJGP_08775&lt;/b&gt;&lt;br&gt;Percentage identity: 94&lt;br&gt;Percentage coverage: 100&lt;br&gt;BLAST bit score: 1367&lt;br&gt;E-value: 0.0" locus_tag="HX832_RS26255" class="clusterblast-orf" id="dummy-3_h3_10_17"  />
</g>
<g id="a3_0018"  >
<polygon points="308,90 327,90 332,85 327,80 308,80 308,90 " style="fill:#1551d8; stroke-width:1; stroke:black; " description="&lt;b&gt;HX832_RS26250&lt;/b&gt;&lt;br&gt;tryptophan 7-halogenase&lt;br&gt;Location: 135492 - 134260&lt;br&gt;&lt;br&gt;&lt;b&gt;BlastP hit with JNAJGP_08780&lt;/b&gt;&lt;br&gt;Percentage identity: 93&lt;br&gt;Percentage coverage: 99&lt;br&gt;BLAST bit score: 781&lt;br&gt;E-value: 2.67e-286" locus_tag="HX832_RS26250" class="clusterblast-orf" id="dummy-3_h3_10_18"  />
</g>
<g id="a3_0019"  >
<polygon points="332,90 342,90 347,85 342,80 332,80 332,90 " style="fill:#d815ab; stroke-width:1; stroke:black; " description="&lt;b&gt;HX832_RS26245&lt;/b&gt;&lt;br&gt;class I SAM-dependent methyltransferase&lt;br&gt;Location: 134263 - 133529&lt;br&gt;&lt;br&gt;&lt;b&gt;BlastP hit with JNAJGP_08785&lt;/b&gt;&lt;br&gt;Percentage identity: 89&lt;br&gt;Percentage coverage: 100&lt;br&gt;BLAST bit score: 459&lt;br&gt;E-value: 2.12e-164" locus_tag="HX832_RS26245" class="clusterblast-orf" id="dummy-3_h3_10_19"  />
</g>
<g id="a3_0020"  >
<polygon points="347,90 351,90 356,85 351,80 347,80 347,90 " style="fill:#d8ab15; stroke-width:1; stroke:black; " description="&lt;b&gt;HX832_RS26240&lt;/b&gt;&lt;br&gt;hypothetical protein&lt;br&gt;Location: 133532 - 133050&lt;br&gt;&lt;br&gt;&lt;b&gt;BlastP hit with JNAJGP_08790&lt;/b&gt;&lt;br&gt;Percentage identity: 90&lt;br&gt;Percentage coverage: 100&lt;br&gt;BLAST bit score: 293&lt;br&gt;E-value: 1.28e-101" locus_tag="HX832_RS26240" class="clusterblast-orf" id="dummy-3_h3_10_20"  />
</g>
<g id="a3_0021"  >
<polygon points="356,90 374,90 379,85 374,80 356,80 356,90 " style="fill:#15d851; stroke-width:1; stroke:black; " description="&lt;b&gt;HX832_RS26235&lt;/b&gt;&lt;br&gt;beta-ketoacyl-[acyl-carrier-protein] synthase family protein&lt;br&gt;Location: 133053 - 131887&lt;br&gt;&lt;br&gt;&lt;b&gt;BlastP hit with JNAJGP_08795&lt;/b&gt;&lt;br&gt;Percentage identity: 90&lt;br&gt;Percentage coverage: 100&lt;br&gt;BLAST bit score: 692&lt;br&gt;E-value: 1.27e-251" locus_tag="HX832_RS26235" class="clusterblast-orf" id="dummy-3_h3_10_21"  />
</g>
<g id="a3_0022"  >
<polygon points="379,90 383,90 388,85 383,80 379,80 379,90 " style="fill:#1533d8; stroke-width:1; stroke:black; " description="&lt;b&gt;HX832_RS26230&lt;/b&gt;&lt;br&gt;hotdog family protein&lt;br&gt;Location: 131890 - 131429&lt;br&gt;&lt;br&gt;&lt;b&gt;BlastP hit with JNAJGP_08800&lt;/b&gt;&lt;br&gt;Percentage identity: 90&lt;br&gt;Percentage coverage: 99&lt;br&gt;BLAST bit score: 275&lt;br&gt;E-value: 2.23e-94" locus_tag="HX832_RS26230" class="clusterblast-orf" id="dummy-3_h3_10_22"  />
</g>
<g id="a3_0023"  >
<polygon points="388,90 397,90 402,85 397,80 388,80 388,90 " style="fill:#d8158d; stroke-width:1; stroke:black; " description="&lt;b&gt;HX832_RS26225&lt;/b&gt;&lt;br&gt;3-oxoacyl-ACP reductase FabG&lt;br&gt;Location: 131432 - 130704&lt;br&gt;&lt;br&gt;&lt;b&gt;BlastP hit with JNAJGP_08805&lt;/b&gt;&lt;br&gt;Percentage identity: 97&lt;br&gt;Percentage coverage: 100&lt;br&gt;BLAST bit score: 457&lt;br&gt;E-value: 1.05e-163" locus_tag="HX832_RS26225" class="clusterblast-orf" id="dummy-3_h3_10_23"  />
</g>
<g id="a3_0024"  >
<polygon points="402,90 421,90 426,85 421,80 402,80 402,90 " style="fill:#d8c915; stroke-width:1; stroke:black; " description="&lt;b&gt;HX832_RS26220&lt;/b&gt;&lt;br&gt;beta-ketoacyl-ACP synthase&lt;br&gt;Location: 130704 - 129478&lt;br&gt;&lt;br&gt;&lt;b&gt;BlastP hit with JNAJGP_08810&lt;/b&gt;&lt;br&gt;Percentage identity: 98&lt;br&gt;Percentage coverage: 100&lt;br&gt;BLAST bit score: 810&lt;br&gt;E-value: 6.93e-298" locus_tag="HX832_RS26220" class="clusterblast-orf" id="dummy-3_h3_10_24"  />
</g>
<g id="a3_0025"  >
<polygon points="427,90 431,90 436,85 431,80 427,80 427,90 " style="fill:#15d86f; stroke-width:1; stroke:black; " description="&lt;b&gt;HX832_RS26215&lt;/b&gt;&lt;br&gt;hypothetical protein&lt;br&gt;Location: 129451 - 129008&lt;br&gt;&lt;br&gt;&lt;b&gt;BlastP hit with JNAJGP_08815&lt;/b&gt;&lt;br&gt;Percentage identity: 90&lt;br&gt;Percentage coverage: 99&lt;br&gt;BLAST bit score: 250&lt;br&gt;E-value: 9.22e-85" locus_tag="HX832_RS26215" class="clusterblast-orf" id="dummy-3_h3_10_25"  />
</g>
<g id="a3_0026"  >
<polygon points="443,85 448,80 461,80 461,90 448,90 443,85 " style="fill:#d8156f; stroke-width:1; stroke:black; " description="&lt;b&gt;HX832_RS26210&lt;/b&gt;&lt;br&gt;LysR family transcriptional regulator&lt;br&gt;Location: 128636 - 127743&lt;br&gt;&lt;br&gt;&lt;b&gt;BlastP hit with JNAJGP_08825&lt;/b&gt;&lt;br&gt;Percentage identity: 95&lt;br&gt;Percentage coverage: 99&lt;br&gt;BLAST bit score: 533&lt;br&gt;E-value: 9.64e-192" locus_tag="HX832_RS26210" class="clusterblast-orf" id="dummy-3_h3_10_26"  />
</g>
<g id="a3_0027"  >
<polygon points="464,90 483,90 488,85 483,80 464,80 464,90 " style="fill:#c9d815; stroke-width:1; stroke:black; " description="&lt;b&gt;HX832_RS26205&lt;/b&gt;&lt;br&gt;MFS transporter&lt;br&gt;Location: 127570 - 126344&lt;br&gt;&lt;br&gt;&lt;b&gt;BlastP hit with JNAJGP_08830&lt;/b&gt;&lt;br&gt;Percentage identity: 94&lt;br&gt;Percentage coverage: 96&lt;br&gt;BLAST bit score: 733&lt;br&gt;E-value: 3.96e-267" locus_tag="HX832_RS26205" class="clusterblast-orf" id="dummy-3_h3_10_27"  />
</g>
<g id="a3_0028"  >
<polygon points="490,85 495,80 512,80 512,90 495,90 490,85 " style="fill:#15d88d; stroke-width:1; stroke:black; " description="&lt;b&gt;HX832_RS26200&lt;/b&gt;&lt;br&gt;uroporphyrinogen decarboxylase&lt;br&gt;Location: 126225 - 125158&lt;br&gt;&lt;br&gt;&lt;b&gt;BlastP hit with JNAJGP_08835&lt;/b&gt;&lt;br&gt;Percentage identity: 98&lt;br&gt;Percentage coverage: 100&lt;br&gt;BLAST bit score: 707&lt;br&gt;E-value: 1.11e-258" locus_tag="HX832_RS26200" class="clusterblast-orf" id="dummy-3_h3_10_28"  />
</g>
<g id="a3_0029"  >
<polygon points="514,85 519,80 542,80 542,90 519,90 514,85 " style="fill:#3315d8; stroke-width:1; stroke:black; " description="&lt;b&gt;HX832_RS26195&lt;/b&gt;&lt;br&gt;FAD-dependent oxidoreductase&lt;br&gt;Location: 125048 - 123630&lt;br&gt;&lt;br&gt;&lt;b&gt;BlastP hit with JNAJGP_08840&lt;/b&gt;&lt;br&gt;Percentage identity: 100&lt;br&gt;Percentage coverage: 100&lt;br&gt;BLAST bit score: 956&lt;br&gt;E-value: 0.0" locus_tag="HX832_RS26195" class="clusterblast-orf" id="dummy-3_h3_10_29"  />
</g>
<g id="a3_0030"  >
<polygon points="542,85 547,80 630,80 630,90 547,90 542,85 " style="fill:#d81551; stroke-width:1; stroke:black; " description="&lt;b&gt;HX832_RS26190&lt;/b&gt;&lt;br&gt;glutamate synthase large subunit&lt;br&gt;Location: 123597 - 119152&lt;br&gt;&lt;br&gt;&lt;b&gt;BlastP hit with JNAJGP_08845&lt;/b&gt;&lt;br&gt;Percentage identity: 99&lt;br&gt;Percentage coverage: 100&lt;br&gt;BLAST bit score: 2864&lt;br&gt;E-value: 0.0" locus_tag="HX832_RS26190" class="clusterblast-orf" id="dummy-3_h3_10_30"  />
</g>
<g id="a3_0031"  >
<polygon points="637,85 642,80 668,80 668,90 642,90 637,85 " style="fill:#abd815; stroke-width:1; stroke:black; " description="&lt;b&gt;HX832_RS26185&lt;/b&gt;&lt;br&gt;SPOR domain-containing protein&lt;br&gt;Location: 118798 - 117233&lt;br&gt;&lt;br&gt;&lt;b&gt;BlastP hit with JNAJGP_08850&lt;/b&gt;&lt;br&gt;Percentage identity: 92&lt;br&gt;Percentage coverage: 100&lt;br&gt;BLAST bit score: 855&lt;br&gt;E-value: 9.16e-312" locus_tag="HX832_RS26185" class="clusterblast-orf" id="dummy-3_h3_10_31"  />
</g>
<g id="a3_0032"  >
<polygon points="668,85 673,80 689,80 689,90 673,90 668,85 " style="fill:#15d8ab; stroke-width:1; stroke:black; " description="&lt;b&gt;HX832_RS26180&lt;/b&gt;&lt;br&gt;3-dehydroquinate synthase&lt;br&gt;Location: 117222 - 116122&lt;br&gt;&lt;br&gt;&lt;b&gt;BlastP hit with JNAJGP_08855&lt;/b&gt;&lt;br&gt;Percentage identity: 98&lt;br&gt;Percentage coverage: 100&lt;br&gt;BLAST bit score: 711&lt;br&gt;E-value: 7.82e-260" locus_tag="HX832_RS26180" class="clusterblast-orf" id="dummy-3_h3_10_32"  />
</g>
<g id="a3_0033"  >
<polygon points="692,85 697,80 702,80 702,90 697,90 692,85 " style="fill:#5115d8; stroke-width:1; stroke:black; " description="&lt;b&gt;HX832_RS26175&lt;/b&gt;&lt;br&gt;shikimate kinase AroK&lt;br&gt;Location: 115996 - 115487&lt;br&gt;&lt;br&gt;&lt;b&gt;BlastP hit with JNAJGP_08860&lt;/b&gt;&lt;br&gt;Percentage identity: 98&lt;br&gt;Percentage coverage: 100&lt;br&gt;BLAST bit score: 313&lt;br&gt;E-value: 4.68e-109" locus_tag="HX832_RS26175" class="clusterblast-orf" id="dummy-3_h3_10_33"  />
</g>
<g id="a3_0034"  >
<polygon points="702,85 707,80 728,80 728,90 707,90 702,85 " style="fill:#d81533; stroke-width:1; stroke:black; " description="&lt;b&gt;HX832_RS26170&lt;/b&gt;&lt;br&gt;type IV pilus secretin PilQ family protein&lt;br&gt;Location: 115473 - 114148&lt;br&gt;&lt;br&gt;&lt;b&gt;BlastP hit with JNAJGP_08865&lt;/b&gt;&lt;br&gt;Percentage identity: 92&lt;br&gt;Percentage coverage: 96&lt;br&gt;BLAST bit score: 768&lt;br&gt;E-value: 1.11e-279" locus_tag="HX832_RS26170" class="clusterblast-orf" id="dummy-3_h3_10_34"  />
</g>
<g id="a3_0035"  >
<polygon points="730,85 735,80 749,80 749,90 735,90 730,85 " style="fill:#8dd815; stroke-width:1; stroke:black; " description="&lt;b&gt;HX832_RS26165&lt;/b&gt;&lt;br&gt;pilus assembly protein PilP&lt;br&gt;Location: 114078 - 113119&lt;br&gt;&lt;br&gt;&lt;b&gt;BlastP hit with JNAJGP_08870&lt;/b&gt;&lt;br&gt;Percentage identity: 67&lt;br&gt;Percentage coverage: 100&lt;br&gt;BLAST bit score: 414&lt;br&gt;E-value: 6.44e-144" locus_tag="HX832_RS26165" class="clusterblast-orf" id="dummy-3_h3_10_35"  />
</g>
<g id="a3_0036"  >
<polygon points="749,85 754,80 759,80 759,90 754,90 749,85 " style="fill:#15d8c9; stroke-width:1; stroke:black; " description="&lt;b&gt;HX832_RS26160&lt;/b&gt;&lt;br&gt;PilN domain-containing protein&lt;br&gt;Location: 113122 - 112568&lt;br&gt;&lt;br&gt;&lt;b&gt;BlastP hit with JNAJGP_08875&lt;/b&gt;&lt;br&gt;Percentage identity: 80&lt;br&gt;Percentage coverage: 100&lt;br&gt;BLAST bit score: 266&lt;br&gt;E-value: 5e-90" locus_tag="HX832_RS26160" class="clusterblast-orf" id="dummy-3_h3_10_36"  />
</g>
<g id="a3_0037"  >
<polygon points="759,85 764,80 772,80 772,90 764,90 759,85 " style="fill:#6f15d8; stroke-width:1; stroke:black; " description="&lt;b&gt;HX832_RS26155&lt;/b&gt;&lt;br&gt;type IV pilus assembly protein PilM&lt;br&gt;Location: 112571 - 111918&lt;br&gt;&lt;br&gt;&lt;b&gt;BlastP hit with JNAJGP_08880&lt;/b&gt;&lt;br&gt;Percentage identity: 73&lt;br&gt;Percentage coverage: 100&lt;br&gt;BLAST bit score: 308&lt;br&gt;E-value: 1.45e-105" locus_tag="HX832_RS26155" class="clusterblast-orf" id="dummy-3_h3_10_37"  />
</g>
<g id="a3_0038"  >
<polygon points="773,85 776,80 776,90 773,85 " style="fill:white; stroke-width:1; stroke:black; " description="&lt;b&gt;HX832_RS26150&lt;/b&gt;&lt;br&gt;hypothetical protein&lt;br&gt;Location: 111894 - 111748" locus_tag="HX832_RS26150" class="clusterblast-orf" id="dummy-3_h3_10_38"  />
</g>
</svg>
