<svg xmlns="http://www.w3.org/2000/svg" xmlns:xlink="http://www.w3.org/1999/xlink" version="1.1" x="0" y="0" height="230" width="800" viewBox="0 0 800 230" preserveAspectRatio="none"  >
<g label="Query sequence" class="clusterblast-cluster"  >
<text x="5" y="20" class="clusterblast-acc"  >
Query sequence</text>
<line x1="10" y1="35" x2="778.0" y2="35" style="stroke-width:1; stroke:grey; "  />
<polygon points="14,40 37,40 42,35 37,30 14,30 14,40 " style="fill:#d81515; stroke-width:1; stroke:black; " description="&lt;b&gt;JNAJGP_08685&lt;/b&gt;&lt;br&gt;YdiU family protein&lt;br&gt;Location: 1807450 - 1808914" locus_tag="JNAJGP_08685" class="clusterblast-orf" id="dummy-3_q0_0_all"  />
<polygon points="42,35 47,30 50,30 50,40 47,40 42,35 " style="fill:#6fd815; stroke-width:1; stroke:black; " description="&lt;b&gt;JNAJGP_08690&lt;/b&gt;&lt;br&gt;Antitoxin HigA&lt;br&gt;Location: 1808932 - 1809334" locus_tag="JNAJGP_08690" class="clusterblast-orf" id="dummy-3_q1_0_all"  />
<polygon points="50,35 55,30 55,30 55,40 55,40 50,35 " style="fill:#15c9d8; stroke-width:1; stroke:black; " description="&lt;b&gt;JNAJGP_08695&lt;/b&gt;&lt;br&gt;mRNA interferase toxin HigB&lt;br&gt;Location: 1809341 - 1809629" locus_tag="JNAJGP_08695" class="clusterblast-orf" id="dummy-3_q2_0_all"  />
<polygon points="60,40 63,40 68,35 63,30 60,30 60,40 " style="fill:#8d15d8; stroke-width:1; stroke:black; " description="&lt;b&gt;JNAJGP_08700&lt;/b&gt;&lt;br&gt;thioredoxin TrxC&lt;br&gt;Location: 1809863 - 1810298" locus_tag="JNAJGP_08700" class="clusterblast-orf" id="dummy-3_q3_0_all"  />
<polygon points="70,35 75,30 75,30 75,40 75,40 70,35 " style="fill:#d83315; stroke-width:1; stroke:black; " description="&lt;b&gt;JNAJGP_08705&lt;/b&gt;&lt;br&gt;DUF3077 domain-containing protein&lt;br&gt;Location: 1810426 - 1810660" locus_tag="JNAJGP_08705" class="clusterblast-orf" id="dummy-3_q4_0_all"  />
<polygon points="82,35 87,30 97,30 97,40 87,40 82,35 " style="fill:#51d815; stroke-width:1; stroke:black; " description="&lt;b&gt;JNAJGP_08715&lt;/b&gt;&lt;br&gt;ParA-like ATPase involved in chromosome/plasmid partitioning or cellulose biosynthesis protein BcsQ&lt;br&gt;Location: 1811037 - 1811808" locus_tag="JNAJGP_08715" class="clusterblast-orf" id="dummy-3_q5_0_all"  />
<polygon points="103,40 112,40 117,35 112,30 103,30 103,40 " style="fill:#15abd8; stroke-width:1; stroke:black; " description="&lt;b&gt;JNAJGP_08720&lt;/b&gt;&lt;br&gt;Beta-ketoacyl synthase N-terminal domain-containing protein&lt;br&gt;Location: 1812135 - 1812855" locus_tag="JNAJGP_08720" class="clusterblast-orf" id="dummy-3_q6_0_all"  />
<polygon points="116,40 126,40 131,35 126,30 116,30 116,40 " style="fill:#ab15d8; stroke-width:1; stroke:black; " description="&lt;b&gt;JNAJGP_08725&lt;/b&gt;&lt;br&gt;Phospholipid/glycerol acyltransferase domain-containing protein&lt;br&gt;Location: 1812830 - 1813643" locus_tag="JNAJGP_08725" class="clusterblast-orf" id="dummy-3_q7_0_all"  />
<polygon points="131,40 131,40 136,35 131,30 131,30 131,40 " style="fill:#d85115; stroke-width:1; stroke:black; " description="&lt;b&gt;JNAJGP_08730&lt;/b&gt;&lt;br&gt;Acyl carrier protein&lt;br&gt;Location: 1813620 - 1813890" locus_tag="JNAJGP_08730" class="clusterblast-orf" id="dummy-3_q8_0_all"  />
<polygon points="136,40 136,40 141,35 136,30 136,30 136,40 " style="fill:#33d815; stroke-width:1; stroke:black; " description="&lt;b&gt;JNAJGP_08735&lt;/b&gt;&lt;br&gt;acyl carrier protein&lt;br&gt;Location: 1813899 - 1814154" locus_tag="JNAJGP_08735" class="clusterblast-orf" id="dummy-3_q9_0_all"  />
<polygon points="141,40 146,40 151,35 146,30 141,30 141,40 " style="fill:#158dd8; stroke-width:1; stroke:black; " description="&lt;b&gt;JNAJGP_08740&lt;/b&gt;&lt;br&gt;Intracellular septation protein a&lt;br&gt;Location: 1814150 - 1814696" locus_tag="JNAJGP_08740" class="clusterblast-orf" id="dummy-3_q10_0_all"  />
<polygon points="151,40 178,40 183,35 178,30 151,30 151,40 " style="fill:#c915d8; stroke-width:1; stroke:black; " description="&lt;b&gt;JNAJGP_08745&lt;/b&gt;&lt;br&gt;Acetyl-coenzyme A synthetase&lt;br&gt;Location: 1814692 - 1816363" locus_tag="JNAJGP_08745" class="clusterblast-orf" id="dummy-3_q11_0_all"  />
<polygon points="186,40 195,40 200,35 195,30 186,30 186,40 " style="fill:#d86f15; stroke-width:1; stroke:black; " description="&lt;b&gt;JNAJGP_08750&lt;/b&gt;&lt;br&gt;Glycosyl transferase&lt;br&gt;Location: 1816530 - 1817265" locus_tag="JNAJGP_08750" class="clusterblast-orf" id="dummy-3_q12_0_all"  />
<polygon points="200,40 213,40 218,35 213,30 200,30 200,40 " style="fill:#15d815; stroke-width:1; stroke:black; " description="&lt;b&gt;JNAJGP_08755&lt;/b&gt;&lt;br&gt;Glycosyl transferase&lt;br&gt;Location: 1817261 - 1818197" locus_tag="JNAJGP_08755" class="clusterblast-orf" id="dummy-3_q13_0_all"  />
<polygon points="218,40 242,40 247,35 242,30 218,30 218,40 " style="fill:#156fd8; stroke-width:1; stroke:black; " description="&lt;b&gt;JNAJGP_08760&lt;/b&gt;&lt;br&gt;Histidine ammonia-lyase&lt;br&gt;Location: 1818180 - 1819722" locus_tag="JNAJGP_08760" class="clusterblast-orf" id="dummy-3_q14_0_all"  />
<polygon points="247,40 250,40 255,35 250,30 247,30 247,40 " style="fill:#d815c9; stroke-width:1; stroke:black; " description="&lt;b&gt;JNAJGP_08765&lt;/b&gt;&lt;br&gt;Thioesterase domain-containing protein&lt;br&gt;Location: 1819714 - 1820140" locus_tag="JNAJGP_08765" class="clusterblast-orf" id="dummy-3_q15_0_all"  />
<polygon points="255,40 261,40 266,35 261,30 255,30 255,40 " style="fill:#d88d15; stroke-width:1; stroke:black; " description="&lt;b&gt;JNAJGP_08770&lt;/b&gt;&lt;br&gt;Outer membrane lipoprotein carrier protein LolA&lt;br&gt;Location: 1820136 - 1820727" locus_tag="JNAJGP_08770" class="clusterblast-orf" id="dummy-3_q16_0_all"  />
<polygon points="266,40 305,40 310,35 305,30 266,30 266,40 " style="fill:#15d833; stroke-width:1; stroke:black; " description="&lt;b&gt;JNAJGP_08775&lt;/b&gt;&lt;br&gt;Membrane transport protein MMPL domain-containing protein&lt;br&gt;Location: 1820716 - 1823029" locus_tag="JNAJGP_08775" class="clusterblast-orf" id="dummy-3_q17_0_all"  />
<polygon points="310,40 329,40 334,35 329,30 310,30 310,40 " style="fill:#1551d8; stroke-width:1; stroke:black; " description="&lt;b&gt;JNAJGP_08780&lt;/b&gt;&lt;br&gt;FAD-binding domain-containing protein&lt;br&gt;Location: 1823062 - 1824310" locus_tag="JNAJGP_08780" class="clusterblast-orf" id="dummy-3_q18_0_all"  />
<polygon points="334,40 343,40 348,35 343,30 334,30 334,40 " style="fill:#d815ab; stroke-width:1; stroke:black; " description="&lt;b&gt;JNAJGP_08785&lt;/b&gt;&lt;br&gt;Methyltransferase type 11 domain-containing protein&lt;br&gt;Location: 1824306 - 1825041" locus_tag="JNAJGP_08785" class="clusterblast-orf" id="dummy-3_q19_0_all"  />
<polygon points="348,40 352,40 357,35 352,30 348,30 348,40 " style="fill:#d8ab15; stroke-width:1; stroke:black; " description="&lt;b&gt;JNAJGP_08790&lt;/b&gt;&lt;br&gt;Lipoprotein&lt;br&gt;Location: 1825037 - 1825520" locus_tag="JNAJGP_08790" class="clusterblast-orf" id="dummy-3_q20_0_all"  />
<polygon points="357,40 374,40 379,35 374,30 357,30 357,40 " style="fill:#15d851; stroke-width:1; stroke:black; " description="&lt;b&gt;JNAJGP_08795&lt;/b&gt;&lt;br&gt;3-oxoacyl-(Acyl carrier protein) synthase&lt;br&gt;Location: 1825516 - 1826683" locus_tag="JNAJGP_08795" class="clusterblast-orf" id="dummy-3_q21_0_all"  />
<polygon points="379,40 383,40 388,35 383,30 379,30 379,40 " style="fill:#1533d8; stroke-width:1; stroke:black; " description="&lt;b&gt;JNAJGP_08800&lt;/b&gt;&lt;br&gt;3-hydroxydecanoyl-(ACP) dehydratase&lt;br&gt;Location: 1826679 - 1827141" locus_tag="JNAJGP_08800" class="clusterblast-orf" id="dummy-3_q22_0_all"  />
<polygon points="388,40 396,40 401,35 396,30 388,30 388,40 " style="fill:#d8158d; stroke-width:1; stroke:black; " description="&lt;b&gt;JNAJGP_08805&lt;/b&gt;&lt;br&gt;3-oxoacyl-ACP reductase FabG&lt;br&gt;Location: 1827137 - 1827866" locus_tag="JNAJGP_08805" class="clusterblast-orf" id="dummy-3_q23_0_all"  />
<polygon points="401,40 420,40 425,35 420,30 401,30 401,40 " style="fill:#d8c915; stroke-width:1; stroke:black; " description="&lt;b&gt;JNAJGP_08810&lt;/b&gt;&lt;br&gt;beta-ketoacyl-ACP synthase&lt;br&gt;Location: 1827865 - 1829092" locus_tag="JNAJGP_08810" class="clusterblast-orf" id="dummy-3_q24_0_all"  />
<polygon points="425,40 429,40 434,35 429,30 425,30 425,40 " style="fill:#15d86f; stroke-width:1; stroke:black; " description="&lt;b&gt;JNAJGP_08815&lt;/b&gt;&lt;br&gt;Lipoprotein&lt;br&gt;Location: 1829118 - 1829571" locus_tag="JNAJGP_08815" class="clusterblast-orf" id="dummy-3_q25_0_all"  />
<polygon points="438,35 443,30 445,30 445,40 443,40 438,35 " style="fill:#1515d8; stroke-width:1; stroke:black; " description="&lt;b&gt;JNAJGP_08820&lt;/b&gt;&lt;br&gt;Type II toxin-antitoxin system PemK/MazF family toxin&lt;br&gt;Location: 1829787 - 1830171" locus_tag="JNAJGP_08820" class="clusterblast-orf" id="dummy-3_q26_0_all"  />
<polygon points="447,35 452,30 464,30 464,40 452,40 447,35 " style="fill:#d8156f; stroke-width:1; stroke:black; " description="&lt;b&gt;JNAJGP_08825&lt;/b&gt;&lt;br&gt;HTH lysR-type domain-containing protein&lt;br&gt;Location: 1830258 - 1831152" locus_tag="JNAJGP_08825" class="clusterblast-orf" id="dummy-3_q27_0_all"  />
<polygon points="466,40 485,40 490,35 485,30 466,30 466,40 " style="fill:#c9d815; stroke-width:1; stroke:black; " description="&lt;b&gt;JNAJGP_08830&lt;/b&gt;&lt;br&gt;Major facilitator superfamily (MFS) profile domain-containing protein&lt;br&gt;Location: 1831274 - 1832549" locus_tag="JNAJGP_08830" class="clusterblast-orf" id="dummy-3_q28_0_all"  />
<polygon points="491,35 496,30 512,30 512,40 496,40 491,35 " style="fill:#15d88d; stroke-width:1; stroke:black; " description="&lt;b&gt;JNAJGP_08835&lt;/b&gt;&lt;br&gt;uroporphyrinogen decarboxylase&lt;br&gt;Location: 1832609 - 1833677" locus_tag="JNAJGP_08835" class="clusterblast-orf" id="dummy-3_q29_0_all"  />
<polygon points="516,35 521,30 543,30 543,40 521,40 516,35 " style="fill:#3315d8; stroke-width:1; stroke:black; " description="&lt;b&gt;JNAJGP_08840&lt;/b&gt;&lt;br&gt;NADPH-dependent glutamate synthase beta chain or related oxidoreductase&lt;br&gt;Location: 1833919 - 1835338" locus_tag="JNAJGP_08840" class="clusterblast-orf" id="dummy-3_q30_0_all"  />
<polygon points="544,35 549,30 628,30 628,40 549,40 544,35 " style="fill:#d81551; stroke-width:1; stroke:black; " description="&lt;b&gt;JNAJGP_08845&lt;/b&gt;&lt;br&gt;Glutamate synthase large subunit&lt;br&gt;Location: 1835370 - 1839816" locus_tag="JNAJGP_08845" class="clusterblast-orf" id="dummy-3_q31_0_all"  />
<polygon points="635,35 640,30 665,30 665,40 640,40 635,35 " style="fill:#abd815; stroke-width:1; stroke:black; " description="&lt;b&gt;JNAJGP_08850&lt;/b&gt;&lt;br&gt;General secretion pathway protein a&lt;br&gt;Location: 1840170 - 1841733" locus_tag="JNAJGP_08850" class="clusterblast-orf" id="dummy-3_q32_0_all"  />
<polygon points="665,35 670,30 686,30 686,40 670,40 665,35 " style="fill:#15d8ab; stroke-width:1; stroke:black; " description="&lt;b&gt;JNAJGP_08855&lt;/b&gt;&lt;br&gt;3-dehydroquinate synthase&lt;br&gt;Location: 1841743 - 1842844" locus_tag="JNAJGP_08855" class="clusterblast-orf" id="dummy-3_q33_0_all"  />
<polygon points="688,35 693,30 697,30 697,40 693,40 688,35 " style="fill:#5115d8; stroke-width:1; stroke:black; " description="&lt;b&gt;JNAJGP_08860&lt;/b&gt;&lt;br&gt;shikimate kinase AroK&lt;br&gt;Location: 1842959 - 1843451" locus_tag="JNAJGP_08860" class="clusterblast-orf" id="dummy-3_q34_0_all"  />
<polygon points="698,35 703,30 724,30 724,40 703,40 698,35 " style="fill:#d81533; stroke-width:1; stroke:black; " description="&lt;b&gt;JNAJGP_08865&lt;/b&gt;&lt;br&gt;Type IV fimbriae biogenesis protein&lt;br&gt;Location: 1843482 - 1844865" locus_tag="JNAJGP_08865" class="clusterblast-orf" id="dummy-3_q35_0_all"  />
<polygon points="724,35 729,30 743,30 743,40 729,40 724,35 " style="fill:#8dd815; stroke-width:1; stroke:black; " description="&lt;b&gt;JNAJGP_08870&lt;/b&gt;&lt;br&gt;Pilus assembly protein&lt;br&gt;Location: 1844878 - 1845850" locus_tag="JNAJGP_08870" class="clusterblast-orf" id="dummy-3_q36_0_all"  />
<polygon points="743,35 748,30 753,30 753,40 748,40 743,35 " style="fill:#15d8c9; stroke-width:1; stroke:black; " description="&lt;b&gt;JNAJGP_08875&lt;/b&gt;&lt;br&gt;Type IV pilus assembly protein&lt;br&gt;Location: 1845846 - 1846401" locus_tag="JNAJGP_08875" class="clusterblast-orf" id="dummy-3_q37_0_all"  />
<polygon points="753,35 758,30 765,30 765,40 758,40 753,35 " style="fill:#6f15d8; stroke-width:1; stroke:black; " description="&lt;b&gt;JNAJGP_08880&lt;/b&gt;&lt;br&gt;Type IV pilus assembly protein&lt;br&gt;Location: 1846397 - 1847051" locus_tag="JNAJGP_08880" class="clusterblast-orf" id="dummy-3_q38_0_all"  />
</g>
<g label="NZ_CP011117" description="NZ_CP011117 (3911944-3955520): Pseudomonas synxantha strain LBUM223 chromosom... (95% of genes show similarity), arylpolyene" class="clusterblast-cluster"  >
<text x="5" y="70" class="clusterblast-acc"  >
<a xlink:href="https://antismash-db.secondarymetabolites.org/area?record=NZ_CP011117&amp;start=3911944&amp;end=3955520" target="_blank">NZ_CP011117 (3911944-3955520)</a>: Pseudomonas synxantha strain LBUM223 chromosom... (95% of genes show similarity), arylpolyene</text>
<line x1="10" y1="85" x2="778.0" y2="85" style="stroke-width:1; stroke:grey; "  />
</g>
<g id="a3_000"  >
<polygon points="0,90 22,90 27,85 22,80 0,80 0,90 " style="fill:#d81515; stroke-width:1; stroke:black; " description="&lt;b&gt;VO64_RS18690&lt;/b&gt;&lt;br&gt;YdiU family protein&lt;br&gt;Location: 3953579 - 3952116&lt;br&gt;&lt;br&gt;&lt;b&gt;BlastP hit with JNAJGP_08685&lt;/b&gt;&lt;br&gt;Percentage identity: 95&lt;br&gt;Percentage coverage: 100&lt;br&gt;BLAST bit score: 936&lt;br&gt;E-value: 0.0" locus_tag="VO64_RS18690" class="clusterblast-orf" id="dummy-3_h3_7_0"  />
</g>
<g id="a3_001"  >
<polygon points="27,85 32,80 35,80 35,90 32,90 27,85 " style="fill:#6fd815; stroke-width:1; stroke:black; " description="&lt;b&gt;VO64_RS18685&lt;/b&gt;&lt;br&gt;transcriptional regulator&lt;br&gt;Location: 3952111 - 3951710&lt;br&gt;&lt;br&gt;&lt;b&gt;BlastP hit with JNAJGP_08690&lt;/b&gt;&lt;br&gt;Percentage identity: 74&lt;br&gt;Percentage coverage: 100&lt;br&gt;BLAST bit score: 198&lt;br&gt;E-value: 1.1e-64" locus_tag="VO64_RS18685" class="clusterblast-orf" id="dummy-3_h3_7_1"  />
</g>
<g id="a3_002"  >
<polygon points="35,85 40,80 41,80 41,90 40,90 35,85 " style="fill:#15c9d8; stroke-width:1; stroke:black; " description="&lt;b&gt;VO64_RS18680&lt;/b&gt;&lt;br&gt;type II toxin-antitoxin system HigB family toxin&lt;br&gt;Location: 3951713 - 3951417&lt;br&gt;&lt;br&gt;&lt;b&gt;BlastP hit with JNAJGP_08695&lt;/b&gt;&lt;br&gt;Percentage identity: 68&lt;br&gt;Percentage coverage: 100&lt;br&gt;BLAST bit score: 138&lt;br&gt;E-value: 3.31e-42" locus_tag="VO64_RS18680" class="clusterblast-orf" id="dummy-3_h3_7_2"  />
</g>
<g id="a3_003"  >
<polygon points="45,90 48,90 53,85 48,80 45,80 45,90 " style="fill:#8d15d8; stroke-width:1; stroke:black; " description="&lt;b&gt;VO64_RS18675&lt;/b&gt;&lt;br&gt;thioredoxin TrxC&lt;br&gt;Location: 3951194 - 3950760&lt;br&gt;&lt;br&gt;&lt;b&gt;BlastP hit with JNAJGP_08700&lt;/b&gt;&lt;br&gt;Percentage identity: 98&lt;br&gt;Percentage coverage: 100&lt;br&gt;BLAST bit score: 296&lt;br&gt;E-value: 2.3e-103" locus_tag="VO64_RS18675" class="clusterblast-orf" id="dummy-3_h3_7_3"  />
</g>
<g id="a3_004"  >
<polygon points="55,85 60,80 60,80 60,90 60,90 55,85 " style="fill:#d83315; stroke-width:1; stroke:black; " description="&lt;b&gt;VO64_RS18670&lt;/b&gt;&lt;br&gt;DUF6124 family protein&lt;br&gt;Location: 3950629 - 3950408&lt;br&gt;&lt;br&gt;&lt;b&gt;BlastP hit with JNAJGP_08705&lt;/b&gt;&lt;br&gt;Percentage identity: 88&lt;br&gt;Percentage coverage: 88&lt;br&gt;BLAST bit score: 123&lt;br&gt;E-value: 9.63e-37" locus_tag="VO64_RS18670" class="clusterblast-orf" id="dummy-3_h3_7_4"  />
</g>
<g id="a3_005"  >
<polygon points="68,85 73,80 83,80 83,90 73,90 68,85 " style="fill:#51d815; stroke-width:1; stroke:black; " description="&lt;b&gt;VO64_RS18665&lt;/b&gt;&lt;br&gt;ParA family protein&lt;br&gt;Location: 3949945 - 3949175&lt;br&gt;&lt;br&gt;&lt;b&gt;BlastP hit with JNAJGP_08715&lt;/b&gt;&lt;br&gt;Percentage identity: 99&lt;br&gt;Percentage coverage: 100&lt;br&gt;BLAST bit score: 497&lt;br&gt;E-value: 4.32e-179" locus_tag="VO64_RS18665" class="clusterblast-orf" id="dummy-3_h3_7_5"  />
</g>
<g id="a3_006"  >
<polygon points="89,90 98,90 103,85 98,80 89,80 89,90 " style="fill:#15abd8; stroke-width:1; stroke:black; " description="&lt;b&gt;VO64_RS18660&lt;/b&gt;&lt;br&gt;beta-ketoacyl synthase chain length factor&lt;br&gt;Location: 3948837 - 3948115&lt;br&gt;&lt;br&gt;&lt;b&gt;BlastP hit with JNAJGP_08720&lt;/b&gt;&lt;br&gt;Percentage identity: 93&lt;br&gt;Percentage coverage: 100&lt;br&gt;BLAST bit score: 451&lt;br&gt;E-value: 2.38e-161" locus_tag="VO64_RS18660" class="clusterblast-orf" id="dummy-3_h3_7_6"  />
</g>
<g id="a3_007"  >
<polygon points="103,90 113,90 118,85 113,80 103,80 103,90 " style="fill:#ab15d8; stroke-width:1; stroke:black; " description="&lt;b&gt;VO64_RS18655&lt;/b&gt;&lt;br&gt;lysophospholipid acyltransferase family protein&lt;br&gt;Location: 3948139 - 3947327&lt;br&gt;&lt;br&gt;&lt;b&gt;BlastP hit with JNAJGP_08725&lt;/b&gt;&lt;br&gt;Percentage identity: 93&lt;br&gt;Percentage coverage: 100&lt;br&gt;BLAST bit score: 508&lt;br&gt;E-value: 4.82e-183" locus_tag="VO64_RS18655" class="clusterblast-orf" id="dummy-3_h3_7_7"  />
</g>
<g id="a3_008"  >
<polygon points="118,90 118,90 123,85 118,80 118,80 118,90 " style="fill:#d85115; stroke-width:1; stroke:black; " description="&lt;b&gt;VO64_RS18650&lt;/b&gt;&lt;br&gt;phosphopantetheine-binding protein&lt;br&gt;Location: 3947349 - 3947080&lt;br&gt;&lt;br&gt;&lt;b&gt;BlastP hit with JNAJGP_08730&lt;/b&gt;&lt;br&gt;Percentage identity: 93&lt;br&gt;Percentage coverage: 100&lt;br&gt;BLAST bit score: 157&lt;br&gt;E-value: 4.68e-50" locus_tag="VO64_RS18650" class="clusterblast-orf" id="dummy-3_h3_7_8"  />
</g>
<g id="a3_009"  >
<polygon points="123,90 123,90 128,85 123,80 123,80 123,90 " style="fill:#33d815; stroke-width:1; stroke:black; " description="&lt;b&gt;VO64_RS18645&lt;/b&gt;&lt;br&gt;acyl carrier protein&lt;br&gt;Location: 3947070 - 3946816&lt;br&gt;&lt;br&gt;&lt;b&gt;BlastP hit with JNAJGP_08735&lt;/b&gt;&lt;br&gt;Percentage identity: 98&lt;br&gt;Percentage coverage: 100&lt;br&gt;BLAST bit score: 155&lt;br&gt;E-value: 3.83e-49" locus_tag="VO64_RS18645" class="clusterblast-orf" id="dummy-3_h3_7_9"  />
</g>
<g id="a3_0010"  >
<polygon points="128,90 133,90 138,85 133,80 128,80 128,90 " style="fill:#158dd8; stroke-width:1; stroke:black; " description="&lt;b&gt;VO64_RS18640&lt;/b&gt;&lt;br&gt;membrane protein&lt;br&gt;Location: 3946819 - 3946274&lt;br&gt;&lt;br&gt;&lt;b&gt;BlastP hit with JNAJGP_08740&lt;/b&gt;&lt;br&gt;Percentage identity: 94&lt;br&gt;Percentage coverage: 100&lt;br&gt;BLAST bit score: 348&lt;br&gt;E-value: 1.97e-122" locus_tag="VO64_RS18640" class="clusterblast-orf" id="dummy-3_h3_7_10"  />
</g>
<g id="a3_0011"  >
<polygon points="138,90 165,90 170,85 165,80 138,80 138,90 " style="fill:#c915d8; stroke-width:1; stroke:black; " description="&lt;b&gt;VO64_RS18635&lt;/b&gt;&lt;br&gt;acyl-CoA synthetase family protein&lt;br&gt;Location: 3946277 - 3944607&lt;br&gt;&lt;br&gt;&lt;b&gt;BlastP hit with JNAJGP_08745&lt;/b&gt;&lt;br&gt;Percentage identity: 91&lt;br&gt;Percentage coverage: 100&lt;br&gt;BLAST bit score: 1020&lt;br&gt;E-value: 0.0" locus_tag="VO64_RS18635" class="clusterblast-orf" id="dummy-3_h3_7_11"  />
</g>
<g id="a3_0012"  >
<polygon points="170,90 179,90 184,85 179,80 170,80 170,90 " style="fill:#d86f15; stroke-width:1; stroke:black; " description="&lt;b&gt;VO64_RS18630&lt;/b&gt;&lt;br&gt;glycosyltransferase family 2 protein&lt;br&gt;Location: 3944614 - 3943880&lt;br&gt;&lt;br&gt;&lt;b&gt;BlastP hit with JNAJGP_08750&lt;/b&gt;&lt;br&gt;Percentage identity: 93&lt;br&gt;Percentage coverage: 100&lt;br&gt;BLAST bit score: 477&lt;br&gt;E-value: 1.45e-171" locus_tag="VO64_RS18630" class="clusterblast-orf" id="dummy-3_h3_7_12"  />
</g>
<g id="a3_0013"  >
<polygon points="183,90 196,90 201,85 196,80 183,80 183,90 " style="fill:#15d815; stroke-width:1; stroke:black; " description="&lt;b&gt;VO64_RS18625&lt;/b&gt;&lt;br&gt;glycosyl transferase&lt;br&gt;Location: 3943883 - 3942948&lt;br&gt;&lt;br&gt;&lt;b&gt;BlastP hit with JNAJGP_08755&lt;/b&gt;&lt;br&gt;Percentage identity: 90&lt;br&gt;Percentage coverage: 100&lt;br&gt;BLAST bit score: 581&lt;br&gt;E-value: 1.78e-210" locus_tag="VO64_RS18625" class="clusterblast-orf" id="dummy-3_h3_7_13"  />
</g>
<g id="a3_0014"  >
<polygon points="201,90 225,90 230,85 225,80 201,80 201,90 " style="fill:#156fd8; stroke-width:1; stroke:black; " description="&lt;b&gt;VO64_RS18620&lt;/b&gt;&lt;br&gt;aromatic amino acid ammonia-lyase&lt;br&gt;Location: 3942964 - 3941423&lt;br&gt;&lt;br&gt;&lt;b&gt;BlastP hit with JNAJGP_08760&lt;/b&gt;&lt;br&gt;Percentage identity: 98&lt;br&gt;Percentage coverage: 100&lt;br&gt;BLAST bit score: 989&lt;br&gt;E-value: 0.0" locus_tag="VO64_RS18620" class="clusterblast-orf" id="dummy-3_h3_7_14"  />
</g>
<g id="a3_0015"  >
<polygon points="230,90 233,90 238,85 233,80 230,80 230,90 " style="fill:#d815c9; stroke-width:1; stroke:black; " description="&lt;b&gt;VO64_RS18615&lt;/b&gt;&lt;br&gt;acyl-CoA thioesterase&lt;br&gt;Location: 3941430 - 3941005&lt;br&gt;&lt;br&gt;&lt;b&gt;BlastP hit with JNAJGP_08765&lt;/b&gt;&lt;br&gt;Percentage identity: 96&lt;br&gt;Percentage coverage: 99&lt;br&gt;BLAST bit score: 273&lt;br&gt;E-value: 2.61e-94" locus_tag="VO64_RS18615" class="clusterblast-orf" id="dummy-3_h3_7_15"  />
</g>
<g id="a3_0016"  >
<polygon points="239,90 246,90 251,85 246,80 239,80 239,90 " style="fill:#d88d15; stroke-width:1; stroke:black; " description="&lt;b&gt;VO64_RS18610&lt;/b&gt;&lt;br&gt;outer membrane lipoprotein carrier protein LolA&lt;br&gt;Location: 3940975 - 3940325&lt;br&gt;&lt;br&gt;&lt;b&gt;BlastP hit with JNAJGP_08770&lt;/b&gt;&lt;br&gt;Percentage identity: 90&lt;br&gt;Percentage coverage: 96&lt;br&gt;BLAST bit score: 332&lt;br&gt;E-value: 1.55e-115" locus_tag="VO64_RS18610" class="clusterblast-orf" id="dummy-3_h3_7_16"  />
</g>
<g id="a3_0017"  >
<polygon points="250,90 290,90 295,85 290,80 250,80 250,90 " style="fill:#15d833; stroke-width:1; stroke:black; " description="&lt;b&gt;VO64_RS18605&lt;/b&gt;&lt;br&gt;MMPL family transporter&lt;br&gt;Location: 3940353 - 3938023&lt;br&gt;&lt;br&gt;&lt;b&gt;BlastP hit with JNAJGP_08775&lt;/b&gt;&lt;br&gt;Percentage identity: 92&lt;br&gt;Percentage coverage: 100&lt;br&gt;BLAST bit score: 1340&lt;br&gt;E-value: 0.0" locus_tag="VO64_RS18605" class="clusterblast-orf" id="dummy-3_h3_7_17"  />
</g>
<g id="a3_0018"  >
<polygon points="295,90 314,90 319,85 314,80 295,80 295,90 " style="fill:#1551d8; stroke-width:1; stroke:black; " description="&lt;b&gt;VO64_RS18600&lt;/b&gt;&lt;br&gt;NAD(P)/FAD-dependent oxidoreductase&lt;br&gt;Location: 3937989 - 3936742&lt;br&gt;&lt;br&gt;&lt;b&gt;BlastP hit with JNAJGP_08780&lt;/b&gt;&lt;br&gt;Percentage identity: 93&lt;br&gt;Percentage coverage: 100&lt;br&gt;BLAST bit score: 793&lt;br&gt;E-value: 6.09e-291" locus_tag="VO64_RS18600" class="clusterblast-orf" id="dummy-3_h3_7_18"  />
</g>
<g id="a3_0019"  >
<polygon points="319,90 328,90 333,85 328,80 319,80 319,90 " style="fill:#d815ab; stroke-width:1; stroke:black; " description="&lt;b&gt;VO64_RS18595&lt;/b&gt;&lt;br&gt;class I SAM-dependent methyltransferase&lt;br&gt;Location: 3936745 - 3935996&lt;br&gt;&lt;br&gt;&lt;b&gt;BlastP hit with JNAJGP_08785&lt;/b&gt;&lt;br&gt;Percentage identity: 89&lt;br&gt;Percentage coverage: 98&lt;br&gt;BLAST bit score: 455&lt;br&gt;E-value: 8.49e-163" locus_tag="VO64_RS18595" class="clusterblast-orf" id="dummy-3_h3_7_19"  />
</g>
<g id="a3_0020"  >
<polygon points="333,90 337,90 342,85 337,80 333,80 333,90 " style="fill:#d8ab15; stroke-width:1; stroke:black; " description="&lt;b&gt;VO64_RS18590&lt;/b&gt;&lt;br&gt;hypothetical protein&lt;br&gt;Location: 3935999 - 3935517&lt;br&gt;&lt;br&gt;&lt;b&gt;BlastP hit with JNAJGP_08790&lt;/b&gt;&lt;br&gt;Percentage identity: 89&lt;br&gt;Percentage coverage: 100&lt;br&gt;BLAST bit score: 284&lt;br&gt;E-value: 5.82e-98" locus_tag="VO64_RS18590" class="clusterblast-orf" id="dummy-3_h3_7_20"  />
</g>
<g id="a3_0021"  >
<polygon points="342,90 359,90 364,85 359,80 342,80 342,90 " style="fill:#15d851; stroke-width:1; stroke:black; " description="&lt;b&gt;VO64_RS18585&lt;/b&gt;&lt;br&gt;beta-ketoacyl-[acyl-carrier-protein] synthase family protein&lt;br&gt;Location: 3935520 - 3934354&lt;br&gt;&lt;br&gt;&lt;b&gt;BlastP hit with JNAJGP_08795&lt;/b&gt;&lt;br&gt;Percentage identity: 88&lt;br&gt;Percentage coverage: 100&lt;br&gt;BLAST bit score: 682&lt;br&gt;E-value: 8.15e-248" locus_tag="VO64_RS18585" class="clusterblast-orf" id="dummy-3_h3_7_21"  />
</g>
<g id="a3_0022"  >
<polygon points="364,90 368,90 373,85 368,80 364,80 364,90 " style="fill:#1533d8; stroke-width:1; stroke:black; " description="&lt;b&gt;VO64_RS18580&lt;/b&gt;&lt;br&gt;hotdog family protein&lt;br&gt;Location: 3934357 - 3933896&lt;br&gt;&lt;br&gt;&lt;b&gt;BlastP hit with JNAJGP_08800&lt;/b&gt;&lt;br&gt;Percentage identity: 90&lt;br&gt;Percentage coverage: 99&lt;br&gt;BLAST bit score: 283&lt;br&gt;E-value: 1.4e-97" locus_tag="VO64_RS18580" class="clusterblast-orf" id="dummy-3_h3_7_22"  />
</g>
<g id="a3_0023"  >
<polygon points="373,90 382,90 387,85 382,80 373,80 373,90 " style="fill:#d8158d; stroke-width:1; stroke:black; " description="&lt;b&gt;VO64_RS18575&lt;/b&gt;&lt;br&gt;3-oxoacyl-ACP reductase FabG&lt;br&gt;Location: 3933899 - 3933171&lt;br&gt;&lt;br&gt;&lt;b&gt;BlastP hit with JNAJGP_08805&lt;/b&gt;&lt;br&gt;Percentage identity: 97&lt;br&gt;Percentage coverage: 100&lt;br&gt;BLAST bit score: 455&lt;br&gt;E-value: 6.08e-163" locus_tag="VO64_RS18575" class="clusterblast-orf" id="dummy-3_h3_7_23"  />
</g>
<g id="a3_0024"  >
<polygon points="387,90 405,90 410,85 405,80 387,80 387,90 " style="fill:#d8c915; stroke-width:1; stroke:black; " description="&lt;b&gt;VO64_RS18570&lt;/b&gt;&lt;br&gt;beta-ketoacyl-ACP synthase&lt;br&gt;Location: 3933171 - 3931945&lt;br&gt;&lt;br&gt;&lt;b&gt;BlastP hit with JNAJGP_08810&lt;/b&gt;&lt;br&gt;Percentage identity: 97&lt;br&gt;Percentage coverage: 100&lt;br&gt;BLAST bit score: 800&lt;br&gt;E-value: 1.28e-293" locus_tag="VO64_RS18570" class="clusterblast-orf" id="dummy-3_h3_7_24"  />
</g>
<g id="a3_0025"  >
<polygon points="411,90 413,90 418,85 413,80 411,80 411,90 " style="fill:#15d86f; stroke-width:1; stroke:black; " description="&lt;b&gt;VO64_RS18565&lt;/b&gt;&lt;br&gt;hypothetical protein&lt;br&gt;Location: 3931918 - 3931523&lt;br&gt;&lt;br&gt;&lt;b&gt;BlastP hit with JNAJGP_08815&lt;/b&gt;&lt;br&gt;Percentage identity: 87&lt;br&gt;Percentage coverage: 87&lt;br&gt;BLAST bit score: 215&lt;br&gt;E-value: 4e-71" locus_tag="VO64_RS18565" class="clusterblast-orf" id="dummy-3_h3_7_25"  />
</g>
<g id="a3_0026"  >
<polygon points="422,85 427,80 429,80 429,90 427,90 422,85 " style="fill:#1515d8; stroke-width:1; stroke:black; " description="&lt;b&gt;VO64_RS18560&lt;/b&gt;&lt;br&gt;type II toxin-antitoxin system PemK/MazF family toxin&lt;br&gt;Location: 3931319 - 3930933&lt;br&gt;&lt;br&gt;&lt;b&gt;BlastP hit with JNAJGP_08820&lt;/b&gt;&lt;br&gt;Percentage identity: 90&lt;br&gt;Percentage coverage: 100&lt;br&gt;BLAST bit score: 228&lt;br&gt;E-value: 9.42e-77" locus_tag="VO64_RS18560" class="clusterblast-orf" id="dummy-3_h3_7_26"  />
</g>
<g id="a3_0027"  >
<polygon points="431,85 436,80 448,80 448,90 436,90 431,85 " style="fill:#d8156f; stroke-width:1; stroke:black; " description="&lt;b&gt;VO64_RS18555&lt;/b&gt;&lt;br&gt;LysR family transcriptional regulator&lt;br&gt;Location: 3930844 - 3929951&lt;br&gt;&lt;br&gt;&lt;b&gt;BlastP hit with JNAJGP_08825&lt;/b&gt;&lt;br&gt;Percentage identity: 95&lt;br&gt;Percentage coverage: 99&lt;br&gt;BLAST bit score: 531&lt;br&gt;E-value: 2.76e-191" locus_tag="VO64_RS18555" class="clusterblast-orf" id="dummy-3_h3_7_27"  />
</g>
<g id="a3_0028"  >
<polygon points="450,90 469,90 474,85 469,80 450,80 450,90 " style="fill:#c9d815; stroke-width:1; stroke:black; " description="&lt;b&gt;VO64_RS18550&lt;/b&gt;&lt;br&gt;MFS transporter&lt;br&gt;Location: 3929826 - 3928552&lt;br&gt;&lt;br&gt;&lt;b&gt;BlastP hit with JNAJGP_08830&lt;/b&gt;&lt;br&gt;Percentage identity: 93&lt;br&gt;Percentage coverage: 100&lt;br&gt;BLAST bit score: 745&lt;br&gt;E-value: 1.94e-271" locus_tag="VO64_RS18550" class="clusterblast-orf" id="dummy-3_h3_7_28"  />
</g>
<g id="a3_0029"  >
<polygon points="475,85 480,80 499,80 499,90 480,90 475,85 " style="fill:white; stroke-width:1; stroke:black; " description="&lt;b&gt;VO64_RS18545&lt;/b&gt;&lt;br&gt;type II toxin-antitoxin system HipA family toxin&lt;br&gt;Location: 3928526 - 3927255" locus_tag="VO64_RS18545" class="clusterblast-orf" id="dummy-3_h3_7_29"  />
</g>
<g id="a3_0030"  >
<polygon points="499,85 504,80 504,80 504,90 504,90 499,85 " style="fill:white; stroke-width:1; stroke:black; " description="&lt;b&gt;VO64_RS18540&lt;/b&gt;&lt;br&gt;helix-turn-helix domain-containing protein&lt;br&gt;Location: 3927262 - 3927011" locus_tag="VO64_RS18540" class="clusterblast-orf" id="dummy-3_h3_7_30"  />
</g>
<g id="a3_0031"  >
<polygon points="506,85 511,80 527,80 527,90 511,90 506,85 " style="fill:#15d88d; stroke-width:1; stroke:black; " description="&lt;b&gt;VO64_RS18535&lt;/b&gt;&lt;br&gt;uroporphyrinogen decarboxylase&lt;br&gt;Location: 3926875 - 3925808&lt;br&gt;&lt;br&gt;&lt;b&gt;BlastP hit with JNAJGP_08835&lt;/b&gt;&lt;br&gt;Percentage identity: 98&lt;br&gt;Percentage coverage: 100&lt;br&gt;BLAST bit score: 708&lt;br&gt;E-value: 2.72e-259" locus_tag="VO64_RS18535" class="clusterblast-orf" id="dummy-3_h3_7_31"  />
</g>
<g id="a3_0032"  >
<polygon points="530,85 535,80 557,80 557,90 535,90 530,85 " style="fill:#3315d8; stroke-width:1; stroke:black; " description="&lt;b&gt;VO64_RS18530&lt;/b&gt;&lt;br&gt;FAD-dependent oxidoreductase&lt;br&gt;Location: 3925625 - 3924207&lt;br&gt;&lt;br&gt;&lt;b&gt;BlastP hit with JNAJGP_08840&lt;/b&gt;&lt;br&gt;Percentage identity: 99&lt;br&gt;Percentage coverage: 100&lt;br&gt;BLAST bit score: 951&lt;br&gt;E-value: 0.0" locus_tag="VO64_RS18530" class="clusterblast-orf" id="dummy-3_h3_7_32"  />
</g>
<g id="a3_0033"  >
<polygon points="558,85 563,80 642,80 642,90 563,90 558,85 " style="fill:#d81551; stroke-width:1; stroke:black; " description="&lt;b&gt;VO64_RS18525&lt;/b&gt;&lt;br&gt;glutamate synthase large subunit&lt;br&gt;Location: 3924174 - 3919729&lt;br&gt;&lt;br&gt;&lt;b&gt;BlastP hit with JNAJGP_08845&lt;/b&gt;&lt;br&gt;Percentage identity: 98&lt;br&gt;Percentage coverage: 100&lt;br&gt;BLAST bit score: 2851&lt;br&gt;E-value: 0.0" locus_tag="VO64_RS18525" class="clusterblast-orf" id="dummy-3_h3_7_33"  />
</g>
<g id="a3_0034"  >
<polygon points="649,85 654,80 678,80 678,90 654,90 649,85 " style="fill:#abd815; stroke-width:1; stroke:black; " description="&lt;b&gt;VO64_RS18515&lt;/b&gt;&lt;br&gt;SPOR domain-containing protein&lt;br&gt;Location: 3919373 - 3917802&lt;br&gt;&lt;br&gt;&lt;b&gt;BlastP hit with JNAJGP_08850&lt;/b&gt;&lt;br&gt;Percentage identity: 92&lt;br&gt;Percentage coverage: 101&lt;br&gt;BLAST bit score: 845&lt;br&gt;E-value: 6.32e-308" locus_tag="VO64_RS18515" class="clusterblast-orf" id="dummy-3_h3_7_34"  />
</g>
<g id="a3_0035"  >
<polygon points="679,85 684,80 700,80 700,90 684,90 679,85 " style="fill:#15d8ab; stroke-width:1; stroke:black; " description="&lt;b&gt;VO64_RS18510&lt;/b&gt;&lt;br&gt;3-dehydroquinate synthase&lt;br&gt;Location: 3917791 - 3916691&lt;br&gt;&lt;br&gt;&lt;b&gt;BlastP hit with JNAJGP_08855&lt;/b&gt;&lt;br&gt;Percentage identity: 98&lt;br&gt;Percentage coverage: 100&lt;br&gt;BLAST bit score: 708&lt;br&gt;E-value: 6.43e-259" locus_tag="VO64_RS18510" class="clusterblast-orf" id="dummy-3_h3_7_35"  />
</g>
<g id="a3_0036"  >
<polygon points="702,85 707,80 712,80 712,90 707,90 702,85 " style="fill:#5115d8; stroke-width:1; stroke:black; " description="&lt;b&gt;VO64_RS18505&lt;/b&gt;&lt;br&gt;shikimate kinase AroK&lt;br&gt;Location: 3916566 - 3916048&lt;br&gt;&lt;br&gt;&lt;b&gt;BlastP hit with JNAJGP_08860&lt;/b&gt;&lt;br&gt;Percentage identity: 98&lt;br&gt;Percentage coverage: 100&lt;br&gt;BLAST bit score: 314&lt;br&gt;E-value: 1.81e-109" locus_tag="VO64_RS18505" class="clusterblast-orf" id="dummy-3_h3_7_36"  />
</g>
<g id="a3_0037"  >
<polygon points="712,85 717,80 737,80 737,90 717,90 712,85 " style="fill:#d81533; stroke-width:1; stroke:black; " description="&lt;b&gt;VO64_RS18500&lt;/b&gt;&lt;br&gt;type IV pilus secretin PilQ family protein&lt;br&gt;Location: 3916043 - 3914718&lt;br&gt;&lt;br&gt;&lt;b&gt;BlastP hit with JNAJGP_08865&lt;/b&gt;&lt;br&gt;Percentage identity: 90&lt;br&gt;Percentage coverage: 96&lt;br&gt;BLAST bit score: 761&lt;br&gt;E-value: 4.31e-277" locus_tag="VO64_RS18500" class="clusterblast-orf" id="dummy-3_h3_7_37"  />
</g>
<g id="a3_0038"  >
<polygon points="738,85 743,80 757,80 757,90 743,90 738,85 " style="fill:#8dd815; stroke-width:1; stroke:black; " description="&lt;b&gt;VO64_RS18495&lt;/b&gt;&lt;br&gt;pilus assembly protein PilP&lt;br&gt;Location: 3914648 - 3913677&lt;br&gt;&lt;br&gt;&lt;b&gt;BlastP hit with JNAJGP_08870&lt;/b&gt;&lt;br&gt;Percentage identity: 63&lt;br&gt;Percentage coverage: 100&lt;br&gt;BLAST bit score: 385&lt;br&gt;E-value: 1.3e-132" locus_tag="VO64_RS18495" class="clusterblast-orf" id="dummy-3_h3_7_38"  />
</g>
<g id="a3_0039"  >
<polygon points="757,85 762,80 767,80 767,90 762,90 757,85 " style="fill:#15d8c9; stroke-width:1; stroke:black; " description="&lt;b&gt;VO64_RS18490&lt;/b&gt;&lt;br&gt;PilN domain-containing protein&lt;br&gt;Location: 3913680 - 3913129&lt;br&gt;&lt;br&gt;&lt;b&gt;BlastP hit with JNAJGP_08875&lt;/b&gt;&lt;br&gt;Percentage identity: 76&lt;br&gt;Percentage coverage: 98&lt;br&gt;BLAST bit score: 258&lt;br&gt;E-value: 5.36e-87" locus_tag="VO64_RS18490" class="clusterblast-orf" id="dummy-3_h3_7_39"  />
</g>
<g id="a3_0040"  >
<polygon points="767,85 772,80 780,80 780,90 772,90 767,85 " style="fill:#6f15d8; stroke-width:1; stroke:black; " description="&lt;b&gt;VO64_RS18485&lt;/b&gt;&lt;br&gt;type IV pilus assembly protein PilM&lt;br&gt;Location: 3913132 - 3912476&lt;br&gt;&lt;br&gt;&lt;b&gt;BlastP hit with JNAJGP_08880&lt;/b&gt;&lt;br&gt;Percentage identity: 70&lt;br&gt;Percentage coverage: 100&lt;br&gt;BLAST bit score: 290&lt;br&gt;E-value: 2.12e-98" locus_tag="VO64_RS18485" class="clusterblast-orf" id="dummy-3_h3_7_40"  />
</g>
</svg>
