<svg xmlns="http://www.w3.org/2000/svg" xmlns:xlink="http://www.w3.org/1999/xlink" version="1.1" x="0" y="0" height="230" width="800" viewBox="0 0 800 230" preserveAspectRatio="none"  >
<g label="Query sequence" class="clusterblast-cluster"  >
<text x="5" y="20" class="clusterblast-acc"  >
Query sequence</text>
<line x1="10" y1="35" x2="778.0" y2="35" style="stroke-width:1; stroke:grey; "  />
<polygon points="0,40 61,40 66,35 61,30 0,30 0,40 " style="fill:#d81515; stroke-width:1; stroke:black; " description="&lt;b&gt;JNAJGP_22300&lt;/b&gt;&lt;br&gt;ABC transmembrane type-1 domain-containing protein&lt;br&gt;Location: 4711370 - 4712327" locus_tag="JNAJGP_22300" class="clusterblast-orf" id="dummy-7_q0_0_all"  />
<polygon points="66,40 121,40 126,35 121,30 66,30 66,40 " style="fill:#3cd815; stroke-width:1; stroke:black; " description="&lt;b&gt;JNAJGP_22305&lt;/b&gt;&lt;br&gt;DNA-directed RNA polymerase subunit alpha&lt;br&gt;Location: 4712323 - 4713199" locus_tag="JNAJGP_22305" class="clusterblast-orf" id="dummy-7_q1_0_all"  />
<polygon points="126,40 247,40 252,35 247,30 126,30 126,40 " style="fill:#1563d8; stroke-width:1; stroke:black; " description="&lt;b&gt;JNAJGP_22310&lt;/b&gt;&lt;br&gt;nickel import ATP-binding protein NikE&lt;br&gt;Location: 4713200 - 4715042" locus_tag="JNAJGP_22310" class="clusterblast-orf" id="dummy-7_q2_0_all"  />
<polygon points="252,40 268,40 273,35 268,30 252,30 252,40 " style="fill:#b115d8; stroke-width:1; stroke:black; " description="&lt;b&gt;JNAJGP_22315&lt;/b&gt;&lt;br&gt;NAD(FAD)-dependent dehydrogenase&lt;br&gt;Location: 4715038 - 4715347" locus_tag="JNAJGP_22315" class="clusterblast-orf" id="dummy-7_q3_0_all"  />
<polygon points="272,40 361,40 366,35 361,30 272,30 272,40 " style="fill:#d88a15; stroke-width:1; stroke:black; " description="&lt;b&gt;JNAJGP_22320&lt;/b&gt;&lt;br&gt;Hydrogen cyanide synthase subunit HcnB&lt;br&gt;Location: 4715328 - 4716708" locus_tag="JNAJGP_22320" class="clusterblast-orf" id="dummy-7_q4_0_all"  />
<polygon points="366,40 440,40 445,35 440,30 366,30 366,40 " style="fill:#15d863; stroke-width:1; stroke:black; " description="&lt;b&gt;JNAJGP_22325&lt;/b&gt;&lt;br&gt;FAD dependent oxidoreductase domain-containing protein&lt;br&gt;Location: 4716704 - 4717856" locus_tag="JNAJGP_22325" class="clusterblast-orf" id="dummy-7_q5_0_all"  />
<polygon points="445,40 519,40 524,35 519,30 445,30 445,40 " style="fill:#3c15d8; stroke-width:1; stroke:black; " description="&lt;b&gt;JNAJGP_22330&lt;/b&gt;&lt;br&gt;acetylornithine deacetylase&lt;br&gt;Location: 4717852 - 4719010" locus_tag="JNAJGP_22330" class="clusterblast-orf" id="dummy-7_q6_0_all"  />
<polygon points="532,40 628,40 633,35 628,30 532,30 532,40 " style="fill:#d8158a; stroke-width:1; stroke:black; " description="&lt;b&gt;JNAJGP_22335&lt;/b&gt;&lt;br&gt;Glutarate-semialdehyde dehydrogenase Succinate-semialdehyde dehydrogenase [NADP+]&lt;br&gt;Location: 4719127 - 4720588" locus_tag="JNAJGP_22335" class="clusterblast-orf" id="dummy-7_q7_0_all"  />
<polygon points="634,40 703,40 708,35 703,30 634,30 634,40 " style="fill:#b1d815; stroke-width:1; stroke:black; " description="&lt;b&gt;JNAJGP_22340&lt;/b&gt;&lt;br&gt;tartrate dehydrogenase&lt;br&gt;Location: 4720601 - 4721687" locus_tag="JNAJGP_22340" class="clusterblast-orf" id="dummy-7_q8_0_all"  />
<polygon points="709,35 714,30 717,30 717,40 714,40 709,35 " style="fill:white; stroke-width:1; stroke:black; " description="&lt;b&gt;JNAJGP_22345&lt;/b&gt;&lt;br&gt;hypothetical protein&lt;br&gt;Location: 4721698 - 4721812" locus_tag="JNAJGP_22345" class="clusterblast-orf" id="dummy-7_q9_0_all"  />
<polygon points="717,35 722,30 780,30 780,40 722,40 717,35 " style="fill:#15d8d8; stroke-width:1; stroke:black; " description="&lt;b&gt;JNAJGP_22350&lt;/b&gt;&lt;br&gt;D-3-phosphoglycerate dehydrogenase&lt;br&gt;Location: 4721811 - 4722738" locus_tag="JNAJGP_22350" class="clusterblast-orf" id="dummy-7_q10_0_all"  />
</g>
<g label="NZ_MSDJ01000015" description="NZ_MSDJ01000015 (393713-406531): Pseudomonas fluorescens strain G2Y PF G2Y co... (100% of genes show similarity), hydrogen-cyanide" class="clusterblast-cluster"  >
<text x="5" y="70" class="clusterblast-acc"  >
<a xlink:href="https://antismash-db.secondarymetabolites.org/area?record=NZ_MSDJ01000015&amp;start=393713&amp;end=406531" target="_blank">NZ_MSDJ01000015 (393713-406531)</a>: Pseudomonas fluorescens strain G2Y PF G2Y co... (100% of genes show similarity), hydrogen-cyanide</text>
<line x1="10" y1="85" x2="778.0" y2="85" style="stroke-width:1; stroke:grey; "  />
</g>
<g id="a7_000"  >
<polygon points="1,90 62,90 67,85 62,80 1,80 1,90 " style="fill:#d81515; stroke-width:1; stroke:black; " description="&lt;b&gt;BFW92_RS17735&lt;/b&gt;&lt;br&gt;ABC transporter permease&lt;br&gt;Location: 405199 - 404243&lt;br&gt;&lt;br&gt;&lt;b&gt;BlastP hit with JNAJGP_22300&lt;/b&gt;&lt;br&gt;Percentage identity: 100&lt;br&gt;Percentage coverage: 100&lt;br&gt;BLAST bit score: 588&lt;br&gt;E-value: 7.85e-213" locus_tag="BFW92_RS17735" class="clusterblast-orf" id="dummy-7_h7_1_0"  />
</g>
<g id="a7_001"  >
<polygon points="66,90 122,90 127,85 122,80 66,80 66,90 " style="fill:#3cd815; stroke-width:1; stroke:black; " description="&lt;b&gt;BFW92_RS17730&lt;/b&gt;&lt;br&gt;ABC transporter permease&lt;br&gt;Location: 404246 - 403371&lt;br&gt;&lt;br&gt;&lt;b&gt;BlastP hit with JNAJGP_22305&lt;/b&gt;&lt;br&gt;Percentage identity: 100&lt;br&gt;Percentage coverage: 100&lt;br&gt;BLAST bit score: 546&lt;br&gt;E-value: 1.98e-197" locus_tag="BFW92_RS17730" class="clusterblast-orf" id="dummy-7_h7_1_1"  />
</g>
<g id="a7_002"  >
<polygon points="127,90 248,90 253,85 248,80 127,80 127,90 " style="fill:#1563d8; stroke-width:1; stroke:black; " description="&lt;b&gt;BFW92_RS17725&lt;/b&gt;&lt;br&gt;ABC transporter ATP-binding protein&lt;br&gt;Location: 403369 - 401528&lt;br&gt;&lt;br&gt;&lt;b&gt;BlastP hit with JNAJGP_22310&lt;/b&gt;&lt;br&gt;Percentage identity: 99&lt;br&gt;Percentage coverage: 100&lt;br&gt;BLAST bit score: 1168&lt;br&gt;E-value: 0.0" locus_tag="BFW92_RS17725" class="clusterblast-orf" id="dummy-7_h7_1_2"  />
</g>
<g id="a7_003"  >
<polygon points="253,90 269,90 274,85 269,80 253,80 253,90 " style="fill:#b115d8; stroke-width:1; stroke:black; " description="&lt;b&gt;BFW92_RS17720&lt;/b&gt;&lt;br&gt;(2Fe-2S)-binding protein&lt;br&gt;Location: 401531 - 401223&lt;br&gt;&lt;br&gt;&lt;b&gt;BlastP hit with JNAJGP_22315&lt;/b&gt;&lt;br&gt;Percentage identity: 100&lt;br&gt;Percentage coverage: 100&lt;br&gt;BLAST bit score: 216&lt;br&gt;E-value: 7.72e-73" locus_tag="BFW92_RS17720" class="clusterblast-orf" id="dummy-7_h7_1_3"  />
</g>
<g id="a7_004"  >
<polygon points="273,90 362,90 367,85 362,80 273,80 273,90 " style="fill:#d88a15; stroke-width:1; stroke:black; " description="&lt;b&gt;BFW92_RS17715&lt;/b&gt;&lt;br&gt;NAD(P)/FAD-dependent oxidoreductase&lt;br&gt;Location: 401241 - 399862&lt;br&gt;&lt;br&gt;&lt;b&gt;BlastP hit with JNAJGP_22320&lt;/b&gt;&lt;br&gt;Percentage identity: 99&lt;br&gt;Percentage coverage: 100&lt;br&gt;BLAST bit score: 882&lt;br&gt;E-value: 0.0" locus_tag="BFW92_RS17715" class="clusterblast-orf" id="dummy-7_h7_1_4"  />
</g>
<g id="a7_005"  >
<polygon points="367,90 441,90 446,85 441,80 367,80 367,90 " style="fill:#15d863; stroke-width:1; stroke:black; " description="&lt;b&gt;BFW92_RS17710&lt;/b&gt;&lt;br&gt;FAD-binding oxidoreductase&lt;br&gt;Location: 399865 - 398714&lt;br&gt;&lt;br&gt;&lt;b&gt;BlastP hit with JNAJGP_22325&lt;/b&gt;&lt;br&gt;Percentage identity: 100&lt;br&gt;Percentage coverage: 100&lt;br&gt;BLAST bit score: 754&lt;br&gt;E-value: 2.5e-276" locus_tag="BFW92_RS17710" class="clusterblast-orf" id="dummy-7_h7_1_5"  />
</g>
<g id="a7_006"  >
<polygon points="446,90 520,90 525,85 520,80 446,80 446,90 " style="fill:#3c15d8; stroke-width:1; stroke:black; " description="&lt;b&gt;BFW92_RS17705&lt;/b&gt;&lt;br&gt;acetylornithine deacetylase&lt;br&gt;Location: 398717 - 397560&lt;br&gt;&lt;br&gt;&lt;b&gt;BlastP hit with JNAJGP_22330&lt;/b&gt;&lt;br&gt;Percentage identity: 98&lt;br&gt;Percentage coverage: 100&lt;br&gt;BLAST bit score: 748&lt;br&gt;E-value: 8.03e-274" locus_tag="BFW92_RS17705" class="clusterblast-orf" id="dummy-7_h7_1_6"  />
</g>
<g id="a7_007"  >
<polygon points="533,90 628,90 633,85 628,80 533,80 533,90 " style="fill:#d8158a; stroke-width:1; stroke:black; " description="&lt;b&gt;BFW92_RS17700&lt;/b&gt;&lt;br&gt;NAD-dependent succinate-semialdehyde dehydrogenase&lt;br&gt;Location: 397442 - 395982&lt;br&gt;&lt;br&gt;&lt;b&gt;BlastP hit with JNAJGP_22335&lt;/b&gt;&lt;br&gt;Percentage identity: 100&lt;br&gt;Percentage coverage: 100&lt;br&gt;BLAST bit score: 898&lt;br&gt;E-value: 0.0" locus_tag="BFW92_RS17700" class="clusterblast-orf" id="dummy-7_h7_1_7"  />
</g>
<g id="a7_008"  >
<polygon points="634,90 704,90 709,85 704,80 634,80 634,90 " style="fill:#b1d815; stroke-width:1; stroke:black; " description="&lt;b&gt;BFW92_RS17695&lt;/b&gt;&lt;br&gt;tartrate dehydrogenase&lt;br&gt;Location: 395968 - 394883&lt;br&gt;&lt;br&gt;&lt;b&gt;BlastP hit with JNAJGP_22340&lt;/b&gt;&lt;br&gt;Percentage identity: 99&lt;br&gt;Percentage coverage: 99&lt;br&gt;BLAST bit score: 738&lt;br&gt;E-value: 5.6e-271" locus_tag="BFW92_RS17695" class="clusterblast-orf" id="dummy-7_h7_1_8"  />
</g>
<g id="a7_009"  >
<polygon points="714,85 719,80 778,80 778,90 719,90 714,85 " style="fill:#15d8d8; stroke-width:1; stroke:black; " description="&lt;b&gt;BFW92_RS17690&lt;/b&gt;&lt;br&gt;glyoxylate/hydroxypyruvate reductase A&lt;br&gt;Location: 394803 - 393877&lt;br&gt;&lt;br&gt;&lt;b&gt;BlastP hit with JNAJGP_22350&lt;/b&gt;&lt;br&gt;Percentage identity: 100&lt;br&gt;Percentage coverage: 100&lt;br&gt;BLAST bit score: 624&lt;br&gt;E-value: 1.19e-227" locus_tag="BFW92_RS17690" class="clusterblast-orf" id="dummy-7_h7_1_9"  />
</g>
</svg>
