<svg xmlns="http://www.w3.org/2000/svg" xmlns:xlink="http://www.w3.org/1999/xlink" version="1.1" x="0" y="0" height="230" width="800" viewBox="0 0 800 230" preserveAspectRatio="none"  >
<g label="Query sequence" class="clusterblast-cluster"  >
<text x="5" y="20" class="clusterblast-acc"  >
Query sequence</text>
<line x1="10" y1="35" x2="778.0" y2="35" style="stroke-width:1; stroke:grey; "  />
<polygon points="0,40 11,40 16,35 11,30 0,30 0,40 " style="fill:#d81515; stroke-width:1; stroke:black; " description="&lt;b&gt;JNAJGP_22985&lt;/b&gt;&lt;br&gt;Cytochrome b561 bacterial/Ni-hydrogenase domain-containing protein&lt;br&gt;Location: 4860170 - 4860710" locus_tag="JNAJGP_22985" class="clusterblast-orf" id="dummy-8_q0_0_all"  />
<polygon points="18,35 23,30 52,30 52,40 23,40 18,35 " style="fill:#56d815; stroke-width:1; stroke:black; " description="&lt;b&gt;JNAJGP_22990&lt;/b&gt;&lt;br&gt;Peptidase M14 carboxypeptidase A domain-containing protein&lt;br&gt;Location: 4860766 - 4861918" locus_tag="JNAJGP_22990" class="clusterblast-orf" id="dummy-8_q1_0_all"  />
<polygon points="66,35 71,30 77,30 77,40 71,40 66,35 " style="fill:#1597d8; stroke-width:1; stroke:black; " description="&lt;b&gt;JNAJGP_23000&lt;/b&gt;&lt;br&gt;DUF3077 domain-containing protein&lt;br&gt;Location: 4862380 - 4862731" locus_tag="JNAJGP_23000" class="clusterblast-orf" id="dummy-8_q2_0_all"  />
<polygon points="81,40 95,40 100,35 95,30 81,30 81,40 " style="fill:#9715d8; stroke-width:1; stroke:black; " description="&lt;b&gt;JNAJGP_23005&lt;/b&gt;&lt;br&gt;Putative prophage repressor&lt;br&gt;Location: 4862860 - 4863496" locus_tag="JNAJGP_23005" class="clusterblast-orf" id="dummy-8_q3_0_all"  />
<polygon points="100,35 105,30 158,30 158,40 105,40 100,35 " style="fill:#d85615; stroke-width:1; stroke:black; " description="&lt;b&gt;JNAJGP_23010&lt;/b&gt;&lt;br&gt;Methylcrotonyl-CoA carboxylase, alpha-subunit LiuD&lt;br&gt;Location: 4863492 - 4865418" locus_tag="JNAJGP_23010" class="clusterblast-orf" id="dummy-8_q4_0_all"  />
<polygon points="158,35 163,30 182,30 182,40 163,40 158,35 " style="fill:#15d815; stroke-width:1; stroke:black; " description="&lt;b&gt;JNAJGP_23015&lt;/b&gt;&lt;br&gt;gamma-carboxygeranoyl-CoA hydratase&lt;br&gt;Location: 4865414 - 4866221" locus_tag="JNAJGP_23015" class="clusterblast-orf" id="dummy-8_q5_0_all"  />
<polygon points="183,35 188,30 231,30 231,40 188,40 183,35 " style="fill:#1556d8; stroke-width:1; stroke:black; " description="&lt;b&gt;JNAJGP_23020&lt;/b&gt;&lt;br&gt;Acetyl-CoA carboxylase, carboxyltransferase component&lt;br&gt;Location: 4866236 - 4867844" locus_tag="JNAJGP_23020" class="clusterblast-orf" id="dummy-8_q6_0_all"  />
<polygon points="231,35 236,30 267,30 267,40 236,40 231,35 " style="fill:#d815d8; stroke-width:1; stroke:black; " description="&lt;b&gt;JNAJGP_23025&lt;/b&gt;&lt;br&gt;Acyl-CoA dehydrogenase related to the alkylation response protein AidB&lt;br&gt;Location: 4867855 - 4869019" locus_tag="JNAJGP_23025" class="clusterblast-orf" id="dummy-8_q7_0_all"  />
<polygon points="271,40 315,40 320,35 315,30 271,30 271,40 " style="fill:#d89715; stroke-width:1; stroke:black; " description="&lt;b&gt;JNAJGP_23030&lt;/b&gt;&lt;br&gt;Long-chain-fatty-acid--CoA ligase&lt;br&gt;Location: 4869168 - 4870800" locus_tag="JNAJGP_23030" class="clusterblast-orf" id="dummy-8_q8_0_all"  />
<polygon points="323,40 473,40 478,35 473,30 323,30 323,40 " style="fill:#15d856; stroke-width:1; stroke:black; " description="&lt;b&gt;JNAJGP_23035&lt;/b&gt;&lt;br&gt;RING-type E3 ubiquitin transferase&lt;br&gt;Location: 4870898 - 4876037" locus_tag="JNAJGP_23035" class="clusterblast-orf" id="dummy-8_q9_0_all"  />
<polygon points="495,35 500,30 522,30 522,40 500,40 495,35 " style="fill:#1515d8; stroke-width:1; stroke:black; " description="&lt;b&gt;JNAJGP_23045&lt;/b&gt;&lt;br&gt;hydroxymethylglutaryl-CoA lyase&lt;br&gt;Location: 4876585 - 4877485" locus_tag="JNAJGP_23045" class="clusterblast-orf" id="dummy-8_q10_0_all"  />
<polygon points="522,35 527,30 534,30 534,40 527,40 522,35 " style="fill:#d81597; stroke-width:1; stroke:black; " description="&lt;b&gt;JNAJGP_23050&lt;/b&gt;&lt;br&gt;HTH merR-type domain-containing protein&lt;br&gt;Location: 4877501 - 4877894" locus_tag="JNAJGP_23050" class="clusterblast-orf" id="dummy-8_q11_0_all"  />
<polygon points="538,35 543,30 566,30 566,40 543,40 538,35 " style="fill:#d8d815; stroke-width:1; stroke:black; " description="&lt;b&gt;JNAJGP_23055&lt;/b&gt;&lt;br&gt;DNA-binding transcriptional regulator, LysR family&lt;br&gt;Location: 4878031 - 4878967" locus_tag="JNAJGP_23055" class="clusterblast-orf" id="dummy-8_q12_0_all"  />
<polygon points="571,40 603,40 608,35 603,30 571,30 571,40 " style="fill:#15d897; stroke-width:1; stroke:black; " description="&lt;b&gt;JNAJGP_23060&lt;/b&gt;&lt;br&gt;Acyl-CoA dehydrogenase related to the alkylation response protein AidB&lt;br&gt;Location: 4879133 - 4880363" locus_tag="JNAJGP_23060" class="clusterblast-orf" id="dummy-8_q13_0_all"  />
<polygon points="612,35 617,30 652,30 652,40 617,40 612,35 " style="fill:#5615d8; stroke-width:1; stroke:black; " description="&lt;b&gt;JNAJGP_23065&lt;/b&gt;&lt;br&gt;OmpA-like domain-containing protein&lt;br&gt;Location: 4880479 - 4881811" locus_tag="JNAJGP_23065" class="clusterblast-orf" id="dummy-8_q14_0_all"  />
<polygon points="656,35 661,30 680,30 680,40 661,40 656,35 " style="fill:#d81556; stroke-width:1; stroke:black; " description="&lt;b&gt;JNAJGP_23070&lt;/b&gt;&lt;br&gt;exodeoxyribonuclease III&lt;br&gt;Location: 4881934 - 4882747" locus_tag="JNAJGP_23070" class="clusterblast-orf" id="dummy-8_q15_0_all"  />
<polygon points="685,40 700,40 705,35 700,30 685,30 685,40 " style="fill:#97d815; stroke-width:1; stroke:black; " description="&lt;b&gt;JNAJGP_23075&lt;/b&gt;&lt;br&gt;N-acetyltransferase domain-containing protein&lt;br&gt;Location: 4882916 - 4883567" locus_tag="JNAJGP_23075" class="clusterblast-orf" id="dummy-8_q16_0_all"  />
<polygon points="708,40 754,40 759,35 754,30 708,30 708,40 " style="fill:#15d8d8; stroke-width:1; stroke:black; " description="&lt;b&gt;JNAJGP_23080&lt;/b&gt;&lt;br&gt;Translocation and assembly module subunit TamA&lt;br&gt;Location: 4883660 - 4885358" locus_tag="JNAJGP_23080" class="clusterblast-orf" id="dummy-8_q17_0_all"  />
<polygon points="759,40 775,40 780,35 775,30 759,30 759,40 " style="fill:white; stroke-width:1; stroke:black; " description="&lt;b&gt;JNAJGP_23085&lt;/b&gt;&lt;br&gt;hypothetical protein&lt;br&gt;Location: 4885357 - 4886047" locus_tag="JNAJGP_23085" class="clusterblast-orf" id="dummy-8_q18_0_all"  />
</g>
<g label="NZ_CP077079" description="NZ_CP077079 (4009404-4037705): Pseudomonas asgharzadehiana strain SWRI132 chr... (100% of genes show similarity), betalactone" class="clusterblast-cluster"  >
<text x="5" y="70" class="clusterblast-acc"  >
<a xlink:href="https://antismash-db.secondarymetabolites.org/area?record=NZ_CP077079&amp;start=4009404&amp;end=4037705" target="_blank">NZ_CP077079 (4009404-4037705)</a>: Pseudomonas asgharzadehiana strain SWRI132 chr... (100% of genes show similarity), betalactone</text>
<line x1="10" y1="85" x2="778.0" y2="85" style="stroke-width:1; stroke:grey; "  />
</g>
<g id="a8_000"  >
<polygon points="12,90 24,90 29,85 24,80 12,80 12,90 " style="fill:#d81515; stroke-width:1; stroke:black; " description="&lt;b&gt;KSS96_RS18175&lt;/b&gt;&lt;br&gt;cytochrome b/b6 domain-containing protein&lt;br&gt;Location: 4036665 - 4036126&lt;br&gt;&lt;br&gt;&lt;b&gt;BlastP hit with JNAJGP_22985&lt;/b&gt;&lt;br&gt;Percentage identity: 92&lt;br&gt;Percentage coverage: 100&lt;br&gt;BLAST bit score: 316&lt;br&gt;E-value: 5.39e-110" locus_tag="KSS96_RS18175" class="clusterblast-orf" id="dummy-8_h8_3_0"  />
</g>
<g id="a8_001"  >
<polygon points="29,85 34,80 64,80 64,90 34,90 29,85 " style="fill:#56d815; stroke-width:1; stroke:black; " description="&lt;b&gt;KSS96_RS18170&lt;/b&gt;&lt;br&gt;M14-type cytosolic carboxypeptidase&lt;br&gt;Location: 4036110 - 4034959&lt;br&gt;&lt;br&gt;&lt;b&gt;BlastP hit with JNAJGP_22990&lt;/b&gt;&lt;br&gt;Percentage identity: 94&lt;br&gt;Percentage coverage: 100&lt;br&gt;BLAST bit score: 743&lt;br&gt;E-value: 4.63e-272" locus_tag="KSS96_RS18170" class="clusterblast-orf" id="dummy-8_h8_3_1"  />
</g>
<g id="a8_002"  >
<polygon points="78,85 83,80 88,80 88,90 83,90 78,85 " style="fill:#1597d8; stroke-width:1; stroke:black; " description="&lt;b&gt;KSS96_RS18165&lt;/b&gt;&lt;br&gt;DUF3077 domain-containing protein&lt;br&gt;Location: 4034496 - 4034146&lt;br&gt;&lt;br&gt;&lt;b&gt;BlastP hit with JNAJGP_23000&lt;/b&gt;&lt;br&gt;Percentage identity: 82&lt;br&gt;Percentage coverage: 100&lt;br&gt;BLAST bit score: 176&lt;br&gt;E-value: 2.22e-56" locus_tag="KSS96_RS18165" class="clusterblast-orf" id="dummy-8_h8_3_2"  />
</g>
<g id="a8_003"  >
<polygon points="92,90 106,90 111,85 106,80 92,80 92,90 " style="fill:#9715d8; stroke-width:1; stroke:black; " description="&lt;b&gt;KSS96_RS18160&lt;/b&gt;&lt;br&gt;LexA family transcriptional regulator&lt;br&gt;Location: 4034014 - 4033379&lt;br&gt;&lt;br&gt;&lt;b&gt;BlastP hit with JNAJGP_23005&lt;/b&gt;&lt;br&gt;Percentage identity: 86&lt;br&gt;Percentage coverage: 100&lt;br&gt;BLAST bit score: 372&lt;br&gt;E-value: 4.79e-131" locus_tag="KSS96_RS18160" class="clusterblast-orf" id="dummy-8_h8_3_3"  />
</g>
<g id="a8_004"  >
<polygon points="111,85 116,80 169,80 169,90 116,90 111,85 " style="fill:#d85615; stroke-width:1; stroke:black; " description="&lt;b&gt;KSS96_RS18155&lt;/b&gt;&lt;br&gt;acetyl/propionyl/methylcrotonyl-CoA carboxylase subunit alpha&lt;br&gt;Location: 4033382 - 4031457&lt;br&gt;&lt;br&gt;&lt;b&gt;BlastP hit with JNAJGP_23010&lt;/b&gt;&lt;br&gt;Percentage identity: 94&lt;br&gt;Percentage coverage: 100&lt;br&gt;BLAST bit score: 1169&lt;br&gt;E-value: 0.0" locus_tag="KSS96_RS18155" class="clusterblast-orf" id="dummy-8_h8_3_4"  />
</g>
<g id="a8_005"  >
<polygon points="169,85 174,80 194,80 194,90 174,90 169,85 " style="fill:#15d815; stroke-width:1; stroke:black; " description="&lt;b&gt;KSS96_RS18150&lt;/b&gt;&lt;br&gt;gamma-carboxygeranoyl-CoA hydratase&lt;br&gt;Location: 4031460 - 4030654&lt;br&gt;&lt;br&gt;&lt;b&gt;BlastP hit with JNAJGP_23015&lt;/b&gt;&lt;br&gt;Percentage identity: 98&lt;br&gt;Percentage coverage: 100&lt;br&gt;BLAST bit score: 508&lt;br&gt;E-value: 5.87e-183" locus_tag="KSS96_RS18150" class="clusterblast-orf" id="dummy-8_h8_3_5"  />
</g>
<g id="a8_006"  >
<polygon points="194,85 199,80 242,80 242,90 199,90 194,85 " style="fill:#1556d8; stroke-width:1; stroke:black; " description="&lt;b&gt;KSS96_RS18145&lt;/b&gt;&lt;br&gt;methylcrotonoyl-CoA carboxylase&lt;br&gt;Location: 4030638 - 4029031&lt;br&gt;&lt;br&gt;&lt;b&gt;BlastP hit with JNAJGP_23020&lt;/b&gt;&lt;br&gt;Percentage identity: 98&lt;br&gt;Percentage coverage: 100&lt;br&gt;BLAST bit score: 1044&lt;br&gt;E-value: 0.0" locus_tag="KSS96_RS18145" class="clusterblast-orf" id="dummy-8_h8_3_6"  />
</g>
<g id="a8_007"  >
<polygon points="243,85 248,80 278,80 278,90 248,90 243,85 " style="fill:#d815d8; stroke-width:1; stroke:black; " description="&lt;b&gt;KSS96_RS18140&lt;/b&gt;&lt;br&gt;isovaleryl-CoA dehydrogenase&lt;br&gt;Location: 4029019 - 4027856&lt;br&gt;&lt;br&gt;&lt;b&gt;BlastP hit with JNAJGP_23025&lt;/b&gt;&lt;br&gt;Percentage identity: 97&lt;br&gt;Percentage coverage: 100&lt;br&gt;BLAST bit score: 754&lt;br&gt;E-value: 1.69e-276" locus_tag="KSS96_RS18140" class="clusterblast-orf" id="dummy-8_h8_3_7"  />
</g>
<g id="a8_008"  >
<polygon points="282,90 327,90 332,85 327,80 282,80 282,90 " style="fill:#d89715; stroke-width:1; stroke:black; " description="&lt;b&gt;KSS96_RS18135&lt;/b&gt;&lt;br&gt;AMP-binding protein&lt;br&gt;Location: 4027705 - 4026074&lt;br&gt;&lt;br&gt;&lt;b&gt;BlastP hit with JNAJGP_23030&lt;/b&gt;&lt;br&gt;Percentage identity: 92&lt;br&gt;Percentage coverage: 100&lt;br&gt;BLAST bit score: 1038&lt;br&gt;E-value: 0.0" locus_tag="KSS96_RS18135" class="clusterblast-orf" id="dummy-8_h8_3_8"  />
</g>
<g id="a8_009"  >
<polygon points="335,90 484,90 489,85 484,80 335,80 335,90 " style="fill:#15d856; stroke-width:1; stroke:black; " description="&lt;b&gt;KSS96_RS18130&lt;/b&gt;&lt;br&gt;NEL-type E3 ubiquitin ligase domain-containing protein&lt;br&gt;Location: 4025974 - 4020851&lt;br&gt;&lt;br&gt;&lt;b&gt;BlastP hit with JNAJGP_23035&lt;/b&gt;&lt;br&gt;Percentage identity: 82&lt;br&gt;Percentage coverage: 100&lt;br&gt;BLAST bit score: 2763&lt;br&gt;E-value: 0.0" locus_tag="KSS96_RS18130" class="clusterblast-orf" id="dummy-8_h8_3_9"  />
</g>
<g id="a8_0010"  >
<polygon points="506,85 511,80 533,80 533,90 511,90 506,85 " style="fill:#1515d8; stroke-width:1; stroke:black; " description="&lt;b&gt;KSS96_RS18125&lt;/b&gt;&lt;br&gt;hydroxymethylglutaryl-CoA lyase&lt;br&gt;Location: 4020304 - 4019405&lt;br&gt;&lt;br&gt;&lt;b&gt;BlastP hit with JNAJGP_23045&lt;/b&gt;&lt;br&gt;Percentage identity: 96&lt;br&gt;Percentage coverage: 100&lt;br&gt;BLAST bit score: 549&lt;br&gt;E-value: 3.15e-198" locus_tag="KSS96_RS18125" class="clusterblast-orf" id="dummy-8_h8_3_10"  />
</g>
<g id="a8_0011"  >
<polygon points="533,85 538,80 545,80 545,90 538,90 533,85 " style="fill:#d81597; stroke-width:1; stroke:black; " description="&lt;b&gt;KSS96_RS18120&lt;/b&gt;&lt;br&gt;MerR family DNA-binding transcriptional regulator&lt;br&gt;Location: 4019388 - 4018996&lt;br&gt;&lt;br&gt;&lt;b&gt;BlastP hit with JNAJGP_23050&lt;/b&gt;&lt;br&gt;Percentage identity: 100&lt;br&gt;Percentage coverage: 100&lt;br&gt;BLAST bit score: 244&lt;br&gt;E-value: 6.36e-83" locus_tag="KSS96_RS18120" class="clusterblast-orf" id="dummy-8_h8_3_11"  />
</g>
<g id="a8_0012"  >
<polygon points="548,85 553,80 576,80 576,90 553,90 548,85 " style="fill:#d8d815; stroke-width:1; stroke:black; " description="&lt;b&gt;KSS96_RS18115&lt;/b&gt;&lt;br&gt;LysR family transcriptional regulator&lt;br&gt;Location: 4018911 - 4017976&lt;br&gt;&lt;br&gt;&lt;b&gt;BlastP hit with JNAJGP_23055&lt;/b&gt;&lt;br&gt;Percentage identity: 98&lt;br&gt;Percentage coverage: 100&lt;br&gt;BLAST bit score: 606&lt;br&gt;E-value: 2.2e-220" locus_tag="KSS96_RS18115" class="clusterblast-orf" id="dummy-8_h8_3_12"  />
</g>
<g id="a8_0013"  >
<polygon points="581,90 613,90 618,85 613,80 581,80 581,90 " style="fill:#15d897; stroke-width:1; stroke:black; " description="&lt;b&gt;KSS96_RS18110&lt;/b&gt;&lt;br&gt;acyl-CoA dehydrogenase&lt;br&gt;Location: 4017809 - 4016580&lt;br&gt;&lt;br&gt;&lt;b&gt;BlastP hit with JNAJGP_23060&lt;/b&gt;&lt;br&gt;Percentage identity: 100&lt;br&gt;Percentage coverage: 100&lt;br&gt;BLAST bit score: 825&lt;br&gt;E-value: 1.21e-303" locus_tag="KSS96_RS18110" class="clusterblast-orf" id="dummy-8_h8_3_13"  />
</g>
<g id="a8_0014"  >
<polygon points="619,85 624,80 659,80 659,90 624,90 619,85 " style="fill:#5615d8; stroke-width:1; stroke:black; " description="&lt;b&gt;KSS96_RS18105&lt;/b&gt;&lt;br&gt;phosphate ABC transporter substrate-binding/OmpA family protein&lt;br&gt;Location: 4016528 - 4015197&lt;br&gt;&lt;br&gt;&lt;b&gt;BlastP hit with JNAJGP_23065&lt;/b&gt;&lt;br&gt;Percentage identity: 92&lt;br&gt;Percentage coverage: 100&lt;br&gt;BLAST bit score: 782&lt;br&gt;E-value: 2e-285" locus_tag="KSS96_RS18105" class="clusterblast-orf" id="dummy-8_h8_3_14"  />
</g>
<g id="a8_0015"  >
<polygon points="663,85 668,80 688,80 688,90 668,90 663,85 " style="fill:#d81556; stroke-width:1; stroke:black; " description="&lt;b&gt;KSS96_RS18100&lt;/b&gt;&lt;br&gt;exodeoxyribonuclease III&lt;br&gt;Location: 4015067 - 4014255&lt;br&gt;&lt;br&gt;&lt;b&gt;BlastP hit with JNAJGP_23070&lt;/b&gt;&lt;br&gt;Percentage identity: 96&lt;br&gt;Percentage coverage: 100&lt;br&gt;BLAST bit score: 546&lt;br&gt;E-value: 3.89e-198" locus_tag="KSS96_RS18100" class="clusterblast-orf" id="dummy-8_h8_3_15"  />
</g>
<g id="a8_0016"  >
<polygon points="693,90 708,90 713,85 708,80 693,80 693,90 " style="fill:#97d815; stroke-width:1; stroke:black; " description="&lt;b&gt;KSS96_RS18095&lt;/b&gt;&lt;br&gt;GNAT family N-acetyltransferase&lt;br&gt;Location: 4014085 - 4013435&lt;br&gt;&lt;br&gt;&lt;b&gt;BlastP hit with JNAJGP_23075&lt;/b&gt;&lt;br&gt;Percentage identity: 95&lt;br&gt;Percentage coverage: 100&lt;br&gt;BLAST bit score: 431&lt;br&gt;E-value: 4.72e-154" locus_tag="KSS96_RS18095" class="clusterblast-orf" id="dummy-8_h8_3_16"  />
</g>
<g id="a8_0017"  >
<polygon points="715,90 762,90 767,85 762,80 715,80 715,90 " style="fill:#15d8d8; stroke-width:1; stroke:black; " description="&lt;b&gt;KSS96_RS18090&lt;/b&gt;&lt;br&gt;autotransporter assembly complex protein TamA&lt;br&gt;Location: 4013370 - 4011643&lt;br&gt;&lt;br&gt;&lt;b&gt;BlastP hit with JNAJGP_23080&lt;/b&gt;&lt;br&gt;Percentage identity: 94&lt;br&gt;Percentage coverage: 100&lt;br&gt;BLAST bit score: 1107&lt;br&gt;E-value: 0.0" locus_tag="KSS96_RS18090" class="clusterblast-orf" id="dummy-8_h8_3_17"  />
</g>
</svg>
