<svg xmlns="http://www.w3.org/2000/svg" xmlns:xlink="http://www.w3.org/1999/xlink" version="1.1" x="0" y="0" height="230" width="800" viewBox="0 0 800 230" preserveAspectRatio="none"  >
<g label="Query sequence" class="clusterblast-cluster"  >
<text x="5" y="20" class="clusterblast-acc"  >
Query sequence</text>
<line x1="10" y1="35" x2="778.0" y2="35" style="stroke-width:1; stroke:grey; "  />
<polygon points="0,35 5,30 38,30 38,40 5,40 0,35 " style="fill:white; stroke-width:1; stroke:black; " description="&lt;b&gt;JNAJGP_10370&lt;/b&gt;&lt;br&gt;Membrane fusion protein biotin-lipoyl like domain-containing protein&lt;br&gt;Location: 2187504 - 2189601" locus_tag="JNAJGP_10370" class="clusterblast-orf" id="dummy-4_q0_0_all"  />
<polygon points="38,35 43,30 63,30 63,40 43,40 38,35 " style="fill:white; stroke-width:1; stroke:black; " description="&lt;b&gt;JNAJGP_10375&lt;/b&gt;&lt;br&gt;Membrane fusion protein biotin-lipoyl like domain-containing protein&lt;br&gt;Location: 2189600 - 2190920" locus_tag="JNAJGP_10375" class="clusterblast-orf" id="dummy-4_q1_0_all"  />
<polygon points="63,35 68,30 77,30 77,40 68,40 63,35 " style="fill:white; stroke-width:1; stroke:black; " description="&lt;b&gt;JNAJGP_10380&lt;/b&gt;&lt;br&gt;Membrane fusion protein biotin-lipoyl like domain-containing protein&lt;br&gt;Location: 2190916 - 2191690" locus_tag="JNAJGP_10380" class="clusterblast-orf" id="dummy-4_q2_0_all"  />
<polygon points="80,40 115,40 120,35 115,30 80,30 80,40 " style="fill:white; stroke-width:1; stroke:black; " description="&lt;b&gt;JNAJGP_10385&lt;/b&gt;&lt;br&gt;Outer membrane assembly lipoprotein YfiO&lt;br&gt;Location: 2191852 - 2194012" locus_tag="JNAJGP_10385" class="clusterblast-orf" id="dummy-4_q3_0_all"  />
<polygon points="120,40 128,40 133,35 128,30 120,30 120,40 " style="fill:white; stroke-width:1; stroke:black; " description="&lt;b&gt;JNAJGP_10390&lt;/b&gt;&lt;br&gt;DUF3142 domain-containing protein&lt;br&gt;Location: 2194008 - 2194713" locus_tag="JNAJGP_10390" class="clusterblast-orf" id="dummy-4_q4_0_all"  />
<polygon points="138,40 142,35 138,30 138,40 " style="fill:white; stroke-width:1; stroke:black; " description="&lt;b&gt;JNAJGP_10395&lt;/b&gt;&lt;br&gt;Nucleotidyl transferase AbiEii/AbiGii toxin family protein&lt;br&gt;Location: 2195001 - 2195217" locus_tag="JNAJGP_10395" class="clusterblast-orf" id="dummy-4_q5_0_all"  />
<polygon points="149,35 154,30 176,30 176,40 154,40 149,35 " style="fill:white; stroke-width:1; stroke:black; " description="&lt;b&gt;JNAJGP_10400&lt;/b&gt;&lt;br&gt;RND transporter&lt;br&gt;Location: 2195577 - 2197023" locus_tag="JNAJGP_10400" class="clusterblast-orf" id="dummy-4_q6_0_all"  />
<polygon points="176,35 181,30 195,30 195,40 181,40 176,35 " style="fill:white; stroke-width:1; stroke:black; " description="&lt;b&gt;JNAJGP_10405&lt;/b&gt;&lt;br&gt;HlyD family secretion protein&lt;br&gt;Location: 2197019 - 2198078" locus_tag="JNAJGP_10405" class="clusterblast-orf" id="dummy-4_q7_0_all"  />
<polygon points="195,35 200,30 224,30 224,40 200,40 195,35 " style="fill:white; stroke-width:1; stroke:black; " description="&lt;b&gt;JNAJGP_10410&lt;/b&gt;&lt;br&gt;Major facilitator superfamily (MFS) profile domain-containing protein&lt;br&gt;Location: 2198094 - 2199630" locus_tag="JNAJGP_10410" class="clusterblast-orf" id="dummy-4_q8_0_all"  />
<polygon points="228,35 233,30 245,30 245,40 233,40 228,35 " style="fill:white; stroke-width:1; stroke:black; " description="&lt;b&gt;JNAJGP_10415&lt;/b&gt;&lt;br&gt;HTH lysR-type domain-containing protein&lt;br&gt;Location: 2199845 - 2200766" locus_tag="JNAJGP_10415" class="clusterblast-orf" id="dummy-4_q9_0_all"  />
<polygon points="246,35 251,30 261,30 261,40 251,40 246,35 " style="fill:white; stroke-width:1; stroke:black; " description="&lt;b&gt;JNAJGP_10420&lt;/b&gt;&lt;br&gt;ABC transmembrane type-1 domain-containing protein&lt;br&gt;Location: 2200820 - 2201669" locus_tag="JNAJGP_10420" class="clusterblast-orf" id="dummy-4_q10_0_all"  />
<polygon points="262,35 267,30 277,30 277,40 267,40 262,35 " style="fill:white; stroke-width:1; stroke:black; " description="&lt;b&gt;JNAJGP_10425&lt;/b&gt;&lt;br&gt;Vitamin B12 import ATP-binding protein BtuD&lt;br&gt;Location: 2201680 - 2202532" locus_tag="JNAJGP_10425" class="clusterblast-orf" id="dummy-4_q11_0_all"  />
<polygon points="277,35 282,30 296,30 296,40 282,40 277,35 " style="fill:white; stroke-width:1; stroke:black; " description="&lt;b&gt;JNAJGP_10430&lt;/b&gt;&lt;br&gt;SsuA/THI5-like domain-containing protein&lt;br&gt;Location: 2202533 - 2203559" locus_tag="JNAJGP_10430" class="clusterblast-orf" id="dummy-4_q12_0_all"  />
<polygon points="297,35 302,30 313,30 313,40 302,40 297,35 " style="fill:white; stroke-width:1; stroke:black; " description="&lt;b&gt;JNAJGP_10435&lt;/b&gt;&lt;br&gt;Alpha-ketoglutarate-dependent taurine dioxygenase&lt;br&gt;Location: 2203573 - 2204467" locus_tag="JNAJGP_10435" class="clusterblast-orf" id="dummy-4_q13_0_all"  />
<polygon points="318,40 326,40 331,35 326,30 318,30 318,40 " style="fill:white; stroke-width:1; stroke:black; " description="&lt;b&gt;JNAJGP_10440&lt;/b&gt;&lt;br&gt;HTH gntR-type domain-containing protein&lt;br&gt;Location: 2204734 - 2205445" locus_tag="JNAJGP_10440" class="clusterblast-orf" id="dummy-4_q14_0_all"  />
<polygon points="337,40 346,40 351,35 346,30 337,30 337,40 " style="fill:#d81515; stroke-width:1; stroke:black; " description="&lt;b&gt;JNAJGP_10445&lt;/b&gt;&lt;br&gt;Mangotoxin biosynthesis-involved protein MgoB&lt;br&gt;Location: 2205768 - 2206527" locus_tag="JNAJGP_10445" class="clusterblast-orf" id="dummy-4_q15_0_all"  />
<polygon points="351,40 364,40 369,35 364,30 351,30 351,40 " style="fill:#15d863; stroke-width:1; stroke:black; " description="&lt;b&gt;JNAJGP_10450&lt;/b&gt;&lt;br&gt;p-aminobenzoate N-oxygenase AurF&lt;br&gt;Location: 2206523 - 2207462" locus_tag="JNAJGP_10450" class="clusterblast-orf" id="dummy-4_q16_0_all"  />
<polygon points="368,40 426,40 431,35 426,30 368,30 368,40 " style="fill:white; stroke-width:1; stroke:black; " description="&lt;b&gt;JNAJGP_10455&lt;/b&gt;&lt;br&gt;Amino acid adenylation:thioester reductase&lt;br&gt;Location: 2207458 - 2210839" locus_tag="JNAJGP_10455" class="clusterblast-orf" id="dummy-4_q17_0_all"  />
<polygon points="431,40 435,40 440,35 435,30 431,30 431,40 " style="fill:#1563d8; stroke-width:1; stroke:black; " description="&lt;b&gt;JNAJGP_10460&lt;/b&gt;&lt;br&gt;Polyketide cyclase/dehydrase&lt;br&gt;Location: 2210858 - 2211323" locus_tag="JNAJGP_10460" class="clusterblast-orf" id="dummy-4_q18_0_all"  />
<polygon points="441,35 446,30 475,30 475,40 446,40 441,35 " style="fill:white; stroke-width:1; stroke:black; " description="&lt;b&gt;JNAJGP_10465&lt;/b&gt;&lt;br&gt;Chemotaxis protein&lt;br&gt;Location: 2211358 - 2213239" locus_tag="JNAJGP_10465" class="clusterblast-orf" id="dummy-4_q19_0_all"  />
<polygon points="588,35 593,30 610,30 610,40 593,40 588,35 " style="fill:white; stroke-width:1; stroke:black; " description="&lt;b&gt;JNAJGP_10495&lt;/b&gt;&lt;br&gt;CoA-transferase&lt;br&gt;Location: 2219310 - 2220531" locus_tag="JNAJGP_10495" class="clusterblast-orf" id="dummy-4_q20_0_all"  />
<polygon points="610,35 615,30 632,30 632,40 615,40 610,35 " style="fill:white; stroke-width:1; stroke:black; " description="&lt;b&gt;JNAJGP_10500&lt;/b&gt;&lt;br&gt;Acyl-CoA dehydrogenase related to the alkylation response protein AidB&lt;br&gt;Location: 2220543 - 2221725" locus_tag="JNAJGP_10500" class="clusterblast-orf" id="dummy-4_q21_0_all"  />
<polygon points="635,40 647,40 652,35 647,30 635,30 635,40 " style="fill:white; stroke-width:1; stroke:black; " description="&lt;b&gt;JNAJGP_10505&lt;/b&gt;&lt;br&gt;HTH lysR-type domain-containing protein&lt;br&gt;Location: 2221881 - 2222781" locus_tag="JNAJGP_10505" class="clusterblast-orf" id="dummy-4_q22_0_all"  />
<polygon points="660,40 676,40 681,35 676,30 660,30 660,40 " style="fill:#b115d8; stroke-width:1; stroke:black; " description="&lt;b&gt;JNAJGP_10510&lt;/b&gt;&lt;br&gt;Re/Si-specific NAD(P)(+) transhydrogenase subunit alpha&lt;br&gt;Location: 2223233 - 2224355" locus_tag="JNAJGP_10510" class="clusterblast-orf" id="dummy-4_q23_0_all"  />
<polygon points="681,40 682,40 687,35 682,30 681,30 681,40 " style="fill:#b115d8; stroke-width:1; stroke:black; " description="&lt;b&gt;JNAJGP_10515&lt;/b&gt;&lt;br&gt;proton-translocating NAD(P)(+) transhydrogenase&lt;br&gt;Location: 2224370 - 2224691" locus_tag="JNAJGP_10515" class="clusterblast-orf" id="dummy-4_q24_0_all"  />
<polygon points="687,40 709,40 714,35 709,30 687,30 687,40 " style="fill:#b1d815; stroke-width:1; stroke:black; " description="&lt;b&gt;JNAJGP_10520&lt;/b&gt;&lt;br&gt;NAD/NADP transhydrogenase beta subunit&lt;br&gt;Location: 2224690 - 2226127" locus_tag="JNAJGP_10520" class="clusterblast-orf" id="dummy-4_q25_0_all"  />
<polygon points="717,40 739,40 744,35 739,30 717,30 717,40 " style="fill:white; stroke-width:1; stroke:black; " description="&lt;b&gt;JNAJGP_10525&lt;/b&gt;&lt;br&gt;Propionyl CoA:succinate CoA transferase&lt;br&gt;Location: 2226306 - 2227800" locus_tag="JNAJGP_10525" class="clusterblast-orf" id="dummy-4_q26_0_all"  />
<polygon points="750,40 754,35 750,30 750,40 " style="fill:white; stroke-width:1; stroke:black; " description="&lt;b&gt;JNAJGP_10530&lt;/b&gt;&lt;br&gt;DUF1127 domain-containing protein&lt;br&gt;Location: 2228118 - 2228334" locus_tag="JNAJGP_10530" class="clusterblast-orf" id="dummy-4_q27_0_all"  />
<polygon points="760,40 760,40 765,35 760,30 760,30 760,40 " style="fill:white; stroke-width:1; stroke:black; " description="&lt;b&gt;JNAJGP_10535&lt;/b&gt;&lt;br&gt;Holliday junction resolvasome, helicase subunit&lt;br&gt;Location: 2228618 - 2228939" locus_tag="JNAJGP_10535" class="clusterblast-orf" id="dummy-4_q28_0_all"  />
<polygon points="767,40 768,40 773,35 768,30 767,30 767,40 " style="fill:white; stroke-width:1; stroke:black; " description="&lt;b&gt;JNAJGP_10540&lt;/b&gt;&lt;br&gt;Holliday junction resolvasome, helicase subunit&lt;br&gt;Location: 2229038 - 2229347" locus_tag="JNAJGP_10540" class="clusterblast-orf" id="dummy-4_q29_0_all"  />
<polygon points="774,40 775,40 780,35 775,30 774,30 774,40 " style="fill:white; stroke-width:1; stroke:black; " description="&lt;b&gt;JNAJGP_10545&lt;/b&gt;&lt;br&gt;DUF2388 domain-containing protein&lt;br&gt;Location: 2229386 - 2229707" locus_tag="JNAJGP_10545" class="clusterblast-orf" id="dummy-4_q30_0_all"  />
</g>
<g label="BGC0001599" description="BGC0001599_c1: fragin (37% of genes show similarity), NRP" class="clusterblast-cluster"  >
<text x="5" y="70" class="clusterblast-acc"  >
<a xlink:href="https://mibig.secondarymetabolites.org/go/BGC0001599/1" target="_blank">BGC0001599</a>: fragin                                                                           (37% of genes show similarity), NRP</text>
<line x1="10" y1="85" x2="778.0" y2="85" style="stroke-width:1; stroke:grey; "  />
</g>
<g id="a4_000"  >
<polygon points="303,85 308,80 328,80 328,90 308,90 303,85 " style="fill:white; stroke-width:1; stroke:black; " description="&lt;b&gt;I35_4188&lt;/b&gt;&lt;br&gt;Omega-amino acid--pyruvate aminotransferase&lt;br&gt;Location: 1 - 1347" locus_tag="I35_4188" class="clusterblast-orf" id="dummy-4_h4_3_0"  />
</g>
<g id="a4_001"  >
<polygon points="329,85 334,80 354,80 354,90 334,90 329,85 " style="fill:white; stroke-width:1; stroke:black; " description="&lt;b&gt;I35_4189&lt;/b&gt;&lt;br&gt;Enterobactin synthetase component F&lt;br&gt;Location: 1404 - 2765" locus_tag="I35_4189" class="clusterblast-orf" id="dummy-4_h4_3_1"  />
</g>
<g id="a4_002"  >
<polygon points="356,85 361,80 361,80 361,90 361,90 356,85 " style="fill:white; stroke-width:1; stroke:black; " description="&lt;b&gt;I35_4190&lt;/b&gt;&lt;br&gt;hypothetical protein&lt;br&gt;Location: 2880 - 3146" locus_tag="I35_4190" class="clusterblast-orf" id="dummy-4_h4_3_2"  />
</g>
<g id="a4_003"  >
<polygon points="361,90 371,90 376,85 371,80 361,80 361,90 " style="fill:#d81515; stroke-width:1; stroke:black; " description="&lt;b&gt;I35_4191&lt;/b&gt;&lt;br&gt;PROBABLE REMNANT OF A TRANSPOSASE GENE PROTEIN&lt;br&gt;Location: 3162 - 3944&lt;br&gt;&lt;br&gt;&lt;b&gt;BlastP hit with JNAJGP_10445&lt;/b&gt;&lt;br&gt;Percentage identity: 46&lt;br&gt;Percentage coverage: 95&lt;br&gt;BLAST bit score: 211&lt;br&gt;E-value: 3.73e-68" locus_tag="I35_4191" class="clusterblast-orf" id="dummy-4_h4_3_3"  />
</g>
<g id="a4_004"  >
<polygon points="376,90 378,90 383,85 378,80 376,80 376,90 " style="fill:white; stroke-width:1; stroke:black; " description="&lt;b&gt;I35_4192&lt;/b&gt;&lt;br&gt;hypothetical protein&lt;br&gt;Location: 3941 - 4330" locus_tag="I35_4192" class="clusterblast-orf" id="dummy-4_h4_3_4"  />
</g>
<g id="a4_005"  >
<polygon points="383,90 395,90 400,85 395,80 383,80 383,90 " style="fill:#15d863; stroke-width:1; stroke:black; " description="&lt;b&gt;I35_4193&lt;/b&gt;&lt;br&gt;hypothetical protein&lt;br&gt;Location: 4327 - 5253&lt;br&gt;&lt;br&gt;&lt;b&gt;BlastP hit with JNAJGP_10450&lt;/b&gt;&lt;br&gt;Percentage identity: 53&lt;br&gt;Percentage coverage: 97&lt;br&gt;BLAST bit score: 306&lt;br&gt;E-value: 6.37e-104" locus_tag="I35_4193" class="clusterblast-orf" id="dummy-4_h4_3_5"  />
</g>
<g id="a4_006"  >
<polygon points="400,90 461,90 466,85 461,80 400,80 400,90 " style="fill:white; stroke-width:1; stroke:black; " description="&lt;b&gt;I35_4194&lt;/b&gt;&lt;br&gt;Peptide synthetase&lt;br&gt;Location: 5263 - 8829" locus_tag="I35_4194" class="clusterblast-orf" id="dummy-4_h4_3_6"  />
</g>
<g id="a4_007"  >
<polygon points="467,90 471,90 476,85 471,80 467,80 467,90 " style="fill:#1563d8; stroke-width:1; stroke:black; " description="&lt;b&gt;I35_4195&lt;/b&gt;&lt;br&gt;hypothetical protein&lt;br&gt;Location: 8885 - 9373&lt;br&gt;&lt;br&gt;&lt;b&gt;BlastP hit with JNAJGP_10460&lt;/b&gt;&lt;br&gt;Percentage identity: 46&lt;br&gt;Percentage coverage: 97&lt;br&gt;BLAST bit score: 126&lt;br&gt;E-value: 2.14e-37" locus_tag="I35_4195" class="clusterblast-orf" id="dummy-4_h4_3_7"  />
</g>
</svg>
