<svg xmlns="http://www.w3.org/2000/svg" xmlns:xlink="http://www.w3.org/1999/xlink" version="1.1" x="0" y="0" height="230" width="800" viewBox="0 0 800 230" preserveAspectRatio="none"  >
<g label="Query sequence" class="clusterblast-cluster"  >
<text x="5" y="20" class="clusterblast-acc"  >
Query sequence</text>
<line x1="10" y1="35" x2="778.0" y2="35" style="stroke-width:1; stroke:grey; "  />
<polygon points="152,40 192,40 197,35 192,30 152,30 152,40 " style="fill:white; stroke-width:1; stroke:black; " description="&lt;b&gt;JNAJGP_13890&lt;/b&gt;&lt;br&gt;phenylacyl-CoA dehydrogenase&lt;br&gt;Location: 2957054 - 2958860" locus_tag="JNAJGP_13890" class="clusterblast-orf" id="dummy-6_q0_0_all"  />
<polygon points="202,40 230,40 235,35 230,30 202,30 202,40 " style="fill:white; stroke-width:1; stroke:black; " description="&lt;b&gt;JNAJGP_13895&lt;/b&gt;&lt;br&gt;GGDEF domain-containing protein&lt;br&gt;Location: 2959064 - 2960357" locus_tag="JNAJGP_13895" class="clusterblast-orf" id="dummy-6_q1_0_all"  />
<polygon points="237,40 277,40 282,35 277,30 237,30 237,40 " style="fill:white; stroke-width:1; stroke:black; " description="&lt;b&gt;JNAJGP_13900&lt;/b&gt;&lt;br&gt;Acyl-CoA dehydrogenase&lt;br&gt;Location: 2960447 - 2962217" locus_tag="JNAJGP_13900" class="clusterblast-orf" id="dummy-6_q2_0_all"  />
<polygon points="285,40 325,40 330,35 325,30 285,30 285,40 " style="fill:white; stroke-width:1; stroke:black; " description="&lt;b&gt;JNAJGP_13905&lt;/b&gt;&lt;br&gt;Acyl-CoA dehydrogenase&lt;br&gt;Location: 2962339 - 2964118" locus_tag="JNAJGP_13905" class="clusterblast-orf" id="dummy-6_q3_0_all"  />
<polygon points="335,35 340,30 358,30 358,40 340,40 335,35 " style="fill:white; stroke-width:1; stroke:black; " description="&lt;b&gt;JNAJGP_13915&lt;/b&gt;&lt;br&gt;HTH lysR-type domain-containing protein&lt;br&gt;Location: 2964345 - 2965245" locus_tag="JNAJGP_13915" class="clusterblast-orf" id="dummy-6_q4_0_all"  />
<polygon points="363,40 390,40 395,35 390,30 363,30 363,40 " style="fill:white; stroke-width:1; stroke:black; " description="&lt;b&gt;JNAJGP_13920&lt;/b&gt;&lt;br&gt;Acetylornithine and succinylornithine aminotransferase&lt;br&gt;Location: 2965442 - 2966705" locus_tag="JNAJGP_13920" class="clusterblast-orf" id="dummy-6_q5_0_all"  />
<polygon points="399,40 403,35 399,30 399,40 " style="fill:white; stroke-width:1; stroke:black; " description="&lt;b&gt;JNAJGP_13925&lt;/b&gt;&lt;br&gt;Membrane putative modulator PMP3/YqaE, plasma membrane proteolipid 3 (PMP3)/Esi3/RCI2/UPF0057 family&lt;br&gt;Location: 2966887 - 2967046" locus_tag="JNAJGP_13925" class="clusterblast-orf" id="dummy-6_q6_0_all"  />
<polygon points="403,35 408,30 432,30 432,40 408,40 403,35 " style="fill:#d81515; stroke-width:1; stroke:black; " description="&lt;b&gt;JNAJGP_13930&lt;/b&gt;&lt;br&gt;pyrroloquinoline quinone biosynthesis protein PqqE&lt;br&gt;Location: 2967051 - 2968203" locus_tag="JNAJGP_13930" class="clusterblast-orf" id="dummy-6_q7_0_all"  />
<polygon points="432,35 437,30 439,30 439,40 437,40 432,35 " style="fill:white; stroke-width:1; stroke:black; " description="&lt;b&gt;JNAJGP_13935&lt;/b&gt;&lt;br&gt;pyrroloquinoline quinone biosynthesis peptide chaperone PqqD&lt;br&gt;Location: 2968174 - 2968450" locus_tag="JNAJGP_13935" class="clusterblast-orf" id="dummy-6_q8_0_all"  />
<polygon points="439,35 444,30 458,30 458,40 444,40 439,35 " style="fill:#15d8d8; stroke-width:1; stroke:black; " description="&lt;b&gt;JNAJGP_13940&lt;/b&gt;&lt;br&gt;pyrroloquinoline-quinone synthase PqqC&lt;br&gt;Location: 2968446 - 2969199" locus_tag="JNAJGP_13940" class="clusterblast-orf" id="dummy-6_q9_0_all"  />
<polygon points="458,35 463,30 481,30 481,40 463,40 458,35 " style="fill:white; stroke-width:1; stroke:black; " description="&lt;b&gt;JNAJGP_13945&lt;/b&gt;&lt;br&gt;pyrroloquinoline quinone biosynthesis protein PqqB&lt;br&gt;Location: 2969210 - 2970122" locus_tag="JNAJGP_13945" class="clusterblast-orf" id="dummy-6_q10_0_all"  />
<polygon points="483,35 485,30 485,40 483,35 " style="fill:white; stroke-width:1; stroke:black; " description="&lt;b&gt;JNAJGP_13950&lt;/b&gt;&lt;br&gt;pyrroloquinoline quinone precursor peptide PqqA&lt;br&gt;Location: 2970193 - 2970268" locus_tag="JNAJGP_13950" class="clusterblast-orf" id="dummy-6_q11_0_all"  />
<polygon points="489,35 494,30 548,30 548,40 494,40 489,35 " style="fill:white; stroke-width:1; stroke:black; " description="&lt;b&gt;JNAJGP_13955&lt;/b&gt;&lt;br&gt;pyrroloquinoline quinone biosynthesis protein PqqF&lt;br&gt;Location: 2970427 - 2972797" locus_tag="JNAJGP_13955" class="clusterblast-orf" id="dummy-6_q12_0_all"  />
<polygon points="550,35 555,30 570,30 570,40 555,40 550,35 " style="fill:white; stroke-width:1; stroke:black; " description="&lt;b&gt;JNAJGP_13960&lt;/b&gt;&lt;br&gt;(R)-stereoselective amidase&lt;br&gt;Location: 2972856 - 2973651" locus_tag="JNAJGP_13960" class="clusterblast-orf" id="dummy-6_q13_0_all"  />
<polygon points="570,35 575,30 613,30 613,40 575,40 570,35 " style="fill:white; stroke-width:1; stroke:black; " description="&lt;b&gt;JNAJGP_13965&lt;/b&gt;&lt;br&gt;Monoamine oxidase&lt;br&gt;Location: 2973662 - 2975366" locus_tag="JNAJGP_13965" class="clusterblast-orf" id="dummy-6_q14_0_all"  />
<polygon points="617,35 622,30 628,30 628,40 622,40 617,35 " style="fill:white; stroke-width:1; stroke:black; " description="&lt;b&gt;JNAJGP_13970&lt;/b&gt;&lt;br&gt;DNA-binding transcriptional regulator, Lrp family&lt;br&gt;Location: 2975511 - 2975958" locus_tag="JNAJGP_13970" class="clusterblast-orf" id="dummy-6_q15_0_all"  />
</g>
<g label="BGC0001100" description="BGC0001100_c1: lankacidin C (13% of genes show similarity), NRP+Polyketide" class="clusterblast-cluster"  >
<text x="5" y="70" class="clusterblast-acc"  >
<a xlink:href="https://mibig.secondarymetabolites.org/go/BGC0001100/1" target="_blank">BGC0001100</a>: lankacidin C                                                                     (13% of genes show similarity), NRP+Polyketide</text>
<line x1="10" y1="85" x2="778.0" y2="85" style="stroke-width:1; stroke:grey; "  />
</g>
<g id="a6_000"  >
<polygon points="0,85 5,80 22,80 22,90 5,90 0,85 " style="fill:white; stroke-width:1; stroke:black; " description="&lt;b&gt;BAC76462.1&lt;/b&gt;&lt;br&gt;pyrroloquinoline quinone biosynthesis protein B&lt;br&gt;Location: 1 - 891" locus_tag="BAC76462.1" class="clusterblast-orf" id="dummy-6_h6_1_0"  />
</g>
<g id="a6_001"  >
<polygon points="22,85 27,80 50,80 50,90 27,90 22,85 " style="fill:#d81515; stroke-width:1; stroke:black; " description="&lt;b&gt;BAC76463.1&lt;/b&gt;&lt;br&gt;pyrroloquinoline quinone biosynthesis protein E&lt;br&gt;Location: 894 - 1988&lt;br&gt;&lt;br&gt;&lt;b&gt;BlastP hit with JNAJGP_13930&lt;/b&gt;&lt;br&gt;Percentage identity: 49&lt;br&gt;Percentage coverage: 90&lt;br&gt;BLAST bit score: 348&lt;br&gt;E-value: 3.29e-118" locus_tag="BAC76463.1" class="clusterblast-orf" id="dummy-6_h6_1_1"  />
</g>
<g id="a6_002"  >
<polygon points="49,85 54,80 56,80 56,90 54,90 49,85 " style="fill:white; stroke-width:1; stroke:black; " description="&lt;b&gt;BAC76464.1&lt;/b&gt;&lt;br&gt;pyrroloquinoline quinone biosynthesis protein D&lt;br&gt;Location: 1981 - 2253" locus_tag="BAC76464.1" class="clusterblast-orf" id="dummy-6_h6_1_2"  />
</g>
<g id="a6_003"  >
<polygon points="56,85 61,80 75,80 75,90 61,90 56,85 " style="fill:#15d8d8; stroke-width:1; stroke:black; " description="&lt;b&gt;BAC76465.1&lt;/b&gt;&lt;br&gt;pyrroloquinoline quinone biosynthesis protein C&lt;br&gt;Location: 2250 - 2978&lt;br&gt;&lt;br&gt;&lt;b&gt;BlastP hit with JNAJGP_13940&lt;/b&gt;&lt;br&gt;Percentage identity: 46&lt;br&gt;Percentage coverage: 88&lt;br&gt;BLAST bit score: 203&lt;br&gt;E-value: 2.96e-65" locus_tag="BAC76465.1" class="clusterblast-orf" id="dummy-6_h6_1_3"  />
</g>
<g id="a6_004"  >
<polygon points="75,85 78,80 78,90 75,85 " style="fill:white; stroke-width:1; stroke:black; " description="&lt;b&gt;BAC76466.1&lt;/b&gt;&lt;br&gt;pyrroloquinoline quinone biosynthesis protein A&lt;br&gt;Location: 3005 - 3109" locus_tag="BAC76466.1" class="clusterblast-orf" id="dummy-6_h6_1_4"  />
</g>
<g id="a6_005"  >
<polygon points="88,90 124,90 129,85 124,80 88,80 88,90 " style="fill:white; stroke-width:1; stroke:black; " description="&lt;b&gt;BAC76467.1&lt;/b&gt;&lt;br&gt;putative ABC transporter protein&lt;br&gt;Location: 3499 - 5136" locus_tag="BAC76467.1" class="clusterblast-orf" id="dummy-6_h6_1_5"  />
</g>
<g id="a6_006"  >
<polygon points="129,90 167,90 172,85 167,80 129,80 129,90 " style="fill:white; stroke-width:1; stroke:black; " description="&lt;b&gt;BAC76468.1&lt;/b&gt;&lt;br&gt;putative ABC transporter protein&lt;br&gt;Location: 5129 - 6838" locus_tag="BAC76468.1" class="clusterblast-orf" id="dummy-6_h6_1_6"  />
</g>
<g id="a6_007"  >
<polygon points="173,85 178,80 187,80 187,90 178,90 173,85 " style="fill:white; stroke-width:1; stroke:black; " description="&lt;b&gt;BAC76469.1&lt;/b&gt;&lt;br&gt;probable isochorismatase&lt;br&gt;Location: 6894 - 7448" locus_tag="BAC76469.1" class="clusterblast-orf" id="dummy-6_h6_1_7"  />
</g>
<g id="a6_008"  >
<polygon points="189,85 194,80 259,80 259,90 194,90 189,85 " style="fill:white; stroke-width:1; stroke:black; " description="&lt;b&gt;BAC76470.1&lt;/b&gt;&lt;br&gt;type I polyketide synthase LkcG&lt;br&gt;Location: 7513 - 10293" locus_tag="BAC76470.1" class="clusterblast-orf" id="dummy-6_h6_1_8"  />
</g>
<g id="a6_009"  >
<polygon points="260,85 265,80 437,80 437,90 265,90 260,85 " style="fill:white; stroke-width:1; stroke:black; " description="&lt;b&gt;BAC76471.1&lt;/b&gt;&lt;br&gt;type I polyketide synthase LkcF&lt;br&gt;Location: 10345 - 17385" locus_tag="BAC76471.1" class="clusterblast-orf" id="dummy-6_h6_1_9"  />
</g>
<g id="a6_0010"  >
<polygon points="439,85 444,80 472,80 472,90 444,90 439,85 " style="fill:white; stroke-width:1; stroke:black; " description="&lt;b&gt;BAC76472.1&lt;/b&gt;&lt;br&gt;amine oxidase LkcE&lt;br&gt;Location: 17438 - 18754" locus_tag="BAC76472.1" class="clusterblast-orf" id="dummy-6_h6_1_10"  />
</g>
<g id="a6_0011"  >
<polygon points="472,85 477,80 494,80 494,90 477,90 472,85 " style="fill:white; stroke-width:1; stroke:black; " description="&lt;b&gt;BAC76473.1&lt;/b&gt;&lt;br&gt;acyltransferase LkcD&lt;br&gt;Location: 18754 - 19635" locus_tag="BAC76473.1" class="clusterblast-orf" id="dummy-6_h6_1_11"  />
</g>
<g id="a6_0012"  >
<polygon points="494,85 499,80 635,80 635,90 499,90 494,85 " style="fill:white; stroke-width:1; stroke:black; " description="&lt;b&gt;BAC76474.1&lt;/b&gt;&lt;br&gt;type I polyketide synthase LkcC&lt;br&gt;Location: 19647 - 25235" locus_tag="BAC76474.1" class="clusterblast-orf" id="dummy-6_h6_1_12"  />
</g>
<g id="a6_0013"  >
<polygon points="636,85 641,80 657,80 657,90 641,90 636,85 " style="fill:white; stroke-width:1; stroke:black; " description="&lt;b&gt;BAC76475.1&lt;/b&gt;&lt;br&gt;dehydratase LkcB&lt;br&gt;Location: 25265 - 26095" locus_tag="BAC76475.1" class="clusterblast-orf" id="dummy-6_h6_1_13"  />
</g>
<g id="a6_0014"  >
<polygon points="657,85 662,80 780,80 780,90 662,90 657,85 " style="fill:white; stroke-width:1; stroke:black; " description="&lt;b&gt;BAC76476.1&lt;/b&gt;&lt;br&gt;multifunctional polyketide-peptide synthase LkcA&lt;br&gt;Location: 26092 - 30960" locus_tag="BAC76476.1" class="clusterblast-orf" id="dummy-6_h6_1_14"  />
</g>
</svg>
