<svg xmlns="http://www.w3.org/2000/svg" xmlns:xlink="http://www.w3.org/1999/xlink" version="1.1" x="0" y="0" height="50" width="800" viewBox="0 0 800 50" preserveAspectRatio="none"  >
<g label="Query sequence" class="clusterblast-cluster"  >
<text x="5" y="20" class="clusterblast-acc"  >
Query sequence</text>
<line x1="10" y1="35" x2="778.0" y2="35" style="stroke-width:1; stroke:grey; "  />
<polygon points="0,35 5,30 8,30 8,40 5,40 0,35 " style="fill:white; stroke-width:1; stroke:black; " description="&lt;b&gt;JNAJGP_00145&lt;/b&gt;&lt;br&gt;hypothetical protein&lt;br&gt;Location: 27238 - 27385" locus_tag="JNAJGP_00145" class="clusterblast-orf" id="knownclusterblast-1_q0_0_all"  />
<polygon points="26,35 31,30 112,30 112,40 31,40 26,35 " style="fill:white; stroke-width:1; stroke:black; " description="&lt;b&gt;JNAJGP_00150&lt;/b&gt;&lt;br&gt;polyphosphate:AMP phosphotransferase&lt;br&gt;Location: 27695 - 29210" locus_tag="JNAJGP_00150" class="clusterblast-orf" id="knownclusterblast-1_q1_0_all"  />
<polygon points="121,40 228,40 233,35 228,30 121,30 121,40 " style="fill:white; stroke-width:1; stroke:black; " description="&lt;b&gt;JNAJGP_00155&lt;/b&gt;&lt;br&gt;bifunctional tRNA (5-methylaminomethyl-2-thiouridine)(34)-methyltransferase MnmD/FAD-dependent 5-carboxymethylaminomethyl-2-thiouridine(34) oxidoreductase MnmC&lt;br&gt;Location: 29364 - 31350" locus_tag="JNAJGP_00155" class="clusterblast-orf" id="knownclusterblast-1_q2_0_all"  />
<polygon points="246,40 342,40 347,35 342,30 246,30 246,40 " style="fill:white; stroke-width:1; stroke:black; " description="&lt;b&gt;JNAJGP_00160&lt;/b&gt;&lt;br&gt;N-acetylglutaminylglutamine amidotransferase&lt;br&gt;Location: 31575 - 33348" locus_tag="JNAJGP_00160" class="clusterblast-orf" id="knownclusterblast-1_q3_0_all"  />
<polygon points="347,40 441,40 446,35 441,30 347,30 347,40 " style="fill:white; stroke-width:1; stroke:black; " description="&lt;b&gt;JNAJGP_00165&lt;/b&gt;&lt;br&gt;N-acetylglutaminylglutamine synthetase&lt;br&gt;Location: 33351 - 35100" locus_tag="JNAJGP_00165" class="clusterblast-orf" id="knownclusterblast-1_q4_0_all"  />
<polygon points="455,40 518,40 523,35 518,30 455,30 455,40 " style="fill:white; stroke-width:1; stroke:black; " description="&lt;b&gt;JNAJGP_00170&lt;/b&gt;&lt;br&gt;osmoprotectant NAGGN system M42 family peptidase&lt;br&gt;Location: 35263 - 36448" locus_tag="JNAJGP_00170" class="clusterblast-orf" id="knownclusterblast-1_q5_0_all"  />
<polygon points="526,40 534,40 539,35 534,30 526,30 526,40 " style="fill:white; stroke-width:1; stroke:black; " description="&lt;b&gt;JNAJGP_00175&lt;/b&gt;&lt;br&gt;UPF0270 protein Pfl01 4103&lt;br&gt;Location: 36507 - 36735" locus_tag="JNAJGP_00175" class="clusterblast-orf" id="knownclusterblast-1_q6_0_all"  />
<polygon points="539,35 544,30 550,30 550,40 544,40 539,35 " style="fill:white; stroke-width:1; stroke:black; " description="&lt;b&gt;JNAJGP_00180&lt;/b&gt;&lt;br&gt;carbon storage regulator CsrA&lt;br&gt;Location: 36743 - 36941" locus_tag="JNAJGP_00180" class="clusterblast-orf" id="knownclusterblast-1_q7_0_all"  />
<polygon points="558,35 563,30 604,30 604,40 563,40 558,35 " style="fill:white; stroke-width:1; stroke:black; " description="&lt;b&gt;JNAJGP_00185&lt;/b&gt;&lt;br&gt;SDR family oxidoreductase&lt;br&gt;Location: 37068 - 37884" locus_tag="JNAJGP_00185" class="clusterblast-orf" id="knownclusterblast-1_q8_0_all"  />
<polygon points="623,40 626,40 631,35 626,30 623,30 623,40 " style="fill:white; stroke-width:1; stroke:black; " description="&lt;b&gt;JNAJGP_00190&lt;/b&gt;&lt;br&gt;DUF3309 domain-containing protein&lt;br&gt;Location: 38212 - 38365" locus_tag="JNAJGP_00190" class="clusterblast-orf" id="knownclusterblast-1_q9_0_all"  />
<polygon points="634,35 639,30 753,30 753,40 639,40 634,35 " style="fill:white; stroke-width:1; stroke:black; " description="&lt;b&gt;JNAJGP_00195&lt;/b&gt;&lt;br&gt;Phosphoglycerol transferase I&lt;br&gt;Location: 38416 - 40504" locus_tag="JNAJGP_00195" class="clusterblast-orf" id="knownclusterblast-1_q10_0_all"  />
<polygon points="769,35 774,30 780,30 780,40 774,40 769,35 " style="fill:white; stroke-width:1; stroke:black; " description="&lt;b&gt;JNAJGP_00200&lt;/b&gt;&lt;br&gt;Cardiolipin synthase N-terminal domain-containing protein&lt;br&gt;Location: 40796 - 40988" locus_tag="JNAJGP_00200" class="clusterblast-orf" id="knownclusterblast-1_q11_0_all"  />
</g>
</svg>
