<svg xmlns="http://www.w3.org/2000/svg" xmlns:xlink="http://www.w3.org/1999/xlink" version="1.1" x="0" y="0" height="230" width="800" viewBox="0 0 800 230" preserveAspectRatio="none"  >
<g label="Query sequence" class="clusterblast-cluster"  >
<text x="5" y="20" class="clusterblast-acc"  >
Query sequence</text>
<line x1="10" y1="35" x2="778.0" y2="35" style="stroke-width:1; stroke:grey; "  />
<polygon points="162,40 167,40 172,35 167,30 162,30 162,40 " style="fill:white; stroke-width:1; stroke:black; " description="&lt;b&gt;JNAJGP_22985&lt;/b&gt;&lt;br&gt;Cytochrome b561 bacterial/Ni-hydrogenase domain-containing protein&lt;br&gt;Location: 4860170 - 4860710" locus_tag="JNAJGP_22985" class="clusterblast-orf" id="dummy-8_q0_0_all"  />
<polygon points="173,35 178,30 193,30 193,40 178,40 173,35 " style="fill:white; stroke-width:1; stroke:black; " description="&lt;b&gt;JNAJGP_22990&lt;/b&gt;&lt;br&gt;Peptidase M14 carboxypeptidase A domain-containing protein&lt;br&gt;Location: 4860766 - 4861918" locus_tag="JNAJGP_22990" class="clusterblast-orf" id="dummy-8_q1_0_all"  />
<polygon points="201,35 206,30 207,30 207,40 206,40 201,35 " style="fill:white; stroke-width:1; stroke:black; " description="&lt;b&gt;JNAJGP_23000&lt;/b&gt;&lt;br&gt;DUF3077 domain-containing protein&lt;br&gt;Location: 4862380 - 4862731" locus_tag="JNAJGP_23000" class="clusterblast-orf" id="dummy-8_q2_0_all"  />
<polygon points="210,40 216,40 221,35 216,30 210,30 210,40 " style="fill:white; stroke-width:1; stroke:black; " description="&lt;b&gt;JNAJGP_23005&lt;/b&gt;&lt;br&gt;Putative prophage repressor&lt;br&gt;Location: 4862860 - 4863496" locus_tag="JNAJGP_23005" class="clusterblast-orf" id="dummy-8_q3_0_all"  />
<polygon points="221,35 226,30 255,30 255,40 226,40 221,35 " style="fill:#d81515; stroke-width:1; stroke:black; " description="&lt;b&gt;JNAJGP_23010&lt;/b&gt;&lt;br&gt;Methylcrotonyl-CoA carboxylase, alpha-subunit LiuD&lt;br&gt;Location: 4863492 - 4865418" locus_tag="JNAJGP_23010" class="clusterblast-orf" id="dummy-8_q4_0_all"  />
<polygon points="255,35 260,30 269,30 269,40 260,40 255,35 " style="fill:white; stroke-width:1; stroke:black; " description="&lt;b&gt;JNAJGP_23015&lt;/b&gt;&lt;br&gt;gamma-carboxygeranoyl-CoA hydratase&lt;br&gt;Location: 4865414 - 4866221" locus_tag="JNAJGP_23015" class="clusterblast-orf" id="dummy-8_q5_0_all"  />
<polygon points="269,35 274,30 297,30 297,40 274,40 269,35 " style="fill:#15d815; stroke-width:1; stroke:black; " description="&lt;b&gt;JNAJGP_23020&lt;/b&gt;&lt;br&gt;Acetyl-CoA carboxylase, carboxyltransferase component&lt;br&gt;Location: 4866236 - 4867844" locus_tag="JNAJGP_23020" class="clusterblast-orf" id="dummy-8_q6_0_all"  />
<polygon points="297,35 302,30 318,30 318,40 302,40 297,35 " style="fill:white; stroke-width:1; stroke:black; " description="&lt;b&gt;JNAJGP_23025&lt;/b&gt;&lt;br&gt;Acyl-CoA dehydrogenase related to the alkylation response protein AidB&lt;br&gt;Location: 4867855 - 4869019" locus_tag="JNAJGP_23025" class="clusterblast-orf" id="dummy-8_q7_0_all"  />
<polygon points="320,40 344,40 349,35 344,30 320,30 320,40 " style="fill:#1515d8; stroke-width:1; stroke:black; " description="&lt;b&gt;JNAJGP_23030&lt;/b&gt;&lt;br&gt;Long-chain-fatty-acid--CoA ligase&lt;br&gt;Location: 4869168 - 4870800" locus_tag="JNAJGP_23030" class="clusterblast-orf" id="dummy-8_q8_0_all"  />
<polygon points="351,40 436,40 441,35 436,30 351,30 351,40 " style="fill:white; stroke-width:1; stroke:black; " description="&lt;b&gt;JNAJGP_23035&lt;/b&gt;&lt;br&gt;RING-type E3 ubiquitin transferase&lt;br&gt;Location: 4870898 - 4876037" locus_tag="JNAJGP_23035" class="clusterblast-orf" id="dummy-8_q9_0_all"  />
<polygon points="451,35 456,30 467,30 467,40 456,40 451,35 " style="fill:white; stroke-width:1; stroke:black; " description="&lt;b&gt;JNAJGP_23045&lt;/b&gt;&lt;br&gt;hydroxymethylglutaryl-CoA lyase&lt;br&gt;Location: 4876585 - 4877485" locus_tag="JNAJGP_23045" class="clusterblast-orf" id="dummy-8_q10_0_all"  />
<polygon points="467,35 472,30 474,30 474,40 472,40 467,35 " style="fill:white; stroke-width:1; stroke:black; " description="&lt;b&gt;JNAJGP_23050&lt;/b&gt;&lt;br&gt;HTH merR-type domain-containing protein&lt;br&gt;Location: 4877501 - 4877894" locus_tag="JNAJGP_23050" class="clusterblast-orf" id="dummy-8_q11_0_all"  />
<polygon points="476,35 481,30 493,30 493,40 481,40 476,35 " style="fill:white; stroke-width:1; stroke:black; " description="&lt;b&gt;JNAJGP_23055&lt;/b&gt;&lt;br&gt;DNA-binding transcriptional regulator, LysR family&lt;br&gt;Location: 4878031 - 4878967" locus_tag="JNAJGP_23055" class="clusterblast-orf" id="dummy-8_q12_0_all"  />
<polygon points="496,40 512,40 517,35 512,30 496,30 496,40 " style="fill:white; stroke-width:1; stroke:black; " description="&lt;b&gt;JNAJGP_23060&lt;/b&gt;&lt;br&gt;Acyl-CoA dehydrogenase related to the alkylation response protein AidB&lt;br&gt;Location: 4879133 - 4880363" locus_tag="JNAJGP_23060" class="clusterblast-orf" id="dummy-8_q13_0_all"  />
<polygon points="519,35 524,30 543,30 543,40 524,40 519,35 " style="fill:white; stroke-width:1; stroke:black; " description="&lt;b&gt;JNAJGP_23065&lt;/b&gt;&lt;br&gt;OmpA-like domain-containing protein&lt;br&gt;Location: 4880479 - 4881811" locus_tag="JNAJGP_23065" class="clusterblast-orf" id="dummy-8_q14_0_all"  />
<polygon points="545,35 550,30 559,30 559,40 550,40 545,35 " style="fill:white; stroke-width:1; stroke:black; " description="&lt;b&gt;JNAJGP_23070&lt;/b&gt;&lt;br&gt;exodeoxyribonuclease III&lt;br&gt;Location: 4881934 - 4882747" locus_tag="JNAJGP_23070" class="clusterblast-orf" id="dummy-8_q15_0_all"  />
<polygon points="562,40 568,40 573,35 568,30 562,30 562,40 " style="fill:white; stroke-width:1; stroke:black; " description="&lt;b&gt;JNAJGP_23075&lt;/b&gt;&lt;br&gt;N-acetyltransferase domain-containing protein&lt;br&gt;Location: 4882916 - 4883567" locus_tag="JNAJGP_23075" class="clusterblast-orf" id="dummy-8_q16_0_all"  />
<polygon points="575,40 600,40 605,35 600,30 575,30 575,40 " style="fill:white; stroke-width:1; stroke:black; " description="&lt;b&gt;JNAJGP_23080&lt;/b&gt;&lt;br&gt;Translocation and assembly module subunit TamA&lt;br&gt;Location: 4883660 - 4885358" locus_tag="JNAJGP_23080" class="clusterblast-orf" id="dummy-8_q17_0_all"  />
<polygon points="605,40 612,40 617,35 612,30 605,30 605,40 " style="fill:white; stroke-width:1; stroke:black; " description="&lt;b&gt;JNAJGP_23085&lt;/b&gt;&lt;br&gt;hypothetical protein&lt;br&gt;Location: 4885357 - 4886047" locus_tag="JNAJGP_23085" class="clusterblast-orf" id="dummy-8_q18_0_all"  />
</g>
<g label="BGC0001103" description="BGC0001103_c1: mycosubtilin (20% of genes show similarity), NRP+Polyketide" class="clusterblast-cluster"  >
<text x="5" y="70" class="clusterblast-acc"  >
<a xlink:href="https://mibig.secondarymetabolites.org/go/BGC0001103/1" target="_blank">BGC0001103</a>: mycosubtilin                                                                     (20% of genes show similarity), NRP+Polyketide</text>
<line x1="10" y1="85" x2="778.0" y2="85" style="stroke-width:1; stroke:grey; "  />
</g>
<g id="a8_000"  >
<polygon points="0,90 16,90 21,85 16,80 0,80 0,90 " style="fill:white; stroke-width:1; stroke:black; " description="&lt;b&gt;AAF08794.1&lt;/b&gt;&lt;br&gt;FenF&lt;br&gt;Location: 1938 - 3140" locus_tag="AAF08794.1" class="clusterblast-orf" id="dummy-8_h8_2_0"  />
</g>
<g id="a8_001"  >
<polygon points="21,90 225,90 230,85 225,80 21,80 21,90 " style="fill:white; stroke-width:1; stroke:black; " description="&lt;b&gt;AAF08795.1&lt;/b&gt;&lt;br&gt;MycA&lt;br&gt;Location: 3161 - 15076" locus_tag="AAF08795.1" class="clusterblast-orf" id="dummy-8_h8_2_1"  />
</g>
<g id="a8_002"  >
<polygon points="231,90 509,90 514,85 509,80 231,80 231,90 " style="fill:white; stroke-width:1; stroke:black; " description="&lt;b&gt;AAF08796.1&lt;/b&gt;&lt;br&gt;MycB&lt;br&gt;Location: 15133 - 31242" locus_tag="AAF08796.1" class="clusterblast-orf" id="dummy-8_h8_2_2"  />
</g>
<g id="a8_003"  >
<polygon points="516,90 649,90 654,85 649,80 516,80 516,90 " style="fill:white; stroke-width:1; stroke:black; " description="&lt;b&gt;AAF08797.1&lt;/b&gt;&lt;br&gt;MycC&lt;br&gt;Location: 31340 - 39169" locus_tag="AAF08797.1" class="clusterblast-orf" id="dummy-8_h8_2_3"  />
</g>
<g id="a8_004"  >
<polygon points="657,90 658,90 663,85 658,80 657,80 657,90 " style="fill:white; stroke-width:1; stroke:black; " description="&lt;b&gt;AAF08798.1&lt;/b&gt;&lt;br&gt;YngL&lt;br&gt;Location: 39339 - 39731" locus_tag="AAF08798.1" class="clusterblast-orf" id="dummy-8_h8_2_4"  />
</g>
<g id="a8_005"  >
<polygon points="666,90 688,90 693,85 688,80 666,80 666,90 " style="fill:white; stroke-width:1; stroke:black; " description="&lt;b&gt;AAF08799.1&lt;/b&gt;&lt;br&gt;YngK&lt;br&gt;Location: 39886 - 41418" locus_tag="AAF08799.1" class="clusterblast-orf" id="dummy-8_h8_2_5"  />
</g>
<g id="a8_006"  >
<polygon points="702,90 717,90 722,85 717,80 702,80 702,90 " style="fill:white; stroke-width:1; stroke:black; " description="&lt;b&gt;AAF08800.1&lt;/b&gt;&lt;br&gt;YngJ&lt;br&gt;Location: 41925 - 43067" locus_tag="AAF08800.1" class="clusterblast-orf" id="dummy-8_h8_2_6"  />
</g>
<g id="a8_007"  >
<polygon points="723,90 747,90 752,85 747,80 723,80 723,90 " style="fill:#1515d8; stroke-width:1; stroke:black; " description="&lt;b&gt;AAF08801.1&lt;/b&gt;&lt;br&gt;YngI&lt;br&gt;Location: 43110 - 44759&lt;br&gt;&lt;br&gt;&lt;b&gt;BlastP hit with JNAJGP_23030&lt;/b&gt;&lt;br&gt;Percentage identity: 47&lt;br&gt;Percentage coverage: 99&lt;br&gt;BLAST bit score: 506&lt;br&gt;E-value: 3.2e-175" locus_tag="AAF08801.1" class="clusterblast-orf" id="dummy-8_h8_2_7"  />
</g>
<g id="a8_008"  >
<polygon points="752,90 770,90 775,85 770,80 752,80 752,90 " style="fill:#d81515; stroke-width:1; stroke:black; " description="&lt;b&gt;AAF08802.1&lt;/b&gt;&lt;br&gt;YngH&lt;br&gt;Location: 44769 - 46103&lt;br&gt;&lt;br&gt;&lt;b&gt;BlastP hit with JNAJGP_23010&lt;/b&gt;&lt;br&gt;Percentage identity: 47&lt;br&gt;Percentage coverage: 69&lt;br&gt;BLAST bit score: 391&lt;br&gt;E-value: 2.05e-130" locus_tag="AAF08802.1" class="clusterblast-orf" id="dummy-8_h8_2_8"  />
</g>
<g id="a8_009"  >
<polygon points="776,90 779,85 776,80 776,90 " style="fill:white; stroke-width:1; stroke:black; " description="&lt;b&gt;AAF08803.1&lt;/b&gt;&lt;br&gt;YngXX&lt;br&gt;Location: 46118 - 46339" locus_tag="AAF08803.1" class="clusterblast-orf" id="dummy-8_h8_2_9"  />
</g>
</svg>
