<svg xmlns="http://www.w3.org/2000/svg" xmlns:xlink="http://www.w3.org/1999/xlink" version="1.1" x="0" y="0" height="230" width="800" viewBox="0 0 800 230" preserveAspectRatio="none"  >
<g label="Query sequence" class="clusterblast-cluster"  >
<text x="5" y="20" class="clusterblast-acc"  >
Query sequence</text>
<line x1="10" y1="35" x2="778.0" y2="35" style="stroke-width:1; stroke:grey; "  />
<polygon points="0,40 32,40 37,35 32,30 0,30 0,40 " style="fill:white; stroke-width:1; stroke:black; " description="&lt;b&gt;JNAJGP_24070&lt;/b&gt;&lt;br&gt;phage tail protein&lt;br&gt;Location: 5054663 - 5058125" locus_tag="JNAJGP_24070" class="clusterblast-orf" id="dummy-9_q0_0_all"  />
<polygon points="40,40 42,40 47,35 42,30 40,30 40,40 " style="fill:white; stroke-width:1; stroke:black; " description="&lt;b&gt;JNAJGP_24075&lt;/b&gt;&lt;br&gt;Phage tail protein&lt;br&gt;Location: 5058471 - 5059101" locus_tag="JNAJGP_24075" class="clusterblast-orf" id="dummy-9_q1_0_all"  />
<polygon points="48,40 51,40 56,35 51,30 48,30 48,40 " style="fill:white; stroke-width:1; stroke:black; " description="&lt;b&gt;JNAJGP_24080&lt;/b&gt;&lt;br&gt;Phage tail protein&lt;br&gt;Location: 5059159 - 5059927" locus_tag="JNAJGP_24080" class="clusterblast-orf" id="dummy-9_q2_0_all"  />
<polygon points="56,40 59,35 56,30 56,40 " style="fill:white; stroke-width:1; stroke:black; " description="&lt;b&gt;JNAJGP_24085&lt;/b&gt;&lt;br&gt;hypothetical protein&lt;br&gt;Location: 5059926 - 5060217" locus_tag="JNAJGP_24085" class="clusterblast-orf" id="dummy-9_q3_0_all"  />
<polygon points="59,40 62,35 59,30 59,40 " style="fill:white; stroke-width:1; stroke:black; " description="&lt;b&gt;JNAJGP_24090&lt;/b&gt;&lt;br&gt;Phage tail protein&lt;br&gt;Location: 5060213 - 5060465" locus_tag="JNAJGP_24090" class="clusterblast-orf" id="dummy-9_q4_0_all"  />
<polygon points="62,40 63,40 68,35 63,30 62,30 62,40 " style="fill:white; stroke-width:1; stroke:black; " description="&lt;b&gt;JNAJGP_24095&lt;/b&gt;&lt;br&gt;Chitinase&lt;br&gt;Location: 5060520 - 5061054" locus_tag="JNAJGP_24095" class="clusterblast-orf" id="dummy-9_q5_0_all"  />
<polygon points="68,40 69,40 74,35 69,30 68,30 68,40 " style="fill:white; stroke-width:1; stroke:black; " description="&lt;b&gt;JNAJGP_24100&lt;/b&gt;&lt;br&gt;Lysozyme&lt;br&gt;Location: 5061050 - 5061620" locus_tag="JNAJGP_24100" class="clusterblast-orf" id="dummy-9_q6_0_all"  />
<polygon points="73,35 76,30 76,40 73,35 " style="fill:white; stroke-width:1; stroke:black; " description="&lt;b&gt;JNAJGP_24105&lt;/b&gt;&lt;br&gt;NIPSNAP domain-containing protein&lt;br&gt;Location: 5061579 - 5061843" locus_tag="JNAJGP_24105" class="clusterblast-orf" id="dummy-9_q7_0_all"  />
<polygon points="77,35 81,30 81,40 77,35 " style="fill:white; stroke-width:1; stroke:black; " description="&lt;b&gt;JNAJGP_24110&lt;/b&gt;&lt;br&gt;Lipoprotein&lt;br&gt;Location: 5061930 - 5062311" locus_tag="JNAJGP_24110" class="clusterblast-orf" id="dummy-9_q8_0_all"  />
<polygon points="86,40 91,40 96,35 91,30 86,30 86,40 " style="fill:white; stroke-width:1; stroke:black; " description="&lt;b&gt;JNAJGP_24120&lt;/b&gt;&lt;br&gt;LysR family transcriptional regulator&lt;br&gt;Location: 5062760 - 5063663" locus_tag="JNAJGP_24120" class="clusterblast-orf" id="dummy-9_q9_0_all"  />
<polygon points="96,35 101,30 106,30 106,40 101,40 96,35 " style="fill:white; stroke-width:1; stroke:black; " description="&lt;b&gt;JNAJGP_24125&lt;/b&gt;&lt;br&gt;Cupin&lt;br&gt;Location: 5063700 - 5064642" locus_tag="JNAJGP_24125" class="clusterblast-orf" id="dummy-9_q10_0_all"  />
<polygon points="108,35 111,30 111,40 108,35 " style="fill:white; stroke-width:1; stroke:black; " description="&lt;b&gt;JNAJGP_24130&lt;/b&gt;&lt;br&gt;hypothetical protein&lt;br&gt;Location: 5064843 - 5065122" locus_tag="JNAJGP_24130" class="clusterblast-orf" id="dummy-9_q11_0_all"  />
<polygon points="113,35 118,30 136,30 136,40 118,40 113,35 " style="fill:white; stroke-width:1; stroke:black; " description="&lt;b&gt;JNAJGP_24135&lt;/b&gt;&lt;br&gt;Ferric siderophore receptor&lt;br&gt;Location: 5065316 - 5067488" locus_tag="JNAJGP_24135" class="clusterblast-orf" id="dummy-9_q12_0_all"  />
<polygon points="138,35 143,30 148,30 148,40 143,40 138,35 " style="fill:#d81515; stroke-width:1; stroke:black; " description="&lt;b&gt;JNAJGP_24140&lt;/b&gt;&lt;br&gt;Acyltransferase MbtK/IucB-like conserved domain-containing protein&lt;br&gt;Location: 5067586 - 5068606" locus_tag="JNAJGP_24140" class="clusterblast-orf" id="dummy-9_q13_0_all"  />
<polygon points="150,35 155,30 171,30 171,40 155,40 150,35 " style="fill:#3cd815; stroke-width:1; stroke:black; " description="&lt;b&gt;JNAJGP_24145&lt;/b&gt;&lt;br&gt;Fe(3+)-hydroxamate ABC transporter permease FhuB&lt;br&gt;Location: 5068765 - 5070754" locus_tag="JNAJGP_24145" class="clusterblast-orf" id="dummy-9_q14_0_all"  />
<polygon points="171,35 176,30 181,30 181,40 176,40 171,35 " style="fill:white; stroke-width:1; stroke:black; " description="&lt;b&gt;JNAJGP_24150&lt;/b&gt;&lt;br&gt;Periplasmic binding protein&lt;br&gt;Location: 5070746 - 5071658" locus_tag="JNAJGP_24150" class="clusterblast-orf" id="dummy-9_q15_0_all"  />
<polygon points="183,40 196,40 201,35 196,30 183,30 183,40 " style="fill:#1563d8; stroke-width:1; stroke:black; " description="&lt;b&gt;JNAJGP_24155&lt;/b&gt;&lt;br&gt;Putative ATP-binding cassette transporter&lt;br&gt;Location: 5071857 - 5073504" locus_tag="JNAJGP_24155" class="clusterblast-orf" id="dummy-9_q16_0_all"  />
<polygon points="203,40 205,40 210,35 205,30 203,30 203,40 " style="fill:#b115d8; stroke-width:1; stroke:black; " description="&lt;b&gt;JNAJGP_24160&lt;/b&gt;&lt;br&gt;Thioesterase&lt;br&gt;Location: 5073678 - 5074422" locus_tag="JNAJGP_24160" class="clusterblast-orf" id="dummy-9_q17_0_all"  />
<polygon points="211,40 216,40 221,35 216,30 211,30 211,40 " style="fill:#d88a15; stroke-width:1; stroke:black; " description="&lt;b&gt;JNAJGP_24165&lt;/b&gt;&lt;br&gt;TauD/TfdA-like domain-containing protein&lt;br&gt;Location: 5074461 - 5075442" locus_tag="JNAJGP_24165" class="clusterblast-orf" id="dummy-9_q18_0_all"  />
<polygon points="222,40 265,40 270,35 265,30 222,30 222,40 " style="fill:#15d863; stroke-width:1; stroke:black; " description="&lt;b&gt;JNAJGP_24170&lt;/b&gt;&lt;br&gt;Non ribosomal peptide synthase&lt;br&gt;Location: 5075492 - 5079956" locus_tag="JNAJGP_24170" class="clusterblast-orf" id="dummy-9_q19_0_all"  />
<polygon points="270,40 298,40 303,35 298,30 270,30 270,40 " style="fill:white; stroke-width:1; stroke:black; " description="&lt;b&gt;JNAJGP_24175&lt;/b&gt;&lt;br&gt;Amino acid adenylation&lt;br&gt;Location: 5079967 - 5083114" locus_tag="JNAJGP_24175" class="clusterblast-orf" id="dummy-9_q20_0_all"  />
<polygon points="304,40 381,40 386,35 381,30 304,30 304,40 " style="fill:#3c15d8; stroke-width:1; stroke:black; " description="&lt;b&gt;JNAJGP_24180&lt;/b&gt;&lt;br&gt;Carrier domain-containing protein&lt;br&gt;Location: 5083162 - 5090896" locus_tag="JNAJGP_24180" class="clusterblast-orf" id="dummy-9_q21_0_all"  />
<polygon points="386,40 513,40 518,35 513,30 386,30 386,40 " style="fill:#d8158a; stroke-width:1; stroke:black; " description="&lt;b&gt;JNAJGP_24185&lt;/b&gt;&lt;br&gt;non-ribosomal peptide synthetase&lt;br&gt;Location: 5090892 - 5103210" locus_tag="JNAJGP_24185" class="clusterblast-orf" id="dummy-9_q22_0_all"  />
<polygon points="518,40 556,40 561,35 556,30 518,30 518,40 " style="fill:#3c15d8; stroke-width:1; stroke:black; " description="&lt;b&gt;JNAJGP_24190&lt;/b&gt;&lt;br&gt;Non-ribosomal peptide synthetase&lt;br&gt;Location: 5103211 - 5107270" locus_tag="JNAJGP_24190" class="clusterblast-orf" id="dummy-9_q23_0_all"  />
<polygon points="562,40 571,40 576,35 571,30 562,30 562,40 " style="fill:#b1d815; stroke-width:1; stroke:black; " description="&lt;b&gt;JNAJGP_24195&lt;/b&gt;&lt;br&gt;L-ornithine 5-monooxygenase&lt;br&gt;Location: 5107342 - 5108698" locus_tag="JNAJGP_24195" class="clusterblast-orf" id="dummy-9_q24_0_all"  />
<polygon points="577,40 580,40 585,35 580,30 577,30 577,40 " style="fill:white; stroke-width:1; stroke:black; " description="&lt;b&gt;JNAJGP_24200&lt;/b&gt;&lt;br&gt;siderophore-iron reductase FhuF&lt;br&gt;Location: 5108789 - 5109545" locus_tag="JNAJGP_24200" class="clusterblast-orf" id="dummy-9_q25_0_all"  />
<polygon points="586,35 591,30 594,30 594,40 591,40 586,35 " style="fill:#15d8d8; stroke-width:1; stroke:black; " description="&lt;b&gt;JNAJGP_24205&lt;/b&gt;&lt;br&gt;Iron-hydroxamate transporter ATP-binding subunit&lt;br&gt;Location: 5109585 - 5110353" locus_tag="JNAJGP_24205" class="clusterblast-orf" id="dummy-9_q26_0_all"  />
<polygon points="596,35 599,30 599,40 596,35 " style="fill:white; stroke-width:1; stroke:black; " description="&lt;b&gt;JNAJGP_24210&lt;/b&gt;&lt;br&gt;hypothetical protein&lt;br&gt;Location: 5110578 - 5110803" locus_tag="JNAJGP_24210" class="clusterblast-orf" id="dummy-9_q27_0_all"  />
<polygon points="601,40 603,40 608,35 603,30 601,30 601,40 " style="fill:white; stroke-width:1; stroke:black; " description="&lt;b&gt;JNAJGP_24215&lt;/b&gt;&lt;br&gt;Lipoprotein&lt;br&gt;Location: 5110983 - 5111682" locus_tag="JNAJGP_24215" class="clusterblast-orf" id="dummy-9_q28_0_all"  />
<polygon points="609,40 612,35 609,30 609,40 " style="fill:white; stroke-width:1; stroke:black; " description="&lt;b&gt;JNAJGP_24220&lt;/b&gt;&lt;br&gt;EAL domain-containing protein&lt;br&gt;Location: 5111807 - 5112086" locus_tag="JNAJGP_24220" class="clusterblast-orf" id="dummy-9_q29_0_all"  />
<polygon points="613,40 622,40 627,35 622,30 613,30 613,40 " style="fill:white; stroke-width:1; stroke:black; " description="&lt;b&gt;JNAJGP_24225&lt;/b&gt;&lt;br&gt;Methyl-accepting chemotaxis protein (2 PAS,MCP domains)&lt;br&gt;Location: 5112170 - 5113484" locus_tag="JNAJGP_24225" class="clusterblast-orf" id="dummy-9_q30_0_all"  />
<polygon points="630,40 647,40 652,35 647,30 630,30 630,40 " style="fill:white; stroke-width:1; stroke:black; " description="&lt;b&gt;JNAJGP_24230&lt;/b&gt;&lt;br&gt;Outer membrane siderophore receptor&lt;br&gt;Location: 5113706 - 5115821" locus_tag="JNAJGP_24230" class="clusterblast-orf" id="dummy-9_q31_0_all"  />
<polygon points="652,35 657,30 672,30 672,40 657,40 652,35 " style="fill:white; stroke-width:1; stroke:black; " description="&lt;b&gt;JNAJGP_24235&lt;/b&gt;&lt;br&gt;Sigma-54 factor interaction domain-containing protein&lt;br&gt;Location: 5115830 - 5117648" locus_tag="JNAJGP_24235" class="clusterblast-orf" id="dummy-9_q32_0_all"  />
<polygon points="675,40 681,40 686,35 681,30 675,30 675,40 " style="fill:white; stroke-width:1; stroke:black; " description="&lt;b&gt;JNAJGP_24240&lt;/b&gt;&lt;br&gt;sn-glycerol-3-phosphate import ATP-binding protein UgpC&lt;br&gt;Location: 5117939 - 5119034" locus_tag="JNAJGP_24240" class="clusterblast-orf" id="dummy-9_q33_0_all"  />
<polygon points="686,40 693,40 698,35 693,30 686,30 686,40 " style="fill:white; stroke-width:1; stroke:black; " description="&lt;b&gt;JNAJGP_24245&lt;/b&gt;&lt;br&gt;ABC transporter ATP-binding protein&lt;br&gt;Location: 5119033 - 5120131" locus_tag="JNAJGP_24245" class="clusterblast-orf" id="dummy-9_q34_0_all"  />
<polygon points="698,40 702,40 707,35 702,30 698,30 698,40 " style="fill:white; stroke-width:1; stroke:black; " description="&lt;b&gt;JNAJGP_24250&lt;/b&gt;&lt;br&gt;ABC-type sugar transport system, permease component&lt;br&gt;Location: 5120127 - 5120994" locus_tag="JNAJGP_24250" class="clusterblast-orf" id="dummy-9_q35_0_all"  />
<polygon points="708,40 711,40 716,35 711,30 708,30 708,40 " style="fill:white; stroke-width:1; stroke:black; " description="&lt;b&gt;JNAJGP_24255&lt;/b&gt;&lt;br&gt;ABC-type glycerol-3-phosphate transport system, permease component&lt;br&gt;Location: 5121004 - 5121805" locus_tag="JNAJGP_24255" class="clusterblast-orf" id="dummy-9_q36_0_all"  />
<polygon points="716,40 719,35 716,30 716,40 " style="fill:white; stroke-width:1; stroke:black; " description="&lt;b&gt;JNAJGP_24260&lt;/b&gt;&lt;br&gt;Small integral membrane protein&lt;br&gt;Location: 5121815 - 5122088" locus_tag="JNAJGP_24260" class="clusterblast-orf" id="dummy-9_q37_0_all"  />
<polygon points="719,40 733,40 738,35 733,30 719,30 719,40 " style="fill:white; stroke-width:1; stroke:black; " description="&lt;b&gt;JNAJGP_24265&lt;/b&gt;&lt;br&gt;ABC transporter substrate-binding protein&lt;br&gt;Location: 5122120 - 5123863" locus_tag="JNAJGP_24265" class="clusterblast-orf" id="dummy-9_q38_0_all"  />
<polygon points="743,40 752,40 757,35 752,30 743,30 743,40 " style="fill:white; stroke-width:1; stroke:black; " description="&lt;b&gt;JNAJGP_24270&lt;/b&gt;&lt;br&gt;Iron-containing redox enzyme family protein&lt;br&gt;Location: 5124300 - 5125680" locus_tag="JNAJGP_24270" class="clusterblast-orf" id="dummy-9_q39_0_all"  />
<polygon points="758,40 763,40 768,35 763,30 758,30 758,40 " style="fill:white; stroke-width:1; stroke:black; " description="&lt;b&gt;JNAJGP_24275&lt;/b&gt;&lt;br&gt;Release factor glutamine methyltransferase&lt;br&gt;Location: 5125690 - 5126635" locus_tag="JNAJGP_24275" class="clusterblast-orf" id="dummy-9_q40_0_all"  />
<polygon points="768,40 775,40 780,35 775,30 768,30 768,40 " style="fill:white; stroke-width:1; stroke:black; " description="&lt;b&gt;JNAJGP_24280&lt;/b&gt;&lt;br&gt;carboxylate-amine ligase&lt;br&gt;Location: 5126641 - 5127760" locus_tag="JNAJGP_24280" class="clusterblast-orf" id="dummy-9_q41_0_all"  />
</g>
<g label="BGC0002117" description="BGC0002117_c1: potashchelin A/potashchelin B/potashchelin C/potashchelin D (24% of genes show similarity), NRP" class="clusterblast-cluster"  >
<text x="5" y="70" class="clusterblast-acc"  >
<a xlink:href="https://mibig.secondarymetabolites.org/go/BGC0002117/1" target="_blank">BGC0002117</a>: potashchelin A/potashchelin B/potashchelin C/potashchelin D                      (24% of genes show similarity), NRP</text>
<line x1="10" y1="85" x2="778.0" y2="85" style="stroke-width:1; stroke:grey; "  />
</g>
<g id="a9_000"  >
<polygon points="23,90 29,90 34,85 29,80 23,80 23,90 " style="fill:white; stroke-width:1; stroke:black; " description="&lt;b&gt;FRY77_09780&lt;/b&gt;&lt;br&gt;DUF1513 domain-containing protein&lt;br&gt;Location: 1 - 1089" locus_tag="FRY77_09780" class="clusterblast-orf" id="dummy-9_h9_1_0"  />
</g>
<g id="a9_001"  >
<polygon points="36,90 49,90 54,85 49,80 36,80 36,90 " style="fill:white; stroke-width:1; stroke:black; " description="&lt;b&gt;FRY77_09785&lt;/b&gt;&lt;br&gt;multidrug ABC transporter permease/ATP-binding protein&lt;br&gt;Location: 1286 - 2938" locus_tag="FRY77_09785" class="clusterblast-orf" id="dummy-9_h9_1_1"  />
</g>
<g id="a9_002"  >
<polygon points="54,85 59,80 63,80 63,90 59,90 54,85 " style="fill:white; stroke-width:1; stroke:black; " description="&lt;b&gt;FRY77_09790&lt;/b&gt;&lt;br&gt;siderophore-iron reductase FhuF&lt;br&gt;Location: 2962 - 3750" locus_tag="FRY77_09790" class="clusterblast-orf" id="dummy-9_h9_1_2"  />
</g>
<g id="a9_003"  >
<polygon points="64,85 69,80 72,80 72,90 69,90 64,85 " style="fill:#15d8d8; stroke-width:1; stroke:black; " description="&lt;b&gt;FRY77_09795&lt;/b&gt;&lt;br&gt;ATP-binding cassette domain-containing protein&lt;br&gt;Location: 3899 - 4666&lt;br&gt;&lt;br&gt;&lt;b&gt;BlastP hit with JNAJGP_24205&lt;/b&gt;&lt;br&gt;Percentage identity: 65&lt;br&gt;Percentage coverage: 96&lt;br&gt;BLAST bit score: 329&lt;br&gt;E-value: 1.97e-114" locus_tag="FRY77_09795" class="clusterblast-orf" id="dummy-9_h9_1_3"  />
</g>
<g id="a9_004"  >
<polygon points="74,85 79,80 83,80 83,90 79,90 74,85 " style="fill:white; stroke-width:1; stroke:black; " description="&lt;b&gt;FRY77_09800&lt;/b&gt;&lt;br&gt;inositol monophosphatase&lt;br&gt;Location: 4834 - 5631" locus_tag="FRY77_09800" class="clusterblast-orf" id="dummy-9_h9_1_4"  />
</g>
<g id="a9_005"  >
<polygon points="84,85 89,80 101,80 101,90 89,90 84,85 " style="fill:white; stroke-width:1; stroke:black; " description="&lt;b&gt;FRY77_09805&lt;/b&gt;&lt;br&gt;AAA family ATPase&lt;br&gt;Location: 5742 - 7313" locus_tag="FRY77_09805" class="clusterblast-orf" id="dummy-9_h9_1_5"  />
</g>
<g id="a9_006"  >
<polygon points="101,85 106,80 118,80 118,90 106,90 101,85 " style="fill:white; stroke-width:1; stroke:black; " description="&lt;b&gt;FRY77_09810&lt;/b&gt;&lt;br&gt;AAA family ATPase&lt;br&gt;Location: 7382 - 8947" locus_tag="FRY77_09810" class="clusterblast-orf" id="dummy-9_h9_1_6"  />
</g>
<g id="a9_007"  >
<polygon points="121,90 139,90 144,85 139,80 121,80 121,90 " style="fill:white; stroke-width:1; stroke:black; " description="&lt;b&gt;FRY77_09815&lt;/b&gt;&lt;br&gt;TonB-dependent siderophore receptor&lt;br&gt;Location: 9248 - 11422" locus_tag="FRY77_09815" class="clusterblast-orf" id="dummy-9_h9_1_7"  />
</g>
<g id="a9_008"  >
<polygon points="145,85 150,80 156,80 156,90 150,90 145,85 " style="fill:white; stroke-width:1; stroke:black; " description="&lt;b&gt;FRY77_09820&lt;/b&gt;&lt;br&gt;ABC transporter substrate-binding protein&lt;br&gt;Location: 11463 - 12503" locus_tag="FRY77_09820" class="clusterblast-orf" id="dummy-9_h9_1_8"  />
</g>
<g id="a9_009"  >
<polygon points="155,85 160,80 179,80 179,90 160,90 155,85 " style="fill:white; stroke-width:1; stroke:black; " description="&lt;b&gt;FRY77_09825&lt;/b&gt;&lt;br&gt;TonB-dependent siderophore receptor&lt;br&gt;Location: 12449 - 14629" locus_tag="FRY77_09825" class="clusterblast-orf" id="dummy-9_h9_1_9"  />
</g>
<g id="a9_0010"  >
<polygon points="181,90 182,90 187,85 182,80 181,80 181,90 " style="fill:white; stroke-width:1; stroke:black; " description="&lt;b&gt;FRY77_09830&lt;/b&gt;&lt;br&gt;RNA polymerase factor sigma-70&lt;br&gt;Location: 14824 - 15429" locus_tag="FRY77_09830" class="clusterblast-orf" id="dummy-9_h9_1_10"  />
</g>
<g id="a9_0011"  >
<polygon points="189,90 191,85 189,80 189,90 " style="fill:white; stroke-width:1; stroke:black; " description="&lt;b&gt;FRY77_09835&lt;/b&gt;&lt;br&gt;DUF4880 domain-containing protein&lt;br&gt;Location: 15553 - 15759" locus_tag="FRY77_09835" class="clusterblast-orf" id="dummy-9_h9_1_11"  />
</g>
<g id="a9_0012"  >
<polygon points="193,90 196,85 193,80 193,90 " style="fill:white; stroke-width:1; stroke:black; " description="&lt;b&gt;FRY77_09840&lt;/b&gt;&lt;br&gt;MbtH family NRPS accessory protein&lt;br&gt;Location: 16015 - 16260" locus_tag="FRY77_09840" class="clusterblast-orf" id="dummy-9_h9_1_12"  />
</g>
<g id="a9_0013"  >
<polygon points="196,90 199,90 204,85 199,80 196,80 196,90 " style="fill:white; stroke-width:1; stroke:black; " description="&lt;b&gt;FRY77_09845&lt;/b&gt;&lt;br&gt;alpha/beta fold hydrolase&lt;br&gt;Location: 16250 - 16990" locus_tag="FRY77_09845" class="clusterblast-orf" id="dummy-9_h9_1_13"  />
</g>
<g id="a9_0014"  >
<polygon points="204,90 207,90 212,85 207,80 204,80 204,90 " style="fill:white; stroke-width:1; stroke:black; " description="&lt;b&gt;FRY77_09850&lt;/b&gt;&lt;br&gt;4'-phosphopantetheinyl transferase superfamily protein&lt;br&gt;Location: 16968 - 17780" locus_tag="FRY77_09850" class="clusterblast-orf" id="dummy-9_h9_1_14"  />
</g>
<g id="a9_0015"  >
<polygon points="212,90 217,90 222,85 217,80 212,80 212,90 " style="fill:#d88a15; stroke-width:1; stroke:black; " description="&lt;b&gt;FRY77_09855&lt;/b&gt;&lt;br&gt;TauD/TfdA family dioxygenase&lt;br&gt;Location: 17713 - 18714&lt;br&gt;&lt;br&gt;&lt;b&gt;BlastP hit with JNAJGP_24165&lt;/b&gt;&lt;br&gt;Percentage identity: 62&lt;br&gt;Percentage coverage: 95&lt;br&gt;BLAST bit score: 397&lt;br&gt;E-value: 5.56e-139" locus_tag="FRY77_09855" class="clusterblast-orf" id="dummy-9_h9_1_15"  />
</g>
<g id="a9_0016"  >
<polygon points="223,90 267,90 272,85 267,80 223,80 223,90 " style="fill:#15d863; stroke-width:1; stroke:black; " description="&lt;b&gt;FRY77_09860&lt;/b&gt;&lt;br&gt;AMP-binding protein&lt;br&gt;Location: 18760 - 23361&lt;br&gt;&lt;br&gt;&lt;b&gt;BlastP hit with JNAJGP_24170&lt;/b&gt;&lt;br&gt;Percentage identity: 48&lt;br&gt;Percentage coverage: 102&lt;br&gt;BLAST bit score: 1330&lt;br&gt;E-value: 0.0" locus_tag="FRY77_09860" class="clusterblast-orf" id="dummy-9_h9_1_16"  />
</g>
<g id="a9_0017"  >
<polygon points="272,90 301,90 306,85 301,80 272,80 272,90 " style="fill:white; stroke-width:1; stroke:black; " description="&lt;b&gt;FRY77_09865&lt;/b&gt;&lt;br&gt;amino acid adenylation domain-containing protein&lt;br&gt;Location: 23387 - 26572" locus_tag="FRY77_09865" class="clusterblast-orf" id="dummy-9_h9_1_17"  />
</g>
<g id="a9_0018"  >
<polygon points="307,90 371,90 376,85 371,80 307,80 307,90 " style="fill:white; stroke-width:1; stroke:black; " description="&lt;b&gt;FRY77_09870&lt;/b&gt;&lt;br&gt;amino acid adenylation domain-containing protein&lt;br&gt;Location: 26631 - 33140" locus_tag="FRY77_09870" class="clusterblast-orf" id="dummy-9_h9_1_18"  />
</g>
<g id="a9_0019"  >
<polygon points="376,90 441,90 446,85 441,80 376,80 376,90 " style="fill:white; stroke-width:1; stroke:black; " description="&lt;b&gt;FRY77_09875&lt;/b&gt;&lt;br&gt;amino acid adenylation domain-containing protein&lt;br&gt;Location: 33137 - 39709" locus_tag="FRY77_09875" class="clusterblast-orf" id="dummy-9_h9_1_19"  />
</g>
<g id="a9_0020"  >
<polygon points="446,90 588,90 593,85 588,80 446,80 446,90 " style="fill:#3c15d8; stroke-width:1; stroke:black; " description="&lt;b&gt;FRY77_09880&lt;/b&gt;&lt;br&gt;amino acid adenylation domain-containing protein&lt;br&gt;Location: 39713 - 53437&lt;br&gt;&lt;br&gt;&lt;b&gt;BlastP hit with JNAJGP_24190&lt;/b&gt;&lt;br&gt;Percentage identity: 48&lt;br&gt;Percentage coverage: 80&lt;br&gt;BLAST bit score: 880&lt;br&gt;E-value: 6.28e-278" locus_tag="FRY77_09880" class="clusterblast-orf" id="dummy-9_h9_1_20"  />
</g>
<g id="a9_0021"  >
<polygon points="594,85 595,80 595,90 594,85 " style="fill:white; stroke-width:1; stroke:black; " description="&lt;b&gt;FRY77_09885&lt;/b&gt;&lt;br&gt;IS630 family transposase&lt;br&gt;Location: 53505 - 53670" locus_tag="FRY77_09885" class="clusterblast-orf" id="dummy-9_h9_1_21"  />
</g>
<g id="a9_0022"  >
<polygon points="596,85 601,80 606,80 606,90 601,90 596,85 " style="fill:white; stroke-width:1; stroke:black; " description="&lt;b&gt;FRY77_09890&lt;/b&gt;&lt;br&gt;ABC transporter substrate-binding protein&lt;br&gt;Location: 53745 - 54674" locus_tag="FRY77_09890" class="clusterblast-orf" id="dummy-9_h9_1_22"  />
</g>
<g id="a9_0023"  >
<polygon points="608,85 613,80 631,80 631,90 613,90 608,85 " style="fill:white; stroke-width:1; stroke:black; " description="&lt;b&gt;FRY77_09895&lt;/b&gt;&lt;br&gt;TonB-dependent siderophore receptor&lt;br&gt;Location: 54844 - 57060" locus_tag="FRY77_09895" class="clusterblast-orf" id="dummy-9_h9_1_23"  />
</g>
<g id="a9_0024"  >
<polygon points="633,85 638,80 643,80 643,90 638,90 633,85 " style="fill:white; stroke-width:1; stroke:black; " description="&lt;b&gt;FRY77_09900&lt;/b&gt;&lt;br&gt;alpha/beta hydrolase fold domain-containing protein&lt;br&gt;Location: 57219 - 58172" locus_tag="FRY77_09900" class="clusterblast-orf" id="dummy-9_h9_1_24"  />
</g>
<g id="a9_0025"  >
<polygon points="644,85 649,80 658,80 658,90 649,90 644,85 " style="fill:#b1d815; stroke-width:1; stroke:black; " description="&lt;b&gt;FRY77_09905&lt;/b&gt;&lt;br&gt;SidA/IucD/PvdA family monooxygenase&lt;br&gt;Location: 58238 - 59533&lt;br&gt;&lt;br&gt;&lt;b&gt;BlastP hit with JNAJGP_24195&lt;/b&gt;&lt;br&gt;Percentage identity: 54&lt;br&gt;Percentage coverage: 95&lt;br&gt;BLAST bit score: 441&lt;br&gt;E-value: 8.32e-153" locus_tag="FRY77_09905" class="clusterblast-orf" id="dummy-9_h9_1_25"  />
</g>
<g id="a9_0026"  >
<polygon points="658,85 663,80 671,80 671,90 663,90 658,85 " style="fill:#d81515; stroke-width:1; stroke:black; " description="&lt;b&gt;FRY77_09910&lt;/b&gt;&lt;br&gt;GNAT family N-acetyltransferase&lt;br&gt;Location: 59557 - 60720&lt;br&gt;&lt;br&gt;&lt;b&gt;BlastP hit with JNAJGP_24140&lt;/b&gt;&lt;br&gt;Percentage identity: 48&lt;br&gt;Percentage coverage: 65&lt;br&gt;BLAST bit score: 231&lt;br&gt;E-value: 6.35e-73" locus_tag="FRY77_09910" class="clusterblast-orf" id="dummy-9_h9_1_26"  />
</g>
<g id="a9_0027"  >
<polygon points="672,90 685,90 690,85 685,80 672,80 672,90 " style="fill:#1563d8; stroke-width:1; stroke:black; " description="&lt;b&gt;FRY77_09915&lt;/b&gt;&lt;br&gt;cyclic peptide export ABC transporter&lt;br&gt;Location: 60875 - 62521&lt;br&gt;&lt;br&gt;&lt;b&gt;BlastP hit with JNAJGP_24155&lt;/b&gt;&lt;br&gt;Percentage identity: 49&lt;br&gt;Percentage coverage: 97&lt;br&gt;BLAST bit score: 498&lt;br&gt;E-value: 7.81e-172" locus_tag="FRY77_09915" class="clusterblast-orf" id="dummy-9_h9_1_27"  />
</g>
<g id="a9_0028"  >
<polygon points="690,85 695,80 696,80 696,90 695,90 690,85 " style="fill:white; stroke-width:1; stroke:black; " description="&lt;b&gt;FRY77_09920&lt;/b&gt;&lt;br&gt;cytochrome b&lt;br&gt;Location: 62507 - 63130" locus_tag="FRY77_09920" class="clusterblast-orf" id="dummy-9_h9_1_28"  />
</g>
<g id="a9_0029"  >
<polygon points="696,85 701,80 706,80 706,90 701,90 696,85 " style="fill:white; stroke-width:1; stroke:black; " description="&lt;b&gt;FRY77_09925&lt;/b&gt;&lt;br&gt;siderophore-interacting protein&lt;br&gt;Location: 63123 - 64067" locus_tag="FRY77_09925" class="clusterblast-orf" id="dummy-9_h9_1_29"  />
</g>
<g id="a9_0030"  >
<polygon points="708,90 725,90 730,85 725,80 708,80 708,90 " style="fill:#3cd815; stroke-width:1; stroke:black; " description="&lt;b&gt;FRY77_09930&lt;/b&gt;&lt;br&gt;Fe(3+)-hydroxamate ABC transporter permease FhuB&lt;br&gt;Location: 64257 - 66257&lt;br&gt;&lt;br&gt;&lt;b&gt;BlastP hit with JNAJGP_24145&lt;/b&gt;&lt;br&gt;Percentage identity: 49&lt;br&gt;Percentage coverage: 94&lt;br&gt;BLAST bit score: 500&lt;br&gt;E-value: 2.2e-169" locus_tag="FRY77_09930" class="clusterblast-orf" id="dummy-9_h9_1_30"  />
</g>
<g id="a9_0031"  >
<polygon points="730,90 733,90 738,85 733,80 730,80 730,90 " style="fill:white; stroke-width:1; stroke:black; " description="&lt;b&gt;FRY77_09935&lt;/b&gt;&lt;br&gt;siderophore-iron reductase FhuF&lt;br&gt;Location: 66254 - 67042" locus_tag="FRY77_09935" class="clusterblast-orf" id="dummy-9_h9_1_31"  />
</g>
<g id="a9_0032"  >
<polygon points="739,90 751,90 756,85 751,80 739,80 739,90 " style="fill:white; stroke-width:1; stroke:black; " description="&lt;b&gt;FRY77_09940&lt;/b&gt;&lt;br&gt;multidrug ABC transporter permease/ATP-binding protein&lt;br&gt;Location: 67104 - 68765" locus_tag="FRY77_09940" class="clusterblast-orf" id="dummy-9_h9_1_32"  />
</g>
</svg>
