<svg xmlns="http://www.w3.org/2000/svg" xmlns:xlink="http://www.w3.org/1999/xlink" version="1.1" x="0" y="0" height="50" width="800" viewBox="0 0 800 50" preserveAspectRatio="none"  >
<g label="Query sequence" class="clusterblast-cluster"  >
<text x="5" y="20" class="clusterblast-acc"  >
Query sequence</text>
<line x1="10" y1="35" x2="778.0" y2="35" style="stroke-width:1; stroke:grey; "  />
<polygon points="0,40 61,40 66,35 61,30 0,30 0,40 " style="fill:white; stroke-width:1; stroke:black; " description="&lt;b&gt;JNAJGP_22300&lt;/b&gt;&lt;br&gt;ABC transmembrane type-1 domain-containing protein&lt;br&gt;Location: 4711370 - 4712327" locus_tag="JNAJGP_22300" class="clusterblast-orf" id="knownclusterblast-7_q0_0_all"  />
<polygon points="66,40 121,40 126,35 121,30 66,30 66,40 " style="fill:white; stroke-width:1; stroke:black; " description="&lt;b&gt;JNAJGP_22305&lt;/b&gt;&lt;br&gt;DNA-directed RNA polymerase subunit alpha&lt;br&gt;Location: 4712323 - 4713199" locus_tag="JNAJGP_22305" class="clusterblast-orf" id="knownclusterblast-7_q1_0_all"  />
<polygon points="126,40 247,40 252,35 247,30 126,30 126,40 " style="fill:white; stroke-width:1; stroke:black; " description="&lt;b&gt;JNAJGP_22310&lt;/b&gt;&lt;br&gt;nickel import ATP-binding protein NikE&lt;br&gt;Location: 4713200 - 4715042" locus_tag="JNAJGP_22310" class="clusterblast-orf" id="knownclusterblast-7_q2_0_all"  />
<polygon points="252,40 268,40 273,35 268,30 252,30 252,40 " style="fill:white; stroke-width:1; stroke:black; " description="&lt;b&gt;JNAJGP_22315&lt;/b&gt;&lt;br&gt;NAD(FAD)-dependent dehydrogenase&lt;br&gt;Location: 4715038 - 4715347" locus_tag="JNAJGP_22315" class="clusterblast-orf" id="knownclusterblast-7_q3_0_all"  />
<polygon points="272,40 361,40 366,35 361,30 272,30 272,40 " style="fill:white; stroke-width:1; stroke:black; " description="&lt;b&gt;JNAJGP_22320&lt;/b&gt;&lt;br&gt;Hydrogen cyanide synthase subunit HcnB&lt;br&gt;Location: 4715328 - 4716708" locus_tag="JNAJGP_22320" class="clusterblast-orf" id="knownclusterblast-7_q4_0_all"  />
<polygon points="366,40 440,40 445,35 440,30 366,30 366,40 " style="fill:white; stroke-width:1; stroke:black; " description="&lt;b&gt;JNAJGP_22325&lt;/b&gt;&lt;br&gt;FAD dependent oxidoreductase domain-containing protein&lt;br&gt;Location: 4716704 - 4717856" locus_tag="JNAJGP_22325" class="clusterblast-orf" id="knownclusterblast-7_q5_0_all"  />
<polygon points="445,40 519,40 524,35 519,30 445,30 445,40 " style="fill:white; stroke-width:1; stroke:black; " description="&lt;b&gt;JNAJGP_22330&lt;/b&gt;&lt;br&gt;acetylornithine deacetylase&lt;br&gt;Location: 4717852 - 4719010" locus_tag="JNAJGP_22330" class="clusterblast-orf" id="knownclusterblast-7_q6_0_all"  />
<polygon points="532,40 628,40 633,35 628,30 532,30 532,40 " style="fill:white; stroke-width:1; stroke:black; " description="&lt;b&gt;JNAJGP_22335&lt;/b&gt;&lt;br&gt;Glutarate-semialdehyde dehydrogenase Succinate-semialdehyde dehydrogenase [NADP+]&lt;br&gt;Location: 4719127 - 4720588" locus_tag="JNAJGP_22335" class="clusterblast-orf" id="knownclusterblast-7_q7_0_all"  />
<polygon points="634,40 703,40 708,35 703,30 634,30 634,40 " style="fill:white; stroke-width:1; stroke:black; " description="&lt;b&gt;JNAJGP_22340&lt;/b&gt;&lt;br&gt;tartrate dehydrogenase&lt;br&gt;Location: 4720601 - 4721687" locus_tag="JNAJGP_22340" class="clusterblast-orf" id="knownclusterblast-7_q8_0_all"  />
<polygon points="709,35 714,30 717,30 717,40 714,40 709,35 " style="fill:white; stroke-width:1; stroke:black; " description="&lt;b&gt;JNAJGP_22345&lt;/b&gt;&lt;br&gt;hypothetical protein&lt;br&gt;Location: 4721698 - 4721812" locus_tag="JNAJGP_22345" class="clusterblast-orf" id="knownclusterblast-7_q9_0_all"  />
<polygon points="717,35 722,30 780,30 780,40 722,40 717,35 " style="fill:white; stroke-width:1; stroke:black; " description="&lt;b&gt;JNAJGP_22350&lt;/b&gt;&lt;br&gt;D-3-phosphoglycerate dehydrogenase&lt;br&gt;Location: 4721811 - 4722738" locus_tag="JNAJGP_22350" class="clusterblast-orf" id="knownclusterblast-7_q10_0_all"  />
</g>
</svg>
