<svg xmlns="http://www.w3.org/2000/svg" xmlns:xlink="http://www.w3.org/1999/xlink" version="1.1" x="0" y="0" height="230" width="800" viewBox="0 0 800 230" preserveAspectRatio="none"  >
<g label="Query sequence" class="clusterblast-cluster"  >
<text x="5" y="20" class="clusterblast-acc"  >
Query sequence</text>
<line x1="10" y1="35" x2="778.0" y2="35" style="stroke-width:1; stroke:grey; "  />
<polygon points="126,40 137,40 142,35 137,30 126,30 126,40 " style="fill:#d81515; stroke-width:1; stroke:black; " description="&lt;b&gt;PLIDEL_16745&lt;/b&gt;&lt;br&gt;hypothetical protein&lt;br&gt;Location: 104 - 542" locus_tag="PLIDEL_16745" class="clusterblast-orf" id="dummy-1_q0_0_all"  />
<polygon points="142,40 164,40 169,35 164,30 142,30 142,40 " style="fill:#33d815; stroke-width:1; stroke:black; " description="&lt;b&gt;PLIDEL_16750&lt;/b&gt;&lt;br&gt;Ubiquinone biosynthesis O-methyltransferase&lt;br&gt;Location: 528 - 1245" locus_tag="PLIDEL_16750" class="clusterblast-orf" id="dummy-1_q1_0_all"  />
<polygon points="168,35 173,30 187,30 187,40 173,40 168,35 " style="fill:white; stroke-width:1; stroke:black; " description="&lt;b&gt;PLIDEL_16755&lt;/b&gt;&lt;br&gt;hypothetical protein&lt;br&gt;Location: 1199 - 1697" locus_tag="PLIDEL_16755" class="clusterblast-orf" id="dummy-1_q2_0_all"  />
<polygon points="191,35 196,30 218,30 218,40 196,40 191,35 " style="fill:white; stroke-width:1; stroke:black; " description="&lt;b&gt;PLIDEL_16760&lt;/b&gt;&lt;br&gt;hypothetical protein&lt;br&gt;Location: 1817 - 2534" locus_tag="PLIDEL_16760" class="clusterblast-orf" id="dummy-1_q3_0_all"  />
<polygon points="219,40 271,40 276,35 271,30 219,30 219,40 " style="fill:#15abd8; stroke-width:1; stroke:black; " description="&lt;b&gt;PLIDEL_16765&lt;/b&gt;&lt;br&gt;hypothetical protein&lt;br&gt;Location: 2541 - 4041" locus_tag="PLIDEL_16765" class="clusterblast-orf" id="dummy-1_q4_0_all"  />
<polygon points="284,40 301,40 306,35 301,30 284,30 284,40 " style="fill:#8d15d8; stroke-width:1; stroke:black; " description="&lt;b&gt;PLIDEL_16770&lt;/b&gt;&lt;br&gt;Putative oxoacyl-reductase&lt;br&gt;Location: 4240 - 4819" locus_tag="PLIDEL_16770" class="clusterblast-orf" id="dummy-1_q5_0_all"  />
<polygon points="305,35 310,30 336,30 336,40 310,40 305,35 " style="fill:#d86f15; stroke-width:1; stroke:black; " description="&lt;b&gt;PLIDEL_16775&lt;/b&gt;&lt;br&gt;RNA-binding S4 domain-containing protein&lt;br&gt;Location: 4790 - 5627" locus_tag="PLIDEL_16775" class="clusterblast-orf" id="dummy-1_q6_0_all"  />
<polygon points="337,35 342,30 367,30 367,40 342,40 337,35 " style="fill:#15d851; stroke-width:1; stroke:black; " description="&lt;b&gt;PLIDEL_16780&lt;/b&gt;&lt;br&gt;Segregation and condensation protein B&lt;br&gt;Location: 5635 - 6427" locus_tag="PLIDEL_16780" class="clusterblast-orf" id="dummy-1_q7_0_all"  />
<polygon points="367,35 372,30 403,30 403,40 372,40 367,35 " style="fill:#1551d8; stroke-width:1; stroke:black; " description="&lt;b&gt;PLIDEL_16785&lt;/b&gt;&lt;br&gt;Segregation and condensation protein A&lt;br&gt;Location: 6423 - 7365" locus_tag="PLIDEL_16785" class="clusterblast-orf" id="dummy-1_q8_0_all"  />
<polygon points="403,35 408,30 449,30 449,40 408,40 403,35 " style="fill:#d815c9; stroke-width:1; stroke:black; " description="&lt;b&gt;PLIDEL_16790&lt;/b&gt;&lt;br&gt;Tryptophan--tRNA ligase&lt;br&gt;Location: 7374 - 8574" locus_tag="PLIDEL_16790" class="clusterblast-orf" id="dummy-1_q9_0_all"  />
<polygon points="455,35 460,30 478,30 478,40 460,40 455,35 " style="fill:#d8c915; stroke-width:1; stroke:black; " description="&lt;b&gt;PLIDEL_16795&lt;/b&gt;&lt;br&gt;Uncharacterized protein HI 1198&lt;br&gt;Location: 8730 - 9345" locus_tag="PLIDEL_16795" class="clusterblast-orf" id="dummy-1_q10_0_all"  />
<polygon points="482,40 498,40 503,35 498,30 482,30 482,40 " style="fill:#15d8ab; stroke-width:1; stroke:black; " description="&lt;b&gt;PLIDEL_16800&lt;/b&gt;&lt;br&gt;Inner membrane-spanning protein YciB&lt;br&gt;Location: 9442 - 9988" locus_tag="PLIDEL_16800" class="clusterblast-orf" id="dummy-1_q11_0_all"  />
<polygon points="503,40 509,40 514,35 509,30 503,30 503,40 " style="fill:#3315d8; stroke-width:1; stroke:black; " description="&lt;b&gt;PLIDEL_16805&lt;/b&gt;&lt;br&gt;YCII-related domain-containing protein&lt;br&gt;Location: 9989 - 10289" locus_tag="PLIDEL_16805" class="clusterblast-orf" id="dummy-1_q12_0_all"  />
<polygon points="514,40 520,40 525,35 520,30 514,30 514,40 " style="fill:#d8156f; stroke-width:1; stroke:black; " description="&lt;b&gt;PLIDEL_16810&lt;/b&gt;&lt;br&gt;BolA family transcriptional regulator&lt;br&gt;Location: 10285 - 10561" locus_tag="PLIDEL_16810" class="clusterblast-orf" id="dummy-1_q13_0_all"  />
<polygon points="526,40 553,40 558,35 553,30 526,30 526,40 " style="fill:#8dd815; stroke-width:1; stroke:black; " description="&lt;b&gt;PLIDEL_16815&lt;/b&gt;&lt;br&gt;Peptidylprolyl isomerase&lt;br&gt;Location: 10600 - 11437" locus_tag="PLIDEL_16815" class="clusterblast-orf" id="dummy-1_q14_0_all"  />
<polygon points="585,35 590,30 591,30 591,40 590,40 585,35 " style="fill:white; stroke-width:1; stroke:black; " description="&lt;b&gt;PLIDEL_16820&lt;/b&gt;&lt;br&gt;hypothetical protein&lt;br&gt;Location: 12138 - 12303" locus_tag="PLIDEL_16820" class="clusterblast-orf" id="dummy-1_q15_0_all"  />
<polygon points="593,35 598,30 654,30 654,40 598,40 593,35 " style="fill:white; stroke-width:1; stroke:black; " description="&lt;b&gt;PLIDEL_16825&lt;/b&gt;&lt;br&gt;hypothetical protein&lt;br&gt;Location: 12344 - 13952" locus_tag="PLIDEL_16825" class="clusterblast-orf" id="dummy-1_q16_0_all"  />
</g>
<g label="NZ_RYEV01000005" description="NZ_RYEV01000005 (493885-514719): Steroidobacter soli strain JW-3 Scaffold4 1,... (66% of genes show similarity), terpene" class="clusterblast-cluster"  >
<text x="5" y="70" class="clusterblast-acc"  >
<a xlink:href="https://antismash-db.secondarymetabolites.org/area?record=NZ_RYEV01000005&amp;start=493885&amp;end=514719" target="_blank">NZ_RYEV01000005 (493885-514719)</a>: Steroidobacter soli strain JW-3 Scaffold4 1,... (66% of genes show similarity), terpene</text>
<line x1="10" y1="85" x2="778.0" y2="85" style="stroke-width:1; stroke:grey; "  />
</g>
<g id="a1_000"  >
<polygon points="0,85 5,80 44,80 44,90 5,90 0,85 " style="fill:white; stroke-width:1; stroke:black; " description="&lt;b&gt;EKO19_RS23805&lt;/b&gt;&lt;br&gt;prephenate dehydratase&lt;br&gt;Location: 514361 - 513198" locus_tag="EKO19_RS23805" class="clusterblast-orf" id="dummy-1_h1_2_0"  />
</g>
<g id="a1_001"  >
<polygon points="46,85 51,80 92,80 92,90 51,90 46,85 " style="fill:white; stroke-width:1; stroke:black; " description="&lt;b&gt;EKO19_RS23800&lt;/b&gt;&lt;br&gt;phosphoglycerate dehydrogenase&lt;br&gt;Location: 513134 - 511935" locus_tag="EKO19_RS23800" class="clusterblast-orf" id="dummy-1_h1_2_1"  />
</g>
<g id="a1_002"  >
<polygon points="93,85 98,80 134,80 134,90 98,90 93,85 " style="fill:white; stroke-width:1; stroke:black; " description="&lt;b&gt;EKO19_RS23795&lt;/b&gt;&lt;br&gt;3-phosphoserine/phosphohydroxythreonine transaminase&lt;br&gt;Location: 511912 - 510830" locus_tag="EKO19_RS23795" class="clusterblast-orf" id="dummy-1_h1_2_2"  />
</g>
<g id="a1_003"  >
<polygon points="136,85 141,80 238,80 238,90 141,90 136,85 " style="fill:white; stroke-width:1; stroke:black; " description="&lt;b&gt;EKO19_RS23790&lt;/b&gt;&lt;br&gt;DNA gyrase subunit A&lt;br&gt;Location: 510790 - 508121" locus_tag="EKO19_RS23790" class="clusterblast-orf" id="dummy-1_h1_2_3"  />
</g>
<g id="a1_004"  >
<polygon points="241,90 285,90 290,85 285,80 241,80 241,90 " style="fill:white; stroke-width:1; stroke:black; " description="&lt;b&gt;EKO19_RS23785&lt;/b&gt;&lt;br&gt;amidohydrolase family protein&lt;br&gt;Location: 508026 - 506740" locus_tag="EKO19_RS23785" class="clusterblast-orf" id="dummy-1_h1_2_4"  />
</g>
<g id="a1_005"  >
<polygon points="290,90 312,90 317,85 312,80 290,80 290,90 " style="fill:#33d815; stroke-width:1; stroke:black; " description="&lt;b&gt;EKO19_RS23780&lt;/b&gt;&lt;br&gt;bifunctional 2-polyprenyl-6-hydroxyphenol methylase/3-demethylubiquinol 3-O-methyltransferase UbiG&lt;br&gt;Location: 506743 - 506033&lt;br&gt;&lt;br&gt;&lt;b&gt;BlastP hit with PLIDEL_16750&lt;/b&gt;&lt;br&gt;Percentage identity: 55&lt;br&gt;Percentage coverage: 97&lt;br&gt;BLAST bit score: 250&lt;br&gt;E-value: 5.48e-82" locus_tag="EKO19_RS23780" class="clusterblast-orf" id="dummy-1_h1_2_5"  />
</g>
<g id="a1_006"  >
<polygon points="317,90 362,90 367,85 362,80 317,80 317,90 " style="fill:#15abd8; stroke-width:1; stroke:black; " description="&lt;b&gt;EKO19_RS23775&lt;/b&gt;&lt;br&gt;DNA recombination protein RmuC&lt;br&gt;Location: 506040 - 504724&lt;br&gt;&lt;br&gt;&lt;b&gt;BlastP hit with PLIDEL_16765&lt;/b&gt;&lt;br&gt;Percentage identity: 76&lt;br&gt;Percentage coverage: 39&lt;br&gt;BLAST bit score: 289&lt;br&gt;E-value: 7.93e-91" locus_tag="EKO19_RS23775" class="clusterblast-orf" id="dummy-1_h1_2_6"  />
</g>
<g id="a1_007"  >
<polygon points="367,90 394,90 399,85 394,80 367,80 367,90 " style="fill:#15abd8; stroke-width:1; stroke:black; " description="&lt;b&gt;EKO19_RS23770&lt;/b&gt;&lt;br&gt;squalene/phytoene synthase family protein&lt;br&gt;Location: 504719 - 503886&lt;br&gt;&lt;br&gt;&lt;b&gt;BlastP hit with PLIDEL_16765&lt;/b&gt;&lt;br&gt;Percentage identity: 38&lt;br&gt;Percentage coverage: 55&lt;br&gt;BLAST bit score: 157&lt;br&gt;E-value: 2.95e-42" locus_tag="EKO19_RS23770" class="clusterblast-orf" id="dummy-1_h1_2_7"  />
</g>
<g id="a1_008"  >
<polygon points="401,90 424,90 429,85 424,80 401,80 401,90 " style="fill:#8d15d8; stroke-width:1; stroke:black; " description="&lt;b&gt;EKO19_RS23765&lt;/b&gt;&lt;br&gt;YciK family oxidoreductase&lt;br&gt;Location: 503848 - 503099&lt;br&gt;&lt;br&gt;&lt;b&gt;BlastP hit with PLIDEL_16770&lt;/b&gt;&lt;br&gt;Percentage identity: 57&lt;br&gt;Percentage coverage: 81&lt;br&gt;BLAST bit score: 184&lt;br&gt;E-value: 1.2e-56" locus_tag="EKO19_RS23765" class="clusterblast-orf" id="dummy-1_h1_2_8"  />
</g>
<g id="a1_009"  >
<polygon points="433,90 444,90 449,85 444,80 433,80 433,90 " style="fill:white; stroke-width:1; stroke:black; " description="&lt;b&gt;EKO19_RS23760&lt;/b&gt;&lt;br&gt;VOC family protein&lt;br&gt;Location: 503009 - 502590" locus_tag="EKO19_RS23760" class="clusterblast-orf" id="dummy-1_h1_2_9"  />
</g>
<g id="a1_0010"  >
<polygon points="450,85 455,80 482,80 482,90 455,90 450,85 " style="fill:#d86f15; stroke-width:1; stroke:black; " description="&lt;b&gt;EKO19_RS23755&lt;/b&gt;&lt;br&gt;S4 domain-containing protein&lt;br&gt;Location: 502558 - 501716&lt;br&gt;&lt;br&gt;&lt;b&gt;BlastP hit with PLIDEL_16775&lt;/b&gt;&lt;br&gt;Percentage identity: 43&lt;br&gt;Percentage coverage: 90&lt;br&gt;BLAST bit score: 198&lt;br&gt;E-value: 1.6e-60" locus_tag="EKO19_RS23755" class="clusterblast-orf" id="dummy-1_h1_2_10"  />
</g>
<g id="a1_0011"  >
<polygon points="483,85 488,80 531,80 531,90 488,90 483,85 " style="fill:#15d851; stroke-width:1; stroke:black; " description="&lt;b&gt;EKO19_RS23750&lt;/b&gt;&lt;br&gt;SMC-Scp complex subunit ScpB&lt;br&gt;Location: 501680 - 500439&lt;br&gt;&lt;br&gt;&lt;b&gt;BlastP hit with PLIDEL_16780&lt;/b&gt;&lt;br&gt;Percentage identity: 65&lt;br&gt;Percentage coverage: 71&lt;br&gt;BLAST bit score: 231&lt;br&gt;E-value: 1.01e-71" locus_tag="EKO19_RS23750" class="clusterblast-orf" id="dummy-1_h1_2_11"  />
</g>
<g id="a1_0012"  >
<polygon points="605,85 610,80 634,80 634,90 610,90 605,85 " style="fill:#1551d8; stroke-width:1; stroke:black; " description="&lt;b&gt;EKO19_RS39285&lt;/b&gt;&lt;br&gt;segregation/condensation protein A&lt;br&gt;Location: 498480 - 497722&lt;br&gt;&lt;br&gt;&lt;b&gt;BlastP hit with PLIDEL_16785&lt;/b&gt;&lt;br&gt;Percentage identity: 74&lt;br&gt;Percentage coverage: 81&lt;br&gt;BLAST bit score: 354&lt;br&gt;E-value: 1.58e-121" locus_tag="EKO19_RS39285" class="clusterblast-orf" id="dummy-1_h1_2_12"  />
</g>
<g id="a1_0013"  >
<polygon points="638,85 643,80 684,80 684,90 643,90 638,85 " style="fill:#d815c9; stroke-width:1; stroke:black; " description="&lt;b&gt;EKO19_RS23740&lt;/b&gt;&lt;br&gt;tryptophan--tRNA ligase&lt;br&gt;Location: 497626 - 496409&lt;br&gt;&lt;br&gt;&lt;b&gt;BlastP hit with PLIDEL_16790&lt;/b&gt;&lt;br&gt;Percentage identity: 75&lt;br&gt;Percentage coverage: 99&lt;br&gt;BLAST bit score: 626&lt;br&gt;E-value: 2.86e-225" locus_tag="EKO19_RS23740" class="clusterblast-orf" id="dummy-1_h1_2_13"  />
</g>
<g id="a1_0014"  >
<polygon points="689,85 694,80 710,80 710,90 694,90 689,85 " style="fill:#d8c915; stroke-width:1; stroke:black; " description="&lt;b&gt;EKO19_RS23735&lt;/b&gt;&lt;br&gt;L-threonylcarbamoyladenylate synthase&lt;br&gt;Location: 496279 - 495728&lt;br&gt;&lt;br&gt;&lt;b&gt;BlastP hit with PLIDEL_16795&lt;/b&gt;&lt;br&gt;Percentage identity: 71&lt;br&gt;Percentage coverage: 90&lt;br&gt;BLAST bit score: 268&lt;br&gt;E-value: 1.83e-90" locus_tag="EKO19_RS23735" class="clusterblast-orf" id="dummy-1_h1_2_14"  />
</g>
<g id="a1_0015"  >
<polygon points="706,90 732,90 737,85 732,80 706,80 706,90 " style="fill:#15d8ab; stroke-width:1; stroke:black; " description="&lt;b&gt;EKO19_RS23730&lt;/b&gt;&lt;br&gt;septation protein A&lt;br&gt;Location: 495844 - 495032&lt;br&gt;&lt;br&gt;&lt;b&gt;BlastP hit with PLIDEL_16800&lt;/b&gt;&lt;br&gt;Percentage identity: 55&lt;br&gt;Percentage coverage: 85&lt;br&gt;BLAST bit score: 172&lt;br&gt;E-value: 7e-52" locus_tag="EKO19_RS23730" class="clusterblast-orf" id="dummy-1_h1_2_15"  />
</g>
<g id="a1_0016"  >
<polygon points="737,90 742,90 747,85 742,80 737,80 737,90 " style="fill:#d8156f; stroke-width:1; stroke:black; " description="&lt;b&gt;EKO19_RS23725&lt;/b&gt;&lt;br&gt;BolA family transcriptional regulator&lt;br&gt;Location: 495035 - 494766&lt;br&gt;&lt;br&gt;&lt;b&gt;BlastP hit with PLIDEL_16810&lt;/b&gt;&lt;br&gt;Percentage identity: 56&lt;br&gt;Percentage coverage: 85&lt;br&gt;BLAST bit score: 86&lt;br&gt;E-value: 1.12e-21" locus_tag="EKO19_RS23725" class="clusterblast-orf" id="dummy-1_h1_2_16"  />
</g>
<g id="a1_0017"  >
<polygon points="749,90 775,90 780,85 775,80 749,80 749,90 " style="fill:#8dd815; stroke-width:1; stroke:black; " description="&lt;b&gt;EKO19_RS23720&lt;/b&gt;&lt;br&gt;peptidylprolyl isomerase&lt;br&gt;Location: 494727 - 493915&lt;br&gt;&lt;br&gt;&lt;b&gt;BlastP hit with PLIDEL_16815&lt;/b&gt;&lt;br&gt;Percentage identity: 55&lt;br&gt;Percentage coverage: 87&lt;br&gt;BLAST bit score: 245&lt;br&gt;E-value: 4.64e-79" locus_tag="EKO19_RS23720" class="clusterblast-orf" id="dummy-1_h1_2_17"  />
</g>
</svg>
