<svg xmlns="http://www.w3.org/2000/svg" xmlns:xlink="http://www.w3.org/1999/xlink" version="1.1" x="0" y="0" height="230" width="800" viewBox="0 0 800 230" preserveAspectRatio="none"  >
<g label="Query sequence" class="clusterblast-cluster"  >
<text x="5" y="20" class="clusterblast-acc"  >
Query sequence</text>
<line x1="10" y1="35" x2="778.0" y2="35" style="stroke-width:1; stroke:grey; "  />
<polygon points="117,40 130,40 135,35 130,30 117,30 117,40 " style="fill:#d81515; stroke-width:1; stroke:black; " description="&lt;b&gt;PLIDEL_16745&lt;/b&gt;&lt;br&gt;hypothetical protein&lt;br&gt;Location: 104 - 542" locus_tag="PLIDEL_16745" class="clusterblast-orf" id="dummy-1_q0_0_all"  />
<polygon points="134,40 157,40 162,35 157,30 134,30 134,40 " style="fill:#33d815; stroke-width:1; stroke:black; " description="&lt;b&gt;PLIDEL_16750&lt;/b&gt;&lt;br&gt;Ubiquinone biosynthesis O-methyltransferase&lt;br&gt;Location: 528 - 1245" locus_tag="PLIDEL_16750" class="clusterblast-orf" id="dummy-1_q1_0_all"  />
<polygon points="161,35 166,30 180,30 180,40 166,40 161,35 " style="fill:white; stroke-width:1; stroke:black; " description="&lt;b&gt;PLIDEL_16755&lt;/b&gt;&lt;br&gt;hypothetical protein&lt;br&gt;Location: 1199 - 1697" locus_tag="PLIDEL_16755" class="clusterblast-orf" id="dummy-1_q2_0_all"  />
<polygon points="185,35 190,30 213,30 213,40 190,40 185,35 " style="fill:white; stroke-width:1; stroke:black; " description="&lt;b&gt;PLIDEL_16760&lt;/b&gt;&lt;br&gt;hypothetical protein&lt;br&gt;Location: 1817 - 2534" locus_tag="PLIDEL_16760" class="clusterblast-orf" id="dummy-1_q3_0_all"  />
<polygon points="213,40 267,40 272,35 267,30 213,30 213,40 " style="fill:#15abd8; stroke-width:1; stroke:black; " description="&lt;b&gt;PLIDEL_16765&lt;/b&gt;&lt;br&gt;hypothetical protein&lt;br&gt;Location: 2541 - 4041" locus_tag="PLIDEL_16765" class="clusterblast-orf" id="dummy-1_q4_0_all"  />
<polygon points="280,40 298,40 303,35 298,30 280,30 280,40 " style="fill:#8d15d8; stroke-width:1; stroke:black; " description="&lt;b&gt;PLIDEL_16770&lt;/b&gt;&lt;br&gt;Putative oxoacyl-reductase&lt;br&gt;Location: 4240 - 4819" locus_tag="PLIDEL_16770" class="clusterblast-orf" id="dummy-1_q5_0_all"  />
<polygon points="302,35 307,30 335,30 335,40 307,40 302,35 " style="fill:#d86f15; stroke-width:1; stroke:black; " description="&lt;b&gt;PLIDEL_16775&lt;/b&gt;&lt;br&gt;RNA-binding S4 domain-containing protein&lt;br&gt;Location: 4790 - 5627" locus_tag="PLIDEL_16775" class="clusterblast-orf" id="dummy-1_q6_0_all"  />
<polygon points="335,35 340,30 366,30 366,40 340,40 335,35 " style="fill:#15d851; stroke-width:1; stroke:black; " description="&lt;b&gt;PLIDEL_16780&lt;/b&gt;&lt;br&gt;Segregation and condensation protein B&lt;br&gt;Location: 5635 - 6427" locus_tag="PLIDEL_16780" class="clusterblast-orf" id="dummy-1_q7_0_all"  />
<polygon points="366,35 371,30 403,30 403,40 371,40 366,35 " style="fill:#1551d8; stroke-width:1; stroke:black; " description="&lt;b&gt;PLIDEL_16785&lt;/b&gt;&lt;br&gt;Segregation and condensation protein A&lt;br&gt;Location: 6423 - 7365" locus_tag="PLIDEL_16785" class="clusterblast-orf" id="dummy-1_q8_0_all"  />
<polygon points="404,35 409,30 451,30 451,40 409,40 404,35 " style="fill:#d815c9; stroke-width:1; stroke:black; " description="&lt;b&gt;PLIDEL_16790&lt;/b&gt;&lt;br&gt;Tryptophan--tRNA ligase&lt;br&gt;Location: 7374 - 8574" locus_tag="PLIDEL_16790" class="clusterblast-orf" id="dummy-1_q9_0_all"  />
<polygon points="457,35 462,30 481,30 481,40 462,40 457,35 " style="fill:#d8c915; stroke-width:1; stroke:black; " description="&lt;b&gt;PLIDEL_16795&lt;/b&gt;&lt;br&gt;Uncharacterized protein HI 1198&lt;br&gt;Location: 8730 - 9345" locus_tag="PLIDEL_16795" class="clusterblast-orf" id="dummy-1_q10_0_all"  />
<polygon points="485,40 501,40 506,35 501,30 485,30 485,40 " style="fill:#15d8ab; stroke-width:1; stroke:black; " description="&lt;b&gt;PLIDEL_16800&lt;/b&gt;&lt;br&gt;Inner membrane-spanning protein YciB&lt;br&gt;Location: 9442 - 9988" locus_tag="PLIDEL_16800" class="clusterblast-orf" id="dummy-1_q11_0_all"  />
<polygon points="506,40 513,40 518,35 513,30 506,30 506,40 " style="fill:#3315d8; stroke-width:1; stroke:black; " description="&lt;b&gt;PLIDEL_16805&lt;/b&gt;&lt;br&gt;YCII-related domain-containing protein&lt;br&gt;Location: 9989 - 10289" locus_tag="PLIDEL_16805" class="clusterblast-orf" id="dummy-1_q12_0_all"  />
<polygon points="518,40 524,40 529,35 524,30 518,30 518,40 " style="fill:#d8156f; stroke-width:1; stroke:black; " description="&lt;b&gt;PLIDEL_16810&lt;/b&gt;&lt;br&gt;BolA family transcriptional regulator&lt;br&gt;Location: 10285 - 10561" locus_tag="PLIDEL_16810" class="clusterblast-orf" id="dummy-1_q13_0_all"  />
<polygon points="530,40 558,40 563,35 558,30 530,30 530,40 " style="fill:#8dd815; stroke-width:1; stroke:black; " description="&lt;b&gt;PLIDEL_16815&lt;/b&gt;&lt;br&gt;Peptidylprolyl isomerase&lt;br&gt;Location: 10600 - 11437" locus_tag="PLIDEL_16815" class="clusterblast-orf" id="dummy-1_q14_0_all"  />
<polygon points="591,35 596,30 597,30 597,40 596,40 591,35 " style="fill:white; stroke-width:1; stroke:black; " description="&lt;b&gt;PLIDEL_16820&lt;/b&gt;&lt;br&gt;hypothetical protein&lt;br&gt;Location: 12138 - 12303" locus_tag="PLIDEL_16820" class="clusterblast-orf" id="dummy-1_q15_0_all"  />
<polygon points="599,35 604,30 662,30 662,40 604,40 599,35 " style="fill:white; stroke-width:1; stroke:black; " description="&lt;b&gt;PLIDEL_16825&lt;/b&gt;&lt;br&gt;hypothetical protein&lt;br&gt;Location: 12344 - 13952" locus_tag="PLIDEL_16825" class="clusterblast-orf" id="dummy-1_q16_0_all"  />
</g>
<g label="NZ_BLJN01000008" description="NZ_BLJN01000008 (287003-307837): Steroidobacter agaridevorans strain YU21-B s... (66% of genes show similarity), terpene" class="clusterblast-cluster"  >
<text x="5" y="70" class="clusterblast-acc"  >
<a xlink:href="https://antismash-db.secondarymetabolites.org/area?record=NZ_BLJN01000008&amp;start=287003&amp;end=307837" target="_blank">NZ_BLJN01000008 (287003-307837)</a>: Steroidobacter agaridevorans strain YU21-B s... (66% of genes show similarity), terpene</text>
<line x1="10" y1="85" x2="778.0" y2="85" style="stroke-width:1; stroke:grey; "  />
</g>
<g id="a1_000"  >
<polygon points="0,85 5,80 45,80 45,90 5,90 0,85 " style="fill:white; stroke-width:1; stroke:black; " description="&lt;b&gt;GYH38_RS31505&lt;/b&gt;&lt;br&gt;prephenate dehydratase&lt;br&gt;Location: 287345 - 288505" locus_tag="GYH38_RS31505" class="clusterblast-orf" id="dummy-1_h1_4_0"  />
</g>
<g id="a1_001"  >
<polygon points="48,85 53,80 93,80 93,90 53,90 48,85 " style="fill:white; stroke-width:1; stroke:black; " description="&lt;b&gt;GYH38_RS31510&lt;/b&gt;&lt;br&gt;phosphoglycerate dehydrogenase&lt;br&gt;Location: 288568 - 289734" locus_tag="GYH38_RS31510" class="clusterblast-orf" id="dummy-1_h1_4_1"  />
</g>
<g id="a1_002"  >
<polygon points="97,85 102,80 139,80 139,90 102,90 97,85 " style="fill:white; stroke-width:1; stroke:black; " description="&lt;b&gt;GYH38_RS31515&lt;/b&gt;&lt;br&gt;3-phosphoserine/phosphohydroxythreonine transaminase&lt;br&gt;Location: 289813 - 290892" locus_tag="GYH38_RS31515" class="clusterblast-orf" id="dummy-1_h1_4_2"  />
</g>
<g id="a1_003"  >
<polygon points="140,85 145,80 245,80 245,90 145,90 140,85 " style="fill:white; stroke-width:1; stroke:black; " description="&lt;b&gt;GYH38_RS31520&lt;/b&gt;&lt;br&gt;DNA gyrase subunit A&lt;br&gt;Location: 290913 - 293576" locus_tag="GYH38_RS31520" class="clusterblast-orf" id="dummy-1_h1_4_3"  />
</g>
<g id="a1_004"  >
<polygon points="249,90 295,90 300,85 295,80 249,80 249,90 " style="fill:#d81515; stroke-width:1; stroke:black; " description="&lt;b&gt;GYH38_RS31525&lt;/b&gt;&lt;br&gt;amidohydrolase family protein&lt;br&gt;Location: 293682 - 294974&lt;br&gt;&lt;br&gt;&lt;b&gt;BlastP hit with PLIDEL_16745&lt;/b&gt;&lt;br&gt;Percentage identity: 47&lt;br&gt;Percentage coverage: 70&lt;br&gt;BLAST bit score: 97&lt;br&gt;E-value: 2.47e-22" locus_tag="GYH38_RS31525" class="clusterblast-orf" id="dummy-1_h1_4_4"  />
</g>
<g id="a1_005"  >
<polygon points="300,90 322,90 327,85 322,80 300,80 300,90 " style="fill:#33d815; stroke-width:1; stroke:black; " description="&lt;b&gt;GYH38_RS31530&lt;/b&gt;&lt;br&gt;bifunctional 2-polyprenyl-6-hydroxyphenol methylase/3-demethylubiquinol 3-O-methyltransferase UbiG&lt;br&gt;Location: 294971 - 295681&lt;br&gt;&lt;br&gt;&lt;b&gt;BlastP hit with PLIDEL_16750&lt;/b&gt;&lt;br&gt;Percentage identity: 53&lt;br&gt;Percentage coverage: 99&lt;br&gt;BLAST bit score: 240&lt;br&gt;E-value: 3.4e-78" locus_tag="GYH38_RS31530" class="clusterblast-orf" id="dummy-1_h1_4_5"  />
</g>
<g id="a1_006"  >
<polygon points="328,90 374,90 379,85 374,80 328,80 328,90 " style="fill:#15abd8; stroke-width:1; stroke:black; " description="&lt;b&gt;GYH38_RS31535&lt;/b&gt;&lt;br&gt;DNA recombination protein RmuC&lt;br&gt;Location: 295683 - 296993&lt;br&gt;&lt;br&gt;&lt;b&gt;BlastP hit with PLIDEL_16765&lt;/b&gt;&lt;br&gt;Percentage identity: 74&lt;br&gt;Percentage coverage: 39&lt;br&gt;BLAST bit score: 288&lt;br&gt;E-value: 2.1e-90" locus_tag="GYH38_RS31535" class="clusterblast-orf" id="dummy-1_h1_4_6"  />
</g>
<g id="a1_007"  >
<polygon points="380,90 407,90 412,85 407,80 380,80 380,90 " style="fill:#15abd8; stroke-width:1; stroke:black; " description="&lt;b&gt;GYH38_RS31540&lt;/b&gt;&lt;br&gt;squalene/phytoene synthase family protein&lt;br&gt;Location: 297004 - 297837&lt;br&gt;&lt;br&gt;&lt;b&gt;BlastP hit with PLIDEL_16765&lt;/b&gt;&lt;br&gt;Percentage identity: 39&lt;br&gt;Percentage coverage: 54&lt;br&gt;BLAST bit score: 160&lt;br&gt;E-value: 2.89e-43" locus_tag="GYH38_RS31540" class="clusterblast-orf" id="dummy-1_h1_4_7"  />
</g>
<g id="a1_008"  >
<polygon points="413,90 438,90 443,85 438,80 413,80 413,90 " style="fill:#8d15d8; stroke-width:1; stroke:black; " description="&lt;b&gt;GYH38_RS31545&lt;/b&gt;&lt;br&gt;YciK family oxidoreductase&lt;br&gt;Location: 297859 - 298608&lt;br&gt;&lt;br&gt;&lt;b&gt;BlastP hit with PLIDEL_16770&lt;/b&gt;&lt;br&gt;Percentage identity: 58&lt;br&gt;Percentage coverage: 81&lt;br&gt;BLAST bit score: 184&lt;br&gt;E-value: 1.2e-56" locus_tag="GYH38_RS31545" class="clusterblast-orf" id="dummy-1_h1_4_8"  />
</g>
<g id="a1_009"  >
<polygon points="447,90 459,90 464,85 459,80 447,80 447,90 " style="fill:white; stroke-width:1; stroke:black; " description="&lt;b&gt;GYH38_RS31550&lt;/b&gt;&lt;br&gt;VOC family protein&lt;br&gt;Location: 298726 - 299145" locus_tag="GYH38_RS31550" class="clusterblast-orf" id="dummy-1_h1_4_9"  />
</g>
<g id="a1_0010"  >
<polygon points="465,85 470,80 498,80 498,90 470,90 465,85 " style="fill:#d86f15; stroke-width:1; stroke:black; " description="&lt;b&gt;GYH38_RS31555&lt;/b&gt;&lt;br&gt;S4 domain-containing protein&lt;br&gt;Location: 299164 - 300006&lt;br&gt;&lt;br&gt;&lt;b&gt;BlastP hit with PLIDEL_16775&lt;/b&gt;&lt;br&gt;Percentage identity: 43&lt;br&gt;Percentage coverage: 87&lt;br&gt;BLAST bit score: 201&lt;br&gt;E-value: 2e-61" locus_tag="GYH38_RS31555" class="clusterblast-orf" id="dummy-1_h1_4_10"  />
</g>
<g id="a1_0011"  >
<polygon points="502,85 507,80 547,80 547,90 507,90 502,85 " style="fill:#15d851; stroke-width:1; stroke:black; " description="&lt;b&gt;GYH38_RS31560&lt;/b&gt;&lt;br&gt;SMC-Scp complex subunit ScpB&lt;br&gt;Location: 300111 - 301265&lt;br&gt;&lt;br&gt;&lt;b&gt;BlastP hit with PLIDEL_16780&lt;/b&gt;&lt;br&gt;Percentage identity: 64&lt;br&gt;Percentage coverage: 71&lt;br&gt;BLAST bit score: 228&lt;br&gt;E-value: 3.61e-71" locus_tag="GYH38_RS31560" class="clusterblast-orf" id="dummy-1_h1_4_11"  />
</g>
<g id="a1_0012"  >
<polygon points="547,85 552,80 588,80 588,90 552,90 547,85 " style="fill:white; stroke-width:1; stroke:black; " description="&lt;b&gt;GYH38_RS31565&lt;/b&gt;&lt;br&gt;hypothetical protein&lt;br&gt;Location: 301262 - 302305" locus_tag="GYH38_RS31565" class="clusterblast-orf" id="dummy-1_h1_4_12"  />
</g>
<g id="a1_0013"  >
<polygon points="633,85 638,80 663,80 663,90 638,90 633,85 " style="fill:#1551d8; stroke-width:1; stroke:black; " description="&lt;b&gt;GYH38_RS35830&lt;/b&gt;&lt;br&gt;segregation/condensation protein A&lt;br&gt;Location: 303449 - 304207&lt;br&gt;&lt;br&gt;&lt;b&gt;BlastP hit with PLIDEL_16785&lt;/b&gt;&lt;br&gt;Percentage identity: 74&lt;br&gt;Percentage coverage: 81&lt;br&gt;BLAST bit score: 357&lt;br&gt;E-value: 1.36e-122" locus_tag="GYH38_RS35830" class="clusterblast-orf" id="dummy-1_h1_4_13"  />
</g>
<g id="a1_0014"  >
<polygon points="667,85 672,80 715,80 715,90 672,90 667,85 " style="fill:#d815c9; stroke-width:1; stroke:black; " description="&lt;b&gt;GYH38_RS31575&lt;/b&gt;&lt;br&gt;tryptophan--tRNA ligase&lt;br&gt;Location: 304303 - 305520&lt;br&gt;&lt;br&gt;&lt;b&gt;BlastP hit with PLIDEL_16790&lt;/b&gt;&lt;br&gt;Percentage identity: 74&lt;br&gt;Percentage coverage: 99&lt;br&gt;BLAST bit score: 620&lt;br&gt;E-value: 1.11e-222" locus_tag="GYH38_RS31575" class="clusterblast-orf" id="dummy-1_h1_4_14"  />
</g>
<g id="a1_0015"  >
<polygon points="720,85 725,80 744,80 744,90 725,90 720,85 " style="fill:#d8c915; stroke-width:1; stroke:black; " description="&lt;b&gt;GYH38_RS31580&lt;/b&gt;&lt;br&gt;L-threonylcarbamoyladenylate synthase&lt;br&gt;Location: 305650 - 306273&lt;br&gt;&lt;br&gt;&lt;b&gt;BlastP hit with PLIDEL_16795&lt;/b&gt;&lt;br&gt;Percentage identity: 70&lt;br&gt;Percentage coverage: 99&lt;br&gt;BLAST bit score: 290&lt;br&gt;E-value: 6.18e-99" locus_tag="GYH38_RS31580" class="clusterblast-orf" id="dummy-1_h1_4_15"  />
</g>
<g id="a1_0016"  >
<polygon points="745,90 764,90 769,85 764,80 745,80 745,90 " style="fill:#15d8ab; stroke-width:1; stroke:black; " description="&lt;b&gt;GYH38_RS31585&lt;/b&gt;&lt;br&gt;septation protein A&lt;br&gt;Location: 306280 - 306903&lt;br&gt;&lt;br&gt;&lt;b&gt;BlastP hit with PLIDEL_16800&lt;/b&gt;&lt;br&gt;Percentage identity: 57&lt;br&gt;Percentage coverage: 96&lt;br&gt;BLAST bit score: 200&lt;br&gt;E-value: 9.51e-64" locus_tag="GYH38_RS31585" class="clusterblast-orf" id="dummy-1_h1_4_16"  />
</g>
<g id="a1_0017"  >
<polygon points="769,90 775,90 780,85 775,80 769,80 769,90 " style="fill:#d8156f; stroke-width:1; stroke:black; " description="&lt;b&gt;GYH38_RS31590&lt;/b&gt;&lt;br&gt;BolA family transcriptional regulator&lt;br&gt;Location: 306900 - 307169&lt;br&gt;&lt;br&gt;&lt;b&gt;BlastP hit with PLIDEL_16810&lt;/b&gt;&lt;br&gt;Percentage identity: 55&lt;br&gt;Percentage coverage: 85&lt;br&gt;BLAST bit score: 83&lt;br&gt;E-value: 1.84e-20" locus_tag="GYH38_RS31590" class="clusterblast-orf" id="dummy-1_h1_4_17"  />
</g>
</svg>
