<svg xmlns="http://www.w3.org/2000/svg" xmlns:xlink="http://www.w3.org/1999/xlink" version="1.1" x="0" y="0" height="230" width="800" viewBox="0 0 800 230" preserveAspectRatio="none"  >
<g label="Query sequence" class="clusterblast-cluster"  >
<text x="5" y="20" class="clusterblast-acc"  >
Query sequence</text>
<line x1="10" y1="35" x2="778.0" y2="35" style="stroke-width:1; stroke:grey; "  />
<polygon points="95,40 109,40 114,35 109,30 95,30 95,40 " style="fill:#d81515; stroke-width:1; stroke:black; " description="&lt;b&gt;PLIDEL_16745&lt;/b&gt;&lt;br&gt;hypothetical protein&lt;br&gt;Location: 104 - 542" locus_tag="PLIDEL_16745" class="clusterblast-orf" id="dummy-1_q0_0_all"  />
<polygon points="113,40 139,40 144,35 139,30 113,30 113,40 " style="fill:#33d815; stroke-width:1; stroke:black; " description="&lt;b&gt;PLIDEL_16750&lt;/b&gt;&lt;br&gt;Ubiquinone biosynthesis O-methyltransferase&lt;br&gt;Location: 528 - 1245" locus_tag="PLIDEL_16750" class="clusterblast-orf" id="dummy-1_q1_0_all"  />
<polygon points="142,35 147,30 163,30 163,40 147,40 142,35 " style="fill:white; stroke-width:1; stroke:black; " description="&lt;b&gt;PLIDEL_16755&lt;/b&gt;&lt;br&gt;hypothetical protein&lt;br&gt;Location: 1199 - 1697" locus_tag="PLIDEL_16755" class="clusterblast-orf" id="dummy-1_q2_0_all"  />
<polygon points="168,35 173,30 199,30 199,40 173,40 168,35 " style="fill:white; stroke-width:1; stroke:black; " description="&lt;b&gt;PLIDEL_16760&lt;/b&gt;&lt;br&gt;hypothetical protein&lt;br&gt;Location: 1817 - 2534" locus_tag="PLIDEL_16760" class="clusterblast-orf" id="dummy-1_q3_0_all"  />
<polygon points="199,40 258,40 263,35 258,30 199,30 199,40 " style="fill:#15abd8; stroke-width:1; stroke:black; " description="&lt;b&gt;PLIDEL_16765&lt;/b&gt;&lt;br&gt;hypothetical protein&lt;br&gt;Location: 2541 - 4041" locus_tag="PLIDEL_16765" class="clusterblast-orf" id="dummy-1_q4_0_all"  />
<polygon points="271,40 291,40 296,35 291,30 271,30 271,40 " style="fill:#8d15d8; stroke-width:1; stroke:black; " description="&lt;b&gt;PLIDEL_16770&lt;/b&gt;&lt;br&gt;Putative oxoacyl-reductase&lt;br&gt;Location: 4240 - 4819" locus_tag="PLIDEL_16770" class="clusterblast-orf" id="dummy-1_q5_0_all"  />
<polygon points="295,35 300,30 330,30 330,40 300,40 295,35 " style="fill:#d86f15; stroke-width:1; stroke:black; " description="&lt;b&gt;PLIDEL_16775&lt;/b&gt;&lt;br&gt;RNA-binding S4 domain-containing protein&lt;br&gt;Location: 4790 - 5627" locus_tag="PLIDEL_16775" class="clusterblast-orf" id="dummy-1_q6_0_all"  />
<polygon points="331,35 336,30 364,30 364,40 336,40 331,35 " style="fill:#15d851; stroke-width:1; stroke:black; " description="&lt;b&gt;PLIDEL_16780&lt;/b&gt;&lt;br&gt;Segregation and condensation protein B&lt;br&gt;Location: 5635 - 6427" locus_tag="PLIDEL_16780" class="clusterblast-orf" id="dummy-1_q7_0_all"  />
<polygon points="364,35 369,30 404,30 404,40 369,40 364,35 " style="fill:#1551d8; stroke-width:1; stroke:black; " description="&lt;b&gt;PLIDEL_16785&lt;/b&gt;&lt;br&gt;Segregation and condensation protein A&lt;br&gt;Location: 6423 - 7365" locus_tag="PLIDEL_16785" class="clusterblast-orf" id="dummy-1_q8_0_all"  />
<polygon points="405,35 410,30 456,30 456,40 410,40 405,35 " style="fill:#d815c9; stroke-width:1; stroke:black; " description="&lt;b&gt;PLIDEL_16790&lt;/b&gt;&lt;br&gt;Tryptophan--tRNA ligase&lt;br&gt;Location: 7374 - 8574" locus_tag="PLIDEL_16790" class="clusterblast-orf" id="dummy-1_q9_0_all"  />
<polygon points="462,35 467,30 489,30 489,40 467,40 462,35 " style="fill:#d8c915; stroke-width:1; stroke:black; " description="&lt;b&gt;PLIDEL_16795&lt;/b&gt;&lt;br&gt;Uncharacterized protein HI 1198&lt;br&gt;Location: 8730 - 9345" locus_tag="PLIDEL_16795" class="clusterblast-orf" id="dummy-1_q10_0_all"  />
<polygon points="493,40 511,40 516,35 511,30 493,30 493,40 " style="fill:#15d8ab; stroke-width:1; stroke:black; " description="&lt;b&gt;PLIDEL_16800&lt;/b&gt;&lt;br&gt;Inner membrane-spanning protein YciB&lt;br&gt;Location: 9442 - 9988" locus_tag="PLIDEL_16800" class="clusterblast-orf" id="dummy-1_q11_0_all"  />
<polygon points="516,40 524,40 529,35 524,30 516,30 516,40 " style="fill:#3315d8; stroke-width:1; stroke:black; " description="&lt;b&gt;PLIDEL_16805&lt;/b&gt;&lt;br&gt;YCII-related domain-containing protein&lt;br&gt;Location: 9989 - 10289" locus_tag="PLIDEL_16805" class="clusterblast-orf" id="dummy-1_q12_0_all"  />
<polygon points="529,40 535,40 540,35 535,30 529,30 529,40 " style="fill:#d8156f; stroke-width:1; stroke:black; " description="&lt;b&gt;PLIDEL_16810&lt;/b&gt;&lt;br&gt;BolA family transcriptional regulator&lt;br&gt;Location: 10285 - 10561" locus_tag="PLIDEL_16810" class="clusterblast-orf" id="dummy-1_q13_0_all"  />
<polygon points="542,40 573,40 578,35 573,30 542,30 542,40 " style="fill:#8dd815; stroke-width:1; stroke:black; " description="&lt;b&gt;PLIDEL_16815&lt;/b&gt;&lt;br&gt;Peptidylprolyl isomerase&lt;br&gt;Location: 10600 - 11437" locus_tag="PLIDEL_16815" class="clusterblast-orf" id="dummy-1_q14_0_all"  />
<polygon points="608,35 613,30 615,30 615,40 613,40 608,35 " style="fill:white; stroke-width:1; stroke:black; " description="&lt;b&gt;PLIDEL_16820&lt;/b&gt;&lt;br&gt;hypothetical protein&lt;br&gt;Location: 12138 - 12303" locus_tag="PLIDEL_16820" class="clusterblast-orf" id="dummy-1_q15_0_all"  />
<polygon points="616,35 621,30 685,30 685,40 621,40 616,35 " style="fill:white; stroke-width:1; stroke:black; " description="&lt;b&gt;PLIDEL_16825&lt;/b&gt;&lt;br&gt;hypothetical protein&lt;br&gt;Location: 12344 - 13952" locus_tag="PLIDEL_16825" class="clusterblast-orf" id="dummy-1_q16_0_all"  />
</g>
<g label="NZ_QGTJ01000010" description="NZ_QGTJ01000010 (15585-36434): Plasticicumulans acidivorans strain DSM 23606 ... (55% of genes show similarity), terpene" class="clusterblast-cluster"  >
<text x="5" y="70" class="clusterblast-acc"  >
<a xlink:href="https://antismash-db.secondarymetabolites.org/area?record=NZ_QGTJ01000010&amp;start=15585&amp;end=36434" target="_blank">NZ_QGTJ01000010 (15585-36434)</a>: Plasticicumulans acidivorans strain DSM 23606 ... (55% of genes show similarity), terpene</text>
<line x1="10" y1="85" x2="778.0" y2="85" style="stroke-width:1; stroke:grey; "  />
</g>
<g id="a1_000"  >
<polygon points="0,85 5,80 112,80 112,90 5,90 0,85 " style="fill:white; stroke-width:1; stroke:black; " description="&lt;b&gt;C7443_RS15535&lt;/b&gt;&lt;br&gt;DNA gyrase subunit A&lt;br&gt;Location: 35308 - 32678" locus_tag="C7443_RS15535" class="clusterblast-orf" id="dummy-1_h1_6_0"  />
</g>
<g id="a1_001"  >
<polygon points="115,85 120,80 160,80 160,90 120,90 115,85 " style="fill:white; stroke-width:1; stroke:black; " description="&lt;b&gt;C7443_RS15530&lt;/b&gt;&lt;br&gt;S-methyl-5-thioribose-1-phosphate isomerase&lt;br&gt;Location: 32599 - 31541" locus_tag="C7443_RS15530" class="clusterblast-orf" id="dummy-1_h1_6_1"  />
</g>
<g id="a1_002"  >
<polygon points="164,85 169,80 192,80 192,90 169,90 164,85 " style="fill:white; stroke-width:1; stroke:black; " description="&lt;b&gt;C7443_RS15525&lt;/b&gt;&lt;br&gt;response regulator transcription factor&lt;br&gt;Location: 31447 - 30788" locus_tag="C7443_RS15525" class="clusterblast-orf" id="dummy-1_h1_6_2"  />
</g>
<g id="a1_003"  >
<polygon points="203,90 222,90 227,85 222,80 203,80 203,90 " style="fill:white; stroke-width:1; stroke:black; " description="&lt;b&gt;C7443_RS15520&lt;/b&gt;&lt;br&gt;OmpA family protein&lt;br&gt;Location: 30525 - 29962" locus_tag="C7443_RS15520" class="clusterblast-orf" id="dummy-1_h1_6_3"  />
</g>
<g id="a1_004"  >
<polygon points="233,90 284,90 289,85 284,80 233,80 233,90 " style="fill:white; stroke-width:1; stroke:black; " description="&lt;b&gt;C7443_RS15515&lt;/b&gt;&lt;br&gt;TRZ/ATZ family hydrolase&lt;br&gt;Location: 29836 - 28517" locus_tag="C7443_RS15515" class="clusterblast-orf" id="dummy-1_h1_6_4"  />
</g>
<g id="a1_005"  >
<polygon points="290,90 315,90 320,85 315,80 290,80 290,90 " style="fill:#33d815; stroke-width:1; stroke:black; " description="&lt;b&gt;C7443_RS15510&lt;/b&gt;&lt;br&gt;bifunctional 2-polyprenyl-6-hydroxyphenol methylase/3-demethylubiquinol 3-O-methyltransferase UbiG&lt;br&gt;Location: 28485 - 27775&lt;br&gt;&lt;br&gt;&lt;b&gt;BlastP hit with PLIDEL_16750&lt;/b&gt;&lt;br&gt;Percentage identity: 51&lt;br&gt;Percentage coverage: 97&lt;br&gt;BLAST bit score: 223&lt;br&gt;E-value: 3.18e-71" locus_tag="C7443_RS15510" class="clusterblast-orf" id="dummy-1_h1_6_5"  />
</g>
<g id="a1_006"  >
<polygon points="321,90 344,90 349,85 344,80 321,80 321,90 " style="fill:white; stroke-width:1; stroke:black; " description="&lt;b&gt;C7443_RS15505&lt;/b&gt;&lt;br&gt;HAD-IA family hydrolase&lt;br&gt;Location: 27763 - 27101" locus_tag="C7443_RS15505" class="clusterblast-orf" id="dummy-1_h1_6_6"  />
</g>
<g id="a1_007"  >
<polygon points="349,90 372,90 377,85 372,80 349,80 349,90 " style="fill:white; stroke-width:1; stroke:black; " description="&lt;b&gt;C7443_RS20165&lt;/b&gt;&lt;br&gt;hypothetical protein&lt;br&gt;Location: 27104 - 26442" locus_tag="C7443_RS20165" class="clusterblast-orf" id="dummy-1_h1_6_7"  />
</g>
<g id="a1_008"  >
<polygon points="377,90 409,90 414,85 409,80 377,80 377,90 " style="fill:white; stroke-width:1; stroke:black; " description="&lt;b&gt;C7443_RS15495&lt;/b&gt;&lt;br&gt;squalene/phytoene synthase family protein&lt;br&gt;Location: 26434 - 25586" locus_tag="C7443_RS15495" class="clusterblast-orf" id="dummy-1_h1_6_8"  />
</g>
<g id="a1_009"  >
<polygon points="417,90 444,90 449,85 444,80 417,80 417,90 " style="fill:#8d15d8; stroke-width:1; stroke:black; " description="&lt;b&gt;C7443_RS15490&lt;/b&gt;&lt;br&gt;YciK family oxidoreductase&lt;br&gt;Location: 25494 - 24751&lt;br&gt;&lt;br&gt;&lt;b&gt;BlastP hit with PLIDEL_16770&lt;/b&gt;&lt;br&gt;Percentage identity: 50&lt;br&gt;Percentage coverage: 81&lt;br&gt;BLAST bit score: 157&lt;br&gt;E-value: 4.07e-46" locus_tag="C7443_RS15490" class="clusterblast-orf" id="dummy-1_h1_6_9"  />
</g>
<g id="a1_0010"  >
<polygon points="473,85 478,80 517,80 517,90 478,90 473,85 " style="fill:#d86f15; stroke-width:1; stroke:black; " description="&lt;b&gt;C7443_RS15485&lt;/b&gt;&lt;br&gt;23S rRNA pseudouridine(2605) synthase RluB&lt;br&gt;Location: 24192 - 23161&lt;br&gt;&lt;br&gt;&lt;b&gt;BlastP hit with PLIDEL_16775&lt;/b&gt;&lt;br&gt;Percentage identity: 35&lt;br&gt;Percentage coverage: 91&lt;br&gt;BLAST bit score: 146&lt;br&gt;E-value: 1.1e-39" locus_tag="C7443_RS15485" class="clusterblast-orf" id="dummy-1_h1_6_10"  />
</g>
<g id="a1_0011"  >
<polygon points="517,85 522,80 543,80 543,90 522,90 517,85 " style="fill:#15d851; stroke-width:1; stroke:black; " description="&lt;b&gt;C7443_RS15480&lt;/b&gt;&lt;br&gt;SMC-Scp complex subunit ScpB&lt;br&gt;Location: 23164 - 22544&lt;br&gt;&lt;br&gt;&lt;b&gt;BlastP hit with PLIDEL_16780&lt;/b&gt;&lt;br&gt;Percentage identity: 61&lt;br&gt;Percentage coverage: 67&lt;br&gt;BLAST bit score: 205&lt;br&gt;E-value: 1.9e-64" locus_tag="C7443_RS15480" class="clusterblast-orf" id="dummy-1_h1_6_11"  />
</g>
<g id="a1_0012"  >
<polygon points="547,85 552,80 581,80 581,90 552,90 547,85 " style="fill:#1551d8; stroke-width:1; stroke:black; " description="&lt;b&gt;C7443_RS15475&lt;/b&gt;&lt;br&gt;segregation/condensation protein A&lt;br&gt;Location: 22458 - 21643&lt;br&gt;&lt;br&gt;&lt;b&gt;BlastP hit with PLIDEL_16785&lt;/b&gt;&lt;br&gt;Percentage identity: 64&lt;br&gt;Percentage coverage: 81&lt;br&gt;BLAST bit score: 305&lt;br&gt;E-value: 5.61e-102" locus_tag="C7443_RS15475" class="clusterblast-orf" id="dummy-1_h1_6_12"  />
</g>
<g id="a1_0013"  >
<polygon points="582,85 587,80 625,80 625,90 587,90 582,85 " style="fill:#d815c9; stroke-width:1; stroke:black; " description="&lt;b&gt;C7443_RS15470&lt;/b&gt;&lt;br&gt;tryptophan--tRNA ligase&lt;br&gt;Location: 21639 - 20614&lt;br&gt;&lt;br&gt;&lt;b&gt;BlastP hit with PLIDEL_16790&lt;/b&gt;&lt;br&gt;Percentage identity: 31&lt;br&gt;Percentage coverage: 101&lt;br&gt;BLAST bit score: 158&lt;br&gt;E-value: 9.83e-43" locus_tag="C7443_RS15470" class="clusterblast-orf" id="dummy-1_h1_6_13"  />
</g>
<g id="a1_0014"  >
<polygon points="627,85 632,80 655,80 655,90 632,90 627,85 " style="fill:white; stroke-width:1; stroke:black; " description="&lt;b&gt;C7443_RS15465&lt;/b&gt;&lt;br&gt;site-2 protease family protein&lt;br&gt;Location: 20568 - 19906" locus_tag="C7443_RS15465" class="clusterblast-orf" id="dummy-1_h1_6_14"  />
</g>
<g id="a1_0015"  >
<polygon points="657,85 662,80 684,80 684,90 662,90 657,85 " style="fill:#d8c915; stroke-width:1; stroke:black; " description="&lt;b&gt;C7443_RS15460&lt;/b&gt;&lt;br&gt;L-threonylcarbamoyladenylate synthase&lt;br&gt;Location: 19873 - 19244&lt;br&gt;&lt;br&gt;&lt;b&gt;BlastP hit with PLIDEL_16795&lt;/b&gt;&lt;br&gt;Percentage identity: 61&lt;br&gt;Percentage coverage: 100&lt;br&gt;BLAST bit score: 255&lt;br&gt;E-value: 4.62e-85" locus_tag="C7443_RS15460" class="clusterblast-orf" id="dummy-1_h1_6_15"  />
</g>
<g id="a1_0016"  >
<polygon points="692,90 710,90 715,85 710,80 692,80 692,90 " style="fill:#15d8ab; stroke-width:1; stroke:black; " description="&lt;b&gt;C7443_RS15455&lt;/b&gt;&lt;br&gt;septation protein A&lt;br&gt;Location: 19040 - 18498&lt;br&gt;&lt;br&gt;&lt;b&gt;BlastP hit with PLIDEL_16800&lt;/b&gt;&lt;br&gt;Percentage identity: 49&lt;br&gt;Percentage coverage: 99&lt;br&gt;BLAST bit score: 185&lt;br&gt;E-value: 3.34e-58" locus_tag="C7443_RS15455" class="clusterblast-orf" id="dummy-1_h1_6_16"  />
</g>
<g id="a1_0017"  >
<polygon points="717,90 725,90 730,85 725,80 717,80 717,90 " style="fill:#3315d8; stroke-width:1; stroke:black; " description="&lt;b&gt;C7443_RS15450&lt;/b&gt;&lt;br&gt;YciI family protein&lt;br&gt;Location: 18452 - 18150&lt;br&gt;&lt;br&gt;&lt;b&gt;BlastP hit with PLIDEL_16805&lt;/b&gt;&lt;br&gt;Percentage identity: 63&lt;br&gt;Percentage coverage: 100&lt;br&gt;BLAST bit score: 123&lt;br&gt;E-value: 5.14e-36" locus_tag="C7443_RS15450" class="clusterblast-orf" id="dummy-1_h1_6_17"  />
</g>
<g id="a1_0018"  >
<polygon points="730,90 737,90 742,85 737,80 730,80 730,90 " style="fill:#d8156f; stroke-width:1; stroke:black; " description="&lt;b&gt;C7443_RS15445&lt;/b&gt;&lt;br&gt;BolA family transcriptional regulator&lt;br&gt;Location: 18153 - 17872&lt;br&gt;&lt;br&gt;&lt;b&gt;BlastP hit with PLIDEL_16810&lt;/b&gt;&lt;br&gt;Percentage identity: 50&lt;br&gt;Percentage coverage: 99&lt;br&gt;BLAST bit score: 87&lt;br&gt;E-value: 8.79e-22" locus_tag="C7443_RS15445" class="clusterblast-orf" id="dummy-1_h1_6_18"  />
</g>
<g id="a1_0019"  >
<polygon points="742,90 775,90 780,85 775,80 742,80 742,90 " style="fill:#8dd815; stroke-width:1; stroke:black; " description="&lt;b&gt;C7443_RS15440&lt;/b&gt;&lt;br&gt;peptidylprolyl isomerase&lt;br&gt;Location: 17861 - 16992&lt;br&gt;&lt;br&gt;&lt;b&gt;BlastP hit with PLIDEL_16815&lt;/b&gt;&lt;br&gt;Percentage identity: 41&lt;br&gt;Percentage coverage: 88&lt;br&gt;BLAST bit score: 179&lt;br&gt;E-value: 9.26e-53" locus_tag="C7443_RS15440" class="clusterblast-orf" id="dummy-1_h1_6_19"  />
</g>
</svg>
