<svg xmlns="http://www.w3.org/2000/svg" xmlns:xlink="http://www.w3.org/1999/xlink" version="1.1" x="0" y="0" height="230" width="800" viewBox="0 0 800 230" preserveAspectRatio="none"  >
<g label="Query sequence" class="clusterblast-cluster"  >
<text x="5" y="20" class="clusterblast-acc"  >
Query sequence</text>
<line x1="10" y1="35" x2="778.0" y2="35" style="stroke-width:1; stroke:grey; "  />
<polygon points="353,35 358,30 358,30 358,40 358,40 353,35 " style="fill:#d81515; stroke-width:1; stroke:black; " description="&lt;b&gt;MFKKBJ_13420&lt;/b&gt;&lt;br&gt;IclR family transcriptional regulator&lt;br&gt;Location: 2932067 - 2932886" locus_tag="MFKKBJ_13420" class="clusterblast-orf" id="dummy-5_q0_0_all"  />
<polygon points="360,40 362,40 367,35 362,30 360,30 360,40 " style="fill:#77d815; stroke-width:1; stroke:black; " description="&lt;b&gt;MFKKBJ_13425&lt;/b&gt;&lt;br&gt;Iron(III) transport system ATP-binding&lt;br&gt;Location: 2933126 - 2934155" locus_tag="MFKKBJ_13425" class="clusterblast-orf" id="dummy-5_q1_0_all"  />
<polygon points="367,40 367,40 372,35 367,30 367,30 367,40 " style="fill:#15d8d8; stroke-width:1; stroke:black; " description="&lt;b&gt;MFKKBJ_13430&lt;/b&gt;&lt;br&gt;ABC transmembrane type-1 domain-containing protein&lt;br&gt;Location: 2934151 - 2934997" locus_tag="MFKKBJ_13430" class="clusterblast-orf" id="dummy-5_q2_0_all"  />
<polygon points="372,40 373,40 378,35 373,30 372,30 372,40 " style="fill:#7715d8; stroke-width:1; stroke:black; " description="&lt;b&gt;MFKKBJ_13435&lt;/b&gt;&lt;br&gt;ABC-type spermidine/putrescine transport system, permease component II&lt;br&gt;Location: 2935001 - 2935796" locus_tag="MFKKBJ_13435" class="clusterblast-orf" id="dummy-5_q3_0_all"  />
<polygon points="378,40 380,35 378,30 378,40 " style="fill:#d87715; stroke-width:1; stroke:black; " description="&lt;b&gt;MFKKBJ_13440&lt;/b&gt;&lt;br&gt;Ferredoxin&lt;br&gt;Location: 2935795 - 2936086" locus_tag="MFKKBJ_13440" class="clusterblast-orf" id="dummy-5_q4_0_all"  />
<polygon points="380,40 384,40 389,35 384,30 380,30 380,40 " style="fill:#15d815; stroke-width:1; stroke:black; " description="&lt;b&gt;MFKKBJ_13445&lt;/b&gt;&lt;br&gt;FAD/NAD(P)-binding oxidoreductase&lt;br&gt;Location: 2936082 - 2937426" locus_tag="MFKKBJ_13445" class="clusterblast-orf" id="dummy-5_q5_0_all"  />
<polygon points="389,40 391,40 396,35 391,30 389,30 389,40 " style="fill:#1577d8; stroke-width:1; stroke:black; " description="&lt;b&gt;MFKKBJ_13450&lt;/b&gt;&lt;br&gt;FAD dependent oxidoreductase domain-containing protein&lt;br&gt;Location: 2937422 - 2938520" locus_tag="MFKKBJ_13450" class="clusterblast-orf" id="dummy-5_q6_0_all"  />
<polygon points="396,40 398,40 403,35 398,30 396,30 396,40 " style="fill:#d815d8; stroke-width:1; stroke:black; " description="&lt;b&gt;MFKKBJ_13455&lt;/b&gt;&lt;br&gt;ABC transporter substrate-binding protein&lt;br&gt;Location: 2938534 - 2939566" locus_tag="MFKKBJ_13455" class="clusterblast-orf" id="dummy-5_q7_0_all"  />
<polygon points="403,35 408,30 408,30 408,40 408,40 403,35 " style="fill:#d8d815; stroke-width:1; stroke:black; " description="&lt;b&gt;MFKKBJ_13460&lt;/b&gt;&lt;br&gt;ammonia-dependent NAD(+) synthetase&lt;br&gt;Location: 2939566 - 2940376" locus_tag="MFKKBJ_13460" class="clusterblast-orf" id="dummy-5_q8_0_all"  />
<polygon points="408,35 413,30 416,30 416,40 413,40 408,35 " style="fill:#15d877; stroke-width:1; stroke:black; " description="&lt;b&gt;MFKKBJ_13465&lt;/b&gt;&lt;br&gt;nicotinate phosphoribosyltransferase&lt;br&gt;Location: 2940377 - 2941595" locus_tag="MFKKBJ_13465" class="clusterblast-orf" id="dummy-5_q9_0_all"  />
<polygon points="416,35 421,30 421,30 421,40 421,40 416,35 " style="fill:#1515d8; stroke-width:1; stroke:black; " description="&lt;b&gt;MFKKBJ_13470&lt;/b&gt;&lt;br&gt;Isochorismatase&lt;br&gt;Location: 2941606 - 2942254" locus_tag="MFKKBJ_13470" class="clusterblast-orf" id="dummy-5_q10_0_all"  />
<polygon points="422,40 425,35 422,30 422,40 " style="fill:#d81577; stroke-width:1; stroke:black; " description="&lt;b&gt;MFKKBJ_13475&lt;/b&gt;&lt;br&gt;NUDIX hydrolase&lt;br&gt;Location: 2942400 - 2942877" locus_tag="MFKKBJ_13475" class="clusterblast-orf" id="dummy-5_q11_0_all"  />
<polygon points="425,40 426,35 425,30 425,40 " style="fill:#d81577; stroke-width:1; stroke:black; " description="&lt;b&gt;MFKKBJ_13480&lt;/b&gt;&lt;br&gt;hypothetical protein&lt;br&gt;Location: 2942860 - 2943094" locus_tag="MFKKBJ_13480" class="clusterblast-orf" id="dummy-5_q12_0_all"  />
</g>
<g label="NZ_LT629702" description="NZ_LT629702 (658958-776367): Pseudomonas azotoformans strain LMG 21611 chromo... (24% of genes show similarity), NRP-metallophore,NRPS,hydrogen-cyanide" class="clusterblast-cluster"  >
<text x="5" y="70" class="clusterblast-acc"  >
<a xlink:href="https://antismash-db.secondarymetabolites.org/area?record=NZ_LT629702&amp;start=658958&amp;end=776367" target="_blank">NZ_LT629702 (658958-776367)</a>: Pseudomonas azotoformans strain LMG 21611 chromo... (24% of genes show similarity), NRP-metallophore,NRPS,hydrogen-cyanide</text>
<line x1="10" y1="85" x2="778.0" y2="85" style="stroke-width:1; stroke:grey; "  />
</g>
<g id="a5_000"  >
<polygon points="0,85 2,80 2,90 0,85 " style="fill:white; stroke-width:1; stroke:black; " description="&lt;b&gt;BLR69_RS03340&lt;/b&gt;&lt;br&gt;protein TolR&lt;br&gt;Location: 776214 - 775768" locus_tag="BLR69_RS03340" class="clusterblast-orf" id="dummy-5_h5_3_0"  />
</g>
<g id="a5_001"  >
<polygon points="3,85 7,80 7,90 3,85 " style="fill:white; stroke-width:1; stroke:black; " description="&lt;b&gt;BLR69_RS03335&lt;/b&gt;&lt;br&gt;protein TolQ&lt;br&gt;Location: 775752 - 775060" locus_tag="BLR69_RS03335" class="clusterblast-orf" id="dummy-5_h5_3_1"  />
</g>
<g id="a5_002"  >
<polygon points="8,85 13,80 20,80 20,90 13,90 8,85 " style="fill:white; stroke-width:1; stroke:black; " description="&lt;b&gt;BLR69_RS03330&lt;/b&gt;&lt;br&gt;phytase&lt;br&gt;Location: 775013 - 773151" locus_tag="BLR69_RS03330" class="clusterblast-orf" id="dummy-5_h5_3_2"  />
</g>
<g id="a5_003"  >
<polygon points="21,85 26,80 38,80 38,90 26,90 21,85 " style="fill:white; stroke-width:1; stroke:black; " description="&lt;b&gt;BLR69_RS03325&lt;/b&gt;&lt;br&gt;TonB-dependent receptor&lt;br&gt;Location: 773006 - 770493" locus_tag="BLR69_RS03325" class="clusterblast-orf" id="dummy-5_h5_3_3"  />
</g>
<g id="a5_004"  >
<polygon points="40,90 42,90 47,85 42,80 40,80 40,90 " style="fill:white; stroke-width:1; stroke:black; " description="&lt;b&gt;BLR69_RS03320&lt;/b&gt;&lt;br&gt;GGDEF domain-containing protein&lt;br&gt;Location: 770076 - 769162" locus_tag="BLR69_RS03320" class="clusterblast-orf" id="dummy-5_h5_3_4"  />
</g>
<g id="a5_005"  >
<polygon points="47,90 49,90 54,85 49,80 47,80 47,90 " style="fill:white; stroke-width:1; stroke:black; " description="&lt;b&gt;BLR69_RS03315&lt;/b&gt;&lt;br&gt;AraC family transcriptional regulator&lt;br&gt;Location: 769160 - 768123" locus_tag="BLR69_RS03315" class="clusterblast-orf" id="dummy-5_h5_3_5"  />
</g>
<g id="a5_006"  >
<polygon points="53,85 58,80 59,80 59,90 58,90 53,85 " style="fill:white; stroke-width:1; stroke:black; " description="&lt;b&gt;BLR69_RS03310&lt;/b&gt;&lt;br&gt;LysR family transcriptional regulator&lt;br&gt;Location: 768136 - 767255" locus_tag="BLR69_RS03310" class="clusterblast-orf" id="dummy-5_h5_3_6"  />
</g>
<g id="a5_007"  >
<polygon points="60,85 65,80 65,80 65,90 65,90 60,85 " style="fill:white; stroke-width:1; stroke:black; " description="&lt;b&gt;BLR69_RS03305&lt;/b&gt;&lt;br&gt;hydrolase&lt;br&gt;Location: 767083 - 766466" locus_tag="BLR69_RS03305" class="clusterblast-orf" id="dummy-5_h5_3_7"  />
</g>
<g id="a5_008"  >
<polygon points="65,85 70,80 77,80 77,90 70,90 65,85 " style="fill:white; stroke-width:1; stroke:black; " description="&lt;b&gt;BLR69_RS03300&lt;/b&gt;&lt;br&gt;amidohydrolase&lt;br&gt;Location: 766436 - 764598" locus_tag="BLR69_RS03300" class="clusterblast-orf" id="dummy-5_h5_3_8"  />
</g>
<g id="a5_009"  >
<polygon points="77,85 81,80 81,90 77,85 " style="fill:white; stroke-width:1; stroke:black; " description="&lt;b&gt;BLR69_RS03295&lt;/b&gt;&lt;br&gt;antibiotic biosynthesis monooxygenase&lt;br&gt;Location: 764601 - 764011" locus_tag="BLR69_RS03295" class="clusterblast-orf" id="dummy-5_h5_3_9"  />
</g>
<g id="a5_0010"  >
<polygon points="87,85 90,80 90,90 87,85 " style="fill:white; stroke-width:1; stroke:black; " description="&lt;b&gt;BLR69_RS03285&lt;/b&gt;&lt;br&gt;Lrp/AsnC family transcriptional regulator&lt;br&gt;Location: 763069 - 762599" locus_tag="BLR69_RS03285" class="clusterblast-orf" id="dummy-5_h5_3_10"  />
</g>
<g id="a5_0011"  >
<polygon points="91,90 94,90 99,85 94,80 91,80 91,90 " style="fill:white; stroke-width:1; stroke:black; " description="&lt;b&gt;BLR69_RS03280&lt;/b&gt;&lt;br&gt;methionine gamma-lyase&lt;br&gt;Location: 762475 - 761240" locus_tag="BLR69_RS03280" class="clusterblast-orf" id="dummy-5_h5_3_11"  />
</g>
<g id="a5_0012"  >
<polygon points="101,90 105,85 101,80 101,90 " style="fill:white; stroke-width:1; stroke:black; " description="&lt;b&gt;BLR69_RS03275&lt;/b&gt;&lt;br&gt;helix-turn-helix transcriptional regulator&lt;br&gt;Location: 761084 - 760413" locus_tag="BLR69_RS03275" class="clusterblast-orf" id="dummy-5_h5_3_12"  />
</g>
<g id="a5_0013"  >
<polygon points="106,85 111,80 119,80 119,90 111,90 106,85 " style="fill:white; stroke-width:1; stroke:black; " description="&lt;b&gt;BLR69_RS03270&lt;/b&gt;&lt;br&gt;MacB family efflux pump subunit&lt;br&gt;Location: 760296 - 758338" locus_tag="BLR69_RS03270" class="clusterblast-orf" id="dummy-5_h5_3_13"  />
</g>
<g id="a5_0014"  >
<polygon points="119,85 124,80 127,80 127,90 124,90 119,85 " style="fill:white; stroke-width:1; stroke:black; " description="&lt;b&gt;BLR69_RS03265&lt;/b&gt;&lt;br&gt;macrolide transporter subunit MacA&lt;br&gt;Location: 758334 - 757183" locus_tag="BLR69_RS03265" class="clusterblast-orf" id="dummy-5_h5_3_14"  />
</g>
<g id="a5_0015"  >
<polygon points="132,85 137,80 207,80 207,90 137,90 132,85 " style="fill:white; stroke-width:1; stroke:black; " description="&lt;b&gt;BLR69_RS03255&lt;/b&gt;&lt;br&gt;non-ribosomal peptide synthetase&lt;br&gt;Location: 756367 - 745073" locus_tag="BLR69_RS03255" class="clusterblast-orf" id="dummy-5_h5_3_15"  />
</g>
<g id="a5_0016"  >
<polygon points="207,85 212,80 293,80 293,90 212,90 207,85 " style="fill:white; stroke-width:1; stroke:black; " description="&lt;b&gt;BLR69_RS03250&lt;/b&gt;&lt;br&gt;non-ribosomal peptide synthetase&lt;br&gt;Location: 745076 - 732249" locus_tag="BLR69_RS03250" class="clusterblast-orf" id="dummy-5_h5_3_16"  />
</g>
<g id="a5_0017"  >
<polygon points="295,85 300,80 306,80 306,90 300,90 295,85 " style="fill:white; stroke-width:1; stroke:black; " description="&lt;b&gt;BLR69_RS03245&lt;/b&gt;&lt;br&gt;PvdJ/PvdD/PvdP-like protein&lt;br&gt;Location: 731881 - 730262" locus_tag="BLR69_RS03245" class="clusterblast-orf" id="dummy-5_h5_3_17"  />
</g>
<g id="a5_0018"  >
<polygon points="307,90 311,90 316,85 311,80 307,80 307,90 " style="fill:white; stroke-width:1; stroke:black; " description="&lt;b&gt;BLR69_RS03240&lt;/b&gt;&lt;br&gt;pyoverdine-tailoring dipeptidase-like protein PvdM&lt;br&gt;Location: 730119 - 728770" locus_tag="BLR69_RS03240" class="clusterblast-orf" id="dummy-5_h5_3_18"  />
</g>
<g id="a5_0019"  >
<polygon points="316,90 320,90 325,85 320,80 316,80 316,90 " style="fill:white; stroke-width:1; stroke:black; " description="&lt;b&gt;BLR69_RS03235&lt;/b&gt;&lt;br&gt;aminotransferase class V-fold PLP-dependent enzyme&lt;br&gt;Location: 728751 - 727480" locus_tag="BLR69_RS03235" class="clusterblast-orf" id="dummy-5_h5_3_19"  />
</g>
<g id="a5_0020"  >
<polygon points="325,90 326,90 331,85 326,80 325,80 325,90 " style="fill:white; stroke-width:1; stroke:black; " description="&lt;b&gt;BLR69_RS03230&lt;/b&gt;&lt;br&gt;formylglycine-generating enzyme family protein&lt;br&gt;Location: 727444 - 726584" locus_tag="BLR69_RS03230" class="clusterblast-orf" id="dummy-5_h5_3_20"  />
</g>
<g id="a5_0021"  >
<polygon points="336,85 341,80 342,80 342,90 341,90 336,85 " style="fill:white; stroke-width:1; stroke:black; " description="&lt;b&gt;BLR69_RS03225&lt;/b&gt;&lt;br&gt;N(5)-hydroxyornithine transformylase PvdF&lt;br&gt;Location: 725764 - 724934" locus_tag="BLR69_RS03225" class="clusterblast-orf" id="dummy-5_h5_3_21"  />
</g>
<g id="a5_0022"  >
<polygon points="343,90 349,90 354,85 349,80 343,80 343,90 " style="fill:white; stroke-width:1; stroke:black; " description="&lt;b&gt;BLR69_RS03220&lt;/b&gt;&lt;br&gt;cyclic peptide export ABC transporter&lt;br&gt;Location: 724732 - 723080" locus_tag="BLR69_RS03220" class="clusterblast-orf" id="dummy-5_h5_3_22"  />
</g>
<g id="a5_0023"  >
<polygon points="355,90 366,90 371,85 366,80 355,80 355,90 " style="fill:white; stroke-width:1; stroke:black; " description="&lt;b&gt;BLR69_RS03215&lt;/b&gt;&lt;br&gt;TonB-dependent siderophore receptor&lt;br&gt;Location: 722971 - 720539" locus_tag="BLR69_RS03215" class="clusterblast-orf" id="dummy-5_h5_3_23"  />
</g>
<g id="a5_0024"  >
<polygon points="372,85 377,80 400,80 400,90 377,90 372,85 " style="fill:white; stroke-width:1; stroke:black; " description="&lt;b&gt;BLR69_RS03210&lt;/b&gt;&lt;br&gt;amino acid adenylation domain-containing protein&lt;br&gt;Location: 720418 - 716300" locus_tag="BLR69_RS03210" class="clusterblast-orf" id="dummy-5_h5_3_24"  />
</g>
<g id="a5_0025"  >
<polygon points="400,85 405,80 494,80 494,90 405,90 400,85 " style="fill:white; stroke-width:1; stroke:black; " description="&lt;b&gt;BLR69_RS03205&lt;/b&gt;&lt;br&gt;non-ribosomal peptide synthetase&lt;br&gt;Location: 716300 - 702213" locus_tag="BLR69_RS03205" class="clusterblast-orf" id="dummy-5_h5_3_25"  />
</g>
<g id="a5_0026"  >
<polygon points="495,85 500,80 546,80 546,90 500,90 495,85 " style="fill:white; stroke-width:1; stroke:black; " description="&lt;b&gt;BLR69_RS03200&lt;/b&gt;&lt;br&gt;amino acid adenylation domain-containing protein&lt;br&gt;Location: 702022 - 694358" locus_tag="BLR69_RS03200" class="clusterblast-orf" id="dummy-5_h5_3_26"  />
</g>
<g id="a5_0027"  >
<polygon points="546,85 551,80 640,80 640,90 551,90 546,85 " style="fill:white; stroke-width:1; stroke:black; " description="&lt;b&gt;BLR69_RS03195&lt;/b&gt;&lt;br&gt;non-ribosomal peptide synthase/polyketide synthase&lt;br&gt;Location: 694354 - 680318" locus_tag="BLR69_RS03195" class="clusterblast-orf" id="dummy-5_h5_3_27"  />
</g>
<g id="a5_0028"  >
<polygon points="641,90 643,85 641,80 641,90 " style="fill:white; stroke-width:1; stroke:black; " description="&lt;b&gt;BLR69_RS03190&lt;/b&gt;&lt;br&gt;type II toxin-antitoxin system HicA family toxin&lt;br&gt;Location: 680108 - 679857" locus_tag="BLR69_RS03190" class="clusterblast-orf" id="dummy-5_h5_3_28"  />
</g>
<g id="a5_0029"  >
<polygon points="643,90 645,85 643,80 643,90 " style="fill:white; stroke-width:1; stroke:black; " description="&lt;b&gt;BLR69_RS03185&lt;/b&gt;&lt;br&gt;type II toxin-antitoxin system HicB family antitoxin&lt;br&gt;Location: 679860 - 679495" locus_tag="BLR69_RS03185" class="clusterblast-orf" id="dummy-5_h5_3_29"  />
</g>
<g id="a5_0030"  >
<polygon points="645,85 650,80 653,80 653,90 650,90 645,85 " style="fill:white; stroke-width:1; stroke:black; " description="&lt;b&gt;BLR69_RS03180&lt;/b&gt;&lt;br&gt;MFS transporter&lt;br&gt;Location: 679494 - 678322" locus_tag="BLR69_RS03180" class="clusterblast-orf" id="dummy-5_h5_3_30"  />
</g>
<g id="a5_0031"  >
<polygon points="654,90 658,85 654,80 654,90 " style="fill:white; stroke-width:1; stroke:black; " description="&lt;b&gt;BLR69_RS03175&lt;/b&gt;&lt;br&gt;TetR/AcrR family transcriptional regulator&lt;br&gt;Location: 678179 - 677592" locus_tag="BLR69_RS03175" class="clusterblast-orf" id="dummy-5_h5_3_31"  />
</g>
<g id="a5_0032"  >
<polygon points="658,85 663,80 667,80 667,90 663,90 658,85 " style="fill:white; stroke-width:1; stroke:black; " description="&lt;b&gt;BLR69_RS03170&lt;/b&gt;&lt;br&gt;MATE family efflux transporter&lt;br&gt;Location: 677608 - 676253" locus_tag="BLR69_RS03170" class="clusterblast-orf" id="dummy-5_h5_3_32"  />
</g>
<g id="a5_0033"  >
<polygon points="667,85 671,80 671,90 667,85 " style="fill:white; stroke-width:1; stroke:black; " description="&lt;b&gt;BLR69_RS03165&lt;/b&gt;&lt;br&gt;DUF2239 family protein&lt;br&gt;Location: 676228 - 675656" locus_tag="BLR69_RS03165" class="clusterblast-orf" id="dummy-5_h5_3_33"  />
</g>
<g id="a5_0034"  >
<polygon points="671,85 676,80 676,80 676,90 676,90 671,85 " style="fill:white; stroke-width:1; stroke:black; " description="&lt;b&gt;BLR69_RS03160&lt;/b&gt;&lt;br&gt;GntR family transcriptional regulator&lt;br&gt;Location: 675574 - 674834" locus_tag="BLR69_RS03160" class="clusterblast-orf" id="dummy-5_h5_3_34"  />
</g>
<g id="a5_0035"  >
<polygon points="677,90 681,90 686,85 681,80 677,80 677,90 " style="fill:white; stroke-width:1; stroke:black; " description="&lt;b&gt;BLR69_RS03155&lt;/b&gt;&lt;br&gt;adenylosuccinate lyase family protein&lt;br&gt;Location: 674729 - 673374" locus_tag="BLR69_RS03155" class="clusterblast-orf" id="dummy-5_h5_3_35"  />
</g>
<g id="a5_0036"  >
<polygon points="687,90 691,90 696,85 691,80 687,80 687,90 " style="fill:white; stroke-width:1; stroke:black; " description="&lt;b&gt;BLR69_RS03150&lt;/b&gt;&lt;br&gt;cation:dicarboxylase symporter family transporter&lt;br&gt;Location: 673209 - 671905" locus_tag="BLR69_RS03150" class="clusterblast-orf" id="dummy-5_h5_3_36"  />
</g>
<g id="a5_0037"  >
<polygon points="696,90 700,90 705,85 700,80 696,80 696,90 " style="fill:white; stroke-width:1; stroke:black; " description="&lt;b&gt;BLR69_RS03145&lt;/b&gt;&lt;br&gt;class II fumarate hydratase&lt;br&gt;Location: 671893 - 670487" locus_tag="BLR69_RS03145" class="clusterblast-orf" id="dummy-5_h5_3_37"  />
</g>
<g id="a5_0038"  >
<polygon points="706,85 711,80 711,80 711,90 711,90 706,85 " style="fill:#d81515; stroke-width:1; stroke:black; " description="&lt;b&gt;BLR69_RS03140&lt;/b&gt;&lt;br&gt;IclR family transcriptional regulator&lt;br&gt;Location: 670425 - 669595&lt;br&gt;&lt;br&gt;&lt;b&gt;BlastP hit with MFKKBJ_13420&lt;/b&gt;&lt;br&gt;Percentage identity: 95&lt;br&gt;Percentage coverage: 101&lt;br&gt;BLAST bit score: 503&lt;br&gt;E-value: 6.24e-181" locus_tag="BLR69_RS03140" class="clusterblast-orf" id="dummy-5_h5_3_38"  />
</g>
<g id="a5_0039"  >
<polygon points="713,90 715,90 720,85 715,80 713,80 713,90 " style="fill:#77d815; stroke-width:1; stroke:black; " description="&lt;b&gt;BLR69_RS03135&lt;/b&gt;&lt;br&gt;ABC transporter ATP-binding protein&lt;br&gt;Location: 669352 - 668324&lt;br&gt;&lt;br&gt;&lt;b&gt;BlastP hit with MFKKBJ_13425&lt;/b&gt;&lt;br&gt;Percentage identity: 93&lt;br&gt;Percentage coverage: 100&lt;br&gt;BLAST bit score: 622&lt;br&gt;E-value: 9.66e-226" locus_tag="BLR69_RS03135" class="clusterblast-orf" id="dummy-5_h5_3_39"  />
</g>
<g id="a5_0040"  >
<polygon points="720,90 720,90 725,85 720,80 720,80 720,90 " style="fill:#15d8d8; stroke-width:1; stroke:black; " description="&lt;b&gt;BLR69_RS03130&lt;/b&gt;&lt;br&gt;ABC transporter permease&lt;br&gt;Location: 668327 - 667482&lt;br&gt;&lt;br&gt;&lt;b&gt;BlastP hit with MFKKBJ_13430&lt;/b&gt;&lt;br&gt;Percentage identity: 99&lt;br&gt;Percentage coverage: 100&lt;br&gt;BLAST bit score: 518&lt;br&gt;E-value: 1.74e-186" locus_tag="BLR69_RS03130" class="clusterblast-orf" id="dummy-5_h5_3_40"  />
</g>
<g id="a5_0041"  >
<polygon points="725,90 726,90 731,85 726,80 725,80 725,90 " style="fill:#7715d8; stroke-width:1; stroke:black; " description="&lt;b&gt;BLR69_RS03125&lt;/b&gt;&lt;br&gt;ABC transporter permease&lt;br&gt;Location: 667477 - 666683&lt;br&gt;&lt;br&gt;&lt;b&gt;BlastP hit with MFKKBJ_13435&lt;/b&gt;&lt;br&gt;Percentage identity: 99&lt;br&gt;Percentage coverage: 100&lt;br&gt;BLAST bit score: 476&lt;br&gt;E-value: 2.74e-170" locus_tag="BLR69_RS03125" class="clusterblast-orf" id="dummy-5_h5_3_41"  />
</g>
<g id="a5_0042"  >
<polygon points="731,90 733,85 731,80 731,90 " style="fill:#d87715; stroke-width:1; stroke:black; " description="&lt;b&gt;BLR69_RS03120&lt;/b&gt;&lt;br&gt;(2Fe-2S)-binding protein&lt;br&gt;Location: 666683 - 666393&lt;br&gt;&lt;br&gt;&lt;b&gt;BlastP hit with MFKKBJ_13440&lt;/b&gt;&lt;br&gt;Percentage identity: 91&lt;br&gt;Percentage coverage: 99&lt;br&gt;BLAST bit score: 180&lt;br&gt;E-value: 1.1e-58" locus_tag="BLR69_RS03120" class="clusterblast-orf" id="dummy-5_h5_3_42"  />
</g>
<g id="a5_0043"  >
<polygon points="733,90 737,90 742,85 737,80 733,80 733,90 " style="fill:#15d815; stroke-width:1; stroke:black; " description="&lt;b&gt;BLR69_RS03115&lt;/b&gt;&lt;br&gt;FAD/NAD(P)-binding oxidoreductase&lt;br&gt;Location: 666396 - 665053&lt;br&gt;&lt;br&gt;&lt;b&gt;BlastP hit with MFKKBJ_13445&lt;/b&gt;&lt;br&gt;Percentage identity: 88&lt;br&gt;Percentage coverage: 100&lt;br&gt;BLAST bit score: 805&lt;br&gt;E-value: 1.97e-294" locus_tag="BLR69_RS03115" class="clusterblast-orf" id="dummy-5_h5_3_43"  />
</g>
<g id="a5_0044"  >
<polygon points="742,90 744,90 749,85 744,80 742,80 742,90 " style="fill:#1577d8; stroke-width:1; stroke:black; " description="&lt;b&gt;BLR69_RS03110&lt;/b&gt;&lt;br&gt;FAD-dependent oxidoreductase&lt;br&gt;Location: 665056 - 663959&lt;br&gt;&lt;br&gt;&lt;b&gt;BlastP hit with MFKKBJ_13450&lt;/b&gt;&lt;br&gt;Percentage identity: 93&lt;br&gt;Percentage coverage: 100&lt;br&gt;BLAST bit score: 682&lt;br&gt;E-value: 9.68e-249" locus_tag="BLR69_RS03110" class="clusterblast-orf" id="dummy-5_h5_3_44"  />
</g>
<g id="a5_0045"  >
<polygon points="749,90 751,90 756,85 751,80 749,80 749,90 " style="fill:#d815d8; stroke-width:1; stroke:black; " description="&lt;b&gt;BLR69_RS03105&lt;/b&gt;&lt;br&gt;ABC transporter substrate-binding protein&lt;br&gt;Location: 663944 - 662913&lt;br&gt;&lt;br&gt;&lt;b&gt;BlastP hit with MFKKBJ_13455&lt;/b&gt;&lt;br&gt;Percentage identity: 97&lt;br&gt;Percentage coverage: 100&lt;br&gt;BLAST bit score: 651&lt;br&gt;E-value: 5.51e-237" locus_tag="BLR69_RS03105" class="clusterblast-orf" id="dummy-5_h5_3_45"  />
</g>
<g id="a5_0046"  >
<polygon points="756,85 761,80 761,80 761,90 761,90 756,85 " style="fill:#d8d815; stroke-width:1; stroke:black; " description="&lt;b&gt;BLR69_RS03100&lt;/b&gt;&lt;br&gt;ammonia-dependent NAD(+) synthetase&lt;br&gt;Location: 662911 - 662102&lt;br&gt;&lt;br&gt;&lt;b&gt;BlastP hit with MFKKBJ_13460&lt;/b&gt;&lt;br&gt;Percentage identity: 90&lt;br&gt;Percentage coverage: 100&lt;br&gt;BLAST bit score: 468&lt;br&gt;E-value: 6.37e-167" locus_tag="BLR69_RS03100" class="clusterblast-orf" id="dummy-5_h5_3_46"  />
</g>
<g id="a5_0047"  >
<polygon points="761,85 766,80 769,80 769,90 766,90 761,85 " style="fill:#15d877; stroke-width:1; stroke:black; " description="&lt;b&gt;BLR69_RS03095&lt;/b&gt;&lt;br&gt;nicotinate phosphoribosyltransferase&lt;br&gt;Location: 662100 - 660883&lt;br&gt;&lt;br&gt;&lt;b&gt;BlastP hit with MFKKBJ_13465&lt;/b&gt;&lt;br&gt;Percentage identity: 94&lt;br&gt;Percentage coverage: 100&lt;br&gt;BLAST bit score: 783&lt;br&gt;E-value: 2.56e-287" locus_tag="BLR69_RS03095" class="clusterblast-orf" id="dummy-5_h5_3_47"  />
</g>
<g id="a5_0048"  >
<polygon points="770,85 774,80 774,90 770,85 " style="fill:#1515d8; stroke-width:1; stroke:black; " description="&lt;b&gt;BLR69_RS03090&lt;/b&gt;&lt;br&gt;nicotinamidase&lt;br&gt;Location: 660871 - 660224&lt;br&gt;&lt;br&gt;&lt;b&gt;BlastP hit with MFKKBJ_13470&lt;/b&gt;&lt;br&gt;Percentage identity: 91&lt;br&gt;Percentage coverage: 100&lt;br&gt;BLAST bit score: 409&lt;br&gt;E-value: 2.14e-145" locus_tag="BLR69_RS03090" class="clusterblast-orf" id="dummy-5_h5_3_48"  />
</g>
<g id="a5_0049"  >
<polygon points="775,90 775,90 780,85 775,80 775,80 775,90 " style="fill:#d81577; stroke-width:1; stroke:black; " description="&lt;b&gt;BLR69_RS03085&lt;/b&gt;&lt;br&gt;NUDIX hydrolase&lt;br&gt;Location: 660077 - 659385&lt;br&gt;&lt;br&gt;&lt;b&gt;BlastP hit with MFKKBJ_13475&lt;/b&gt;&lt;br&gt;Percentage identity: 86&lt;br&gt;Percentage coverage: 96&lt;br&gt;BLAST bit score: 270&lt;br&gt;E-value: 2.52e-91&lt;br&gt;&lt;br&gt;&lt;b&gt;BlastP hit with MFKKBJ_13480&lt;/b&gt;&lt;br&gt;Percentage identity: 94&lt;br&gt;Percentage coverage: 100&lt;br&gt;BLAST bit score: 146&lt;br&gt;E-value: 7.21e-44" locus_tag="BLR69_RS03085" class="clusterblast-orf" id="dummy-5_h5_3_49"  />
</g>
</svg>
