<svg xmlns="http://www.w3.org/2000/svg" xmlns:xlink="http://www.w3.org/1999/xlink" version="1.1" x="0" y="0" height="230" width="800" viewBox="0 0 800 230" preserveAspectRatio="none"  >
<g label="Query sequence" class="clusterblast-cluster"  >
<text x="5" y="20" class="clusterblast-acc"  >
Query sequence</text>
<line x1="10" y1="35" x2="778.0" y2="35" style="stroke-width:1; stroke:grey; "  />
<polygon points="2,35 7,30 59,30 59,40 7,40 2,35 " style="fill:#d81515; stroke-width:1; stroke:black; " description="&lt;b&gt;MFKKBJ_13420&lt;/b&gt;&lt;br&gt;IclR family transcriptional regulator&lt;br&gt;Location: 2932067 - 2932886" locus_tag="MFKKBJ_13420" class="clusterblast-orf" id="dummy-5_q0_0_all"  />
<polygon points="76,40 144,40 149,35 144,30 76,30 76,40 " style="fill:#77d815; stroke-width:1; stroke:black; " description="&lt;b&gt;MFKKBJ_13425&lt;/b&gt;&lt;br&gt;Iron(III) transport system ATP-binding&lt;br&gt;Location: 2933126 - 2934155" locus_tag="MFKKBJ_13425" class="clusterblast-orf" id="dummy-5_q1_0_all"  />
<polygon points="148,40 203,40 208,35 203,30 148,30 148,40 " style="fill:#15d8d8; stroke-width:1; stroke:black; " description="&lt;b&gt;MFKKBJ_13430&lt;/b&gt;&lt;br&gt;ABC transmembrane type-1 domain-containing protein&lt;br&gt;Location: 2934151 - 2934997" locus_tag="MFKKBJ_13430" class="clusterblast-orf" id="dummy-5_q2_0_all"  />
<polygon points="208,40 259,40 264,35 259,30 208,30 208,40 " style="fill:#7715d8; stroke-width:1; stroke:black; " description="&lt;b&gt;MFKKBJ_13435&lt;/b&gt;&lt;br&gt;ABC-type spermidine/putrescine transport system, permease component II&lt;br&gt;Location: 2935001 - 2935796" locus_tag="MFKKBJ_13435" class="clusterblast-orf" id="dummy-5_q3_0_all"  />
<polygon points="264,40 280,40 285,35 280,30 264,30 264,40 " style="fill:#d87715; stroke-width:1; stroke:black; " description="&lt;b&gt;MFKKBJ_13440&lt;/b&gt;&lt;br&gt;Ferredoxin&lt;br&gt;Location: 2935795 - 2936086" locus_tag="MFKKBJ_13440" class="clusterblast-orf" id="dummy-5_q4_0_all"  />
<polygon points="285,40 374,40 379,35 374,30 285,30 285,40 " style="fill:#15d815; stroke-width:1; stroke:black; " description="&lt;b&gt;MFKKBJ_13445&lt;/b&gt;&lt;br&gt;FAD/NAD(P)-binding oxidoreductase&lt;br&gt;Location: 2936082 - 2937426" locus_tag="MFKKBJ_13445" class="clusterblast-orf" id="dummy-5_q5_0_all"  />
<polygon points="379,40 451,40 456,35 451,30 379,30 379,40 " style="fill:#1577d8; stroke-width:1; stroke:black; " description="&lt;b&gt;MFKKBJ_13450&lt;/b&gt;&lt;br&gt;FAD dependent oxidoreductase domain-containing protein&lt;br&gt;Location: 2937422 - 2938520" locus_tag="MFKKBJ_13450" class="clusterblast-orf" id="dummy-5_q6_0_all"  />
<polygon points="457,40 525,40 530,35 525,30 457,30 457,40 " style="fill:#d815d8; stroke-width:1; stroke:black; " description="&lt;b&gt;MFKKBJ_13455&lt;/b&gt;&lt;br&gt;ABC transporter substrate-binding protein&lt;br&gt;Location: 2938534 - 2939566" locus_tag="MFKKBJ_13455" class="clusterblast-orf" id="dummy-5_q7_0_all"  />
<polygon points="530,35 535,30 587,30 587,40 535,40 530,35 " style="fill:#d8d815; stroke-width:1; stroke:black; " description="&lt;b&gt;MFKKBJ_13460&lt;/b&gt;&lt;br&gt;ammonia-dependent NAD(+) synthetase&lt;br&gt;Location: 2939566 - 2940376" locus_tag="MFKKBJ_13460" class="clusterblast-orf" id="dummy-5_q8_0_all"  />
<polygon points="587,35 592,30 673,30 673,40 592,40 587,35 " style="fill:#15d877; stroke-width:1; stroke:black; " description="&lt;b&gt;MFKKBJ_13465&lt;/b&gt;&lt;br&gt;nicotinate phosphoribosyltransferase&lt;br&gt;Location: 2940377 - 2941595" locus_tag="MFKKBJ_13465" class="clusterblast-orf" id="dummy-5_q9_0_all"  />
<polygon points="674,35 679,30 720,30 720,40 679,40 674,35 " style="fill:#1515d8; stroke-width:1; stroke:black; " description="&lt;b&gt;MFKKBJ_13470&lt;/b&gt;&lt;br&gt;Isochorismatase&lt;br&gt;Location: 2941606 - 2942254" locus_tag="MFKKBJ_13470" class="clusterblast-orf" id="dummy-5_q10_0_all"  />
<polygon points="730,40 758,40 763,35 758,30 730,30 730,40 " style="fill:#d81577; stroke-width:1; stroke:black; " description="&lt;b&gt;MFKKBJ_13475&lt;/b&gt;&lt;br&gt;NUDIX hydrolase&lt;br&gt;Location: 2942400 - 2942877" locus_tag="MFKKBJ_13475" class="clusterblast-orf" id="dummy-5_q11_0_all"  />
<polygon points="762,40 774,40 779,35 774,30 762,30 762,40 " style="fill:#d81577; stroke-width:1; stroke:black; " description="&lt;b&gt;MFKKBJ_13480&lt;/b&gt;&lt;br&gt;hypothetical protein&lt;br&gt;Location: 2942860 - 2943094" locus_tag="MFKKBJ_13480" class="clusterblast-orf" id="dummy-5_q12_0_all"  />
</g>
<g label="NZ_JALJRR010000020" description="NZ_JALJRR010000020 (70585-83310): Pseudomonas sp. Pse79 NODE 20 length 116346... (100% of genes show similarity), hydrogen-cyanide" class="clusterblast-cluster"  >
<text x="5" y="70" class="clusterblast-acc"  >
<a xlink:href="https://antismash-db.secondarymetabolites.org/area?record=NZ_JALJRR010000020&amp;start=70585&amp;end=83310" target="_blank">NZ_JALJRR010000020 (70585-83310)</a>: Pseudomonas sp. Pse79 NODE 20 length 116346... (100% of genes show similarity), hydrogen-cyanide</text>
<line x1="10" y1="85" x2="778.0" y2="85" style="stroke-width:1; stroke:grey; "  />
</g>
<g id="a5_000"  >
<polygon points="0,85 5,80 58,80 58,90 5,90 0,85 " style="fill:#d81515; stroke-width:1; stroke:black; " description="&lt;b&gt;NR164_RS22655&lt;/b&gt;&lt;br&gt;IclR family transcriptional regulator&lt;br&gt;Location: 82053 - 81223&lt;br&gt;&lt;br&gt;&lt;b&gt;BlastP hit with MFKKBJ_13420&lt;/b&gt;&lt;br&gt;Percentage identity: 95&lt;br&gt;Percentage coverage: 101&lt;br&gt;BLAST bit score: 503&lt;br&gt;E-value: 1.26e-180" locus_tag="NR164_RS22655" class="clusterblast-orf" id="dummy-5_h5_9_0"  />
</g>
<g id="a5_001"  >
<polygon points="75,90 143,90 148,85 143,80 75,80 75,90 " style="fill:#77d815; stroke-width:1; stroke:black; " description="&lt;b&gt;NR164_RS22650&lt;/b&gt;&lt;br&gt;ABC transporter ATP-binding protein&lt;br&gt;Location: 80979 - 79951&lt;br&gt;&lt;br&gt;&lt;b&gt;BlastP hit with MFKKBJ_13425&lt;/b&gt;&lt;br&gt;Percentage identity: 92&lt;br&gt;Percentage coverage: 99&lt;br&gt;BLAST bit score: 610&lt;br&gt;E-value: 5.11e-221" locus_tag="NR164_RS22650" class="clusterblast-orf" id="dummy-5_h5_9_1"  />
</g>
<g id="a5_002"  >
<polygon points="147,90 202,90 207,85 202,80 147,80 147,90 " style="fill:#15d8d8; stroke-width:1; stroke:black; " description="&lt;b&gt;NR164_RS22645&lt;/b&gt;&lt;br&gt;ABC transporter permease&lt;br&gt;Location: 79954 - 79109&lt;br&gt;&lt;br&gt;&lt;b&gt;BlastP hit with MFKKBJ_13430&lt;/b&gt;&lt;br&gt;Percentage identity: 98&lt;br&gt;Percentage coverage: 100&lt;br&gt;BLAST bit score: 514&lt;br&gt;E-value: 8.26e-185" locus_tag="NR164_RS22645" class="clusterblast-orf" id="dummy-5_h5_9_2"  />
</g>
<g id="a5_003"  >
<polygon points="207,90 258,90 263,85 258,80 207,80 207,90 " style="fill:#7715d8; stroke-width:1; stroke:black; " description="&lt;b&gt;NR164_RS22640&lt;/b&gt;&lt;br&gt;ABC transporter permease&lt;br&gt;Location: 79104 - 78310&lt;br&gt;&lt;br&gt;&lt;b&gt;BlastP hit with MFKKBJ_13435&lt;/b&gt;&lt;br&gt;Percentage identity: 97&lt;br&gt;Percentage coverage: 100&lt;br&gt;BLAST bit score: 470&lt;br&gt;E-value: 3.73e-168" locus_tag="NR164_RS22640" class="clusterblast-orf" id="dummy-5_h5_9_3"  />
</g>
<g id="a5_004"  >
<polygon points="263,90 279,90 284,85 279,80 263,80 263,90 " style="fill:#d87715; stroke-width:1; stroke:black; " description="&lt;b&gt;NR164_RS22635&lt;/b&gt;&lt;br&gt;(2Fe-2S)-binding protein&lt;br&gt;Location: 78310 - 78020&lt;br&gt;&lt;br&gt;&lt;b&gt;BlastP hit with MFKKBJ_13440&lt;/b&gt;&lt;br&gt;Percentage identity: 95&lt;br&gt;Percentage coverage: 99&lt;br&gt;BLAST bit score: 186&lt;br&gt;E-value: 3.97e-61" locus_tag="NR164_RS22635" class="clusterblast-orf" id="dummy-5_h5_9_4"  />
</g>
<g id="a5_005"  >
<polygon points="284,90 373,90 378,85 373,80 284,80 284,90 " style="fill:#15d815; stroke-width:1; stroke:black; " description="&lt;b&gt;NR164_RS22630&lt;/b&gt;&lt;br&gt;NAD(P)/FAD-dependent oxidoreductase&lt;br&gt;Location: 78023 - 76680&lt;br&gt;&lt;br&gt;&lt;b&gt;BlastP hit with MFKKBJ_13445&lt;/b&gt;&lt;br&gt;Percentage identity: 87&lt;br&gt;Percentage coverage: 100&lt;br&gt;BLAST bit score: 792&lt;br&gt;E-value: 2.99e-289" locus_tag="NR164_RS22630" class="clusterblast-orf" id="dummy-5_h5_9_5"  />
</g>
<g id="a5_006"  >
<polygon points="378,90 450,90 455,85 450,80 378,80 378,90 " style="fill:#1577d8; stroke-width:1; stroke:black; " description="&lt;b&gt;NR164_RS22625&lt;/b&gt;&lt;br&gt;FAD-binding oxidoreductase&lt;br&gt;Location: 76683 - 75586&lt;br&gt;&lt;br&gt;&lt;b&gt;BlastP hit with MFKKBJ_13450&lt;/b&gt;&lt;br&gt;Percentage identity: 93&lt;br&gt;Percentage coverage: 100&lt;br&gt;BLAST bit score: 680&lt;br&gt;E-value: 7.94e-248" locus_tag="NR164_RS22625" class="clusterblast-orf" id="dummy-5_h5_9_6"  />
</g>
<g id="a5_007"  >
<polygon points="456,90 524,90 529,85 524,80 456,80 456,90 " style="fill:#d815d8; stroke-width:1; stroke:black; " description="&lt;b&gt;NR164_RS22620&lt;/b&gt;&lt;br&gt;ABC transporter substrate-binding protein&lt;br&gt;Location: 75571 - 74540&lt;br&gt;&lt;br&gt;&lt;b&gt;BlastP hit with MFKKBJ_13455&lt;/b&gt;&lt;br&gt;Percentage identity: 96&lt;br&gt;Percentage coverage: 100&lt;br&gt;BLAST bit score: 649&lt;br&gt;E-value: 4.52e-236" locus_tag="NR164_RS22620" class="clusterblast-orf" id="dummy-5_h5_9_7"  />
</g>
<g id="a5_008"  >
<polygon points="531,85 536,80 588,80 588,90 536,90 531,85 " style="fill:#d8d815; stroke-width:1; stroke:black; " description="&lt;b&gt;NR164_RS22615&lt;/b&gt;&lt;br&gt;ammonia-dependent NAD(+) synthetase&lt;br&gt;Location: 74516 - 73701&lt;br&gt;&lt;br&gt;&lt;b&gt;BlastP hit with MFKKBJ_13460&lt;/b&gt;&lt;br&gt;Percentage identity: 89&lt;br&gt;Percentage coverage: 99&lt;br&gt;BLAST bit score: 455&lt;br&gt;E-value: 5.14e-162" locus_tag="NR164_RS22615" class="clusterblast-orf" id="dummy-5_h5_9_8"  />
</g>
<g id="a5_009"  >
<polygon points="588,85 593,80 674,80 674,90 593,90 588,85 " style="fill:#15d877; stroke-width:1; stroke:black; " description="&lt;b&gt;NR164_RS22610&lt;/b&gt;&lt;br&gt;nicotinate phosphoribosyltransferase&lt;br&gt;Location: 73699 - 72482&lt;br&gt;&lt;br&gt;&lt;b&gt;BlastP hit with MFKKBJ_13465&lt;/b&gt;&lt;br&gt;Percentage identity: 95&lt;br&gt;Percentage coverage: 100&lt;br&gt;BLAST bit score: 790&lt;br&gt;E-value: 6.56e-290" locus_tag="NR164_RS22610" class="clusterblast-orf" id="dummy-5_h5_9_9"  />
</g>
<g id="a5_0010"  >
<polygon points="675,85 680,80 720,80 720,90 680,90 675,85 " style="fill:#1515d8; stroke-width:1; stroke:black; " description="&lt;b&gt;NR164_RS22605&lt;/b&gt;&lt;br&gt;nicotinamidase&lt;br&gt;Location: 72470 - 71823&lt;br&gt;&lt;br&gt;&lt;b&gt;BlastP hit with MFKKBJ_13470&lt;/b&gt;&lt;br&gt;Percentage identity: 90&lt;br&gt;Percentage coverage: 100&lt;br&gt;BLAST bit score: 398&lt;br&gt;E-value: 2.8e-141" locus_tag="NR164_RS22605" class="clusterblast-orf" id="dummy-5_h5_9_10"  />
</g>
<g id="a5_0011"  >
<polygon points="731,90 775,90 780,85 775,80 731,80 731,90 " style="fill:#d81577; stroke-width:1; stroke:black; " description="&lt;b&gt;NR164_RS22600&lt;/b&gt;&lt;br&gt;NUDIX hydrolase&lt;br&gt;Location: 71677 - 70985&lt;br&gt;&lt;br&gt;&lt;b&gt;BlastP hit with MFKKBJ_13475&lt;/b&gt;&lt;br&gt;Percentage identity: 90&lt;br&gt;Percentage coverage: 96&lt;br&gt;BLAST bit score: 281&lt;br&gt;E-value: 6.85e-96&lt;br&gt;&lt;br&gt;&lt;b&gt;BlastP hit with MFKKBJ_13480&lt;/b&gt;&lt;br&gt;Percentage identity: 90&lt;br&gt;Percentage coverage: 100&lt;br&gt;BLAST bit score: 140&lt;br&gt;E-value: 9.42e-42" locus_tag="NR164_RS22600" class="clusterblast-orf" id="dummy-5_h5_9_11"  />
</g>
</svg>
