<svg xmlns="http://www.w3.org/2000/svg" xmlns:xlink="http://www.w3.org/1999/xlink" version="1.1" x="0" y="0" height="230" width="800" viewBox="0 0 800 230" preserveAspectRatio="none"  >
<g label="Query sequence" class="clusterblast-cluster"  >
<text x="5" y="20" class="clusterblast-acc"  >
Query sequence</text>
<line x1="10" y1="35" x2="778.0" y2="35" style="stroke-width:1; stroke:grey; "  />
<polygon points="0,40 24,40 29,35 24,30 0,30 0,40 " style="fill:#d81515; stroke-width:1; stroke:black; " description="&lt;b&gt;MFKKBJ_23855&lt;/b&gt;&lt;br&gt;YdiU family protein&lt;br&gt;Location: 5154908 - 5156372" locus_tag="MFKKBJ_23855" class="clusterblast-orf" id="dummy-8_q0_0_all"  />
<polygon points="29,35 34,30 37,30 37,40 34,40 29,35 " style="fill:#6fd815; stroke-width:1; stroke:black; " description="&lt;b&gt;MFKKBJ_23860&lt;/b&gt;&lt;br&gt;Antitoxin HigA&lt;br&gt;Location: 5156390 - 5156792" locus_tag="MFKKBJ_23860" class="clusterblast-orf" id="dummy-8_q1_0_all"  />
<polygon points="37,35 42,30 43,30 43,40 42,40 37,35 " style="fill:#15c9d8; stroke-width:1; stroke:black; " description="&lt;b&gt;MFKKBJ_23865&lt;/b&gt;&lt;br&gt;mRNA interferase toxin HigB&lt;br&gt;Location: 5156799 - 5157087" locus_tag="MFKKBJ_23865" class="clusterblast-orf" id="dummy-8_q2_0_all"  />
<polygon points="47,40 51,40 56,35 51,30 47,30 47,40 " style="fill:#8d15d8; stroke-width:1; stroke:black; " description="&lt;b&gt;MFKKBJ_23870&lt;/b&gt;&lt;br&gt;thioredoxin TrxC&lt;br&gt;Location: 5157321 - 5157756" locus_tag="MFKKBJ_23870" class="clusterblast-orf" id="dummy-8_q3_0_all"  />
<polygon points="58,35 63,30 63,30 63,40 63,40 58,35 " style="fill:#d83315; stroke-width:1; stroke:black; " description="&lt;b&gt;MFKKBJ_23875&lt;/b&gt;&lt;br&gt;DUF3077 domain-containing protein&lt;br&gt;Location: 5157884 - 5158118" locus_tag="MFKKBJ_23875" class="clusterblast-orf" id="dummy-8_q4_0_all"  />
<polygon points="70,35 75,30 86,30 86,40 75,40 70,35 " style="fill:#51d815; stroke-width:1; stroke:black; " description="&lt;b&gt;MFKKBJ_23885&lt;/b&gt;&lt;br&gt;ParA-like ATPase involved in chromosome/plasmid partitioning or cellulose biosynthesis protein BcsQ&lt;br&gt;Location: 5158495 - 5159266" locus_tag="MFKKBJ_23885" class="clusterblast-orf" id="dummy-8_q5_0_all"  />
<polygon points="92,40 101,40 106,35 101,30 92,30 92,40 " style="fill:#15abd8; stroke-width:1; stroke:black; " description="&lt;b&gt;MFKKBJ_23890&lt;/b&gt;&lt;br&gt;Beta-ketoacyl synthase N-terminal domain-containing protein&lt;br&gt;Location: 5159593 - 5160313" locus_tag="MFKKBJ_23890" class="clusterblast-orf" id="dummy-8_q6_0_all"  />
<polygon points="106,40 117,40 122,35 117,30 106,30 106,40 " style="fill:#ab15d8; stroke-width:1; stroke:black; " description="&lt;b&gt;MFKKBJ_23895&lt;/b&gt;&lt;br&gt;Phospholipid/glycerol acyltransferase domain-containing protein&lt;br&gt;Location: 5160288 - 5161101" locus_tag="MFKKBJ_23895" class="clusterblast-orf" id="dummy-8_q7_0_all"  />
<polygon points="121,40 122,40 127,35 122,30 121,30 121,40 " style="fill:#d85115; stroke-width:1; stroke:black; " description="&lt;b&gt;MFKKBJ_23900&lt;/b&gt;&lt;br&gt;Acyl carrier protein&lt;br&gt;Location: 5161078 - 5161348" locus_tag="MFKKBJ_23900" class="clusterblast-orf" id="dummy-8_q8_0_all"  />
<polygon points="127,40 127,40 132,35 127,30 127,30 127,40 " style="fill:#33d815; stroke-width:1; stroke:black; " description="&lt;b&gt;MFKKBJ_23905&lt;/b&gt;&lt;br&gt;acyl carrier protein&lt;br&gt;Location: 5161357 - 5161612" locus_tag="MFKKBJ_23905" class="clusterblast-orf" id="dummy-8_q9_0_all"  />
<polygon points="132,40 137,40 142,35 137,30 132,30 132,40 " style="fill:#158dd8; stroke-width:1; stroke:black; " description="&lt;b&gt;MFKKBJ_23910&lt;/b&gt;&lt;br&gt;Intracellular septation protein a&lt;br&gt;Location: 5161608 - 5162154" locus_tag="MFKKBJ_23910" class="clusterblast-orf" id="dummy-8_q10_0_all"  />
<polygon points="142,40 170,40 175,35 170,30 142,30 142,40 " style="fill:#c915d8; stroke-width:1; stroke:black; " description="&lt;b&gt;MFKKBJ_23915&lt;/b&gt;&lt;br&gt;Acetyl-coenzyme A synthetase&lt;br&gt;Location: 5162150 - 5163821" locus_tag="MFKKBJ_23915" class="clusterblast-orf" id="dummy-8_q11_0_all"  />
<polygon points="179,40 188,40 193,35 188,30 179,30 179,40 " style="fill:#d86f15; stroke-width:1; stroke:black; " description="&lt;b&gt;MFKKBJ_23920&lt;/b&gt;&lt;br&gt;Glycosyl transferase&lt;br&gt;Location: 5163988 - 5164723" locus_tag="MFKKBJ_23920" class="clusterblast-orf" id="dummy-8_q12_0_all"  />
<polygon points="193,40 206,40 211,35 206,30 193,30 193,40 " style="fill:#15d815; stroke-width:1; stroke:black; " description="&lt;b&gt;MFKKBJ_23925&lt;/b&gt;&lt;br&gt;Glycosyl transferase&lt;br&gt;Location: 5164719 - 5165655" locus_tag="MFKKBJ_23925" class="clusterblast-orf" id="dummy-8_q13_0_all"  />
<polygon points="211,40 236,40 241,35 236,30 211,30 211,40 " style="fill:#156fd8; stroke-width:1; stroke:black; " description="&lt;b&gt;MFKKBJ_23930&lt;/b&gt;&lt;br&gt;Histidine ammonia-lyase&lt;br&gt;Location: 5165638 - 5167180" locus_tag="MFKKBJ_23930" class="clusterblast-orf" id="dummy-8_q14_0_all"  />
<polygon points="241,40 245,40 250,35 245,30 241,30 241,40 " style="fill:#d815c9; stroke-width:1; stroke:black; " description="&lt;b&gt;MFKKBJ_23935&lt;/b&gt;&lt;br&gt;Thioesterase domain-containing protein&lt;br&gt;Location: 5167172 - 5167598" locus_tag="MFKKBJ_23935" class="clusterblast-orf" id="dummy-8_q15_0_all"  />
<polygon points="250,40 256,40 261,35 256,30 250,30 250,40 " style="fill:#d88d15; stroke-width:1; stroke:black; " description="&lt;b&gt;MFKKBJ_23940&lt;/b&gt;&lt;br&gt;Outer membrane lipoprotein carrier protein LolA&lt;br&gt;Location: 5167594 - 5168185" locus_tag="MFKKBJ_23940" class="clusterblast-orf" id="dummy-8_q16_0_all"  />
<polygon points="261,40 302,40 307,35 302,30 261,30 261,40 " style="fill:#15d833; stroke-width:1; stroke:black; " description="&lt;b&gt;MFKKBJ_23945&lt;/b&gt;&lt;br&gt;Membrane transport protein MMPL domain-containing protein&lt;br&gt;Location: 5168174 - 5170487" locus_tag="MFKKBJ_23945" class="clusterblast-orf" id="dummy-8_q17_0_all"  />
<polygon points="307,40 327,40 332,35 327,30 307,30 307,40 " style="fill:#1551d8; stroke-width:1; stroke:black; " description="&lt;b&gt;MFKKBJ_23950&lt;/b&gt;&lt;br&gt;FAD-binding domain-containing protein&lt;br&gt;Location: 5170520 - 5171768" locus_tag="MFKKBJ_23950" class="clusterblast-orf" id="dummy-8_q18_0_all"  />
<polygon points="332,40 341,40 346,35 341,30 332,30 332,40 " style="fill:#d815ab; stroke-width:1; stroke:black; " description="&lt;b&gt;MFKKBJ_23955&lt;/b&gt;&lt;br&gt;Methyltransferase type 11 domain-containing protein&lt;br&gt;Location: 5171764 - 5172499" locus_tag="MFKKBJ_23955" class="clusterblast-orf" id="dummy-8_q19_0_all"  />
<polygon points="346,40 351,40 356,35 351,30 346,30 346,40 " style="fill:#d8ab15; stroke-width:1; stroke:black; " description="&lt;b&gt;MFKKBJ_23960&lt;/b&gt;&lt;br&gt;Lipoprotein&lt;br&gt;Location: 5172495 - 5172978" locus_tag="MFKKBJ_23960" class="clusterblast-orf" id="dummy-8_q20_0_all"  />
<polygon points="356,40 374,40 379,35 374,30 356,30 356,40 " style="fill:#15d851; stroke-width:1; stroke:black; " description="&lt;b&gt;MFKKBJ_23965&lt;/b&gt;&lt;br&gt;3-oxoacyl-(Acyl carrier protein) synthase&lt;br&gt;Location: 5172974 - 5174141" locus_tag="MFKKBJ_23965" class="clusterblast-orf" id="dummy-8_q21_0_all"  />
<polygon points="378,40 383,40 388,35 383,30 378,30 378,40 " style="fill:#1533d8; stroke-width:1; stroke:black; " description="&lt;b&gt;MFKKBJ_23970&lt;/b&gt;&lt;br&gt;3-hydroxydecanoyl-(ACP) dehydratase&lt;br&gt;Location: 5174137 - 5174599" locus_tag="MFKKBJ_23970" class="clusterblast-orf" id="dummy-8_q22_0_all"  />
<polygon points="387,40 397,40 402,35 397,30 387,30 387,40 " style="fill:#d8158d; stroke-width:1; stroke:black; " description="&lt;b&gt;MFKKBJ_23975&lt;/b&gt;&lt;br&gt;3-oxoacyl-ACP reductase FabG&lt;br&gt;Location: 5174595 - 5175324" locus_tag="MFKKBJ_23975" class="clusterblast-orf" id="dummy-8_q23_0_all"  />
<polygon points="402,40 421,40 426,35 421,30 402,30 402,40 " style="fill:#d8c915; stroke-width:1; stroke:black; " description="&lt;b&gt;MFKKBJ_23980&lt;/b&gt;&lt;br&gt;beta-ketoacyl-ACP synthase&lt;br&gt;Location: 5175323 - 5176550" locus_tag="MFKKBJ_23980" class="clusterblast-orf" id="dummy-8_q24_0_all"  />
<polygon points="426,40 430,40 435,35 430,30 426,30 426,40 " style="fill:#15d86f; stroke-width:1; stroke:black; " description="&lt;b&gt;MFKKBJ_23985&lt;/b&gt;&lt;br&gt;Lipoprotein&lt;br&gt;Location: 5176576 - 5177029" locus_tag="MFKKBJ_23985" class="clusterblast-orf" id="dummy-8_q25_0_all"  />
<polygon points="440,35 445,30 447,30 447,40 445,40 440,35 " style="fill:#1515d8; stroke-width:1; stroke:black; " description="&lt;b&gt;MFKKBJ_23990&lt;/b&gt;&lt;br&gt;Type II toxin-antitoxin system PemK/MazF family toxin&lt;br&gt;Location: 5177245 - 5177629" locus_tag="MFKKBJ_23990" class="clusterblast-orf" id="dummy-8_q26_0_all"  />
<polygon points="449,35 454,30 467,30 467,40 454,40 449,35 " style="fill:#d8156f; stroke-width:1; stroke:black; " description="&lt;b&gt;MFKKBJ_23995&lt;/b&gt;&lt;br&gt;HTH lysR-type domain-containing protein&lt;br&gt;Location: 5177716 - 5178610" locus_tag="MFKKBJ_23995" class="clusterblast-orf" id="dummy-8_q27_0_all"  />
<polygon points="469,40 489,40 494,35 489,30 469,30 469,40 " style="fill:#c9d815; stroke-width:1; stroke:black; " description="&lt;b&gt;MFKKBJ_24000&lt;/b&gt;&lt;br&gt;Major facilitator superfamily (MFS) profile domain-containing protein&lt;br&gt;Location: 5178732 - 5180007" locus_tag="MFKKBJ_24000" class="clusterblast-orf" id="dummy-8_q28_0_all"  />
<polygon points="495,35 500,30 516,30 516,40 500,40 495,35 " style="fill:#15d88d; stroke-width:1; stroke:black; " description="&lt;b&gt;MFKKBJ_24005&lt;/b&gt;&lt;br&gt;uroporphyrinogen decarboxylase&lt;br&gt;Location: 5180067 - 5181135" locus_tag="MFKKBJ_24005" class="clusterblast-orf" id="dummy-8_q29_0_all"  />
<polygon points="521,35 526,30 549,30 549,40 526,40 521,35 " style="fill:#3315d8; stroke-width:1; stroke:black; " description="&lt;b&gt;MFKKBJ_24010&lt;/b&gt;&lt;br&gt;NADPH-dependent glutamate synthase beta chain or related oxidoreductase&lt;br&gt;Location: 5181377 - 5182796" locus_tag="MFKKBJ_24010" class="clusterblast-orf" id="dummy-8_q30_0_all"  />
<polygon points="550,35 555,30 637,30 637,40 555,40 550,35 " style="fill:#d81551; stroke-width:1; stroke:black; " description="&lt;b&gt;MFKKBJ_24015&lt;/b&gt;&lt;br&gt;Glutamate synthase large subunit&lt;br&gt;Location: 5182828 - 5187274" locus_tag="MFKKBJ_24015" class="clusterblast-orf" id="dummy-8_q31_0_all"  />
<polygon points="644,35 649,30 675,30 675,40 649,40 644,35 " style="fill:#abd815; stroke-width:1; stroke:black; " description="&lt;b&gt;MFKKBJ_24020&lt;/b&gt;&lt;br&gt;General secretion pathway protein a&lt;br&gt;Location: 5187628 - 5189191" locus_tag="MFKKBJ_24020" class="clusterblast-orf" id="dummy-8_q32_0_all"  />
<polygon points="675,35 680,30 697,30 697,40 680,40 675,35 " style="fill:#15d8ab; stroke-width:1; stroke:black; " description="&lt;b&gt;MFKKBJ_24025&lt;/b&gt;&lt;br&gt;3-dehydroquinate synthase&lt;br&gt;Location: 5189201 - 5190302" locus_tag="MFKKBJ_24025" class="clusterblast-orf" id="dummy-8_q33_0_all"  />
<polygon points="699,35 704,30 709,30 709,40 704,40 699,35 " style="fill:#5115d8; stroke-width:1; stroke:black; " description="&lt;b&gt;MFKKBJ_24030&lt;/b&gt;&lt;br&gt;shikimate kinase AroK&lt;br&gt;Location: 5190417 - 5190909" locus_tag="MFKKBJ_24030" class="clusterblast-orf" id="dummy-8_q34_0_all"  />
<polygon points="709,35 714,30 737,30 737,40 714,40 709,35 " style="fill:#d81533; stroke-width:1; stroke:black; " description="&lt;b&gt;MFKKBJ_24035&lt;/b&gt;&lt;br&gt;Type IV fimbriae biogenesis protein&lt;br&gt;Location: 5190940 - 5192323" locus_tag="MFKKBJ_24035" class="clusterblast-orf" id="dummy-8_q35_0_all"  />
<polygon points="737,35 742,30 756,30 756,40 742,40 737,35 " style="fill:#8dd815; stroke-width:1; stroke:black; " description="&lt;b&gt;MFKKBJ_24040&lt;/b&gt;&lt;br&gt;Pilus assembly protein&lt;br&gt;Location: 5192336 - 5193308" locus_tag="MFKKBJ_24040" class="clusterblast-orf" id="dummy-8_q36_0_all"  />
<polygon points="756,35 761,30 767,30 767,40 761,40 756,35 " style="fill:#15d8c9; stroke-width:1; stroke:black; " description="&lt;b&gt;MFKKBJ_24045&lt;/b&gt;&lt;br&gt;Type IV pilus assembly protein&lt;br&gt;Location: 5193304 - 5193859" locus_tag="MFKKBJ_24045" class="clusterblast-orf" id="dummy-8_q37_0_all"  />
<polygon points="767,35 772,30 780,30 780,40 772,40 767,35 " style="fill:#6f15d8; stroke-width:1; stroke:black; " description="&lt;b&gt;MFKKBJ_24050&lt;/b&gt;&lt;br&gt;Type IV pilus assembly protein&lt;br&gt;Location: 5193855 - 5194509" locus_tag="MFKKBJ_24050" class="clusterblast-orf" id="dummy-8_q38_0_all"  />
</g>
<g label="NZ_JACAQO010000009" description="NZ_JACAQO010000009 (361653-405229): Pseudomonas reactans strain IPO3750 IPO 3... (100% of genes show similarity), arylpolyene" class="clusterblast-cluster"  >
<text x="5" y="70" class="clusterblast-acc"  >
<a xlink:href="https://antismash-db.secondarymetabolites.org/area?record=NZ_JACAQO010000009&amp;start=361653&amp;end=405229" target="_blank">NZ_JACAQO010000009 (361653-405229)</a>: Pseudomonas reactans strain IPO3750 IPO 3... (100% of genes show similarity), arylpolyene</text>
<line x1="10" y1="85" x2="778.0" y2="85" style="stroke-width:1; stroke:grey; "  />
</g>
<g id="a8_000"  >
<polygon points="2,90 25,90 30,85 25,80 2,80 2,90 " style="fill:#d81515; stroke-width:1; stroke:black; " description="&lt;b&gt;HX796_RS06705&lt;/b&gt;&lt;br&gt;YdiU family protein&lt;br&gt;Location: 403132 - 401687&lt;br&gt;&lt;br&gt;&lt;b&gt;BlastP hit with MFKKBJ_23855&lt;/b&gt;&lt;br&gt;Percentage identity: 95&lt;br&gt;Percentage coverage: 99&lt;br&gt;BLAST bit score: 925&lt;br&gt;E-value: 0.0" locus_tag="HX796_RS06705" class="clusterblast-orf" id="dummy-8_h8_1_0"  />
</g>
<g id="a8_001"  >
<polygon points="31,85 36,80 39,80 39,90 36,90 31,85 " style="fill:#6fd815; stroke-width:1; stroke:black; " description="&lt;b&gt;HX796_RS06700&lt;/b&gt;&lt;br&gt;transcriptional regulator&lt;br&gt;Location: 401646 - 401245&lt;br&gt;&lt;br&gt;&lt;b&gt;BlastP hit with MFKKBJ_23860&lt;/b&gt;&lt;br&gt;Percentage identity: 96&lt;br&gt;Percentage coverage: 100&lt;br&gt;BLAST bit score: 259&lt;br&gt;E-value: 8.96e-89" locus_tag="HX796_RS06700" class="clusterblast-orf" id="dummy-8_h8_1_1"  />
</g>
<g id="a8_002"  >
<polygon points="39,85 44,80 45,80 45,90 44,90 39,85 " style="fill:#15c9d8; stroke-width:1; stroke:black; " description="&lt;b&gt;HX796_RS06695&lt;/b&gt;&lt;br&gt;type II toxin-antitoxin system HigB family toxin&lt;br&gt;Location: 401248 - 400949&lt;br&gt;&lt;br&gt;&lt;b&gt;BlastP hit with MFKKBJ_23865&lt;/b&gt;&lt;br&gt;Percentage identity: 88&lt;br&gt;Percentage coverage: 100&lt;br&gt;BLAST bit score: 177&lt;br&gt;E-value: 1.35e-57" locus_tag="HX796_RS06695" class="clusterblast-orf" id="dummy-8_h8_1_2"  />
</g>
<g id="a8_003"  >
<polygon points="49,90 53,90 58,85 53,80 49,80 49,90 " style="fill:#8d15d8; stroke-width:1; stroke:black; " description="&lt;b&gt;HX796_RS06690&lt;/b&gt;&lt;br&gt;thioredoxin TrxC&lt;br&gt;Location: 400712 - 400278&lt;br&gt;&lt;br&gt;&lt;b&gt;BlastP hit with MFKKBJ_23870&lt;/b&gt;&lt;br&gt;Percentage identity: 97&lt;br&gt;Percentage coverage: 100&lt;br&gt;BLAST bit score: 298&lt;br&gt;E-value: 8.03e-104" locus_tag="HX796_RS06690" class="clusterblast-orf" id="dummy-8_h8_1_3"  />
</g>
<g id="a8_004"  >
<polygon points="59,85 64,80 64,80 64,90 64,90 59,85 " style="fill:#d83315; stroke-width:1; stroke:black; " description="&lt;b&gt;HX796_RS06685&lt;/b&gt;&lt;br&gt;DUF6124 family protein&lt;br&gt;Location: 400200 - 399985&lt;br&gt;&lt;br&gt;&lt;b&gt;BlastP hit with MFKKBJ_23875&lt;/b&gt;&lt;br&gt;Percentage identity: 86&lt;br&gt;Percentage coverage: 90&lt;br&gt;BLAST bit score: 123&lt;br&gt;E-value: 9.11e-37" locus_tag="HX796_RS06685" class="clusterblast-orf" id="dummy-8_h8_1_4"  />
</g>
<g id="a8_005"  >
<polygon points="70,85 75,80 86,80 86,90 75,90 70,85 " style="fill:#51d815; stroke-width:1; stroke:black; " description="&lt;b&gt;HX796_RS06680&lt;/b&gt;&lt;br&gt;ParA family protein&lt;br&gt;Location: 399647 - 398877&lt;br&gt;&lt;br&gt;&lt;b&gt;BlastP hit with MFKKBJ_23885&lt;/b&gt;&lt;br&gt;Percentage identity: 97&lt;br&gt;Percentage coverage: 100&lt;br&gt;BLAST bit score: 490&lt;br&gt;E-value: 2.39e-176" locus_tag="HX796_RS06680" class="clusterblast-orf" id="dummy-8_h8_1_5"  />
</g>
<g id="a8_006"  >
<polygon points="93,90 102,90 107,85 102,80 93,80 93,90 " style="fill:#15abd8; stroke-width:1; stroke:black; " description="&lt;b&gt;HX796_RS06675&lt;/b&gt;&lt;br&gt;beta-ketoacyl synthase chain length factor&lt;br&gt;Location: 398483 - 397809&lt;br&gt;&lt;br&gt;&lt;b&gt;BlastP hit with MFKKBJ_23890&lt;/b&gt;&lt;br&gt;Percentage identity: 93&lt;br&gt;Percentage coverage: 93&lt;br&gt;BLAST bit score: 426&lt;br&gt;E-value: 1.53e-151" locus_tag="HX796_RS06675" class="clusterblast-orf" id="dummy-8_h8_1_6"  />
</g>
<g id="a8_007"  >
<polygon points="106,90 117,90 122,85 117,80 106,80 106,90 " style="fill:#ab15d8; stroke-width:1; stroke:black; " description="&lt;b&gt;HX796_RS06670&lt;/b&gt;&lt;br&gt;1-acyl-sn-glycerol-3-phosphate acyltransferase&lt;br&gt;Location: 397833 - 397021&lt;br&gt;&lt;br&gt;&lt;b&gt;BlastP hit with MFKKBJ_23895&lt;/b&gt;&lt;br&gt;Percentage identity: 91&lt;br&gt;Percentage coverage: 100&lt;br&gt;BLAST bit score: 498&lt;br&gt;E-value: 8.93e-179" locus_tag="HX796_RS06670" class="clusterblast-orf" id="dummy-8_h8_1_7"  />
</g>
<g id="a8_008"  >
<polygon points="122,90 122,90 127,85 122,80 122,80 122,90 " style="fill:#d85115; stroke-width:1; stroke:black; " description="&lt;b&gt;HX796_RS06665&lt;/b&gt;&lt;br&gt;phosphopantetheine-binding protein&lt;br&gt;Location: 397043 - 396774&lt;br&gt;&lt;br&gt;&lt;b&gt;BlastP hit with MFKKBJ_23900&lt;/b&gt;&lt;br&gt;Percentage identity: 96&lt;br&gt;Percentage coverage: 100&lt;br&gt;BLAST bit score: 160&lt;br&gt;E-value: 4e-51" locus_tag="HX796_RS06665" class="clusterblast-orf" id="dummy-8_h8_1_8"  />
</g>
<g id="a8_009"  >
<polygon points="127,90 127,90 132,85 127,80 127,80 127,90 " style="fill:#33d815; stroke-width:1; stroke:black; " description="&lt;b&gt;HX796_RS06660&lt;/b&gt;&lt;br&gt;acyl carrier protein&lt;br&gt;Location: 396764 - 396510&lt;br&gt;&lt;br&gt;&lt;b&gt;BlastP hit with MFKKBJ_23905&lt;/b&gt;&lt;br&gt;Percentage identity: 98&lt;br&gt;Percentage coverage: 100&lt;br&gt;BLAST bit score: 155&lt;br&gt;E-value: 1.9e-49" locus_tag="HX796_RS06660" class="clusterblast-orf" id="dummy-8_h8_1_9"  />
</g>
<g id="a8_0010"  >
<polygon points="132,90 138,90 143,85 138,80 132,80 132,90 " style="fill:#158dd8; stroke-width:1; stroke:black; " description="&lt;b&gt;HX796_RS06655&lt;/b&gt;&lt;br&gt;membrane protein&lt;br&gt;Location: 396513 - 395968&lt;br&gt;&lt;br&gt;&lt;b&gt;BlastP hit with MFKKBJ_23910&lt;/b&gt;&lt;br&gt;Percentage identity: 97&lt;br&gt;Percentage coverage: 100&lt;br&gt;BLAST bit score: 361&lt;br&gt;E-value: 9.08e-128" locus_tag="HX796_RS06655" class="clusterblast-orf" id="dummy-8_h8_1_10"  />
</g>
<g id="a8_0011"  >
<polygon points="143,90 171,90 176,85 171,80 143,80 143,90 " style="fill:#c915d8; stroke-width:1; stroke:black; " description="&lt;b&gt;HX796_RS06650&lt;/b&gt;&lt;br&gt;acyl-CoA synthetase family protein&lt;br&gt;Location: 395971 - 394301&lt;br&gt;&lt;br&gt;&lt;b&gt;BlastP hit with MFKKBJ_23915&lt;/b&gt;&lt;br&gt;Percentage identity: 92&lt;br&gt;Percentage coverage: 100&lt;br&gt;BLAST bit score: 1029&lt;br&gt;E-value: 0.0" locus_tag="HX796_RS06650" class="clusterblast-orf" id="dummy-8_h8_1_11"  />
</g>
<g id="a8_0012"  >
<polygon points="176,90 185,90 190,85 185,80 176,80 176,90 " style="fill:#d86f15; stroke-width:1; stroke:black; " description="&lt;b&gt;HX796_RS06645&lt;/b&gt;&lt;br&gt;glycosyltransferase family 2 protein&lt;br&gt;Location: 394308 - 393574&lt;br&gt;&lt;br&gt;&lt;b&gt;BlastP hit with MFKKBJ_23920&lt;/b&gt;&lt;br&gt;Percentage identity: 94&lt;br&gt;Percentage coverage: 100&lt;br&gt;BLAST bit score: 482&lt;br&gt;E-value: 2.14e-173" locus_tag="HX796_RS06645" class="clusterblast-orf" id="dummy-8_h8_1_12"  />
</g>
<g id="a8_0013"  >
<polygon points="190,90 203,90 208,85 203,80 190,80 190,90 " style="fill:#15d815; stroke-width:1; stroke:black; " description="&lt;b&gt;HX796_RS06640&lt;/b&gt;&lt;br&gt;glycosyl transferase&lt;br&gt;Location: 393577 - 392642&lt;br&gt;&lt;br&gt;&lt;b&gt;BlastP hit with MFKKBJ_23925&lt;/b&gt;&lt;br&gt;Percentage identity: 92&lt;br&gt;Percentage coverage: 100&lt;br&gt;BLAST bit score: 585&lt;br&gt;E-value: 5.33e-212" locus_tag="HX796_RS06640" class="clusterblast-orf" id="dummy-8_h8_1_13"  />
</g>
<g id="a8_0014"  >
<polygon points="208,90 233,90 238,85 233,80 208,80 208,90 " style="fill:#156fd8; stroke-width:1; stroke:black; " description="&lt;b&gt;HX796_RS06635&lt;/b&gt;&lt;br&gt;aromatic amino acid ammonia-lyase&lt;br&gt;Location: 392658 - 391117&lt;br&gt;&lt;br&gt;&lt;b&gt;BlastP hit with MFKKBJ_23930&lt;/b&gt;&lt;br&gt;Percentage identity: 98&lt;br&gt;Percentage coverage: 100&lt;br&gt;BLAST bit score: 991&lt;br&gt;E-value: 0.0" locus_tag="HX796_RS06635" class="clusterblast-orf" id="dummy-8_h8_1_14"  />
</g>
<g id="a8_0015"  >
<polygon points="238,90 242,90 247,85 242,80 238,80 238,90 " style="fill:#d815c9; stroke-width:1; stroke:black; " description="&lt;b&gt;HX796_RS06630&lt;/b&gt;&lt;br&gt;acyl-CoA thioesterase&lt;br&gt;Location: 391124 - 390699&lt;br&gt;&lt;br&gt;&lt;b&gt;BlastP hit with MFKKBJ_23935&lt;/b&gt;&lt;br&gt;Percentage identity: 96&lt;br&gt;Percentage coverage: 99&lt;br&gt;BLAST bit score: 273&lt;br&gt;E-value: 2.61e-94" locus_tag="HX796_RS06630" class="clusterblast-orf" id="dummy-8_h8_1_15"  />
</g>
<g id="a8_0016"  >
<polygon points="247,90 255,90 260,85 255,80 247,80 247,90 " style="fill:#d88d15; stroke-width:1; stroke:black; " description="&lt;b&gt;HX796_RS06625&lt;/b&gt;&lt;br&gt;outer membrane lipoprotein carrier protein LolA&lt;br&gt;Location: 390702 - 390019&lt;br&gt;&lt;br&gt;&lt;b&gt;BlastP hit with MFKKBJ_23940&lt;/b&gt;&lt;br&gt;Percentage identity: 94&lt;br&gt;Percentage coverage: 95&lt;br&gt;BLAST bit score: 340&lt;br&gt;E-value: 2.04e-118" locus_tag="HX796_RS06625" class="clusterblast-orf" id="dummy-8_h8_1_16"  />
</g>
<g id="a8_0017"  >
<polygon points="260,90 300,90 305,85 300,80 260,80 260,90 " style="fill:#15d833; stroke-width:1; stroke:black; " description="&lt;b&gt;HX796_RS06620&lt;/b&gt;&lt;br&gt;hypothetical protein&lt;br&gt;Location: 390029 - 387717&lt;br&gt;&lt;br&gt;&lt;b&gt;BlastP hit with MFKKBJ_23945&lt;/b&gt;&lt;br&gt;Percentage identity: 94&lt;br&gt;Percentage coverage: 100&lt;br&gt;BLAST bit score: 1365&lt;br&gt;E-value: 0.0" locus_tag="HX796_RS06620" class="clusterblast-orf" id="dummy-8_h8_1_17"  />
</g>
<g id="a8_0018"  >
<polygon points="306,90 326,90 331,85 326,80 306,80 306,90 " style="fill:#1551d8; stroke-width:1; stroke:black; " description="&lt;b&gt;HX796_RS06615&lt;/b&gt;&lt;br&gt;tryptophan 7-halogenase&lt;br&gt;Location: 387668 - 386436&lt;br&gt;&lt;br&gt;&lt;b&gt;BlastP hit with MFKKBJ_23950&lt;/b&gt;&lt;br&gt;Percentage identity: 92&lt;br&gt;Percentage coverage: 99&lt;br&gt;BLAST bit score: 779&lt;br&gt;E-value: 3.12e-285" locus_tag="HX796_RS06615" class="clusterblast-orf" id="dummy-8_h8_1_18"  />
</g>
<g id="a8_0019"  >
<polygon points="330,90 340,90 345,85 340,80 330,80 330,90 " style="fill:#d815ab; stroke-width:1; stroke:black; " description="&lt;b&gt;HX796_RS06610&lt;/b&gt;&lt;br&gt;class I SAM-dependent methyltransferase&lt;br&gt;Location: 386439 - 385705&lt;br&gt;&lt;br&gt;&lt;b&gt;BlastP hit with MFKKBJ_23955&lt;/b&gt;&lt;br&gt;Percentage identity: 88&lt;br&gt;Percentage coverage: 100&lt;br&gt;BLAST bit score: 459&lt;br&gt;E-value: 3.01e-164" locus_tag="HX796_RS06610" class="clusterblast-orf" id="dummy-8_h8_1_19"  />
</g>
<g id="a8_0020"  >
<polygon points="345,90 349,90 354,85 349,80 345,80 345,90 " style="fill:#d8ab15; stroke-width:1; stroke:black; " description="&lt;b&gt;HX796_RS06605&lt;/b&gt;&lt;br&gt;hypothetical protein&lt;br&gt;Location: 385708 - 385226&lt;br&gt;&lt;br&gt;&lt;b&gt;BlastP hit with MFKKBJ_23960&lt;/b&gt;&lt;br&gt;Percentage identity: 88&lt;br&gt;Percentage coverage: 100&lt;br&gt;BLAST bit score: 290&lt;br&gt;E-value: 4.27e-100" locus_tag="HX796_RS06605" class="clusterblast-orf" id="dummy-8_h8_1_20"  />
</g>
<g id="a8_0021"  >
<polygon points="354,90 372,90 377,85 372,80 354,80 354,90 " style="fill:#15d851; stroke-width:1; stroke:black; " description="&lt;b&gt;HX796_RS06600&lt;/b&gt;&lt;br&gt;beta-ketoacyl-[acyl-carrier-protein] synthase family protein&lt;br&gt;Location: 385229 - 384063&lt;br&gt;&lt;br&gt;&lt;b&gt;BlastP hit with MFKKBJ_23965&lt;/b&gt;&lt;br&gt;Percentage identity: 89&lt;br&gt;Percentage coverage: 100&lt;br&gt;BLAST bit score: 686&lt;br&gt;E-value: 2.44e-249" locus_tag="HX796_RS06600" class="clusterblast-orf" id="dummy-8_h8_1_21"  />
</g>
<g id="a8_0022"  >
<polygon points="377,90 381,90 386,85 381,80 377,80 377,90 " style="fill:#1533d8; stroke-width:1; stroke:black; " description="&lt;b&gt;HX796_RS06595&lt;/b&gt;&lt;br&gt;hotdog family protein&lt;br&gt;Location: 384066 - 383605&lt;br&gt;&lt;br&gt;&lt;b&gt;BlastP hit with MFKKBJ_23970&lt;/b&gt;&lt;br&gt;Percentage identity: 91&lt;br&gt;Percentage coverage: 99&lt;br&gt;BLAST bit score: 282&lt;br&gt;E-value: 2.83e-97" locus_tag="HX796_RS06595" class="clusterblast-orf" id="dummy-8_h8_1_22"  />
</g>
<g id="a8_0023"  >
<polygon points="386,90 396,90 401,85 396,80 386,80 386,90 " style="fill:#d8158d; stroke-width:1; stroke:black; " description="&lt;b&gt;HX796_RS06590&lt;/b&gt;&lt;br&gt;3-ketoacyl-ACP reductase FabG2&lt;br&gt;Location: 383608 - 382880&lt;br&gt;&lt;br&gt;&lt;b&gt;BlastP hit with MFKKBJ_23975&lt;/b&gt;&lt;br&gt;Percentage identity: 97&lt;br&gt;Percentage coverage: 100&lt;br&gt;BLAST bit score: 458&lt;br&gt;E-value: 3.66e-164" locus_tag="HX796_RS06590" class="clusterblast-orf" id="dummy-8_h8_1_23"  />
</g>
<g id="a8_0024"  >
<polygon points="401,90 420,90 425,85 420,80 401,80 401,90 " style="fill:#d8c915; stroke-width:1; stroke:black; " description="&lt;b&gt;HX796_RS06585&lt;/b&gt;&lt;br&gt;beta-ketoacyl-ACP synthase&lt;br&gt;Location: 382880 - 381654&lt;br&gt;&lt;br&gt;&lt;b&gt;BlastP hit with MFKKBJ_23980&lt;/b&gt;&lt;br&gt;Percentage identity: 98&lt;br&gt;Percentage coverage: 100&lt;br&gt;BLAST bit score: 810&lt;br&gt;E-value: 9.84e-298" locus_tag="HX796_RS06585" class="clusterblast-orf" id="dummy-8_h8_1_24"  />
</g>
<g id="a8_0025"  >
<polygon points="425,90 429,90 434,85 429,80 425,80 425,90 " style="fill:#15d86f; stroke-width:1; stroke:black; " description="&lt;b&gt;HX796_RS06580&lt;/b&gt;&lt;br&gt;hypothetical protein&lt;br&gt;Location: 381627 - 381184&lt;br&gt;&lt;br&gt;&lt;b&gt;BlastP hit with MFKKBJ_23985&lt;/b&gt;&lt;br&gt;Percentage identity: 91&lt;br&gt;Percentage coverage: 99&lt;br&gt;BLAST bit score: 253&lt;br&gt;E-value: 5.56e-86" locus_tag="HX796_RS06580" class="clusterblast-orf" id="dummy-8_h8_1_25"  />
</g>
<g id="a8_0026"  >
<polygon points="438,85 443,80 446,80 446,90 443,90 438,85 " style="fill:#1515d8; stroke-width:1; stroke:black; " description="&lt;b&gt;HX796_RS06575&lt;/b&gt;&lt;br&gt;type II toxin-antitoxin system PemK/MazF family toxin&lt;br&gt;Location: 380976 - 380590&lt;br&gt;&lt;br&gt;&lt;b&gt;BlastP hit with MFKKBJ_23990&lt;/b&gt;&lt;br&gt;Percentage identity: 90&lt;br&gt;Percentage coverage: 100&lt;br&gt;BLAST bit score: 226&lt;br&gt;E-value: 7.75e-76" locus_tag="HX796_RS06575" class="clusterblast-orf" id="dummy-8_h8_1_26"  />
</g>
<g id="a8_0027"  >
<polygon points="447,85 452,80 465,80 465,90 452,90 447,85 " style="fill:#d8156f; stroke-width:1; stroke:black; " description="&lt;b&gt;HX796_RS06570&lt;/b&gt;&lt;br&gt;LysR family transcriptional regulator&lt;br&gt;Location: 380502 - 379609&lt;br&gt;&lt;br&gt;&lt;b&gt;BlastP hit with MFKKBJ_23995&lt;/b&gt;&lt;br&gt;Percentage identity: 95&lt;br&gt;Percentage coverage: 100&lt;br&gt;BLAST bit score: 535&lt;br&gt;E-value: 1.67e-192" locus_tag="HX796_RS06570" class="clusterblast-orf" id="dummy-8_h8_1_27"  />
</g>
<g id="a8_0028"  >
<polygon points="467,90 488,90 493,85 488,80 467,80 467,90 " style="fill:#c9d815; stroke-width:1; stroke:black; " description="&lt;b&gt;HX796_RS06565&lt;/b&gt;&lt;br&gt;MFS transporter&lt;br&gt;Location: 379484 - 378210&lt;br&gt;&lt;br&gt;&lt;b&gt;BlastP hit with MFKKBJ_24000&lt;/b&gt;&lt;br&gt;Percentage identity: 93&lt;br&gt;Percentage coverage: 100&lt;br&gt;BLAST bit score: 754&lt;br&gt;E-value: 4.28e-275" locus_tag="HX796_RS06565" class="clusterblast-orf" id="dummy-8_h8_1_28"  />
</g>
<g id="a8_0029"  >
<polygon points="494,85 499,80 515,80 515,90 499,90 494,85 " style="fill:#15d88d; stroke-width:1; stroke:black; " description="&lt;b&gt;HX796_RS06560&lt;/b&gt;&lt;br&gt;uroporphyrinogen decarboxylase&lt;br&gt;Location: 378153 - 377086&lt;br&gt;&lt;br&gt;&lt;b&gt;BlastP hit with MFKKBJ_24005&lt;/b&gt;&lt;br&gt;Percentage identity: 98&lt;br&gt;Percentage coverage: 100&lt;br&gt;BLAST bit score: 707&lt;br&gt;E-value: 7.81e-259" locus_tag="HX796_RS06560" class="clusterblast-orf" id="dummy-8_h8_1_29"  />
</g>
<g id="a8_0030"  >
<polygon points="519,85 524,80 547,80 547,90 524,90 519,85 " style="fill:#3315d8; stroke-width:1; stroke:black; " description="&lt;b&gt;HX796_RS06555&lt;/b&gt;&lt;br&gt;FAD-dependent oxidoreductase&lt;br&gt;Location: 376886 - 375468&lt;br&gt;&lt;br&gt;&lt;b&gt;BlastP hit with MFKKBJ_24010&lt;/b&gt;&lt;br&gt;Percentage identity: 99&lt;br&gt;Percentage coverage: 100&lt;br&gt;BLAST bit score: 952&lt;br&gt;E-value: 0.0" locus_tag="HX796_RS06555" class="clusterblast-orf" id="dummy-8_h8_1_30"  />
</g>
<g id="a8_0031"  >
<polygon points="547,85 552,80 635,80 635,90 552,90 547,85 " style="fill:#d81551; stroke-width:1; stroke:black; " description="&lt;b&gt;HX796_RS06550&lt;/b&gt;&lt;br&gt;glutamate synthase large subunit&lt;br&gt;Location: 375435 - 370990&lt;br&gt;&lt;br&gt;&lt;b&gt;BlastP hit with MFKKBJ_24015&lt;/b&gt;&lt;br&gt;Percentage identity: 99&lt;br&gt;Percentage coverage: 100&lt;br&gt;BLAST bit score: 2865&lt;br&gt;E-value: 0.0" locus_tag="HX796_RS06550" class="clusterblast-orf" id="dummy-8_h8_1_31"  />
</g>
<g id="a8_0032"  >
<polygon points="642,85 647,80 673,80 673,90 647,90 642,85 " style="fill:#abd815; stroke-width:1; stroke:black; " description="&lt;b&gt;HX796_RS06545&lt;/b&gt;&lt;br&gt;SPOR domain-containing protein&lt;br&gt;Location: 370636 - 369071&lt;br&gt;&lt;br&gt;&lt;b&gt;BlastP hit with MFKKBJ_24020&lt;/b&gt;&lt;br&gt;Percentage identity: 90&lt;br&gt;Percentage coverage: 101&lt;br&gt;BLAST bit score: 825&lt;br&gt;E-value: 4.84e-300" locus_tag="HX796_RS06545" class="clusterblast-orf" id="dummy-8_h8_1_32"  />
</g>
<g id="a8_0033"  >
<polygon points="673,85 678,80 694,80 694,90 678,90 673,85 " style="fill:#15d8ab; stroke-width:1; stroke:black; " description="&lt;b&gt;HX796_RS06540&lt;/b&gt;&lt;br&gt;3-dehydroquinate synthase&lt;br&gt;Location: 369060 - 367960&lt;br&gt;&lt;br&gt;&lt;b&gt;BlastP hit with MFKKBJ_24025&lt;/b&gt;&lt;br&gt;Percentage identity: 99&lt;br&gt;Percentage coverage: 100&lt;br&gt;BLAST bit score: 715&lt;br&gt;E-value: 1.16e-261" locus_tag="HX796_RS06540" class="clusterblast-orf" id="dummy-8_h8_1_33"  />
</g>
<g id="a8_0034"  >
<polygon points="697,85 702,80 707,80 707,90 702,90 697,85 " style="fill:#5115d8; stroke-width:1; stroke:black; " description="&lt;b&gt;HX796_RS06535&lt;/b&gt;&lt;br&gt;shikimate kinase AroK&lt;br&gt;Location: 367834 - 367325&lt;br&gt;&lt;br&gt;&lt;b&gt;BlastP hit with MFKKBJ_24030&lt;/b&gt;&lt;br&gt;Percentage identity: 98&lt;br&gt;Percentage coverage: 100&lt;br&gt;BLAST bit score: 313&lt;br&gt;E-value: 4.68e-109" locus_tag="HX796_RS06535" class="clusterblast-orf" id="dummy-8_h8_1_34"  />
</g>
<g id="a8_0035"  >
<polygon points="707,85 712,80 733,80 733,90 712,90 707,85 " style="fill:#d81533; stroke-width:1; stroke:black; " description="&lt;b&gt;HX796_RS06530&lt;/b&gt;&lt;br&gt;type IV pilus secretin PilQ family protein&lt;br&gt;Location: 367311 - 365986&lt;br&gt;&lt;br&gt;&lt;b&gt;BlastP hit with MFKKBJ_24035&lt;/b&gt;&lt;br&gt;Percentage identity: 92&lt;br&gt;Percentage coverage: 96&lt;br&gt;BLAST bit score: 774&lt;br&gt;E-value: 4.06e-282" locus_tag="HX796_RS06530" class="clusterblast-orf" id="dummy-8_h8_1_35"  />
</g>
<g id="a8_0036"  >
<polygon points="735,85 740,80 754,80 754,90 740,90 735,85 " style="fill:#8dd815; stroke-width:1; stroke:black; " description="&lt;b&gt;HX796_RS06525&lt;/b&gt;&lt;br&gt;pilus assembly protein PilP&lt;br&gt;Location: 365916 - 364957&lt;br&gt;&lt;br&gt;&lt;b&gt;BlastP hit with MFKKBJ_24040&lt;/b&gt;&lt;br&gt;Percentage identity: 69&lt;br&gt;Percentage coverage: 100&lt;br&gt;BLAST bit score: 424&lt;br&gt;E-value: 3.56e-148" locus_tag="HX796_RS06525" class="clusterblast-orf" id="dummy-8_h8_1_36"  />
</g>
<g id="a8_0037"  >
<polygon points="754,85 759,80 764,80 764,90 759,90 754,85 " style="fill:#15d8c9; stroke-width:1; stroke:black; " description="&lt;b&gt;HX796_RS06520&lt;/b&gt;&lt;br&gt;PilN domain-containing protein&lt;br&gt;Location: 364960 - 364406&lt;br&gt;&lt;br&gt;&lt;b&gt;BlastP hit with MFKKBJ_24045&lt;/b&gt;&lt;br&gt;Percentage identity: 83&lt;br&gt;Percentage coverage: 100&lt;br&gt;BLAST bit score: 281&lt;br&gt;E-value: 8.17e-96" locus_tag="HX796_RS06520" class="clusterblast-orf" id="dummy-8_h8_1_37"  />
</g>
<g id="a8_0038"  >
<polygon points="764,85 769,80 777,80 777,90 769,90 764,85 " style="fill:#6f15d8; stroke-width:1; stroke:black; " description="&lt;b&gt;HX796_RS06515&lt;/b&gt;&lt;br&gt;type IV pilus assembly protein PilM&lt;br&gt;Location: 364409 - 363756&lt;br&gt;&lt;br&gt;&lt;b&gt;BlastP hit with MFKKBJ_24050&lt;/b&gt;&lt;br&gt;Percentage identity: 73&lt;br&gt;Percentage coverage: 100&lt;br&gt;BLAST bit score: 306&lt;br&gt;E-value: 8.34e-105" locus_tag="HX796_RS06515" class="clusterblast-orf" id="dummy-8_h8_1_38"  />
</g>
</svg>
