<svg xmlns="http://www.w3.org/2000/svg" xmlns:xlink="http://www.w3.org/1999/xlink" version="1.1" x="0" y="0" height="230" width="800" viewBox="0 0 800 230" preserveAspectRatio="none"  >
<g label="Query sequence" class="clusterblast-cluster"  >
<text x="5" y="20" class="clusterblast-acc"  >
Query sequence</text>
<line x1="10" y1="35" x2="778.0" y2="35" style="stroke-width:1; stroke:grey; "  />
<polygon points="17,35 22,30 73,30 73,40 22,40 17,35 " style="fill:#d81515; stroke-width:1; stroke:black; " description="&lt;b&gt;MFKKBJ_13420&lt;/b&gt;&lt;br&gt;IclR family transcriptional regulator&lt;br&gt;Location: 2932067 - 2932886" locus_tag="MFKKBJ_13420" class="clusterblast-orf" id="dummy-5_q0_0_all"  />
<polygon points="89,40 153,40 158,35 153,30 89,30 89,40 " style="fill:#77d815; stroke-width:1; stroke:black; " description="&lt;b&gt;MFKKBJ_13425&lt;/b&gt;&lt;br&gt;Iron(III) transport system ATP-binding&lt;br&gt;Location: 2933126 - 2934155" locus_tag="MFKKBJ_13425" class="clusterblast-orf" id="dummy-5_q1_0_all"  />
<polygon points="158,40 210,40 215,35 210,30 158,30 158,40 " style="fill:#15d8d8; stroke-width:1; stroke:black; " description="&lt;b&gt;MFKKBJ_13430&lt;/b&gt;&lt;br&gt;ABC transmembrane type-1 domain-containing protein&lt;br&gt;Location: 2934151 - 2934997" locus_tag="MFKKBJ_13430" class="clusterblast-orf" id="dummy-5_q2_0_all"  />
<polygon points="216,40 264,40 269,35 264,30 216,30 216,40 " style="fill:#7715d8; stroke-width:1; stroke:black; " description="&lt;b&gt;MFKKBJ_13435&lt;/b&gt;&lt;br&gt;ABC-type spermidine/putrescine transport system, permease component II&lt;br&gt;Location: 2935001 - 2935796" locus_tag="MFKKBJ_13435" class="clusterblast-orf" id="dummy-5_q3_0_all"  />
<polygon points="269,40 284,40 289,35 284,30 269,30 269,40 " style="fill:#d87715; stroke-width:1; stroke:black; " description="&lt;b&gt;MFKKBJ_13440&lt;/b&gt;&lt;br&gt;Ferredoxin&lt;br&gt;Location: 2935795 - 2936086" locus_tag="MFKKBJ_13440" class="clusterblast-orf" id="dummy-5_q4_0_all"  />
<polygon points="289,40 375,40 380,35 375,30 289,30 289,40 " style="fill:#15d815; stroke-width:1; stroke:black; " description="&lt;b&gt;MFKKBJ_13445&lt;/b&gt;&lt;br&gt;FAD/NAD(P)-binding oxidoreductase&lt;br&gt;Location: 2936082 - 2937426" locus_tag="MFKKBJ_13445" class="clusterblast-orf" id="dummy-5_q5_0_all"  />
<polygon points="379,40 449,40 454,35 449,30 379,30 379,40 " style="fill:#1577d8; stroke-width:1; stroke:black; " description="&lt;b&gt;MFKKBJ_13450&lt;/b&gt;&lt;br&gt;FAD dependent oxidoreductase domain-containing protein&lt;br&gt;Location: 2937422 - 2938520" locus_tag="MFKKBJ_13450" class="clusterblast-orf" id="dummy-5_q6_0_all"  />
<polygon points="455,40 519,40 524,35 519,30 455,30 455,40 " style="fill:#d815d8; stroke-width:1; stroke:black; " description="&lt;b&gt;MFKKBJ_13455&lt;/b&gt;&lt;br&gt;ABC transporter substrate-binding protein&lt;br&gt;Location: 2938534 - 2939566" locus_tag="MFKKBJ_13455" class="clusterblast-orf" id="dummy-5_q7_0_all"  />
<polygon points="524,35 529,30 579,30 579,40 529,40 524,35 " style="fill:#d8d815; stroke-width:1; stroke:black; " description="&lt;b&gt;MFKKBJ_13460&lt;/b&gt;&lt;br&gt;ammonia-dependent NAD(+) synthetase&lt;br&gt;Location: 2939566 - 2940376" locus_tag="MFKKBJ_13460" class="clusterblast-orf" id="dummy-5_q8_0_all"  />
<polygon points="579,35 584,30 662,30 662,40 584,40 579,35 " style="fill:#15d877; stroke-width:1; stroke:black; " description="&lt;b&gt;MFKKBJ_13465&lt;/b&gt;&lt;br&gt;nicotinate phosphoribosyltransferase&lt;br&gt;Location: 2940377 - 2941595" locus_tag="MFKKBJ_13465" class="clusterblast-orf" id="dummy-5_q9_0_all"  />
<polygon points="662,35 667,30 706,30 706,40 667,40 662,35 " style="fill:#1515d8; stroke-width:1; stroke:black; " description="&lt;b&gt;MFKKBJ_13470&lt;/b&gt;&lt;br&gt;Isochorismatase&lt;br&gt;Location: 2941606 - 2942254" locus_tag="MFKKBJ_13470" class="clusterblast-orf" id="dummy-5_q10_0_all"  />
<polygon points="716,40 743,40 748,35 743,30 716,30 716,40 " style="fill:#d81577; stroke-width:1; stroke:black; " description="&lt;b&gt;MFKKBJ_13475&lt;/b&gt;&lt;br&gt;NUDIX hydrolase&lt;br&gt;Location: 2942400 - 2942877" locus_tag="MFKKBJ_13475" class="clusterblast-orf" id="dummy-5_q11_0_all"  />
<polygon points="747,40 758,40 763,35 758,30 747,30 747,40 " style="fill:#d81577; stroke-width:1; stroke:black; " description="&lt;b&gt;MFKKBJ_13480&lt;/b&gt;&lt;br&gt;hypothetical protein&lt;br&gt;Location: 2942860 - 2943094" locus_tag="MFKKBJ_13480" class="clusterblast-orf" id="dummy-5_q12_0_all"  />
</g>
<g label="NZ_CP022960" description="NZ_CP022960 (3989369-4002094): Pseudomonas sp. NS1(2017) strain NS1 chromosome (92% of genes show similarity), hydrogen-cyanide" class="clusterblast-cluster"  >
<text x="5" y="70" class="clusterblast-acc"  >
<a xlink:href="https://antismash-db.secondarymetabolites.org/area?record=NZ_CP022960&amp;start=3989369&amp;end=4002094" target="_blank">NZ_CP022960 (3989369-4002094)</a>: Pseudomonas sp. NS1(2017) strain NS1 chromosome (92% of genes show similarity), hydrogen-cyanide</text>
<line x1="10" y1="85" x2="778.0" y2="85" style="stroke-width:1; stroke:grey; "  />
</g>
<g id="a5_000"  >
<polygon points="0,90 19,90 24,85 19,80 0,80 0,90 " style="fill:white; stroke-width:1; stroke:black; " description="&lt;b&gt;CI807_RS19110&lt;/b&gt;&lt;br&gt;DUF1937 family protein&lt;br&gt;Location: 4001328 - 4000966" locus_tag="CI807_RS19110" class="clusterblast-orf" id="dummy-5_h5_4_0"  />
</g>
<g id="a5_001"  >
<polygon points="33,85 38,80 89,80 89,90 38,90 33,85 " style="fill:#d81515; stroke-width:1; stroke:black; " description="&lt;b&gt;CI807_RS19105&lt;/b&gt;&lt;br&gt;IclR family transcriptional regulator&lt;br&gt;Location: 4000837 - 4000007&lt;br&gt;&lt;br&gt;&lt;b&gt;BlastP hit with MFKKBJ_13420&lt;/b&gt;&lt;br&gt;Percentage identity: 95&lt;br&gt;Percentage coverage: 101&lt;br&gt;BLAST bit score: 503&lt;br&gt;E-value: 8.86e-181" locus_tag="CI807_RS19105" class="clusterblast-orf" id="dummy-5_h5_4_1"  />
</g>
<g id="a5_002"  >
<polygon points="105,90 170,90 175,85 170,80 105,80 105,90 " style="fill:#77d815; stroke-width:1; stroke:black; " description="&lt;b&gt;CI807_RS19100&lt;/b&gt;&lt;br&gt;ABC transporter ATP-binding protein&lt;br&gt;Location: 3999763 - 3998735&lt;br&gt;&lt;br&gt;&lt;b&gt;BlastP hit with MFKKBJ_13425&lt;/b&gt;&lt;br&gt;Percentage identity: 94&lt;br&gt;Percentage coverage: 100&lt;br&gt;BLAST bit score: 630&lt;br&gt;E-value: 8.65e-229" locus_tag="CI807_RS19100" class="clusterblast-orf" id="dummy-5_h5_4_2"  />
</g>
<g id="a5_003"  >
<polygon points="175,90 227,90 232,85 227,80 175,80 175,90 " style="fill:#15d8d8; stroke-width:1; stroke:black; " description="&lt;b&gt;CI807_RS19095&lt;/b&gt;&lt;br&gt;ABC transporter permease&lt;br&gt;Location: 3998738 - 3997893&lt;br&gt;&lt;br&gt;&lt;b&gt;BlastP hit with MFKKBJ_13430&lt;/b&gt;&lt;br&gt;Percentage identity: 97&lt;br&gt;Percentage coverage: 100&lt;br&gt;BLAST bit score: 512&lt;br&gt;E-value: 4.78e-184" locus_tag="CI807_RS19095" class="clusterblast-orf" id="dummy-5_h5_4_3"  />
</g>
<g id="a5_004"  >
<polygon points="232,90 281,90 286,85 281,80 232,80 232,90 " style="fill:#7715d8; stroke-width:1; stroke:black; " description="&lt;b&gt;CI807_RS19090&lt;/b&gt;&lt;br&gt;ABC transporter permease&lt;br&gt;Location: 3997888 - 3997094&lt;br&gt;&lt;br&gt;&lt;b&gt;BlastP hit with MFKKBJ_13435&lt;/b&gt;&lt;br&gt;Percentage identity: 99&lt;br&gt;Percentage coverage: 100&lt;br&gt;BLAST bit score: 479&lt;br&gt;E-value: 8.2e-172" locus_tag="CI807_RS19090" class="clusterblast-orf" id="dummy-5_h5_4_4"  />
</g>
<g id="a5_005"  >
<polygon points="286,90 300,90 305,85 300,80 286,80 286,90 " style="fill:#d87715; stroke-width:1; stroke:black; " description="&lt;b&gt;CI807_RS19085&lt;/b&gt;&lt;br&gt;(2Fe-2S)-binding protein&lt;br&gt;Location: 3997094 - 3996804&lt;br&gt;&lt;br&gt;&lt;b&gt;BlastP hit with MFKKBJ_13440&lt;/b&gt;&lt;br&gt;Percentage identity: 93&lt;br&gt;Percentage coverage: 99&lt;br&gt;BLAST bit score: 182&lt;br&gt;E-value: 1.89e-59" locus_tag="CI807_RS19085" class="clusterblast-orf" id="dummy-5_h5_4_5"  />
</g>
<g id="a5_006"  >
<polygon points="305,90 391,90 396,85 391,80 305,80 305,90 " style="fill:#15d815; stroke-width:1; stroke:black; " description="&lt;b&gt;CI807_RS19080&lt;/b&gt;&lt;br&gt;FAD-dependent oxidoreductase&lt;br&gt;Location: 3996807 - 3995464&lt;br&gt;&lt;br&gt;&lt;b&gt;BlastP hit with MFKKBJ_13445&lt;/b&gt;&lt;br&gt;Percentage identity: 90&lt;br&gt;Percentage coverage: 100&lt;br&gt;BLAST bit score: 812&lt;br&gt;E-value: 3.57e-297" locus_tag="CI807_RS19080" class="clusterblast-orf" id="dummy-5_h5_4_6"  />
</g>
<g id="a5_007"  >
<polygon points="396,90 465,90 470,85 465,80 396,80 396,90 " style="fill:#1577d8; stroke-width:1; stroke:black; " description="&lt;b&gt;CI807_RS19075&lt;/b&gt;&lt;br&gt;FAD-binding oxidoreductase&lt;br&gt;Location: 3995467 - 3994370&lt;br&gt;&lt;br&gt;&lt;b&gt;BlastP hit with MFKKBJ_13450&lt;/b&gt;&lt;br&gt;Percentage identity: 92&lt;br&gt;Percentage coverage: 100&lt;br&gt;BLAST bit score: 672&lt;br&gt;E-value: 1.79e-244" locus_tag="CI807_RS19075" class="clusterblast-orf" id="dummy-5_h5_4_7"  />
</g>
<g id="a5_008"  >
<polygon points="471,90 536,90 541,85 536,80 471,80 471,90 " style="fill:#d815d8; stroke-width:1; stroke:black; " description="&lt;b&gt;CI807_RS19070&lt;/b&gt;&lt;br&gt;ABC transporter substrate-binding protein&lt;br&gt;Location: 3994355 - 3993324&lt;br&gt;&lt;br&gt;&lt;b&gt;BlastP hit with MFKKBJ_13455&lt;/b&gt;&lt;br&gt;Percentage identity: 96&lt;br&gt;Percentage coverage: 100&lt;br&gt;BLAST bit score: 647&lt;br&gt;E-value: 1.3e-235" locus_tag="CI807_RS19070" class="clusterblast-orf" id="dummy-5_h5_4_8"  />
</g>
<g id="a5_009"  >
<polygon points="541,85 546,80 596,80 596,90 546,90 541,85 " style="fill:#d8d815; stroke-width:1; stroke:black; " description="&lt;b&gt;CI807_RS19065&lt;/b&gt;&lt;br&gt;ammonia-dependent NAD(+) synthetase&lt;br&gt;Location: 3993323 - 3992514&lt;br&gt;&lt;br&gt;&lt;b&gt;BlastP hit with MFKKBJ_13460&lt;/b&gt;&lt;br&gt;Percentage identity: 89&lt;br&gt;Percentage coverage: 100&lt;br&gt;BLAST bit score: 460&lt;br&gt;E-value: 7.1e-164" locus_tag="CI807_RS19065" class="clusterblast-orf" id="dummy-5_h5_4_9"  />
</g>
<g id="a5_0010"  >
<polygon points="596,85 601,80 678,80 678,90 601,90 596,85 " style="fill:#15d877; stroke-width:1; stroke:black; " description="&lt;b&gt;CI807_RS19060&lt;/b&gt;&lt;br&gt;nicotinate phosphoribosyltransferase&lt;br&gt;Location: 3992512 - 3991295&lt;br&gt;&lt;br&gt;&lt;b&gt;BlastP hit with MFKKBJ_13465&lt;/b&gt;&lt;br&gt;Percentage identity: 94&lt;br&gt;Percentage coverage: 100&lt;br&gt;BLAST bit score: 779&lt;br&gt;E-value: 1.73e-285" locus_tag="CI807_RS19060" class="clusterblast-orf" id="dummy-5_h5_4_10"  />
</g>
<g id="a5_0011"  >
<polygon points="679,85 684,80 723,80 723,90 684,90 679,85 " style="fill:#1515d8; stroke-width:1; stroke:black; " description="&lt;b&gt;CI807_RS19055&lt;/b&gt;&lt;br&gt;nicotinamidase&lt;br&gt;Location: 3991283 - 3990636&lt;br&gt;&lt;br&gt;&lt;b&gt;BlastP hit with MFKKBJ_13470&lt;/b&gt;&lt;br&gt;Percentage identity: 93&lt;br&gt;Percentage coverage: 100&lt;br&gt;BLAST bit score: 417&lt;br&gt;E-value: 6.68e-149" locus_tag="CI807_RS19055" class="clusterblast-orf" id="dummy-5_h5_4_11"  />
</g>
<g id="a5_0012"  >
<polygon points="733,90 775,90 780,85 775,80 733,80 733,90 " style="fill:#d81577; stroke-width:1; stroke:black; " description="&lt;b&gt;CI807_RS19050&lt;/b&gt;&lt;br&gt;NUDIX hydrolase&lt;br&gt;Location: 3990488 - 3989796&lt;br&gt;&lt;br&gt;&lt;b&gt;BlastP hit with MFKKBJ_13475&lt;/b&gt;&lt;br&gt;Percentage identity: 91&lt;br&gt;Percentage coverage: 96&lt;br&gt;BLAST bit score: 281&lt;br&gt;E-value: 1.38e-95&lt;br&gt;&lt;br&gt;&lt;b&gt;BlastP hit with MFKKBJ_13480&lt;/b&gt;&lt;br&gt;Percentage identity: 88&lt;br&gt;Percentage coverage: 100&lt;br&gt;BLAST bit score: 135&lt;br&gt;E-value: 8.66e-40" locus_tag="CI807_RS19050" class="clusterblast-orf" id="dummy-5_h5_4_12"  />
</g>
</svg>
