<svg xmlns="http://www.w3.org/2000/svg" xmlns:xlink="http://www.w3.org/1999/xlink" version="1.1" x="0" y="0" height="230" width="800" viewBox="0 0 800 230" preserveAspectRatio="none"  >
<g label="Query sequence" class="clusterblast-cluster"  >
<text x="5" y="20" class="clusterblast-acc"  >
Query sequence</text>
<line x1="10" y1="35" x2="778.0" y2="35" style="stroke-width:1; stroke:grey; "  />
<polygon points="0,40 11,40 16,35 11,30 0,30 0,40 " style="fill:#d81515; stroke-width:1; stroke:black; " description="&lt;b&gt;MFKKBJ_07865&lt;/b&gt;&lt;br&gt;Cytochrome b561 bacterial/Ni-hydrogenase domain-containing protein&lt;br&gt;Location: 1664701 - 1665241" locus_tag="MFKKBJ_07865" class="clusterblast-orf" id="dummy-2_q0_0_all"  />
<polygon points="18,35 23,30 52,30 52,40 23,40 18,35 " style="fill:#56d815; stroke-width:1; stroke:black; " description="&lt;b&gt;MFKKBJ_07870&lt;/b&gt;&lt;br&gt;Peptidase M14 carboxypeptidase A domain-containing protein&lt;br&gt;Location: 1665297 - 1666449" locus_tag="MFKKBJ_07870" class="clusterblast-orf" id="dummy-2_q1_0_all"  />
<polygon points="66,35 71,30 77,30 77,40 71,40 66,35 " style="fill:#1597d8; stroke-width:1; stroke:black; " description="&lt;b&gt;MFKKBJ_07880&lt;/b&gt;&lt;br&gt;DUF3077 domain-containing protein&lt;br&gt;Location: 1666911 - 1667262" locus_tag="MFKKBJ_07880" class="clusterblast-orf" id="dummy-2_q2_0_all"  />
<polygon points="81,40 95,40 100,35 95,30 81,30 81,40 " style="fill:#9715d8; stroke-width:1; stroke:black; " description="&lt;b&gt;MFKKBJ_07885&lt;/b&gt;&lt;br&gt;Putative prophage repressor&lt;br&gt;Location: 1667391 - 1668027" locus_tag="MFKKBJ_07885" class="clusterblast-orf" id="dummy-2_q3_0_all"  />
<polygon points="100,35 105,30 158,30 158,40 105,40 100,35 " style="fill:#d85615; stroke-width:1; stroke:black; " description="&lt;b&gt;MFKKBJ_07890&lt;/b&gt;&lt;br&gt;Methylcrotonyl-CoA carboxylase, alpha-subunit LiuD&lt;br&gt;Location: 1668023 - 1669949" locus_tag="MFKKBJ_07890" class="clusterblast-orf" id="dummy-2_q4_0_all"  />
<polygon points="158,35 163,30 182,30 182,40 163,40 158,35 " style="fill:#15d815; stroke-width:1; stroke:black; " description="&lt;b&gt;MFKKBJ_07895&lt;/b&gt;&lt;br&gt;gamma-carboxygeranoyl-CoA hydratase&lt;br&gt;Location: 1669945 - 1670752" locus_tag="MFKKBJ_07895" class="clusterblast-orf" id="dummy-2_q5_0_all"  />
<polygon points="183,35 188,30 231,30 231,40 188,40 183,35 " style="fill:#1556d8; stroke-width:1; stroke:black; " description="&lt;b&gt;MFKKBJ_07900&lt;/b&gt;&lt;br&gt;Acetyl-CoA carboxylase, carboxyltransferase component&lt;br&gt;Location: 1670767 - 1672375" locus_tag="MFKKBJ_07900" class="clusterblast-orf" id="dummy-2_q6_0_all"  />
<polygon points="231,35 236,30 267,30 267,40 236,40 231,35 " style="fill:#d815d8; stroke-width:1; stroke:black; " description="&lt;b&gt;MFKKBJ_07905&lt;/b&gt;&lt;br&gt;Acyl-CoA dehydrogenase related to the alkylation response protein AidB&lt;br&gt;Location: 1672386 - 1673550" locus_tag="MFKKBJ_07905" class="clusterblast-orf" id="dummy-2_q7_0_all"  />
<polygon points="271,40 315,40 320,35 315,30 271,30 271,40 " style="fill:#d89715; stroke-width:1; stroke:black; " description="&lt;b&gt;MFKKBJ_07910&lt;/b&gt;&lt;br&gt;Long-chain-fatty-acid--CoA ligase&lt;br&gt;Location: 1673699 - 1675331" locus_tag="MFKKBJ_07910" class="clusterblast-orf" id="dummy-2_q8_0_all"  />
<polygon points="323,40 473,40 478,35 473,30 323,30 323,40 " style="fill:#15d856; stroke-width:1; stroke:black; " description="&lt;b&gt;MFKKBJ_07915&lt;/b&gt;&lt;br&gt;RING-type E3 ubiquitin transferase&lt;br&gt;Location: 1675429 - 1680568" locus_tag="MFKKBJ_07915" class="clusterblast-orf" id="dummy-2_q9_0_all"  />
<polygon points="495,35 500,30 522,30 522,40 500,40 495,35 " style="fill:#1515d8; stroke-width:1; stroke:black; " description="&lt;b&gt;MFKKBJ_07925&lt;/b&gt;&lt;br&gt;hydroxymethylglutaryl-CoA lyase&lt;br&gt;Location: 1681116 - 1682016" locus_tag="MFKKBJ_07925" class="clusterblast-orf" id="dummy-2_q10_0_all"  />
<polygon points="522,35 527,30 534,30 534,40 527,40 522,35 " style="fill:#d81597; stroke-width:1; stroke:black; " description="&lt;b&gt;MFKKBJ_07930&lt;/b&gt;&lt;br&gt;HTH merR-type domain-containing protein&lt;br&gt;Location: 1682032 - 1682425" locus_tag="MFKKBJ_07930" class="clusterblast-orf" id="dummy-2_q11_0_all"  />
<polygon points="538,35 543,30 566,30 566,40 543,40 538,35 " style="fill:#d8d815; stroke-width:1; stroke:black; " description="&lt;b&gt;MFKKBJ_07935&lt;/b&gt;&lt;br&gt;DNA-binding transcriptional regulator, LysR family&lt;br&gt;Location: 1682562 - 1683498" locus_tag="MFKKBJ_07935" class="clusterblast-orf" id="dummy-2_q12_0_all"  />
<polygon points="571,40 603,40 608,35 603,30 571,30 571,40 " style="fill:#15d897; stroke-width:1; stroke:black; " description="&lt;b&gt;MFKKBJ_07940&lt;/b&gt;&lt;br&gt;Acyl-CoA dehydrogenase related to the alkylation response protein AidB&lt;br&gt;Location: 1683664 - 1684894" locus_tag="MFKKBJ_07940" class="clusterblast-orf" id="dummy-2_q13_0_all"  />
<polygon points="612,35 617,30 652,30 652,40 617,40 612,35 " style="fill:#5615d8; stroke-width:1; stroke:black; " description="&lt;b&gt;MFKKBJ_07945&lt;/b&gt;&lt;br&gt;OmpA-like domain-containing protein&lt;br&gt;Location: 1685010 - 1686342" locus_tag="MFKKBJ_07945" class="clusterblast-orf" id="dummy-2_q14_0_all"  />
<polygon points="656,35 661,30 680,30 680,40 661,40 656,35 " style="fill:#d81556; stroke-width:1; stroke:black; " description="&lt;b&gt;MFKKBJ_07950&lt;/b&gt;&lt;br&gt;exodeoxyribonuclease III&lt;br&gt;Location: 1686465 - 1687278" locus_tag="MFKKBJ_07950" class="clusterblast-orf" id="dummy-2_q15_0_all"  />
<polygon points="685,40 700,40 705,35 700,30 685,30 685,40 " style="fill:#97d815; stroke-width:1; stroke:black; " description="&lt;b&gt;MFKKBJ_07955&lt;/b&gt;&lt;br&gt;N-acetyltransferase domain-containing protein&lt;br&gt;Location: 1687447 - 1688098" locus_tag="MFKKBJ_07955" class="clusterblast-orf" id="dummy-2_q16_0_all"  />
<polygon points="707,40 754,40 759,35 754,30 707,30 707,40 " style="fill:#15d8d8; stroke-width:1; stroke:black; " description="&lt;b&gt;MFKKBJ_07960&lt;/b&gt;&lt;br&gt;Translocation and assembly module subunit TamA&lt;br&gt;Location: 1688161 - 1689889" locus_tag="MFKKBJ_07960" class="clusterblast-orf" id="dummy-2_q17_0_all"  />
<polygon points="759,40 775,40 780,35 775,30 759,30 759,40 " style="fill:white; stroke-width:1; stroke:black; " description="&lt;b&gt;MFKKBJ_07965&lt;/b&gt;&lt;br&gt;hypothetical protein&lt;br&gt;Location: 1689888 - 1690578" locus_tag="MFKKBJ_07965" class="clusterblast-orf" id="dummy-2_q18_0_all"  />
</g>
<g label="NZ_MSDE01000016" description="NZ_MSDE01000016 (598460-626777): Pseudomonas fluorescens strain AH4 PF AH4 co... (100% of genes show similarity), betalactone" class="clusterblast-cluster"  >
<text x="5" y="70" class="clusterblast-acc"  >
<a xlink:href="https://antismash-db.secondarymetabolites.org/area?record=NZ_MSDE01000016&amp;start=598460&amp;end=626777" target="_blank">NZ_MSDE01000016 (598460-626777)</a>: Pseudomonas fluorescens strain AH4 PF AH4 co... (100% of genes show similarity), betalactone</text>
<line x1="10" y1="85" x2="778.0" y2="85" style="stroke-width:1; stroke:grey; "  />
</g>
<g id="a2_000"  >
<polygon points="10,90 21,90 26,85 21,80 10,80 10,90 " style="fill:#d81515; stroke-width:1; stroke:black; " description="&lt;b&gt;BFW86_RS17810&lt;/b&gt;&lt;br&gt;cytochrome b&lt;br&gt;Location: 625776 - 625237&lt;br&gt;&lt;br&gt;&lt;b&gt;BlastP hit with MFKKBJ_07865&lt;/b&gt;&lt;br&gt;Percentage identity: 100&lt;br&gt;Percentage coverage: 100&lt;br&gt;BLAST bit score: 338&lt;br&gt;E-value: 1.56e-118" locus_tag="BFW86_RS17810" class="clusterblast-orf" id="dummy-2_h2_1_0"  />
</g>
<g id="a2_001"  >
<polygon points="28,85 33,80 62,80 62,90 33,90 28,85 " style="fill:#56d815; stroke-width:1; stroke:black; " description="&lt;b&gt;BFW86_RS17805&lt;/b&gt;&lt;br&gt;M14-type cytosolic carboxypeptidase&lt;br&gt;Location: 625180 - 624029&lt;br&gt;&lt;br&gt;&lt;b&gt;BlastP hit with MFKKBJ_07870&lt;/b&gt;&lt;br&gt;Percentage identity: 100&lt;br&gt;Percentage coverage: 100&lt;br&gt;BLAST bit score: 790&lt;br&gt;E-value: 1.66e-290" locus_tag="BFW86_RS17805" class="clusterblast-orf" id="dummy-2_h2_1_1"  />
</g>
<g id="a2_002"  >
<polygon points="76,85 81,80 87,80 87,90 81,90 76,85 " style="fill:#1597d8; stroke-width:1; stroke:black; " description="&lt;b&gt;BFW86_RS17795&lt;/b&gt;&lt;br&gt;DUF3077 domain-containing protein&lt;br&gt;Location: 623566 - 623216&lt;br&gt;&lt;br&gt;&lt;b&gt;BlastP hit with MFKKBJ_07880&lt;/b&gt;&lt;br&gt;Percentage identity: 100&lt;br&gt;Percentage coverage: 100&lt;br&gt;BLAST bit score: 218&lt;br&gt;E-value: 3.74e-73" locus_tag="BFW86_RS17795" class="clusterblast-orf" id="dummy-2_h2_1_2"  />
</g>
<g id="a2_003"  >
<polygon points="87,90 105,90 110,85 105,80 87,80 87,90 " style="fill:#9715d8; stroke-width:1; stroke:black; " description="&lt;b&gt;BFW86_RS17790&lt;/b&gt;&lt;br&gt;LexA family transcriptional regulator&lt;br&gt;Location: 623200 - 622451&lt;br&gt;&lt;br&gt;&lt;b&gt;BlastP hit with MFKKBJ_07885&lt;/b&gt;&lt;br&gt;Percentage identity: 100&lt;br&gt;Percentage coverage: 100&lt;br&gt;BLAST bit score: 436&lt;br&gt;E-value: 6.54e-156" locus_tag="BFW86_RS17790" class="clusterblast-orf" id="dummy-2_h2_1_3"  />
</g>
<g id="a2_004"  >
<polygon points="110,85 115,80 168,80 168,90 115,90 110,85 " style="fill:#d85615; stroke-width:1; stroke:black; " description="&lt;b&gt;BFW86_RS17785&lt;/b&gt;&lt;br&gt;acetyl/propionyl/methylcrotonyl-CoA carboxylase subunit alpha&lt;br&gt;Location: 622454 - 620529&lt;br&gt;&lt;br&gt;&lt;b&gt;BlastP hit with MFKKBJ_07890&lt;/b&gt;&lt;br&gt;Percentage identity: 100&lt;br&gt;Percentage coverage: 100&lt;br&gt;BLAST bit score: 1234&lt;br&gt;E-value: 0.0" locus_tag="BFW86_RS17785" class="clusterblast-orf" id="dummy-2_h2_1_4"  />
</g>
<g id="a2_005"  >
<polygon points="168,85 173,80 192,80 192,90 173,90 168,85 " style="fill:#15d815; stroke-width:1; stroke:black; " description="&lt;b&gt;BFW86_RS17780&lt;/b&gt;&lt;br&gt;gamma-carboxygeranoyl-CoA hydratase&lt;br&gt;Location: 620532 - 619726&lt;br&gt;&lt;br&gt;&lt;b&gt;BlastP hit with MFKKBJ_07895&lt;/b&gt;&lt;br&gt;Percentage identity: 100&lt;br&gt;Percentage coverage: 100&lt;br&gt;BLAST bit score: 516&lt;br&gt;E-value: 2.6e-186" locus_tag="BFW86_RS17780" class="clusterblast-orf" id="dummy-2_h2_1_5"  />
</g>
<g id="a2_006"  >
<polygon points="193,85 198,80 241,80 241,90 198,90 193,85 " style="fill:#1556d8; stroke-width:1; stroke:black; " description="&lt;b&gt;BFW86_RS17775&lt;/b&gt;&lt;br&gt;methylcrotonoyl-CoA carboxylase&lt;br&gt;Location: 619710 - 618103&lt;br&gt;&lt;br&gt;&lt;b&gt;BlastP hit with MFKKBJ_07900&lt;/b&gt;&lt;br&gt;Percentage identity: 100&lt;br&gt;Percentage coverage: 100&lt;br&gt;BLAST bit score: 1065&lt;br&gt;E-value: 0.0" locus_tag="BFW86_RS17775" class="clusterblast-orf" id="dummy-2_h2_1_6"  />
</g>
<g id="a2_007"  >
<polygon points="241,85 246,80 276,80 276,90 246,90 241,85 " style="fill:#d815d8; stroke-width:1; stroke:black; " description="&lt;b&gt;BFW86_RS17770&lt;/b&gt;&lt;br&gt;isovaleryl-CoA dehydrogenase&lt;br&gt;Location: 618091 - 616928&lt;br&gt;&lt;br&gt;&lt;b&gt;BlastP hit with MFKKBJ_07905&lt;/b&gt;&lt;br&gt;Percentage identity: 100&lt;br&gt;Percentage coverage: 100&lt;br&gt;BLAST bit score: 773&lt;br&gt;E-value: 1.16e-283" locus_tag="BFW86_RS17770" class="clusterblast-orf" id="dummy-2_h2_1_7"  />
</g>
<g id="a2_008"  >
<polygon points="281,90 325,90 330,85 325,80 281,80 281,90 " style="fill:#d89715; stroke-width:1; stroke:black; " description="&lt;b&gt;BFW86_RS17765&lt;/b&gt;&lt;br&gt;AMP-binding protein&lt;br&gt;Location: 616777 - 615146&lt;br&gt;&lt;br&gt;&lt;b&gt;BlastP hit with MFKKBJ_07910&lt;/b&gt;&lt;br&gt;Percentage identity: 100&lt;br&gt;Percentage coverage: 100&lt;br&gt;BLAST bit score: 1122&lt;br&gt;E-value: 0.0" locus_tag="BFW86_RS17765" class="clusterblast-orf" id="dummy-2_h2_1_8"  />
</g>
<g id="a2_009"  >
<polygon points="333,90 483,90 488,85 483,80 333,80 333,90 " style="fill:#15d856; stroke-width:1; stroke:black; " description="&lt;b&gt;BFW86_RS17760&lt;/b&gt;&lt;br&gt;hypothetical protein&lt;br&gt;Location: 615047 - 609909&lt;br&gt;&lt;br&gt;&lt;b&gt;BlastP hit with MFKKBJ_07915&lt;/b&gt;&lt;br&gt;Percentage identity: 100&lt;br&gt;Percentage coverage: 100&lt;br&gt;BLAST bit score: 3334&lt;br&gt;E-value: 0.0" locus_tag="BFW86_RS17760" class="clusterblast-orf" id="dummy-2_h2_1_9"  />
</g>
<g id="a2_0010"  >
<polygon points="505,85 510,80 532,80 532,90 510,90 505,85 " style="fill:#1515d8; stroke-width:1; stroke:black; " description="&lt;b&gt;BFW86_RS17755&lt;/b&gt;&lt;br&gt;hydroxymethylglutaryl-CoA lyase&lt;br&gt;Location: 609360 - 608461&lt;br&gt;&lt;br&gt;&lt;b&gt;BlastP hit with MFKKBJ_07925&lt;/b&gt;&lt;br&gt;Percentage identity: 100&lt;br&gt;Percentage coverage: 100&lt;br&gt;BLAST bit score: 575&lt;br&gt;E-value: 1.36e-208" locus_tag="BFW86_RS17755" class="clusterblast-orf" id="dummy-2_h2_1_10"  />
</g>
<g id="a2_0011"  >
<polygon points="532,85 537,80 544,80 544,90 537,90 532,85 " style="fill:#d81597; stroke-width:1; stroke:black; " description="&lt;b&gt;BFW86_RS17750&lt;/b&gt;&lt;br&gt;MerR family DNA-binding transcriptional regulator&lt;br&gt;Location: 608444 - 608052&lt;br&gt;&lt;br&gt;&lt;b&gt;BlastP hit with MFKKBJ_07930&lt;/b&gt;&lt;br&gt;Percentage identity: 100&lt;br&gt;Percentage coverage: 100&lt;br&gt;BLAST bit score: 244&lt;br&gt;E-value: 6.36e-83" locus_tag="BFW86_RS17750" class="clusterblast-orf" id="dummy-2_h2_1_11"  />
</g>
<g id="a2_0012"  >
<polygon points="548,85 553,80 576,80 576,90 553,90 548,85 " style="fill:#d8d815; stroke-width:1; stroke:black; " description="&lt;b&gt;BFW86_RS17745&lt;/b&gt;&lt;br&gt;LysR family transcriptional regulator&lt;br&gt;Location: 607914 - 606979&lt;br&gt;&lt;br&gt;&lt;b&gt;BlastP hit with MFKKBJ_07935&lt;/b&gt;&lt;br&gt;Percentage identity: 100&lt;br&gt;Percentage coverage: 100&lt;br&gt;BLAST bit score: 615&lt;br&gt;E-value: 6.87e-224" locus_tag="BFW86_RS17745" class="clusterblast-orf" id="dummy-2_h2_1_12"  />
</g>
<g id="a2_0013"  >
<polygon points="581,90 613,90 618,85 613,80 581,80 581,90 " style="fill:#15d897; stroke-width:1; stroke:black; " description="&lt;b&gt;BFW86_RS17740&lt;/b&gt;&lt;br&gt;acyl-CoA dehydrogenase&lt;br&gt;Location: 606812 - 605583&lt;br&gt;&lt;br&gt;&lt;b&gt;BlastP hit with MFKKBJ_07940&lt;/b&gt;&lt;br&gt;Percentage identity: 100&lt;br&gt;Percentage coverage: 100&lt;br&gt;BLAST bit score: 829&lt;br&gt;E-value: 2.54e-305" locus_tag="BFW86_RS17740" class="clusterblast-orf" id="dummy-2_h2_1_13"  />
</g>
<g id="a2_0014"  >
<polygon points="622,85 627,80 662,80 662,90 627,90 622,85 " style="fill:#5615d8; stroke-width:1; stroke:black; " description="&lt;b&gt;BFW86_RS17735&lt;/b&gt;&lt;br&gt;phosphate ABC transporter substrate-binding/OmpA family protein&lt;br&gt;Location: 605466 - 604135&lt;br&gt;&lt;br&gt;&lt;b&gt;BlastP hit with MFKKBJ_07945&lt;/b&gt;&lt;br&gt;Percentage identity: 100&lt;br&gt;Percentage coverage: 100&lt;br&gt;BLAST bit score: 838&lt;br&gt;E-value: 8.01e-308" locus_tag="BFW86_RS17735" class="clusterblast-orf" id="dummy-2_h2_1_14"  />
</g>
<g id="a2_0015"  >
<polygon points="666,85 671,80 690,80 690,90 671,90 666,85 " style="fill:#d81556; stroke-width:1; stroke:black; " description="&lt;b&gt;BFW86_RS17730&lt;/b&gt;&lt;br&gt;exodeoxyribonuclease III&lt;br&gt;Location: 604005 - 603193&lt;br&gt;&lt;br&gt;&lt;b&gt;BlastP hit with MFKKBJ_07950&lt;/b&gt;&lt;br&gt;Percentage identity: 100&lt;br&gt;Percentage coverage: 100&lt;br&gt;BLAST bit score: 567&lt;br&gt;E-value: 2.27e-206" locus_tag="BFW86_RS17730" class="clusterblast-orf" id="dummy-2_h2_1_15"  />
</g>
<g id="a2_0016"  >
<polygon points="696,90 710,90 715,85 710,80 696,80 696,90 " style="fill:#97d815; stroke-width:1; stroke:black; " description="&lt;b&gt;BFW86_RS17725&lt;/b&gt;&lt;br&gt;GNAT family N-acetyltransferase&lt;br&gt;Location: 603023 - 602373&lt;br&gt;&lt;br&gt;&lt;b&gt;BlastP hit with MFKKBJ_07955&lt;/b&gt;&lt;br&gt;Percentage identity: 100&lt;br&gt;Percentage coverage: 100&lt;br&gt;BLAST bit score: 447&lt;br&gt;E-value: 9.2e-161" locus_tag="BFW86_RS17725" class="clusterblast-orf" id="dummy-2_h2_1_16"  />
</g>
<g id="a2_0017"  >
<polygon points="717,90 764,90 769,85 764,80 717,80 717,90 " style="fill:#15d8d8; stroke-width:1; stroke:black; " description="&lt;b&gt;BFW86_RS17720&lt;/b&gt;&lt;br&gt;autotransporter assembly complex protein TamA&lt;br&gt;Location: 602309 - 600582&lt;br&gt;&lt;br&gt;&lt;b&gt;BlastP hit with MFKKBJ_07960&lt;/b&gt;&lt;br&gt;Percentage identity: 100&lt;br&gt;Percentage coverage: 100&lt;br&gt;BLAST bit score: 1177&lt;br&gt;E-value: 0.0" locus_tag="BFW86_RS17720" class="clusterblast-orf" id="dummy-2_h2_1_17"  />
</g>
</svg>
