<svg xmlns="http://www.w3.org/2000/svg" xmlns:xlink="http://www.w3.org/1999/xlink" version="1.1" x="0" y="0" height="230" width="800" viewBox="0 0 800 230" preserveAspectRatio="none"  >
<g label="Query sequence" class="clusterblast-cluster"  >
<text x="5" y="20" class="clusterblast-acc"  >
Query sequence</text>
<line x1="10" y1="35" x2="778.0" y2="35" style="stroke-width:1; stroke:grey; "  />
<polygon points="233,35 238,30 256,30 256,40 238,40 233,35 " style="fill:#d81515; stroke-width:1; stroke:black; " description="&lt;b&gt;MFKKBJ_12140&lt;/b&gt;&lt;br&gt;Transcriptional regulator, AraC family&lt;br&gt;Location: 2624271 - 2625141" locus_tag="MFKKBJ_12140" class="clusterblast-orf" id="dummy-4_q0_0_all"  />
<polygon points="261,40 272,40 277,35 272,30 261,30 261,40 " style="fill:#3cd815; stroke-width:1; stroke:black; " description="&lt;b&gt;MFKKBJ_12145&lt;/b&gt;&lt;br&gt;Lysine transporter LysE&lt;br&gt;Location: 2625329 - 2625950" locus_tag="MFKKBJ_12145" class="clusterblast-orf" id="dummy-4_q1_0_all"  />
<polygon points="279,40 286,40 291,35 286,30 279,30 279,40 " style="fill:#1563d8; stroke-width:1; stroke:black; " description="&lt;b&gt;MFKKBJ_12150&lt;/b&gt;&lt;br&gt;PhnB-like domain-containing protein&lt;br&gt;Location: 2626025 - 2626508" locus_tag="MFKKBJ_12150" class="clusterblast-orf" id="dummy-4_q2_0_all"  />
<polygon points="294,40 310,40 315,35 310,30 294,30 294,40 " style="fill:#b115d8; stroke-width:1; stroke:black; " description="&lt;b&gt;MFKKBJ_12155&lt;/b&gt;&lt;br&gt;cysteine synthase family protein&lt;br&gt;Location: 2626609 - 2627401" locus_tag="MFKKBJ_12155" class="clusterblast-orf" id="dummy-4_q3_0_all"  />
<polygon points="315,40 325,40 330,35 325,30 315,30 315,40 " style="fill:#b115d8; stroke-width:1; stroke:black; " description="&lt;b&gt;MFKKBJ_12160&lt;/b&gt;&lt;br&gt;CBS domain-containing protein&lt;br&gt;Location: 2627401 - 2627986" locus_tag="MFKKBJ_12160" class="clusterblast-orf" id="dummy-4_q4_0_all"  />
<polygon points="330,40 355,40 360,35 355,30 330,30 330,40 " style="fill:#d88a15; stroke-width:1; stroke:black; " description="&lt;b&gt;MFKKBJ_12165&lt;/b&gt;&lt;br&gt;cystathionine gamma-synthase&lt;br&gt;Location: 2627982 - 2629149" locus_tag="MFKKBJ_12165" class="clusterblast-orf" id="dummy-4_q5_0_all"  />
<polygon points="362,35 367,30 419,30 419,40 367,40 362,35 " style="fill:#15d863; stroke-width:1; stroke:black; " description="&lt;b&gt;MFKKBJ_12170&lt;/b&gt;&lt;br&gt;OsmC domain/YcaO domain-containing protein&lt;br&gt;Location: 2629201 - 2631403" locus_tag="MFKKBJ_12170" class="clusterblast-orf" id="dummy-4_q6_0_all"  />
<polygon points="423,40 425,40 430,35 425,30 423,30 423,40 " style="fill:#3c15d8; stroke-width:1; stroke:black; " description="&lt;b&gt;MFKKBJ_12175&lt;/b&gt;&lt;br&gt;PAS domain-containing protein&lt;br&gt;Location: 2631564 - 2631834" locus_tag="MFKKBJ_12175" class="clusterblast-orf" id="dummy-4_q7_0_all"  />
<polygon points="430,35 435,30 439,30 439,40 435,40 430,35 " style="fill:#15d863; stroke-width:1; stroke:black; " description="&lt;b&gt;MFKKBJ_12180&lt;/b&gt;&lt;br&gt;Osmotically inducible protein OsmC&lt;br&gt;Location: 2631823 - 2632174" locus_tag="MFKKBJ_12180" class="clusterblast-orf" id="dummy-4_q8_0_all"  />
<polygon points="443,40 479,40 484,35 479,30 443,30 443,40 " style="fill:#3c15d8; stroke-width:1; stroke:black; " description="&lt;b&gt;MFKKBJ_12185&lt;/b&gt;&lt;br&gt;Methyl-accepting transducer domain-containing protein&lt;br&gt;Location: 2632335 - 2633901" locus_tag="MFKKBJ_12185" class="clusterblast-orf" id="dummy-4_q9_0_all"  />
<polygon points="491,40 507,40 512,35 507,30 491,30 491,40 " style="fill:#d8158a; stroke-width:1; stroke:black; " description="&lt;b&gt;MFKKBJ_12190&lt;/b&gt;&lt;br&gt;Suppressor of fused-like domain-containing protein&lt;br&gt;Location: 2634149 - 2634959" locus_tag="MFKKBJ_12190" class="clusterblast-orf" id="dummy-4_q10_0_all"  />
<polygon points="512,40 522,40 527,35 522,30 512,30 512,40 " style="fill:#b1d815; stroke-width:1; stroke:black; " description="&lt;b&gt;MFKKBJ_12195&lt;/b&gt;&lt;br&gt;hypothetical protein&lt;br&gt;Location: 2634958 - 2635540" locus_tag="MFKKBJ_12195" class="clusterblast-orf" id="dummy-4_q11_0_all"  />
<polygon points="532,40 541,40 546,35 541,30 532,30 532,40 " style="fill:#15d8d8; stroke-width:1; stroke:black; " description="&lt;b&gt;MFKKBJ_12200&lt;/b&gt;&lt;br&gt;Hydrolase, isochorismatase family&lt;br&gt;Location: 2635719 - 2636280" locus_tag="MFKKBJ_12200" class="clusterblast-orf" id="dummy-4_q12_0_all"  />
</g>
<g label="NZ_JACHCZ010000001" description="NZ_JACHCZ010000001 (616052-646827): Pseudomonas sp. JAI120 Ga0401626 01, whol... (26% of genes show similarity), thiopeptide" class="clusterblast-cluster"  >
<text x="5" y="70" class="clusterblast-acc"  >
<a xlink:href="https://antismash-db.secondarymetabolites.org/area?record=NZ_JACHCZ010000001&amp;start=616052&amp;end=646827" target="_blank">NZ_JACHCZ010000001 (616052-646827)</a>: Pseudomonas sp. JAI120 Ga0401626 01, whol... (26% of genes show similarity), thiopeptide</text>
<line x1="10" y1="85" x2="778.0" y2="85" style="stroke-width:1; stroke:grey; "  />
</g>
<g id="a4_000"  >
<polygon points="0,90 4,85 0,80 0,90 " style="fill:white; stroke-width:1; stroke:black; " description="&lt;b&gt;HDC32_RS02850&lt;/b&gt;&lt;br&gt;hypothetical protein&lt;br&gt;Location: 616505 - 616687" locus_tag="HDC32_RS02850" class="clusterblast-orf" id="dummy-4_h4_4_0"  />
</g>
<g id="a4_001"  >
<polygon points="5,85 10,80 25,80 25,90 10,90 5,85 " style="fill:white; stroke-width:1; stroke:black; " description="&lt;b&gt;HDC32_RS02855&lt;/b&gt;&lt;br&gt;class I SAM-dependent methyltransferase&lt;br&gt;Location: 616731 - 617474" locus_tag="HDC32_RS02855" class="clusterblast-orf" id="dummy-4_h4_4_1"  />
</g>
<g id="a4_002"  >
<polygon points="27,90 32,90 37,85 32,80 27,80 27,90 " style="fill:white; stroke-width:1; stroke:black; " description="&lt;b&gt;HDC32_RS02860&lt;/b&gt;&lt;br&gt;VOC family protein&lt;br&gt;Location: 617578 - 617934" locus_tag="HDC32_RS02860" class="clusterblast-orf" id="dummy-4_h4_4_2"  />
</g>
<g id="a4_003"  >
<polygon points="38,85 43,80 61,80 61,90 43,90 38,85 " style="fill:#d81515; stroke-width:1; stroke:black; " description="&lt;b&gt;HDC32_RS02865&lt;/b&gt;&lt;br&gt;AraC family transcriptional regulator&lt;br&gt;Location: 617998 - 618858&lt;br&gt;&lt;br&gt;&lt;b&gt;BlastP hit with MFKKBJ_12140&lt;/b&gt;&lt;br&gt;Percentage identity: 85&lt;br&gt;Percentage coverage: 98&lt;br&gt;BLAST bit score: 488&lt;br&gt;E-value: 2.21e-174" locus_tag="HDC32_RS02865" class="clusterblast-orf" id="dummy-4_h4_4_3"  />
</g>
<g id="a4_004"  >
<polygon points="64,85 69,80 75,80 75,90 69,90 64,85 " style="fill:white; stroke-width:1; stroke:black; " description="&lt;b&gt;HDC32_RS02870&lt;/b&gt;&lt;br&gt;RidA family protein&lt;br&gt;Location: 618980 - 619390" locus_tag="HDC32_RS02870" class="clusterblast-orf" id="dummy-4_h4_4_4"  />
</g>
<g id="a4_005"  >
<polygon points="78,90 98,90 103,85 98,80 78,80 78,90 " style="fill:white; stroke-width:1; stroke:black; " description="&lt;b&gt;HDC32_RS02875&lt;/b&gt;&lt;br&gt;LysR family transcriptional regulator&lt;br&gt;Location: 619528 - 620481" locus_tag="HDC32_RS02875" class="clusterblast-orf" id="dummy-4_h4_4_5"  />
</g>
<g id="a4_006"  >
<polygon points="103,90 103,90 108,85 103,80 103,80 103,90 " style="fill:white; stroke-width:1; stroke:black; " description="&lt;b&gt;HDC32_RS02880&lt;/b&gt;&lt;br&gt;hypothetical protein&lt;br&gt;Location: 620478 - 620645" locus_tag="HDC32_RS02880" class="clusterblast-orf" id="dummy-4_h4_4_6"  />
</g>
<g id="a4_007"  >
<polygon points="109,90 120,90 125,85 120,80 109,80 109,90 " style="fill:#b1d815; stroke-width:1; stroke:black; " description="&lt;b&gt;HDC32_RS02885&lt;/b&gt;&lt;br&gt;hypothetical protein&lt;br&gt;Location: 620720 - 621304&lt;br&gt;&lt;br&gt;&lt;b&gt;BlastP hit with MFKKBJ_12195&lt;/b&gt;&lt;br&gt;Percentage identity: 57&lt;br&gt;Percentage coverage: 101&lt;br&gt;BLAST bit score: 224&lt;br&gt;E-value: 2.67e-73" locus_tag="HDC32_RS02885" class="clusterblast-orf" id="dummy-4_h4_4_7"  />
</g>
<g id="a4_008"  >
<polygon points="128,90 130,85 128,80 128,90 " style="fill:white; stroke-width:1; stroke:black; " description="&lt;b&gt;HDC32_RS31965&lt;/b&gt;&lt;br&gt;hypothetical protein&lt;br&gt;Location: 621431 - 621508" locus_tag="HDC32_RS31965" class="clusterblast-orf" id="dummy-4_h4_4_8"  />
</g>
<g id="a4_009"  >
<polygon points="133,90 139,90 144,85 139,80 133,80 133,90 " style="fill:white; stroke-width:1; stroke:black; " description="&lt;b&gt;HDC32_RS02890&lt;/b&gt;&lt;br&gt;DUF3592 domain-containing protein&lt;br&gt;Location: 621617 - 622054" locus_tag="HDC32_RS02890" class="clusterblast-orf" id="dummy-4_h4_4_9"  />
</g>
<g id="a4_0010"  >
<polygon points="145,90 155,90 160,85 155,80 145,80 145,90 " style="fill:white; stroke-width:1; stroke:black; " description="&lt;b&gt;HDC32_RS02895&lt;/b&gt;&lt;br&gt;hypothetical protein&lt;br&gt;Location: 622065 - 622643" locus_tag="HDC32_RS02895" class="clusterblast-orf" id="dummy-4_h4_4_10"  />
</g>
<g id="a4_0011"  >
<polygon points="165,85 170,80 188,80 188,90 170,90 165,85 " style="fill:white; stroke-width:1; stroke:black; " description="&lt;b&gt;HDC32_RS02900&lt;/b&gt;&lt;br&gt;LysR substrate-binding domain-containing protein&lt;br&gt;Location: 622851 - 623732" locus_tag="HDC32_RS02900" class="clusterblast-orf" id="dummy-4_h4_4_11"  />
</g>
<g id="a4_0012"  >
<polygon points="191,90 199,90 204,85 199,80 191,80 191,90 " style="fill:white; stroke-width:1; stroke:black; " description="&lt;b&gt;HDC32_RS02905&lt;/b&gt;&lt;br&gt;heme-binding protein&lt;br&gt;Location: 623843 - 624334" locus_tag="HDC32_RS02905" class="clusterblast-orf" id="dummy-4_h4_4_12"  />
</g>
<g id="a4_0013"  >
<polygon points="206,90 219,90 224,85 219,80 206,80 206,90 " style="fill:white; stroke-width:1; stroke:black; " description="&lt;b&gt;HDC32_RS02910&lt;/b&gt;&lt;br&gt;HAD hydrolase-like protein&lt;br&gt;Location: 624435 - 625118" locus_tag="HDC32_RS02910" class="clusterblast-orf" id="dummy-4_h4_4_13"  />
</g>
<g id="a4_0014"  >
<polygon points="232,90 243,90 248,85 243,80 232,80 232,90 " style="fill:#3cd815; stroke-width:1; stroke:black; " description="&lt;b&gt;HDC32_RS02915&lt;/b&gt;&lt;br&gt;LysE family translocator&lt;br&gt;Location: 625422 - 626042&lt;br&gt;&lt;br&gt;&lt;b&gt;BlastP hit with MFKKBJ_12145&lt;/b&gt;&lt;br&gt;Percentage identity: 91&lt;br&gt;Percentage coverage: 100&lt;br&gt;BLAST bit score: 362&lt;br&gt;E-value: 3.01e-127" locus_tag="HDC32_RS02915" class="clusterblast-orf" id="dummy-4_h4_4_14"  />
</g>
<g id="a4_0015"  >
<polygon points="249,90 254,90 259,85 254,80 249,80 249,90 " style="fill:white; stroke-width:1; stroke:black; " description="&lt;b&gt;HDC32_RS02920&lt;/b&gt;&lt;br&gt;ester cyclase&lt;br&gt;Location: 626053 - 626445" locus_tag="HDC32_RS02920" class="clusterblast-orf" id="dummy-4_h4_4_15"  />
</g>
<g id="a4_0016"  >
<polygon points="260,90 267,90 272,85 267,80 260,80 260,90 " style="fill:#1563d8; stroke-width:1; stroke:black; " description="&lt;b&gt;HDC32_RS02925&lt;/b&gt;&lt;br&gt;VOC family protein&lt;br&gt;Location: 626480 - 626959&lt;br&gt;&lt;br&gt;&lt;b&gt;BlastP hit with MFKKBJ_12150&lt;/b&gt;&lt;br&gt;Percentage identity: 86&lt;br&gt;Percentage coverage: 99&lt;br&gt;BLAST bit score: 293&lt;br&gt;E-value: 2.49e-101" locus_tag="HDC32_RS02925" class="clusterblast-orf" id="dummy-4_h4_4_16"  />
</g>
<g id="a4_0017"  >
<polygon points="274,90 295,90 300,85 295,80 274,80 274,90 " style="fill:white; stroke-width:1; stroke:black; " description="&lt;b&gt;HDC32_RS02930&lt;/b&gt;&lt;br&gt;alpha/beta hydrolase&lt;br&gt;Location: 627043 - 628020" locus_tag="HDC32_RS02930" class="clusterblast-orf" id="dummy-4_h4_4_17"  />
</g>
<g id="a4_0018"  >
<polygon points="307,90 325,90 330,85 325,80 307,80 307,90 " style="fill:white; stroke-width:1; stroke:black; " description="&lt;b&gt;HDC32_RS02935&lt;/b&gt;&lt;br&gt;4-hydroxy-tetrahydrodipicolinate synthase&lt;br&gt;Location: 628301 - 629164" locus_tag="HDC32_RS02935" class="clusterblast-orf" id="dummy-4_h4_4_18"  />
</g>
<g id="a4_0019"  >
<polygon points="331,85 336,80 349,80 349,90 336,90 331,85 " style="fill:white; stroke-width:1; stroke:black; " description="&lt;b&gt;HDC32_RS02940&lt;/b&gt;&lt;br&gt;GntR family transcriptional regulator&lt;br&gt;Location: 629226 - 629918" locus_tag="HDC32_RS02940" class="clusterblast-orf" id="dummy-4_h4_4_19"  />
</g>
<g id="a4_0020"  >
<polygon points="350,85 355,80 396,80 396,90 355,90 350,85 " style="fill:white; stroke-width:1; stroke:black; " description="&lt;b&gt;HDC32_RS02945&lt;/b&gt;&lt;br&gt;allophanate hydrolase&lt;br&gt;Location: 629921 - 631717" locus_tag="HDC32_RS02945" class="clusterblast-orf" id="dummy-4_h4_4_20"  />
</g>
<g id="a4_0021"  >
<polygon points="403,90 434,90 439,85 434,80 403,80 403,90 " style="fill:#b115d8; stroke-width:1; stroke:black; " description="&lt;b&gt;HDC32_RS02950&lt;/b&gt;&lt;br&gt;cystathionine beta-synthase&lt;br&gt;Location: 631965 - 633341&lt;br&gt;&lt;br&gt;&lt;b&gt;BlastP hit with MFKKBJ_12155&lt;/b&gt;&lt;br&gt;Percentage identity: 96&lt;br&gt;Percentage coverage: 100&lt;br&gt;BLAST bit score: 503&lt;br&gt;E-value: 5.89e-178&lt;br&gt;&lt;br&gt;&lt;b&gt;BlastP hit with MFKKBJ_12160&lt;/b&gt;&lt;br&gt;Percentage identity: 91&lt;br&gt;Percentage coverage: 100&lt;br&gt;BLAST bit score: 348&lt;br&gt;E-value: 3.82e-118" locus_tag="HDC32_RS02950" class="clusterblast-orf" id="dummy-4_h4_4_21"  />
</g>
<g id="a4_0022"  >
<polygon points="439,90 464,90 469,85 464,80 439,80 439,90 " style="fill:#d88a15; stroke-width:1; stroke:black; " description="&lt;b&gt;HDC32_RS02955&lt;/b&gt;&lt;br&gt;cystathionine gamma-synthase&lt;br&gt;Location: 633338 - 634504&lt;br&gt;&lt;br&gt;&lt;b&gt;BlastP hit with MFKKBJ_12165&lt;/b&gt;&lt;br&gt;Percentage identity: 95&lt;br&gt;Percentage coverage: 100&lt;br&gt;BLAST bit score: 732&lt;br&gt;E-value: 1.8e-267" locus_tag="HDC32_RS02955" class="clusterblast-orf" id="dummy-4_h4_4_22"  />
</g>
<g id="a4_0023"  >
<polygon points="472,85 477,80 530,80 530,90 477,90 472,85 " style="fill:#15d863; stroke-width:1; stroke:black; " description="&lt;b&gt;HDC32_RS02960&lt;/b&gt;&lt;br&gt;OsmC domain/YcaO domain-containing protein&lt;br&gt;Location: 634629 - 636827&lt;br&gt;&lt;br&gt;&lt;b&gt;BlastP hit with MFKKBJ_12170&lt;/b&gt;&lt;br&gt;Percentage identity: 96&lt;br&gt;Percentage coverage: 100&lt;br&gt;BLAST bit score: 1414&lt;br&gt;E-value: 0.0&lt;br&gt;&lt;br&gt;&lt;b&gt;BlastP hit with MFKKBJ_12180&lt;/b&gt;&lt;br&gt;Percentage identity: 98&lt;br&gt;Percentage coverage: 99&lt;br&gt;BLAST bit score: 230&lt;br&gt;E-value: 6.48e-71" locus_tag="HDC32_RS02960" class="clusterblast-orf" id="dummy-4_h4_4_23"  />
</g>
<g id="a4_0024"  >
<polygon points="534,90 570,90 575,85 570,80 534,80 534,90 " style="fill:#3c15d8; stroke-width:1; stroke:black; " description="&lt;b&gt;HDC32_RS02965&lt;/b&gt;&lt;br&gt;methyl-accepting chemotaxis protein&lt;br&gt;Location: 636991 - 638556&lt;br&gt;&lt;br&gt;&lt;b&gt;BlastP hit with MFKKBJ_12175&lt;/b&gt;&lt;br&gt;Percentage identity: 90&lt;br&gt;Percentage coverage: 100&lt;br&gt;BLAST bit score: 169&lt;br&gt;E-value: 1.15e-49&lt;br&gt;&lt;br&gt;&lt;b&gt;BlastP hit with MFKKBJ_12185&lt;/b&gt;&lt;br&gt;Percentage identity: 88&lt;br&gt;Percentage coverage: 100&lt;br&gt;BLAST bit score: 820&lt;br&gt;E-value: 9.67e-298" locus_tag="HDC32_RS02965" class="clusterblast-orf" id="dummy-4_h4_4_24"  />
</g>
<g id="a4_0025"  >
<polygon points="580,90 600,90 605,85 600,80 580,80 580,90 " style="fill:white; stroke-width:1; stroke:black; " description="&lt;b&gt;HDC32_RS02970&lt;/b&gt;&lt;br&gt;DMT family transporter&lt;br&gt;Location: 638765 - 639700" locus_tag="HDC32_RS02970" class="clusterblast-orf" id="dummy-4_h4_4_25"  />
</g>
<g id="a4_0026"  >
<polygon points="609,90 639,90 644,85 639,80 609,80 609,90 " style="fill:white; stroke-width:1; stroke:black; " description="&lt;b&gt;HDC32_RS02975&lt;/b&gt;&lt;br&gt;MFS transporter&lt;br&gt;Location: 639851 - 641188" locus_tag="HDC32_RS02975" class="clusterblast-orf" id="dummy-4_h4_4_26"  />
</g>
<g id="a4_0027"  >
<polygon points="648,90 655,90 660,85 655,80 648,80 648,90 " style="fill:white; stroke-width:1; stroke:black; " description="&lt;b&gt;HDC32_RS02980&lt;/b&gt;&lt;br&gt;thiol-disulfide oxidoreductase DCC family protein&lt;br&gt;Location: 641363 - 641815" locus_tag="HDC32_RS02980" class="clusterblast-orf" id="dummy-4_h4_4_27"  />
</g>
<g id="a4_0028"  >
<polygon points="661,85 666,80 674,80 674,90 666,90 661,85 " style="fill:white; stroke-width:1; stroke:black; " description="&lt;b&gt;HDC32_RS02985&lt;/b&gt;&lt;br&gt;DUF2269 domain-containing protein&lt;br&gt;Location: 641871 - 642368" locus_tag="HDC32_RS02985" class="clusterblast-orf" id="dummy-4_h4_4_28"  />
</g>
<g id="a4_0029"  >
<polygon points="674,85 679,80 704,80 704,90 679,90 674,85 " style="fill:white; stroke-width:1; stroke:black; " description="&lt;b&gt;HDC32_RS02990&lt;/b&gt;&lt;br&gt;saccharopine dehydrogenase NADP-binding domain-containing protein&lt;br&gt;Location: 642372 - 643499" locus_tag="HDC32_RS02990" class="clusterblast-orf" id="dummy-4_h4_4_29"  />
</g>
<g id="a4_0030"  >
<polygon points="707,85 712,80 744,80 744,90 712,90 707,85 " style="fill:white; stroke-width:1; stroke:black; " description="&lt;b&gt;HDC32_RS02995&lt;/b&gt;&lt;br&gt;hypothetical protein&lt;br&gt;Location: 643630 - 645036" locus_tag="HDC32_RS02995" class="clusterblast-orf" id="dummy-4_h4_4_30"  />
</g>
<g id="a4_0031"  >
<polygon points="747,90 757,90 762,85 757,80 747,80 747,90 " style="fill:#15d8d8; stroke-width:1; stroke:black; " description="&lt;b&gt;HDC32_RS03000&lt;/b&gt;&lt;br&gt;cysteine hydrolase&lt;br&gt;Location: 645165 - 645728&lt;br&gt;&lt;br&gt;&lt;b&gt;BlastP hit with MFKKBJ_12200&lt;/b&gt;&lt;br&gt;Percentage identity: 86&lt;br&gt;Percentage coverage: 98&lt;br&gt;BLAST bit score: 325&lt;br&gt;E-value: 4.19e-113" locus_tag="HDC32_RS03000" class="clusterblast-orf" id="dummy-4_h4_4_31"  />
</g>
<g id="a4_0032"  >
<polygon points="762,85 767,80 774,80 774,90 767,90 762,85 " style="fill:white; stroke-width:1; stroke:black; " description="&lt;b&gt;HDC32_RS03005&lt;/b&gt;&lt;br&gt;NUDIX domain-containing protein&lt;br&gt;Location: 645712 - 646173" locus_tag="HDC32_RS03005" class="clusterblast-orf" id="dummy-4_h4_4_32"  />
</g>
<g id="a4_0033"  >
<polygon points="774,90 775,90 780,85 775,80 774,80 774,90 " style="fill:white; stroke-width:1; stroke:black; " description="&lt;b&gt;HDC32_RS03010&lt;/b&gt;&lt;br&gt;hypothetical protein&lt;br&gt;Location: 646204 - 646398" locus_tag="HDC32_RS03010" class="clusterblast-orf" id="dummy-4_h4_4_33"  />
</g>
</svg>
