<svg xmlns="http://www.w3.org/2000/svg" xmlns:xlink="http://www.w3.org/1999/xlink" version="1.1" x="0" y="0" height="230" width="800" viewBox="0 0 800 230" preserveAspectRatio="none"  >
<g label="Query sequence" class="clusterblast-cluster"  >
<text x="5" y="20" class="clusterblast-acc"  >
Query sequence</text>
<line x1="10" y1="35" x2="778.0" y2="35" style="stroke-width:1; stroke:grey; "  />
<polygon points="226,35 231,30 250,30 250,40 231,40 226,35 " style="fill:#d81515; stroke-width:1; stroke:black; " description="&lt;b&gt;MFKKBJ_12140&lt;/b&gt;&lt;br&gt;Transcriptional regulator, AraC family&lt;br&gt;Location: 2624271 - 2625141" locus_tag="MFKKBJ_12140" class="clusterblast-orf" id="dummy-4_q0_0_all"  />
<polygon points="255,40 267,40 272,35 267,30 255,30 255,40 " style="fill:#3cd815; stroke-width:1; stroke:black; " description="&lt;b&gt;MFKKBJ_12145&lt;/b&gt;&lt;br&gt;Lysine transporter LysE&lt;br&gt;Location: 2625329 - 2625950" locus_tag="MFKKBJ_12145" class="clusterblast-orf" id="dummy-4_q1_0_all"  />
<polygon points="274,40 282,40 287,35 282,30 274,30 274,40 " style="fill:#1563d8; stroke-width:1; stroke:black; " description="&lt;b&gt;MFKKBJ_12150&lt;/b&gt;&lt;br&gt;PhnB-like domain-containing protein&lt;br&gt;Location: 2626025 - 2626508" locus_tag="MFKKBJ_12150" class="clusterblast-orf" id="dummy-4_q2_0_all"  />
<polygon points="290,40 306,40 311,35 306,30 290,30 290,40 " style="fill:#b115d8; stroke-width:1; stroke:black; " description="&lt;b&gt;MFKKBJ_12155&lt;/b&gt;&lt;br&gt;cysteine synthase family protein&lt;br&gt;Location: 2626609 - 2627401" locus_tag="MFKKBJ_12155" class="clusterblast-orf" id="dummy-4_q3_0_all"  />
<polygon points="311,40 322,40 327,35 322,30 311,30 311,40 " style="fill:#b115d8; stroke-width:1; stroke:black; " description="&lt;b&gt;MFKKBJ_12160&lt;/b&gt;&lt;br&gt;CBS domain-containing protein&lt;br&gt;Location: 2627401 - 2627986" locus_tag="MFKKBJ_12160" class="clusterblast-orf" id="dummy-4_q4_0_all"  />
<polygon points="327,40 354,40 359,35 354,30 327,30 327,40 " style="fill:#d88a15; stroke-width:1; stroke:black; " description="&lt;b&gt;MFKKBJ_12165&lt;/b&gt;&lt;br&gt;cystathionine gamma-synthase&lt;br&gt;Location: 2627982 - 2629149" locus_tag="MFKKBJ_12165" class="clusterblast-orf" id="dummy-4_q5_0_all"  />
<polygon points="360,35 365,30 421,30 421,40 365,40 360,35 " style="fill:#15d863; stroke-width:1; stroke:black; " description="&lt;b&gt;MFKKBJ_12170&lt;/b&gt;&lt;br&gt;OsmC domain/YcaO domain-containing protein&lt;br&gt;Location: 2629201 - 2631403" locus_tag="MFKKBJ_12170" class="clusterblast-orf" id="dummy-4_q6_0_all"  />
<polygon points="425,40 427,40 432,35 427,30 425,30 425,40 " style="fill:#3c15d8; stroke-width:1; stroke:black; " description="&lt;b&gt;MFKKBJ_12175&lt;/b&gt;&lt;br&gt;PAS domain-containing protein&lt;br&gt;Location: 2631564 - 2631834" locus_tag="MFKKBJ_12175" class="clusterblast-orf" id="dummy-4_q7_0_all"  />
<polygon points="432,35 437,30 442,30 442,40 437,40 432,35 " style="fill:#15d863; stroke-width:1; stroke:black; " description="&lt;b&gt;MFKKBJ_12180&lt;/b&gt;&lt;br&gt;Osmotically inducible protein OsmC&lt;br&gt;Location: 2631823 - 2632174" locus_tag="MFKKBJ_12180" class="clusterblast-orf" id="dummy-4_q8_0_all"  />
<polygon points="446,40 484,40 489,35 484,30 446,30 446,40 " style="fill:#3c15d8; stroke-width:1; stroke:black; " description="&lt;b&gt;MFKKBJ_12185&lt;/b&gt;&lt;br&gt;Methyl-accepting transducer domain-containing protein&lt;br&gt;Location: 2632335 - 2633901" locus_tag="MFKKBJ_12185" class="clusterblast-orf" id="dummy-4_q9_0_all"  />
<polygon points="496,40 513,40 518,35 513,30 496,30 496,40 " style="fill:#d8158a; stroke-width:1; stroke:black; " description="&lt;b&gt;MFKKBJ_12190&lt;/b&gt;&lt;br&gt;Suppressor of fused-like domain-containing protein&lt;br&gt;Location: 2634149 - 2634959" locus_tag="MFKKBJ_12190" class="clusterblast-orf" id="dummy-4_q10_0_all"  />
<polygon points="518,40 529,40 534,35 529,30 518,30 518,40 " style="fill:#b1d815; stroke-width:1; stroke:black; " description="&lt;b&gt;MFKKBJ_12195&lt;/b&gt;&lt;br&gt;hypothetical protein&lt;br&gt;Location: 2634958 - 2635540" locus_tag="MFKKBJ_12195" class="clusterblast-orf" id="dummy-4_q11_0_all"  />
<polygon points="538,40 549,40 554,35 549,30 538,30 538,40 " style="fill:#15d8d8; stroke-width:1; stroke:black; " description="&lt;b&gt;MFKKBJ_12200&lt;/b&gt;&lt;br&gt;Hydrolase, isochorismatase family&lt;br&gt;Location: 2635719 - 2636280" locus_tag="MFKKBJ_12200" class="clusterblast-orf" id="dummy-4_q12_0_all"  />
</g>
<g label="NZ_CP089519" description="NZ_CP089519 (3403501-3433139): Pseudomonas extremorientalis strain 1502IPR-01... (30% of genes show similarity), thiopeptide" class="clusterblast-cluster"  >
<text x="5" y="70" class="clusterblast-acc"  >
<a xlink:href="https://antismash-db.secondarymetabolites.org/area?record=NZ_CP089519&amp;start=3403501&amp;end=3433139" target="_blank">NZ_CP089519 (3403501-3433139)</a>: Pseudomonas extremorientalis strain 1502IPR-01... (30% of genes show similarity), thiopeptide</text>
<line x1="10" y1="85" x2="778.0" y2="85" style="stroke-width:1; stroke:grey; "  />
</g>
<g id="a4_000"  >
<polygon points="0,90 10,90 15,85 10,80 0,80 0,90 " style="fill:white; stroke-width:1; stroke:black; " description="&lt;b&gt;LUU92_RS15090&lt;/b&gt;&lt;br&gt;adenylate kinase&lt;br&gt;Location: 3403964 - 3404518" locus_tag="LUU92_RS15090" class="clusterblast-orf" id="dummy-4_h4_7_0"  />
</g>
<g id="a4_001"  >
<polygon points="17,90 18,90 23,85 18,80 17,80 17,90 " style="fill:white; stroke-width:1; stroke:black; " description="&lt;b&gt;LUU92_RS15095&lt;/b&gt;&lt;br&gt;hypothetical protein&lt;br&gt;Location: 3404593 - 3404812" locus_tag="LUU92_RS15095" class="clusterblast-orf" id="dummy-4_h4_7_1"  />
</g>
<g id="a4_002"  >
<polygon points="32,90 71,90 76,85 71,80 32,80 32,90 " style="fill:#3c15d8; stroke-width:1; stroke:black; " description="&lt;b&gt;LUU92_RS15100&lt;/b&gt;&lt;br&gt;methyl-accepting chemotaxis protein&lt;br&gt;Location: 3405137 - 3406774&lt;br&gt;&lt;br&gt;&lt;b&gt;BlastP hit with MFKKBJ_12185&lt;/b&gt;&lt;br&gt;Percentage identity: 40&lt;br&gt;Percentage coverage: 61&lt;br&gt;BLAST bit score: 139&lt;br&gt;E-value: 1.7e-33" locus_tag="LUU92_RS15100" class="clusterblast-orf" id="dummy-4_h4_7_2"  />
</g>
<g id="a4_003"  >
<polygon points="84,90 103,90 108,85 103,80 84,80 84,90 " style="fill:white; stroke-width:1; stroke:black; " description="&lt;b&gt;LUU92_RS15105&lt;/b&gt;&lt;br&gt;protein deglycase HchA&lt;br&gt;Location: 3407047 - 3407925" locus_tag="LUU92_RS15105" class="clusterblast-orf" id="dummy-4_h4_7_3"  />
</g>
<g id="a4_004"  >
<polygon points="108,90 122,90 127,85 122,80 108,80 108,90 " style="fill:white; stroke-width:1; stroke:black; " description="&lt;b&gt;LUU92_RS15110&lt;/b&gt;&lt;br&gt;LuxR C-terminal-related transcriptional regulator&lt;br&gt;Location: 3407922 - 3408641" locus_tag="LUU92_RS15110" class="clusterblast-orf" id="dummy-4_h4_7_4"  />
</g>
<g id="a4_005"  >
<polygon points="131,85 136,80 140,80 140,90 136,90 131,85 " style="fill:white; stroke-width:1; stroke:black; " description="&lt;b&gt;LUU92_RS15115&lt;/b&gt;&lt;br&gt;hypothetical protein&lt;br&gt;Location: 3408762 - 3409112" locus_tag="LUU92_RS15115" class="clusterblast-orf" id="dummy-4_h4_7_5"  />
</g>
<g id="a4_006"  >
<polygon points="147,90 166,90 171,85 166,80 147,80 147,90 " style="fill:white; stroke-width:1; stroke:black; " description="&lt;b&gt;LUU92_RS15120&lt;/b&gt;&lt;br&gt;alpha/beta hydrolase&lt;br&gt;Location: 3409350 - 3410252" locus_tag="LUU92_RS15120" class="clusterblast-orf" id="dummy-4_h4_7_6"  />
</g>
<g id="a4_007"  >
<polygon points="176,85 181,80 188,80 188,90 181,90 176,85 " style="fill:white; stroke-width:1; stroke:black; " description="&lt;b&gt;LUU92_RS15125&lt;/b&gt;&lt;br&gt;hypothetical protein&lt;br&gt;Location: 3410418 - 3410855" locus_tag="LUU92_RS15125" class="clusterblast-orf" id="dummy-4_h4_7_7"  />
</g>
<g id="a4_008"  >
<polygon points="192,85 197,80 222,80 222,90 197,90 192,85 " style="fill:white; stroke-width:1; stroke:black; " description="&lt;b&gt;LUU92_RS15130&lt;/b&gt;&lt;br&gt;DUF4113 domain-containing protein&lt;br&gt;Location: 3411018 - 3412117" locus_tag="LUU92_RS15130" class="clusterblast-orf" id="dummy-4_h4_7_8"  />
</g>
<g id="a4_009"  >
<polygon points="232,90 235,90 240,85 235,80 232,80 232,90 " style="fill:white; stroke-width:1; stroke:black; " description="&lt;b&gt;LUU92_RS15135&lt;/b&gt;&lt;br&gt;hypothetical protein&lt;br&gt;Location: 3412469 - 3412768" locus_tag="LUU92_RS15135" class="clusterblast-orf" id="dummy-4_h4_7_9"  />
</g>
<g id="a4_0010"  >
<polygon points="243,90 255,90 260,85 255,80 243,80 243,90 " style="fill:#3cd815; stroke-width:1; stroke:black; " description="&lt;b&gt;LUU92_RS15140&lt;/b&gt;&lt;br&gt;LysE family translocator&lt;br&gt;Location: 3412878 - 3413498&lt;br&gt;&lt;br&gt;&lt;b&gt;BlastP hit with MFKKBJ_12145&lt;/b&gt;&lt;br&gt;Percentage identity: 92&lt;br&gt;Percentage coverage: 100&lt;br&gt;BLAST bit score: 366&lt;br&gt;E-value: 6.33e-129" locus_tag="LUU92_RS15140" class="clusterblast-orf" id="dummy-4_h4_7_10"  />
</g>
<g id="a4_0011"  >
<polygon points="260,90 266,90 271,85 266,80 260,80 260,90 " style="fill:white; stroke-width:1; stroke:black; " description="&lt;b&gt;LUU92_RS15145&lt;/b&gt;&lt;br&gt;ester cyclase&lt;br&gt;Location: 3413502 - 3413894" locus_tag="LUU92_RS15145" class="clusterblast-orf" id="dummy-4_h4_7_11"  />
</g>
<g id="a4_0012"  >
<polygon points="272,90 280,90 285,85 280,80 272,80 272,90 " style="fill:#1563d8; stroke-width:1; stroke:black; " description="&lt;b&gt;LUU92_RS15150&lt;/b&gt;&lt;br&gt;VOC family protein&lt;br&gt;Location: 3413929 - 3414411&lt;br&gt;&lt;br&gt;&lt;b&gt;BlastP hit with MFKKBJ_12150&lt;/b&gt;&lt;br&gt;Percentage identity: 89&lt;br&gt;Percentage coverage: 99&lt;br&gt;BLAST bit score: 298&lt;br&gt;E-value: 2.68e-103" locus_tag="LUU92_RS15150" class="clusterblast-orf" id="dummy-4_h4_7_12"  />
</g>
<g id="a4_0013"  >
<polygon points="285,85 290,80 309,80 309,90 290,90 285,85 " style="fill:white; stroke-width:1; stroke:black; " description="&lt;b&gt;LUU92_RS15155&lt;/b&gt;&lt;br&gt;SGNH/GDSL hydrolase family protein&lt;br&gt;Location: 3414408 - 3415304" locus_tag="LUU92_RS15155" class="clusterblast-orf" id="dummy-4_h4_7_13"  />
</g>
<g id="a4_0014"  >
<polygon points="315,90 348,90 353,85 348,80 315,80 315,90 " style="fill:white; stroke-width:1; stroke:black; " description="&lt;b&gt;LUU92_RS15160&lt;/b&gt;&lt;br&gt;hypothetical protein&lt;br&gt;Location: 3415513 - 3416904" locus_tag="LUU92_RS15160" class="clusterblast-orf" id="dummy-4_h4_7_14"  />
</g>
<g id="a4_0015"  >
<polygon points="361,90 380,90 385,85 380,80 361,80 361,90 " style="fill:white; stroke-width:1; stroke:black; " description="&lt;b&gt;LUU92_RS15165&lt;/b&gt;&lt;br&gt;4-hydroxy-tetrahydrodipicolinate synthase&lt;br&gt;Location: 3417198 - 3418061" locus_tag="LUU92_RS15165" class="clusterblast-orf" id="dummy-4_h4_7_15"  />
</g>
<g id="a4_0016"  >
<polygon points="388,90 420,90 425,85 420,80 388,80 388,90 " style="fill:#b115d8; stroke-width:1; stroke:black; " description="&lt;b&gt;LUU92_RS15170&lt;/b&gt;&lt;br&gt;pyridoxal-phosphate dependent enzyme&lt;br&gt;Location: 3418178 - 3419554&lt;br&gt;&lt;br&gt;&lt;b&gt;BlastP hit with MFKKBJ_12155&lt;/b&gt;&lt;br&gt;Percentage identity: 94&lt;br&gt;Percentage coverage: 100&lt;br&gt;BLAST bit score: 494&lt;br&gt;E-value: 9.18e-175&lt;br&gt;&lt;br&gt;&lt;b&gt;BlastP hit with MFKKBJ_12160&lt;/b&gt;&lt;br&gt;Percentage identity: 90&lt;br&gt;Percentage coverage: 100&lt;br&gt;BLAST bit score: 347&lt;br&gt;E-value: 5.42e-118" locus_tag="LUU92_RS15170" class="clusterblast-orf" id="dummy-4_h4_7_16"  />
</g>
<g id="a4_0017"  >
<polygon points="425,90 452,90 457,85 452,80 425,80 425,90 " style="fill:#d88a15; stroke-width:1; stroke:black; " description="&lt;b&gt;LUU92_RS15175&lt;/b&gt;&lt;br&gt;cystathionine gamma-synthase&lt;br&gt;Location: 3419551 - 3420717&lt;br&gt;&lt;br&gt;&lt;b&gt;BlastP hit with MFKKBJ_12165&lt;/b&gt;&lt;br&gt;Percentage identity: 95&lt;br&gt;Percentage coverage: 100&lt;br&gt;BLAST bit score: 733&lt;br&gt;E-value: 4.42e-268" locus_tag="LUU92_RS15175" class="clusterblast-orf" id="dummy-4_h4_7_17"  />
</g>
<g id="a4_0018"  >
<polygon points="463,85 468,80 523,80 523,90 468,90 463,85 " style="fill:#15d863; stroke-width:1; stroke:black; " description="&lt;b&gt;LUU92_RS15180&lt;/b&gt;&lt;br&gt;OsmC domain/YcaO domain-containing protein&lt;br&gt;Location: 3420941 - 3423139&lt;br&gt;&lt;br&gt;&lt;b&gt;BlastP hit with MFKKBJ_12170&lt;/b&gt;&lt;br&gt;Percentage identity: 95&lt;br&gt;Percentage coverage: 100&lt;br&gt;BLAST bit score: 1400&lt;br&gt;E-value: 0.0&lt;br&gt;&lt;br&gt;&lt;b&gt;BlastP hit with MFKKBJ_12180&lt;/b&gt;&lt;br&gt;Percentage identity: 98&lt;br&gt;Percentage coverage: 99&lt;br&gt;BLAST bit score: 230&lt;br&gt;E-value: 4.63e-71" locus_tag="LUU92_RS15180" class="clusterblast-orf" id="dummy-4_h4_7_18"  />
</g>
<g id="a4_0019"  >
<polygon points="528,90 565,90 570,85 565,80 528,80 528,90 " style="fill:#3c15d8; stroke-width:1; stroke:black; " description="&lt;b&gt;LUU92_RS15185&lt;/b&gt;&lt;br&gt;methyl-accepting chemotaxis protein&lt;br&gt;Location: 3423302 - 3424867&lt;br&gt;&lt;br&gt;&lt;b&gt;BlastP hit with MFKKBJ_12175&lt;/b&gt;&lt;br&gt;Percentage identity: 89&lt;br&gt;Percentage coverage: 100&lt;br&gt;BLAST bit score: 167&lt;br&gt;E-value: 4.41e-49&lt;br&gt;&lt;br&gt;&lt;b&gt;BlastP hit with MFKKBJ_12185&lt;/b&gt;&lt;br&gt;Percentage identity: 90&lt;br&gt;Percentage coverage: 100&lt;br&gt;BLAST bit score: 821&lt;br&gt;E-value: 2.38e-298" locus_tag="LUU92_RS15185" class="clusterblast-orf" id="dummy-4_h4_7_19"  />
</g>
<g id="a4_0020"  >
<polygon points="578,90 590,90 595,85 590,80 578,80 578,90 " style="fill:white; stroke-width:1; stroke:black; " description="&lt;b&gt;LUU92_RS15190&lt;/b&gt;&lt;br&gt;LysE family translocator&lt;br&gt;Location: 3425135 - 3425755" locus_tag="LUU92_RS15190" class="clusterblast-orf" id="dummy-4_h4_7_20"  />
</g>
<g id="a4_0021"  >
<polygon points="594,85 599,80 612,80 612,90 599,90 594,85 " style="fill:white; stroke-width:1; stroke:black; " description="&lt;b&gt;LUU92_RS15195&lt;/b&gt;&lt;br&gt;class I SAM-dependent methyltransferase&lt;br&gt;Location: 3425742 - 3426404" locus_tag="LUU92_RS15195" class="clusterblast-orf" id="dummy-4_h4_7_21"  />
</g>
<g id="a4_0022"  >
<polygon points="616,90 628,90 633,85 628,80 616,80 616,90 " style="fill:white; stroke-width:1; stroke:black; " description="&lt;b&gt;LUU92_RS15200&lt;/b&gt;&lt;br&gt;TetR family transcriptional regulator&lt;br&gt;Location: 3426516 - 3427148" locus_tag="LUU92_RS15200" class="clusterblast-orf" id="dummy-4_h4_7_22"  />
</g>
<g id="a4_0023"  >
<polygon points="634,90 650,90 655,85 650,80 634,80 634,90 " style="fill:#d8158a; stroke-width:1; stroke:black; " description="&lt;b&gt;LUU92_RS15205&lt;/b&gt;&lt;br&gt;suppressor of fused domain protein&lt;br&gt;Location: 3427178 - 3427969&lt;br&gt;&lt;br&gt;&lt;b&gt;BlastP hit with MFKKBJ_12190&lt;/b&gt;&lt;br&gt;Percentage identity: 83&lt;br&gt;Percentage coverage: 100&lt;br&gt;BLAST bit score: 432&lt;br&gt;E-value: 5.32e-153" locus_tag="LUU92_RS15205" class="clusterblast-orf" id="dummy-4_h4_7_23"  />
</g>
<g id="a4_0024"  >
<polygon points="660,90 668,90 673,85 668,80 660,80 660,90 " style="fill:white; stroke-width:1; stroke:black; " description="&lt;b&gt;LUU92_RS15210&lt;/b&gt;&lt;br&gt;GNAT family N-acetyltransferase&lt;br&gt;Location: 3428141 - 3428623" locus_tag="LUU92_RS15210" class="clusterblast-orf" id="dummy-4_h4_7_24"  />
</g>
<g id="a4_0025"  >
<polygon points="673,85 678,80 688,80 688,90 678,90 673,85 " style="fill:white; stroke-width:1; stroke:black; " description="&lt;b&gt;LUU92_RS15215&lt;/b&gt;&lt;br&gt;GNAT family N-acetyltransferase&lt;br&gt;Location: 3428633 - 3429160" locus_tag="LUU92_RS15215" class="clusterblast-orf" id="dummy-4_h4_7_25"  />
</g>
<g id="a4_0026"  >
<polygon points="692,90 702,90 707,85 702,80 692,80 692,90 " style="fill:#15d8d8; stroke-width:1; stroke:black; " description="&lt;b&gt;LUU92_RS15220&lt;/b&gt;&lt;br&gt;cysteine hydrolase&lt;br&gt;Location: 3429323 - 3429883&lt;br&gt;&lt;br&gt;&lt;b&gt;BlastP hit with MFKKBJ_12200&lt;/b&gt;&lt;br&gt;Percentage identity: 84&lt;br&gt;Percentage coverage: 98&lt;br&gt;BLAST bit score: 317&lt;br&gt;E-value: 3.18e-110" locus_tag="LUU92_RS15220" class="clusterblast-orf" id="dummy-4_h4_7_26"  />
</g>
<g id="a4_0027"  >
<polygon points="711,85 716,80 752,80 752,90 716,90 711,85 " style="fill:white; stroke-width:1; stroke:black; " description="&lt;b&gt;LUU92_RS15225&lt;/b&gt;&lt;br&gt;FAD-dependent oxidoreductase&lt;br&gt;Location: 3430027 - 3431529" locus_tag="LUU92_RS15225" class="clusterblast-orf" id="dummy-4_h4_7_27"  />
</g>
<g id="a4_0028"  >
<polygon points="754,90 762,90 767,85 762,80 754,80 754,90 " style="fill:white; stroke-width:1; stroke:black; " description="&lt;b&gt;LUU92_RS15230&lt;/b&gt;&lt;br&gt;MarR family transcriptional regulator&lt;br&gt;Location: 3431579 - 3432076" locus_tag="LUU92_RS15230" class="clusterblast-orf" id="dummy-4_h4_7_28"  />
</g>
<g id="a4_0029"  >
<polygon points="770,85 775,80 780,80 780,90 775,90 770,85 " style="fill:white; stroke-width:1; stroke:black; " description="&lt;b&gt;LUU92_RS15235&lt;/b&gt;&lt;br&gt;nitrite reductase small subunit NirD&lt;br&gt;Location: 3432157 - 3432519" locus_tag="LUU92_RS15235" class="clusterblast-orf" id="dummy-4_h4_7_29"  />
</g>
</svg>
