<svg xmlns="http://www.w3.org/2000/svg" xmlns:xlink="http://www.w3.org/1999/xlink" version="1.1" x="0" y="0" height="230" width="800" viewBox="0 0 800 230" preserveAspectRatio="none"  >
<g label="Query sequence" class="clusterblast-cluster"  >
<text x="5" y="20" class="clusterblast-acc"  >
Query sequence</text>
<line x1="10" y1="35" x2="778.0" y2="35" style="stroke-width:1; stroke:grey; "  />
<polygon points="349,35 354,30 355,30 355,40 354,40 349,35 " style="fill:#d81515; stroke-width:1; stroke:black; " description="&lt;b&gt;MFKKBJ_13420&lt;/b&gt;&lt;br&gt;IclR family transcriptional regulator&lt;br&gt;Location: 2932067 - 2932886" locus_tag="MFKKBJ_13420" class="clusterblast-orf" id="dummy-5_q0_0_all"  />
<polygon points="357,40 360,40 365,35 360,30 357,30 357,40 " style="fill:#77d815; stroke-width:1; stroke:black; " description="&lt;b&gt;MFKKBJ_13425&lt;/b&gt;&lt;br&gt;Iron(III) transport system ATP-binding&lt;br&gt;Location: 2933126 - 2934155" locus_tag="MFKKBJ_13425" class="clusterblast-orf" id="dummy-5_q1_0_all"  />
<polygon points="365,40 366,40 371,35 366,30 365,30 365,40 " style="fill:#15d8d8; stroke-width:1; stroke:black; " description="&lt;b&gt;MFKKBJ_13430&lt;/b&gt;&lt;br&gt;ABC transmembrane type-1 domain-containing protein&lt;br&gt;Location: 2934151 - 2934997" locus_tag="MFKKBJ_13430" class="clusterblast-orf" id="dummy-5_q2_0_all"  />
<polygon points="371,40 372,40 377,35 372,30 371,30 371,40 " style="fill:#7715d8; stroke-width:1; stroke:black; " description="&lt;b&gt;MFKKBJ_13435&lt;/b&gt;&lt;br&gt;ABC-type spermidine/putrescine transport system, permease component II&lt;br&gt;Location: 2935001 - 2935796" locus_tag="MFKKBJ_13435" class="clusterblast-orf" id="dummy-5_q3_0_all"  />
<polygon points="377,40 379,35 377,30 377,40 " style="fill:#d87715; stroke-width:1; stroke:black; " description="&lt;b&gt;MFKKBJ_13440&lt;/b&gt;&lt;br&gt;Ferredoxin&lt;br&gt;Location: 2935795 - 2936086" locus_tag="MFKKBJ_13440" class="clusterblast-orf" id="dummy-5_q4_0_all"  />
<polygon points="379,40 383,40 388,35 383,30 379,30 379,40 " style="fill:#15d815; stroke-width:1; stroke:black; " description="&lt;b&gt;MFKKBJ_13445&lt;/b&gt;&lt;br&gt;FAD/NAD(P)-binding oxidoreductase&lt;br&gt;Location: 2936082 - 2937426" locus_tag="MFKKBJ_13445" class="clusterblast-orf" id="dummy-5_q5_0_all"  />
<polygon points="388,40 391,40 396,35 391,30 388,30 388,40 " style="fill:#1577d8; stroke-width:1; stroke:black; " description="&lt;b&gt;MFKKBJ_13450&lt;/b&gt;&lt;br&gt;FAD dependent oxidoreductase domain-containing protein&lt;br&gt;Location: 2937422 - 2938520" locus_tag="MFKKBJ_13450" class="clusterblast-orf" id="dummy-5_q6_0_all"  />
<polygon points="397,40 399,40 404,35 399,30 397,30 397,40 " style="fill:#d815d8; stroke-width:1; stroke:black; " description="&lt;b&gt;MFKKBJ_13455&lt;/b&gt;&lt;br&gt;ABC transporter substrate-binding protein&lt;br&gt;Location: 2938534 - 2939566" locus_tag="MFKKBJ_13455" class="clusterblast-orf" id="dummy-5_q7_0_all"  />
<polygon points="404,35 409,30 410,30 410,40 409,40 404,35 " style="fill:#d8d815; stroke-width:1; stroke:black; " description="&lt;b&gt;MFKKBJ_13460&lt;/b&gt;&lt;br&gt;ammonia-dependent NAD(+) synthetase&lt;br&gt;Location: 2939566 - 2940376" locus_tag="MFKKBJ_13460" class="clusterblast-orf" id="dummy-5_q8_0_all"  />
<polygon points="410,35 415,30 419,30 419,40 415,40 410,35 " style="fill:#15d877; stroke-width:1; stroke:black; " description="&lt;b&gt;MFKKBJ_13465&lt;/b&gt;&lt;br&gt;nicotinate phosphoribosyltransferase&lt;br&gt;Location: 2940377 - 2941595" locus_tag="MFKKBJ_13465" class="clusterblast-orf" id="dummy-5_q9_0_all"  />
<polygon points="419,35 424,30 424,30 424,40 424,40 419,35 " style="fill:#1515d8; stroke-width:1; stroke:black; " description="&lt;b&gt;MFKKBJ_13470&lt;/b&gt;&lt;br&gt;Isochorismatase&lt;br&gt;Location: 2941606 - 2942254" locus_tag="MFKKBJ_13470" class="clusterblast-orf" id="dummy-5_q10_0_all"  />
<polygon points="425,40 428,35 425,30 425,40 " style="fill:#d81577; stroke-width:1; stroke:black; " description="&lt;b&gt;MFKKBJ_13475&lt;/b&gt;&lt;br&gt;NUDIX hydrolase&lt;br&gt;Location: 2942400 - 2942877" locus_tag="MFKKBJ_13475" class="clusterblast-orf" id="dummy-5_q11_0_all"  />
<polygon points="428,40 430,35 428,30 428,40 " style="fill:#d81577; stroke-width:1; stroke:black; " description="&lt;b&gt;MFKKBJ_13480&lt;/b&gt;&lt;br&gt;hypothetical protein&lt;br&gt;Location: 2942860 - 2943094" locus_tag="MFKKBJ_13480" class="clusterblast-orf" id="dummy-5_q12_0_all"  />
</g>
<g label="NZ_CP089519" description="NZ_CP089519 (2588400-2695974): Pseudomonas extremorientalis strain 1502IPR-01... (24% of genes show similarity), NRP-metallophore,NRPS,hydrogen-cyanide" class="clusterblast-cluster"  >
<text x="5" y="70" class="clusterblast-acc"  >
<a xlink:href="https://antismash-db.secondarymetabolites.org/area?record=NZ_CP089519&amp;start=2588400&amp;end=2695974" target="_blank">NZ_CP089519 (2588400-2695974)</a>: Pseudomonas extremorientalis strain 1502IPR-01... (24% of genes show similarity), NRP-metallophore,NRPS,hydrogen-cyanide</text>
<line x1="10" y1="85" x2="778.0" y2="85" style="stroke-width:1; stroke:grey; "  />
</g>
<g id="a5_000"  >
<polygon points="0,85 5,80 5,80 5,90 5,90 0,85 " style="fill:white; stroke-width:1; stroke:black; " description="&lt;b&gt;LUU92_RS12005&lt;/b&gt;&lt;br&gt;TonB family protein&lt;br&gt;Location: 2695715 - 2694942" locus_tag="LUU92_RS12005" class="clusterblast-orf" id="dummy-5_h5_8_0"  />
</g>
<g id="a5_001"  >
<polygon points="5,85 8,80 8,90 5,85 " style="fill:white; stroke-width:1; stroke:black; " description="&lt;b&gt;LUU92_RS12000&lt;/b&gt;&lt;br&gt;protein TolR&lt;br&gt;Location: 2694945 - 2694499" locus_tag="LUU92_RS12000" class="clusterblast-orf" id="dummy-5_h5_8_1"  />
</g>
<g id="a5_002"  >
<polygon points="8,85 13,80 14,80 14,90 13,90 8,85 " style="fill:white; stroke-width:1; stroke:black; " description="&lt;b&gt;LUU92_RS11995&lt;/b&gt;&lt;br&gt;protein TolQ&lt;br&gt;Location: 2694484 - 2693792" locus_tag="LUU92_RS11995" class="clusterblast-orf" id="dummy-5_h5_8_2"  />
</g>
<g id="a5_003"  >
<polygon points="14,85 19,80 27,80 27,90 19,90 14,85 " style="fill:white; stroke-width:1; stroke:black; " description="&lt;b&gt;LUU92_RS11990&lt;/b&gt;&lt;br&gt;phytase&lt;br&gt;Location: 2693744 - 2691882" locus_tag="LUU92_RS11990" class="clusterblast-orf" id="dummy-5_h5_8_3"  />
</g>
<g id="a5_004"  >
<polygon points="28,85 33,80 47,80 47,90 33,90 28,85 " style="fill:white; stroke-width:1; stroke:black; " description="&lt;b&gt;LUU92_RS11985&lt;/b&gt;&lt;br&gt;TonB-dependent receptor&lt;br&gt;Location: 2691737 - 2689224" locus_tag="LUU92_RS11985" class="clusterblast-orf" id="dummy-5_h5_8_4"  />
</g>
<g id="a5_005"  >
<polygon points="50,90 51,90 56,85 51,80 50,80 50,90 " style="fill:white; stroke-width:1; stroke:black; " description="&lt;b&gt;LUU92_RS11980&lt;/b&gt;&lt;br&gt;GGDEF domain-containing protein&lt;br&gt;Location: 2688843 - 2687929" locus_tag="LUU92_RS11980" class="clusterblast-orf" id="dummy-5_h5_8_5"  />
</g>
<g id="a5_006"  >
<polygon points="56,90 59,90 64,85 59,80 56,80 56,90 " style="fill:white; stroke-width:1; stroke:black; " description="&lt;b&gt;LUU92_RS11975&lt;/b&gt;&lt;br&gt;AraC family transcriptional regulator&lt;br&gt;Location: 2687927 - 2686890" locus_tag="LUU92_RS11975" class="clusterblast-orf" id="dummy-5_h5_8_6"  />
</g>
<g id="a5_007"  >
<polygon points="64,85 69,80 70,80 70,90 69,90 64,85 " style="fill:white; stroke-width:1; stroke:black; " description="&lt;b&gt;LUU92_RS11970&lt;/b&gt;&lt;br&gt;LysR family transcriptional regulator&lt;br&gt;Location: 2686903 - 2686022" locus_tag="LUU92_RS11970" class="clusterblast-orf" id="dummy-5_h5_8_7"  />
</g>
<g id="a5_008"  >
<polygon points="72,85 76,80 76,90 72,85 " style="fill:white; stroke-width:1; stroke:black; " description="&lt;b&gt;LUU92_RS11965&lt;/b&gt;&lt;br&gt;hydrolase&lt;br&gt;Location: 2685829 - 2685215" locus_tag="LUU92_RS11965" class="clusterblast-orf" id="dummy-5_h5_8_8"  />
</g>
<g id="a5_009"  >
<polygon points="76,85 81,80 90,80 90,90 81,90 76,85 " style="fill:white; stroke-width:1; stroke:black; " description="&lt;b&gt;LUU92_RS11960&lt;/b&gt;&lt;br&gt;amidohydrolase&lt;br&gt;Location: 2685185 - 2683347" locus_tag="LUU92_RS11960" class="clusterblast-orf" id="dummy-5_h5_8_9"  />
</g>
<g id="a5_0010"  >
<polygon points="90,85 94,80 94,90 90,85 " style="fill:white; stroke-width:1; stroke:black; " description="&lt;b&gt;LUU92_RS11955&lt;/b&gt;&lt;br&gt;antibiotic biosynthesis monooxygenase&lt;br&gt;Location: 2683350 - 2682760" locus_tag="LUU92_RS11955" class="clusterblast-orf" id="dummy-5_h5_8_10"  />
</g>
<g id="a5_0011"  >
<polygon points="97,85 101,80 101,90 97,85 " style="fill:white; stroke-width:1; stroke:black; " description="&lt;b&gt;LUU92_RS11950&lt;/b&gt;&lt;br&gt;Lrp/AsnC family transcriptional regulator&lt;br&gt;Location: 2682310 - 2681840" locus_tag="LUU92_RS11950" class="clusterblast-orf" id="dummy-5_h5_8_11"  />
</g>
<g id="a5_0012"  >
<polygon points="102,90 106,90 111,85 106,80 102,80 102,90 " style="fill:white; stroke-width:1; stroke:black; " description="&lt;b&gt;LUU92_RS11945&lt;/b&gt;&lt;br&gt;methionine gamma-lyase&lt;br&gt;Location: 2681716 - 2680481" locus_tag="LUU92_RS11945" class="clusterblast-orf" id="dummy-5_h5_8_12"  />
</g>
<g id="a5_0013"  >
<polygon points="112,90 112,90 117,85 112,80 112,80 112,90 " style="fill:white; stroke-width:1; stroke:black; " description="&lt;b&gt;LUU92_RS11940&lt;/b&gt;&lt;br&gt;helix-turn-helix transcriptional regulator&lt;br&gt;Location: 2680324 - 2679653" locus_tag="LUU92_RS11940" class="clusterblast-orf" id="dummy-5_h5_8_13"  />
</g>
<g id="a5_0014"  >
<polygon points="118,85 123,80 132,80 132,90 123,90 118,85 " style="fill:white; stroke-width:1; stroke:black; " description="&lt;b&gt;LUU92_RS11935&lt;/b&gt;&lt;br&gt;MacB family efflux pump subunit&lt;br&gt;Location: 2679522 - 2677564" locus_tag="LUU92_RS11935" class="clusterblast-orf" id="dummy-5_h5_8_14"  />
</g>
<g id="a5_0015"  >
<polygon points="132,85 137,80 140,80 140,90 137,90 132,85 " style="fill:white; stroke-width:1; stroke:black; " description="&lt;b&gt;LUU92_RS11930&lt;/b&gt;&lt;br&gt;macrolide transporter subunit MacA&lt;br&gt;Location: 2677560 - 2676409" locus_tag="LUU92_RS11930" class="clusterblast-orf" id="dummy-5_h5_8_15"  />
</g>
<g id="a5_0016"  >
<polygon points="143,85 148,80 226,80 226,90 148,90 143,85 " style="fill:white; stroke-width:1; stroke:black; " description="&lt;b&gt;LUU92_RS11925&lt;/b&gt;&lt;br&gt;amino acid adenylation domain-containing protein&lt;br&gt;Location: 2675974 - 2664668" locus_tag="LUU92_RS11925" class="clusterblast-orf" id="dummy-5_h5_8_16"  />
</g>
<g id="a5_0017"  >
<polygon points="226,85 231,80 319,80 319,90 231,90 226,85 " style="fill:white; stroke-width:1; stroke:black; " description="&lt;b&gt;LUU92_RS11920&lt;/b&gt;&lt;br&gt;amino acid adenylation domain-containing protein&lt;br&gt;Location: 2664671 - 2651811" locus_tag="LUU92_RS11920" class="clusterblast-orf" id="dummy-5_h5_8_17"  />
</g>
<g id="a5_0018"  >
<polygon points="322,85 327,80 334,80 334,90 327,90 322,85 " style="fill:white; stroke-width:1; stroke:black; " description="&lt;b&gt;LUU92_RS11915&lt;/b&gt;&lt;br&gt;PvdJ/PvdD/PvdP-like protein&lt;br&gt;Location: 2651403 - 2649784" locus_tag="LUU92_RS11915" class="clusterblast-orf" id="dummy-5_h5_8_18"  />
</g>
<g id="a5_0019"  >
<polygon points="335,90 340,90 345,85 340,80 335,80 335,90 " style="fill:white; stroke-width:1; stroke:black; " description="&lt;b&gt;LUU92_RS11910&lt;/b&gt;&lt;br&gt;pyoverdine-tailoring dipeptidase-like protein PvdM&lt;br&gt;Location: 2649641 - 2648292" locus_tag="LUU92_RS11910" class="clusterblast-orf" id="dummy-5_h5_8_19"  />
</g>
<g id="a5_0020"  >
<polygon points="345,90 349,90 354,85 349,80 345,80 345,90 " style="fill:white; stroke-width:1; stroke:black; " description="&lt;b&gt;LUU92_RS11905&lt;/b&gt;&lt;br&gt;aminotransferase class V-fold PLP-dependent enzyme&lt;br&gt;Location: 2648273 - 2647002" locus_tag="LUU92_RS11905" class="clusterblast-orf" id="dummy-5_h5_8_20"  />
</g>
<g id="a5_0021"  >
<polygon points="355,90 356,90 361,85 356,80 355,80 355,90 " style="fill:white; stroke-width:1; stroke:black; " description="&lt;b&gt;LUU92_RS11900&lt;/b&gt;&lt;br&gt;formylglycine-generating enzyme family protein&lt;br&gt;Location: 2646967 - 2646107" locus_tag="LUU92_RS11900" class="clusterblast-orf" id="dummy-5_h5_8_21"  />
</g>
<g id="a5_0022"  >
<polygon points="361,85 366,80 368,80 368,90 366,90 361,85 " style="fill:white; stroke-width:1; stroke:black; " description="&lt;b&gt;LUU92_RS11895&lt;/b&gt;&lt;br&gt;N(5)-hydroxyornithine transformylase PvdF&lt;br&gt;Location: 2646041 - 2645211" locus_tag="LUU92_RS11895" class="clusterblast-orf" id="dummy-5_h5_8_22"  />
</g>
<g id="a5_0023"  >
<polygon points="369,90 376,90 381,85 376,80 369,80 369,90 " style="fill:white; stroke-width:1; stroke:black; " description="&lt;b&gt;LUU92_RS11890&lt;/b&gt;&lt;br&gt;cyclic peptide export ABC transporter&lt;br&gt;Location: 2645010 - 2643358" locus_tag="LUU92_RS11890" class="clusterblast-orf" id="dummy-5_h5_8_23"  />
</g>
<g id="a5_0024"  >
<polygon points="382,90 394,90 399,85 394,80 382,80 382,90 " style="fill:white; stroke-width:1; stroke:black; " description="&lt;b&gt;LUU92_RS11885&lt;/b&gt;&lt;br&gt;TonB-dependent siderophore receptor&lt;br&gt;Location: 2643249 - 2640832" locus_tag="LUU92_RS11885" class="clusterblast-orf" id="dummy-5_h5_8_24"  />
</g>
<g id="a5_0025"  >
<polygon points="400,85 405,80 455,80 455,90 405,90 400,85 " style="fill:white; stroke-width:1; stroke:black; " description="&lt;b&gt;LUU92_RS11880&lt;/b&gt;&lt;br&gt;amino acid adenylation domain-containing protein&lt;br&gt;Location: 2640693 - 2633278" locus_tag="LUU92_RS11880" class="clusterblast-orf" id="dummy-5_h5_8_25"  />
</g>
<g id="a5_0026"  >
<polygon points="455,85 460,80 499,80 499,90 460,90 455,85 " style="fill:white; stroke-width:1; stroke:black; " description="&lt;b&gt;LUU92_RS11875&lt;/b&gt;&lt;br&gt;amino acid adenylation domain-containing protein&lt;br&gt;Location: 2633268 - 2627131" locus_tag="LUU92_RS11875" class="clusterblast-orf" id="dummy-5_h5_8_26"  />
</g>
<g id="a5_0027"  >
<polygon points="500,85 505,80 556,80 556,90 505,90 500,85 " style="fill:white; stroke-width:1; stroke:black; " description="&lt;b&gt;LUU92_RS11870&lt;/b&gt;&lt;br&gt;amino acid adenylation domain-containing protein&lt;br&gt;Location: 2627003 - 2619339" locus_tag="LUU92_RS11870" class="clusterblast-orf" id="dummy-5_h5_8_27"  />
</g>
<g id="a5_0028"  >
<polygon points="556,85 561,80 636,80 636,90 561,90 556,85 " style="fill:white; stroke-width:1; stroke:black; " description="&lt;b&gt;LUU92_RS11865&lt;/b&gt;&lt;br&gt;non-ribosomal peptide synthase/polyketide synthase&lt;br&gt;Location: 2619335 - 2608401" locus_tag="LUU92_RS11865" class="clusterblast-orf" id="dummy-5_h5_8_28"  />
</g>
<g id="a5_0029"  >
<polygon points="637,90 639,85 637,80 637,90 " style="fill:white; stroke-width:1; stroke:black; " description="&lt;b&gt;LUU92_RS11860&lt;/b&gt;&lt;br&gt;toxin-antitoxin system HicB family antitoxin&lt;br&gt;Location: 2608274 - 2607972" locus_tag="LUU92_RS11860" class="clusterblast-orf" id="dummy-5_h5_8_29"  />
</g>
<g id="a5_0030"  >
<polygon points="639,85 644,80 647,80 647,90 644,90 639,85 " style="fill:white; stroke-width:1; stroke:black; " description="&lt;b&gt;LUU92_RS11855&lt;/b&gt;&lt;br&gt;MFS transporter&lt;br&gt;Location: 2607971 - 2606799" locus_tag="LUU92_RS11855" class="clusterblast-orf" id="dummy-5_h5_8_30"  />
</g>
<g id="a5_0031"  >
<polygon points="648,85 653,80 658,80 658,90 653,90 648,85 " style="fill:white; stroke-width:1; stroke:black; " description="&lt;b&gt;LUU92_RS11850&lt;/b&gt;&lt;br&gt;MATE family efflux transporter&lt;br&gt;Location: 2606758 - 2605403" locus_tag="LUU92_RS11850" class="clusterblast-orf" id="dummy-5_h5_8_31"  />
</g>
<g id="a5_0032"  >
<polygon points="658,85 662,80 662,90 658,85 " style="fill:white; stroke-width:1; stroke:black; " description="&lt;b&gt;LUU92_RS11845&lt;/b&gt;&lt;br&gt;DUF2239 family protein&lt;br&gt;Location: 2605377 - 2604805" locus_tag="LUU92_RS11845" class="clusterblast-orf" id="dummy-5_h5_8_32"  />
</g>
<g id="a5_0033"  >
<polygon points="665,85 670,80 673,80 673,90 670,90 665,85 " style="fill:white; stroke-width:1; stroke:black; " description="&lt;b&gt;LUU92_RS11840&lt;/b&gt;&lt;br&gt;hypothetical protein&lt;br&gt;Location: 2604445 - 2603312" locus_tag="LUU92_RS11840" class="clusterblast-orf" id="dummy-5_h5_8_33"  />
</g>
<g id="a5_0034"  >
<polygon points="675,85 680,80 681,80 681,90 680,90 675,85 " style="fill:#d81515; stroke-width:1; stroke:black; " description="&lt;b&gt;LUU92_RS11835&lt;/b&gt;&lt;br&gt;IclR family transcriptional regulator&lt;br&gt;Location: 2603020 - 2602190&lt;br&gt;&lt;br&gt;&lt;b&gt;BlastP hit with MFKKBJ_13420&lt;/b&gt;&lt;br&gt;Percentage identity: 95&lt;br&gt;Percentage coverage: 101&lt;br&gt;BLAST bit score: 497&lt;br&gt;E-value: 2.43e-178" locus_tag="LUU92_RS11835" class="clusterblast-orf" id="dummy-5_h5_8_34"  />
</g>
<g id="a5_0035"  >
<polygon points="683,90 685,90 690,85 685,80 683,80 683,90 " style="fill:#77d815; stroke-width:1; stroke:black; " description="&lt;b&gt;LUU92_RS11830&lt;/b&gt;&lt;br&gt;ABC transporter ATP-binding protein&lt;br&gt;Location: 2601947 - 2600919&lt;br&gt;&lt;br&gt;&lt;b&gt;BlastP hit with MFKKBJ_13425&lt;/b&gt;&lt;br&gt;Percentage identity: 93&lt;br&gt;Percentage coverage: 100&lt;br&gt;BLAST bit score: 624&lt;br&gt;E-value: 3.37e-226" locus_tag="LUU92_RS11830" class="clusterblast-orf" id="dummy-5_h5_8_35"  />
</g>
<g id="a5_0036"  >
<polygon points="690,90 691,90 696,85 691,80 690,80 690,90 " style="fill:#15d8d8; stroke-width:1; stroke:black; " description="&lt;b&gt;LUU92_RS11825&lt;/b&gt;&lt;br&gt;ABC transporter permease&lt;br&gt;Location: 2600922 - 2600077&lt;br&gt;&lt;br&gt;&lt;b&gt;BlastP hit with MFKKBJ_13430&lt;/b&gt;&lt;br&gt;Percentage identity: 98&lt;br&gt;Percentage coverage: 100&lt;br&gt;BLAST bit score: 514&lt;br&gt;E-value: 4.09e-185" locus_tag="LUU92_RS11825" class="clusterblast-orf" id="dummy-5_h5_8_36"  />
</g>
<g id="a5_0037"  >
<polygon points="696,90 697,90 702,85 697,80 696,80 696,90 " style="fill:#7715d8; stroke-width:1; stroke:black; " description="&lt;b&gt;LUU92_RS11820&lt;/b&gt;&lt;br&gt;ABC transporter permease&lt;br&gt;Location: 2600072 - 2599278&lt;br&gt;&lt;br&gt;&lt;b&gt;BlastP hit with MFKKBJ_13435&lt;/b&gt;&lt;br&gt;Percentage identity: 98&lt;br&gt;Percentage coverage: 100&lt;br&gt;BLAST bit score: 473&lt;br&gt;E-value: 2.25e-169" locus_tag="LUU92_RS11820" class="clusterblast-orf" id="dummy-5_h5_8_37"  />
</g>
<g id="a5_0038"  >
<polygon points="702,90 704,85 702,80 702,90 " style="fill:#d87715; stroke-width:1; stroke:black; " description="&lt;b&gt;LUU92_RS11815&lt;/b&gt;&lt;br&gt;(2Fe-2S)-binding protein&lt;br&gt;Location: 2599278 - 2598988&lt;br&gt;&lt;br&gt;&lt;b&gt;BlastP hit with MFKKBJ_13440&lt;/b&gt;&lt;br&gt;Percentage identity: 92&lt;br&gt;Percentage coverage: 99&lt;br&gt;BLAST bit score: 181&lt;br&gt;E-value: 2.69e-59" locus_tag="LUU92_RS11815" class="clusterblast-orf" id="dummy-5_h5_8_38"  />
</g>
<g id="a5_0039"  >
<polygon points="704,90 709,90 714,85 709,80 704,80 704,90 " style="fill:#15d815; stroke-width:1; stroke:black; " description="&lt;b&gt;LUU92_RS11810&lt;/b&gt;&lt;br&gt;NAD(P)/FAD-dependent oxidoreductase&lt;br&gt;Location: 2598991 - 2597648&lt;br&gt;&lt;br&gt;&lt;b&gt;BlastP hit with MFKKBJ_13445&lt;/b&gt;&lt;br&gt;Percentage identity: 86&lt;br&gt;Percentage coverage: 100&lt;br&gt;BLAST bit score: 787&lt;br&gt;E-value: 2.86e-287" locus_tag="LUU92_RS11810" class="clusterblast-orf" id="dummy-5_h5_8_39"  />
</g>
<g id="a5_0040"  >
<polygon points="714,90 717,90 722,85 717,80 714,80 714,90 " style="fill:#1577d8; stroke-width:1; stroke:black; " description="&lt;b&gt;LUU92_RS11805&lt;/b&gt;&lt;br&gt;FAD-binding oxidoreductase&lt;br&gt;Location: 2597651 - 2596554&lt;br&gt;&lt;br&gt;&lt;b&gt;BlastP hit with MFKKBJ_13450&lt;/b&gt;&lt;br&gt;Percentage identity: 93&lt;br&gt;Percentage coverage: 100&lt;br&gt;BLAST bit score: 680&lt;br&gt;E-value: 7.94e-248" locus_tag="LUU92_RS11805" class="clusterblast-orf" id="dummy-5_h5_8_40"  />
</g>
<g id="a5_0041"  >
<polygon points="722,90 725,90 730,85 725,80 722,80 722,90 " style="fill:#d815d8; stroke-width:1; stroke:black; " description="&lt;b&gt;LUU92_RS11800&lt;/b&gt;&lt;br&gt;ABC transporter substrate-binding protein&lt;br&gt;Location: 2596539 - 2595508&lt;br&gt;&lt;br&gt;&lt;b&gt;BlastP hit with MFKKBJ_13455&lt;/b&gt;&lt;br&gt;Percentage identity: 96&lt;br&gt;Percentage coverage: 100&lt;br&gt;BLAST bit score: 647&lt;br&gt;E-value: 2.62e-235" locus_tag="LUU92_RS11800" class="clusterblast-orf" id="dummy-5_h5_8_41"  />
</g>
<g id="a5_0042"  >
<polygon points="730,85 735,80 736,80 736,90 735,90 730,85 " style="fill:#d8d815; stroke-width:1; stroke:black; " description="&lt;b&gt;LUU92_RS11795&lt;/b&gt;&lt;br&gt;ammonia-dependent NAD(+) synthetase&lt;br&gt;Location: 2595507 - 2594698&lt;br&gt;&lt;br&gt;&lt;b&gt;BlastP hit with MFKKBJ_13460&lt;/b&gt;&lt;br&gt;Percentage identity: 88&lt;br&gt;Percentage coverage: 100&lt;br&gt;BLAST bit score: 459&lt;br&gt;E-value: 1.01e-163" locus_tag="LUU92_RS11795" class="clusterblast-orf" id="dummy-5_h5_8_42"  />
</g>
<g id="a5_0043"  >
<polygon points="736,85 741,80 745,80 745,90 741,90 736,85 " style="fill:#15d877; stroke-width:1; stroke:black; " description="&lt;b&gt;LUU92_RS11790&lt;/b&gt;&lt;br&gt;nicotinate phosphoribosyltransferase&lt;br&gt;Location: 2594696 - 2593479&lt;br&gt;&lt;br&gt;&lt;b&gt;BlastP hit with MFKKBJ_13465&lt;/b&gt;&lt;br&gt;Percentage identity: 94&lt;br&gt;Percentage coverage: 100&lt;br&gt;BLAST bit score: 784&lt;br&gt;E-value: 1.8e-287" locus_tag="LUU92_RS11790" class="clusterblast-orf" id="dummy-5_h5_8_43"  />
</g>
<g id="a5_0044"  >
<polygon points="745,85 749,80 749,90 745,85 " style="fill:#1515d8; stroke-width:1; stroke:black; " description="&lt;b&gt;LUU92_RS11785&lt;/b&gt;&lt;br&gt;nicotinamidase&lt;br&gt;Location: 2593467 - 2592820&lt;br&gt;&lt;br&gt;&lt;b&gt;BlastP hit with MFKKBJ_13470&lt;/b&gt;&lt;br&gt;Percentage identity: 92&lt;br&gt;Percentage coverage: 100&lt;br&gt;BLAST bit score: 409&lt;br&gt;E-value: 1.06e-145" locus_tag="LUU92_RS11785" class="clusterblast-orf" id="dummy-5_h5_8_44"  />
</g>
<g id="a5_0045"  >
<polygon points="750,90 750,90 755,85 750,80 750,80 750,90 " style="fill:#d81577; stroke-width:1; stroke:black; " description="&lt;b&gt;LUU92_RS11780&lt;/b&gt;&lt;br&gt;NUDIX hydrolase&lt;br&gt;Location: 2592673 - 2591981&lt;br&gt;&lt;br&gt;&lt;b&gt;BlastP hit with MFKKBJ_13475&lt;/b&gt;&lt;br&gt;Percentage identity: 86&lt;br&gt;Percentage coverage: 96&lt;br&gt;BLAST bit score: 267&lt;br&gt;E-value: 4.16e-90&lt;br&gt;&lt;br&gt;&lt;b&gt;BlastP hit with MFKKBJ_13480&lt;/b&gt;&lt;br&gt;Percentage identity: 95&lt;br&gt;Percentage coverage: 100&lt;br&gt;BLAST bit score: 147&lt;br&gt;E-value: 3.59e-44" locus_tag="LUU92_RS11780" class="clusterblast-orf" id="dummy-5_h5_8_45"  />
</g>
<g id="a5_0046"  >
<polygon points="756,85 761,80 762,80 762,90 761,90 756,85 " style="fill:white; stroke-width:1; stroke:black; " description="&lt;b&gt;LUU92_RS11775&lt;/b&gt;&lt;br&gt;L-iditol 2-dehydrogenase&lt;br&gt;Location: 2591916 - 2591143" locus_tag="LUU92_RS11775" class="clusterblast-orf" id="dummy-5_h5_8_46"  />
</g>
<g id="a5_0047"  >
<polygon points="762,85 767,80 771,80 771,90 767,90 762,85 " style="fill:white; stroke-width:1; stroke:black; " description="&lt;b&gt;LUU92_RS11770&lt;/b&gt;&lt;br&gt;sugar ABC transporter substrate-binding protein&lt;br&gt;Location: 2591123 - 2589813" locus_tag="LUU92_RS11770" class="clusterblast-orf" id="dummy-5_h5_8_47"  />
</g>
<g id="a5_0048"  >
<polygon points="773,90 775,90 780,85 775,80 773,80 773,90 " style="fill:white; stroke-width:1; stroke:black; " description="&lt;b&gt;LUU92_RS11765&lt;/b&gt;&lt;br&gt;AraC family transcriptional regulator&lt;br&gt;Location: 2589601 - 2588681" locus_tag="LUU92_RS11765" class="clusterblast-orf" id="dummy-5_h5_8_48"  />
</g>
</svg>
