<svg xmlns="http://www.w3.org/2000/svg" xmlns:xlink="http://www.w3.org/1999/xlink" version="1.1" x="0" y="0" height="230" width="800" viewBox="0 0 800 230" preserveAspectRatio="none"  >
<g label="Query sequence" class="clusterblast-cluster"  >
<text x="5" y="20" class="clusterblast-acc"  >
Query sequence</text>
<line x1="10" y1="35" x2="778.0" y2="35" style="stroke-width:1; stroke:grey; "  />
<polygon points="3,40 79,40 84,35 79,30 3,30 3,40 " style="fill:#d81515; stroke-width:1; stroke:black; " description="&lt;b&gt;MFKKBJ_26540&lt;/b&gt;&lt;br&gt;Protein HflC&lt;br&gt;Location: 5781757 - 5782747" locus_tag="MFKKBJ_26540" class="clusterblast-orf" id="dummy-10_q0_0_all"  />
<polygon points="84,40 164,40 169,35 164,30 84,30 84,40 " style="fill:#15d815; stroke-width:1; stroke:black; " description="&lt;b&gt;MFKKBJ_26545&lt;/b&gt;&lt;br&gt;Modulator of FtsH protease HflK&lt;br&gt;Location: 5782743 - 5783778" locus_tag="MFKKBJ_26545" class="clusterblast-orf" id="dummy-10_q1_0_all"  />
<polygon points="169,40 320,40 325,35 320,30 169,30 169,40 " style="fill:#1597d8; stroke-width:1; stroke:black; " description="&lt;b&gt;MFKKBJ_26550&lt;/b&gt;&lt;br&gt;Cadmium-translocating P-type ATPase&lt;br&gt;Location: 5783774 - 5785661" locus_tag="MFKKBJ_26550" class="clusterblast-orf" id="dummy-10_q2_0_all"  />
<polygon points="334,40 350,40 355,35 350,30 334,30 334,40 " style="fill:#9715d8; stroke-width:1; stroke:black; " description="&lt;b&gt;MFKKBJ_26555&lt;/b&gt;&lt;br&gt;Integral membrane protein&lt;br&gt;Location: 5785778 - 5786030" locus_tag="MFKKBJ_26555" class="clusterblast-orf" id="dummy-10_q3_0_all"  />
<polygon points="360,40 425,40 430,35 425,30 360,30 360,40 " style="fill:#d89715; stroke-width:1; stroke:black; " description="&lt;b&gt;MFKKBJ_26560&lt;/b&gt;&lt;br&gt;UPF0276 protein BW43 00573&lt;br&gt;Location: 5786096 - 5786942" locus_tag="MFKKBJ_26560" class="clusterblast-orf" id="dummy-10_q4_0_all"  />
<polygon points="429,40 489,40 494,35 489,30 429,30 429,40 " style="fill:#15d897; stroke-width:1; stroke:black; " description="&lt;b&gt;MFKKBJ_26565&lt;/b&gt;&lt;br&gt;DUF2063 domain-containing protein&lt;br&gt;Location: 5786932 - 5787721" locus_tag="MFKKBJ_26565" class="clusterblast-orf" id="dummy-10_q5_0_all"  />
<polygon points="502,40 594,40 599,35 594,30 502,30 502,40 " style="fill:#1515d8; stroke-width:1; stroke:black; " description="&lt;b&gt;MFKKBJ_26570&lt;/b&gt;&lt;br&gt;C17 cyclopropane fatty acid synthase CfaB&lt;br&gt;Location: 5787808 - 5788993" locus_tag="MFKKBJ_26570" class="clusterblast-orf" id="dummy-10_q6_0_all"  />
<polygon points="605,35 610,30 724,30 724,40 610,40 605,35 " style="fill:#d81597; stroke-width:1; stroke:black; " description="&lt;b&gt;MFKKBJ_26575&lt;/b&gt;&lt;br&gt;cardiolipin synthase&lt;br&gt;Location: 5789067 - 5790507" locus_tag="MFKKBJ_26575" class="clusterblast-orf" id="dummy-10_q7_0_all"  />
<polygon points="735,40 773,40 778,35 773,30 735,30 735,40 " style="fill:#97d815; stroke-width:1; stroke:black; " description="&lt;b&gt;MFKKBJ_26580&lt;/b&gt;&lt;br&gt;DUF3617 domain-containing protein&lt;br&gt;Location: 5790638 - 5791160" locus_tag="MFKKBJ_26580" class="clusterblast-orf" id="dummy-10_q8_0_all"  />
</g>
<g label="NZ_CP058533" description="NZ_CP058533 (4419362-4430208): Pseudomonas fluorescens strain W-6 chromosome,... (100% of genes show similarity), RiPP-like" class="clusterblast-cluster"  >
<text x="5" y="70" class="clusterblast-acc"  >
<a xlink:href="https://antismash-db.secondarymetabolites.org/area?record=NZ_CP058533&amp;start=4419362&amp;end=4430208" target="_blank">NZ_CP058533 (4419362-4430208)</a>: Pseudomonas fluorescens strain W-6 chromosome,... (100% of genes show similarity), RiPP-like</text>
<line x1="10" y1="85" x2="778.0" y2="85" style="stroke-width:1; stroke:grey; "  />
</g>
<g id="a10_000"  >
<polygon points="0,90 76,90 81,85 76,80 0,80 0,90 " style="fill:#d81515; stroke-width:1; stroke:black; " description="&lt;b&gt;HXS75_RS19800&lt;/b&gt;&lt;br&gt;protease modulator HflC&lt;br&gt;Location: 4420024 - 4421010&lt;br&gt;&lt;br&gt;&lt;b&gt;BlastP hit with MFKKBJ_26540&lt;/b&gt;&lt;br&gt;Percentage identity: 99&lt;br&gt;Percentage coverage: 100&lt;br&gt;BLAST bit score: 527&lt;br&gt;E-value: 2.07e-188" locus_tag="HXS75_RS19800" class="clusterblast-orf" id="dummy-10_h10_3_0"  />
</g>
<g id="a10_001"  >
<polygon points="81,90 161,90 166,85 161,80 81,80 81,90 " style="fill:#15d815; stroke-width:1; stroke:black; " description="&lt;b&gt;HXS75_RS19805&lt;/b&gt;&lt;br&gt;protease modulator HflK&lt;br&gt;Location: 4421007 - 4422041&lt;br&gt;&lt;br&gt;&lt;b&gt;BlastP hit with MFKKBJ_26545&lt;/b&gt;&lt;br&gt;Percentage identity: 97&lt;br&gt;Percentage coverage: 100&lt;br&gt;BLAST bit score: 549&lt;br&gt;E-value: 9.86e-197" locus_tag="HXS75_RS19805" class="clusterblast-orf" id="dummy-10_h10_3_1"  />
</g>
<g id="a10_002"  >
<polygon points="165,90 316,90 321,85 316,80 165,80 165,90 " style="fill:#1597d8; stroke-width:1; stroke:black; " description="&lt;b&gt;HXS75_RS19810&lt;/b&gt;&lt;br&gt;cation-translocating P-type ATPase&lt;br&gt;Location: 4422038 - 4423924&lt;br&gt;&lt;br&gt;&lt;b&gt;BlastP hit with MFKKBJ_26550&lt;/b&gt;&lt;br&gt;Percentage identity: 97&lt;br&gt;Percentage coverage: 100&lt;br&gt;BLAST bit score: 1073&lt;br&gt;E-value: 0.0" locus_tag="HXS75_RS19810" class="clusterblast-orf" id="dummy-10_h10_3_2"  />
</g>
<g id="a10_003"  >
<polygon points="331,90 346,90 351,85 346,80 331,80 331,90 " style="fill:#9715d8; stroke-width:1; stroke:black; " description="&lt;b&gt;HXS75_RS19815&lt;/b&gt;&lt;br&gt;membrane protein&lt;br&gt;Location: 4424042 - 4424293&lt;br&gt;&lt;br&gt;&lt;b&gt;BlastP hit with MFKKBJ_26555&lt;/b&gt;&lt;br&gt;Percentage identity: 77&lt;br&gt;Percentage coverage: 100&lt;br&gt;BLAST bit score: 94&lt;br&gt;E-value: 6.28e-25" locus_tag="HXS75_RS19815" class="clusterblast-orf" id="dummy-10_h10_3_3"  />
</g>
<g id="a10_004"  >
<polygon points="357,90 422,90 427,85 422,80 357,80 357,90 " style="fill:#d89715; stroke-width:1; stroke:black; " description="&lt;b&gt;HXS75_RS19820&lt;/b&gt;&lt;br&gt;DUF692 domain-containing protein&lt;br&gt;Location: 4424363 - 4425208&lt;br&gt;&lt;br&gt;&lt;b&gt;BlastP hit with MFKKBJ_26560&lt;/b&gt;&lt;br&gt;Percentage identity: 94&lt;br&gt;Percentage coverage: 100&lt;br&gt;BLAST bit score: 555&lt;br&gt;E-value: 4.05e-201" locus_tag="HXS75_RS19820" class="clusterblast-orf" id="dummy-10_h10_3_4"  />
</g>
<g id="a10_005"  >
<polygon points="426,90 486,90 491,85 486,80 426,80 426,90 " style="fill:#15d897; stroke-width:1; stroke:black; " description="&lt;b&gt;HXS75_RS19825&lt;/b&gt;&lt;br&gt;DNA-binding domain-containing protein&lt;br&gt;Location: 4425199 - 4425987&lt;br&gt;&lt;br&gt;&lt;b&gt;BlastP hit with MFKKBJ_26565&lt;/b&gt;&lt;br&gt;Percentage identity: 84&lt;br&gt;Percentage coverage: 100&lt;br&gt;BLAST bit score: 453&lt;br&gt;E-value: 2.3e-161" locus_tag="HXS75_RS19825" class="clusterblast-orf" id="dummy-10_h10_3_5"  />
</g>
<g id="a10_006"  >
<polygon points="498,90 591,90 596,85 591,80 498,80 498,90 " style="fill:#1515d8; stroke-width:1; stroke:black; " description="&lt;b&gt;HXS75_RS19830&lt;/b&gt;&lt;br&gt;C17 cyclopropane fatty acid synthase CfaB&lt;br&gt;Location: 4426074 - 4427258&lt;br&gt;&lt;br&gt;&lt;b&gt;BlastP hit with MFKKBJ_26570&lt;/b&gt;&lt;br&gt;Percentage identity: 97&lt;br&gt;Percentage coverage: 100&lt;br&gt;BLAST bit score: 777&lt;br&gt;E-value: 4.23e-285" locus_tag="HXS75_RS19830" class="clusterblast-orf" id="dummy-10_h10_3_6"  />
</g>
<g id="a10_007"  >
<polygon points="607,85 612,80 726,80 726,90 612,90 607,85 " style="fill:#d81597; stroke-width:1; stroke:black; " description="&lt;b&gt;HXS75_RS19835&lt;/b&gt;&lt;br&gt;cardiolipin synthase&lt;br&gt;Location: 4427397 - 4428836&lt;br&gt;&lt;br&gt;&lt;b&gt;BlastP hit with MFKKBJ_26575&lt;/b&gt;&lt;br&gt;Percentage identity: 97&lt;br&gt;Percentage coverage: 100&lt;br&gt;BLAST bit score: 924&lt;br&gt;E-value: 0.0" locus_tag="HXS75_RS19835" class="clusterblast-orf" id="dummy-10_h10_3_7"  />
</g>
<g id="a10_008"  >
<polygon points="737,90 775,90 780,85 775,80 737,80 737,90 " style="fill:#97d815; stroke-width:1; stroke:black; " description="&lt;b&gt;HXS75_RS19840&lt;/b&gt;&lt;br&gt;DUF3617 domain-containing protein&lt;br&gt;Location: 4428967 - 4429488&lt;br&gt;&lt;br&gt;&lt;b&gt;BlastP hit with MFKKBJ_26580&lt;/b&gt;&lt;br&gt;Percentage identity: 98&lt;br&gt;Percentage coverage: 100&lt;br&gt;BLAST bit score: 337&lt;br&gt;E-value: 2e-118" locus_tag="HXS75_RS19840" class="clusterblast-orf" id="dummy-10_h10_3_8"  />
</g>
</svg>
