<svg xmlns="http://www.w3.org/2000/svg" xmlns:xlink="http://www.w3.org/1999/xlink" version="1.1" x="0" y="0" height="230" width="800" viewBox="0 0 800 230" preserveAspectRatio="none"  >
<g label="Query sequence" class="clusterblast-cluster"  >
<text x="5" y="20" class="clusterblast-acc"  >
Query sequence</text>
<line x1="10" y1="35" x2="778.0" y2="35" style="stroke-width:1; stroke:grey; "  />
<polygon points="10,40 86,40 91,35 86,30 10,30 10,40 " style="fill:#d81515; stroke-width:1; stroke:black; " description="&lt;b&gt;MFKKBJ_19475&lt;/b&gt;&lt;br&gt;high-affinity branched-chain amino acid ABC transporter permease LivH&lt;br&gt;Location: 4198802 - 4199726" locus_tag="MFKKBJ_19475" class="clusterblast-orf" id="dummy-7_q0_0_all"  />
<polygon points="91,40 196,40 201,35 196,30 91,30 91,40 " style="fill:#3cd815; stroke-width:1; stroke:black; " description="&lt;b&gt;MFKKBJ_19480&lt;/b&gt;&lt;br&gt;High-affinity branched-chain amino acid transport system permease LivHM N-terminal domain-containing protein&lt;br&gt;Location: 4199722 - 4200976" locus_tag="MFKKBJ_19480" class="clusterblast-orf" id="dummy-7_q1_0_all"  />
<polygon points="201,40 263,40 268,35 263,30 201,30 201,40 " style="fill:#1563d8; stroke-width:1; stroke:black; " description="&lt;b&gt;MFKKBJ_19485&lt;/b&gt;&lt;br&gt;high-affinity branched-chain amino acid ABC transporter ATP-binding protein LivG&lt;br&gt;Location: 4200972 - 4201740" locus_tag="MFKKBJ_19485" class="clusterblast-orf" id="dummy-7_q2_0_all"  />
<polygon points="269,40 325,40 330,35 325,30 269,30 269,40 " style="fill:#1563d8; stroke-width:1; stroke:black; " description="&lt;b&gt;MFKKBJ_19490&lt;/b&gt;&lt;br&gt;ABC-type branched-chain amino acid transport system, ATPase component LivF&lt;br&gt;Location: 4201741 - 4202443" locus_tag="MFKKBJ_19490" class="clusterblast-orf" id="dummy-7_q3_0_all"  />
<polygon points="348,40 369,40 374,35 369,30 348,30 348,40 " style="fill:#b115d8; stroke-width:1; stroke:black; " description="&lt;b&gt;MFKKBJ_19495&lt;/b&gt;&lt;br&gt;DUF2282 domain-containing protein&lt;br&gt;Location: 4202639 - 4202936" locus_tag="MFKKBJ_19495" class="clusterblast-orf" id="dummy-7_q4_0_all"  />
<polygon points="376,40 446,40 451,35 446,30 376,30 376,40 " style="fill:#d88a15; stroke-width:1; stroke:black; " description="&lt;b&gt;MFKKBJ_19500&lt;/b&gt;&lt;br&gt;UPF0276 protein PFWH6 1361&lt;br&gt;Location: 4202962 - 4203817" locus_tag="MFKKBJ_19500" class="clusterblast-orf" id="dummy-7_q5_0_all"  />
<polygon points="451,40 514,40 519,35 514,30 451,30 451,40 " style="fill:#15d863; stroke-width:1; stroke:black; " description="&lt;b&gt;MFKKBJ_19505&lt;/b&gt;&lt;br&gt;Putative DNA-binding domain-containing protein&lt;br&gt;Location: 4203813 - 4204590" locus_tag="MFKKBJ_19505" class="clusterblast-orf" id="dummy-7_q6_0_all"  />
<polygon points="519,40 557,40 562,35 557,30 519,30 519,40 " style="fill:#3c15d8; stroke-width:1; stroke:black; " description="&lt;b&gt;MFKKBJ_19510&lt;/b&gt;&lt;br&gt;DoxX family protein&lt;br&gt;Location: 4204586 - 4205072" locus_tag="MFKKBJ_19510" class="clusterblast-orf" id="dummy-7_q7_0_all"  />
<polygon points="561,35 566,30 641,30 641,40 566,40 561,35 " style="fill:#d8158a; stroke-width:1; stroke:black; " description="&lt;b&gt;MFKKBJ_19515&lt;/b&gt;&lt;br&gt;HTH lysR-type domain-containing protein&lt;br&gt;Location: 4205068 - 4205977" locus_tag="MFKKBJ_19515" class="clusterblast-orf" id="dummy-7_q8_0_all"  />
<polygon points="650,40 698,40 703,35 698,30 650,30 650,40 " style="fill:#b1d815; stroke-width:1; stroke:black; " description="&lt;b&gt;MFKKBJ_19520&lt;/b&gt;&lt;br&gt;short chain dehydrogenase&lt;br&gt;Location: 4206081 - 4206681" locus_tag="MFKKBJ_19520" class="clusterblast-orf" id="dummy-7_q9_0_all"  />
<polygon points="712,40 766,40 771,35 766,30 712,30 712,40 " style="fill:#15d8d8; stroke-width:1; stroke:black; " description="&lt;b&gt;MFKKBJ_19525&lt;/b&gt;&lt;br&gt;Lipoprotein&lt;br&gt;Location: 4206778 - 4207450" locus_tag="MFKKBJ_19525" class="clusterblast-orf" id="dummy-7_q10_0_all"  />
</g>
<g label="NZ_JAKJKE010000001" description="NZ_JAKJKE010000001 (207314-218193): Pseudomonas fragi strain L3 Scaffold1, wh... (100% of genes show similarity), RiPP-like" class="clusterblast-cluster"  >
<text x="5" y="70" class="clusterblast-acc"  >
<a xlink:href="https://antismash-db.secondarymetabolites.org/area?record=NZ_JAKJKE010000001&amp;start=207314&amp;end=218193" target="_blank">NZ_JAKJKE010000001 (207314-218193)</a>: Pseudomonas fragi strain L3 Scaffold1, wh... (100% of genes show similarity), RiPP-like</text>
<line x1="10" y1="85" x2="778.0" y2="85" style="stroke-width:1; stroke:grey; "  />
</g>
<g id="a7_000"  >
<polygon points="0,90 76,90 81,85 76,80 0,80 0,90 " style="fill:#d81515; stroke-width:1; stroke:black; " description="&lt;b&gt;L3X21_RS00950&lt;/b&gt;&lt;br&gt;high-affinity branched-chain amino acid ABC transporter permease LivH&lt;br&gt;Location: 208072 - 208995&lt;br&gt;&lt;br&gt;&lt;b&gt;BlastP hit with MFKKBJ_19475&lt;/b&gt;&lt;br&gt;Percentage identity: 91&lt;br&gt;Percentage coverage: 100&lt;br&gt;BLAST bit score: 535&lt;br&gt;E-value: 2.53e-192" locus_tag="L3X21_RS00950" class="clusterblast-orf" id="dummy-7_h7_3_0"  />
</g>
<g id="a7_001"  >
<polygon points="80,90 186,90 191,85 186,80 80,80 80,90 " style="fill:#3cd815; stroke-width:1; stroke:black; " description="&lt;b&gt;L3X21_RS00955&lt;/b&gt;&lt;br&gt;high-affinity branched-chain amino acid ABC transporter permease LivM&lt;br&gt;Location: 208992 - 210248&lt;br&gt;&lt;br&gt;&lt;b&gt;BlastP hit with MFKKBJ_19480&lt;/b&gt;&lt;br&gt;Percentage identity: 84&lt;br&gt;Percentage coverage: 100&lt;br&gt;BLAST bit score: 671&lt;br&gt;E-value: 2.91e-242" locus_tag="L3X21_RS00955" class="clusterblast-orf" id="dummy-7_h7_3_1"  />
</g>
<g id="a7_002"  >
<polygon points="191,90 253,90 258,85 253,80 191,80 191,90 " style="fill:#1563d8; stroke-width:1; stroke:black; " description="&lt;b&gt;L3X21_RS00960&lt;/b&gt;&lt;br&gt;high-affinity branched-chain amino acid ABC transporter ATP-binding protein LivG&lt;br&gt;Location: 210245 - 211012&lt;br&gt;&lt;br&gt;&lt;b&gt;BlastP hit with MFKKBJ_19485&lt;/b&gt;&lt;br&gt;Percentage identity: 92&lt;br&gt;Percentage coverage: 100&lt;br&gt;BLAST bit score: 468&lt;br&gt;E-value: 2.18e-167" locus_tag="L3X21_RS00960" class="clusterblast-orf" id="dummy-7_h7_3_2"  />
</g>
<g id="a7_003"  >
<polygon points="258,90 315,90 320,85 315,80 258,80 258,90 " style="fill:#1563d8; stroke-width:1; stroke:black; " description="&lt;b&gt;L3X21_RS00965&lt;/b&gt;&lt;br&gt;ABC transporter ATP-binding protein&lt;br&gt;Location: 211014 - 211715&lt;br&gt;&lt;br&gt;&lt;b&gt;BlastP hit with MFKKBJ_19485&lt;/b&gt;&lt;br&gt;Percentage identity: 34&lt;br&gt;Percentage coverage: 100&lt;br&gt;BLAST bit score: 127&lt;br&gt;E-value: 1.36e-33&lt;br&gt;&lt;br&gt;&lt;b&gt;BlastP hit with MFKKBJ_19490&lt;/b&gt;&lt;br&gt;Percentage identity: 93&lt;br&gt;Percentage coverage: 100&lt;br&gt;BLAST bit score: 422&lt;br&gt;E-value: 5.57e-150" locus_tag="L3X21_RS00965" class="clusterblast-orf" id="dummy-7_h7_3_3"  />
</g>
<g id="a7_004"  >
<polygon points="344,90 366,90 371,85 366,80 344,80 344,90 " style="fill:#b115d8; stroke-width:1; stroke:black; " description="&lt;b&gt;L3X21_RS00970&lt;/b&gt;&lt;br&gt;DUF2282 domain-containing protein&lt;br&gt;Location: 211991 - 212293&lt;br&gt;&lt;br&gt;&lt;b&gt;BlastP hit with MFKKBJ_19495&lt;/b&gt;&lt;br&gt;Percentage identity: 74&lt;br&gt;Percentage coverage: 99&lt;br&gt;BLAST bit score: 120&lt;br&gt;E-value: 8.16e-35" locus_tag="L3X21_RS00970" class="clusterblast-orf" id="dummy-7_h7_3_4"  />
</g>
<g id="a7_005"  >
<polygon points="373,90 445,90 450,85 445,80 373,80 373,90 " style="fill:#d88a15; stroke-width:1; stroke:black; " description="&lt;b&gt;L3X21_RS00975&lt;/b&gt;&lt;br&gt;DUF692 domain-containing protein&lt;br&gt;Location: 212315 - 213193&lt;br&gt;&lt;br&gt;&lt;b&gt;BlastP hit with MFKKBJ_19500&lt;/b&gt;&lt;br&gt;Percentage identity: 71&lt;br&gt;Percentage coverage: 99&lt;br&gt;BLAST bit score: 416&lt;br&gt;E-value: 9.53e-146" locus_tag="L3X21_RS00975" class="clusterblast-orf" id="dummy-7_h7_3_5"  />
</g>
<g id="a7_006"  >
<polygon points="450,90 513,90 518,85 513,80 450,80 450,90 " style="fill:#15d863; stroke-width:1; stroke:black; " description="&lt;b&gt;L3X21_RS00980&lt;/b&gt;&lt;br&gt;DNA-binding domain-containing protein&lt;br&gt;Location: 213190 - 213963&lt;br&gt;&lt;br&gt;&lt;b&gt;BlastP hit with MFKKBJ_19505&lt;/b&gt;&lt;br&gt;Percentage identity: 54&lt;br&gt;Percentage coverage: 100&lt;br&gt;BLAST bit score: 254&lt;br&gt;E-value: 6.93e-83" locus_tag="L3X21_RS00980" class="clusterblast-orf" id="dummy-7_h7_3_6"  />
</g>
<g id="a7_007"  >
<polygon points="518,90 558,90 563,85 558,80 518,80 518,90 " style="fill:#3c15d8; stroke-width:1; stroke:black; " description="&lt;b&gt;L3X21_RS00985&lt;/b&gt;&lt;br&gt;DoxX family protein&lt;br&gt;Location: 213960 - 214481&lt;br&gt;&lt;br&gt;&lt;b&gt;BlastP hit with MFKKBJ_19510&lt;/b&gt;&lt;br&gt;Percentage identity: 73&lt;br&gt;Percentage coverage: 99&lt;br&gt;BLAST bit score: 234&lt;br&gt;E-value: 8.57e-78" locus_tag="L3X21_RS00985" class="clusterblast-orf" id="dummy-7_h7_3_7"  />
</g>
<g id="a7_008"  >
<polygon points="560,85 565,80 640,80 640,90 565,90 560,85 " style="fill:#d8158a; stroke-width:1; stroke:black; " description="&lt;b&gt;L3X21_RS00990&lt;/b&gt;&lt;br&gt;LysR family transcriptional regulator&lt;br&gt;Location: 214448 - 215356&lt;br&gt;&lt;br&gt;&lt;b&gt;BlastP hit with MFKKBJ_19515&lt;/b&gt;&lt;br&gt;Percentage identity: 84&lt;br&gt;Percentage coverage: 99&lt;br&gt;BLAST bit score: 497&lt;br&gt;E-value: 1.47e-177" locus_tag="L3X21_RS00990" class="clusterblast-orf" id="dummy-7_h7_3_8"  />
</g>
<g id="a7_009"  >
<polygon points="650,90 697,90 702,85 697,80 650,80 650,90 " style="fill:#b1d815; stroke-width:1; stroke:black; " description="&lt;b&gt;L3X21_RS00995&lt;/b&gt;&lt;br&gt;short chain dehydrogenase&lt;br&gt;Location: 215461 - 216060&lt;br&gt;&lt;br&gt;&lt;b&gt;BlastP hit with MFKKBJ_19520&lt;/b&gt;&lt;br&gt;Percentage identity: 83&lt;br&gt;Percentage coverage: 100&lt;br&gt;BLAST bit score: 329&lt;br&gt;E-value: 2.26e-114" locus_tag="L3X21_RS00995" class="clusterblast-orf" id="dummy-7_h7_3_9"  />
</g>
<g id="a7_0010"  >
<polygon points="720,90 775,90 780,85 775,80 720,80 720,90 " style="fill:#15d8d8; stroke-width:1; stroke:black; " description="&lt;b&gt;L3X21_RS01000&lt;/b&gt;&lt;br&gt;hypothetical protein&lt;br&gt;Location: 216267 - 216938&lt;br&gt;&lt;br&gt;&lt;b&gt;BlastP hit with MFKKBJ_19525&lt;/b&gt;&lt;br&gt;Percentage identity: 59&lt;br&gt;Percentage coverage: 100&lt;br&gt;BLAST bit score: 275&lt;br&gt;E-value: 3.84e-92" locus_tag="L3X21_RS01000" class="clusterblast-orf" id="dummy-7_h7_3_10"  />
</g>
</svg>
