<svg xmlns="http://www.w3.org/2000/svg" xmlns:xlink="http://www.w3.org/1999/xlink" version="1.1" x="0" y="0" height="50" width="800" viewBox="0 0 800 50" preserveAspectRatio="none"  >
<g label="Query sequence" class="clusterblast-cluster"  >
<text x="5" y="20" class="clusterblast-acc"  >
Query sequence</text>
<line x1="10" y1="35" x2="778.0" y2="35" style="stroke-width:1; stroke:grey; "  />
<polygon points="0,40 61,40 66,35 61,30 0,30 0,40 " style="fill:white; stroke-width:1; stroke:black; " description="&lt;b&gt;MFKKBJ_07180&lt;/b&gt;&lt;br&gt;ABC transmembrane type-1 domain-containing protein&lt;br&gt;Location: 1515901 - 1516858" locus_tag="MFKKBJ_07180" class="clusterblast-orf" id="knownclusterblast-1_q0_0_all"  />
<polygon points="66,40 121,40 126,35 121,30 66,30 66,40 " style="fill:white; stroke-width:1; stroke:black; " description="&lt;b&gt;MFKKBJ_07185&lt;/b&gt;&lt;br&gt;DNA-directed RNA polymerase subunit alpha&lt;br&gt;Location: 1516854 - 1517730" locus_tag="MFKKBJ_07185" class="clusterblast-orf" id="knownclusterblast-1_q1_0_all"  />
<polygon points="126,40 247,40 252,35 247,30 126,30 126,40 " style="fill:white; stroke-width:1; stroke:black; " description="&lt;b&gt;MFKKBJ_07190&lt;/b&gt;&lt;br&gt;nickel import ATP-binding protein NikE&lt;br&gt;Location: 1517731 - 1519573" locus_tag="MFKKBJ_07190" class="clusterblast-orf" id="knownclusterblast-1_q2_0_all"  />
<polygon points="252,40 268,40 273,35 268,30 252,30 252,40 " style="fill:white; stroke-width:1; stroke:black; " description="&lt;b&gt;MFKKBJ_07195&lt;/b&gt;&lt;br&gt;NAD(FAD)-dependent dehydrogenase&lt;br&gt;Location: 1519569 - 1519878" locus_tag="MFKKBJ_07195" class="clusterblast-orf" id="knownclusterblast-1_q3_0_all"  />
<polygon points="272,40 361,40 366,35 361,30 272,30 272,40 " style="fill:white; stroke-width:1; stroke:black; " description="&lt;b&gt;MFKKBJ_07200&lt;/b&gt;&lt;br&gt;Hydrogen cyanide synthase subunit HcnB&lt;br&gt;Location: 1519859 - 1521239" locus_tag="MFKKBJ_07200" class="clusterblast-orf" id="knownclusterblast-1_q4_0_all"  />
<polygon points="366,40 440,40 445,35 440,30 366,30 366,40 " style="fill:white; stroke-width:1; stroke:black; " description="&lt;b&gt;MFKKBJ_07205&lt;/b&gt;&lt;br&gt;FAD dependent oxidoreductase domain-containing protein&lt;br&gt;Location: 1521235 - 1522387" locus_tag="MFKKBJ_07205" class="clusterblast-orf" id="knownclusterblast-1_q5_0_all"  />
<polygon points="445,40 519,40 524,35 519,30 445,30 445,40 " style="fill:white; stroke-width:1; stroke:black; " description="&lt;b&gt;MFKKBJ_07210&lt;/b&gt;&lt;br&gt;acetylornithine deacetylase&lt;br&gt;Location: 1522383 - 1523541" locus_tag="MFKKBJ_07210" class="clusterblast-orf" id="knownclusterblast-1_q6_0_all"  />
<polygon points="532,40 628,40 633,35 628,30 532,30 532,40 " style="fill:white; stroke-width:1; stroke:black; " description="&lt;b&gt;MFKKBJ_07215&lt;/b&gt;&lt;br&gt;Glutarate-semialdehyde dehydrogenase Succinate-semialdehyde dehydrogenase [NADP+]&lt;br&gt;Location: 1523658 - 1525119" locus_tag="MFKKBJ_07215" class="clusterblast-orf" id="knownclusterblast-1_q7_0_all"  />
<polygon points="634,40 703,40 708,35 703,30 634,30 634,40 " style="fill:white; stroke-width:1; stroke:black; " description="&lt;b&gt;MFKKBJ_07220&lt;/b&gt;&lt;br&gt;tartrate dehydrogenase&lt;br&gt;Location: 1525132 - 1526218" locus_tag="MFKKBJ_07220" class="clusterblast-orf" id="knownclusterblast-1_q8_0_all"  />
<polygon points="709,35 714,30 717,30 717,40 714,40 709,35 " style="fill:white; stroke-width:1; stroke:black; " description="&lt;b&gt;MFKKBJ_07225&lt;/b&gt;&lt;br&gt;hypothetical protein&lt;br&gt;Location: 1526229 - 1526343" locus_tag="MFKKBJ_07225" class="clusterblast-orf" id="knownclusterblast-1_q9_0_all"  />
<polygon points="717,35 722,30 780,30 780,40 722,40 717,35 " style="fill:white; stroke-width:1; stroke:black; " description="&lt;b&gt;MFKKBJ_07230&lt;/b&gt;&lt;br&gt;D-3-phosphoglycerate dehydrogenase&lt;br&gt;Location: 1526342 - 1527269" locus_tag="MFKKBJ_07230" class="clusterblast-orf" id="knownclusterblast-1_q10_0_all"  />
</g>
</svg>
