<svg xmlns="http://www.w3.org/2000/svg" xmlns:xlink="http://www.w3.org/1999/xlink" version="1.1" x="0" y="0" height="50" width="800" viewBox="0 0 800 50" preserveAspectRatio="none"  >
<g label="Query sequence" class="clusterblast-cluster"  >
<text x="5" y="20" class="clusterblast-acc"  >
Query sequence</text>
<line x1="10" y1="35" x2="778.0" y2="35" style="stroke-width:1; stroke:grey; "  />
<polygon points="0,35 5,30 58,30 58,40 5,40 0,35 " style="fill:white; stroke-width:1; stroke:black; " description="&lt;b&gt;MFKKBJ_13420&lt;/b&gt;&lt;br&gt;IclR family transcriptional regulator&lt;br&gt;Location: 2932067 - 2932886" locus_tag="MFKKBJ_13420" class="clusterblast-orf" id="knownclusterblast-5_q0_0_all"  />
<polygon points="75,40 143,40 148,35 143,30 75,30 75,40 " style="fill:white; stroke-width:1; stroke:black; " description="&lt;b&gt;MFKKBJ_13425&lt;/b&gt;&lt;br&gt;Iron(III) transport system ATP-binding&lt;br&gt;Location: 2933126 - 2934155" locus_tag="MFKKBJ_13425" class="clusterblast-orf" id="knownclusterblast-5_q1_0_all"  />
<polygon points="148,40 202,40 207,35 202,30 148,30 148,40 " style="fill:white; stroke-width:1; stroke:black; " description="&lt;b&gt;MFKKBJ_13430&lt;/b&gt;&lt;br&gt;ABC transmembrane type-1 domain-containing protein&lt;br&gt;Location: 2934151 - 2934997" locus_tag="MFKKBJ_13430" class="clusterblast-orf" id="knownclusterblast-5_q2_0_all"  />
<polygon points="208,40 259,40 264,35 259,30 208,30 208,40 " style="fill:white; stroke-width:1; stroke:black; " description="&lt;b&gt;MFKKBJ_13435&lt;/b&gt;&lt;br&gt;ABC-type spermidine/putrescine transport system, permease component II&lt;br&gt;Location: 2935001 - 2935796" locus_tag="MFKKBJ_13435" class="clusterblast-orf" id="knownclusterblast-5_q3_0_all"  />
<polygon points="264,40 279,40 284,35 279,30 264,30 264,40 " style="fill:white; stroke-width:1; stroke:black; " description="&lt;b&gt;MFKKBJ_13440&lt;/b&gt;&lt;br&gt;Ferredoxin&lt;br&gt;Location: 2935795 - 2936086" locus_tag="MFKKBJ_13440" class="clusterblast-orf" id="knownclusterblast-5_q4_0_all"  />
<polygon points="284,40 374,40 379,35 374,30 284,30 284,40 " style="fill:white; stroke-width:1; stroke:black; " description="&lt;b&gt;MFKKBJ_13445&lt;/b&gt;&lt;br&gt;FAD/NAD(P)-binding oxidoreductase&lt;br&gt;Location: 2936082 - 2937426" locus_tag="MFKKBJ_13445" class="clusterblast-orf" id="knownclusterblast-5_q5_0_all"  />
<polygon points="379,40 452,40 457,35 452,30 379,30 379,40 " style="fill:white; stroke-width:1; stroke:black; " description="&lt;b&gt;MFKKBJ_13450&lt;/b&gt;&lt;br&gt;FAD dependent oxidoreductase domain-containing protein&lt;br&gt;Location: 2937422 - 2938520" locus_tag="MFKKBJ_13450" class="clusterblast-orf" id="knownclusterblast-5_q6_0_all"  />
<polygon points="458,40 526,40 531,35 526,30 458,30 458,40 " style="fill:white; stroke-width:1; stroke:black; " description="&lt;b&gt;MFKKBJ_13455&lt;/b&gt;&lt;br&gt;ABC transporter substrate-binding protein&lt;br&gt;Location: 2938534 - 2939566" locus_tag="MFKKBJ_13455" class="clusterblast-orf" id="knownclusterblast-5_q7_0_all"  />
<polygon points="531,35 536,30 588,30 588,40 536,40 531,35 " style="fill:white; stroke-width:1; stroke:black; " description="&lt;b&gt;MFKKBJ_13460&lt;/b&gt;&lt;br&gt;ammonia-dependent NAD(+) synthetase&lt;br&gt;Location: 2939566 - 2940376" locus_tag="MFKKBJ_13460" class="clusterblast-orf" id="knownclusterblast-5_q8_0_all"  />
<polygon points="588,35 593,30 674,30 674,40 593,40 588,35 " style="fill:white; stroke-width:1; stroke:black; " description="&lt;b&gt;MFKKBJ_13465&lt;/b&gt;&lt;br&gt;nicotinate phosphoribosyltransferase&lt;br&gt;Location: 2940377 - 2941595" locus_tag="MFKKBJ_13465" class="clusterblast-orf" id="knownclusterblast-5_q9_0_all"  />
<polygon points="675,35 680,30 721,30 721,40 680,40 675,35 " style="fill:white; stroke-width:1; stroke:black; " description="&lt;b&gt;MFKKBJ_13470&lt;/b&gt;&lt;br&gt;Isochorismatase&lt;br&gt;Location: 2941606 - 2942254" locus_tag="MFKKBJ_13470" class="clusterblast-orf" id="knownclusterblast-5_q10_0_all"  />
<polygon points="731,40 760,40 765,35 760,30 731,30 731,40 " style="fill:white; stroke-width:1; stroke:black; " description="&lt;b&gt;MFKKBJ_13475&lt;/b&gt;&lt;br&gt;NUDIX hydrolase&lt;br&gt;Location: 2942400 - 2942877" locus_tag="MFKKBJ_13475" class="clusterblast-orf" id="knownclusterblast-5_q11_0_all"  />
<polygon points="764,40 775,40 780,35 775,30 764,30 764,40 " style="fill:white; stroke-width:1; stroke:black; " description="&lt;b&gt;MFKKBJ_13480&lt;/b&gt;&lt;br&gt;hypothetical protein&lt;br&gt;Location: 2942860 - 2943094" locus_tag="MFKKBJ_13480" class="clusterblast-orf" id="knownclusterblast-5_q12_0_all"  />
</g>
</svg>
