<svg xmlns="http://www.w3.org/2000/svg" xmlns:xlink="http://www.w3.org/1999/xlink" version="1.1" x="0" y="0" height="50" width="800" viewBox="0 0 800 50" preserveAspectRatio="none"  >
<g label="Query sequence" class="clusterblast-cluster"  >
<text x="5" y="20" class="clusterblast-acc"  >
Query sequence</text>
<line x1="10" y1="35" x2="778.0" y2="35" style="stroke-width:1; stroke:grey; "  />
<polygon points="0,40 77,40 82,35 77,30 0,30 0,40 " style="fill:white; stroke-width:1; stroke:black; " description="&lt;b&gt;MFKKBJ_26540&lt;/b&gt;&lt;br&gt;Protein HflC&lt;br&gt;Location: 5781757 - 5782747" locus_tag="MFKKBJ_26540" class="clusterblast-orf" id="knownclusterblast-10_q0_0_all"  />
<polygon points="82,40 163,40 168,35 163,30 82,30 82,40 " style="fill:white; stroke-width:1; stroke:black; " description="&lt;b&gt;MFKKBJ_26545&lt;/b&gt;&lt;br&gt;Modulator of FtsH protease HflK&lt;br&gt;Location: 5782743 - 5783778" locus_tag="MFKKBJ_26545" class="clusterblast-orf" id="knownclusterblast-10_q1_0_all"  />
<polygon points="168,40 319,40 324,35 319,30 168,30 168,40 " style="fill:white; stroke-width:1; stroke:black; " description="&lt;b&gt;MFKKBJ_26550&lt;/b&gt;&lt;br&gt;Cadmium-translocating P-type ATPase&lt;br&gt;Location: 5783774 - 5785661" locus_tag="MFKKBJ_26550" class="clusterblast-orf" id="knownclusterblast-10_q2_0_all"  />
<polygon points="334,40 350,40 355,35 350,30 334,30 334,40 " style="fill:white; stroke-width:1; stroke:black; " description="&lt;b&gt;MFKKBJ_26555&lt;/b&gt;&lt;br&gt;Integral membrane protein&lt;br&gt;Location: 5785778 - 5786030" locus_tag="MFKKBJ_26555" class="clusterblast-orf" id="knownclusterblast-10_q3_0_all"  />
<polygon points="360,40 425,40 430,35 425,30 360,30 360,40 " style="fill:white; stroke-width:1; stroke:black; " description="&lt;b&gt;MFKKBJ_26560&lt;/b&gt;&lt;br&gt;UPF0276 protein BW43 00573&lt;br&gt;Location: 5786096 - 5786942" locus_tag="MFKKBJ_26560" class="clusterblast-orf" id="knownclusterblast-10_q4_0_all"  />
<polygon points="430,40 490,40 495,35 490,30 430,30 430,40 " style="fill:white; stroke-width:1; stroke:black; " description="&lt;b&gt;MFKKBJ_26565&lt;/b&gt;&lt;br&gt;DUF2063 domain-containing protein&lt;br&gt;Location: 5786932 - 5787721" locus_tag="MFKKBJ_26565" class="clusterblast-orf" id="knownclusterblast-10_q5_0_all"  />
<polygon points="502,40 596,40 601,35 596,30 502,30 502,40 " style="fill:white; stroke-width:1; stroke:black; " description="&lt;b&gt;MFKKBJ_26570&lt;/b&gt;&lt;br&gt;C17 cyclopropane fatty acid synthase CfaB&lt;br&gt;Location: 5787808 - 5788993" locus_tag="MFKKBJ_26570" class="clusterblast-orf" id="knownclusterblast-10_q6_0_all"  />
<polygon points="607,35 612,30 726,30 726,40 612,40 607,35 " style="fill:white; stroke-width:1; stroke:black; " description="&lt;b&gt;MFKKBJ_26575&lt;/b&gt;&lt;br&gt;cardiolipin synthase&lt;br&gt;Location: 5789067 - 5790507" locus_tag="MFKKBJ_26575" class="clusterblast-orf" id="knownclusterblast-10_q7_0_all"  />
<polygon points="737,40 775,40 780,35 775,30 737,30 737,40 " style="fill:white; stroke-width:1; stroke:black; " description="&lt;b&gt;MFKKBJ_26580&lt;/b&gt;&lt;br&gt;DUF3617 domain-containing protein&lt;br&gt;Location: 5790638 - 5791160" locus_tag="MFKKBJ_26580" class="clusterblast-orf" id="knownclusterblast-10_q8_0_all"  />
</g>
</svg>
