<svg xmlns="http://www.w3.org/2000/svg" xmlns:xlink="http://www.w3.org/1999/xlink" version="1.1" x="0" y="0" height="200" width="800" viewBox="0 0 800 200" preserveAspectRatio="none"  >
<g label="Query sequence" class="clusterblast-cluster"  >
<text x="5" y="20" class="clusterblast-acc"  >
Query sequence</text>
<line x1="10" y1="35" x2="778.0" y2="35" style="stroke-width:1; stroke:grey; "  />
<polygon points="0,40 24,40 29,35 24,30 0,30 0,40 " style="fill:white; stroke-width:1; stroke:black; " description="&lt;b&gt;MFKKBJ_23855&lt;/b&gt;&lt;br&gt;YdiU family protein&lt;br&gt;Location: 5154908 - 5156372" locus_tag="MFKKBJ_23855" class="clusterblast-orf" id="knownclusterblast-8_q0_0_all"  />
<polygon points="29,35 34,30 37,30 37,40 34,40 29,35 " style="fill:white; stroke-width:1; stroke:black; " description="&lt;b&gt;MFKKBJ_23860&lt;/b&gt;&lt;br&gt;Antitoxin HigA&lt;br&gt;Location: 5156390 - 5156792" locus_tag="MFKKBJ_23860" class="clusterblast-orf" id="knownclusterblast-8_q1_0_all"  />
<polygon points="37,35 42,30 43,30 43,40 42,40 37,35 " style="fill:white; stroke-width:1; stroke:black; " description="&lt;b&gt;MFKKBJ_23865&lt;/b&gt;&lt;br&gt;mRNA interferase toxin HigB&lt;br&gt;Location: 5156799 - 5157087" locus_tag="MFKKBJ_23865" class="clusterblast-orf" id="knownclusterblast-8_q2_0_all"  />
<polygon points="47,40 51,40 56,35 51,30 47,30 47,40 " style="fill:white; stroke-width:1; stroke:black; " description="&lt;b&gt;MFKKBJ_23870&lt;/b&gt;&lt;br&gt;thioredoxin TrxC&lt;br&gt;Location: 5157321 - 5157756" locus_tag="MFKKBJ_23870" class="clusterblast-orf" id="knownclusterblast-8_q3_0_all"  />
<polygon points="58,35 63,30 63,30 63,40 63,40 58,35 " style="fill:white; stroke-width:1; stroke:black; " description="&lt;b&gt;MFKKBJ_23875&lt;/b&gt;&lt;br&gt;DUF3077 domain-containing protein&lt;br&gt;Location: 5157884 - 5158118" locus_tag="MFKKBJ_23875" class="clusterblast-orf" id="knownclusterblast-8_q4_0_all"  />
<polygon points="70,35 75,30 86,30 86,40 75,40 70,35 " style="fill:white; stroke-width:1; stroke:black; " description="&lt;b&gt;MFKKBJ_23885&lt;/b&gt;&lt;br&gt;ParA-like ATPase involved in chromosome/plasmid partitioning or cellulose biosynthesis protein BcsQ&lt;br&gt;Location: 5158495 - 5159266" locus_tag="MFKKBJ_23885" class="clusterblast-orf" id="knownclusterblast-8_q5_0_all"  />
<polygon points="92,40 101,40 106,35 101,30 92,30 92,40 " style="fill:white; stroke-width:1; stroke:black; " description="&lt;b&gt;MFKKBJ_23890&lt;/b&gt;&lt;br&gt;Beta-ketoacyl synthase N-terminal domain-containing protein&lt;br&gt;Location: 5159593 - 5160313" locus_tag="MFKKBJ_23890" class="clusterblast-orf" id="knownclusterblast-8_q6_0_all"  />
<polygon points="106,40 117,40 122,35 117,30 106,30 106,40 " style="fill:white; stroke-width:1; stroke:black; " description="&lt;b&gt;MFKKBJ_23895&lt;/b&gt;&lt;br&gt;Phospholipid/glycerol acyltransferase domain-containing protein&lt;br&gt;Location: 5160288 - 5161101" locus_tag="MFKKBJ_23895" class="clusterblast-orf" id="knownclusterblast-8_q7_0_all"  />
<polygon points="121,40 122,40 127,35 122,30 121,30 121,40 " style="fill:#d81515; stroke-width:1; stroke:black; " description="&lt;b&gt;MFKKBJ_23900&lt;/b&gt;&lt;br&gt;Acyl carrier protein&lt;br&gt;Location: 5161078 - 5161348" locus_tag="MFKKBJ_23900" class="clusterblast-orf" id="knownclusterblast-8_q8_0_all"  />
<polygon points="127,40 127,40 132,35 127,30 127,30 127,40 " style="fill:#15d815; stroke-width:1; stroke:black; " description="&lt;b&gt;MFKKBJ_23905&lt;/b&gt;&lt;br&gt;acyl carrier protein&lt;br&gt;Location: 5161357 - 5161612" locus_tag="MFKKBJ_23905" class="clusterblast-orf" id="knownclusterblast-8_q9_0_all"  />
<polygon points="132,40 137,40 142,35 137,30 132,30 132,40 " style="fill:white; stroke-width:1; stroke:black; " description="&lt;b&gt;MFKKBJ_23910&lt;/b&gt;&lt;br&gt;Intracellular septation protein a&lt;br&gt;Location: 5161608 - 5162154" locus_tag="MFKKBJ_23910" class="clusterblast-orf" id="knownclusterblast-8_q10_0_all"  />
<polygon points="142,40 170,40 175,35 170,30 142,30 142,40 " style="fill:white; stroke-width:1; stroke:black; " description="&lt;b&gt;MFKKBJ_23915&lt;/b&gt;&lt;br&gt;Acetyl-coenzyme A synthetase&lt;br&gt;Location: 5162150 - 5163821" locus_tag="MFKKBJ_23915" class="clusterblast-orf" id="knownclusterblast-8_q11_0_all"  />
<polygon points="179,40 188,40 193,35 188,30 179,30 179,40 " style="fill:#1597d8; stroke-width:1; stroke:black; " description="&lt;b&gt;MFKKBJ_23920&lt;/b&gt;&lt;br&gt;Glycosyl transferase&lt;br&gt;Location: 5163988 - 5164723" locus_tag="MFKKBJ_23920" class="clusterblast-orf" id="knownclusterblast-8_q12_0_all"  />
<polygon points="193,40 206,40 211,35 206,30 193,30 193,40 " style="fill:white; stroke-width:1; stroke:black; " description="&lt;b&gt;MFKKBJ_23925&lt;/b&gt;&lt;br&gt;Glycosyl transferase&lt;br&gt;Location: 5164719 - 5165655" locus_tag="MFKKBJ_23925" class="clusterblast-orf" id="knownclusterblast-8_q13_0_all"  />
<polygon points="211,40 236,40 241,35 236,30 211,30 211,40 " style="fill:#9715d8; stroke-width:1; stroke:black; " description="&lt;b&gt;MFKKBJ_23930&lt;/b&gt;&lt;br&gt;Histidine ammonia-lyase&lt;br&gt;Location: 5165638 - 5167180" locus_tag="MFKKBJ_23930" class="clusterblast-orf" id="knownclusterblast-8_q14_0_all"  />
<polygon points="241,40 245,40 250,35 245,30 241,30 241,40 " style="fill:#d89715; stroke-width:1; stroke:black; " description="&lt;b&gt;MFKKBJ_23935&lt;/b&gt;&lt;br&gt;Thioesterase domain-containing protein&lt;br&gt;Location: 5167172 - 5167598" locus_tag="MFKKBJ_23935" class="clusterblast-orf" id="knownclusterblast-8_q15_0_all"  />
<polygon points="250,40 256,40 261,35 256,30 250,30 250,40 " style="fill:white; stroke-width:1; stroke:black; " description="&lt;b&gt;MFKKBJ_23940&lt;/b&gt;&lt;br&gt;Outer membrane lipoprotein carrier protein LolA&lt;br&gt;Location: 5167594 - 5168185" locus_tag="MFKKBJ_23940" class="clusterblast-orf" id="knownclusterblast-8_q16_0_all"  />
<polygon points="261,40 302,40 307,35 302,30 261,30 261,40 " style="fill:white; stroke-width:1; stroke:black; " description="&lt;b&gt;MFKKBJ_23945&lt;/b&gt;&lt;br&gt;Membrane transport protein MMPL domain-containing protein&lt;br&gt;Location: 5168174 - 5170487" locus_tag="MFKKBJ_23945" class="clusterblast-orf" id="knownclusterblast-8_q17_0_all"  />
<polygon points="307,40 327,40 332,35 327,30 307,30 307,40 " style="fill:#15d897; stroke-width:1; stroke:black; " description="&lt;b&gt;MFKKBJ_23950&lt;/b&gt;&lt;br&gt;FAD-binding domain-containing protein&lt;br&gt;Location: 5170520 - 5171768" locus_tag="MFKKBJ_23950" class="clusterblast-orf" id="knownclusterblast-8_q18_0_all"  />
<polygon points="332,40 341,40 346,35 341,30 332,30 332,40 " style="fill:white; stroke-width:1; stroke:black; " description="&lt;b&gt;MFKKBJ_23955&lt;/b&gt;&lt;br&gt;Methyltransferase type 11 domain-containing protein&lt;br&gt;Location: 5171764 - 5172499" locus_tag="MFKKBJ_23955" class="clusterblast-orf" id="knownclusterblast-8_q19_0_all"  />
<polygon points="346,40 351,40 356,35 351,30 346,30 346,40 " style="fill:white; stroke-width:1; stroke:black; " description="&lt;b&gt;MFKKBJ_23960&lt;/b&gt;&lt;br&gt;Lipoprotein&lt;br&gt;Location: 5172495 - 5172978" locus_tag="MFKKBJ_23960" class="clusterblast-orf" id="knownclusterblast-8_q20_0_all"  />
<polygon points="356,40 374,40 379,35 374,30 356,30 356,40 " style="fill:#1515d8; stroke-width:1; stroke:black; " description="&lt;b&gt;MFKKBJ_23965&lt;/b&gt;&lt;br&gt;3-oxoacyl-(Acyl carrier protein) synthase&lt;br&gt;Location: 5172974 - 5174141" locus_tag="MFKKBJ_23965" class="clusterblast-orf" id="knownclusterblast-8_q21_0_all"  />
<polygon points="378,40 383,40 388,35 383,30 378,30 378,40 " style="fill:white; stroke-width:1; stroke:black; " description="&lt;b&gt;MFKKBJ_23970&lt;/b&gt;&lt;br&gt;3-hydroxydecanoyl-(ACP) dehydratase&lt;br&gt;Location: 5174137 - 5174599" locus_tag="MFKKBJ_23970" class="clusterblast-orf" id="knownclusterblast-8_q22_0_all"  />
<polygon points="387,40 397,40 402,35 397,30 387,30 387,40 " style="fill:#d81597; stroke-width:1; stroke:black; " description="&lt;b&gt;MFKKBJ_23975&lt;/b&gt;&lt;br&gt;3-oxoacyl-ACP reductase FabG&lt;br&gt;Location: 5174595 - 5175324" locus_tag="MFKKBJ_23975" class="clusterblast-orf" id="knownclusterblast-8_q23_0_all"  />
<polygon points="402,40 421,40 426,35 421,30 402,30 402,40 " style="fill:#97d815; stroke-width:1; stroke:black; " description="&lt;b&gt;MFKKBJ_23980&lt;/b&gt;&lt;br&gt;beta-ketoacyl-ACP synthase&lt;br&gt;Location: 5175323 - 5176550" locus_tag="MFKKBJ_23980" class="clusterblast-orf" id="knownclusterblast-8_q24_0_all"  />
<polygon points="426,40 430,40 435,35 430,30 426,30 426,40 " style="fill:white; stroke-width:1; stroke:black; " description="&lt;b&gt;MFKKBJ_23985&lt;/b&gt;&lt;br&gt;Lipoprotein&lt;br&gt;Location: 5176576 - 5177029" locus_tag="MFKKBJ_23985" class="clusterblast-orf" id="knownclusterblast-8_q25_0_all"  />
<polygon points="440,35 445,30 447,30 447,40 445,40 440,35 " style="fill:white; stroke-width:1; stroke:black; " description="&lt;b&gt;MFKKBJ_23990&lt;/b&gt;&lt;br&gt;Type II toxin-antitoxin system PemK/MazF family toxin&lt;br&gt;Location: 5177245 - 5177629" locus_tag="MFKKBJ_23990" class="clusterblast-orf" id="knownclusterblast-8_q26_0_all"  />
<polygon points="449,35 454,30 467,30 467,40 454,40 449,35 " style="fill:white; stroke-width:1; stroke:black; " description="&lt;b&gt;MFKKBJ_23995&lt;/b&gt;&lt;br&gt;HTH lysR-type domain-containing protein&lt;br&gt;Location: 5177716 - 5178610" locus_tag="MFKKBJ_23995" class="clusterblast-orf" id="knownclusterblast-8_q27_0_all"  />
<polygon points="469,40 489,40 494,35 489,30 469,30 469,40 " style="fill:white; stroke-width:1; stroke:black; " description="&lt;b&gt;MFKKBJ_24000&lt;/b&gt;&lt;br&gt;Major facilitator superfamily (MFS) profile domain-containing protein&lt;br&gt;Location: 5178732 - 5180007" locus_tag="MFKKBJ_24000" class="clusterblast-orf" id="knownclusterblast-8_q28_0_all"  />
<polygon points="495,35 500,30 516,30 516,40 500,40 495,35 " style="fill:white; stroke-width:1; stroke:black; " description="&lt;b&gt;MFKKBJ_24005&lt;/b&gt;&lt;br&gt;uroporphyrinogen decarboxylase&lt;br&gt;Location: 5180067 - 5181135" locus_tag="MFKKBJ_24005" class="clusterblast-orf" id="knownclusterblast-8_q29_0_all"  />
<polygon points="521,35 526,30 549,30 549,40 526,40 521,35 " style="fill:white; stroke-width:1; stroke:black; " description="&lt;b&gt;MFKKBJ_24010&lt;/b&gt;&lt;br&gt;NADPH-dependent glutamate synthase beta chain or related oxidoreductase&lt;br&gt;Location: 5181377 - 5182796" locus_tag="MFKKBJ_24010" class="clusterblast-orf" id="knownclusterblast-8_q30_0_all"  />
<polygon points="550,35 555,30 637,30 637,40 555,40 550,35 " style="fill:white; stroke-width:1; stroke:black; " description="&lt;b&gt;MFKKBJ_24015&lt;/b&gt;&lt;br&gt;Glutamate synthase large subunit&lt;br&gt;Location: 5182828 - 5187274" locus_tag="MFKKBJ_24015" class="clusterblast-orf" id="knownclusterblast-8_q31_0_all"  />
<polygon points="644,35 649,30 675,30 675,40 649,40 644,35 " style="fill:white; stroke-width:1; stroke:black; " description="&lt;b&gt;MFKKBJ_24020&lt;/b&gt;&lt;br&gt;General secretion pathway protein a&lt;br&gt;Location: 5187628 - 5189191" locus_tag="MFKKBJ_24020" class="clusterblast-orf" id="knownclusterblast-8_q32_0_all"  />
<polygon points="675,35 680,30 697,30 697,40 680,40 675,35 " style="fill:white; stroke-width:1; stroke:black; " description="&lt;b&gt;MFKKBJ_24025&lt;/b&gt;&lt;br&gt;3-dehydroquinate synthase&lt;br&gt;Location: 5189201 - 5190302" locus_tag="MFKKBJ_24025" class="clusterblast-orf" id="knownclusterblast-8_q33_0_all"  />
<polygon points="699,35 704,30 709,30 709,40 704,40 699,35 " style="fill:white; stroke-width:1; stroke:black; " description="&lt;b&gt;MFKKBJ_24030&lt;/b&gt;&lt;br&gt;shikimate kinase AroK&lt;br&gt;Location: 5190417 - 5190909" locus_tag="MFKKBJ_24030" class="clusterblast-orf" id="knownclusterblast-8_q34_0_all"  />
<polygon points="709,35 714,30 737,30 737,40 714,40 709,35 " style="fill:white; stroke-width:1; stroke:black; " description="&lt;b&gt;MFKKBJ_24035&lt;/b&gt;&lt;br&gt;Type IV fimbriae biogenesis protein&lt;br&gt;Location: 5190940 - 5192323" locus_tag="MFKKBJ_24035" class="clusterblast-orf" id="knownclusterblast-8_q35_0_all"  />
<polygon points="737,35 742,30 756,30 756,40 742,40 737,35 " style="fill:white; stroke-width:1; stroke:black; " description="&lt;b&gt;MFKKBJ_24040&lt;/b&gt;&lt;br&gt;Pilus assembly protein&lt;br&gt;Location: 5192336 - 5193308" locus_tag="MFKKBJ_24040" class="clusterblast-orf" id="knownclusterblast-8_q36_0_all"  />
<polygon points="756,35 761,30 767,30 767,40 761,40 756,35 " style="fill:white; stroke-width:1; stroke:black; " description="&lt;b&gt;MFKKBJ_24045&lt;/b&gt;&lt;br&gt;Type IV pilus assembly protein&lt;br&gt;Location: 5193304 - 5193859" locus_tag="MFKKBJ_24045" class="clusterblast-orf" id="knownclusterblast-8_q37_0_all"  />
<polygon points="767,35 772,30 780,30 780,40 772,40 767,35 " style="fill:white; stroke-width:1; stroke:black; " description="&lt;b&gt;MFKKBJ_24050&lt;/b&gt;&lt;br&gt;Type IV pilus assembly protein&lt;br&gt;Location: 5193855 - 5194509" locus_tag="MFKKBJ_24050" class="clusterblast-orf" id="knownclusterblast-8_q38_0_all"  />
</g>
<g label="BGC0000837" description="BGC0000837_c1: APE Vf (40% of genes show similarity), Other" class="clusterblast-cluster"  >
<text x="5" y="70" class="clusterblast-acc"  >
<a xlink:href="https://mibig.secondarymetabolites.org/go/BGC0000837/1" target="_blank">BGC0000837</a>: APE Vf                                                                           (40% of genes show similarity), Other</text>
<line x1="10" y1="85" x2="778.0" y2="85" style="stroke-width:1; stroke:grey; "  />
</g>
<g id="a8_000"  >
<polygon points="207,85 212,80 231,80 231,90 212,90 207,85 " style="fill:#15d897; stroke-width:1; stroke:black; " description="&lt;b&gt;VF_0841&lt;/b&gt;&lt;br&gt;dehydrogenase&lt;br&gt;Location: 1 - 1233&lt;br&gt;&lt;br&gt;&lt;b&gt;BlastP hit with MFKKBJ_23950&lt;/b&gt;&lt;br&gt;Percentage identity: 57&lt;br&gt;Percentage coverage: 97&lt;br&gt;BLAST bit score: 459&lt;br&gt;E-value: 8.16e-161" locus_tag="VF_0841" class="clusterblast-orf" id="knownclusterblast-8_all_8_1_0"  />
</g>
<g id="a8_001"  >
<polygon points="233,85 238,80 254,80 254,90 238,90 233,85 " style="fill:white; stroke-width:1; stroke:black; " description="&lt;b&gt;VF_0842&lt;/b&gt;&lt;br&gt;putative O-methyltransferase&lt;br&gt;Location: 1333 - 2400" locus_tag="VF_0842" class="clusterblast-orf" id="knownclusterblast-8_all_8_1_1"  />
</g>
<g id="a8_002"  >
<polygon points="256,85 261,80 268,80 268,90 261,90 256,85 " style="fill:white; stroke-width:1; stroke:black; " description="&lt;b&gt;VF_0843&lt;/b&gt;&lt;br&gt;lipoprotein, putative&lt;br&gt;Location: 2504 - 3079" locus_tag="VF_0843" class="clusterblast-orf" id="knownclusterblast-8_all_8_1_2"  />
</g>
<g id="a8_003"  >
<polygon points="270,90 279,90 284,85 279,80 270,80 270,90 " style="fill:white; stroke-width:1; stroke:black; " description="&lt;b&gt;VF_0844&lt;/b&gt;&lt;br&gt;hypothetical protein&lt;br&gt;Location: 3209 - 3937" locus_tag="VF_0844" class="clusterblast-orf" id="knownclusterblast-8_all_8_1_3"  />
</g>
<g id="a8_004"  >
<polygon points="285,90 295,90 300,85 295,80 285,80 285,90 " style="fill:white; stroke-width:1; stroke:black; " description="&lt;b&gt;VF_0845&lt;/b&gt;&lt;br&gt;1-acyl-sn-glycerol-3-phosphate acyltransferase&lt;br&gt;Location: 3942 - 4739" locus_tag="VF_0845" class="clusterblast-orf" id="knownclusterblast-8_all_8_1_4"  />
</g>
<g id="a8_005"  >
<polygon points="300,90 300,90 305,85 300,80 300,80 300,90 " style="fill:#d81515; stroke-width:1; stroke:black; " description="&lt;b&gt;VF_0846&lt;/b&gt;&lt;br&gt;acyl carrier protein&lt;br&gt;Location: 4708 - 5004&lt;br&gt;&lt;br&gt;&lt;b&gt;BlastP hit with MFKKBJ_23900&lt;/b&gt;&lt;br&gt;Percentage identity: 63&lt;br&gt;Percentage coverage: 92&lt;br&gt;BLAST bit score: 100&lt;br&gt;E-value: 3.04e-29" locus_tag="VF_0846" class="clusterblast-orf" id="knownclusterblast-8_all_8_1_5"  />
</g>
<g id="a8_006"  >
<polygon points="306,90 306,90 311,85 306,80 306,80 306,90 " style="fill:#15d815; stroke-width:1; stroke:black; " description="&lt;b&gt;VF_0847&lt;/b&gt;&lt;br&gt;acyl carrier protein&lt;br&gt;Location: 5016 - 5273&lt;br&gt;&lt;br&gt;&lt;b&gt;BlastP hit with MFKKBJ_23905&lt;/b&gt;&lt;br&gt;Percentage identity: 51&lt;br&gt;Percentage coverage: 93&lt;br&gt;BLAST bit score: 81&lt;br&gt;E-value: 2.02e-21" locus_tag="VF_0847" class="clusterblast-orf" id="knownclusterblast-8_all_8_1_6"  />
</g>
<g id="a8_007"  >
<polygon points="311,90 317,90 322,85 317,80 311,80 311,90 " style="fill:white; stroke-width:1; stroke:black; " description="&lt;b&gt;VF_0848&lt;/b&gt;&lt;br&gt;DNA gyrase subunit B&lt;br&gt;Location: 5273 - 5833" locus_tag="VF_0848" class="clusterblast-orf" id="knownclusterblast-8_all_8_1_7"  />
</g>
<g id="a8_008"  >
<polygon points="321,90 344,90 349,85 344,80 321,80 321,90 " style="fill:white; stroke-width:1; stroke:black; " description="&lt;b&gt;VF_0849&lt;/b&gt;&lt;br&gt;AMP-(fatty)acid ligase&lt;br&gt;Location: 5794 - 7197" locus_tag="VF_0849" class="clusterblast-orf" id="knownclusterblast-8_all_8_1_8"  />
</g>
<g id="a8_009"  >
<polygon points="349,90 351,90 356,85 351,80 349,80 349,90 " style="fill:white; stroke-width:1; stroke:black; " description="&lt;b&gt;VF_0850&lt;/b&gt;&lt;br&gt;AMP-(fatty)acid ligase&lt;br&gt;Location: 7211 - 7585" locus_tag="VF_0850" class="clusterblast-orf" id="knownclusterblast-8_all_8_1_9"  />
</g>
<g id="a8_0010"  >
<polygon points="356,90 385,90 390,85 385,80 356,80 356,90 " style="fill:#1597d8; stroke-width:1; stroke:black; " description="&lt;b&gt;VF_0851&lt;/b&gt;&lt;br&gt;predicted acyltransferase&lt;br&gt;Location: 7588 - 9279&lt;br&gt;&lt;br&gt;&lt;b&gt;BlastP hit with MFKKBJ_23920&lt;/b&gt;&lt;br&gt;Percentage identity: 53&lt;br&gt;Percentage coverage: 98&lt;br&gt;BLAST bit score: 270&lt;br&gt;E-value: 1.32e-87" locus_tag="VF_0851" class="clusterblast-orf" id="knownclusterblast-8_all_8_1_10"  />
</g>
<g id="a8_0011"  >
<polygon points="389,90 415,90 420,85 415,80 389,80 389,90 " style="fill:#9715d8; stroke-width:1; stroke:black; " description="&lt;b&gt;VF_0852&lt;/b&gt;&lt;br&gt;phenylalanine and histidine ammonia-lyase&lt;br&gt;Location: 9269 - 10804&lt;br&gt;&lt;br&gt;&lt;b&gt;BlastP hit with MFKKBJ_23930&lt;/b&gt;&lt;br&gt;Percentage identity: 63&lt;br&gt;Percentage coverage: 100&lt;br&gt;BLAST bit score: 612&lt;br&gt;E-value: 4.31e-218" locus_tag="VF_0852" class="clusterblast-orf" id="knownclusterblast-8_all_8_1_11"  />
</g>
<g id="a8_0012"  >
<polygon points="420,90 424,90 429,85 424,80 420,80 420,90 " style="fill:white; stroke-width:1; stroke:black; " description="&lt;b&gt;VF_0853&lt;/b&gt;&lt;br&gt;esterase&lt;br&gt;Location: 10816 - 11262" locus_tag="VF_0853" class="clusterblast-orf" id="knownclusterblast-8_all_8_1_12"  />
</g>
<g id="a8_0013"  >
<polygon points="429,90 436,90 441,85 436,80 429,80 429,90 " style="fill:white; stroke-width:1; stroke:black; " description="&lt;b&gt;VF_0854&lt;/b&gt;&lt;br&gt;hypothetical protein&lt;br&gt;Location: 11255 - 11875" locus_tag="VF_0854" class="clusterblast-orf" id="knownclusterblast-8_all_8_1_13"  />
</g>
<g id="a8_0014"  >
<polygon points="451,90 483,90 488,85 483,80 451,80 451,90 " style="fill:white; stroke-width:1; stroke:black; " description="&lt;b&gt;VF_0855&lt;/b&gt;&lt;br&gt;transporter&lt;br&gt;Location: 12397 - 14292" locus_tag="VF_0855" class="clusterblast-orf" id="knownclusterblast-8_all_8_1_14"  />
</g>
<g id="a8_0015"  >
<polygon points="488,90 496,90 501,85 496,80 488,80 488,90 " style="fill:white; stroke-width:1; stroke:black; " description="&lt;b&gt;VF_0856&lt;/b&gt;&lt;br&gt;phospho-N-acetylmuramoyl-pentapeptide- transferase&lt;br&gt;Location: 14282 - 14908" locus_tag="VF_0856" class="clusterblast-orf" id="knownclusterblast-8_all_8_1_15"  />
</g>
<g id="a8_0016"  >
<polygon points="501,90 519,90 524,85 519,80 501,80 501,90 " style="fill:#1515d8; stroke-width:1; stroke:black; " description="&lt;b&gt;VF_0857&lt;/b&gt;&lt;br&gt;3-oxoacyl-(acyl carrier protein) synthase&lt;br&gt;Location: 14914 - 16101&lt;br&gt;&lt;br&gt;&lt;b&gt;BlastP hit with MFKKBJ_23965&lt;/b&gt;&lt;br&gt;Percentage identity: 50&lt;br&gt;Percentage coverage: 100&lt;br&gt;BLAST bit score: 348&lt;br&gt;E-value: 1.09e-117" locus_tag="VF_0857" class="clusterblast-orf" id="knownclusterblast-8_all_8_1_16"  />
</g>
<g id="a8_0017"  >
<polygon points="524,90 528,90 533,85 528,80 524,80 524,90 " style="fill:white; stroke-width:1; stroke:black; " description="&lt;b&gt;VF_0858&lt;/b&gt;&lt;br&gt;predicted 3-hydroxylacyl-(acyl carrier protein) dehydratase&lt;br&gt;Location: 16092 - 16562" locus_tag="VF_0858" class="clusterblast-orf" id="knownclusterblast-8_all_8_1_17"  />
</g>
<g id="a8_0018"  >
<polygon points="534,90 543,90 548,85 543,80 534,80 534,90 " style="fill:#d81597; stroke-width:1; stroke:black; " description="&lt;b&gt;VF_0859&lt;/b&gt;&lt;br&gt;3-oxoacyl-(acyl-carrier-protein) reductase, putative&lt;br&gt;Location: 16582 - 17307&lt;br&gt;&lt;br&gt;&lt;b&gt;BlastP hit with MFKKBJ_23975&lt;/b&gt;&lt;br&gt;Percentage identity: 61&lt;br&gt;Percentage coverage: 100&lt;br&gt;BLAST bit score: 298&lt;br&gt;E-value: 1.08e-102" locus_tag="VF_0859" class="clusterblast-orf" id="knownclusterblast-8_all_8_1_18"  />
</g>
<g id="a8_0019"  >
<polygon points="548,90 567,90 572,85 567,80 548,80 548,90 " style="fill:#97d815; stroke-width:1; stroke:black; " description="&lt;b&gt;VF_0860&lt;/b&gt;&lt;br&gt;3-oxoacyl-(acyl carrier protein) synthase&lt;br&gt;Location: 17304 - 18539&lt;br&gt;&lt;br&gt;&lt;b&gt;BlastP hit with MFKKBJ_23980&lt;/b&gt;&lt;br&gt;Percentage identity: 60&lt;br&gt;Percentage coverage: 100&lt;br&gt;BLAST bit score: 514&lt;br&gt;E-value: 1.79e-182" locus_tag="VF_0860" class="clusterblast-orf" id="knownclusterblast-8_all_8_1_19"  />
</g>
<g label="BGC0002008" description="BGC0002008_c1: aryl polyenes (38% of genes show similarity), Other" class="clusterblast-cluster"  >
<text x="5" y="120" class="clusterblast-acc"  >
<a xlink:href="https://mibig.secondarymetabolites.org/go/BGC0002008/1" target="_blank">BGC0002008</a>: aryl polyenes                                                                    (38% of genes show similarity), Other</text>
<line x1="10" y1="135" x2="778.0" y2="135" style="stroke-width:1; stroke:grey; "  />
</g>
<g id="a8_000"  >
<polygon points="239,140 242,140 247,135 242,130 239,130 239,140 " style="fill:white; stroke-width:1; stroke:black; " description="&lt;b&gt;XDD1_RS15980&lt;/b&gt;&lt;br&gt;hypothetical protein&lt;br&gt;Location: 1 - 390" locus_tag="XDD1_RS15980" class="clusterblast-orf" id="knownclusterblast-8_all_8_2_0"  />
</g>
<g id="a8_001"  >
<polygon points="249,140 265,140 270,135 265,130 249,130 249,140 " style="fill:white; stroke-width:1; stroke:black; " description="&lt;b&gt;XDD1_RS15985&lt;/b&gt;&lt;br&gt;SAM-dependent methyltransferase&lt;br&gt;Location: 503 - 1576" locus_tag="XDD1_RS15985" class="clusterblast-orf" id="knownclusterblast-8_all_8_2_1"  />
</g>
<g id="a8_002"  >
<polygon points="271,140 280,140 285,135 280,130 271,130 271,140 " style="fill:white; stroke-width:1; stroke:black; " description="&lt;b&gt;XDD1_RS15990&lt;/b&gt;&lt;br&gt;beta-ketoacyl synthase chain length factor&lt;br&gt;Location: 1590 - 2309" locus_tag="XDD1_RS15990" class="clusterblast-orf" id="knownclusterblast-8_all_8_2_2"  />
</g>
<g id="a8_003"  >
<polygon points="285,140 295,140 300,135 295,130 285,130 285,140 " style="fill:white; stroke-width:1; stroke:black; " description="&lt;b&gt;XDD1_RS15995&lt;/b&gt;&lt;br&gt;1-acyl-sn-glycerol-3-phosphate acyltransferase&lt;br&gt;Location: 2311 - 3102" locus_tag="XDD1_RS15995" class="clusterblast-orf" id="knownclusterblast-8_all_8_2_3"  />
</g>
<g id="a8_004"  >
<polygon points="301,140 301,140 306,135 301,130 301,130 301,140 " style="fill:#d81515; stroke-width:1; stroke:black; " description="&lt;b&gt;XDD1_RS16000&lt;/b&gt;&lt;br&gt;phosphopantetheine-binding protein&lt;br&gt;Location: 3121 - 3378&lt;br&gt;&lt;br&gt;&lt;b&gt;BlastP hit with MFKKBJ_23900&lt;/b&gt;&lt;br&gt;Percentage identity: 53&lt;br&gt;Percentage coverage: 89&lt;br&gt;BLAST bit score: 90&lt;br&gt;E-value: 3.86e-25" locus_tag="XDD1_RS16000" class="clusterblast-orf" id="knownclusterblast-8_all_8_2_4"  />
</g>
<g id="a8_005"  >
<polygon points="306,140 306,140 311,135 306,130 306,130 306,140 " style="fill:#15d815; stroke-width:1; stroke:black; " description="&lt;b&gt;XDD1_RS16005&lt;/b&gt;&lt;br&gt;acyl carrier protein&lt;br&gt;Location: 3390 - 3641&lt;br&gt;&lt;br&gt;&lt;b&gt;BlastP hit with MFKKBJ_23905&lt;/b&gt;&lt;br&gt;Percentage identity: 51&lt;br&gt;Percentage coverage: 96&lt;br&gt;BLAST bit score: 84&lt;br&gt;E-value: 1.16e-22" locus_tag="XDD1_RS16005" class="clusterblast-orf" id="knownclusterblast-8_all_8_2_5"  />
</g>
<g id="a8_006"  >
<polygon points="312,140 318,140 323,135 318,130 312,130 312,140 " style="fill:white; stroke-width:1; stroke:black; " description="&lt;b&gt;XDD1_RS16010&lt;/b&gt;&lt;br&gt;hypothetical protein&lt;br&gt;Location: 3691 - 4254" locus_tag="XDD1_RS16010" class="clusterblast-orf" id="knownclusterblast-8_all_8_2_6"  />
</g>
<g id="a8_007"  >
<polygon points="323,140 345,140 350,135 345,130 323,130 323,140 " style="fill:white; stroke-width:1; stroke:black; " description="&lt;b&gt;XDD1_RS16015&lt;/b&gt;&lt;br&gt;AMP-binding protein&lt;br&gt;Location: 4251 - 5636" locus_tag="XDD1_RS16015" class="clusterblast-orf" id="knownclusterblast-8_all_8_2_7"  />
</g>
<g id="a8_008"  >
<polygon points="350,140 352,140 357,135 352,130 350,130 350,140 " style="fill:white; stroke-width:1; stroke:black; " description="&lt;b&gt;XDD1_RS16020&lt;/b&gt;&lt;br&gt;hydroxymyristoyl-ACP dehydratase&lt;br&gt;Location: 5623 - 5982" locus_tag="XDD1_RS16020" class="clusterblast-orf" id="knownclusterblast-8_all_8_2_8"  />
</g>
<g id="a8_009"  >
<polygon points="357,140 386,140 391,135 386,130 357,130 357,140 " style="fill:#1597d8; stroke-width:1; stroke:black; " description="&lt;b&gt;XDD1_RS16025&lt;/b&gt;&lt;br&gt;glycosyltransferase family 2 protein&lt;br&gt;Location: 5973 - 7688&lt;br&gt;&lt;br&gt;&lt;b&gt;BlastP hit with MFKKBJ_23920&lt;/b&gt;&lt;br&gt;Percentage identity: 57&lt;br&gt;Percentage coverage: 98&lt;br&gt;BLAST bit score: 283&lt;br&gt;E-value: 1.9e-92" locus_tag="XDD1_RS16025" class="clusterblast-orf" id="knownclusterblast-8_all_8_2_9"  />
</g>
<g id="a8_0010"  >
<polygon points="391,140 394,140 399,135 394,130 391,130 391,140 " style="fill:#d89715; stroke-width:1; stroke:black; " description="&lt;b&gt;XDD1_RS16030&lt;/b&gt;&lt;br&gt;acyl-CoA thioesterase&lt;br&gt;Location: 7693 - 8115&lt;br&gt;&lt;br&gt;&lt;b&gt;BlastP hit with MFKKBJ_23935&lt;/b&gt;&lt;br&gt;Percentage identity: 48&lt;br&gt;Percentage coverage: 88&lt;br&gt;BLAST bit score: 132&lt;br&gt;E-value: 2.63e-40" locus_tag="XDD1_RS16030" class="clusterblast-orf" id="knownclusterblast-8_all_8_2_10"  />
</g>
<g id="a8_0011"  >
<polygon points="399,140 406,140 411,135 406,130 399,130 399,140 " style="fill:white; stroke-width:1; stroke:black; " description="&lt;b&gt;XDD1_RS16035&lt;/b&gt;&lt;br&gt;outer membrane lipoprotein carrier protein LolA&lt;br&gt;Location: 8133 - 8735" locus_tag="XDD1_RS16035" class="clusterblast-orf" id="knownclusterblast-8_all_8_2_11"  />
</g>
<g id="a8_0012"  >
<polygon points="411,140 452,140 457,135 452,130 411,130 411,140 " style="fill:white; stroke-width:1; stroke:black; " description="&lt;b&gt;XDD1_RS16040&lt;/b&gt;&lt;br&gt;MMPL family transporter&lt;br&gt;Location: 8707 - 11031" locus_tag="XDD1_RS16040" class="clusterblast-orf" id="knownclusterblast-8_all_8_2_12"  />
</g>
<g id="a8_0013"  >
<polygon points="456,140 463,140 468,135 463,130 456,130 456,140 " style="fill:white; stroke-width:1; stroke:black; " description="&lt;b&gt;XDD1_RS16045&lt;/b&gt;&lt;br&gt;DUF3261 domain-containing protein&lt;br&gt;Location: 11028 - 11591" locus_tag="XDD1_RS16045" class="clusterblast-orf" id="knownclusterblast-8_all_8_2_13"  />
</g>
<g id="a8_0014"  >
<polygon points="468,140 486,140 491,135 486,130 468,130 468,140 " style="fill:#1515d8; stroke-width:1; stroke:black; " description="&lt;b&gt;XDD1_RS16050&lt;/b&gt;&lt;br&gt;beta-ketoacyl-[acyl-carrier-protein] synthase family protein&lt;br&gt;Location: 11595 - 12770&lt;br&gt;&lt;br&gt;&lt;b&gt;BlastP hit with MFKKBJ_23965&lt;/b&gt;&lt;br&gt;Percentage identity: 47&lt;br&gt;Percentage coverage: 100&lt;br&gt;BLAST bit score: 342&lt;br&gt;E-value: 1.25e-115" locus_tag="XDD1_RS16050" class="clusterblast-orf" id="knownclusterblast-8_all_8_2_14"  />
</g>
<g id="a8_0015"  >
<polygon points="491,140 496,140 501,135 496,130 491,130 491,140 " style="fill:white; stroke-width:1; stroke:black; " description="&lt;b&gt;XDD1_RS16055&lt;/b&gt;&lt;br&gt;hotdog family protein&lt;br&gt;Location: 12770 - 13267" locus_tag="XDD1_RS16055" class="clusterblast-orf" id="knownclusterblast-8_all_8_2_15"  />
</g>
<g id="a8_0016"  >
<polygon points="501,140 510,140 515,135 510,130 501,130 501,140 " style="fill:#d81597; stroke-width:1; stroke:black; " description="&lt;b&gt;XDD1_RS16060&lt;/b&gt;&lt;br&gt;3-ketoacyl-ACP reductase FabG2&lt;br&gt;Location: 13264 - 13995&lt;br&gt;&lt;br&gt;&lt;b&gt;BlastP hit with MFKKBJ_23975&lt;/b&gt;&lt;br&gt;Percentage identity: 61&lt;br&gt;Percentage coverage: 100&lt;br&gt;BLAST bit score: 292&lt;br&gt;E-value: 2.2e-100" locus_tag="XDD1_RS16060" class="clusterblast-orf" id="knownclusterblast-8_all_8_2_16"  />
</g>
<g id="a8_0017"  >
<polygon points="515,140 535,140 540,135 535,130 515,130 515,140 " style="fill:#97d815; stroke-width:1; stroke:black; " description="&lt;b&gt;XDD1_RS16065&lt;/b&gt;&lt;br&gt;beta-ketoacyl-ACP synthase&lt;br&gt;Location: 13992 - 15251&lt;br&gt;&lt;br&gt;&lt;b&gt;BlastP hit with MFKKBJ_23980&lt;/b&gt;&lt;br&gt;Percentage identity: 56&lt;br&gt;Percentage coverage: 100&lt;br&gt;BLAST bit score: 484&lt;br&gt;E-value: 8.28e-171" locus_tag="XDD1_RS16065" class="clusterblast-orf" id="knownclusterblast-8_all_8_2_17"  />
</g>
<g label="BGC0000836" description="BGC0000836_c1: APE Ec (31% of genes show similarity), Other" class="clusterblast-cluster"  >
<text x="5" y="170" class="clusterblast-acc"  >
<a xlink:href="https://mibig.secondarymetabolites.org/go/BGC0000836/1" target="_blank">BGC0000836</a>: APE Ec                                                                           (31% of genes show similarity), Other</text>
<line x1="10" y1="185" x2="778.0" y2="185" style="stroke-width:1; stroke:grey; "  />
</g>
<g id="a8_000"  >
<polygon points="242,190 244,190 249,185 244,180 242,180 242,190 " style="fill:white; stroke-width:1; stroke:black; " description="&lt;b&gt;c1204&lt;/b&gt;&lt;br&gt;Conserved hypothetical protein&lt;br&gt;Location: 15022 - 14633" locus_tag="c1204" class="clusterblast-orf" id="knownclusterblast-8_all_8_3_0"  />
</g>
<g id="a8_001"  >
<polygon points="251,190 266,190 271,185 266,180 251,180 251,190 " style="fill:white; stroke-width:1; stroke:black; " description="&lt;b&gt;c1203&lt;/b&gt;&lt;br&gt;Putative O-methyltransferase&lt;br&gt;Location: 14568 - 13510" locus_tag="c1203" class="clusterblast-orf" id="knownclusterblast-8_all_8_3_1"  />
</g>
<g id="a8_002"  >
<polygon points="272,190 281,190 286,185 281,180 272,180 272,190 " style="fill:white; stroke-width:1; stroke:black; " description="&lt;b&gt;c1202&lt;/b&gt;&lt;br&gt;Conserved hypothetical protein&lt;br&gt;Location: 13493 - 12747" locus_tag="c1202" class="clusterblast-orf" id="knownclusterblast-8_all_8_3_2"  />
</g>
<g id="a8_003"  >
<polygon points="286,190 297,190 302,185 297,180 286,180 286,190 " style="fill:white; stroke-width:1; stroke:black; " description="&lt;b&gt;c1201&lt;/b&gt;&lt;br&gt;Putative phospholipid biosynthesis acyltransferase&lt;br&gt;Location: 12768 - 11929" locus_tag="c1201" class="clusterblast-orf" id="knownclusterblast-8_all_8_3_3"  />
</g>
<g id="a8_004"  >
<polygon points="302,190 302,190 307,185 302,180 302,180 302,190 " style="fill:#d81515; stroke-width:1; stroke:black; " description="&lt;b&gt;c1200&lt;/b&gt;&lt;br&gt;Putative acyl carrier protein&lt;br&gt;Location: 11954 - 11697&lt;br&gt;&lt;br&gt;&lt;b&gt;BlastP hit with MFKKBJ_23900&lt;/b&gt;&lt;br&gt;Percentage identity: 54&lt;br&gt;Percentage coverage: 89&lt;br&gt;BLAST bit score: 90&lt;br&gt;E-value: 5.47e-25" locus_tag="c1200" class="clusterblast-orf" id="knownclusterblast-8_all_8_3_4"  />
</g>
<g id="a8_005"  >
<polygon points="307,190 307,190 312,185 307,180 307,180 307,190 " style="fill:#15d815; stroke-width:1; stroke:black; " description="&lt;b&gt;c1199&lt;/b&gt;&lt;br&gt;Putative acyl carrier protein&lt;br&gt;Location: 11685 - 11434&lt;br&gt;&lt;br&gt;&lt;b&gt;BlastP hit with MFKKBJ_23905&lt;/b&gt;&lt;br&gt;Percentage identity: 56&lt;br&gt;Percentage coverage: 96&lt;br&gt;BLAST bit score: 87&lt;br&gt;E-value: 7.04e-24" locus_tag="c1199" class="clusterblast-orf" id="knownclusterblast-8_all_8_3_5"  />
</g>
<g id="a8_006"  >
<polygon points="312,190 319,190 324,185 319,180 312,180 312,190 " style="fill:white; stroke-width:1; stroke:black; " description="&lt;b&gt;c1198&lt;/b&gt;&lt;br&gt;Conserved hypothetical protein&lt;br&gt;Location: 11432 - 10848" locus_tag="c1198" class="clusterblast-orf" id="knownclusterblast-8_all_8_3_6"  />
</g>
<g id="a8_007"  >
<polygon points="324,190 345,190 350,185 345,180 324,180 324,190 " style="fill:white; stroke-width:1; stroke:black; " description="&lt;b&gt;c1197&lt;/b&gt;&lt;br&gt;Putative enzyme&lt;br&gt;Location: 10851 - 9493" locus_tag="c1197" class="clusterblast-orf" id="knownclusterblast-8_all_8_3_7"  />
</g>
<g id="a8_008"  >
<polygon points="350,190 352,190 357,185 352,180 350,180 350,190 " style="fill:white; stroke-width:1; stroke:black; " description="&lt;b&gt;c1196&lt;/b&gt;&lt;br&gt;Conserved hypothetical protein&lt;br&gt;Location: 9530 - 9153" locus_tag="c1196" class="clusterblast-orf" id="knownclusterblast-8_all_8_3_8"  />
</g>
<g id="a8_009"  >
<polygon points="356,190 359,185 356,180 356,190 " style="fill:white; stroke-width:1; stroke:black; " description="&lt;b&gt;c1195&lt;/b&gt;&lt;br&gt;Hypothetical protein&lt;br&gt;Location: 9202 - 9080" locus_tag="c1195" class="clusterblast-orf" id="knownclusterblast-8_all_8_3_9"  />
</g>
<g id="a8_0010"  >
<polygon points="358,190 385,190 390,185 385,180 358,180 358,190 " style="fill:#1597d8; stroke-width:1; stroke:black; " description="&lt;b&gt;c1194&lt;/b&gt;&lt;br&gt;Putative enzyme&lt;br&gt;Location: 9108 - 7486&lt;br&gt;&lt;br&gt;&lt;b&gt;BlastP hit with MFKKBJ_23920&lt;/b&gt;&lt;br&gt;Percentage identity: 55&lt;br&gt;Percentage coverage: 91&lt;br&gt;BLAST bit score: 253&lt;br&gt;E-value: 2.76e-81" locus_tag="c1194" class="clusterblast-orf" id="knownclusterblast-8_all_8_3_10"  />
</g>
<g id="a8_0011"  >
<polygon points="390,190 393,190 398,185 393,180 390,180 390,190 " style="fill:white; stroke-width:1; stroke:black; " description="&lt;b&gt;c1193&lt;/b&gt;&lt;br&gt;Hypothetical protein&lt;br&gt;Location: 7482 - 7060" locus_tag="c1193" class="clusterblast-orf" id="knownclusterblast-8_all_8_3_11"  />
</g>
<g id="a8_0012"  >
<polygon points="398,190 405,190 410,185 405,180 398,180 398,190 " style="fill:white; stroke-width:1; stroke:black; " description="&lt;b&gt;c1192&lt;/b&gt;&lt;br&gt;Conserved hypothetical protein&lt;br&gt;Location: 7063 - 6458" locus_tag="c1192" class="clusterblast-orf" id="knownclusterblast-8_all_8_3_12"  />
</g>
<g id="a8_0013"  >
<polygon points="410,190 450,190 455,185 450,180 410,180 410,190 " style="fill:white; stroke-width:1; stroke:black; " description="&lt;b&gt;c1191&lt;/b&gt;&lt;br&gt;Conserved hypothetical protein&lt;br&gt;Location: 6489 - 4171" locus_tag="c1191" class="clusterblast-orf" id="knownclusterblast-8_all_8_3_13"  />
</g>
<g id="a8_0014"  >
<polygon points="455,190 462,190 467,185 462,180 455,180 455,190 " style="fill:white; stroke-width:1; stroke:black; " description="&lt;b&gt;c1190&lt;/b&gt;&lt;br&gt;Conserved hypothetical protein&lt;br&gt;Location: 4174 - 3590" locus_tag="c1190" class="clusterblast-orf" id="knownclusterblast-8_all_8_3_14"  />
</g>
<g id="a8_0015"  >
<polygon points="467,190 485,190 490,185 485,180 467,180 467,190 " style="fill:#1515d8; stroke-width:1; stroke:black; " description="&lt;b&gt;c1189&lt;/b&gt;&lt;br&gt;Putative 3-oxoacyl-[ACP] synthase&lt;br&gt;Location: 3597 - 2419&lt;br&gt;&lt;br&gt;&lt;b&gt;BlastP hit with MFKKBJ_23965&lt;/b&gt;&lt;br&gt;Percentage identity: 48&lt;br&gt;Percentage coverage: 100&lt;br&gt;BLAST bit score: 330&lt;br&gt;E-value: 1.24e-110" locus_tag="c1189" class="clusterblast-orf" id="knownclusterblast-8_all_8_3_15"  />
</g>
<g id="a8_0016"  >
<polygon points="490,190 494,190 499,185 494,180 490,180 490,190 " style="fill:white; stroke-width:1; stroke:black; " description="&lt;b&gt;c1188&lt;/b&gt;&lt;br&gt;Conserved hypothetical protein&lt;br&gt;Location: 2422 - 1958" locus_tag="c1188" class="clusterblast-orf" id="knownclusterblast-8_all_8_3_16"  />
</g>
<g id="a8_0017"  >
<polygon points="499,190 508,190 513,185 508,180 499,180 499,190 " style="fill:#d81597; stroke-width:1; stroke:black; " description="&lt;b&gt;c1187&lt;/b&gt;&lt;br&gt;3-oxoacyl-[acyl-carrier protein] reductase&lt;br&gt;Location: 1958 - 1227&lt;br&gt;&lt;br&gt;&lt;b&gt;BlastP hit with MFKKBJ_23975&lt;/b&gt;&lt;br&gt;Percentage identity: 61&lt;br&gt;Percentage coverage: 100&lt;br&gt;BLAST bit score: 286&lt;br&gt;E-value: 4.18e-98" locus_tag="c1187" class="clusterblast-orf" id="knownclusterblast-8_all_8_3_17"  />
</g>
<g id="a8_0018"  >
<polygon points="513,190 532,190 537,185 532,180 513,180 513,190 " style="fill:#97d815; stroke-width:1; stroke:black; " description="&lt;b&gt;c1186&lt;/b&gt;&lt;br&gt;Putative beta-ketoacyl-ACP synthase&lt;br&gt;Location: 1230 - 1&lt;br&gt;&lt;br&gt;&lt;b&gt;BlastP hit with MFKKBJ_23980&lt;/b&gt;&lt;br&gt;Percentage identity: 54&lt;br&gt;Percentage coverage: 100&lt;br&gt;BLAST bit score: 474&lt;br&gt;E-value: 5.17e-167" locus_tag="c1186" class="clusterblast-orf" id="knownclusterblast-8_all_8_3_18"  />
</g>
</svg>
