<svg xmlns="http://www.w3.org/2000/svg" xmlns:xlink="http://www.w3.org/1999/xlink" version="1.1" x="0" y="0" height="230" width="800" viewBox="0 0 800 230" preserveAspectRatio="none"  >
<g label="Query sequence" class="clusterblast-cluster"  >
<text x="5" y="20" class="clusterblast-acc"  >
Query sequence</text>
<line x1="10" y1="35" x2="778.0" y2="35" style="stroke-width:1; stroke:grey; "  />
<polygon points="0,35 5,30 38,30 38,40 5,40 0,35 " style="fill:white; stroke-width:1; stroke:black; " description="&lt;b&gt;MFKKBJ_25520&lt;/b&gt;&lt;br&gt;Membrane fusion protein biotin-lipoyl like domain-containing protein&lt;br&gt;Location: 5534962 - 5537059" locus_tag="MFKKBJ_25520" class="clusterblast-orf" id="dummy-9_q0_0_all"  />
<polygon points="38,35 43,30 63,30 63,40 43,40 38,35 " style="fill:white; stroke-width:1; stroke:black; " description="&lt;b&gt;MFKKBJ_25525&lt;/b&gt;&lt;br&gt;Membrane fusion protein biotin-lipoyl like domain-containing protein&lt;br&gt;Location: 5537058 - 5538378" locus_tag="MFKKBJ_25525" class="clusterblast-orf" id="dummy-9_q1_0_all"  />
<polygon points="63,35 68,30 77,30 77,40 68,40 63,35 " style="fill:white; stroke-width:1; stroke:black; " description="&lt;b&gt;MFKKBJ_25530&lt;/b&gt;&lt;br&gt;Membrane fusion protein biotin-lipoyl like domain-containing protein&lt;br&gt;Location: 5538374 - 5539148" locus_tag="MFKKBJ_25530" class="clusterblast-orf" id="dummy-9_q2_0_all"  />
<polygon points="80,40 115,40 120,35 115,30 80,30 80,40 " style="fill:white; stroke-width:1; stroke:black; " description="&lt;b&gt;MFKKBJ_25535&lt;/b&gt;&lt;br&gt;Outer membrane assembly lipoprotein YfiO&lt;br&gt;Location: 5539310 - 5541470" locus_tag="MFKKBJ_25535" class="clusterblast-orf" id="dummy-9_q3_0_all"  />
<polygon points="120,40 128,40 133,35 128,30 120,30 120,40 " style="fill:white; stroke-width:1; stroke:black; " description="&lt;b&gt;MFKKBJ_25540&lt;/b&gt;&lt;br&gt;DUF3142 domain-containing protein&lt;br&gt;Location: 5541466 - 5542171" locus_tag="MFKKBJ_25540" class="clusterblast-orf" id="dummy-9_q4_0_all"  />
<polygon points="138,40 142,35 138,30 138,40 " style="fill:white; stroke-width:1; stroke:black; " description="&lt;b&gt;MFKKBJ_25545&lt;/b&gt;&lt;br&gt;Nucleotidyl transferase AbiEii/AbiGii toxin family protein&lt;br&gt;Location: 5542459 - 5542675" locus_tag="MFKKBJ_25545" class="clusterblast-orf" id="dummy-9_q5_0_all"  />
<polygon points="149,35 154,30 176,30 176,40 154,40 149,35 " style="fill:white; stroke-width:1; stroke:black; " description="&lt;b&gt;MFKKBJ_25550&lt;/b&gt;&lt;br&gt;RND transporter&lt;br&gt;Location: 5543035 - 5544481" locus_tag="MFKKBJ_25550" class="clusterblast-orf" id="dummy-9_q6_0_all"  />
<polygon points="176,35 181,30 195,30 195,40 181,40 176,35 " style="fill:white; stroke-width:1; stroke:black; " description="&lt;b&gt;MFKKBJ_25555&lt;/b&gt;&lt;br&gt;HlyD family secretion protein&lt;br&gt;Location: 5544477 - 5545536" locus_tag="MFKKBJ_25555" class="clusterblast-orf" id="dummy-9_q7_0_all"  />
<polygon points="195,35 200,30 224,30 224,40 200,40 195,35 " style="fill:white; stroke-width:1; stroke:black; " description="&lt;b&gt;MFKKBJ_25560&lt;/b&gt;&lt;br&gt;Major facilitator superfamily (MFS) profile domain-containing protein&lt;br&gt;Location: 5545552 - 5547088" locus_tag="MFKKBJ_25560" class="clusterblast-orf" id="dummy-9_q8_0_all"  />
<polygon points="228,35 233,30 245,30 245,40 233,40 228,35 " style="fill:white; stroke-width:1; stroke:black; " description="&lt;b&gt;MFKKBJ_25565&lt;/b&gt;&lt;br&gt;HTH lysR-type domain-containing protein&lt;br&gt;Location: 5547303 - 5548224" locus_tag="MFKKBJ_25565" class="clusterblast-orf" id="dummy-9_q9_0_all"  />
<polygon points="246,35 251,30 261,30 261,40 251,40 246,35 " style="fill:white; stroke-width:1; stroke:black; " description="&lt;b&gt;MFKKBJ_25570&lt;/b&gt;&lt;br&gt;ABC transmembrane type-1 domain-containing protein&lt;br&gt;Location: 5548278 - 5549127" locus_tag="MFKKBJ_25570" class="clusterblast-orf" id="dummy-9_q10_0_all"  />
<polygon points="262,35 267,30 277,30 277,40 267,40 262,35 " style="fill:white; stroke-width:1; stroke:black; " description="&lt;b&gt;MFKKBJ_25575&lt;/b&gt;&lt;br&gt;Vitamin B12 import ATP-binding protein BtuD&lt;br&gt;Location: 5549138 - 5549990" locus_tag="MFKKBJ_25575" class="clusterblast-orf" id="dummy-9_q11_0_all"  />
<polygon points="277,35 282,30 296,30 296,40 282,40 277,35 " style="fill:white; stroke-width:1; stroke:black; " description="&lt;b&gt;MFKKBJ_25580&lt;/b&gt;&lt;br&gt;SsuA/THI5-like domain-containing protein&lt;br&gt;Location: 5549991 - 5551017" locus_tag="MFKKBJ_25580" class="clusterblast-orf" id="dummy-9_q12_0_all"  />
<polygon points="297,35 302,30 313,30 313,40 302,40 297,35 " style="fill:white; stroke-width:1; stroke:black; " description="&lt;b&gt;MFKKBJ_25585&lt;/b&gt;&lt;br&gt;Alpha-ketoglutarate-dependent taurine dioxygenase&lt;br&gt;Location: 5551031 - 5551925" locus_tag="MFKKBJ_25585" class="clusterblast-orf" id="dummy-9_q13_0_all"  />
<polygon points="318,40 326,40 331,35 326,30 318,30 318,40 " style="fill:white; stroke-width:1; stroke:black; " description="&lt;b&gt;MFKKBJ_25590&lt;/b&gt;&lt;br&gt;HTH gntR-type domain-containing protein&lt;br&gt;Location: 5552192 - 5552903" locus_tag="MFKKBJ_25590" class="clusterblast-orf" id="dummy-9_q14_0_all"  />
<polygon points="337,40 346,40 351,35 346,30 337,30 337,40 " style="fill:#d81515; stroke-width:1; stroke:black; " description="&lt;b&gt;MFKKBJ_25595&lt;/b&gt;&lt;br&gt;Mangotoxin biosynthesis-involved protein MgoB&lt;br&gt;Location: 5553226 - 5553985" locus_tag="MFKKBJ_25595" class="clusterblast-orf" id="dummy-9_q15_0_all"  />
<polygon points="351,40 364,40 369,35 364,30 351,30 351,40 " style="fill:#15d863; stroke-width:1; stroke:black; " description="&lt;b&gt;MFKKBJ_25600&lt;/b&gt;&lt;br&gt;p-aminobenzoate N-oxygenase AurF&lt;br&gt;Location: 5553981 - 5554920" locus_tag="MFKKBJ_25600" class="clusterblast-orf" id="dummy-9_q16_0_all"  />
<polygon points="368,40 426,40 431,35 426,30 368,30 368,40 " style="fill:white; stroke-width:1; stroke:black; " description="&lt;b&gt;MFKKBJ_25605&lt;/b&gt;&lt;br&gt;Amino acid adenylation:thioester reductase&lt;br&gt;Location: 5554916 - 5558297" locus_tag="MFKKBJ_25605" class="clusterblast-orf" id="dummy-9_q17_0_all"  />
<polygon points="431,40 435,40 440,35 435,30 431,30 431,40 " style="fill:#1563d8; stroke-width:1; stroke:black; " description="&lt;b&gt;MFKKBJ_25610&lt;/b&gt;&lt;br&gt;Polyketide cyclase/dehydrase&lt;br&gt;Location: 5558316 - 5558781" locus_tag="MFKKBJ_25610" class="clusterblast-orf" id="dummy-9_q18_0_all"  />
<polygon points="441,35 446,30 476,30 476,40 446,40 441,35 " style="fill:white; stroke-width:1; stroke:black; " description="&lt;b&gt;MFKKBJ_25615&lt;/b&gt;&lt;br&gt;Chemotaxis protein&lt;br&gt;Location: 5558816 - 5560745" locus_tag="MFKKBJ_25615" class="clusterblast-orf" id="dummy-9_q19_0_all"  />
<polygon points="588,35 593,30 610,30 610,40 593,40 588,35 " style="fill:white; stroke-width:1; stroke:black; " description="&lt;b&gt;MFKKBJ_25645&lt;/b&gt;&lt;br&gt;CoA-transferase&lt;br&gt;Location: 5566768 - 5567989" locus_tag="MFKKBJ_25645" class="clusterblast-orf" id="dummy-9_q20_0_all"  />
<polygon points="610,35 615,30 632,30 632,40 615,40 610,35 " style="fill:white; stroke-width:1; stroke:black; " description="&lt;b&gt;MFKKBJ_25650&lt;/b&gt;&lt;br&gt;Acyl-CoA dehydrogenase related to the alkylation response protein AidB&lt;br&gt;Location: 5568001 - 5569183" locus_tag="MFKKBJ_25650" class="clusterblast-orf" id="dummy-9_q21_0_all"  />
<polygon points="635,40 647,40 652,35 647,30 635,30 635,40 " style="fill:white; stroke-width:1; stroke:black; " description="&lt;b&gt;MFKKBJ_25655&lt;/b&gt;&lt;br&gt;HTH lysR-type domain-containing protein&lt;br&gt;Location: 5569339 - 5570239" locus_tag="MFKKBJ_25655" class="clusterblast-orf" id="dummy-9_q22_0_all"  />
<polygon points="660,40 676,40 681,35 676,30 660,30 660,40 " style="fill:#b115d8; stroke-width:1; stroke:black; " description="&lt;b&gt;MFKKBJ_25660&lt;/b&gt;&lt;br&gt;Re/Si-specific NAD(P)(+) transhydrogenase subunit alpha&lt;br&gt;Location: 5570691 - 5571813" locus_tag="MFKKBJ_25660" class="clusterblast-orf" id="dummy-9_q23_0_all"  />
<polygon points="681,40 682,40 687,35 682,30 681,30 681,40 " style="fill:#b115d8; stroke-width:1; stroke:black; " description="&lt;b&gt;MFKKBJ_25665&lt;/b&gt;&lt;br&gt;proton-translocating NAD(P)(+) transhydrogenase&lt;br&gt;Location: 5571828 - 5572149" locus_tag="MFKKBJ_25665" class="clusterblast-orf" id="dummy-9_q24_0_all"  />
<polygon points="687,40 709,40 714,35 709,30 687,30 687,40 " style="fill:#b1d815; stroke-width:1; stroke:black; " description="&lt;b&gt;MFKKBJ_25670&lt;/b&gt;&lt;br&gt;NAD/NADP transhydrogenase beta subunit&lt;br&gt;Location: 5572148 - 5573585" locus_tag="MFKKBJ_25670" class="clusterblast-orf" id="dummy-9_q25_0_all"  />
<polygon points="717,40 739,40 744,35 739,30 717,30 717,40 " style="fill:white; stroke-width:1; stroke:black; " description="&lt;b&gt;MFKKBJ_25675&lt;/b&gt;&lt;br&gt;Propionyl CoA:succinate CoA transferase&lt;br&gt;Location: 5573764 - 5575258" locus_tag="MFKKBJ_25675" class="clusterblast-orf" id="dummy-9_q26_0_all"  />
<polygon points="750,40 754,35 750,30 750,40 " style="fill:white; stroke-width:1; stroke:black; " description="&lt;b&gt;MFKKBJ_25680&lt;/b&gt;&lt;br&gt;DUF1127 domain-containing protein&lt;br&gt;Location: 5575576 - 5575792" locus_tag="MFKKBJ_25680" class="clusterblast-orf" id="dummy-9_q27_0_all"  />
<polygon points="760,40 760,40 765,35 760,30 760,30 760,40 " style="fill:white; stroke-width:1; stroke:black; " description="&lt;b&gt;MFKKBJ_25685&lt;/b&gt;&lt;br&gt;Holliday junction resolvasome, helicase subunit&lt;br&gt;Location: 5576076 - 5576397" locus_tag="MFKKBJ_25685" class="clusterblast-orf" id="dummy-9_q28_0_all"  />
<polygon points="767,40 768,40 773,35 768,30 767,30 767,40 " style="fill:white; stroke-width:1; stroke:black; " description="&lt;b&gt;MFKKBJ_25690&lt;/b&gt;&lt;br&gt;Holliday junction resolvasome, helicase subunit&lt;br&gt;Location: 5576496 - 5576805" locus_tag="MFKKBJ_25690" class="clusterblast-orf" id="dummy-9_q29_0_all"  />
<polygon points="774,40 775,40 780,35 775,30 774,30 774,40 " style="fill:white; stroke-width:1; stroke:black; " description="&lt;b&gt;MFKKBJ_25695&lt;/b&gt;&lt;br&gt;DUF2388 domain-containing protein&lt;br&gt;Location: 5576844 - 5577165" locus_tag="MFKKBJ_25695" class="clusterblast-orf" id="dummy-9_q30_0_all"  />
</g>
<g label="BGC0001692" description="BGC0001692_c1: nematophin (13% of genes show similarity), NRP" class="clusterblast-cluster"  >
<text x="5" y="70" class="clusterblast-acc"  >
<a xlink:href="https://mibig.secondarymetabolites.org/go/BGC0001692/1" target="_blank">BGC0001692</a>: nematophin                                                                       (13% of genes show similarity), NRP</text>
<line x1="10" y1="85" x2="778.0" y2="85" style="stroke-width:1; stroke:grey; "  />
</g>
<g id="a9_000"  >
<polygon points="85,90 109,90 114,85 109,80 85,80 85,90 " style="fill:#b115d8; stroke-width:1; stroke:black; " description="&lt;b&gt;XNC1_RS09375&lt;/b&gt;&lt;br&gt;Re/Si-specific NAD(P)(+) transhydrogenase subunit alpha&lt;br&gt;Location: 1 - 1533&lt;br&gt;&lt;br&gt;&lt;b&gt;BlastP hit with MFKKBJ_25660&lt;/b&gt;&lt;br&gt;Percentage identity: 47&lt;br&gt;Percentage coverage: 99&lt;br&gt;BLAST bit score: 291&lt;br&gt;E-value: 2.76e-94&lt;br&gt;&lt;br&gt;&lt;b&gt;BlastP hit with MFKKBJ_25665&lt;/b&gt;&lt;br&gt;Percentage identity: 49&lt;br&gt;Percentage coverage: 82&lt;br&gt;BLAST bit score: 78&lt;br&gt;E-value: 7.95e-18" locus_tag="XNC1_RS09375" class="clusterblast-orf" id="dummy-9_h9_2_0"  />
</g>
<g id="a9_001"  >
<polygon points="114,90 135,90 140,85 135,80 114,80 114,90 " style="fill:#b1d815; stroke-width:1; stroke:black; " description="&lt;b&gt;XNC1_RS09380&lt;/b&gt;&lt;br&gt;Re/Si-specific NAD(P)(+) transhydrogenase subunit beta&lt;br&gt;Location: 1544 - 2932&lt;br&gt;&lt;br&gt;&lt;b&gt;BlastP hit with MFKKBJ_25670&lt;/b&gt;&lt;br&gt;Percentage identity: 49&lt;br&gt;Percentage coverage: 101&lt;br&gt;BLAST bit score: 415&lt;br&gt;E-value: 8.34e-142" locus_tag="XNC1_RS09380" class="clusterblast-orf" id="dummy-9_h9_2_1"  />
</g>
<g id="a9_002"  >
<polygon points="150,90 231,90 236,85 231,80 150,80 150,90 " style="fill:white; stroke-width:1; stroke:black; " description="&lt;b&gt;XNC1_RS20595&lt;/b&gt;&lt;br&gt;non-ribosomal peptide synthetase&lt;br&gt;Location: 3492 - 8174" locus_tag="XNC1_RS20595" class="clusterblast-orf" id="dummy-9_h9_2_2"  />
</g>
<g id="a9_003"  >
<polygon points="236,90 318,90 323,85 318,80 236,80 236,90 " style="fill:white; stroke-width:1; stroke:black; " description="&lt;b&gt;XNC1_RS09390&lt;/b&gt;&lt;br&gt;non-ribosomal peptide synthetase&lt;br&gt;Location: 8171 - 12835" locus_tag="XNC1_RS09390" class="clusterblast-orf" id="dummy-9_h9_2_3"  />
</g>
<g id="a9_004"  >
<polygon points="322,90 428,90 433,85 428,80 322,80 322,90 " style="fill:white; stroke-width:1; stroke:black; " description="&lt;b&gt;XNC1_RS09395&lt;/b&gt;&lt;br&gt;non-ribosomal peptide synthetase&lt;br&gt;Location: 12832 - 18828" locus_tag="XNC1_RS09395" class="clusterblast-orf" id="dummy-9_h9_2_4"  />
</g>
<g id="a9_005"  >
<polygon points="444,90 444,90 449,85 444,80 444,80 444,90 " style="fill:white; stroke-width:1; stroke:black; " description="&lt;b&gt;XNC1_RS22865&lt;/b&gt;&lt;br&gt;transposase&lt;br&gt;Location: 19384 - 19695" locus_tag="XNC1_RS22865" class="clusterblast-orf" id="dummy-9_h9_2_5"  />
</g>
<g id="a9_006"  >
<polygon points="450,90 523,90 528,85 523,80 450,80 450,90 " style="fill:white; stroke-width:1; stroke:black; " description="&lt;b&gt;XNC1_RS09410&lt;/b&gt;&lt;br&gt;non-ribosomal peptide synthetase&lt;br&gt;Location: 19715 - 23926" locus_tag="XNC1_RS09410" class="clusterblast-orf" id="dummy-9_h9_2_6"  />
</g>
<g id="a9_007"  >
<polygon points="538,90 550,90 555,85 550,80 538,80 538,90 " style="fill:white; stroke-width:1; stroke:black; " description="&lt;b&gt;XNC1_RS09415&lt;/b&gt;&lt;br&gt;tyrosine-type recombinase/integrase&lt;br&gt;Location: 24479 - 25402" locus_tag="XNC1_RS09415" class="clusterblast-orf" id="dummy-9_h9_2_7"  />
</g>
<g id="a9_008"  >
<polygon points="560,90 571,90 576,85 571,80 560,80 560,90 " style="fill:white; stroke-width:1; stroke:black; " description="&lt;b&gt;XNC1_RS09420&lt;/b&gt;&lt;br&gt;DMT family transporter&lt;br&gt;Location: 25687 - 26565" locus_tag="XNC1_RS09420" class="clusterblast-orf" id="dummy-9_h9_2_8"  />
</g>
<g id="a9_009"  >
<polygon points="580,90 595,90 600,85 595,80 580,80 580,90 " style="fill:white; stroke-width:1; stroke:black; " description="&lt;b&gt;XNC1_RS09425&lt;/b&gt;&lt;br&gt;amidinotransferase&lt;br&gt;Location: 26770 - 27861" locus_tag="XNC1_RS09425" class="clusterblast-orf" id="dummy-9_h9_2_9"  />
</g>
<g id="a9_0010"  >
<polygon points="602,90 615,90 620,85 615,80 602,80 602,90 " style="fill:white; stroke-width:1; stroke:black; " description="&lt;b&gt;XNC1_RS09430&lt;/b&gt;&lt;br&gt;fatty acid desaturase&lt;br&gt;Location: 27973 - 28905" locus_tag="XNC1_RS09430" class="clusterblast-orf" id="dummy-9_h9_2_10"  />
</g>
<g id="a9_0011"  >
<polygon points="621,90 632,90 637,85 632,80 621,80 621,90 " style="fill:white; stroke-width:1; stroke:black; " description="&lt;b&gt;XNC1_RS09435&lt;/b&gt;&lt;br&gt;hypothetical protein&lt;br&gt;Location: 28988 - 29851" locus_tag="XNC1_RS09435" class="clusterblast-orf" id="dummy-9_h9_2_11"  />
</g>
<g id="a9_0012"  >
<polygon points="638,85 643,80 656,80 656,90 643,90 638,85 " style="fill:white; stroke-width:1; stroke:black; " description="&lt;b&gt;XNC1_RS09440&lt;/b&gt;&lt;br&gt;universal stress protein UspE&lt;br&gt;Location: 29919 - 30863" locus_tag="XNC1_RS09440" class="clusterblast-orf" id="dummy-9_h9_2_12"  />
</g>
<g id="a9_0013"  >
<polygon points="658,85 663,80 672,80 672,90 663,90 658,85 " style="fill:white; stroke-width:1; stroke:black; " description="&lt;b&gt;XNC1_RS09445&lt;/b&gt;&lt;br&gt;FNR family transcription factor&lt;br&gt;Location: 30991 - 31755" locus_tag="XNC1_RS09445" class="clusterblast-orf" id="dummy-9_h9_2_13"  />
</g>
<g id="a9_0014"  >
<polygon points="677,90 689,90 694,85 689,80 677,80 677,90 " style="fill:white; stroke-width:1; stroke:black; " description="&lt;b&gt;XNC1_RS09450&lt;/b&gt;&lt;br&gt;dimethyl sulfoxide reductase anchor subunit&lt;br&gt;Location: 32021 - 32914" locus_tag="XNC1_RS09450" class="clusterblast-orf" id="dummy-9_h9_2_14"  />
</g>
</svg>
