<svg xmlns="http://www.w3.org/2000/svg" xmlns:xlink="http://www.w3.org/1999/xlink" version="1.1" x="0" y="0" height="50" width="800" viewBox="0 0 800 50" preserveAspectRatio="none"  >
<g label="Query sequence" class="clusterblast-cluster"  >
<text x="5" y="20" class="clusterblast-acc"  >
Query sequence</text>
<line x1="10" y1="35" x2="778.0" y2="35" style="stroke-width:1; stroke:grey; "  />
<polygon points="0,40 79,40 84,35 79,30 0,30 0,40 " style="fill:white; stroke-width:1; stroke:black; " description="&lt;b&gt;MFKKBJ_19475&lt;/b&gt;&lt;br&gt;high-affinity branched-chain amino acid ABC transporter permease LivH&lt;br&gt;Location: 4198802 - 4199726" locus_tag="MFKKBJ_19475" class="clusterblast-orf" id="knownclusterblast-7_q0_0_all"  />
<polygon points="83,40 191,40 196,35 191,30 83,30 83,40 " style="fill:white; stroke-width:1; stroke:black; " description="&lt;b&gt;MFKKBJ_19480&lt;/b&gt;&lt;br&gt;High-affinity branched-chain amino acid transport system permease LivHM N-terminal domain-containing protein&lt;br&gt;Location: 4199722 - 4200976" locus_tag="MFKKBJ_19480" class="clusterblast-orf" id="knownclusterblast-7_q1_0_all"  />
<polygon points="196,40 260,40 265,35 260,30 196,30 196,40 " style="fill:white; stroke-width:1; stroke:black; " description="&lt;b&gt;MFKKBJ_19485&lt;/b&gt;&lt;br&gt;high-affinity branched-chain amino acid ABC transporter ATP-binding protein LivG&lt;br&gt;Location: 4200972 - 4201740" locus_tag="MFKKBJ_19485" class="clusterblast-orf" id="knownclusterblast-7_q2_0_all"  />
<polygon points="265,40 324,40 329,35 324,30 265,30 265,40 " style="fill:white; stroke-width:1; stroke:black; " description="&lt;b&gt;MFKKBJ_19490&lt;/b&gt;&lt;br&gt;ABC-type branched-chain amino acid transport system, ATPase component LivF&lt;br&gt;Location: 4201741 - 4202443" locus_tag="MFKKBJ_19490" class="clusterblast-orf" id="knownclusterblast-7_q3_0_all"  />
<polygon points="346,40 368,40 373,35 368,30 346,30 346,40 " style="fill:white; stroke-width:1; stroke:black; " description="&lt;b&gt;MFKKBJ_19495&lt;/b&gt;&lt;br&gt;DUF2282 domain-containing protein&lt;br&gt;Location: 4202639 - 4202936" locus_tag="MFKKBJ_19495" class="clusterblast-orf" id="knownclusterblast-7_q4_0_all"  />
<polygon points="376,40 448,40 453,35 448,30 376,30 376,40 " style="fill:white; stroke-width:1; stroke:black; " description="&lt;b&gt;MFKKBJ_19500&lt;/b&gt;&lt;br&gt;UPF0276 protein PFWH6 1361&lt;br&gt;Location: 4202962 - 4203817" locus_tag="MFKKBJ_19500" class="clusterblast-orf" id="knownclusterblast-7_q5_0_all"  />
<polygon points="452,40 517,40 522,35 517,30 452,30 452,40 " style="fill:white; stroke-width:1; stroke:black; " description="&lt;b&gt;MFKKBJ_19505&lt;/b&gt;&lt;br&gt;Putative DNA-binding domain-containing protein&lt;br&gt;Location: 4203813 - 4204590" locus_tag="MFKKBJ_19505" class="clusterblast-orf" id="knownclusterblast-7_q6_0_all"  />
<polygon points="522,40 561,40 566,35 561,30 522,30 522,40 " style="fill:white; stroke-width:1; stroke:black; " description="&lt;b&gt;MFKKBJ_19510&lt;/b&gt;&lt;br&gt;DoxX family protein&lt;br&gt;Location: 4204586 - 4205072" locus_tag="MFKKBJ_19510" class="clusterblast-orf" id="knownclusterblast-7_q7_0_all"  />
<polygon points="566,35 571,30 648,30 648,40 571,40 566,35 " style="fill:white; stroke-width:1; stroke:black; " description="&lt;b&gt;MFKKBJ_19515&lt;/b&gt;&lt;br&gt;HTH lysR-type domain-containing protein&lt;br&gt;Location: 4205068 - 4205977" locus_tag="MFKKBJ_19515" class="clusterblast-orf" id="knownclusterblast-7_q8_0_all"  />
<polygon points="657,40 706,40 711,35 706,30 657,30 657,40 " style="fill:white; stroke-width:1; stroke:black; " description="&lt;b&gt;MFKKBJ_19520&lt;/b&gt;&lt;br&gt;short chain dehydrogenase&lt;br&gt;Location: 4206081 - 4206681" locus_tag="MFKKBJ_19520" class="clusterblast-orf" id="knownclusterblast-7_q9_0_all"  />
<polygon points="720,40 775,40 780,35 775,30 720,30 720,40 " style="fill:white; stroke-width:1; stroke:black; " description="&lt;b&gt;MFKKBJ_19525&lt;/b&gt;&lt;br&gt;Lipoprotein&lt;br&gt;Location: 4206778 - 4207450" locus_tag="MFKKBJ_19525" class="clusterblast-orf" id="knownclusterblast-7_q10_0_all"  />
</g>
</svg>
