<svg xmlns="http://www.w3.org/2000/svg" xmlns:xlink="http://www.w3.org/1999/xlink" version="1.1" x="0" y="0" height="230" width="800" viewBox="0 0 800 230" preserveAspectRatio="none"  >
<g label="Query sequence" class="clusterblast-cluster"  >
<text x="5" y="20" class="clusterblast-acc"  >
Query sequence</text>
<line x1="10" y1="35" x2="778.0" y2="35" style="stroke-width:1; stroke:grey; "  />
<polygon points="0,40 61,40 66,35 61,30 0,30 0,40 " style="fill:#d81515; stroke-width:1; stroke:black; " description="&lt;b&gt;JNAJGP_22300&lt;/b&gt;&lt;br&gt;ABC transmembrane type-1 domain-containing protein&lt;br&gt;Location: 4711370 - 4712327" locus_tag="JNAJGP_22300" class="clusterblast-orf" id="dummy-7_q0_0_all"  />
<polygon points="66,40 121,40 126,35 121,30 66,30 66,40 " style="fill:#3cd815; stroke-width:1; stroke:black; " description="&lt;b&gt;JNAJGP_22305&lt;/b&gt;&lt;br&gt;DNA-directed RNA polymerase subunit alpha&lt;br&gt;Location: 4712323 - 4713199" locus_tag="JNAJGP_22305" class="clusterblast-orf" id="dummy-7_q1_0_all"  />
<polygon points="126,40 247,40 252,35 247,30 126,30 126,40 " style="fill:#1563d8; stroke-width:1; stroke:black; " description="&lt;b&gt;JNAJGP_22310&lt;/b&gt;&lt;br&gt;nickel import ATP-binding protein NikE&lt;br&gt;Location: 4713200 - 4715042" locus_tag="JNAJGP_22310" class="clusterblast-orf" id="dummy-7_q2_0_all"  />
<polygon points="252,40 268,40 273,35 268,30 252,30 252,40 " style="fill:#b115d8; stroke-width:1; stroke:black; " description="&lt;b&gt;JNAJGP_22315&lt;/b&gt;&lt;br&gt;NAD(FAD)-dependent dehydrogenase&lt;br&gt;Location: 4715038 - 4715347" locus_tag="JNAJGP_22315" class="clusterblast-orf" id="dummy-7_q3_0_all"  />
<polygon points="272,40 361,40 366,35 361,30 272,30 272,40 " style="fill:#d88a15; stroke-width:1; stroke:black; " description="&lt;b&gt;JNAJGP_22320&lt;/b&gt;&lt;br&gt;Hydrogen cyanide synthase subunit HcnB&lt;br&gt;Location: 4715328 - 4716708" locus_tag="JNAJGP_22320" class="clusterblast-orf" id="dummy-7_q4_0_all"  />
<polygon points="366,40 440,40 445,35 440,30 366,30 366,40 " style="fill:#15d863; stroke-width:1; stroke:black; " description="&lt;b&gt;JNAJGP_22325&lt;/b&gt;&lt;br&gt;FAD dependent oxidoreductase domain-containing protein&lt;br&gt;Location: 4716704 - 4717856" locus_tag="JNAJGP_22325" class="clusterblast-orf" id="dummy-7_q5_0_all"  />
<polygon points="445,40 519,40 524,35 519,30 445,30 445,40 " style="fill:#3c15d8; stroke-width:1; stroke:black; " description="&lt;b&gt;JNAJGP_22330&lt;/b&gt;&lt;br&gt;acetylornithine deacetylase&lt;br&gt;Location: 4717852 - 4719010" locus_tag="JNAJGP_22330" class="clusterblast-orf" id="dummy-7_q6_0_all"  />
<polygon points="532,40 628,40 633,35 628,30 532,30 532,40 " style="fill:#d8158a; stroke-width:1; stroke:black; " description="&lt;b&gt;JNAJGP_22335&lt;/b&gt;&lt;br&gt;Glutarate-semialdehyde dehydrogenase Succinate-semialdehyde dehydrogenase [NADP+]&lt;br&gt;Location: 4719127 - 4720588" locus_tag="JNAJGP_22335" class="clusterblast-orf" id="dummy-7_q7_0_all"  />
<polygon points="634,40 703,40 708,35 703,30 634,30 634,40 " style="fill:#b1d815; stroke-width:1; stroke:black; " description="&lt;b&gt;JNAJGP_22340&lt;/b&gt;&lt;br&gt;tartrate dehydrogenase&lt;br&gt;Location: 4720601 - 4721687" locus_tag="JNAJGP_22340" class="clusterblast-orf" id="dummy-7_q8_0_all"  />
<polygon points="709,35 714,30 717,30 717,40 714,40 709,35 " style="fill:white; stroke-width:1; stroke:black; " description="&lt;b&gt;JNAJGP_22345&lt;/b&gt;&lt;br&gt;hypothetical protein&lt;br&gt;Location: 4721698 - 4721812" locus_tag="JNAJGP_22345" class="clusterblast-orf" id="dummy-7_q9_0_all"  />
<polygon points="717,35 722,30 780,30 780,40 722,40 717,35 " style="fill:#15d8d8; stroke-width:1; stroke:black; " description="&lt;b&gt;JNAJGP_22350&lt;/b&gt;&lt;br&gt;D-3-phosphoglycerate dehydrogenase&lt;br&gt;Location: 4721811 - 4722738" locus_tag="JNAJGP_22350" class="clusterblast-orf" id="dummy-7_q10_0_all"  />
</g>
<g label="NZ_LT629777" description="NZ_LT629777 (3140580-3153398): Pseudomonas asplenii strain ATCC 23835 chromos... (100% of genes show similarity), hydrogen-cyanide" class="clusterblast-cluster"  >
<text x="5" y="70" class="clusterblast-acc"  >
<a xlink:href="https://antismash-db.secondarymetabolites.org/area?record=NZ_LT629777&amp;start=3140580&amp;end=3153398" target="_blank">NZ_LT629777 (3140580-3153398)</a>: Pseudomonas asplenii strain ATCC 23835 chromos... (100% of genes show similarity), hydrogen-cyanide</text>
<line x1="10" y1="85" x2="778.0" y2="85" style="stroke-width:1; stroke:grey; "  />
</g>
<g id="a7_000"  >
<polygon points="2,90 62,90 67,85 62,80 2,80 2,90 " style="fill:#d81515; stroke-width:1; stroke:black; " description="&lt;b&gt;BLU37_RS14420&lt;/b&gt;&lt;br&gt;ABC transporter permease&lt;br&gt;Location: 3141913 - 3142869&lt;br&gt;&lt;br&gt;&lt;b&gt;BlastP hit with JNAJGP_22300&lt;/b&gt;&lt;br&gt;Percentage identity: 97&lt;br&gt;Percentage coverage: 100&lt;br&gt;BLAST bit score: 574&lt;br&gt;E-value: 1.69e-207" locus_tag="BLU37_RS14420" class="clusterblast-orf" id="dummy-7_h7_2_0"  />
</g>
<g id="a7_001"  >
<polygon points="67,90 122,90 127,85 122,80 67,80 67,90 " style="fill:#3cd815; stroke-width:1; stroke:black; " description="&lt;b&gt;BLU37_RS14425&lt;/b&gt;&lt;br&gt;ABC transporter permease&lt;br&gt;Location: 3142866 - 3143741&lt;br&gt;&lt;br&gt;&lt;b&gt;BlastP hit with JNAJGP_22305&lt;/b&gt;&lt;br&gt;Percentage identity: 97&lt;br&gt;Percentage coverage: 100&lt;br&gt;BLAST bit score: 535&lt;br&gt;E-value: 1.05e-192" locus_tag="BLU37_RS14425" class="clusterblast-orf" id="dummy-7_h7_2_1"  />
</g>
<g id="a7_002"  >
<polygon points="127,90 249,90 254,85 249,80 127,80 127,90 " style="fill:#1563d8; stroke-width:1; stroke:black; " description="&lt;b&gt;BLU37_RS14430&lt;/b&gt;&lt;br&gt;ABC transporter ATP-binding protein&lt;br&gt;Location: 3143743 - 3145584&lt;br&gt;&lt;br&gt;&lt;b&gt;BlastP hit with JNAJGP_22310&lt;/b&gt;&lt;br&gt;Percentage identity: 94&lt;br&gt;Percentage coverage: 100&lt;br&gt;BLAST bit score: 1109&lt;br&gt;E-value: 0.0" locus_tag="BLU37_RS14430" class="clusterblast-orf" id="dummy-7_h7_2_2"  />
</g>
<g id="a7_003"  >
<polygon points="254,90 270,90 275,85 270,80 254,80 254,90 " style="fill:#b115d8; stroke-width:1; stroke:black; " description="&lt;b&gt;BLU37_RS14435&lt;/b&gt;&lt;br&gt;(2Fe-2S)-binding protein&lt;br&gt;Location: 3145581 - 3145889&lt;br&gt;&lt;br&gt;&lt;b&gt;BlastP hit with JNAJGP_22315&lt;/b&gt;&lt;br&gt;Percentage identity: 98&lt;br&gt;Percentage coverage: 100&lt;br&gt;BLAST bit score: 211&lt;br&gt;E-value: 1.06e-70" locus_tag="BLU37_RS14435" class="clusterblast-orf" id="dummy-7_h7_2_3"  />
</g>
<g id="a7_004"  >
<polygon points="273,90 363,90 368,85 363,80 273,80 273,90 " style="fill:#d88a15; stroke-width:1; stroke:black; " description="&lt;b&gt;BLU37_RS14440&lt;/b&gt;&lt;br&gt;NAD(P)/FAD-dependent oxidoreductase&lt;br&gt;Location: 3145871 - 3147247&lt;br&gt;&lt;br&gt;&lt;b&gt;BlastP hit with JNAJGP_22320&lt;/b&gt;&lt;br&gt;Percentage identity: 95&lt;br&gt;Percentage coverage: 99&lt;br&gt;BLAST bit score: 840&lt;br&gt;E-value: 4.64e-308" locus_tag="BLU37_RS14440" class="clusterblast-orf" id="dummy-7_h7_2_4"  />
</g>
<g id="a7_005"  >
<polygon points="368,90 442,90 447,85 442,80 368,80 368,90 " style="fill:#15d863; stroke-width:1; stroke:black; " description="&lt;b&gt;BLU37_RS14445&lt;/b&gt;&lt;br&gt;FAD-binding oxidoreductase&lt;br&gt;Location: 3147244 - 3148398&lt;br&gt;&lt;br&gt;&lt;b&gt;BlastP hit with JNAJGP_22325&lt;/b&gt;&lt;br&gt;Percentage identity: 94&lt;br&gt;Percentage coverage: 100&lt;br&gt;BLAST bit score: 711&lt;br&gt;E-value: 3.05e-259" locus_tag="BLU37_RS14445" class="clusterblast-orf" id="dummy-7_h7_2_5"  />
</g>
<g id="a7_006"  >
<polygon points="447,90 521,90 526,85 521,80 447,80 447,90 " style="fill:#3c15d8; stroke-width:1; stroke:black; " description="&lt;b&gt;BLU37_RS14450&lt;/b&gt;&lt;br&gt;acetylornithine deacetylase&lt;br&gt;Location: 3148395 - 3149552&lt;br&gt;&lt;br&gt;&lt;b&gt;BlastP hit with JNAJGP_22330&lt;/b&gt;&lt;br&gt;Percentage identity: 95&lt;br&gt;Percentage coverage: 100&lt;br&gt;BLAST bit score: 727&lt;br&gt;E-value: 1.36e-265" locus_tag="BLU37_RS14450" class="clusterblast-orf" id="dummy-7_h7_2_6"  />
</g>
<g id="a7_007"  >
<polygon points="534,90 629,90 634,85 629,80 534,80 534,90 " style="fill:#d8158a; stroke-width:1; stroke:black; " description="&lt;b&gt;BLU37_RS14455&lt;/b&gt;&lt;br&gt;NAD-dependent succinate-semialdehyde dehydrogenase&lt;br&gt;Location: 3149671 - 3151131&lt;br&gt;&lt;br&gt;&lt;b&gt;BlastP hit with JNAJGP_22335&lt;/b&gt;&lt;br&gt;Percentage identity: 96&lt;br&gt;Percentage coverage: 100&lt;br&gt;BLAST bit score: 875&lt;br&gt;E-value: 0.0" locus_tag="BLU37_RS14455" class="clusterblast-orf" id="dummy-7_h7_2_7"  />
</g>
<g id="a7_008"  >
<polygon points="635,90 705,90 710,85 705,80 635,80 635,90 " style="fill:#b1d815; stroke-width:1; stroke:black; " description="&lt;b&gt;BLU37_RS14460&lt;/b&gt;&lt;br&gt;tartrate dehydrogenase&lt;br&gt;Location: 3151144 - 3152229&lt;br&gt;&lt;br&gt;&lt;b&gt;BlastP hit with JNAJGP_22340&lt;/b&gt;&lt;br&gt;Percentage identity: 94&lt;br&gt;Percentage coverage: 99&lt;br&gt;BLAST bit score: 701&lt;br&gt;E-value: 4.87e-256" locus_tag="BLU37_RS14460" class="clusterblast-orf" id="dummy-7_h7_2_8"  />
</g>
<g id="a7_009"  >
<polygon points="714,85 719,80 777,80 777,90 719,90 714,85 " style="fill:#15d8d8; stroke-width:1; stroke:black; " description="&lt;b&gt;BLU37_RS14465&lt;/b&gt;&lt;br&gt;glyoxylate/hydroxypyruvate reductase A&lt;br&gt;Location: 3152285 - 3153211&lt;br&gt;&lt;br&gt;&lt;b&gt;BlastP hit with JNAJGP_22350&lt;/b&gt;&lt;br&gt;Percentage identity: 93&lt;br&gt;Percentage coverage: 100&lt;br&gt;BLAST bit score: 581&lt;br&gt;E-value: 1.41e-210" locus_tag="BLU37_RS14465" class="clusterblast-orf" id="dummy-7_h7_2_9"  />
</g>
</svg>
