<svg xmlns="http://www.w3.org/2000/svg" xmlns:xlink="http://www.w3.org/1999/xlink" version="1.1" x="0" y="0" height="230" width="800" viewBox="0 0 800 230" preserveAspectRatio="none"  >
<g label="Query sequence" class="clusterblast-cluster"  >
<text x="5" y="20" class="clusterblast-acc"  >
Query sequence</text>
<line x1="10" y1="35" x2="778.0" y2="35" style="stroke-width:1; stroke:grey; "  />
<polygon points="226,35 231,30 250,30 250,40 231,40 226,35 " style="fill:#d81515; stroke-width:1; stroke:black; " description="&lt;b&gt;JNAJGP_27310&lt;/b&gt;&lt;br&gt;Transcriptional regulator, AraC family&lt;br&gt;Location: 5819740 - 5820610" locus_tag="JNAJGP_27310" class="clusterblast-orf" id="dummy-10_q0_0_all"  />
<polygon points="255,40 267,40 272,35 267,30 255,30 255,40 " style="fill:#3cd815; stroke-width:1; stroke:black; " description="&lt;b&gt;JNAJGP_27315&lt;/b&gt;&lt;br&gt;Lysine transporter LysE&lt;br&gt;Location: 5820798 - 5821419" locus_tag="JNAJGP_27315" class="clusterblast-orf" id="dummy-10_q1_0_all"  />
<polygon points="274,40 282,40 287,35 282,30 274,30 274,40 " style="fill:#1563d8; stroke-width:1; stroke:black; " description="&lt;b&gt;JNAJGP_27320&lt;/b&gt;&lt;br&gt;PhnB-like domain-containing protein&lt;br&gt;Location: 5821494 - 5821977" locus_tag="JNAJGP_27320" class="clusterblast-orf" id="dummy-10_q2_0_all"  />
<polygon points="290,40 307,40 312,35 307,30 290,30 290,40 " style="fill:#b115d8; stroke-width:1; stroke:black; " description="&lt;b&gt;JNAJGP_27325&lt;/b&gt;&lt;br&gt;cysteine synthase family protein&lt;br&gt;Location: 5822078 - 5822870" locus_tag="JNAJGP_27325" class="clusterblast-orf" id="dummy-10_q3_0_all"  />
<polygon points="312,40 323,40 328,35 323,30 312,30 312,40 " style="fill:#b115d8; stroke-width:1; stroke:black; " description="&lt;b&gt;JNAJGP_27330&lt;/b&gt;&lt;br&gt;CBS domain-containing protein&lt;br&gt;Location: 5822870 - 5823455" locus_tag="JNAJGP_27330" class="clusterblast-orf" id="dummy-10_q4_0_all"  />
<polygon points="327,40 354,40 359,35 354,30 327,30 327,40 " style="fill:#d88a15; stroke-width:1; stroke:black; " description="&lt;b&gt;JNAJGP_27335&lt;/b&gt;&lt;br&gt;cystathionine gamma-synthase&lt;br&gt;Location: 5823451 - 5824618" locus_tag="JNAJGP_27335" class="clusterblast-orf" id="dummy-10_q5_0_all"  />
<polygon points="361,35 366,30 420,30 420,40 366,40 361,35 " style="fill:#15d863; stroke-width:1; stroke:black; " description="&lt;b&gt;JNAJGP_27340&lt;/b&gt;&lt;br&gt;OsmC domain/YcaO domain-containing protein&lt;br&gt;Location: 5824670 - 5826872" locus_tag="JNAJGP_27340" class="clusterblast-orf" id="dummy-10_q6_0_all"  />
<polygon points="425,40 427,40 432,35 427,30 425,30 425,40 " style="fill:#3c15d8; stroke-width:1; stroke:black; " description="&lt;b&gt;JNAJGP_27345&lt;/b&gt;&lt;br&gt;PAS domain-containing protein&lt;br&gt;Location: 5827033 - 5827303" locus_tag="JNAJGP_27345" class="clusterblast-orf" id="dummy-10_q7_0_all"  />
<polygon points="432,35 437,30 444,30 444,40 437,40 432,35 " style="fill:#15d863; stroke-width:1; stroke:black; " description="&lt;b&gt;JNAJGP_27350&lt;/b&gt;&lt;br&gt;Osmotically inducible protein OsmC&lt;br&gt;Location: 5827292 - 5827724" locus_tag="JNAJGP_27350" class="clusterblast-orf" id="dummy-10_q8_0_all"  />
<polygon points="446,40 483,40 488,35 483,30 446,30 446,40 " style="fill:#3c15d8; stroke-width:1; stroke:black; " description="&lt;b&gt;JNAJGP_27355&lt;/b&gt;&lt;br&gt;Methyl-accepting transducer domain-containing protein&lt;br&gt;Location: 5827804 - 5829370" locus_tag="JNAJGP_27355" class="clusterblast-orf" id="dummy-10_q9_0_all"  />
<polygon points="495,40 512,40 517,35 512,30 495,30 495,40 " style="fill:#d8158a; stroke-width:1; stroke:black; " description="&lt;b&gt;JNAJGP_27360&lt;/b&gt;&lt;br&gt;Suppressor of fused-like domain-containing protein&lt;br&gt;Location: 5829618 - 5830428" locus_tag="JNAJGP_27360" class="clusterblast-orf" id="dummy-10_q10_0_all"  />
<polygon points="517,40 528,40 533,35 528,30 517,30 517,40 " style="fill:#b1d815; stroke-width:1; stroke:black; " description="&lt;b&gt;JNAJGP_27365&lt;/b&gt;&lt;br&gt;hypothetical protein&lt;br&gt;Location: 5830427 - 5831009" locus_tag="JNAJGP_27365" class="clusterblast-orf" id="dummy-10_q11_0_all"  />
<polygon points="538,40 548,40 553,35 548,30 538,30 538,40 " style="fill:#15d8d8; stroke-width:1; stroke:black; " description="&lt;b&gt;JNAJGP_27370&lt;/b&gt;&lt;br&gt;Hydrolase, isochorismatase family&lt;br&gt;Location: 5831188 - 5831749" locus_tag="JNAJGP_27370" class="clusterblast-orf" id="dummy-10_q12_0_all"  />
</g>
<g label="NZ_CP081944" description="NZ_CP081944 (3226869-3256378): Pseudomonas sp. DR208 chromosome, complete genome (33% of genes show similarity), thiopeptide" class="clusterblast-cluster"  >
<text x="5" y="70" class="clusterblast-acc"  >
<a xlink:href="https://antismash-db.secondarymetabolites.org/area?record=NZ_CP081944&amp;start=3226869&amp;end=3256378" target="_blank">NZ_CP081944 (3226869-3256378)</a>: Pseudomonas sp. DR208 chromosome, complete genome (33% of genes show similarity), thiopeptide</text>
<line x1="10" y1="85" x2="778.0" y2="85" style="stroke-width:1; stroke:grey; "  />
</g>
<g id="a10_000"  >
<polygon points="0,90 4,90 9,85 4,80 0,80 0,90 " style="fill:white; stroke-width:1; stroke:black; " description="&lt;b&gt;K5K89_RS14800&lt;/b&gt;&lt;br&gt;VOC family protein&lt;br&gt;Location: 3256167 - 3255811" locus_tag="K5K89_RS14800" class="clusterblast-orf" id="dummy-10_h10_8_0"  />
</g>
<g id="a10_001"  >
<polygon points="16,90 26,90 31,85 26,80 16,80 16,90 " style="fill:white; stroke-width:1; stroke:black; " description="&lt;b&gt;K5K89_RS14795&lt;/b&gt;&lt;br&gt;adenylate kinase&lt;br&gt;Location: 3255567 - 3255013" locus_tag="K5K89_RS14795" class="clusterblast-orf" id="dummy-10_h10_8_1"  />
</g>
<g id="a10_002"  >
<polygon points="33,90 34,90 39,85 34,80 33,80 33,90 " style="fill:white; stroke-width:1; stroke:black; " description="&lt;b&gt;K5K89_RS14790&lt;/b&gt;&lt;br&gt;hypothetical protein&lt;br&gt;Location: 3254938 - 3254719" locus_tag="K5K89_RS14790" class="clusterblast-orf" id="dummy-10_h10_8_2"  />
</g>
<g id="a10_003"  >
<polygon points="48,90 87,90 92,85 87,80 48,80 48,90 " style="fill:#3c15d8; stroke-width:1; stroke:black; " description="&lt;b&gt;K5K89_RS14785&lt;/b&gt;&lt;br&gt;methyl-accepting chemotaxis protein&lt;br&gt;Location: 3254394 - 3252757&lt;br&gt;&lt;br&gt;&lt;b&gt;BlastP hit with JNAJGP_27355&lt;/b&gt;&lt;br&gt;Percentage identity: 40&lt;br&gt;Percentage coverage: 61&lt;br&gt;BLAST bit score: 139&lt;br&gt;E-value: 1.7e-33" locus_tag="K5K89_RS14785" class="clusterblast-orf" id="dummy-10_h10_8_3"  />
</g>
<g id="a10_004"  >
<polygon points="101,85 106,80 179,80 179,90 106,90 101,85 " style="fill:white; stroke-width:1; stroke:black; " description="&lt;b&gt;K5K89_RS14780&lt;/b&gt;&lt;br&gt;DEAD/DEAH box helicase&lt;br&gt;Location: 3252452 - 3249555" locus_tag="K5K89_RS14780" class="clusterblast-orf" id="dummy-10_h10_8_4"  />
</g>
<g id="a10_005"  >
<polygon points="189,85 194,80 201,80 201,90 194,90 189,85 " style="fill:white; stroke-width:1; stroke:black; " description="&lt;b&gt;K5K89_RS14775&lt;/b&gt;&lt;br&gt;hypothetical protein&lt;br&gt;Location: 3249195 - 3248758" locus_tag="K5K89_RS14775" class="clusterblast-orf" id="dummy-10_h10_8_5"  />
</g>
<g id="a10_006"  >
<polygon points="205,85 210,80 235,80 235,90 210,90 205,85 " style="fill:white; stroke-width:1; stroke:black; " description="&lt;b&gt;K5K89_RS28655&lt;/b&gt;&lt;br&gt;DUF4113 domain-containing protein&lt;br&gt;Location: 3248595 - 3247490" locus_tag="K5K89_RS28655" class="clusterblast-orf" id="dummy-10_h10_8_6"  />
</g>
<g id="a10_007"  >
<polygon points="249,90 261,90 266,85 261,80 249,80 249,90 " style="fill:#3cd815; stroke-width:1; stroke:black; " description="&lt;b&gt;K5K89_RS14760&lt;/b&gt;&lt;br&gt;LysE family translocator&lt;br&gt;Location: 3247002 - 3246382&lt;br&gt;&lt;br&gt;&lt;b&gt;BlastP hit with JNAJGP_27315&lt;/b&gt;&lt;br&gt;Percentage identity: 92&lt;br&gt;Percentage coverage: 100&lt;br&gt;BLAST bit score: 365&lt;br&gt;E-value: 1.28e-128" locus_tag="K5K89_RS14760" class="clusterblast-orf" id="dummy-10_h10_8_7"  />
</g>
<g id="a10_008"  >
<polygon points="266,90 271,90 276,85 271,80 266,80 266,90 " style="fill:white; stroke-width:1; stroke:black; " description="&lt;b&gt;K5K89_RS14755&lt;/b&gt;&lt;br&gt;ester cyclase&lt;br&gt;Location: 3246378 - 3245986" locus_tag="K5K89_RS14755" class="clusterblast-orf" id="dummy-10_h10_8_8"  />
</g>
<g id="a10_009"  >
<polygon points="277,90 285,90 290,85 285,80 277,80 277,90 " style="fill:#1563d8; stroke-width:1; stroke:black; " description="&lt;b&gt;K5K89_RS14750&lt;/b&gt;&lt;br&gt;VOC family protein&lt;br&gt;Location: 3245951 - 3245469&lt;br&gt;&lt;br&gt;&lt;b&gt;BlastP hit with JNAJGP_27320&lt;/b&gt;&lt;br&gt;Percentage identity: 88&lt;br&gt;Percentage coverage: 99&lt;br&gt;BLAST bit score: 294&lt;br&gt;E-value: 6.32e-102" locus_tag="K5K89_RS14750" class="clusterblast-orf" id="dummy-10_h10_8_9"  />
</g>
<g id="a10_0010"  >
<polygon points="290,85 295,80 315,80 315,90 295,90 290,85 " style="fill:white; stroke-width:1; stroke:black; " description="&lt;b&gt;K5K89_RS14745&lt;/b&gt;&lt;br&gt;SGNH/GDSL hydrolase family protein&lt;br&gt;Location: 3245472 - 3244576" locus_tag="K5K89_RS14745" class="clusterblast-orf" id="dummy-10_h10_8_10"  />
</g>
<g id="a10_0011"  >
<polygon points="320,90 353,90 358,85 353,80 320,80 320,90 " style="fill:white; stroke-width:1; stroke:black; " description="&lt;b&gt;K5K89_RS14740&lt;/b&gt;&lt;br&gt;hypothetical protein&lt;br&gt;Location: 3244368 - 3242977" locus_tag="K5K89_RS14740" class="clusterblast-orf" id="dummy-10_h10_8_11"  />
</g>
<g id="a10_0012"  >
<polygon points="366,90 385,90 390,85 385,80 366,80 366,90 " style="fill:white; stroke-width:1; stroke:black; " description="&lt;b&gt;K5K89_RS14735&lt;/b&gt;&lt;br&gt;4-hydroxy-tetrahydrodipicolinate synthase&lt;br&gt;Location: 3242683 - 3241820" locus_tag="K5K89_RS14735" class="clusterblast-orf" id="dummy-10_h10_8_12"  />
</g>
<g id="a10_0013"  >
<polygon points="393,90 425,90 430,85 425,80 393,80 393,90 " style="fill:#b115d8; stroke-width:1; stroke:black; " description="&lt;b&gt;K5K89_RS14730&lt;/b&gt;&lt;br&gt;pyridoxal-phosphate dependent enzyme&lt;br&gt;Location: 3241703 - 3240327&lt;br&gt;&lt;br&gt;&lt;b&gt;BlastP hit with JNAJGP_27325&lt;/b&gt;&lt;br&gt;Percentage identity: 94&lt;br&gt;Percentage coverage: 100&lt;br&gt;BLAST bit score: 494&lt;br&gt;E-value: 1.3e-174&lt;br&gt;&lt;br&gt;&lt;b&gt;BlastP hit with JNAJGP_27330&lt;/b&gt;&lt;br&gt;Percentage identity: 90&lt;br&gt;Percentage coverage: 100&lt;br&gt;BLAST bit score: 347&lt;br&gt;E-value: 5.42e-118" locus_tag="K5K89_RS14730" class="clusterblast-orf" id="dummy-10_h10_8_13"  />
</g>
<g id="a10_0014"  >
<polygon points="430,90 457,90 462,85 457,80 430,80 430,90 " style="fill:#d88a15; stroke-width:1; stroke:black; " description="&lt;b&gt;K5K89_RS14725&lt;/b&gt;&lt;br&gt;cystathionine gamma-synthase&lt;br&gt;Location: 3240330 - 3239164&lt;br&gt;&lt;br&gt;&lt;b&gt;BlastP hit with JNAJGP_27335&lt;/b&gt;&lt;br&gt;Percentage identity: 95&lt;br&gt;Percentage coverage: 100&lt;br&gt;BLAST bit score: 735&lt;br&gt;E-value: 7.65e-269" locus_tag="K5K89_RS14725" class="clusterblast-orf" id="dummy-10_h10_8_14"  />
</g>
<g id="a10_0015"  >
<polygon points="465,85 470,80 524,80 524,90 470,90 465,85 " style="fill:#15d863; stroke-width:1; stroke:black; " description="&lt;b&gt;K5K89_RS14720&lt;/b&gt;&lt;br&gt;OsmC domain/YcaO domain-containing protein&lt;br&gt;Location: 3239068 - 3236870&lt;br&gt;&lt;br&gt;&lt;b&gt;BlastP hit with JNAJGP_27340&lt;/b&gt;&lt;br&gt;Percentage identity: 95&lt;br&gt;Percentage coverage: 100&lt;br&gt;BLAST bit score: 1400&lt;br&gt;E-value: 0.0&lt;br&gt;&lt;br&gt;&lt;b&gt;BlastP hit with JNAJGP_27350&lt;/b&gt;&lt;br&gt;Percentage identity: 98&lt;br&gt;Percentage coverage: 80&lt;br&gt;BLAST bit score: 230&lt;br&gt;E-value: 1.4e-70" locus_tag="K5K89_RS14720" class="clusterblast-orf" id="dummy-10_h10_8_15"  />
</g>
<g id="a10_0016"  >
<polygon points="529,90 566,90 571,85 566,80 529,80 529,90 " style="fill:#3c15d8; stroke-width:1; stroke:black; " description="&lt;b&gt;K5K89_RS14715&lt;/b&gt;&lt;br&gt;methyl-accepting chemotaxis protein&lt;br&gt;Location: 3236707 - 3235142&lt;br&gt;&lt;br&gt;&lt;b&gt;BlastP hit with JNAJGP_27345&lt;/b&gt;&lt;br&gt;Percentage identity: 90&lt;br&gt;Percentage coverage: 100&lt;br&gt;BLAST bit score: 167&lt;br&gt;E-value: 3.15e-49&lt;br&gt;&lt;br&gt;&lt;b&gt;BlastP hit with JNAJGP_27355&lt;/b&gt;&lt;br&gt;Percentage identity: 90&lt;br&gt;Percentage coverage: 100&lt;br&gt;BLAST bit score: 822&lt;br&gt;E-value: 1.68e-298" locus_tag="K5K89_RS14715" class="clusterblast-orf" id="dummy-10_h10_8_16"  />
</g>
<g id="a10_0017"  >
<polygon points="579,90 590,90 595,85 590,80 579,80 579,90 " style="fill:white; stroke-width:1; stroke:black; " description="&lt;b&gt;K5K89_RS14710&lt;/b&gt;&lt;br&gt;LysE family translocator&lt;br&gt;Location: 3234874 - 3234254" locus_tag="K5K89_RS14710" class="clusterblast-orf" id="dummy-10_h10_8_17"  />
</g>
<g id="a10_0018"  >
<polygon points="595,85 600,80 613,80 613,90 600,90 595,85 " style="fill:white; stroke-width:1; stroke:black; " description="&lt;b&gt;K5K89_RS14705&lt;/b&gt;&lt;br&gt;class I SAM-dependent methyltransferase&lt;br&gt;Location: 3234267 - 3233605" locus_tag="K5K89_RS14705" class="clusterblast-orf" id="dummy-10_h10_8_18"  />
</g>
<g id="a10_0019"  >
<polygon points="616,90 628,90 633,85 628,80 616,80 616,90 " style="fill:white; stroke-width:1; stroke:black; " description="&lt;b&gt;K5K89_RS14700&lt;/b&gt;&lt;br&gt;TetR family transcriptional regulator&lt;br&gt;Location: 3233493 - 3232861" locus_tag="K5K89_RS14700" class="clusterblast-orf" id="dummy-10_h10_8_19"  />
</g>
<g id="a10_0020"  >
<polygon points="634,90 651,90 656,85 651,80 634,80 634,90 " style="fill:#d8158a; stroke-width:1; stroke:black; " description="&lt;b&gt;K5K89_RS14695&lt;/b&gt;&lt;br&gt;suppressor of fused domain protein&lt;br&gt;Location: 3232831 - 3232037&lt;br&gt;&lt;br&gt;&lt;b&gt;BlastP hit with JNAJGP_27360&lt;/b&gt;&lt;br&gt;Percentage identity: 84&lt;br&gt;Percentage coverage: 100&lt;br&gt;BLAST bit score: 433&lt;br&gt;E-value: 1.92e-153" locus_tag="K5K89_RS14695" class="clusterblast-orf" id="dummy-10_h10_8_20"  />
</g>
<g id="a10_0021"  >
<polygon points="660,90 669,90 674,85 669,80 660,80 660,90 " style="fill:white; stroke-width:1; stroke:black; " description="&lt;b&gt;K5K89_RS14690&lt;/b&gt;&lt;br&gt;GNAT family N-acetyltransferase&lt;br&gt;Location: 3231864 - 3231382" locus_tag="K5K89_RS14690" class="clusterblast-orf" id="dummy-10_h10_8_21"  />
</g>
<g id="a10_0022"  >
<polygon points="674,85 679,80 688,80 688,90 679,90 674,85 " style="fill:white; stroke-width:1; stroke:black; " description="&lt;b&gt;K5K89_RS14685&lt;/b&gt;&lt;br&gt;GNAT family N-acetyltransferase&lt;br&gt;Location: 3231372 - 3230845" locus_tag="K5K89_RS14685" class="clusterblast-orf" id="dummy-10_h10_8_22"  />
</g>
<g id="a10_0023"  >
<polygon points="693,90 703,90 708,85 703,80 693,80 693,90 " style="fill:#15d8d8; stroke-width:1; stroke:black; " description="&lt;b&gt;K5K89_RS14680&lt;/b&gt;&lt;br&gt;cysteine hydrolase&lt;br&gt;Location: 3230682 - 3230122&lt;br&gt;&lt;br&gt;&lt;b&gt;BlastP hit with JNAJGP_27370&lt;/b&gt;&lt;br&gt;Percentage identity: 84&lt;br&gt;Percentage coverage: 98&lt;br&gt;BLAST bit score: 316&lt;br&gt;E-value: 1.29e-109" locus_tag="K5K89_RS14680" class="clusterblast-orf" id="dummy-10_h10_8_23"  />
</g>
<g id="a10_0024"  >
<polygon points="712,85 717,80 753,80 753,90 717,90 712,85 " style="fill:white; stroke-width:1; stroke:black; " description="&lt;b&gt;K5K89_RS14675&lt;/b&gt;&lt;br&gt;FAD-dependent oxidoreductase&lt;br&gt;Location: 3229978 - 3228476" locus_tag="K5K89_RS14675" class="clusterblast-orf" id="dummy-10_h10_8_24"  />
</g>
<g id="a10_0025"  >
<polygon points="754,90 762,90 767,85 762,80 754,80 754,90 " style="fill:white; stroke-width:1; stroke:black; " description="&lt;b&gt;K5K89_RS14670&lt;/b&gt;&lt;br&gt;MarR family winged helix-turn-helix transcriptional regulator&lt;br&gt;Location: 3228426 - 3227929" locus_tag="K5K89_RS14670" class="clusterblast-orf" id="dummy-10_h10_8_25"  />
</g>
<g id="a10_0026"  >
<polygon points="770,85 775,80 780,80 780,90 775,90 770,85 " style="fill:white; stroke-width:1; stroke:black; " description="&lt;b&gt;K5K89_RS14665&lt;/b&gt;&lt;br&gt;nitrite reductase small subunit NirD&lt;br&gt;Location: 3227848 - 3227486" locus_tag="K5K89_RS14665" class="clusterblast-orf" id="dummy-10_h10_8_26"  />
</g>
</svg>
