<svg xmlns="http://www.w3.org/2000/svg" xmlns:xlink="http://www.w3.org/1999/xlink" version="1.1" x="0" y="0" height="230" width="800" viewBox="0 0 800 230" preserveAspectRatio="none"  >
<g label="Query sequence" class="clusterblast-cluster"  >
<text x="5" y="20" class="clusterblast-acc"  >
Query sequence</text>
<line x1="10" y1="35" x2="778.0" y2="35" style="stroke-width:1; stroke:grey; "  />
<polygon points="2,40 62,40 67,35 62,30 2,30 2,40 " style="fill:#d81515; stroke-width:1; stroke:black; " description="&lt;b&gt;JNAJGP_22300&lt;/b&gt;&lt;br&gt;ABC transmembrane type-1 domain-containing protein&lt;br&gt;Location: 4711370 - 4712327" locus_tag="JNAJGP_22300" class="clusterblast-orf" id="dummy-7_q0_0_all"  />
<polygon points="67,40 122,40 127,35 122,30 67,30 67,40 " style="fill:#3cd815; stroke-width:1; stroke:black; " description="&lt;b&gt;JNAJGP_22305&lt;/b&gt;&lt;br&gt;DNA-directed RNA polymerase subunit alpha&lt;br&gt;Location: 4712323 - 4713199" locus_tag="JNAJGP_22305" class="clusterblast-orf" id="dummy-7_q1_0_all"  />
<polygon points="127,40 248,40 253,35 248,30 127,30 127,40 " style="fill:#1563d8; stroke-width:1; stroke:black; " description="&lt;b&gt;JNAJGP_22310&lt;/b&gt;&lt;br&gt;nickel import ATP-binding protein NikE&lt;br&gt;Location: 4713200 - 4715042" locus_tag="JNAJGP_22310" class="clusterblast-orf" id="dummy-7_q2_0_all"  />
<polygon points="253,40 269,40 274,35 269,30 253,30 253,40 " style="fill:#b115d8; stroke-width:1; stroke:black; " description="&lt;b&gt;JNAJGP_22315&lt;/b&gt;&lt;br&gt;NAD(FAD)-dependent dehydrogenase&lt;br&gt;Location: 4715038 - 4715347" locus_tag="JNAJGP_22315" class="clusterblast-orf" id="dummy-7_q3_0_all"  />
<polygon points="272,40 362,40 367,35 362,30 272,30 272,40 " style="fill:#d88a15; stroke-width:1; stroke:black; " description="&lt;b&gt;JNAJGP_22320&lt;/b&gt;&lt;br&gt;Hydrogen cyanide synthase subunit HcnB&lt;br&gt;Location: 4715328 - 4716708" locus_tag="JNAJGP_22320" class="clusterblast-orf" id="dummy-7_q4_0_all"  />
<polygon points="366,40 440,40 445,35 440,30 366,30 366,40 " style="fill:#15d863; stroke-width:1; stroke:black; " description="&lt;b&gt;JNAJGP_22325&lt;/b&gt;&lt;br&gt;FAD dependent oxidoreductase domain-containing protein&lt;br&gt;Location: 4716704 - 4717856" locus_tag="JNAJGP_22325" class="clusterblast-orf" id="dummy-7_q5_0_all"  />
<polygon points="445,40 519,40 524,35 519,30 445,30 445,40 " style="fill:#3c15d8; stroke-width:1; stroke:black; " description="&lt;b&gt;JNAJGP_22330&lt;/b&gt;&lt;br&gt;acetylornithine deacetylase&lt;br&gt;Location: 4717852 - 4719010" locus_tag="JNAJGP_22330" class="clusterblast-orf" id="dummy-7_q6_0_all"  />
<polygon points="532,40 626,40 631,35 626,30 532,30 532,40 " style="fill:#d8158a; stroke-width:1; stroke:black; " description="&lt;b&gt;JNAJGP_22335&lt;/b&gt;&lt;br&gt;Glutarate-semialdehyde dehydrogenase Succinate-semialdehyde dehydrogenase [NADP+]&lt;br&gt;Location: 4719127 - 4720588" locus_tag="JNAJGP_22335" class="clusterblast-orf" id="dummy-7_q7_0_all"  />
<polygon points="632,40 702,40 707,35 702,30 632,30 632,40 " style="fill:#b1d815; stroke-width:1; stroke:black; " description="&lt;b&gt;JNAJGP_22340&lt;/b&gt;&lt;br&gt;tartrate dehydrogenase&lt;br&gt;Location: 4720601 - 4721687" locus_tag="JNAJGP_22340" class="clusterblast-orf" id="dummy-7_q8_0_all"  />
<polygon points="707,35 712,30 715,30 715,40 712,40 707,35 " style="fill:white; stroke-width:1; stroke:black; " description="&lt;b&gt;JNAJGP_22345&lt;/b&gt;&lt;br&gt;hypothetical protein&lt;br&gt;Location: 4721698 - 4721812" locus_tag="JNAJGP_22345" class="clusterblast-orf" id="dummy-7_q9_0_all"  />
<polygon points="715,35 720,30 778,30 778,40 720,40 715,35 " style="fill:#15d8d8; stroke-width:1; stroke:black; " description="&lt;b&gt;JNAJGP_22350&lt;/b&gt;&lt;br&gt;D-3-phosphoglycerate dehydrogenase&lt;br&gt;Location: 4721811 - 4722738" locus_tag="JNAJGP_22350" class="clusterblast-orf" id="dummy-7_q10_0_all"  />
</g>
<g label="NZ_CP041189" description="NZ_CP041189 (1095906-1108727): Pseudomonas sp. NIBRBAC000502773 chromosome, c... (100% of genes show similarity), hydrogen-cyanide" class="clusterblast-cluster"  >
<text x="5" y="70" class="clusterblast-acc"  >
<a xlink:href="https://antismash-db.secondarymetabolites.org/area?record=NZ_CP041189&amp;start=1095906&amp;end=1108727" target="_blank">NZ_CP041189 (1095906-1108727)</a>: Pseudomonas sp. NIBRBAC000502773 chromosome, c... (100% of genes show similarity), hydrogen-cyanide</text>
<line x1="10" y1="85" x2="778.0" y2="85" style="stroke-width:1; stroke:grey; "  />
</g>
<g id="a7_000"  >
<polygon points="0,90 60,90 65,85 60,80 0,80 0,90 " style="fill:#d81515; stroke-width:1; stroke:black; " description="&lt;b&gt;NIBR502773_RS04930&lt;/b&gt;&lt;br&gt;ABC transporter permease&lt;br&gt;Location: 1107395 - 1106439&lt;br&gt;&lt;br&gt;&lt;b&gt;BlastP hit with JNAJGP_22300&lt;/b&gt;&lt;br&gt;Percentage identity: 98&lt;br&gt;Percentage coverage: 100&lt;br&gt;BLAST bit score: 579&lt;br&gt;E-value: 1.77e-209" locus_tag="NIBR502773_RS04930" class="clusterblast-orf" id="dummy-7_h7_3_0"  />
</g>
<g id="a7_001"  >
<polygon points="65,90 119,90 124,85 119,80 65,80 65,90 " style="fill:#3cd815; stroke-width:1; stroke:black; " description="&lt;b&gt;NIBR502773_RS04925&lt;/b&gt;&lt;br&gt;ABC transporter permease&lt;br&gt;Location: 1106442 - 1105567&lt;br&gt;&lt;br&gt;&lt;b&gt;BlastP hit with JNAJGP_22305&lt;/b&gt;&lt;br&gt;Percentage identity: 98&lt;br&gt;Percentage coverage: 100&lt;br&gt;BLAST bit score: 541&lt;br&gt;E-value: 1.9e-195" locus_tag="NIBR502773_RS04925" class="clusterblast-orf" id="dummy-7_h7_3_1"  />
</g>
<g id="a7_002"  >
<polygon points="124,90 245,90 250,85 245,80 124,80 124,90 " style="fill:#1563d8; stroke-width:1; stroke:black; " description="&lt;b&gt;NIBR502773_RS04920&lt;/b&gt;&lt;br&gt;ABC transporter ATP-binding protein&lt;br&gt;Location: 1105565 - 1103724&lt;br&gt;&lt;br&gt;&lt;b&gt;BlastP hit with JNAJGP_22310&lt;/b&gt;&lt;br&gt;Percentage identity: 94&lt;br&gt;Percentage coverage: 100&lt;br&gt;BLAST bit score: 1112&lt;br&gt;E-value: 0.0" locus_tag="NIBR502773_RS04920" class="clusterblast-orf" id="dummy-7_h7_3_2"  />
</g>
<g id="a7_003"  >
<polygon points="250,90 266,90 271,85 266,80 250,80 250,90 " style="fill:#b115d8; stroke-width:1; stroke:black; " description="&lt;b&gt;NIBR502773_RS04915&lt;/b&gt;&lt;br&gt;(2Fe-2S)-binding protein&lt;br&gt;Location: 1103727 - 1103419&lt;br&gt;&lt;br&gt;&lt;b&gt;BlastP hit with JNAJGP_22315&lt;/b&gt;&lt;br&gt;Percentage identity: 96&lt;br&gt;Percentage coverage: 100&lt;br&gt;BLAST bit score: 207&lt;br&gt;E-value: 1.76e-69" locus_tag="NIBR502773_RS04915" class="clusterblast-orf" id="dummy-7_h7_3_3"  />
</g>
<g id="a7_004"  >
<polygon points="270,90 359,90 364,85 359,80 270,80 270,90 " style="fill:#d88a15; stroke-width:1; stroke:black; " description="&lt;b&gt;NIBR502773_RS04910&lt;/b&gt;&lt;br&gt;NAD(P)/FAD-dependent oxidoreductase&lt;br&gt;Location: 1103437 - 1102058&lt;br&gt;&lt;br&gt;&lt;b&gt;BlastP hit with JNAJGP_22320&lt;/b&gt;&lt;br&gt;Percentage identity: 95&lt;br&gt;Percentage coverage: 100&lt;br&gt;BLAST bit score: 847&lt;br&gt;E-value: 1.24e-310" locus_tag="NIBR502773_RS04910" class="clusterblast-orf" id="dummy-7_h7_3_4"  />
</g>
<g id="a7_005"  >
<polygon points="364,90 437,90 442,85 437,80 364,80 364,90 " style="fill:#15d863; stroke-width:1; stroke:black; " description="&lt;b&gt;NIBR502773_RS04905&lt;/b&gt;&lt;br&gt;FAD-binding oxidoreductase&lt;br&gt;Location: 1102061 - 1100907&lt;br&gt;&lt;br&gt;&lt;b&gt;BlastP hit with JNAJGP_22325&lt;/b&gt;&lt;br&gt;Percentage identity: 95&lt;br&gt;Percentage coverage: 100&lt;br&gt;BLAST bit score: 725&lt;br&gt;E-value: 4.94e-265" locus_tag="NIBR502773_RS04905" class="clusterblast-orf" id="dummy-7_h7_3_5"  />
</g>
<g id="a7_006"  >
<polygon points="442,90 516,90 521,85 516,80 442,80 442,90 " style="fill:#3c15d8; stroke-width:1; stroke:black; " description="&lt;b&gt;NIBR502773_RS04900&lt;/b&gt;&lt;br&gt;acetylornithine deacetylase&lt;br&gt;Location: 1100910 - 1099753&lt;br&gt;&lt;br&gt;&lt;b&gt;BlastP hit with JNAJGP_22330&lt;/b&gt;&lt;br&gt;Percentage identity: 94&lt;br&gt;Percentage coverage: 100&lt;br&gt;BLAST bit score: 720&lt;br&gt;E-value: 5.32e-263" locus_tag="NIBR502773_RS04900" class="clusterblast-orf" id="dummy-7_h7_3_6"  />
</g>
<g id="a7_007"  >
<polygon points="529,90 624,90 629,85 624,80 529,80 529,90 " style="fill:#d8158a; stroke-width:1; stroke:black; " description="&lt;b&gt;NIBR502773_RS04895&lt;/b&gt;&lt;br&gt;NAD-dependent succinate-semialdehyde dehydrogenase&lt;br&gt;Location: 1099635 - 1098175&lt;br&gt;&lt;br&gt;&lt;b&gt;BlastP hit with JNAJGP_22335&lt;/b&gt;&lt;br&gt;Percentage identity: 93&lt;br&gt;Percentage coverage: 100&lt;br&gt;BLAST bit score: 850&lt;br&gt;E-value: 4.29e-311" locus_tag="NIBR502773_RS04895" class="clusterblast-orf" id="dummy-7_h7_3_7"  />
</g>
<g id="a7_008"  >
<polygon points="630,90 700,90 705,85 700,80 630,80 630,90 " style="fill:#b1d815; stroke-width:1; stroke:black; " description="&lt;b&gt;NIBR502773_RS04890&lt;/b&gt;&lt;br&gt;tartrate dehydrogenase&lt;br&gt;Location: 1098154 - 1097063&lt;br&gt;&lt;br&gt;&lt;b&gt;BlastP hit with JNAJGP_22340&lt;/b&gt;&lt;br&gt;Percentage identity: 94&lt;br&gt;Percentage coverage: 99&lt;br&gt;BLAST bit score: 699&lt;br&gt;E-value: 1.5e-255" locus_tag="NIBR502773_RS04890" class="clusterblast-orf" id="dummy-7_h7_3_8"  />
</g>
<g id="a7_009"  >
<polygon points="716,85 721,80 779,80 779,90 721,90 716,85 " style="fill:#15d8d8; stroke-width:1; stroke:black; " description="&lt;b&gt;NIBR502773_RS04885&lt;/b&gt;&lt;br&gt;glyoxylate/hydroxypyruvate reductase A&lt;br&gt;Location: 1096897 - 1095971&lt;br&gt;&lt;br&gt;&lt;b&gt;BlastP hit with JNAJGP_22350&lt;/b&gt;&lt;br&gt;Percentage identity: 88&lt;br&gt;Percentage coverage: 100&lt;br&gt;BLAST bit score: 554&lt;br&gt;E-value: 9.34e-200" locus_tag="NIBR502773_RS04885" class="clusterblast-orf" id="dummy-7_h7_3_9"  />
</g>
</svg>
