<svg xmlns="http://www.w3.org/2000/svg" xmlns:xlink="http://www.w3.org/1999/xlink" version="1.1" x="0" y="0" height="230" width="800" viewBox="0 0 800 230" preserveAspectRatio="none"  >
<g label="Query sequence" class="clusterblast-cluster"  >
<text x="5" y="20" class="clusterblast-acc"  >
Query sequence</text>
<line x1="10" y1="35" x2="778.0" y2="35" style="stroke-width:1; stroke:grey; "  />
<polygon points="0,40 24,40 29,35 24,30 0,30 0,40 " style="fill:#d81515; stroke-width:1; stroke:black; " description="&lt;b&gt;JNAJGP_08685&lt;/b&gt;&lt;br&gt;YdiU family protein&lt;br&gt;Location: 1807450 - 1808914" locus_tag="JNAJGP_08685" class="clusterblast-orf" id="dummy-3_q0_0_all"  />
<polygon points="29,35 34,30 37,30 37,40 34,40 29,35 " style="fill:#6fd815; stroke-width:1; stroke:black; " description="&lt;b&gt;JNAJGP_08690&lt;/b&gt;&lt;br&gt;Antitoxin HigA&lt;br&gt;Location: 1808932 - 1809334" locus_tag="JNAJGP_08690" class="clusterblast-orf" id="dummy-3_q1_0_all"  />
<polygon points="37,35 42,30 43,30 43,40 42,40 37,35 " style="fill:#15c9d8; stroke-width:1; stroke:black; " description="&lt;b&gt;JNAJGP_08695&lt;/b&gt;&lt;br&gt;mRNA interferase toxin HigB&lt;br&gt;Location: 1809341 - 1809629" locus_tag="JNAJGP_08695" class="clusterblast-orf" id="dummy-3_q2_0_all"  />
<polygon points="48,40 51,40 56,35 51,30 48,30 48,40 " style="fill:#8d15d8; stroke-width:1; stroke:black; " description="&lt;b&gt;JNAJGP_08700&lt;/b&gt;&lt;br&gt;thioredoxin TrxC&lt;br&gt;Location: 1809863 - 1810298" locus_tag="JNAJGP_08700" class="clusterblast-orf" id="dummy-3_q3_0_all"  />
<polygon points="59,35 63,30 63,40 59,35 " style="fill:#d83315; stroke-width:1; stroke:black; " description="&lt;b&gt;JNAJGP_08705&lt;/b&gt;&lt;br&gt;DUF3077 domain-containing protein&lt;br&gt;Location: 1810426 - 1810660" locus_tag="JNAJGP_08705" class="clusterblast-orf" id="dummy-3_q4_0_all"  />
<polygon points="71,35 76,30 86,30 86,40 76,40 71,35 " style="fill:#51d815; stroke-width:1; stroke:black; " description="&lt;b&gt;JNAJGP_08715&lt;/b&gt;&lt;br&gt;ParA-like ATPase involved in chromosome/plasmid partitioning or cellulose biosynthesis protein BcsQ&lt;br&gt;Location: 1811037 - 1811808" locus_tag="JNAJGP_08715" class="clusterblast-orf" id="dummy-3_q5_0_all"  />
<polygon points="92,40 101,40 106,35 101,30 92,30 92,40 " style="fill:#15abd8; stroke-width:1; stroke:black; " description="&lt;b&gt;JNAJGP_08720&lt;/b&gt;&lt;br&gt;Beta-ketoacyl synthase N-terminal domain-containing protein&lt;br&gt;Location: 1812135 - 1812855" locus_tag="JNAJGP_08720" class="clusterblast-orf" id="dummy-3_q6_0_all"  />
<polygon points="106,40 117,40 122,35 117,30 106,30 106,40 " style="fill:#ab15d8; stroke-width:1; stroke:black; " description="&lt;b&gt;JNAJGP_08725&lt;/b&gt;&lt;br&gt;Phospholipid/glycerol acyltransferase domain-containing protein&lt;br&gt;Location: 1812830 - 1813643" locus_tag="JNAJGP_08725" class="clusterblast-orf" id="dummy-3_q7_0_all"  />
<polygon points="122,40 122,40 127,35 122,30 122,30 122,40 " style="fill:#d85115; stroke-width:1; stroke:black; " description="&lt;b&gt;JNAJGP_08730&lt;/b&gt;&lt;br&gt;Acyl carrier protein&lt;br&gt;Location: 1813620 - 1813890" locus_tag="JNAJGP_08730" class="clusterblast-orf" id="dummy-3_q8_0_all"  />
<polygon points="127,40 127,40 132,35 127,30 127,30 127,40 " style="fill:#33d815; stroke-width:1; stroke:black; " description="&lt;b&gt;JNAJGP_08735&lt;/b&gt;&lt;br&gt;acyl carrier protein&lt;br&gt;Location: 1813899 - 1814154" locus_tag="JNAJGP_08735" class="clusterblast-orf" id="dummy-3_q9_0_all"  />
<polygon points="132,40 138,40 143,35 138,30 132,30 132,40 " style="fill:#158dd8; stroke-width:1; stroke:black; " description="&lt;b&gt;JNAJGP_08740&lt;/b&gt;&lt;br&gt;Intracellular septation protein a&lt;br&gt;Location: 1814150 - 1814696" locus_tag="JNAJGP_08740" class="clusterblast-orf" id="dummy-3_q10_0_all"  />
<polygon points="143,40 170,40 175,35 170,30 143,30 143,40 " style="fill:#c915d8; stroke-width:1; stroke:black; " description="&lt;b&gt;JNAJGP_08745&lt;/b&gt;&lt;br&gt;Acetyl-coenzyme A synthetase&lt;br&gt;Location: 1814692 - 1816363" locus_tag="JNAJGP_08745" class="clusterblast-orf" id="dummy-3_q11_0_all"  />
<polygon points="179,40 188,40 193,35 188,30 179,30 179,40 " style="fill:#d86f15; stroke-width:1; stroke:black; " description="&lt;b&gt;JNAJGP_08750&lt;/b&gt;&lt;br&gt;Glycosyl transferase&lt;br&gt;Location: 1816530 - 1817265" locus_tag="JNAJGP_08750" class="clusterblast-orf" id="dummy-3_q12_0_all"  />
<polygon points="193,40 207,40 212,35 207,30 193,30 193,40 " style="fill:#15d815; stroke-width:1; stroke:black; " description="&lt;b&gt;JNAJGP_08755&lt;/b&gt;&lt;br&gt;Glycosyl transferase&lt;br&gt;Location: 1817261 - 1818197" locus_tag="JNAJGP_08755" class="clusterblast-orf" id="dummy-3_q13_0_all"  />
<polygon points="211,40 237,40 242,35 237,30 211,30 211,40 " style="fill:#156fd8; stroke-width:1; stroke:black; " description="&lt;b&gt;JNAJGP_08760&lt;/b&gt;&lt;br&gt;Histidine ammonia-lyase&lt;br&gt;Location: 1818180 - 1819722" locus_tag="JNAJGP_08760" class="clusterblast-orf" id="dummy-3_q14_0_all"  />
<polygon points="241,40 245,40 250,35 245,30 241,30 241,40 " style="fill:#d815c9; stroke-width:1; stroke:black; " description="&lt;b&gt;JNAJGP_08765&lt;/b&gt;&lt;br&gt;Thioesterase domain-containing protein&lt;br&gt;Location: 1819714 - 1820140" locus_tag="JNAJGP_08765" class="clusterblast-orf" id="dummy-3_q15_0_all"  />
<polygon points="250,40 256,40 261,35 256,30 250,30 250,40 " style="fill:#d88d15; stroke-width:1; stroke:black; " description="&lt;b&gt;JNAJGP_08770&lt;/b&gt;&lt;br&gt;Outer membrane lipoprotein carrier protein LolA&lt;br&gt;Location: 1820136 - 1820727" locus_tag="JNAJGP_08770" class="clusterblast-orf" id="dummy-3_q16_0_all"  />
<polygon points="261,40 302,40 307,35 302,30 261,30 261,40 " style="fill:#15d833; stroke-width:1; stroke:black; " description="&lt;b&gt;JNAJGP_08775&lt;/b&gt;&lt;br&gt;Membrane transport protein MMPL domain-containing protein&lt;br&gt;Location: 1820716 - 1823029" locus_tag="JNAJGP_08775" class="clusterblast-orf" id="dummy-3_q17_0_all"  />
<polygon points="307,40 327,40 332,35 327,30 307,30 307,40 " style="fill:#1551d8; stroke-width:1; stroke:black; " description="&lt;b&gt;JNAJGP_08780&lt;/b&gt;&lt;br&gt;FAD-binding domain-containing protein&lt;br&gt;Location: 1823062 - 1824310" locus_tag="JNAJGP_08780" class="clusterblast-orf" id="dummy-3_q18_0_all"  />
<polygon points="332,40 341,40 346,35 341,30 332,30 332,40 " style="fill:#d815ab; stroke-width:1; stroke:black; " description="&lt;b&gt;JNAJGP_08785&lt;/b&gt;&lt;br&gt;Methyltransferase type 11 domain-containing protein&lt;br&gt;Location: 1824306 - 1825041" locus_tag="JNAJGP_08785" class="clusterblast-orf" id="dummy-3_q19_0_all"  />
<polygon points="346,40 351,40 356,35 351,30 346,30 346,40 " style="fill:#d8ab15; stroke-width:1; stroke:black; " description="&lt;b&gt;JNAJGP_08790&lt;/b&gt;&lt;br&gt;Lipoprotein&lt;br&gt;Location: 1825037 - 1825520" locus_tag="JNAJGP_08790" class="clusterblast-orf" id="dummy-3_q20_0_all"  />
<polygon points="356,40 374,40 379,35 374,30 356,30 356,40 " style="fill:#15d851; stroke-width:1; stroke:black; " description="&lt;b&gt;JNAJGP_08795&lt;/b&gt;&lt;br&gt;3-oxoacyl-(Acyl carrier protein) synthase&lt;br&gt;Location: 1825516 - 1826683" locus_tag="JNAJGP_08795" class="clusterblast-orf" id="dummy-3_q21_0_all"  />
<polygon points="378,40 383,40 388,35 383,30 378,30 378,40 " style="fill:#1533d8; stroke-width:1; stroke:black; " description="&lt;b&gt;JNAJGP_08800&lt;/b&gt;&lt;br&gt;3-hydroxydecanoyl-(ACP) dehydratase&lt;br&gt;Location: 1826679 - 1827141" locus_tag="JNAJGP_08800" class="clusterblast-orf" id="dummy-3_q22_0_all"  />
<polygon points="387,40 397,40 402,35 397,30 387,30 387,40 " style="fill:#d8158d; stroke-width:1; stroke:black; " description="&lt;b&gt;JNAJGP_08805&lt;/b&gt;&lt;br&gt;3-oxoacyl-ACP reductase FabG&lt;br&gt;Location: 1827137 - 1827866" locus_tag="JNAJGP_08805" class="clusterblast-orf" id="dummy-3_q23_0_all"  />
<polygon points="402,40 421,40 426,35 421,30 402,30 402,40 " style="fill:#d8c915; stroke-width:1; stroke:black; " description="&lt;b&gt;JNAJGP_08810&lt;/b&gt;&lt;br&gt;beta-ketoacyl-ACP synthase&lt;br&gt;Location: 1827865 - 1829092" locus_tag="JNAJGP_08810" class="clusterblast-orf" id="dummy-3_q24_0_all"  />
<polygon points="426,40 430,40 435,35 430,30 426,30 426,40 " style="fill:#15d86f; stroke-width:1; stroke:black; " description="&lt;b&gt;JNAJGP_08815&lt;/b&gt;&lt;br&gt;Lipoprotein&lt;br&gt;Location: 1829118 - 1829571" locus_tag="JNAJGP_08815" class="clusterblast-orf" id="dummy-3_q25_0_all"  />
<polygon points="440,35 445,30 447,30 447,40 445,40 440,35 " style="fill:#1515d8; stroke-width:1; stroke:black; " description="&lt;b&gt;JNAJGP_08820&lt;/b&gt;&lt;br&gt;Type II toxin-antitoxin system PemK/MazF family toxin&lt;br&gt;Location: 1829787 - 1830171" locus_tag="JNAJGP_08820" class="clusterblast-orf" id="dummy-3_q26_0_all"  />
<polygon points="449,35 454,30 466,30 466,40 454,40 449,35 " style="fill:#d8156f; stroke-width:1; stroke:black; " description="&lt;b&gt;JNAJGP_08825&lt;/b&gt;&lt;br&gt;HTH lysR-type domain-containing protein&lt;br&gt;Location: 1830258 - 1831152" locus_tag="JNAJGP_08825" class="clusterblast-orf" id="dummy-3_q27_0_all"  />
<polygon points="469,40 489,40 494,35 489,30 469,30 469,40 " style="fill:#c9d815; stroke-width:1; stroke:black; " description="&lt;b&gt;JNAJGP_08830&lt;/b&gt;&lt;br&gt;Major facilitator superfamily (MFS) profile domain-containing protein&lt;br&gt;Location: 1831274 - 1832549" locus_tag="JNAJGP_08830" class="clusterblast-orf" id="dummy-3_q28_0_all"  />
<polygon points="495,35 500,30 516,30 516,40 500,40 495,35 " style="fill:#15d88d; stroke-width:1; stroke:black; " description="&lt;b&gt;JNAJGP_08835&lt;/b&gt;&lt;br&gt;uroporphyrinogen decarboxylase&lt;br&gt;Location: 1832609 - 1833677" locus_tag="JNAJGP_08835" class="clusterblast-orf" id="dummy-3_q29_0_all"  />
<polygon points="521,35 526,30 549,30 549,40 526,40 521,35 " style="fill:#3315d8; stroke-width:1; stroke:black; " description="&lt;b&gt;JNAJGP_08840&lt;/b&gt;&lt;br&gt;NADPH-dependent glutamate synthase beta chain or related oxidoreductase&lt;br&gt;Location: 1833919 - 1835338" locus_tag="JNAJGP_08840" class="clusterblast-orf" id="dummy-3_q30_0_all"  />
<polygon points="549,35 554,30 637,30 637,40 554,40 549,35 " style="fill:#d81551; stroke-width:1; stroke:black; " description="&lt;b&gt;JNAJGP_08845&lt;/b&gt;&lt;br&gt;Glutamate synthase large subunit&lt;br&gt;Location: 1835370 - 1839816" locus_tag="JNAJGP_08845" class="clusterblast-orf" id="dummy-3_q31_0_all"  />
<polygon points="644,35 649,30 675,30 675,40 649,40 644,35 " style="fill:#abd815; stroke-width:1; stroke:black; " description="&lt;b&gt;JNAJGP_08850&lt;/b&gt;&lt;br&gt;General secretion pathway protein a&lt;br&gt;Location: 1840170 - 1841733" locus_tag="JNAJGP_08850" class="clusterblast-orf" id="dummy-3_q32_0_all"  />
<polygon points="675,35 680,30 696,30 696,40 680,40 675,35 " style="fill:#15d8ab; stroke-width:1; stroke:black; " description="&lt;b&gt;JNAJGP_08855&lt;/b&gt;&lt;br&gt;3-dehydroquinate synthase&lt;br&gt;Location: 1841743 - 1842844" locus_tag="JNAJGP_08855" class="clusterblast-orf" id="dummy-3_q33_0_all"  />
<polygon points="699,35 704,30 708,30 708,40 704,40 699,35 " style="fill:#5115d8; stroke-width:1; stroke:black; " description="&lt;b&gt;JNAJGP_08860&lt;/b&gt;&lt;br&gt;shikimate kinase AroK&lt;br&gt;Location: 1842959 - 1843451" locus_tag="JNAJGP_08860" class="clusterblast-orf" id="dummy-3_q34_0_all"  />
<polygon points="709,35 714,30 736,30 736,40 714,40 709,35 " style="fill:#d81533; stroke-width:1; stroke:black; " description="&lt;b&gt;JNAJGP_08865&lt;/b&gt;&lt;br&gt;Type IV fimbriae biogenesis protein&lt;br&gt;Location: 1843482 - 1844865" locus_tag="JNAJGP_08865" class="clusterblast-orf" id="dummy-3_q35_0_all"  />
<polygon points="736,35 741,30 756,30 756,40 741,40 736,35 " style="fill:#8dd815; stroke-width:1; stroke:black; " description="&lt;b&gt;JNAJGP_08870&lt;/b&gt;&lt;br&gt;Pilus assembly protein&lt;br&gt;Location: 1844878 - 1845850" locus_tag="JNAJGP_08870" class="clusterblast-orf" id="dummy-3_q36_0_all"  />
<polygon points="756,35 761,30 766,30 766,40 761,40 756,35 " style="fill:#15d8c9; stroke-width:1; stroke:black; " description="&lt;b&gt;JNAJGP_08875&lt;/b&gt;&lt;br&gt;Type IV pilus assembly protein&lt;br&gt;Location: 1845846 - 1846401" locus_tag="JNAJGP_08875" class="clusterblast-orf" id="dummy-3_q37_0_all"  />
<polygon points="766,35 771,30 779,30 779,40 771,40 766,35 " style="fill:#6f15d8; stroke-width:1; stroke:black; " description="&lt;b&gt;JNAJGP_08880&lt;/b&gt;&lt;br&gt;Type IV pilus assembly protein&lt;br&gt;Location: 1846397 - 1847051" locus_tag="JNAJGP_08880" class="clusterblast-orf" id="dummy-3_q38_0_all"  />
</g>
<g label="NZ_CP027727" description="NZ_CP027727 (489269-532845): Pseudomonas sp. R5-89-07 chromosome, complete ge... (100% of genes show similarity), arylpolyene" class="clusterblast-cluster"  >
<text x="5" y="70" class="clusterblast-acc"  >
<a xlink:href="https://antismash-db.secondarymetabolites.org/area?record=NZ_CP027727&amp;start=489269&amp;end=532845" target="_blank">NZ_CP027727 (489269-532845)</a>: Pseudomonas sp. R5-89-07 chromosome, complete ge... (100% of genes show similarity), arylpolyene</text>
<line x1="10" y1="85" x2="778.0" y2="85" style="stroke-width:1; stroke:grey; "  />
</g>
<g id="a3_000"  >
<polygon points="0,90 23,90 28,85 23,80 0,80 0,90 " style="fill:#d81515; stroke-width:1; stroke:black; " description="&lt;b&gt;C4J94_RS02300&lt;/b&gt;&lt;br&gt;YdiU family protein&lt;br&gt;Location: 530964 - 529501&lt;br&gt;&lt;br&gt;&lt;b&gt;BlastP hit with JNAJGP_08685&lt;/b&gt;&lt;br&gt;Percentage identity: 94&lt;br&gt;Percentage coverage: 100&lt;br&gt;BLAST bit score: 936&lt;br&gt;E-value: 0.0" locus_tag="C4J94_RS02300" class="clusterblast-orf" id="dummy-3_h3_3_0"  />
</g>
<g id="a3_001"  >
<polygon points="28,85 33,80 36,80 36,90 33,90 28,85 " style="fill:#6fd815; stroke-width:1; stroke:black; " description="&lt;b&gt;C4J94_RS02295&lt;/b&gt;&lt;br&gt;transcriptional regulator&lt;br&gt;Location: 529496 - 529095&lt;br&gt;&lt;br&gt;&lt;b&gt;BlastP hit with JNAJGP_08690&lt;/b&gt;&lt;br&gt;Percentage identity: 75&lt;br&gt;Percentage coverage: 100&lt;br&gt;BLAST bit score: 198&lt;br&gt;E-value: 7.73e-65" locus_tag="C4J94_RS02295" class="clusterblast-orf" id="dummy-3_h3_3_1"  />
</g>
<g id="a3_002"  >
<polygon points="36,85 41,80 42,80 42,90 41,90 36,85 " style="fill:#15c9d8; stroke-width:1; stroke:black; " description="&lt;b&gt;C4J94_RS02290&lt;/b&gt;&lt;br&gt;type II toxin-antitoxin system HigB family toxin&lt;br&gt;Location: 529098 - 528802&lt;br&gt;&lt;br&gt;&lt;b&gt;BlastP hit with JNAJGP_08695&lt;/b&gt;&lt;br&gt;Percentage identity: 68&lt;br&gt;Percentage coverage: 100&lt;br&gt;BLAST bit score: 138&lt;br&gt;E-value: 3.31e-42" locus_tag="C4J94_RS02290" class="clusterblast-orf" id="dummy-3_h3_3_2"  />
</g>
<g id="a3_003"  >
<polygon points="46,90 50,90 55,85 50,80 46,80 46,90 " style="fill:#8d15d8; stroke-width:1; stroke:black; " description="&lt;b&gt;C4J94_RS02285&lt;/b&gt;&lt;br&gt;thioredoxin TrxC&lt;br&gt;Location: 528578 - 528144&lt;br&gt;&lt;br&gt;&lt;b&gt;BlastP hit with JNAJGP_08700&lt;/b&gt;&lt;br&gt;Percentage identity: 99&lt;br&gt;Percentage coverage: 100&lt;br&gt;BLAST bit score: 300&lt;br&gt;E-value: 6.87e-105" locus_tag="C4J94_RS02285" class="clusterblast-orf" id="dummy-3_h3_3_3"  />
</g>
<g id="a3_004"  >
<polygon points="56,85 61,80 61,80 61,90 61,90 56,85 " style="fill:#d83315; stroke-width:1; stroke:black; " description="&lt;b&gt;C4J94_RS02280&lt;/b&gt;&lt;br&gt;DUF6124 family protein&lt;br&gt;Location: 528079 - 527861&lt;br&gt;&lt;br&gt;&lt;b&gt;BlastP hit with JNAJGP_08705&lt;/b&gt;&lt;br&gt;Percentage identity: 83&lt;br&gt;Percentage coverage: 90&lt;br&gt;BLAST bit score: 119&lt;br&gt;E-value: 3.14e-35" locus_tag="C4J94_RS02280" class="clusterblast-orf" id="dummy-3_h3_3_4"  />
</g>
<g id="a3_005"  >
<polygon points="70,85 75,80 85,80 85,90 75,90 70,85 " style="fill:#51d815; stroke-width:1; stroke:black; " description="&lt;b&gt;C4J94_RS02275&lt;/b&gt;&lt;br&gt;ParA family protein&lt;br&gt;Location: 527396 - 526626&lt;br&gt;&lt;br&gt;&lt;b&gt;BlastP hit with JNAJGP_08715&lt;/b&gt;&lt;br&gt;Percentage identity: 99&lt;br&gt;Percentage coverage: 100&lt;br&gt;BLAST bit score: 497&lt;br&gt;E-value: 4.32e-179" locus_tag="C4J94_RS02275" class="clusterblast-orf" id="dummy-3_h3_3_5"  />
</g>
<g id="a3_006"  >
<polygon points="91,90 100,90 105,85 100,80 91,80 91,90 " style="fill:#15abd8; stroke-width:1; stroke:black; " description="&lt;b&gt;C4J94_RS02270&lt;/b&gt;&lt;br&gt;beta-ketoacyl synthase chain length factor&lt;br&gt;Location: 526310 - 525591&lt;br&gt;&lt;br&gt;&lt;b&gt;BlastP hit with JNAJGP_08720&lt;/b&gt;&lt;br&gt;Percentage identity: 92&lt;br&gt;Percentage coverage: 100&lt;br&gt;BLAST bit score: 454&lt;br&gt;E-value: 1.96e-162" locus_tag="C4J94_RS02270" class="clusterblast-orf" id="dummy-3_h3_3_6"  />
</g>
<g id="a3_007"  >
<polygon points="105,90 116,90 121,85 116,80 105,80 105,90 " style="fill:#ab15d8; stroke-width:1; stroke:black; " description="&lt;b&gt;C4J94_RS02265&lt;/b&gt;&lt;br&gt;1-acyl-sn-glycerol-3-phosphate acyltransferase&lt;br&gt;Location: 525615 - 524803&lt;br&gt;&lt;br&gt;&lt;b&gt;BlastP hit with JNAJGP_08725&lt;/b&gt;&lt;br&gt;Percentage identity: 91&lt;br&gt;Percentage coverage: 100&lt;br&gt;BLAST bit score: 495&lt;br&gt;E-value: 7.33e-178" locus_tag="C4J94_RS02265" class="clusterblast-orf" id="dummy-3_h3_3_7"  />
</g>
<g id="a3_008"  >
<polygon points="120,90 121,90 126,85 121,80 120,80 120,90 " style="fill:#d85115; stroke-width:1; stroke:black; " description="&lt;b&gt;C4J94_RS02260&lt;/b&gt;&lt;br&gt;phosphopantetheine-binding protein&lt;br&gt;Location: 524825 - 524556&lt;br&gt;&lt;br&gt;&lt;b&gt;BlastP hit with JNAJGP_08730&lt;/b&gt;&lt;br&gt;Percentage identity: 96&lt;br&gt;Percentage coverage: 100&lt;br&gt;BLAST bit score: 160&lt;br&gt;E-value: 2.82e-51" locus_tag="C4J94_RS02260" class="clusterblast-orf" id="dummy-3_h3_3_8"  />
</g>
<g id="a3_009"  >
<polygon points="126,90 126,90 131,85 126,80 126,80 126,90 " style="fill:#33d815; stroke-width:1; stroke:black; " description="&lt;b&gt;C4J94_RS02255&lt;/b&gt;&lt;br&gt;acyl carrier protein&lt;br&gt;Location: 524546 - 524292&lt;br&gt;&lt;br&gt;&lt;b&gt;BlastP hit with JNAJGP_08735&lt;/b&gt;&lt;br&gt;Percentage identity: 98&lt;br&gt;Percentage coverage: 100&lt;br&gt;BLAST bit score: 155&lt;br&gt;E-value: 3.83e-49" locus_tag="C4J94_RS02255" class="clusterblast-orf" id="dummy-3_h3_3_9"  />
</g>
<g id="a3_0010"  >
<polygon points="131,90 136,90 141,85 136,80 131,80 131,90 " style="fill:#158dd8; stroke-width:1; stroke:black; " description="&lt;b&gt;C4J94_RS02250&lt;/b&gt;&lt;br&gt;hypothetical protein&lt;br&gt;Location: 524295 - 523750&lt;br&gt;&lt;br&gt;&lt;b&gt;BlastP hit with JNAJGP_08740&lt;/b&gt;&lt;br&gt;Percentage identity: 96&lt;br&gt;Percentage coverage: 100&lt;br&gt;BLAST bit score: 356&lt;br&gt;E-value: 1.24e-125" locus_tag="C4J94_RS02250" class="clusterblast-orf" id="dummy-3_h3_3_10"  />
</g>
<g id="a3_0011"  >
<polygon points="141,90 169,90 174,85 169,80 141,80 141,90 " style="fill:#c915d8; stroke-width:1; stroke:black; " description="&lt;b&gt;C4J94_RS02245&lt;/b&gt;&lt;br&gt;acyl-CoA synthetase family protein&lt;br&gt;Location: 523753 - 522083&lt;br&gt;&lt;br&gt;&lt;b&gt;BlastP hit with JNAJGP_08745&lt;/b&gt;&lt;br&gt;Percentage identity: 91&lt;br&gt;Percentage coverage: 99&lt;br&gt;BLAST bit score: 1014&lt;br&gt;E-value: 0.0" locus_tag="C4J94_RS02245" class="clusterblast-orf" id="dummy-3_h3_3_11"  />
</g>
<g id="a3_0012"  >
<polygon points="177,90 187,90 192,85 187,80 177,80 177,90 " style="fill:#d86f15; stroke-width:1; stroke:black; " description="&lt;b&gt;C4J94_RS02240&lt;/b&gt;&lt;br&gt;glycosyltransferase family 2 protein&lt;br&gt;Location: 521924 - 521190&lt;br&gt;&lt;br&gt;&lt;b&gt;BlastP hit with JNAJGP_08750&lt;/b&gt;&lt;br&gt;Percentage identity: 93&lt;br&gt;Percentage coverage: 100&lt;br&gt;BLAST bit score: 474&lt;br&gt;E-value: 2.4e-170" locus_tag="C4J94_RS02240" class="clusterblast-orf" id="dummy-3_h3_3_12"  />
</g>
<g id="a3_0013"  >
<polygon points="192,90 205,90 210,85 205,80 192,80 192,90 " style="fill:#15d815; stroke-width:1; stroke:black; " description="&lt;b&gt;C4J94_RS02235&lt;/b&gt;&lt;br&gt;glycosyl transferase&lt;br&gt;Location: 521193 - 520258&lt;br&gt;&lt;br&gt;&lt;b&gt;BlastP hit with JNAJGP_08755&lt;/b&gt;&lt;br&gt;Percentage identity: 91&lt;br&gt;Percentage coverage: 100&lt;br&gt;BLAST bit score: 582&lt;br&gt;E-value: 8.83e-211" locus_tag="C4J94_RS02235" class="clusterblast-orf" id="dummy-3_h3_3_13"  />
</g>
<g id="a3_0014"  >
<polygon points="210,90 235,90 240,85 235,80 210,80 210,90 " style="fill:#156fd8; stroke-width:1; stroke:black; " description="&lt;b&gt;C4J94_RS02230&lt;/b&gt;&lt;br&gt;aromatic amino acid ammonia-lyase&lt;br&gt;Location: 520274 - 518733&lt;br&gt;&lt;br&gt;&lt;b&gt;BlastP hit with JNAJGP_08760&lt;/b&gt;&lt;br&gt;Percentage identity: 97&lt;br&gt;Percentage coverage: 100&lt;br&gt;BLAST bit score: 977&lt;br&gt;E-value: 0.0" locus_tag="C4J94_RS02230" class="clusterblast-orf" id="dummy-3_h3_3_14"  />
</g>
<g id="a3_0015"  >
<polygon points="240,90 243,90 248,85 243,80 240,80 240,90 " style="fill:#d815c9; stroke-width:1; stroke:black; " description="&lt;b&gt;C4J94_RS02225&lt;/b&gt;&lt;br&gt;acyl-CoA thioesterase&lt;br&gt;Location: 518740 - 518315&lt;br&gt;&lt;br&gt;&lt;b&gt;BlastP hit with JNAJGP_08765&lt;/b&gt;&lt;br&gt;Percentage identity: 98&lt;br&gt;Percentage coverage: 99&lt;br&gt;BLAST bit score: 277&lt;br&gt;E-value: 7.78e-96" locus_tag="C4J94_RS02225" class="clusterblast-orf" id="dummy-3_h3_3_15"  />
</g>
<g id="a3_0016"  >
<polygon points="249,90 257,90 262,85 257,80 249,80 249,90 " style="fill:#d88d15; stroke-width:1; stroke:black; " description="&lt;b&gt;C4J94_RS02220&lt;/b&gt;&lt;br&gt;outer membrane lipoprotein carrier protein LolA&lt;br&gt;Location: 518285 - 517635&lt;br&gt;&lt;br&gt;&lt;b&gt;BlastP hit with JNAJGP_08770&lt;/b&gt;&lt;br&gt;Percentage identity: 88&lt;br&gt;Percentage coverage: 99&lt;br&gt;BLAST bit score: 332&lt;br&gt;E-value: 1.55e-115" locus_tag="C4J94_RS02220" class="clusterblast-orf" id="dummy-3_h3_3_16"  />
</g>
<g id="a3_0017"  >
<polygon points="261,90 302,90 307,85 302,80 261,80 261,90 " style="fill:#15d833; stroke-width:1; stroke:black; " description="&lt;b&gt;C4J94_RS02215&lt;/b&gt;&lt;br&gt;MMPL family transporter&lt;br&gt;Location: 517663 - 515333&lt;br&gt;&lt;br&gt;&lt;b&gt;BlastP hit with JNAJGP_08775&lt;/b&gt;&lt;br&gt;Percentage identity: 93&lt;br&gt;Percentage coverage: 100&lt;br&gt;BLAST bit score: 1346&lt;br&gt;E-value: 0.0" locus_tag="C4J94_RS02215" class="clusterblast-orf" id="dummy-3_h3_3_17"  />
</g>
<g id="a3_0018"  >
<polygon points="308,90 327,90 332,85 327,80 308,80 308,90 " style="fill:#1551d8; stroke-width:1; stroke:black; " description="&lt;b&gt;C4J94_RS02210&lt;/b&gt;&lt;br&gt;tryptophan 7-halogenase&lt;br&gt;Location: 515299 - 514052&lt;br&gt;&lt;br&gt;&lt;b&gt;BlastP hit with JNAJGP_08780&lt;/b&gt;&lt;br&gt;Percentage identity: 92&lt;br&gt;Percentage coverage: 100&lt;br&gt;BLAST bit score: 782&lt;br&gt;E-value: 2.27e-286" locus_tag="C4J94_RS02210" class="clusterblast-orf" id="dummy-3_h3_3_18"  />
</g>
<g id="a3_0019"  >
<polygon points="332,90 342,90 347,85 342,80 332,80 332,90 " style="fill:#d815ab; stroke-width:1; stroke:black; " description="&lt;b&gt;C4J94_RS02205&lt;/b&gt;&lt;br&gt;class I SAM-dependent methyltransferase&lt;br&gt;Location: 514055 - 513321&lt;br&gt;&lt;br&gt;&lt;b&gt;BlastP hit with JNAJGP_08785&lt;/b&gt;&lt;br&gt;Percentage identity: 89&lt;br&gt;Percentage coverage: 100&lt;br&gt;BLAST bit score: 457&lt;br&gt;E-value: 1.74e-163" locus_tag="C4J94_RS02205" class="clusterblast-orf" id="dummy-3_h3_3_19"  />
</g>
<g id="a3_0020"  >
<polygon points="347,90 351,90 356,85 351,80 347,80 347,90 " style="fill:#d8ab15; stroke-width:1; stroke:black; " description="&lt;b&gt;C4J94_RS02200&lt;/b&gt;&lt;br&gt;hypothetical protein&lt;br&gt;Location: 513324 - 512842&lt;br&gt;&lt;br&gt;&lt;b&gt;BlastP hit with JNAJGP_08790&lt;/b&gt;&lt;br&gt;Percentage identity: 86&lt;br&gt;Percentage coverage: 100&lt;br&gt;BLAST bit score: 277&lt;br&gt;E-value: 4.58e-95" locus_tag="C4J94_RS02200" class="clusterblast-orf" id="dummy-3_h3_3_20"  />
</g>
<g id="a3_0021"  >
<polygon points="356,90 374,90 379,85 374,80 356,80 356,90 " style="fill:#15d851; stroke-width:1; stroke:black; " description="&lt;b&gt;C4J94_RS02195&lt;/b&gt;&lt;br&gt;beta-ketoacyl-[acyl-carrier-protein] synthase family protein&lt;br&gt;Location: 512845 - 511679&lt;br&gt;&lt;br&gt;&lt;b&gt;BlastP hit with JNAJGP_08795&lt;/b&gt;&lt;br&gt;Percentage identity: 89&lt;br&gt;Percentage coverage: 100&lt;br&gt;BLAST bit score: 686&lt;br&gt;E-value: 3.47e-249" locus_tag="C4J94_RS02195" class="clusterblast-orf" id="dummy-3_h3_3_21"  />
</g>
<g id="a3_0022"  >
<polygon points="379,90 383,90 388,85 383,80 379,80 379,90 " style="fill:#1533d8; stroke-width:1; stroke:black; " description="&lt;b&gt;C4J94_RS02190&lt;/b&gt;&lt;br&gt;hotdog family protein&lt;br&gt;Location: 511682 - 511221&lt;br&gt;&lt;br&gt;&lt;b&gt;BlastP hit with JNAJGP_08800&lt;/b&gt;&lt;br&gt;Percentage identity: 88&lt;br&gt;Percentage coverage: 99&lt;br&gt;BLAST bit score: 276&lt;br&gt;E-value: 3.86e-95" locus_tag="C4J94_RS02190" class="clusterblast-orf" id="dummy-3_h3_3_22"  />
</g>
<g id="a3_0023"  >
<polygon points="388,90 397,90 402,85 397,80 388,80 388,90 " style="fill:#d8158d; stroke-width:1; stroke:black; " description="&lt;b&gt;C4J94_RS02185&lt;/b&gt;&lt;br&gt;3-oxoacyl-ACP reductase FabG&lt;br&gt;Location: 511224 - 510496&lt;br&gt;&lt;br&gt;&lt;b&gt;BlastP hit with JNAJGP_08805&lt;/b&gt;&lt;br&gt;Percentage identity: 98&lt;br&gt;Percentage coverage: 100&lt;br&gt;BLAST bit score: 456&lt;br&gt;E-value: 3.01e-163" locus_tag="C4J94_RS02185" class="clusterblast-orf" id="dummy-3_h3_3_23"  />
</g>
<g id="a3_0024"  >
<polygon points="402,90 421,90 426,85 421,80 402,80 402,90 " style="fill:#d8c915; stroke-width:1; stroke:black; " description="&lt;b&gt;C4J94_RS02180&lt;/b&gt;&lt;br&gt;beta-ketoacyl-ACP synthase&lt;br&gt;Location: 510496 - 509270&lt;br&gt;&lt;br&gt;&lt;b&gt;BlastP hit with JNAJGP_08810&lt;/b&gt;&lt;br&gt;Percentage identity: 98&lt;br&gt;Percentage coverage: 100&lt;br&gt;BLAST bit score: 811&lt;br&gt;E-value: 2.42e-298" locus_tag="C4J94_RS02180" class="clusterblast-orf" id="dummy-3_h3_3_24"  />
</g>
<g id="a3_0025"  >
<polygon points="427,90 430,90 435,85 430,80 427,80 427,90 " style="fill:#15d86f; stroke-width:1; stroke:black; " description="&lt;b&gt;C4J94_RS02175&lt;/b&gt;&lt;br&gt;hypothetical protein&lt;br&gt;Location: 509242 - 508847&lt;br&gt;&lt;br&gt;&lt;b&gt;BlastP hit with JNAJGP_08815&lt;/b&gt;&lt;br&gt;Percentage identity: 89&lt;br&gt;Percentage coverage: 87&lt;br&gt;BLAST bit score: 219&lt;br&gt;E-value: 5.94e-73" locus_tag="C4J94_RS02175" class="clusterblast-orf" id="dummy-3_h3_3_25"  />
</g>
<g id="a3_0026"  >
<polygon points="439,85 444,80 446,80 446,90 444,90 439,85 " style="fill:#1515d8; stroke-width:1; stroke:black; " description="&lt;b&gt;C4J94_RS02170&lt;/b&gt;&lt;br&gt;type II toxin-antitoxin system PemK/MazF family toxin&lt;br&gt;Location: 508644 - 508258&lt;br&gt;&lt;br&gt;&lt;b&gt;BlastP hit with JNAJGP_08820&lt;/b&gt;&lt;br&gt;Percentage identity: 87&lt;br&gt;Percentage coverage: 100&lt;br&gt;BLAST bit score: 225&lt;br&gt;E-value: 1.1e-75" locus_tag="C4J94_RS02170" class="clusterblast-orf" id="dummy-3_h3_3_26"  />
</g>
<g id="a3_0027"  >
<polygon points="448,85 453,80 465,80 465,90 453,90 448,85 " style="fill:#d8156f; stroke-width:1; stroke:black; " description="&lt;b&gt;C4J94_RS02165&lt;/b&gt;&lt;br&gt;LysR family transcriptional regulator&lt;br&gt;Location: 508170 - 507277&lt;br&gt;&lt;br&gt;&lt;b&gt;BlastP hit with JNAJGP_08825&lt;/b&gt;&lt;br&gt;Percentage identity: 93&lt;br&gt;Percentage coverage: 99&lt;br&gt;BLAST bit score: 517&lt;br&gt;E-value: 1.7e-185" locus_tag="C4J94_RS02165" class="clusterblast-orf" id="dummy-3_h3_3_27"  />
</g>
<g id="a3_0028"  >
<polygon points="468,90 488,90 493,85 488,80 468,80 468,90 " style="fill:#c9d815; stroke-width:1; stroke:black; " description="&lt;b&gt;C4J94_RS02160&lt;/b&gt;&lt;br&gt;MFS transporter&lt;br&gt;Location: 507154 - 505880&lt;br&gt;&lt;br&gt;&lt;b&gt;BlastP hit with JNAJGP_08830&lt;/b&gt;&lt;br&gt;Percentage identity: 93&lt;br&gt;Percentage coverage: 100&lt;br&gt;BLAST bit score: 751&lt;br&gt;E-value: 1.01e-273" locus_tag="C4J94_RS02160" class="clusterblast-orf" id="dummy-3_h3_3_28"  />
</g>
<g id="a3_0029"  >
<polygon points="495,85 500,80 516,80 516,90 500,90 495,85 " style="fill:#15d88d; stroke-width:1; stroke:black; " description="&lt;b&gt;C4J94_RS02155&lt;/b&gt;&lt;br&gt;uroporphyrinogen decarboxylase&lt;br&gt;Location: 505759 - 504692&lt;br&gt;&lt;br&gt;&lt;b&gt;BlastP hit with JNAJGP_08835&lt;/b&gt;&lt;br&gt;Percentage identity: 98&lt;br&gt;Percentage coverage: 100&lt;br&gt;BLAST bit score: 704&lt;br&gt;E-value: 1.84e-257" locus_tag="C4J94_RS02155" class="clusterblast-orf" id="dummy-3_h3_3_29"  />
</g>
<g id="a3_0030"  >
<polygon points="521,85 526,80 549,80 549,90 526,90 521,85 " style="fill:#3315d8; stroke-width:1; stroke:black; " description="&lt;b&gt;C4J94_RS02150&lt;/b&gt;&lt;br&gt;FAD-dependent oxidoreductase&lt;br&gt;Location: 504448 - 503030&lt;br&gt;&lt;br&gt;&lt;b&gt;BlastP hit with JNAJGP_08840&lt;/b&gt;&lt;br&gt;Percentage identity: 100&lt;br&gt;Percentage coverage: 100&lt;br&gt;BLAST bit score: 956&lt;br&gt;E-value: 0.0" locus_tag="C4J94_RS02150" class="clusterblast-orf" id="dummy-3_h3_3_30"  />
</g>
<g id="a3_0031"  >
<polygon points="550,85 555,80 637,80 637,90 555,90 550,85 " style="fill:#d81551; stroke-width:1; stroke:black; " description="&lt;b&gt;C4J94_RS02145&lt;/b&gt;&lt;br&gt;glutamate synthase large subunit&lt;br&gt;Location: 502997 - 498552&lt;br&gt;&lt;br&gt;&lt;b&gt;BlastP hit with JNAJGP_08845&lt;/b&gt;&lt;br&gt;Percentage identity: 98&lt;br&gt;Percentage coverage: 100&lt;br&gt;BLAST bit score: 2850&lt;br&gt;E-value: 0.0" locus_tag="C4J94_RS02145" class="clusterblast-orf" id="dummy-3_h3_3_31"  />
</g>
<g id="a3_0032"  >
<polygon points="644,85 649,80 675,80 675,90 649,90 644,85 " style="fill:#abd815; stroke-width:1; stroke:black; " description="&lt;b&gt;C4J94_RS02135&lt;/b&gt;&lt;br&gt;SPOR domain-containing protein&lt;br&gt;Location: 498198 - 496642&lt;br&gt;&lt;br&gt;&lt;b&gt;BlastP hit with JNAJGP_08850&lt;/b&gt;&lt;br&gt;Percentage identity: 94&lt;br&gt;Percentage coverage: 100&lt;br&gt;BLAST bit score: 843&lt;br&gt;E-value: 6.1e-307" locus_tag="C4J94_RS02135" class="clusterblast-orf" id="dummy-3_h3_3_32"  />
</g>
<g id="a3_0033"  >
<polygon points="675,85 680,80 697,80 697,90 680,90 675,85 " style="fill:#15d8ab; stroke-width:1; stroke:black; " description="&lt;b&gt;C4J94_RS02130&lt;/b&gt;&lt;br&gt;3-dehydroquinate synthase&lt;br&gt;Location: 496632 - 495532&lt;br&gt;&lt;br&gt;&lt;b&gt;BlastP hit with JNAJGP_08855&lt;/b&gt;&lt;br&gt;Percentage identity: 98&lt;br&gt;Percentage coverage: 100&lt;br&gt;BLAST bit score: 709&lt;br&gt;E-value: 2.24e-259" locus_tag="C4J94_RS02130" class="clusterblast-orf" id="dummy-3_h3_3_33"  />
</g>
<g id="a3_0034"  >
<polygon points="699,85 704,80 709,80 709,90 704,90 699,85 " style="fill:#5115d8; stroke-width:1; stroke:black; " description="&lt;b&gt;C4J94_RS02125&lt;/b&gt;&lt;br&gt;shikimate kinase AroK&lt;br&gt;Location: 495406 - 494888&lt;br&gt;&lt;br&gt;&lt;b&gt;BlastP hit with JNAJGP_08860&lt;/b&gt;&lt;br&gt;Percentage identity: 100&lt;br&gt;Percentage coverage: 100&lt;br&gt;BLAST bit score: 320&lt;br&gt;E-value: 9.35e-112" locus_tag="C4J94_RS02125" class="clusterblast-orf" id="dummy-3_h3_3_34"  />
</g>
<g id="a3_0035"  >
<polygon points="709,85 714,80 735,80 735,90 714,90 709,85 " style="fill:#d81533; stroke-width:1; stroke:black; " description="&lt;b&gt;C4J94_RS02120&lt;/b&gt;&lt;br&gt;type IV pilus secretin PilQ family protein&lt;br&gt;Location: 494883 - 493558&lt;br&gt;&lt;br&gt;&lt;b&gt;BlastP hit with JNAJGP_08865&lt;/b&gt;&lt;br&gt;Percentage identity: 91&lt;br&gt;Percentage coverage: 96&lt;br&gt;BLAST bit score: 770&lt;br&gt;E-value: 1.92e-280" locus_tag="C4J94_RS02120" class="clusterblast-orf" id="dummy-3_h3_3_35"  />
</g>
<g id="a3_0036"  >
<polygon points="737,85 742,80 756,80 756,90 742,90 737,85 " style="fill:#8dd815; stroke-width:1; stroke:black; " description="&lt;b&gt;C4J94_RS02115&lt;/b&gt;&lt;br&gt;pilus assembly protein PilP&lt;br&gt;Location: 493488 - 492517&lt;br&gt;&lt;br&gt;&lt;b&gt;BlastP hit with JNAJGP_08870&lt;/b&gt;&lt;br&gt;Percentage identity: 64&lt;br&gt;Percentage coverage: 100&lt;br&gt;BLAST bit score: 395&lt;br&gt;E-value: 1.46e-136" locus_tag="C4J94_RS02115" class="clusterblast-orf" id="dummy-3_h3_3_36"  />
</g>
<g id="a3_0037"  >
<polygon points="756,85 761,80 767,80 767,90 761,90 756,85 " style="fill:#15d8c9; stroke-width:1; stroke:black; " description="&lt;b&gt;C4J94_RS02110&lt;/b&gt;&lt;br&gt;PilN domain-containing protein&lt;br&gt;Location: 492520 - 491969&lt;br&gt;&lt;br&gt;&lt;b&gt;BlastP hit with JNAJGP_08875&lt;/b&gt;&lt;br&gt;Percentage identity: 80&lt;br&gt;Percentage coverage: 99&lt;br&gt;BLAST bit score: 268&lt;br&gt;E-value: 5.9e-91" locus_tag="C4J94_RS02110" class="clusterblast-orf" id="dummy-3_h3_3_37"  />
</g>
<g id="a3_0038"  >
<polygon points="767,85 772,80 780,80 780,90 772,90 767,85 " style="fill:#6f15d8; stroke-width:1; stroke:black; " description="&lt;b&gt;C4J94_RS02105&lt;/b&gt;&lt;br&gt;type IV pilus assembly protein PilM&lt;br&gt;Location: 491972 - 491316&lt;br&gt;&lt;br&gt;&lt;b&gt;BlastP hit with JNAJGP_08880&lt;/b&gt;&lt;br&gt;Percentage identity: 71&lt;br&gt;Percentage coverage: 100&lt;br&gt;BLAST bit score: 291&lt;br&gt;E-value: 7.43e-99" locus_tag="C4J94_RS02105" class="clusterblast-orf" id="dummy-3_h3_3_38"  />
</g>
</svg>
