<svg xmlns="http://www.w3.org/2000/svg" xmlns:xlink="http://www.w3.org/1999/xlink" version="1.1" x="0" y="0" height="230" width="800" viewBox="0 0 800 230" preserveAspectRatio="none"  >
<g label="Query sequence" class="clusterblast-cluster"  >
<text x="5" y="20" class="clusterblast-acc"  >
Query sequence</text>
<line x1="10" y1="35" x2="778.0" y2="35" style="stroke-width:1; stroke:grey; "  />
<polygon points="0,40 32,40 37,35 32,30 0,30 0,40 " style="fill:#d81515; stroke-width:1; stroke:black; " description="&lt;b&gt;JNAJGP_24070&lt;/b&gt;&lt;br&gt;phage tail protein&lt;br&gt;Location: 5054663 - 5058125" locus_tag="JNAJGP_24070" class="clusterblast-orf" id="dummy-9_q0_0_all"  />
<polygon points="40,40 42,40 47,35 42,30 40,30 40,40 " style="fill:#5cd815; stroke-width:1; stroke:black; " description="&lt;b&gt;JNAJGP_24075&lt;/b&gt;&lt;br&gt;Phage tail protein&lt;br&gt;Location: 5058471 - 5059101" locus_tag="JNAJGP_24075" class="clusterblast-orf" id="dummy-9_q1_0_all"  />
<polygon points="48,40 51,40 56,35 51,30 48,30 48,40 " style="fill:#15c7d8; stroke-width:1; stroke:black; " description="&lt;b&gt;JNAJGP_24080&lt;/b&gt;&lt;br&gt;Phage tail protein&lt;br&gt;Location: 5059159 - 5059927" locus_tag="JNAJGP_24080" class="clusterblast-orf" id="dummy-9_q2_0_all"  />
<polygon points="56,40 59,35 56,30 56,40 " style="fill:white; stroke-width:1; stroke:black; " description="&lt;b&gt;JNAJGP_24085&lt;/b&gt;&lt;br&gt;hypothetical protein&lt;br&gt;Location: 5059926 - 5060217" locus_tag="JNAJGP_24085" class="clusterblast-orf" id="dummy-9_q3_0_all"  />
<polygon points="59,40 62,35 59,30 59,40 " style="fill:white; stroke-width:1; stroke:black; " description="&lt;b&gt;JNAJGP_24090&lt;/b&gt;&lt;br&gt;Phage tail protein&lt;br&gt;Location: 5060213 - 5060465" locus_tag="JNAJGP_24090" class="clusterblast-orf" id="dummy-9_q4_0_all"  />
<polygon points="62,40 63,40 68,35 63,30 62,30 62,40 " style="fill:#8015d8; stroke-width:1; stroke:black; " description="&lt;b&gt;JNAJGP_24095&lt;/b&gt;&lt;br&gt;Chitinase&lt;br&gt;Location: 5060520 - 5061054" locus_tag="JNAJGP_24095" class="clusterblast-orf" id="dummy-9_q5_0_all"  />
<polygon points="68,40 69,40 74,35 69,30 68,30 68,40 " style="fill:#d83915; stroke-width:1; stroke:black; " description="&lt;b&gt;JNAJGP_24100&lt;/b&gt;&lt;br&gt;Lysozyme&lt;br&gt;Location: 5061050 - 5061620" locus_tag="JNAJGP_24100" class="clusterblast-orf" id="dummy-9_q6_0_all"  />
<polygon points="73,35 76,30 76,40 73,35 " style="fill:white; stroke-width:1; stroke:black; " description="&lt;b&gt;JNAJGP_24105&lt;/b&gt;&lt;br&gt;NIPSNAP domain-containing protein&lt;br&gt;Location: 5061579 - 5061843" locus_tag="JNAJGP_24105" class="clusterblast-orf" id="dummy-9_q7_0_all"  />
<polygon points="77,35 81,30 81,40 77,35 " style="fill:#39d815; stroke-width:1; stroke:black; " description="&lt;b&gt;JNAJGP_24110&lt;/b&gt;&lt;br&gt;Lipoprotein&lt;br&gt;Location: 5061930 - 5062311" locus_tag="JNAJGP_24110" class="clusterblast-orf" id="dummy-9_q8_0_all"  />
<polygon points="86,40 91,40 96,35 91,30 86,30 86,40 " style="fill:#15a3d8; stroke-width:1; stroke:black; " description="&lt;b&gt;JNAJGP_24120&lt;/b&gt;&lt;br&gt;LysR family transcriptional regulator&lt;br&gt;Location: 5062760 - 5063663" locus_tag="JNAJGP_24120" class="clusterblast-orf" id="dummy-9_q9_0_all"  />
<polygon points="96,35 101,30 106,30 106,40 101,40 96,35 " style="fill:#a315d8; stroke-width:1; stroke:black; " description="&lt;b&gt;JNAJGP_24125&lt;/b&gt;&lt;br&gt;Cupin&lt;br&gt;Location: 5063700 - 5064642" locus_tag="JNAJGP_24125" class="clusterblast-orf" id="dummy-9_q10_0_all"  />
<polygon points="108,35 111,30 111,40 108,35 " style="fill:#d85c15; stroke-width:1; stroke:black; " description="&lt;b&gt;JNAJGP_24130&lt;/b&gt;&lt;br&gt;hypothetical protein&lt;br&gt;Location: 5064843 - 5065122" locus_tag="JNAJGP_24130" class="clusterblast-orf" id="dummy-9_q11_0_all"  />
<polygon points="113,35 118,30 136,30 136,40 118,40 113,35 " style="fill:#15d815; stroke-width:1; stroke:black; " description="&lt;b&gt;JNAJGP_24135&lt;/b&gt;&lt;br&gt;Ferric siderophore receptor&lt;br&gt;Location: 5065316 - 5067488" locus_tag="JNAJGP_24135" class="clusterblast-orf" id="dummy-9_q12_0_all"  />
<polygon points="138,35 143,30 148,30 148,40 143,40 138,35 " style="fill:#1580d8; stroke-width:1; stroke:black; " description="&lt;b&gt;JNAJGP_24140&lt;/b&gt;&lt;br&gt;Acyltransferase MbtK/IucB-like conserved domain-containing protein&lt;br&gt;Location: 5067586 - 5068606" locus_tag="JNAJGP_24140" class="clusterblast-orf" id="dummy-9_q13_0_all"  />
<polygon points="150,35 155,30 171,30 171,40 155,40 150,35 " style="fill:#c715d8; stroke-width:1; stroke:black; " description="&lt;b&gt;JNAJGP_24145&lt;/b&gt;&lt;br&gt;Fe(3+)-hydroxamate ABC transporter permease FhuB&lt;br&gt;Location: 5068765 - 5070754" locus_tag="JNAJGP_24145" class="clusterblast-orf" id="dummy-9_q14_0_all"  />
<polygon points="171,35 176,30 181,30 181,40 176,40 171,35 " style="fill:#d88015; stroke-width:1; stroke:black; " description="&lt;b&gt;JNAJGP_24150&lt;/b&gt;&lt;br&gt;Periplasmic binding protein&lt;br&gt;Location: 5070746 - 5071658" locus_tag="JNAJGP_24150" class="clusterblast-orf" id="dummy-9_q15_0_all"  />
<polygon points="183,40 196,40 201,35 196,30 183,30 183,40 " style="fill:#15d839; stroke-width:1; stroke:black; " description="&lt;b&gt;JNAJGP_24155&lt;/b&gt;&lt;br&gt;Putative ATP-binding cassette transporter&lt;br&gt;Location: 5071857 - 5073504" locus_tag="JNAJGP_24155" class="clusterblast-orf" id="dummy-9_q16_0_all"  />
<polygon points="203,40 205,40 210,35 205,30 203,30 203,40 " style="fill:#155cd8; stroke-width:1; stroke:black; " description="&lt;b&gt;JNAJGP_24160&lt;/b&gt;&lt;br&gt;Thioesterase&lt;br&gt;Location: 5073678 - 5074422" locus_tag="JNAJGP_24160" class="clusterblast-orf" id="dummy-9_q17_0_all"  />
<polygon points="211,40 216,40 221,35 216,30 211,30 211,40 " style="fill:#d815c7; stroke-width:1; stroke:black; " description="&lt;b&gt;JNAJGP_24165&lt;/b&gt;&lt;br&gt;TauD/TfdA-like domain-containing protein&lt;br&gt;Location: 5074461 - 5075442" locus_tag="JNAJGP_24165" class="clusterblast-orf" id="dummy-9_q18_0_all"  />
<polygon points="222,40 265,40 270,35 265,30 222,30 222,40 " style="fill:#d815c7; stroke-width:1; stroke:black; " description="&lt;b&gt;JNAJGP_24170&lt;/b&gt;&lt;br&gt;Non ribosomal peptide synthase&lt;br&gt;Location: 5075492 - 5079956" locus_tag="JNAJGP_24170" class="clusterblast-orf" id="dummy-9_q19_0_all"  />
<polygon points="270,40 298,40 303,35 298,30 270,30 270,40 " style="fill:#d815c7; stroke-width:1; stroke:black; " description="&lt;b&gt;JNAJGP_24175&lt;/b&gt;&lt;br&gt;Amino acid adenylation&lt;br&gt;Location: 5079967 - 5083114" locus_tag="JNAJGP_24175" class="clusterblast-orf" id="dummy-9_q20_0_all"  />
<polygon points="304,40 381,40 386,35 381,30 304,30 304,40 " style="fill:#d815c7; stroke-width:1; stroke:black; " description="&lt;b&gt;JNAJGP_24180&lt;/b&gt;&lt;br&gt;Carrier domain-containing protein&lt;br&gt;Location: 5083162 - 5090896" locus_tag="JNAJGP_24180" class="clusterblast-orf" id="dummy-9_q21_0_all"  />
<polygon points="386,40 513,40 518,35 513,30 386,30 386,40 " style="fill:#d815c7; stroke-width:1; stroke:black; " description="&lt;b&gt;JNAJGP_24185&lt;/b&gt;&lt;br&gt;non-ribosomal peptide synthetase&lt;br&gt;Location: 5090892 - 5103210" locus_tag="JNAJGP_24185" class="clusterblast-orf" id="dummy-9_q22_0_all"  />
<polygon points="518,40 556,40 561,35 556,30 518,30 518,40 " style="fill:#d815c7; stroke-width:1; stroke:black; " description="&lt;b&gt;JNAJGP_24190&lt;/b&gt;&lt;br&gt;Non-ribosomal peptide synthetase&lt;br&gt;Location: 5103211 - 5107270" locus_tag="JNAJGP_24190" class="clusterblast-orf" id="dummy-9_q23_0_all"  />
<polygon points="562,40 571,40 576,35 571,30 562,30 562,40 " style="fill:#d8a315; stroke-width:1; stroke:black; " description="&lt;b&gt;JNAJGP_24195&lt;/b&gt;&lt;br&gt;L-ornithine 5-monooxygenase&lt;br&gt;Location: 5107342 - 5108698" locus_tag="JNAJGP_24195" class="clusterblast-orf" id="dummy-9_q24_0_all"  />
<polygon points="577,40 580,40 585,35 580,30 577,30 577,40 " style="fill:#15d85c; stroke-width:1; stroke:black; " description="&lt;b&gt;JNAJGP_24200&lt;/b&gt;&lt;br&gt;siderophore-iron reductase FhuF&lt;br&gt;Location: 5108789 - 5109545" locus_tag="JNAJGP_24200" class="clusterblast-orf" id="dummy-9_q25_0_all"  />
<polygon points="586,35 591,30 594,30 594,40 591,40 586,35 " style="fill:#1539d8; stroke-width:1; stroke:black; " description="&lt;b&gt;JNAJGP_24205&lt;/b&gt;&lt;br&gt;Iron-hydroxamate transporter ATP-binding subunit&lt;br&gt;Location: 5109585 - 5110353" locus_tag="JNAJGP_24205" class="clusterblast-orf" id="dummy-9_q26_0_all"  />
<polygon points="596,35 599,30 599,40 596,35 " style="fill:white; stroke-width:1; stroke:black; " description="&lt;b&gt;JNAJGP_24210&lt;/b&gt;&lt;br&gt;hypothetical protein&lt;br&gt;Location: 5110578 - 5110803" locus_tag="JNAJGP_24210" class="clusterblast-orf" id="dummy-9_q27_0_all"  />
<polygon points="601,40 603,40 608,35 603,30 601,30 601,40 " style="fill:#d815a3; stroke-width:1; stroke:black; " description="&lt;b&gt;JNAJGP_24215&lt;/b&gt;&lt;br&gt;Lipoprotein&lt;br&gt;Location: 5110983 - 5111682" locus_tag="JNAJGP_24215" class="clusterblast-orf" id="dummy-9_q28_0_all"  />
<polygon points="609,40 612,35 609,30 609,40 " style="fill:#d8c715; stroke-width:1; stroke:black; " description="&lt;b&gt;JNAJGP_24220&lt;/b&gt;&lt;br&gt;EAL domain-containing protein&lt;br&gt;Location: 5111807 - 5112086" locus_tag="JNAJGP_24220" class="clusterblast-orf" id="dummy-9_q29_0_all"  />
<polygon points="613,40 622,40 627,35 622,30 613,30 613,40 " style="fill:#15d880; stroke-width:1; stroke:black; " description="&lt;b&gt;JNAJGP_24225&lt;/b&gt;&lt;br&gt;Methyl-accepting chemotaxis protein (2 PAS,MCP domains)&lt;br&gt;Location: 5112170 - 5113484" locus_tag="JNAJGP_24225" class="clusterblast-orf" id="dummy-9_q30_0_all"  />
<polygon points="630,40 647,40 652,35 647,30 630,30 630,40 " style="fill:#1515d8; stroke-width:1; stroke:black; " description="&lt;b&gt;JNAJGP_24230&lt;/b&gt;&lt;br&gt;Outer membrane siderophore receptor&lt;br&gt;Location: 5113706 - 5115821" locus_tag="JNAJGP_24230" class="clusterblast-orf" id="dummy-9_q31_0_all"  />
<polygon points="652,35 657,30 672,30 672,40 657,40 652,35 " style="fill:#d81580; stroke-width:1; stroke:black; " description="&lt;b&gt;JNAJGP_24235&lt;/b&gt;&lt;br&gt;Sigma-54 factor interaction domain-containing protein&lt;br&gt;Location: 5115830 - 5117648" locus_tag="JNAJGP_24235" class="clusterblast-orf" id="dummy-9_q32_0_all"  />
<polygon points="675,40 681,40 686,35 681,30 675,30 675,40 " style="fill:#c7d815; stroke-width:1; stroke:black; " description="&lt;b&gt;JNAJGP_24240&lt;/b&gt;&lt;br&gt;sn-glycerol-3-phosphate import ATP-binding protein UgpC&lt;br&gt;Location: 5117939 - 5119034" locus_tag="JNAJGP_24240" class="clusterblast-orf" id="dummy-9_q33_0_all"  />
<polygon points="686,40 693,40 698,35 693,30 686,30 686,40 " style="fill:#15d8a3; stroke-width:1; stroke:black; " description="&lt;b&gt;JNAJGP_24245&lt;/b&gt;&lt;br&gt;ABC transporter ATP-binding protein&lt;br&gt;Location: 5119033 - 5120131" locus_tag="JNAJGP_24245" class="clusterblast-orf" id="dummy-9_q34_0_all"  />
<polygon points="698,40 702,40 707,35 702,30 698,30 698,40 " style="fill:#3915d8; stroke-width:1; stroke:black; " description="&lt;b&gt;JNAJGP_24250&lt;/b&gt;&lt;br&gt;ABC-type sugar transport system, permease component&lt;br&gt;Location: 5120127 - 5120994" locus_tag="JNAJGP_24250" class="clusterblast-orf" id="dummy-9_q35_0_all"  />
<polygon points="708,40 711,40 716,35 711,30 708,30 708,40 " style="fill:#d8155c; stroke-width:1; stroke:black; " description="&lt;b&gt;JNAJGP_24255&lt;/b&gt;&lt;br&gt;ABC-type glycerol-3-phosphate transport system, permease component&lt;br&gt;Location: 5121004 - 5121805" locus_tag="JNAJGP_24255" class="clusterblast-orf" id="dummy-9_q36_0_all"  />
<polygon points="716,40 719,35 716,30 716,40 " style="fill:#a3d815; stroke-width:1; stroke:black; " description="&lt;b&gt;JNAJGP_24260&lt;/b&gt;&lt;br&gt;Small integral membrane protein&lt;br&gt;Location: 5121815 - 5122088" locus_tag="JNAJGP_24260" class="clusterblast-orf" id="dummy-9_q37_0_all"  />
<polygon points="719,40 733,40 738,35 733,30 719,30 719,40 " style="fill:#15d8c7; stroke-width:1; stroke:black; " description="&lt;b&gt;JNAJGP_24265&lt;/b&gt;&lt;br&gt;ABC transporter substrate-binding protein&lt;br&gt;Location: 5122120 - 5123863" locus_tag="JNAJGP_24265" class="clusterblast-orf" id="dummy-9_q38_0_all"  />
<polygon points="743,40 752,40 757,35 752,30 743,30 743,40 " style="fill:#5c15d8; stroke-width:1; stroke:black; " description="&lt;b&gt;JNAJGP_24270&lt;/b&gt;&lt;br&gt;Iron-containing redox enzyme family protein&lt;br&gt;Location: 5124300 - 5125680" locus_tag="JNAJGP_24270" class="clusterblast-orf" id="dummy-9_q39_0_all"  />
<polygon points="758,40 763,40 768,35 763,30 758,30 758,40 " style="fill:#d81539; stroke-width:1; stroke:black; " description="&lt;b&gt;JNAJGP_24275&lt;/b&gt;&lt;br&gt;Release factor glutamine methyltransferase&lt;br&gt;Location: 5125690 - 5126635" locus_tag="JNAJGP_24275" class="clusterblast-orf" id="dummy-9_q40_0_all"  />
<polygon points="768,40 775,40 780,35 775,30 768,30 768,40 " style="fill:#80d815; stroke-width:1; stroke:black; " description="&lt;b&gt;JNAJGP_24280&lt;/b&gt;&lt;br&gt;carboxylate-amine ligase&lt;br&gt;Location: 5126641 - 5127760" locus_tag="JNAJGP_24280" class="clusterblast-orf" id="dummy-9_q41_0_all"  />
</g>
<g label="NZ_MSDE01000016" description="NZ_MSDE01000016 (358436-432236): Pseudomonas fluorescens strain AH4 PF AH4 co... (90% of genes show similarity), NRP-metallophore,NRPS" class="clusterblast-cluster"  >
<text x="5" y="70" class="clusterblast-acc"  >
<a xlink:href="https://antismash-db.secondarymetabolites.org/area?record=NZ_MSDE01000016&amp;start=358436&amp;end=432236" target="_blank">NZ_MSDE01000016 (358436-432236)</a>: Pseudomonas fluorescens strain AH4 PF AH4 co... (90% of genes show similarity), NRP-metallophore,NRPS</text>
<line x1="10" y1="85" x2="778.0" y2="85" style="stroke-width:1; stroke:grey; "  />
</g>
<g id="a9_000"  >
<polygon points="17,90 18,90 23,85 18,80 17,80 17,90 " style="fill:#5cd815; stroke-width:1; stroke:black; " description="&lt;b&gt;BFW86_RS16770&lt;/b&gt;&lt;br&gt;hypothetical protein&lt;br&gt;Location: 429269 - 428631&lt;br&gt;&lt;br&gt;&lt;b&gt;BlastP hit with JNAJGP_24075&lt;/b&gt;&lt;br&gt;Percentage identity: 52&lt;br&gt;Percentage coverage: 102&lt;br&gt;BLAST bit score: 224&lt;br&gt;E-value: 1.77e-72" locus_tag="BFW86_RS16770" class="clusterblast-orf" id="dummy-9_h9_1_0"  />
</g>
<g id="a9_001"  >
<polygon points="24,90 27,90 32,85 27,80 24,80 24,90 " style="fill:#15c7d8; stroke-width:1; stroke:black; " description="&lt;b&gt;BFW86_RS16765&lt;/b&gt;&lt;br&gt;hypothetical protein&lt;br&gt;Location: 428569 - 427832&lt;br&gt;&lt;br&gt;&lt;b&gt;BlastP hit with JNAJGP_24080&lt;/b&gt;&lt;br&gt;Percentage identity: 89&lt;br&gt;Percentage coverage: 49&lt;br&gt;BLAST bit score: 209&lt;br&gt;E-value: 2.15e-65" locus_tag="BFW86_RS16765" class="clusterblast-orf" id="dummy-9_h9_1_1"  />
</g>
<g id="a9_002"  >
<polygon points="32,90 36,85 32,80 32,90 " style="fill:white; stroke-width:1; stroke:black; " description="&lt;b&gt;BFW86_RS16760&lt;/b&gt;&lt;br&gt;hypothetical protein&lt;br&gt;Location: 427829 - 427446" locus_tag="BFW86_RS16760" class="clusterblast-orf" id="dummy-9_h9_1_2"  />
</g>
<g id="a9_003"  >
<polygon points="37,90 37,90 42,85 37,80 37,80 37,90 " style="fill:#8015d8; stroke-width:1; stroke:black; " description="&lt;b&gt;BFW86_RS16755&lt;/b&gt;&lt;br&gt;glycoside hydrolase family 19 protein&lt;br&gt;Location: 427389 - 426856&lt;br&gt;&lt;br&gt;&lt;b&gt;BlastP hit with JNAJGP_24095&lt;/b&gt;&lt;br&gt;Percentage identity: 96&lt;br&gt;Percentage coverage: 100&lt;br&gt;BLAST bit score: 342&lt;br&gt;E-value: 4.01e-120" locus_tag="BFW86_RS16755" class="clusterblast-orf" id="dummy-9_h9_1_3"  />
</g>
<g id="a9_004"  >
<polygon points="42,90 43,90 48,85 43,80 42,80 42,90 " style="fill:#d83915; stroke-width:1; stroke:black; " description="&lt;b&gt;BFW86_RS16750&lt;/b&gt;&lt;br&gt;lysis system i-spanin subunit Rz&lt;br&gt;Location: 426859 - 426344&lt;br&gt;&lt;br&gt;&lt;b&gt;BlastP hit with JNAJGP_24100&lt;/b&gt;&lt;br&gt;Percentage identity: 82&lt;br&gt;Percentage coverage: 89&lt;br&gt;BLAST bit score: 246&lt;br&gt;E-value: 2.28e-82" locus_tag="BFW86_RS16750" class="clusterblast-orf" id="dummy-9_h9_1_4"  />
</g>
<g id="a9_005"  >
<polygon points="48,85 53,80 54,80 54,90 53,90 48,85 " style="fill:white; stroke-width:1; stroke:black; " description="&lt;b&gt;BFW86_RS16745&lt;/b&gt;&lt;br&gt;hypothetical protein&lt;br&gt;Location: 426340 - 425747" locus_tag="BFW86_RS16745" class="clusterblast-orf" id="dummy-9_h9_1_5"  />
</g>
<g id="a9_006"  >
<polygon points="55,85 60,80 62,80 62,90 60,90 55,85 " style="fill:white; stroke-width:1; stroke:black; " description="&lt;b&gt;BFW86_RS16740&lt;/b&gt;&lt;br&gt;SOS response-associated peptidase family protein&lt;br&gt;Location: 425708 - 425031" locus_tag="BFW86_RS16740" class="clusterblast-orf" id="dummy-9_h9_1_6"  />
</g>
<g id="a9_007"  >
<polygon points="63,90 65,85 63,80 63,90 " style="fill:white; stroke-width:1; stroke:black; " description="&lt;b&gt;BFW86_RS16735&lt;/b&gt;&lt;br&gt;hypothetical protein&lt;br&gt;Location: 424947 - 424738" locus_tag="BFW86_RS16735" class="clusterblast-orf" id="dummy-9_h9_1_7"  />
</g>
<g id="a9_008"  >
<polygon points="65,85 69,80 69,90 65,85 " style="fill:#39d815; stroke-width:1; stroke:black; " description="&lt;b&gt;BFW86_RS16730&lt;/b&gt;&lt;br&gt;hypothetical protein&lt;br&gt;Location: 424746 - 424387&lt;br&gt;&lt;br&gt;&lt;b&gt;BlastP hit with JNAJGP_24110&lt;/b&gt;&lt;br&gt;Percentage identity: 66&lt;br&gt;Percentage coverage: 90&lt;br&gt;BLAST bit score: 148&lt;br&gt;E-value: 3.35e-45" locus_tag="BFW86_RS16730" class="clusterblast-orf" id="dummy-9_h9_1_8"  />
</g>
<g id="a9_009"  >
<polygon points="73,90 78,90 83,85 78,80 73,80 73,90 " style="fill:#15a3d8; stroke-width:1; stroke:black; " description="&lt;b&gt;BFW86_RS16725&lt;/b&gt;&lt;br&gt;LysR family transcriptional regulator&lt;br&gt;Location: 423937 - 423035&lt;br&gt;&lt;br&gt;&lt;b&gt;BlastP hit with JNAJGP_24120&lt;/b&gt;&lt;br&gt;Percentage identity: 99&lt;br&gt;Percentage coverage: 100&lt;br&gt;BLAST bit score: 592&lt;br&gt;E-value: 2.88e-215" locus_tag="BFW86_RS16725" class="clusterblast-orf" id="dummy-9_h9_1_9"  />
</g>
<g id="a9_0010"  >
<polygon points="84,85 89,80 94,80 94,90 89,90 84,85 " style="fill:#a315d8; stroke-width:1; stroke:black; " description="&lt;b&gt;BFW86_RS16720&lt;/b&gt;&lt;br&gt;cupin&lt;br&gt;Location: 422994 - 422053&lt;br&gt;&lt;br&gt;&lt;b&gt;BlastP hit with JNAJGP_24125&lt;/b&gt;&lt;br&gt;Percentage identity: 99&lt;br&gt;Percentage coverage: 100&lt;br&gt;BLAST bit score: 640&lt;br&gt;E-value: 6.95e-234" locus_tag="BFW86_RS16720" class="clusterblast-orf" id="dummy-9_h9_1_10"  />
</g>
<g id="a9_0011"  >
<polygon points="96,85 99,80 99,90 96,85 " style="fill:#d85c15; stroke-width:1; stroke:black; " description="&lt;b&gt;BFW86_RS29820&lt;/b&gt;&lt;br&gt;hypothetical protein&lt;br&gt;Location: 421852 - 421574&lt;br&gt;&lt;br&gt;&lt;b&gt;BlastP hit with JNAJGP_24130&lt;/b&gt;&lt;br&gt;Percentage identity: 99&lt;br&gt;Percentage coverage: 100&lt;br&gt;BLAST bit score: 176&lt;br&gt;E-value: 1.94e-57" locus_tag="BFW86_RS29820" class="clusterblast-orf" id="dummy-9_h9_1_11"  />
</g>
<g id="a9_0012"  >
<polygon points="101,85 106,80 124,80 124,90 106,90 101,85 " style="fill:#15d815; stroke-width:1; stroke:black; " description="&lt;b&gt;BFW86_RS16715&lt;/b&gt;&lt;br&gt;TonB-dependent siderophore receptor&lt;br&gt;Location: 421379 - 419208&lt;br&gt;&lt;br&gt;&lt;b&gt;BlastP hit with JNAJGP_24135&lt;/b&gt;&lt;br&gt;Percentage identity: 99&lt;br&gt;Percentage coverage: 100&lt;br&gt;BLAST bit score: 1437&lt;br&gt;E-value: 0.0" locus_tag="BFW86_RS16715" class="clusterblast-orf" id="dummy-9_h9_1_12"  />
</g>
<g id="a9_0013"  >
<polygon points="125,85 130,80 136,80 136,90 130,90 125,85 " style="fill:#1580d8; stroke-width:1; stroke:black; " description="&lt;b&gt;BFW86_RS16710&lt;/b&gt;&lt;br&gt;acetyltransferase&lt;br&gt;Location: 419109 - 418090&lt;br&gt;&lt;br&gt;&lt;b&gt;BlastP hit with JNAJGP_24140&lt;/b&gt;&lt;br&gt;Percentage identity: 100&lt;br&gt;Percentage coverage: 100&lt;br&gt;BLAST bit score: 712&lt;br&gt;E-value: 3.3e-261" locus_tag="BFW86_RS16710" class="clusterblast-orf" id="dummy-9_h9_1_13"  />
</g>
<g id="a9_0014"  >
<polygon points="138,85 143,80 159,80 159,90 143,90 138,85 " style="fill:#c715d8; stroke-width:1; stroke:black; " description="&lt;b&gt;BFW86_RS16705&lt;/b&gt;&lt;br&gt;Fe(3+)-hydroxamate ABC transporter permease FhuB&lt;br&gt;Location: 417930 - 415942&lt;br&gt;&lt;br&gt;&lt;b&gt;BlastP hit with JNAJGP_24145&lt;/b&gt;&lt;br&gt;Percentage identity: 100&lt;br&gt;Percentage coverage: 100&lt;br&gt;BLAST bit score: 1187&lt;br&gt;E-value: 0.0" locus_tag="BFW86_RS16705" class="clusterblast-orf" id="dummy-9_h9_1_14"  />
</g>
<g id="a9_0015"  >
<polygon points="159,85 164,80 168,80 168,90 164,90 159,85 " style="fill:#d88015; stroke-width:1; stroke:black; " description="&lt;b&gt;BFW86_RS16700&lt;/b&gt;&lt;br&gt;ABC transporter substrate-binding protein&lt;br&gt;Location: 415949 - 415038&lt;br&gt;&lt;br&gt;&lt;b&gt;BlastP hit with JNAJGP_24150&lt;/b&gt;&lt;br&gt;Percentage identity: 100&lt;br&gt;Percentage coverage: 100&lt;br&gt;BLAST bit score: 591&lt;br&gt;E-value: 1.04e-214" locus_tag="BFW86_RS16700" class="clusterblast-orf" id="dummy-9_h9_1_15"  />
</g>
<g id="a9_0016"  >
<polygon points="171,90 183,90 188,85 183,80 171,80 171,90 " style="fill:#15d839; stroke-width:1; stroke:black; " description="&lt;b&gt;BFW86_RS16695&lt;/b&gt;&lt;br&gt;cyclic peptide export ABC transporter&lt;br&gt;Location: 414838 - 413192&lt;br&gt;&lt;br&gt;&lt;b&gt;BlastP hit with JNAJGP_24155&lt;/b&gt;&lt;br&gt;Percentage identity: 100&lt;br&gt;Percentage coverage: 100&lt;br&gt;BLAST bit score: 1036&lt;br&gt;E-value: 0.0" locus_tag="BFW86_RS16695" class="clusterblast-orf" id="dummy-9_h9_1_16"  />
</g>
<g id="a9_0017"  >
<polygon points="190,90 193,90 198,85 193,80 190,80 190,90 " style="fill:#155cd8; stroke-width:1; stroke:black; " description="&lt;b&gt;BFW86_RS16690&lt;/b&gt;&lt;br&gt;alpha/beta fold hydrolase&lt;br&gt;Location: 413019 - 412276&lt;br&gt;&lt;br&gt;&lt;b&gt;BlastP hit with JNAJGP_24160&lt;/b&gt;&lt;br&gt;Percentage identity: 100&lt;br&gt;Percentage coverage: 100&lt;br&gt;BLAST bit score: 483&lt;br&gt;E-value: 6.64e-174" locus_tag="BFW86_RS16690" class="clusterblast-orf" id="dummy-9_h9_1_17"  />
</g>
<g id="a9_0018"  >
<polygon points="198,90 204,90 209,85 204,80 198,80 198,90 " style="fill:#d815c7; stroke-width:1; stroke:black; " description="&lt;b&gt;BFW86_RS16685&lt;/b&gt;&lt;br&gt;TauD/TfdA family dioxygenase&lt;br&gt;Location: 412236 - 411256&lt;br&gt;&lt;br&gt;&lt;b&gt;BlastP hit with JNAJGP_24165&lt;/b&gt;&lt;br&gt;Percentage identity: 100&lt;br&gt;Percentage coverage: 100&lt;br&gt;BLAST bit score: 668&lt;br&gt;E-value: 2.02e-244" locus_tag="BFW86_RS16685" class="clusterblast-orf" id="dummy-9_h9_1_18"  />
</g>
<g id="a9_0019"  >
<polygon points="209,90 252,90 257,85 252,80 209,80 209,90 " style="fill:#d815c7; stroke-width:1; stroke:black; " description="&lt;b&gt;BFW86_RS16680&lt;/b&gt;&lt;br&gt;AMP-binding protein&lt;br&gt;Location: 411205 - 406742&lt;br&gt;&lt;br&gt;&lt;b&gt;BlastP hit with JNAJGP_24165&lt;/b&gt;&lt;br&gt;Percentage identity: 44&lt;br&gt;Percentage coverage: 94&lt;br&gt;BLAST bit score: 266&lt;br&gt;E-value: 3.28e-78&lt;br&gt;&lt;br&gt;&lt;b&gt;BlastP hit with JNAJGP_24170&lt;/b&gt;&lt;br&gt;Percentage identity: 100&lt;br&gt;Percentage coverage: 100&lt;br&gt;BLAST bit score: 2956&lt;br&gt;E-value: 0.0" locus_tag="BFW86_RS16680" class="clusterblast-orf" id="dummy-9_h9_1_19"  />
</g>
<g id="a9_0020"  >
<polygon points="257,90 286,90 291,85 286,80 257,80 257,90 " style="fill:#d815c7; stroke-width:1; stroke:black; " description="&lt;b&gt;BFW86_RS16675&lt;/b&gt;&lt;br&gt;non-ribosomal peptide synthetase&lt;br&gt;Location: 406730 - 403584&lt;br&gt;&lt;br&gt;&lt;b&gt;BlastP hit with JNAJGP_24175&lt;/b&gt;&lt;br&gt;Percentage identity: 100&lt;br&gt;Percentage coverage: 100&lt;br&gt;BLAST bit score: 2040&lt;br&gt;E-value: 0.0" locus_tag="BFW86_RS16675" class="clusterblast-orf" id="dummy-9_h9_1_20"  />
</g>
<g id="a9_0021"  >
<polygon points="291,90 369,90 374,85 369,80 291,80 291,90 " style="fill:#d815c7; stroke-width:1; stroke:black; " description="&lt;b&gt;BFW86_RS16670&lt;/b&gt;&lt;br&gt;non-ribosomal peptide synthetase&lt;br&gt;Location: 403535 - 395802&lt;br&gt;&lt;br&gt;&lt;b&gt;BlastP hit with JNAJGP_24175&lt;/b&gt;&lt;br&gt;Percentage identity: 33&lt;br&gt;Percentage coverage: 86&lt;br&gt;BLAST bit score: 340&lt;br&gt;E-value: 2.2e-95&lt;br&gt;&lt;br&gt;&lt;b&gt;BlastP hit with JNAJGP_24180&lt;/b&gt;&lt;br&gt;Percentage identity: 99&lt;br&gt;Percentage coverage: 100&lt;br&gt;BLAST bit score: 5110&lt;br&gt;E-value: 0.0&lt;br&gt;&lt;br&gt;&lt;b&gt;BlastP hit with JNAJGP_24185&lt;/b&gt;&lt;br&gt;Percentage identity: 43&lt;br&gt;Percentage coverage: 99&lt;br&gt;BLAST bit score: 2627&lt;br&gt;E-value: 0.0" locus_tag="BFW86_RS16670" class="clusterblast-orf" id="dummy-9_h9_1_21"  />
</g>
<g id="a9_0022"  >
<polygon points="374,90 396,90 401,85 396,80 374,80 374,90 " style="fill:#d815c7; stroke-width:1; stroke:black; " description="&lt;b&gt;BFW86_RS16665&lt;/b&gt;&lt;br&gt;amino acid adenylation domain-containing protein&lt;br&gt;Location: 395805 - 393215&lt;br&gt;&lt;br&gt;&lt;b&gt;BlastP hit with JNAJGP_24185&lt;/b&gt;&lt;br&gt;Percentage identity: 99&lt;br&gt;Percentage coverage: 21&lt;br&gt;BLAST bit score: 1676&lt;br&gt;E-value: 0.0" locus_tag="BFW86_RS16665" class="clusterblast-orf" id="dummy-9_h9_1_22"  />
</g>
<g id="a9_0023"  >
<polygon points="403,90 495,90 500,85 495,80 403,80 403,90 " style="fill:#d815c7; stroke-width:1; stroke:black; " description="&lt;b&gt;BFW86_RS16660&lt;/b&gt;&lt;br&gt;amino acid adenylation domain-containing protein&lt;br&gt;Location: 393074 - 383925&lt;br&gt;&lt;br&gt;&lt;b&gt;BlastP hit with JNAJGP_24175&lt;/b&gt;&lt;br&gt;Percentage identity: 33&lt;br&gt;Percentage coverage: 93&lt;br&gt;BLAST bit score: 345&lt;br&gt;E-value: 6.87e-97&lt;br&gt;&lt;br&gt;&lt;b&gt;BlastP hit with JNAJGP_24180&lt;/b&gt;&lt;br&gt;Percentage identity: 53&lt;br&gt;Percentage coverage: 100&lt;br&gt;BLAST bit score: 2366&lt;br&gt;E-value: 0.0&lt;br&gt;&lt;br&gt;&lt;b&gt;BlastP hit with JNAJGP_24185&lt;/b&gt;&lt;br&gt;Percentage identity: 100&lt;br&gt;Percentage coverage: 74&lt;br&gt;BLAST bit score: 5980&lt;br&gt;E-value: 0.0" locus_tag="BFW86_RS16660" class="clusterblast-orf" id="dummy-9_h9_1_23"  />
</g>
<g id="a9_0024"  >
<polygon points="500,90 539,90 544,85 539,80 500,80 500,90 " style="fill:#d815c7; stroke-width:1; stroke:black; " description="&lt;b&gt;BFW86_RS16655&lt;/b&gt;&lt;br&gt;non-ribosomal peptide synthetase&lt;br&gt;Location: 383923 - 379865&lt;br&gt;&lt;br&gt;&lt;b&gt;BlastP hit with JNAJGP_24175&lt;/b&gt;&lt;br&gt;Percentage identity: 34&lt;br&gt;Percentage coverage: 87&lt;br&gt;BLAST bit score: 314&lt;br&gt;E-value: 1.81e-87&lt;br&gt;&lt;br&gt;&lt;b&gt;BlastP hit with JNAJGP_24190&lt;/b&gt;&lt;br&gt;Percentage identity: 100&lt;br&gt;Percentage coverage: 100&lt;br&gt;BLAST bit score: 2644&lt;br&gt;E-value: 0.0" locus_tag="BFW86_RS16655" class="clusterblast-orf" id="dummy-9_h9_1_24"  />
</g>
<g id="a9_0025"  >
<polygon points="545,90 554,90 559,85 554,80 545,80 545,90 " style="fill:#d8a315; stroke-width:1; stroke:black; " description="&lt;b&gt;BFW86_RS16650&lt;/b&gt;&lt;br&gt;lysine N(6)-hydroxylase/L-ornithine N(5)-oxygenase family protein&lt;br&gt;Location: 379792 - 378437&lt;br&gt;&lt;br&gt;&lt;b&gt;BlastP hit with JNAJGP_24195&lt;/b&gt;&lt;br&gt;Percentage identity: 99&lt;br&gt;Percentage coverage: 100&lt;br&gt;BLAST bit score: 875&lt;br&gt;E-value: 0.0" locus_tag="BFW86_RS16650" class="clusterblast-orf" id="dummy-9_h9_1_25"  />
</g>
<g id="a9_0026"  >
<polygon points="560,90 563,90 568,85 563,80 560,80 560,90 " style="fill:#15d85c; stroke-width:1; stroke:black; " description="&lt;b&gt;BFW86_RS16645&lt;/b&gt;&lt;br&gt;siderophore-iron reductase FhuF&lt;br&gt;Location: 378345 - 377590&lt;br&gt;&lt;br&gt;&lt;b&gt;BlastP hit with JNAJGP_24200&lt;/b&gt;&lt;br&gt;Percentage identity: 100&lt;br&gt;Percentage coverage: 100&lt;br&gt;BLAST bit score: 510&lt;br&gt;E-value: 1.92e-184" locus_tag="BFW86_RS16645" class="clusterblast-orf" id="dummy-9_h9_1_26"  />
</g>
<g id="a9_0027"  >
<polygon points="568,85 573,80 577,80 577,90 573,90 568,85 " style="fill:#1539d8; stroke-width:1; stroke:black; " description="&lt;b&gt;BFW86_RS16640&lt;/b&gt;&lt;br&gt;ATP-binding cassette domain-containing protein&lt;br&gt;Location: 377549 - 376782&lt;br&gt;&lt;br&gt;&lt;b&gt;BlastP hit with JNAJGP_24205&lt;/b&gt;&lt;br&gt;Percentage identity: 100&lt;br&gt;Percentage coverage: 100&lt;br&gt;BLAST bit score: 506&lt;br&gt;E-value: 1.24e-182" locus_tag="BFW86_RS16640" class="clusterblast-orf" id="dummy-9_h9_1_27"  />
</g>
<g id="a9_0028"  >
<polygon points="583,90 586,90 591,85 586,80 583,80 583,90 " style="fill:#d815a3; stroke-width:1; stroke:black; " description="&lt;b&gt;BFW86_RS16630&lt;/b&gt;&lt;br&gt;hypothetical protein&lt;br&gt;Location: 376202 - 375453&lt;br&gt;&lt;br&gt;&lt;b&gt;BlastP hit with JNAJGP_24215&lt;/b&gt;&lt;br&gt;Percentage identity: 99&lt;br&gt;Percentage coverage: 100&lt;br&gt;BLAST bit score: 448&lt;br&gt;E-value: 4.11e-160" locus_tag="BFW86_RS16630" class="clusterblast-orf" id="dummy-9_h9_1_28"  />
</g>
<g id="a9_0029"  >
<polygon points="592,90 595,85 592,80 592,90 " style="fill:#d8c715; stroke-width:1; stroke:black; " description="&lt;b&gt;BFW86_RS16625&lt;/b&gt;&lt;br&gt;hypothetical protein&lt;br&gt;Location: 375327 - 375049&lt;br&gt;&lt;br&gt;&lt;b&gt;BlastP hit with JNAJGP_24220&lt;/b&gt;&lt;br&gt;Percentage identity: 99&lt;br&gt;Percentage coverage: 100&lt;br&gt;BLAST bit score: 181&lt;br&gt;E-value: 2.01e-59" locus_tag="BFW86_RS16625" class="clusterblast-orf" id="dummy-9_h9_1_29"  />
</g>
<g id="a9_0030"  >
<polygon points="596,90 605,90 610,85 605,80 596,80 596,90 " style="fill:#15d880; stroke-width:1; stroke:black; " description="&lt;b&gt;BFW86_RS16620&lt;/b&gt;&lt;br&gt;methyl-accepting chemotaxis protein&lt;br&gt;Location: 374964 - 373651&lt;br&gt;&lt;br&gt;&lt;b&gt;BlastP hit with JNAJGP_24225&lt;/b&gt;&lt;br&gt;Percentage identity: 100&lt;br&gt;Percentage coverage: 100&lt;br&gt;BLAST bit score: 821&lt;br&gt;E-value: 3.61e-301" locus_tag="BFW86_RS16620" class="clusterblast-orf" id="dummy-9_h9_1_30"  />
</g>
<g id="a9_0031"  >
<polygon points="612,90 630,90 635,85 630,80 612,80 612,90 " style="fill:#1515d8; stroke-width:1; stroke:black; " description="&lt;b&gt;BFW86_RS16615&lt;/b&gt;&lt;br&gt;TonB-dependent receptor&lt;br&gt;Location: 373428 - 371317&lt;br&gt;&lt;br&gt;&lt;b&gt;BlastP hit with JNAJGP_24230&lt;/b&gt;&lt;br&gt;Percentage identity: 98&lt;br&gt;Percentage coverage: 100&lt;br&gt;BLAST bit score: 1386&lt;br&gt;E-value: 0.0" locus_tag="BFW86_RS16615" class="clusterblast-orf" id="dummy-9_h9_1_31"  />
</g>
<g id="a9_0032"  >
<polygon points="635,85 640,80 654,80 654,90 640,90 635,85 " style="fill:#d81580; stroke-width:1; stroke:black; " description="&lt;b&gt;BFW86_RS16610&lt;/b&gt;&lt;br&gt;sigma-54-dependent Fis family transcriptional regulator&lt;br&gt;Location: 371307 - 369490&lt;br&gt;&lt;br&gt;&lt;b&gt;BlastP hit with JNAJGP_24235&lt;/b&gt;&lt;br&gt;Percentage identity: 100&lt;br&gt;Percentage coverage: 100&lt;br&gt;BLAST bit score: 1192&lt;br&gt;E-value: 0.0" locus_tag="BFW86_RS16610" class="clusterblast-orf" id="dummy-9_h9_1_32"  />
</g>
<g id="a9_0033"  >
<polygon points="658,90 664,90 669,85 664,80 658,80 658,90 " style="fill:#c7d815; stroke-width:1; stroke:black; " description="&lt;b&gt;BFW86_RS16605&lt;/b&gt;&lt;br&gt;ABC transporter ATP-binding protein&lt;br&gt;Location: 369198 - 368104&lt;br&gt;&lt;br&gt;&lt;b&gt;BlastP hit with JNAJGP_24240&lt;/b&gt;&lt;br&gt;Percentage identity: 100&lt;br&gt;Percentage coverage: 100&lt;br&gt;BLAST bit score: 714&lt;br&gt;E-value: 2.84e-261" locus_tag="BFW86_RS16605" class="clusterblast-orf" id="dummy-9_h9_1_33"  />
</g>
<g id="a9_0034"  >
<polygon points="669,90 676,90 681,85 676,80 669,80 669,90 " style="fill:#15d8a3; stroke-width:1; stroke:black; " description="&lt;b&gt;BFW86_RS16600&lt;/b&gt;&lt;br&gt;ABC transporter ATP-binding protein&lt;br&gt;Location: 368104 - 367007&lt;br&gt;&lt;br&gt;&lt;b&gt;BlastP hit with JNAJGP_24245&lt;/b&gt;&lt;br&gt;Percentage identity: 100&lt;br&gt;Percentage coverage: 100&lt;br&gt;BLAST bit score: 731&lt;br&gt;E-value: 6.03e-268" locus_tag="BFW86_RS16600" class="clusterblast-orf" id="dummy-9_h9_1_34"  />
</g>
<g id="a9_0035"  >
<polygon points="681,90 685,90 690,85 685,80 681,80 681,90 " style="fill:#3915d8; stroke-width:1; stroke:black; " description="&lt;b&gt;BFW86_RS16595&lt;/b&gt;&lt;br&gt;sugar ABC transporter permease&lt;br&gt;Location: 367010 - 366144&lt;br&gt;&lt;br&gt;&lt;b&gt;BlastP hit with JNAJGP_24250&lt;/b&gt;&lt;br&gt;Percentage identity: 100&lt;br&gt;Percentage coverage: 100&lt;br&gt;BLAST bit score: 572&lt;br&gt;E-value: 1.36e-207" locus_tag="BFW86_RS16595" class="clusterblast-orf" id="dummy-9_h9_1_35"  />
</g>
<g id="a9_0036"  >
<polygon points="690,90 694,90 699,85 694,80 690,80 690,90 " style="fill:#d8155c; stroke-width:1; stroke:black; " description="&lt;b&gt;BFW86_RS16590&lt;/b&gt;&lt;br&gt;carbohydrate ABC transporter permease&lt;br&gt;Location: 366133 - 365333&lt;br&gt;&lt;br&gt;&lt;b&gt;BlastP hit with JNAJGP_24255&lt;/b&gt;&lt;br&gt;Percentage identity: 100&lt;br&gt;Percentage coverage: 100&lt;br&gt;BLAST bit score: 525&lt;br&gt;E-value: 6.94e-190" locus_tag="BFW86_RS16590" class="clusterblast-orf" id="dummy-9_h9_1_36"  />
</g>
<g id="a9_0037"  >
<polygon points="699,90 702,85 699,80 699,90 " style="fill:#a3d815; stroke-width:1; stroke:black; " description="&lt;b&gt;BFW86_RS16585&lt;/b&gt;&lt;br&gt;DUF2160 domain-containing protein&lt;br&gt;Location: 365322 - 365050&lt;br&gt;&lt;br&gt;&lt;b&gt;BlastP hit with JNAJGP_24260&lt;/b&gt;&lt;br&gt;Percentage identity: 100&lt;br&gt;Percentage coverage: 100&lt;br&gt;BLAST bit score: 184&lt;br&gt;E-value: 2.12e-60" locus_tag="BFW86_RS16585" class="clusterblast-orf" id="dummy-9_h9_1_37"  />
</g>
<g id="a9_0038"  >
<polygon points="702,90 716,90 721,85 716,80 702,80 702,90 " style="fill:#15d8c7; stroke-width:1; stroke:black; " description="&lt;b&gt;BFW86_RS16580&lt;/b&gt;&lt;br&gt;ABC transporter substrate-binding protein&lt;br&gt;Location: 365017 - 363275&lt;br&gt;&lt;br&gt;&lt;b&gt;BlastP hit with JNAJGP_24265&lt;/b&gt;&lt;br&gt;Percentage identity: 100&lt;br&gt;Percentage coverage: 100&lt;br&gt;BLAST bit score: 1190&lt;br&gt;E-value: 0.0" locus_tag="BFW86_RS16580" class="clusterblast-orf" id="dummy-9_h9_1_38"  />
</g>
<g id="a9_0039"  >
<polygon points="726,90 735,90 740,85 735,80 726,80 726,90 " style="fill:#5c15d8; stroke-width:1; stroke:black; " description="&lt;b&gt;BFW86_RS16570&lt;/b&gt;&lt;br&gt;iron-containing redox enzyme family protein&lt;br&gt;Location: 362830 - 361451&lt;br&gt;&lt;br&gt;&lt;b&gt;BlastP hit with JNAJGP_24270&lt;/b&gt;&lt;br&gt;Percentage identity: 100&lt;br&gt;Percentage coverage: 100&lt;br&gt;BLAST bit score: 943&lt;br&gt;E-value: 0.0" locus_tag="BFW86_RS16570" class="clusterblast-orf" id="dummy-9_h9_1_39"  />
</g>
<g id="a9_0040"  >
<polygon points="740,90 745,90 750,85 745,80 740,80 740,90 " style="fill:#d81539; stroke-width:1; stroke:black; " description="&lt;b&gt;BFW86_RS16565&lt;/b&gt;&lt;br&gt;class I SAM-dependent methyltransferase&lt;br&gt;Location: 361440 - 360496&lt;br&gt;&lt;br&gt;&lt;b&gt;BlastP hit with JNAJGP_24275&lt;/b&gt;&lt;br&gt;Percentage identity: 99&lt;br&gt;Percentage coverage: 100&lt;br&gt;BLAST bit score: 622&lt;br&gt;E-value: 1.1e-226" locus_tag="BFW86_RS16565" class="clusterblast-orf" id="dummy-9_h9_1_40"  />
</g>
<g id="a9_0041"  >
<polygon points="750,90 757,90 762,85 757,80 750,80 750,90 " style="fill:#80d815; stroke-width:1; stroke:black; " description="&lt;b&gt;BFW86_RS16560&lt;/b&gt;&lt;br&gt;carboxylate-amine ligase&lt;br&gt;Location: 360489 - 359371&lt;br&gt;&lt;br&gt;&lt;b&gt;BlastP hit with JNAJGP_24280&lt;/b&gt;&lt;br&gt;Percentage identity: 100&lt;br&gt;Percentage coverage: 100&lt;br&gt;BLAST bit score: 757&lt;br&gt;E-value: 6.38e-278" locus_tag="BFW86_RS16560" class="clusterblast-orf" id="dummy-9_h9_1_41"  />
</g>
</svg>
