<svg xmlns="http://www.w3.org/2000/svg" xmlns:xlink="http://www.w3.org/1999/xlink" version="1.1" x="0" y="0" height="230" width="800" viewBox="0 0 800 230" preserveAspectRatio="none"  >
<g label="Query sequence" class="clusterblast-cluster"  >
<text x="5" y="20" class="clusterblast-acc"  >
Query sequence</text>
<line x1="10" y1="35" x2="778.0" y2="35" style="stroke-width:1; stroke:grey; "  />
<polygon points="27,35 32,30 81,30 81,40 32,40 27,35 " style="fill:#d81515; stroke-width:1; stroke:black; " description="&lt;b&gt;JNAJGP_28595&lt;/b&gt;&lt;br&gt;IclR family transcriptional regulator&lt;br&gt;Location: 6127537 - 6128356" locus_tag="JNAJGP_28595" class="clusterblast-orf" id="dummy-11_q0_0_all"  />
<polygon points="97,40 159,40 164,35 159,30 97,30 97,40 " style="fill:#77d815; stroke-width:1; stroke:black; " description="&lt;b&gt;JNAJGP_28600&lt;/b&gt;&lt;br&gt;Iron(III) transport system ATP-binding&lt;br&gt;Location: 6128596 - 6129625" locus_tag="JNAJGP_28600" class="clusterblast-orf" id="dummy-11_q1_0_all"  />
<polygon points="164,40 215,40 220,35 215,30 164,30 164,40 " style="fill:#15d8d8; stroke-width:1; stroke:black; " description="&lt;b&gt;JNAJGP_28605&lt;/b&gt;&lt;br&gt;ABC transmembrane type-1 domain-containing protein&lt;br&gt;Location: 6129621 - 6130467" locus_tag="JNAJGP_28605" class="clusterblast-orf" id="dummy-11_q2_0_all"  />
<polygon points="220,40 268,40 273,35 268,30 220,30 220,40 " style="fill:#7715d8; stroke-width:1; stroke:black; " description="&lt;b&gt;JNAJGP_28610&lt;/b&gt;&lt;br&gt;ABC-type spermidine/putrescine transport system, permease component II&lt;br&gt;Location: 6130471 - 6131266" locus_tag="JNAJGP_28610" class="clusterblast-orf" id="dummy-11_q3_0_all"  />
<polygon points="273,40 287,40 292,35 287,30 273,30 273,40 " style="fill:#d87715; stroke-width:1; stroke:black; " description="&lt;b&gt;JNAJGP_28615&lt;/b&gt;&lt;br&gt;Ferredoxin&lt;br&gt;Location: 6131265 - 6131556" locus_tag="JNAJGP_28615" class="clusterblast-orf" id="dummy-11_q4_0_all"  />
<polygon points="291,40 375,40 380,35 375,30 291,30 291,40 " style="fill:#15d815; stroke-width:1; stroke:black; " description="&lt;b&gt;JNAJGP_28620&lt;/b&gt;&lt;br&gt;FAD/NAD(P)-binding oxidoreductase&lt;br&gt;Location: 6131552 - 6132896" locus_tag="JNAJGP_28620" class="clusterblast-orf" id="dummy-11_q5_0_all"  />
<polygon points="380,40 447,40 452,35 447,30 380,30 380,40 " style="fill:#1577d8; stroke-width:1; stroke:black; " description="&lt;b&gt;JNAJGP_28625&lt;/b&gt;&lt;br&gt;FAD dependent oxidoreductase domain-containing protein&lt;br&gt;Location: 6132892 - 6133990" locus_tag="JNAJGP_28625" class="clusterblast-orf" id="dummy-11_q6_0_all"  />
<polygon points="453,40 516,40 521,35 516,30 453,30 453,40 " style="fill:#d815d8; stroke-width:1; stroke:black; " description="&lt;b&gt;JNAJGP_28630&lt;/b&gt;&lt;br&gt;ABC transporter substrate-binding protein&lt;br&gt;Location: 6134004 - 6135036" locus_tag="JNAJGP_28630" class="clusterblast-orf" id="dummy-11_q7_0_all"  />
<polygon points="521,35 526,30 574,30 574,40 526,40 521,35 " style="fill:#d8d815; stroke-width:1; stroke:black; " description="&lt;b&gt;JNAJGP_28635&lt;/b&gt;&lt;br&gt;ammonia-dependent NAD(+) synthetase&lt;br&gt;Location: 6135036 - 6135846" locus_tag="JNAJGP_28635" class="clusterblast-orf" id="dummy-11_q8_0_all"  />
<polygon points="574,35 579,30 655,30 655,40 579,40 574,35 " style="fill:#15d877; stroke-width:1; stroke:black; " description="&lt;b&gt;JNAJGP_28640&lt;/b&gt;&lt;br&gt;nicotinate phosphoribosyltransferase&lt;br&gt;Location: 6135847 - 6137065" locus_tag="JNAJGP_28640" class="clusterblast-orf" id="dummy-11_q9_0_all"  />
<polygon points="655,35 660,30 698,30 698,40 660,40 655,35 " style="fill:#1515d8; stroke-width:1; stroke:black; " description="&lt;b&gt;JNAJGP_28645&lt;/b&gt;&lt;br&gt;Isochorismatase&lt;br&gt;Location: 6137076 - 6137724" locus_tag="JNAJGP_28645" class="clusterblast-orf" id="dummy-11_q10_0_all"  />
<polygon points="708,40 734,40 739,35 734,30 708,30 708,40 " style="fill:#d81577; stroke-width:1; stroke:black; " description="&lt;b&gt;JNAJGP_28650&lt;/b&gt;&lt;br&gt;NUDIX hydrolase&lt;br&gt;Location: 6137870 - 6138347" locus_tag="JNAJGP_28650" class="clusterblast-orf" id="dummy-11_q11_0_all"  />
<polygon points="738,40 748,40 753,35 748,30 738,30 738,40 " style="fill:#d81577; stroke-width:1; stroke:black; " description="&lt;b&gt;JNAJGP_28655&lt;/b&gt;&lt;br&gt;hypothetical protein&lt;br&gt;Location: 6138330 - 6138564" locus_tag="JNAJGP_28655" class="clusterblast-orf" id="dummy-11_q12_0_all"  />
</g>
<g label="NZ_CP019856" description="NZ_CP019856 (2461699-2474424): Pseudomonas azotoformans strain F77 chromosome... (92% of genes show similarity), hydrogen-cyanide" class="clusterblast-cluster"  >
<text x="5" y="70" class="clusterblast-acc"  >
<a xlink:href="https://antismash-db.secondarymetabolites.org/area?record=NZ_CP019856&amp;start=2461699&amp;end=2474424" target="_blank">NZ_CP019856 (2461699-2474424)</a>: Pseudomonas azotoformans strain F77 chromosome... (92% of genes show similarity), hydrogen-cyanide</text>
<line x1="10" y1="85" x2="778.0" y2="85" style="stroke-width:1; stroke:grey; "  />
</g>
<g id="a11_000"  >
<polygon points="0,90 38,90 43,85 38,80 0,80 0,90 " style="fill:white; stroke-width:1; stroke:black; " description="&lt;b&gt;B1R45_RS11480&lt;/b&gt;&lt;br&gt;response regulator&lt;br&gt;Location: 2473966 - 2473301" locus_tag="B1R45_RS11480" class="clusterblast-orf" id="dummy-11_h11_2_0"  />
</g>
<g id="a11_001"  >
<polygon points="52,85 57,80 107,80 107,90 57,90 52,85 " style="fill:#d81515; stroke-width:1; stroke:black; " description="&lt;b&gt;B1R45_RS11475&lt;/b&gt;&lt;br&gt;IclR family transcriptional regulator&lt;br&gt;Location: 2473167 - 2472337&lt;br&gt;&lt;br&gt;&lt;b&gt;BlastP hit with JNAJGP_28595&lt;/b&gt;&lt;br&gt;Percentage identity: 94&lt;br&gt;Percentage coverage: 101&lt;br&gt;BLAST bit score: 495&lt;br&gt;E-value: 1.41e-177" locus_tag="B1R45_RS11475" class="clusterblast-orf" id="dummy-11_h11_2_1"  />
</g>
<g id="a11_002"  >
<polygon points="123,90 186,90 191,85 186,80 123,80 123,90 " style="fill:#77d815; stroke-width:1; stroke:black; " description="&lt;b&gt;B1R45_RS11470&lt;/b&gt;&lt;br&gt;ABC transporter ATP-binding protein&lt;br&gt;Location: 2472093 - 2471065&lt;br&gt;&lt;br&gt;&lt;b&gt;BlastP hit with JNAJGP_28600&lt;/b&gt;&lt;br&gt;Percentage identity: 93&lt;br&gt;Percentage coverage: 99&lt;br&gt;BLAST bit score: 617&lt;br&gt;E-value: 9.24e-224" locus_tag="B1R45_RS11470" class="clusterblast-orf" id="dummy-11_h11_2_2"  />
</g>
<g id="a11_003"  >
<polygon points="190,90 241,90 246,85 241,80 190,80 190,90 " style="fill:#15d8d8; stroke-width:1; stroke:black; " description="&lt;b&gt;B1R45_RS11465&lt;/b&gt;&lt;br&gt;ABC transporter permease&lt;br&gt;Location: 2471068 - 2470223&lt;br&gt;&lt;br&gt;&lt;b&gt;BlastP hit with JNAJGP_28605&lt;/b&gt;&lt;br&gt;Percentage identity: 97&lt;br&gt;Percentage coverage: 100&lt;br&gt;BLAST bit score: 512&lt;br&gt;E-value: 4.78e-184" locus_tag="B1R45_RS11465" class="clusterblast-orf" id="dummy-11_h11_2_3"  />
</g>
<g id="a11_004"  >
<polygon points="246,90 294,90 299,85 294,80 246,80 246,90 " style="fill:#7715d8; stroke-width:1; stroke:black; " description="&lt;b&gt;B1R45_RS11460&lt;/b&gt;&lt;br&gt;ABC transporter permease&lt;br&gt;Location: 2470218 - 2469424&lt;br&gt;&lt;br&gt;&lt;b&gt;BlastP hit with JNAJGP_28610&lt;/b&gt;&lt;br&gt;Percentage identity: 98&lt;br&gt;Percentage coverage: 100&lt;br&gt;BLAST bit score: 473&lt;br&gt;E-value: 3.2e-169" locus_tag="B1R45_RS11460" class="clusterblast-orf" id="dummy-11_h11_2_4"  />
</g>
<g id="a11_005"  >
<polygon points="299,90 313,90 318,85 313,80 299,80 299,90 " style="fill:#d87715; stroke-width:1; stroke:black; " description="&lt;b&gt;B1R45_RS11455&lt;/b&gt;&lt;br&gt;(2Fe-2S)-binding protein&lt;br&gt;Location: 2469424 - 2469134&lt;br&gt;&lt;br&gt;&lt;b&gt;BlastP hit with JNAJGP_28615&lt;/b&gt;&lt;br&gt;Percentage identity: 97&lt;br&gt;Percentage coverage: 99&lt;br&gt;BLAST bit score: 190&lt;br&gt;E-value: 1.18e-62" locus_tag="B1R45_RS11455" class="clusterblast-orf" id="dummy-11_h11_2_5"  />
</g>
<g id="a11_006"  >
<polygon points="318,90 401,90 406,85 401,80 318,80 318,90 " style="fill:#15d815; stroke-width:1; stroke:black; " description="&lt;b&gt;B1R45_RS11450&lt;/b&gt;&lt;br&gt;NAD(P)/FAD-dependent oxidoreductase&lt;br&gt;Location: 2469137 - 2467794&lt;br&gt;&lt;br&gt;&lt;b&gt;BlastP hit with JNAJGP_28620&lt;/b&gt;&lt;br&gt;Percentage identity: 90&lt;br&gt;Percentage coverage: 100&lt;br&gt;BLAST bit score: 815&lt;br&gt;E-value: 2.16e-298" locus_tag="B1R45_RS11450" class="clusterblast-orf" id="dummy-11_h11_2_6"  />
</g>
<g id="a11_007"  >
<polygon points="406,90 473,90 478,85 473,80 406,80 406,90 " style="fill:#1577d8; stroke-width:1; stroke:black; " description="&lt;b&gt;B1R45_RS11445&lt;/b&gt;&lt;br&gt;FAD-binding oxidoreductase&lt;br&gt;Location: 2467797 - 2466700&lt;br&gt;&lt;br&gt;&lt;b&gt;BlastP hit with JNAJGP_28625&lt;/b&gt;&lt;br&gt;Percentage identity: 93&lt;br&gt;Percentage coverage: 100&lt;br&gt;BLAST bit score: 683&lt;br&gt;E-value: 4.8e-249" locus_tag="B1R45_RS11445" class="clusterblast-orf" id="dummy-11_h11_2_7"  />
</g>
<g id="a11_008"  >
<polygon points="479,90 542,90 547,85 542,80 479,80 479,90 " style="fill:#d815d8; stroke-width:1; stroke:black; " description="&lt;b&gt;B1R45_RS11440&lt;/b&gt;&lt;br&gt;ABC transporter substrate-binding protein&lt;br&gt;Location: 2466685 - 2465654&lt;br&gt;&lt;br&gt;&lt;b&gt;BlastP hit with JNAJGP_28630&lt;/b&gt;&lt;br&gt;Percentage identity: 97&lt;br&gt;Percentage coverage: 100&lt;br&gt;BLAST bit score: 651&lt;br&gt;E-value: 3.88e-237" locus_tag="B1R45_RS11440" class="clusterblast-orf" id="dummy-11_h11_2_8"  />
</g>
<g id="a11_009"  >
<polygon points="547,85 552,80 600,80 600,90 552,90 547,85 " style="fill:#d8d815; stroke-width:1; stroke:black; " description="&lt;b&gt;B1R45_RS11435&lt;/b&gt;&lt;br&gt;ammonia-dependent NAD(+) synthetase&lt;br&gt;Location: 2465653 - 2464844&lt;br&gt;&lt;br&gt;&lt;b&gt;BlastP hit with JNAJGP_28635&lt;/b&gt;&lt;br&gt;Percentage identity: 89&lt;br&gt;Percentage coverage: 100&lt;br&gt;BLAST bit score: 461&lt;br&gt;E-value: 1.75e-164" locus_tag="B1R45_RS11435" class="clusterblast-orf" id="dummy-11_h11_2_9"  />
</g>
<g id="a11_0010"  >
<polygon points="601,85 606,80 681,80 681,90 606,90 601,85 " style="fill:#15d877; stroke-width:1; stroke:black; " description="&lt;b&gt;B1R45_RS11430&lt;/b&gt;&lt;br&gt;nicotinate phosphoribosyltransferase&lt;br&gt;Location: 2464842 - 2463625&lt;br&gt;&lt;br&gt;&lt;b&gt;BlastP hit with JNAJGP_28640&lt;/b&gt;&lt;br&gt;Percentage identity: 95&lt;br&gt;Percentage coverage: 100&lt;br&gt;BLAST bit score: 788&lt;br&gt;E-value: 2.67e-289" locus_tag="B1R45_RS11430" class="clusterblast-orf" id="dummy-11_h11_2_10"  />
</g>
<g id="a11_0011"  >
<polygon points="682,85 687,80 724,80 724,90 687,90 682,85 " style="fill:#1515d8; stroke-width:1; stroke:black; " description="&lt;b&gt;B1R45_RS11425&lt;/b&gt;&lt;br&gt;nicotinamidase&lt;br&gt;Location: 2463613 - 2462966&lt;br&gt;&lt;br&gt;&lt;b&gt;BlastP hit with JNAJGP_28645&lt;/b&gt;&lt;br&gt;Percentage identity: 92&lt;br&gt;Percentage coverage: 100&lt;br&gt;BLAST bit score: 409&lt;br&gt;E-value: 1.51e-145" locus_tag="B1R45_RS11425" class="clusterblast-orf" id="dummy-11_h11_2_11"  />
</g>
<g id="a11_0012"  >
<polygon points="734,90 775,90 780,85 775,80 734,80 734,90 " style="fill:#d81577; stroke-width:1; stroke:black; " description="&lt;b&gt;B1R45_RS11420&lt;/b&gt;&lt;br&gt;NUDIX hydrolase&lt;br&gt;Location: 2462819 - 2462127&lt;br&gt;&lt;br&gt;&lt;b&gt;BlastP hit with JNAJGP_28650&lt;/b&gt;&lt;br&gt;Percentage identity: 89&lt;br&gt;Percentage coverage: 96&lt;br&gt;BLAST bit score: 281&lt;br&gt;E-value: 6.85e-96&lt;br&gt;&lt;br&gt;&lt;b&gt;BlastP hit with JNAJGP_28655&lt;/b&gt;&lt;br&gt;Percentage identity: 97&lt;br&gt;Percentage coverage: 100&lt;br&gt;BLAST bit score: 150&lt;br&gt;E-value: 1.1e-45" locus_tag="B1R45_RS11420" class="clusterblast-orf" id="dummy-11_h11_2_12"  />
</g>
</svg>
