<svg xmlns="http://www.w3.org/2000/svg" xmlns:xlink="http://www.w3.org/1999/xlink" version="1.1" x="0" y="0" height="230" width="800" viewBox="0 0 800 230" preserveAspectRatio="none"  >
<g label="Query sequence" class="clusterblast-cluster"  >
<text x="5" y="20" class="clusterblast-acc"  >
Query sequence</text>
<line x1="10" y1="35" x2="778.0" y2="35" style="stroke-width:1; stroke:grey; "  />
<polygon points="0,40 61,40 66,35 61,30 0,30 0,40 " style="fill:#d81515; stroke-width:1; stroke:black; " description="&lt;b&gt;JNAJGP_22300&lt;/b&gt;&lt;br&gt;ABC transmembrane type-1 domain-containing protein&lt;br&gt;Location: 4711370 - 4712327" locus_tag="JNAJGP_22300" class="clusterblast-orf" id="dummy-7_q0_0_all"  />
<polygon points="66,40 121,40 126,35 121,30 66,30 66,40 " style="fill:#3cd815; stroke-width:1; stroke:black; " description="&lt;b&gt;JNAJGP_22305&lt;/b&gt;&lt;br&gt;DNA-directed RNA polymerase subunit alpha&lt;br&gt;Location: 4712323 - 4713199" locus_tag="JNAJGP_22305" class="clusterblast-orf" id="dummy-7_q1_0_all"  />
<polygon points="126,40 247,40 252,35 247,30 126,30 126,40 " style="fill:#1563d8; stroke-width:1; stroke:black; " description="&lt;b&gt;JNAJGP_22310&lt;/b&gt;&lt;br&gt;nickel import ATP-binding protein NikE&lt;br&gt;Location: 4713200 - 4715042" locus_tag="JNAJGP_22310" class="clusterblast-orf" id="dummy-7_q2_0_all"  />
<polygon points="252,40 268,40 273,35 268,30 252,30 252,40 " style="fill:#b115d8; stroke-width:1; stroke:black; " description="&lt;b&gt;JNAJGP_22315&lt;/b&gt;&lt;br&gt;NAD(FAD)-dependent dehydrogenase&lt;br&gt;Location: 4715038 - 4715347" locus_tag="JNAJGP_22315" class="clusterblast-orf" id="dummy-7_q3_0_all"  />
<polygon points="272,40 361,40 366,35 361,30 272,30 272,40 " style="fill:#d88a15; stroke-width:1; stroke:black; " description="&lt;b&gt;JNAJGP_22320&lt;/b&gt;&lt;br&gt;Hydrogen cyanide synthase subunit HcnB&lt;br&gt;Location: 4715328 - 4716708" locus_tag="JNAJGP_22320" class="clusterblast-orf" id="dummy-7_q4_0_all"  />
<polygon points="366,40 440,40 445,35 440,30 366,30 366,40 " style="fill:#15d863; stroke-width:1; stroke:black; " description="&lt;b&gt;JNAJGP_22325&lt;/b&gt;&lt;br&gt;FAD dependent oxidoreductase domain-containing protein&lt;br&gt;Location: 4716704 - 4717856" locus_tag="JNAJGP_22325" class="clusterblast-orf" id="dummy-7_q5_0_all"  />
<polygon points="445,40 519,40 524,35 519,30 445,30 445,40 " style="fill:#3c15d8; stroke-width:1; stroke:black; " description="&lt;b&gt;JNAJGP_22330&lt;/b&gt;&lt;br&gt;acetylornithine deacetylase&lt;br&gt;Location: 4717852 - 4719010" locus_tag="JNAJGP_22330" class="clusterblast-orf" id="dummy-7_q6_0_all"  />
<polygon points="532,40 628,40 633,35 628,30 532,30 532,40 " style="fill:#d8158a; stroke-width:1; stroke:black; " description="&lt;b&gt;JNAJGP_22335&lt;/b&gt;&lt;br&gt;Glutarate-semialdehyde dehydrogenase Succinate-semialdehyde dehydrogenase [NADP+]&lt;br&gt;Location: 4719127 - 4720588" locus_tag="JNAJGP_22335" class="clusterblast-orf" id="dummy-7_q7_0_all"  />
<polygon points="634,40 703,40 708,35 703,30 634,30 634,40 " style="fill:#b1d815; stroke-width:1; stroke:black; " description="&lt;b&gt;JNAJGP_22340&lt;/b&gt;&lt;br&gt;tartrate dehydrogenase&lt;br&gt;Location: 4720601 - 4721687" locus_tag="JNAJGP_22340" class="clusterblast-orf" id="dummy-7_q8_0_all"  />
<polygon points="709,35 714,30 717,30 717,40 714,40 709,35 " style="fill:white; stroke-width:1; stroke:black; " description="&lt;b&gt;JNAJGP_22345&lt;/b&gt;&lt;br&gt;hypothetical protein&lt;br&gt;Location: 4721698 - 4721812" locus_tag="JNAJGP_22345" class="clusterblast-orf" id="dummy-7_q9_0_all"  />
<polygon points="717,35 722,30 780,30 780,40 722,40 717,35 " style="fill:#15d8d8; stroke-width:1; stroke:black; " description="&lt;b&gt;JNAJGP_22350&lt;/b&gt;&lt;br&gt;D-3-phosphoglycerate dehydrogenase&lt;br&gt;Location: 4721811 - 4722738" locus_tag="JNAJGP_22350" class="clusterblast-orf" id="dummy-7_q10_0_all"  />
</g>
<g label="NZ_CP011507" description="NZ_CP011507 (5418694-5431512): Pseudomonas trivialis strain IHBB745 chromosom... (100% of genes show similarity), hydrogen-cyanide" class="clusterblast-cluster"  >
<text x="5" y="70" class="clusterblast-acc"  >
<a xlink:href="https://antismash-db.secondarymetabolites.org/area?record=NZ_CP011507&amp;start=5418694&amp;end=5431512" target="_blank">NZ_CP011507 (5418694-5431512)</a>: Pseudomonas trivialis strain IHBB745 chromosom... (100% of genes show similarity), hydrogen-cyanide</text>
<line x1="10" y1="85" x2="778.0" y2="85" style="stroke-width:1; stroke:grey; "  />
</g>
<g id="a7_000"  >
<polygon points="0,90 61,90 66,85 61,80 0,80 0,90 " style="fill:#d81515; stroke-width:1; stroke:black; " description="&lt;b&gt;AA957_RS24650&lt;/b&gt;&lt;br&gt;ABC transporter permease&lt;br&gt;Location: 5420027 - 5420983&lt;br&gt;&lt;br&gt;&lt;b&gt;BlastP hit with JNAJGP_22300&lt;/b&gt;&lt;br&gt;Percentage identity: 98&lt;br&gt;Percentage coverage: 100&lt;br&gt;BLAST bit score: 574&lt;br&gt;E-value: 2.4e-207" locus_tag="AA957_RS24650" class="clusterblast-orf" id="dummy-7_h7_8_0"  />
</g>
<g id="a7_001"  >
<polygon points="65,90 120,90 125,85 120,80 65,80 65,90 " style="fill:#3cd815; stroke-width:1; stroke:black; " description="&lt;b&gt;AA957_RS24655&lt;/b&gt;&lt;br&gt;ABC transporter permease&lt;br&gt;Location: 5420980 - 5421855&lt;br&gt;&lt;br&gt;&lt;b&gt;BlastP hit with JNAJGP_22305&lt;/b&gt;&lt;br&gt;Percentage identity: 98&lt;br&gt;Percentage coverage: 100&lt;br&gt;BLAST bit score: 536&lt;br&gt;E-value: 1.82e-193" locus_tag="AA957_RS24655" class="clusterblast-orf" id="dummy-7_h7_8_1"  />
</g>
<g id="a7_002"  >
<polygon points="126,90 247,90 252,85 247,80 126,80 126,90 " style="fill:#1563d8; stroke-width:1; stroke:black; " description="&lt;b&gt;AA957_RS24660&lt;/b&gt;&lt;br&gt;ABC transporter ATP-binding protein&lt;br&gt;Location: 5421857 - 5423698&lt;br&gt;&lt;br&gt;&lt;b&gt;BlastP hit with JNAJGP_22310&lt;/b&gt;&lt;br&gt;Percentage identity: 93&lt;br&gt;Percentage coverage: 100&lt;br&gt;BLAST bit score: 1095&lt;br&gt;E-value: 0.0" locus_tag="AA957_RS24660" class="clusterblast-orf" id="dummy-7_h7_8_2"  />
</g>
<g id="a7_003"  >
<polygon points="252,90 268,90 273,85 268,80 252,80 252,90 " style="fill:#b115d8; stroke-width:1; stroke:black; " description="&lt;b&gt;AA957_RS24665&lt;/b&gt;&lt;br&gt;(2Fe-2S)-binding protein&lt;br&gt;Location: 5423695 - 5424003&lt;br&gt;&lt;br&gt;&lt;b&gt;BlastP hit with JNAJGP_22315&lt;/b&gt;&lt;br&gt;Percentage identity: 96&lt;br&gt;Percentage coverage: 100&lt;br&gt;BLAST bit score: 209&lt;br&gt;E-value: 3.03e-70" locus_tag="AA957_RS24665" class="clusterblast-orf" id="dummy-7_h7_8_3"  />
</g>
<g id="a7_004"  >
<polygon points="272,90 361,90 366,85 361,80 272,80 272,90 " style="fill:#d88a15; stroke-width:1; stroke:black; " description="&lt;b&gt;AA957_RS24670&lt;/b&gt;&lt;br&gt;FAD/NAD(P)-binding oxidoreductase&lt;br&gt;Location: 5423985 - 5425361&lt;br&gt;&lt;br&gt;&lt;b&gt;BlastP hit with JNAJGP_22320&lt;/b&gt;&lt;br&gt;Percentage identity: 95&lt;br&gt;Percentage coverage: 100&lt;br&gt;BLAST bit score: 853&lt;br&gt;E-value: 3.06e-313" locus_tag="AA957_RS24670" class="clusterblast-orf" id="dummy-7_h7_8_4"  />
</g>
<g id="a7_005"  >
<polygon points="366,90 440,90 445,85 440,80 366,80 366,90 " style="fill:#15d863; stroke-width:1; stroke:black; " description="&lt;b&gt;AA957_RS24675&lt;/b&gt;&lt;br&gt;FAD-binding oxidoreductase&lt;br&gt;Location: 5425358 - 5426512&lt;br&gt;&lt;br&gt;&lt;b&gt;BlastP hit with JNAJGP_22325&lt;/b&gt;&lt;br&gt;Percentage identity: 95&lt;br&gt;Percentage coverage: 100&lt;br&gt;BLAST bit score: 724&lt;br&gt;E-value: 1.41e-264" locus_tag="AA957_RS24675" class="clusterblast-orf" id="dummy-7_h7_8_5"  />
</g>
<g id="a7_006"  >
<polygon points="445,90 519,90 524,85 519,80 445,80 445,90 " style="fill:#3c15d8; stroke-width:1; stroke:black; " description="&lt;b&gt;AA957_RS24680&lt;/b&gt;&lt;br&gt;acetylornithine deacetylase&lt;br&gt;Location: 5426509 - 5427666&lt;br&gt;&lt;br&gt;&lt;b&gt;BlastP hit with JNAJGP_22330&lt;/b&gt;&lt;br&gt;Percentage identity: 95&lt;br&gt;Percentage coverage: 99&lt;br&gt;BLAST bit score: 716&lt;br&gt;E-value: 2.52e-261" locus_tag="AA957_RS24680" class="clusterblast-orf" id="dummy-7_h7_8_6"  />
</g>
<g id="a7_007"  >
<polygon points="532,90 627,90 632,85 627,80 532,80 532,90 " style="fill:#d8158a; stroke-width:1; stroke:black; " description="&lt;b&gt;AA957_RS24685&lt;/b&gt;&lt;br&gt;NAD-dependent succinate-semialdehyde dehydrogenase&lt;br&gt;Location: 5427784 - 5429244&lt;br&gt;&lt;br&gt;&lt;b&gt;BlastP hit with JNAJGP_22335&lt;/b&gt;&lt;br&gt;Percentage identity: 95&lt;br&gt;Percentage coverage: 100&lt;br&gt;BLAST bit score: 855&lt;br&gt;E-value: 6.38e-313" locus_tag="AA957_RS24685" class="clusterblast-orf" id="dummy-7_h7_8_7"  />
</g>
<g id="a7_008"  >
<polygon points="634,90 701,90 706,85 701,80 634,80 634,90 " style="fill:#b1d815; stroke-width:1; stroke:black; " description="&lt;b&gt;AA957_RS24690&lt;/b&gt;&lt;br&gt;tartrate dehydrogenase&lt;br&gt;Location: 5429265 - 5430317&lt;br&gt;&lt;br&gt;&lt;b&gt;BlastP hit with JNAJGP_22340&lt;/b&gt;&lt;br&gt;Percentage identity: 95&lt;br&gt;Percentage coverage: 96&lt;br&gt;BLAST bit score: 683&lt;br&gt;E-value: 2.33e-249" locus_tag="AA957_RS24690" class="clusterblast-orf" id="dummy-7_h7_8_8"  />
</g>
<g id="a7_009"  >
<polygon points="715,85 720,80 779,80 779,90 720,90 715,85 " style="fill:#15d8d8; stroke-width:1; stroke:black; " description="&lt;b&gt;AA957_RS24695&lt;/b&gt;&lt;br&gt;glyoxylate/hydroxypyruvate reductase A&lt;br&gt;Location: 5430452 - 5431378&lt;br&gt;&lt;br&gt;&lt;b&gt;BlastP hit with JNAJGP_22350&lt;/b&gt;&lt;br&gt;Percentage identity: 90&lt;br&gt;Percentage coverage: 100&lt;br&gt;BLAST bit score: 566&lt;br&gt;E-value: 8.74e-205" locus_tag="AA957_RS24695" class="clusterblast-orf" id="dummy-7_h7_8_9"  />
</g>
</svg>
