<svg xmlns="http://www.w3.org/2000/svg" xmlns:xlink="http://www.w3.org/1999/xlink" version="1.1" x="0" y="0" height="230" width="800" viewBox="0 0 800 230" preserveAspectRatio="none"  >
<g label="Query sequence" class="clusterblast-cluster"  >
<text x="5" y="20" class="clusterblast-acc"  >
Query sequence</text>
<line x1="10" y1="35" x2="778.0" y2="35" style="stroke-width:1; stroke:grey; "  />
<polygon points="0,40 32,40 37,35 32,30 0,30 0,40 " style="fill:#d81515; stroke-width:1; stroke:black; " description="&lt;b&gt;JNAJGP_24070&lt;/b&gt;&lt;br&gt;phage tail protein&lt;br&gt;Location: 5054663 - 5058125" locus_tag="JNAJGP_24070" class="clusterblast-orf" id="dummy-9_q0_0_all"  />
<polygon points="40,40 42,40 47,35 42,30 40,30 40,40 " style="fill:#5cd815; stroke-width:1; stroke:black; " description="&lt;b&gt;JNAJGP_24075&lt;/b&gt;&lt;br&gt;Phage tail protein&lt;br&gt;Location: 5058471 - 5059101" locus_tag="JNAJGP_24075" class="clusterblast-orf" id="dummy-9_q1_0_all"  />
<polygon points="48,40 51,40 56,35 51,30 48,30 48,40 " style="fill:#15c7d8; stroke-width:1; stroke:black; " description="&lt;b&gt;JNAJGP_24080&lt;/b&gt;&lt;br&gt;Phage tail protein&lt;br&gt;Location: 5059159 - 5059927" locus_tag="JNAJGP_24080" class="clusterblast-orf" id="dummy-9_q2_0_all"  />
<polygon points="56,40 59,35 56,30 56,40 " style="fill:white; stroke-width:1; stroke:black; " description="&lt;b&gt;JNAJGP_24085&lt;/b&gt;&lt;br&gt;hypothetical protein&lt;br&gt;Location: 5059926 - 5060217" locus_tag="JNAJGP_24085" class="clusterblast-orf" id="dummy-9_q3_0_all"  />
<polygon points="59,40 62,35 59,30 59,40 " style="fill:white; stroke-width:1; stroke:black; " description="&lt;b&gt;JNAJGP_24090&lt;/b&gt;&lt;br&gt;Phage tail protein&lt;br&gt;Location: 5060213 - 5060465" locus_tag="JNAJGP_24090" class="clusterblast-orf" id="dummy-9_q4_0_all"  />
<polygon points="62,40 63,40 68,35 63,30 62,30 62,40 " style="fill:#8015d8; stroke-width:1; stroke:black; " description="&lt;b&gt;JNAJGP_24095&lt;/b&gt;&lt;br&gt;Chitinase&lt;br&gt;Location: 5060520 - 5061054" locus_tag="JNAJGP_24095" class="clusterblast-orf" id="dummy-9_q5_0_all"  />
<polygon points="68,40 69,40 74,35 69,30 68,30 68,40 " style="fill:#d83915; stroke-width:1; stroke:black; " description="&lt;b&gt;JNAJGP_24100&lt;/b&gt;&lt;br&gt;Lysozyme&lt;br&gt;Location: 5061050 - 5061620" locus_tag="JNAJGP_24100" class="clusterblast-orf" id="dummy-9_q6_0_all"  />
<polygon points="73,35 76,30 76,40 73,35 " style="fill:white; stroke-width:1; stroke:black; " description="&lt;b&gt;JNAJGP_24105&lt;/b&gt;&lt;br&gt;NIPSNAP domain-containing protein&lt;br&gt;Location: 5061579 - 5061843" locus_tag="JNAJGP_24105" class="clusterblast-orf" id="dummy-9_q7_0_all"  />
<polygon points="77,35 81,30 81,40 77,35 " style="fill:#39d815; stroke-width:1; stroke:black; " description="&lt;b&gt;JNAJGP_24110&lt;/b&gt;&lt;br&gt;Lipoprotein&lt;br&gt;Location: 5061930 - 5062311" locus_tag="JNAJGP_24110" class="clusterblast-orf" id="dummy-9_q8_0_all"  />
<polygon points="86,40 91,40 96,35 91,30 86,30 86,40 " style="fill:#15a3d8; stroke-width:1; stroke:black; " description="&lt;b&gt;JNAJGP_24120&lt;/b&gt;&lt;br&gt;LysR family transcriptional regulator&lt;br&gt;Location: 5062760 - 5063663" locus_tag="JNAJGP_24120" class="clusterblast-orf" id="dummy-9_q9_0_all"  />
<polygon points="96,35 101,30 106,30 106,40 101,40 96,35 " style="fill:#a315d8; stroke-width:1; stroke:black; " description="&lt;b&gt;JNAJGP_24125&lt;/b&gt;&lt;br&gt;Cupin&lt;br&gt;Location: 5063700 - 5064642" locus_tag="JNAJGP_24125" class="clusterblast-orf" id="dummy-9_q10_0_all"  />
<polygon points="108,35 111,30 111,40 108,35 " style="fill:#d85c15; stroke-width:1; stroke:black; " description="&lt;b&gt;JNAJGP_24130&lt;/b&gt;&lt;br&gt;hypothetical protein&lt;br&gt;Location: 5064843 - 5065122" locus_tag="JNAJGP_24130" class="clusterblast-orf" id="dummy-9_q11_0_all"  />
<polygon points="113,35 118,30 136,30 136,40 118,40 113,35 " style="fill:#15d815; stroke-width:1; stroke:black; " description="&lt;b&gt;JNAJGP_24135&lt;/b&gt;&lt;br&gt;Ferric siderophore receptor&lt;br&gt;Location: 5065316 - 5067488" locus_tag="JNAJGP_24135" class="clusterblast-orf" id="dummy-9_q12_0_all"  />
<polygon points="138,35 143,30 148,30 148,40 143,40 138,35 " style="fill:#1580d8; stroke-width:1; stroke:black; " description="&lt;b&gt;JNAJGP_24140&lt;/b&gt;&lt;br&gt;Acyltransferase MbtK/IucB-like conserved domain-containing protein&lt;br&gt;Location: 5067586 - 5068606" locus_tag="JNAJGP_24140" class="clusterblast-orf" id="dummy-9_q13_0_all"  />
<polygon points="150,35 155,30 171,30 171,40 155,40 150,35 " style="fill:#c715d8; stroke-width:1; stroke:black; " description="&lt;b&gt;JNAJGP_24145&lt;/b&gt;&lt;br&gt;Fe(3+)-hydroxamate ABC transporter permease FhuB&lt;br&gt;Location: 5068765 - 5070754" locus_tag="JNAJGP_24145" class="clusterblast-orf" id="dummy-9_q14_0_all"  />
<polygon points="171,35 176,30 181,30 181,40 176,40 171,35 " style="fill:#d88015; stroke-width:1; stroke:black; " description="&lt;b&gt;JNAJGP_24150&lt;/b&gt;&lt;br&gt;Periplasmic binding protein&lt;br&gt;Location: 5070746 - 5071658" locus_tag="JNAJGP_24150" class="clusterblast-orf" id="dummy-9_q15_0_all"  />
<polygon points="183,40 196,40 201,35 196,30 183,30 183,40 " style="fill:#15d839; stroke-width:1; stroke:black; " description="&lt;b&gt;JNAJGP_24155&lt;/b&gt;&lt;br&gt;Putative ATP-binding cassette transporter&lt;br&gt;Location: 5071857 - 5073504" locus_tag="JNAJGP_24155" class="clusterblast-orf" id="dummy-9_q16_0_all"  />
<polygon points="203,40 205,40 210,35 205,30 203,30 203,40 " style="fill:#155cd8; stroke-width:1; stroke:black; " description="&lt;b&gt;JNAJGP_24160&lt;/b&gt;&lt;br&gt;Thioesterase&lt;br&gt;Location: 5073678 - 5074422" locus_tag="JNAJGP_24160" class="clusterblast-orf" id="dummy-9_q17_0_all"  />
<polygon points="211,40 216,40 221,35 216,30 211,30 211,40 " style="fill:#d815c7; stroke-width:1; stroke:black; " description="&lt;b&gt;JNAJGP_24165&lt;/b&gt;&lt;br&gt;TauD/TfdA-like domain-containing protein&lt;br&gt;Location: 5074461 - 5075442" locus_tag="JNAJGP_24165" class="clusterblast-orf" id="dummy-9_q18_0_all"  />
<polygon points="222,40 265,40 270,35 265,30 222,30 222,40 " style="fill:#d815c7; stroke-width:1; stroke:black; " description="&lt;b&gt;JNAJGP_24170&lt;/b&gt;&lt;br&gt;Non ribosomal peptide synthase&lt;br&gt;Location: 5075492 - 5079956" locus_tag="JNAJGP_24170" class="clusterblast-orf" id="dummy-9_q19_0_all"  />
<polygon points="270,40 298,40 303,35 298,30 270,30 270,40 " style="fill:#d815c7; stroke-width:1; stroke:black; " description="&lt;b&gt;JNAJGP_24175&lt;/b&gt;&lt;br&gt;Amino acid adenylation&lt;br&gt;Location: 5079967 - 5083114" locus_tag="JNAJGP_24175" class="clusterblast-orf" id="dummy-9_q20_0_all"  />
<polygon points="304,40 381,40 386,35 381,30 304,30 304,40 " style="fill:#d815c7; stroke-width:1; stroke:black; " description="&lt;b&gt;JNAJGP_24180&lt;/b&gt;&lt;br&gt;Carrier domain-containing protein&lt;br&gt;Location: 5083162 - 5090896" locus_tag="JNAJGP_24180" class="clusterblast-orf" id="dummy-9_q21_0_all"  />
<polygon points="386,40 513,40 518,35 513,30 386,30 386,40 " style="fill:#d815c7; stroke-width:1; stroke:black; " description="&lt;b&gt;JNAJGP_24185&lt;/b&gt;&lt;br&gt;non-ribosomal peptide synthetase&lt;br&gt;Location: 5090892 - 5103210" locus_tag="JNAJGP_24185" class="clusterblast-orf" id="dummy-9_q22_0_all"  />
<polygon points="518,40 556,40 561,35 556,30 518,30 518,40 " style="fill:#d815c7; stroke-width:1; stroke:black; " description="&lt;b&gt;JNAJGP_24190&lt;/b&gt;&lt;br&gt;Non-ribosomal peptide synthetase&lt;br&gt;Location: 5103211 - 5107270" locus_tag="JNAJGP_24190" class="clusterblast-orf" id="dummy-9_q23_0_all"  />
<polygon points="562,40 571,40 576,35 571,30 562,30 562,40 " style="fill:#d8a315; stroke-width:1; stroke:black; " description="&lt;b&gt;JNAJGP_24195&lt;/b&gt;&lt;br&gt;L-ornithine 5-monooxygenase&lt;br&gt;Location: 5107342 - 5108698" locus_tag="JNAJGP_24195" class="clusterblast-orf" id="dummy-9_q24_0_all"  />
<polygon points="577,40 580,40 585,35 580,30 577,30 577,40 " style="fill:#15d85c; stroke-width:1; stroke:black; " description="&lt;b&gt;JNAJGP_24200&lt;/b&gt;&lt;br&gt;siderophore-iron reductase FhuF&lt;br&gt;Location: 5108789 - 5109545" locus_tag="JNAJGP_24200" class="clusterblast-orf" id="dummy-9_q25_0_all"  />
<polygon points="586,35 591,30 594,30 594,40 591,40 586,35 " style="fill:#1539d8; stroke-width:1; stroke:black; " description="&lt;b&gt;JNAJGP_24205&lt;/b&gt;&lt;br&gt;Iron-hydroxamate transporter ATP-binding subunit&lt;br&gt;Location: 5109585 - 5110353" locus_tag="JNAJGP_24205" class="clusterblast-orf" id="dummy-9_q26_0_all"  />
<polygon points="596,35 599,30 599,40 596,35 " style="fill:white; stroke-width:1; stroke:black; " description="&lt;b&gt;JNAJGP_24210&lt;/b&gt;&lt;br&gt;hypothetical protein&lt;br&gt;Location: 5110578 - 5110803" locus_tag="JNAJGP_24210" class="clusterblast-orf" id="dummy-9_q27_0_all"  />
<polygon points="601,40 603,40 608,35 603,30 601,30 601,40 " style="fill:#d815a3; stroke-width:1; stroke:black; " description="&lt;b&gt;JNAJGP_24215&lt;/b&gt;&lt;br&gt;Lipoprotein&lt;br&gt;Location: 5110983 - 5111682" locus_tag="JNAJGP_24215" class="clusterblast-orf" id="dummy-9_q28_0_all"  />
<polygon points="609,40 612,35 609,30 609,40 " style="fill:#d8c715; stroke-width:1; stroke:black; " description="&lt;b&gt;JNAJGP_24220&lt;/b&gt;&lt;br&gt;EAL domain-containing protein&lt;br&gt;Location: 5111807 - 5112086" locus_tag="JNAJGP_24220" class="clusterblast-orf" id="dummy-9_q29_0_all"  />
<polygon points="613,40 622,40 627,35 622,30 613,30 613,40 " style="fill:#15d880; stroke-width:1; stroke:black; " description="&lt;b&gt;JNAJGP_24225&lt;/b&gt;&lt;br&gt;Methyl-accepting chemotaxis protein (2 PAS,MCP domains)&lt;br&gt;Location: 5112170 - 5113484" locus_tag="JNAJGP_24225" class="clusterblast-orf" id="dummy-9_q30_0_all"  />
<polygon points="630,40 647,40 652,35 647,30 630,30 630,40 " style="fill:#1515d8; stroke-width:1; stroke:black; " description="&lt;b&gt;JNAJGP_24230&lt;/b&gt;&lt;br&gt;Outer membrane siderophore receptor&lt;br&gt;Location: 5113706 - 5115821" locus_tag="JNAJGP_24230" class="clusterblast-orf" id="dummy-9_q31_0_all"  />
<polygon points="652,35 657,30 672,30 672,40 657,40 652,35 " style="fill:#d81580; stroke-width:1; stroke:black; " description="&lt;b&gt;JNAJGP_24235&lt;/b&gt;&lt;br&gt;Sigma-54 factor interaction domain-containing protein&lt;br&gt;Location: 5115830 - 5117648" locus_tag="JNAJGP_24235" class="clusterblast-orf" id="dummy-9_q32_0_all"  />
<polygon points="675,40 681,40 686,35 681,30 675,30 675,40 " style="fill:#c7d815; stroke-width:1; stroke:black; " description="&lt;b&gt;JNAJGP_24240&lt;/b&gt;&lt;br&gt;sn-glycerol-3-phosphate import ATP-binding protein UgpC&lt;br&gt;Location: 5117939 - 5119034" locus_tag="JNAJGP_24240" class="clusterblast-orf" id="dummy-9_q33_0_all"  />
<polygon points="686,40 693,40 698,35 693,30 686,30 686,40 " style="fill:#15d8a3; stroke-width:1; stroke:black; " description="&lt;b&gt;JNAJGP_24245&lt;/b&gt;&lt;br&gt;ABC transporter ATP-binding protein&lt;br&gt;Location: 5119033 - 5120131" locus_tag="JNAJGP_24245" class="clusterblast-orf" id="dummy-9_q34_0_all"  />
<polygon points="698,40 702,40 707,35 702,30 698,30 698,40 " style="fill:#3915d8; stroke-width:1; stroke:black; " description="&lt;b&gt;JNAJGP_24250&lt;/b&gt;&lt;br&gt;ABC-type sugar transport system, permease component&lt;br&gt;Location: 5120127 - 5120994" locus_tag="JNAJGP_24250" class="clusterblast-orf" id="dummy-9_q35_0_all"  />
<polygon points="708,40 711,40 716,35 711,30 708,30 708,40 " style="fill:#d8155c; stroke-width:1; stroke:black; " description="&lt;b&gt;JNAJGP_24255&lt;/b&gt;&lt;br&gt;ABC-type glycerol-3-phosphate transport system, permease component&lt;br&gt;Location: 5121004 - 5121805" locus_tag="JNAJGP_24255" class="clusterblast-orf" id="dummy-9_q36_0_all"  />
<polygon points="716,40 719,35 716,30 716,40 " style="fill:#a3d815; stroke-width:1; stroke:black; " description="&lt;b&gt;JNAJGP_24260&lt;/b&gt;&lt;br&gt;Small integral membrane protein&lt;br&gt;Location: 5121815 - 5122088" locus_tag="JNAJGP_24260" class="clusterblast-orf" id="dummy-9_q37_0_all"  />
<polygon points="719,40 733,40 738,35 733,30 719,30 719,40 " style="fill:#15d8c7; stroke-width:1; stroke:black; " description="&lt;b&gt;JNAJGP_24265&lt;/b&gt;&lt;br&gt;ABC transporter substrate-binding protein&lt;br&gt;Location: 5122120 - 5123863" locus_tag="JNAJGP_24265" class="clusterblast-orf" id="dummy-9_q38_0_all"  />
<polygon points="743,40 752,40 757,35 752,30 743,30 743,40 " style="fill:#5c15d8; stroke-width:1; stroke:black; " description="&lt;b&gt;JNAJGP_24270&lt;/b&gt;&lt;br&gt;Iron-containing redox enzyme family protein&lt;br&gt;Location: 5124300 - 5125680" locus_tag="JNAJGP_24270" class="clusterblast-orf" id="dummy-9_q39_0_all"  />
<polygon points="758,40 763,40 768,35 763,30 758,30 758,40 " style="fill:#d81539; stroke-width:1; stroke:black; " description="&lt;b&gt;JNAJGP_24275&lt;/b&gt;&lt;br&gt;Release factor glutamine methyltransferase&lt;br&gt;Location: 5125690 - 5126635" locus_tag="JNAJGP_24275" class="clusterblast-orf" id="dummy-9_q40_0_all"  />
<polygon points="768,40 775,40 780,35 775,30 768,30 768,40 " style="fill:#80d815; stroke-width:1; stroke:black; " description="&lt;b&gt;JNAJGP_24280&lt;/b&gt;&lt;br&gt;carboxylate-amine ligase&lt;br&gt;Location: 5126641 - 5127760" locus_tag="JNAJGP_24280" class="clusterblast-orf" id="dummy-9_q41_0_all"  />
</g>
<g label="NZ_CM001025" description="NZ_CM001025 (3753640-3809747): Pseudomonas fluorescens WH6 chromosome, whole ... (65% of genes show similarity), NRP-metallophore,NRPS" class="clusterblast-cluster"  >
<text x="5" y="70" class="clusterblast-acc"  >
<a xlink:href="https://antismash-db.secondarymetabolites.org/area?record=NZ_CM001025&amp;start=3753640&amp;end=3809747" target="_blank">NZ_CM001025 (3753640-3809747)</a>: Pseudomonas fluorescens WH6 chromosome, whole ... (65% of genes show similarity), NRP-metallophore,NRPS</text>
<line x1="10" y1="85" x2="778.0" y2="85" style="stroke-width:1; stroke:grey; "  />
</g>
<g id="a9_000"  >
<polygon points="93,85 98,80 99,80 99,90 98,90 93,85 " style="fill:white; stroke-width:1; stroke:black; " description="&lt;b&gt;PFWH6_RS17125&lt;/b&gt;&lt;br&gt;DUF2062 domain-containing protein&lt;br&gt;Location: 3809648 - 3809133" locus_tag="PFWH6_RS17125" class="clusterblast-orf" id="dummy-9_h9_3_0"  />
</g>
<g id="a9_001"  >
<polygon points="100,90 119,90 124,85 119,80 100,80 100,90 " style="fill:white; stroke-width:1; stroke:black; " description="&lt;b&gt;PFWH6_RS17120&lt;/b&gt;&lt;br&gt;DNA internalization-related competence protein ComEC/Rec2&lt;br&gt;Location: 3808985 - 3806772" locus_tag="PFWH6_RS17120" class="clusterblast-orf" id="dummy-9_h9_3_1"  />
</g>
<g id="a9_002"  >
<polygon points="128,90 130,90 135,85 130,80 128,80 128,90 " style="fill:white; stroke-width:1; stroke:black; " description="&lt;b&gt;PFWH6_RS17115&lt;/b&gt;&lt;br&gt;MotA/TolQ/ExbB proton channel family protein&lt;br&gt;Location: 3806395 - 3805760" locus_tag="PFWH6_RS17115" class="clusterblast-orf" id="dummy-9_h9_3_2"  />
</g>
<g id="a9_003"  >
<polygon points="134,90 134,90 139,85 134,80 134,80 134,90 " style="fill:white; stroke-width:1; stroke:black; " description="&lt;b&gt;PFWH6_RS17110&lt;/b&gt;&lt;br&gt;biopolymer transporter ExbD&lt;br&gt;Location: 3805763 - 3805335" locus_tag="PFWH6_RS17110" class="clusterblast-orf" id="dummy-9_h9_3_3"  />
</g>
<g id="a9_004"  >
<polygon points="139,90 145,90 150,85 145,80 139,80 139,90 " style="fill:white; stroke-width:1; stroke:black; " description="&lt;b&gt;PFWH6_RS17105&lt;/b&gt;&lt;br&gt;tetraacyldisaccharide 4'-kinase&lt;br&gt;Location: 3805335 - 3804325" locus_tag="PFWH6_RS17105" class="clusterblast-orf" id="dummy-9_h9_3_4"  />
</g>
<g id="a9_005"  >
<polygon points="150,90 152,85 150,80 150,90 " style="fill:white; stroke-width:1; stroke:black; " description="&lt;b&gt;PFWH6_RS17100&lt;/b&gt;&lt;br&gt;Trm112 family protein&lt;br&gt;Location: 3804301 - 3804116" locus_tag="PFWH6_RS17100" class="clusterblast-orf" id="dummy-9_h9_3_5"  />
</g>
<g id="a9_006"  >
<polygon points="152,90 155,90 160,85 155,80 152,80 152,90 " style="fill:white; stroke-width:1; stroke:black; " description="&lt;b&gt;PFWH6_RS17095&lt;/b&gt;&lt;br&gt;3-deoxy-manno-octulosonate cytidylyltransferase&lt;br&gt;Location: 3804119 - 3803355" locus_tag="PFWH6_RS17095" class="clusterblast-orf" id="dummy-9_h9_3_6"  />
</g>
<g id="a9_007"  >
<polygon points="160,90 160,90 165,85 160,80 160,80 160,90 " style="fill:white; stroke-width:1; stroke:black; " description="&lt;b&gt;PFWH6_RS17090&lt;/b&gt;&lt;br&gt;low molecular weight phosphotyrosine protein phosphatase&lt;br&gt;Location: 3803355 - 3802891" locus_tag="PFWH6_RS17090" class="clusterblast-orf" id="dummy-9_h9_3_7"  />
</g>
<g id="a9_008"  >
<polygon points="165,90 171,90 176,85 171,80 165,80 165,90 " style="fill:white; stroke-width:1; stroke:black; " description="&lt;b&gt;PFWH6_RS17085&lt;/b&gt;&lt;br&gt;UDP-N-acetylmuramate dehydrogenase&lt;br&gt;Location: 3802894 - 3801875" locus_tag="PFWH6_RS17085" class="clusterblast-orf" id="dummy-9_h9_3_8"  />
</g>
<g id="a9_009"  >
<polygon points="177,85 182,80 184,80 184,90 182,90 177,85 " style="fill:white; stroke-width:1; stroke:black; " description="&lt;b&gt;PFWH6_RS17080&lt;/b&gt;&lt;br&gt;Bax inhibitor-1/YccA family protein&lt;br&gt;Location: 3801793 - 3801122" locus_tag="PFWH6_RS17080" class="clusterblast-orf" id="dummy-9_h9_3_9"  />
</g>
<g id="a9_0010"  >
<polygon points="188,90 190,85 188,80 188,90 " style="fill:#15a3d8; stroke-width:1; stroke:black; " description="&lt;b&gt;PFWH6_RS29370&lt;/b&gt;&lt;br&gt;LysR family transcriptional regulator&lt;br&gt;Location: 3800702 - 3800574&lt;br&gt;&lt;br&gt;&lt;b&gt;BlastP hit with JNAJGP_24120&lt;/b&gt;&lt;br&gt;Percentage identity: 100&lt;br&gt;Percentage coverage: 14&lt;br&gt;BLAST bit score: 82&lt;br&gt;E-value: 5.16e-18" locus_tag="PFWH6_RS29370" class="clusterblast-orf" id="dummy-9_h9_3_10"  />
</g>
<g id="a9_0011"  >
<polygon points="191,85 196,80 201,80 201,90 196,90 191,85 " style="fill:#a315d8; stroke-width:1; stroke:black; " description="&lt;b&gt;PFWH6_RS17070&lt;/b&gt;&lt;br&gt;hypothetical protein&lt;br&gt;Location: 3800509 - 3799568&lt;br&gt;&lt;br&gt;&lt;b&gt;BlastP hit with JNAJGP_24125&lt;/b&gt;&lt;br&gt;Percentage identity: 99&lt;br&gt;Percentage coverage: 100&lt;br&gt;BLAST bit score: 640&lt;br&gt;E-value: 6.95e-234" locus_tag="PFWH6_RS17070" class="clusterblast-orf" id="dummy-9_h9_3_11"  />
</g>
<g id="a9_0012"  >
<polygon points="203,85 206,80 206,90 203,85 " style="fill:#d85c15; stroke-width:1; stroke:black; " description="&lt;b&gt;PFWH6_RS29950&lt;/b&gt;&lt;br&gt;hypothetical protein&lt;br&gt;Location: 3799366 - 3799088&lt;br&gt;&lt;br&gt;&lt;b&gt;BlastP hit with JNAJGP_24130&lt;/b&gt;&lt;br&gt;Percentage identity: 98&lt;br&gt;Percentage coverage: 100&lt;br&gt;BLAST bit score: 175&lt;br&gt;E-value: 7.91e-57" locus_tag="PFWH6_RS29950" class="clusterblast-orf" id="dummy-9_h9_3_12"  />
</g>
<g id="a9_0013"  >
<polygon points="208,85 213,80 231,80 231,90 213,90 208,85 " style="fill:#15d815; stroke-width:1; stroke:black; " description="&lt;b&gt;PFWH6_RS17065&lt;/b&gt;&lt;br&gt;TonB-dependent siderophore receptor&lt;br&gt;Location: 3798893 - 3796722&lt;br&gt;&lt;br&gt;&lt;b&gt;BlastP hit with JNAJGP_24135&lt;/b&gt;&lt;br&gt;Percentage identity: 98&lt;br&gt;Percentage coverage: 100&lt;br&gt;BLAST bit score: 1430&lt;br&gt;E-value: 0.0" locus_tag="PFWH6_RS17065" class="clusterblast-orf" id="dummy-9_h9_3_13"  />
</g>
<g id="a9_0014"  >
<polygon points="232,85 237,80 243,80 243,90 237,90 232,85 " style="fill:#1580d8; stroke-width:1; stroke:black; " description="&lt;b&gt;PFWH6_RS17060&lt;/b&gt;&lt;br&gt;GNAT family N-acetyltransferase&lt;br&gt;Location: 3796623 - 3795604&lt;br&gt;&lt;br&gt;&lt;b&gt;BlastP hit with JNAJGP_24140&lt;/b&gt;&lt;br&gt;Percentage identity: 100&lt;br&gt;Percentage coverage: 100&lt;br&gt;BLAST bit score: 710&lt;br&gt;E-value: 1.91e-260" locus_tag="PFWH6_RS17060" class="clusterblast-orf" id="dummy-9_h9_3_14"  />
</g>
<g id="a9_0015"  >
<polygon points="245,85 250,80 266,80 266,90 250,90 245,85 " style="fill:#c715d8; stroke-width:1; stroke:black; " description="&lt;b&gt;PFWH6_RS17055&lt;/b&gt;&lt;br&gt;Fe(3+)-hydroxamate ABC transporter permease FhuB&lt;br&gt;Location: 3795443 - 3793455&lt;br&gt;&lt;br&gt;&lt;b&gt;BlastP hit with JNAJGP_24145&lt;/b&gt;&lt;br&gt;Percentage identity: 100&lt;br&gt;Percentage coverage: 100&lt;br&gt;BLAST bit score: 1189&lt;br&gt;E-value: 0.0" locus_tag="PFWH6_RS17055" class="clusterblast-orf" id="dummy-9_h9_3_15"  />
</g>
<g id="a9_0016"  >
<polygon points="266,85 271,80 275,80 275,90 271,90 266,85 " style="fill:#d88015; stroke-width:1; stroke:black; " description="&lt;b&gt;PFWH6_RS17050&lt;/b&gt;&lt;br&gt;ABC transporter substrate-binding protein&lt;br&gt;Location: 3793462 - 3792551&lt;br&gt;&lt;br&gt;&lt;b&gt;BlastP hit with JNAJGP_24150&lt;/b&gt;&lt;br&gt;Percentage identity: 100&lt;br&gt;Percentage coverage: 100&lt;br&gt;BLAST bit score: 591&lt;br&gt;E-value: 1.04e-214" locus_tag="PFWH6_RS17050" class="clusterblast-orf" id="dummy-9_h9_3_16"  />
</g>
<g id="a9_0017"  >
<polygon points="278,90 279,85 278,80 278,90 " style="fill:white; stroke-width:1; stroke:black; " description="&lt;b&gt;PFWH6_RS30515&lt;/b&gt;&lt;br&gt;hypothetical protein&lt;br&gt;Location: 3792351 - 3792181" locus_tag="PFWH6_RS30515" class="clusterblast-orf" id="dummy-9_h9_3_17"  />
</g>
<g id="a9_0018"  >
<polygon points="279,90 290,90 295,85 290,80 279,80 279,90 " style="fill:#15d839; stroke-width:1; stroke:black; " description="&lt;b&gt;PFWH6_RS17045&lt;/b&gt;&lt;br&gt;cyclic peptide export ABC transporter&lt;br&gt;Location: 3792214 - 3790706&lt;br&gt;&lt;br&gt;&lt;b&gt;BlastP hit with JNAJGP_24155&lt;/b&gt;&lt;br&gt;Percentage identity: 100&lt;br&gt;Percentage coverage: 92&lt;br&gt;BLAST bit score: 962&lt;br&gt;E-value: 0.0" locus_tag="PFWH6_RS17045" class="clusterblast-orf" id="dummy-9_h9_3_18"  />
</g>
<g id="a9_0019"  >
<polygon points="297,90 300,90 305,85 300,80 297,80 297,90 " style="fill:#155cd8; stroke-width:1; stroke:black; " description="&lt;b&gt;PFWH6_RS17040&lt;/b&gt;&lt;br&gt;alpha/beta fold hydrolase&lt;br&gt;Location: 3790530 - 3789787&lt;br&gt;&lt;br&gt;&lt;b&gt;BlastP hit with JNAJGP_24160&lt;/b&gt;&lt;br&gt;Percentage identity: 98&lt;br&gt;Percentage coverage: 100&lt;br&gt;BLAST bit score: 478&lt;br&gt;E-value: 6.37e-172" locus_tag="PFWH6_RS17040" class="clusterblast-orf" id="dummy-9_h9_3_19"  />
</g>
<g id="a9_0020"  >
<polygon points="305,90 311,90 316,85 311,80 305,80 305,90 " style="fill:#d815c7; stroke-width:1; stroke:black; " description="&lt;b&gt;PFWH6_RS17035&lt;/b&gt;&lt;br&gt;TauD/TfdA family dioxygenase&lt;br&gt;Location: 3789747 - 3788767&lt;br&gt;&lt;br&gt;&lt;b&gt;BlastP hit with JNAJGP_24165&lt;/b&gt;&lt;br&gt;Percentage identity: 99&lt;br&gt;Percentage coverage: 100&lt;br&gt;BLAST bit score: 665&lt;br&gt;E-value: 4.76e-243" locus_tag="PFWH6_RS17035" class="clusterblast-orf" id="dummy-9_h9_3_20"  />
</g>
<g id="a9_0021"  >
<polygon points="316,90 340,90 345,85 340,80 316,80 316,90 " style="fill:#d815c7; stroke-width:1; stroke:black; " description="&lt;b&gt;PFWH6_RS30510&lt;/b&gt;&lt;br&gt;AMP-binding protein&lt;br&gt;Location: 3788716 - 3786008&lt;br&gt;&lt;br&gt;&lt;b&gt;BlastP hit with JNAJGP_24170&lt;/b&gt;&lt;br&gt;Percentage identity: 99&lt;br&gt;Percentage coverage: 60&lt;br&gt;BLAST bit score: 1725&lt;br&gt;E-value: 0.0" locus_tag="PFWH6_RS30510" class="clusterblast-orf" id="dummy-9_h9_3_21"  />
</g>
<g id="a9_0022"  >
<polygon points="345,90 359,90 364,85 359,80 345,80 345,90 " style="fill:#d815c7; stroke-width:1; stroke:black; " description="&lt;b&gt;PFWH6_RS30505&lt;/b&gt;&lt;br&gt;TauD/TfdA family dioxygenase&lt;br&gt;Location: 3786011 - 3784254&lt;br&gt;&lt;br&gt;&lt;b&gt;BlastP hit with JNAJGP_24165&lt;/b&gt;&lt;br&gt;Percentage identity: 44&lt;br&gt;Percentage coverage: 94&lt;br&gt;BLAST bit score: 264&lt;br&gt;E-value: 7.54e-82&lt;br&gt;&lt;br&gt;&lt;b&gt;BlastP hit with JNAJGP_24170&lt;/b&gt;&lt;br&gt;Percentage identity: 100&lt;br&gt;Percentage coverage: 39&lt;br&gt;BLAST bit score: 1182&lt;br&gt;E-value: 0.0" locus_tag="PFWH6_RS30505" class="clusterblast-orf" id="dummy-9_h9_3_22"  />
</g>
<g id="a9_0023"  >
<polygon points="364,90 393,90 398,85 393,80 364,80 364,90 " style="fill:#d815c7; stroke-width:1; stroke:black; " description="&lt;b&gt;PFWH6_RS17025&lt;/b&gt;&lt;br&gt;non-ribosomal peptide synthetase&lt;br&gt;Location: 3784242 - 3781096&lt;br&gt;&lt;br&gt;&lt;b&gt;BlastP hit with JNAJGP_24175&lt;/b&gt;&lt;br&gt;Percentage identity: 98&lt;br&gt;Percentage coverage: 100&lt;br&gt;BLAST bit score: 2009&lt;br&gt;E-value: 0.0" locus_tag="PFWH6_RS17025" class="clusterblast-orf" id="dummy-9_h9_3_23"  />
</g>
<g id="a9_0024"  >
<polygon points="398,90 409,90 414,85 409,80 398,80 398,90 " style="fill:white; stroke-width:1; stroke:black; " description="&lt;b&gt;PFWH6_RS17020&lt;/b&gt;&lt;br&gt;condensation domain-containing protein&lt;br&gt;Location: 3781047 - 3779602" locus_tag="PFWH6_RS17020" class="clusterblast-orf" id="dummy-9_h9_3_24"  />
</g>
<g id="a9_0025"  >
<polygon points="415,90 419,85 415,80 415,90 " style="fill:white; stroke-width:1; stroke:black; " description="&lt;b&gt;PFWH6_RS17015&lt;/b&gt;&lt;br&gt;phosphopantetheine-binding protein&lt;br&gt;Location: 3779500 - 3779129" locus_tag="PFWH6_RS17015" class="clusterblast-orf" id="dummy-9_h9_3_25"  />
</g>
<g id="a9_0026"  >
<polygon points="419,90 457,90 462,85 457,80 419,80 419,90 " style="fill:#d815c7; stroke-width:1; stroke:black; " description="&lt;b&gt;PFWH6_RS17010&lt;/b&gt;&lt;br&gt;non-ribosomal peptide synthetase&lt;br&gt;Location: 3779127 - 3775069&lt;br&gt;&lt;br&gt;&lt;b&gt;BlastP hit with JNAJGP_24175&lt;/b&gt;&lt;br&gt;Percentage identity: 34&lt;br&gt;Percentage coverage: 87&lt;br&gt;BLAST bit score: 313&lt;br&gt;E-value: 3.33e-87&lt;br&gt;&lt;br&gt;&lt;b&gt;BlastP hit with JNAJGP_24190&lt;/b&gt;&lt;br&gt;Percentage identity: 98&lt;br&gt;Percentage coverage: 100&lt;br&gt;BLAST bit score: 2611&lt;br&gt;E-value: 0.0" locus_tag="PFWH6_RS17010" class="clusterblast-orf" id="dummy-9_h9_3_26"  />
</g>
<g id="a9_0027"  >
<polygon points="463,90 472,90 477,85 472,80 463,80 463,90 " style="fill:#d8a315; stroke-width:1; stroke:black; " description="&lt;b&gt;PFWH6_RS17005&lt;/b&gt;&lt;br&gt;SidA/IucD/PvdA family monooxygenase&lt;br&gt;Location: 3774996 - 3773641&lt;br&gt;&lt;br&gt;&lt;b&gt;BlastP hit with JNAJGP_24195&lt;/b&gt;&lt;br&gt;Percentage identity: 98&lt;br&gt;Percentage coverage: 100&lt;br&gt;BLAST bit score: 861&lt;br&gt;E-value: 1.62e-316" locus_tag="PFWH6_RS17005" class="clusterblast-orf" id="dummy-9_h9_3_27"  />
</g>
<g id="a9_0028"  >
<polygon points="478,90 481,90 486,85 481,80 478,80 478,90 " style="fill:#15d85c; stroke-width:1; stroke:black; " description="&lt;b&gt;PFWH6_RS17000&lt;/b&gt;&lt;br&gt;siderophore-iron reductase FhuF&lt;br&gt;Location: 3773549 - 3772794&lt;br&gt;&lt;br&gt;&lt;b&gt;BlastP hit with JNAJGP_24200&lt;/b&gt;&lt;br&gt;Percentage identity: 98&lt;br&gt;Percentage coverage: 100&lt;br&gt;BLAST bit score: 498&lt;br&gt;E-value: 1.45e-179" locus_tag="PFWH6_RS17000" class="clusterblast-orf" id="dummy-9_h9_3_28"  />
</g>
<g id="a9_0029"  >
<polygon points="487,85 492,80 494,80 494,90 492,90 487,85 " style="fill:#1539d8; stroke-width:1; stroke:black; " description="&lt;b&gt;PFWH6_RS16995&lt;/b&gt;&lt;br&gt;ATP-binding cassette domain-containing protein&lt;br&gt;Location: 3772753 - 3772044&lt;br&gt;&lt;br&gt;&lt;b&gt;BlastP hit with JNAJGP_24205&lt;/b&gt;&lt;br&gt;Percentage identity: 96&lt;br&gt;Percentage coverage: 20&lt;br&gt;BLAST bit score: 96&lt;br&gt;E-value: 2.01e-23" locus_tag="PFWH6_RS16995" class="clusterblast-orf" id="dummy-9_h9_3_29"  />
</g>
<g id="a9_0030"  >
<polygon points="498,90 505,90 510,85 505,80 498,80 498,90 " style="fill:white; stroke-width:1; stroke:black; " description="&lt;b&gt;PFWH6_RS29945&lt;/b&gt;&lt;br&gt;hypothetical protein&lt;br&gt;Location: 3771684 - 3770560" locus_tag="PFWH6_RS29945" class="clusterblast-orf" id="dummy-9_h9_3_30"  />
</g>
<g id="a9_0031"  >
<polygon points="528,90 531,90 536,85 531,80 528,80 528,90 " style="fill:#d815a3; stroke-width:1; stroke:black; " description="&lt;b&gt;PFWH6_RS16990&lt;/b&gt;&lt;br&gt;hypothetical protein&lt;br&gt;Location: 3768865 - 3768116&lt;br&gt;&lt;br&gt;&lt;b&gt;BlastP hit with JNAJGP_24215&lt;/b&gt;&lt;br&gt;Percentage identity: 99&lt;br&gt;Percentage coverage: 100&lt;br&gt;BLAST bit score: 448&lt;br&gt;E-value: 4.11e-160" locus_tag="PFWH6_RS16990" class="clusterblast-orf" id="dummy-9_h9_3_31"  />
</g>
<g id="a9_0032"  >
<polygon points="538,90 541,85 538,80 538,90 " style="fill:#d8c715; stroke-width:1; stroke:black; " description="&lt;b&gt;PFWH6_RS16985&lt;/b&gt;&lt;br&gt;hypothetical protein&lt;br&gt;Location: 3767989 - 3767711&lt;br&gt;&lt;br&gt;&lt;b&gt;BlastP hit with JNAJGP_24220&lt;/b&gt;&lt;br&gt;Percentage identity: 100&lt;br&gt;Percentage coverage: 100&lt;br&gt;BLAST bit score: 184&lt;br&gt;E-value: 1.21e-60" locus_tag="PFWH6_RS16985" class="clusterblast-orf" id="dummy-9_h9_3_32"  />
</g>
<g id="a9_0033"  >
<polygon points="541,90 550,90 555,85 550,80 541,80 541,90 " style="fill:#15d880; stroke-width:1; stroke:black; " description="&lt;b&gt;PFWH6_RS16980&lt;/b&gt;&lt;br&gt;methyl-accepting chemotaxis protein&lt;br&gt;Location: 3767626 - 3766313&lt;br&gt;&lt;br&gt;&lt;b&gt;BlastP hit with JNAJGP_24225&lt;/b&gt;&lt;br&gt;Percentage identity: 99&lt;br&gt;Percentage coverage: 100&lt;br&gt;BLAST bit score: 818&lt;br&gt;E-value: 5.98e-300" locus_tag="PFWH6_RS16980" class="clusterblast-orf" id="dummy-9_h9_3_33"  />
</g>
<g id="a9_0034"  >
<polygon points="558,90 576,90 581,85 576,80 558,80 558,90 " style="fill:#1515d8; stroke-width:1; stroke:black; " description="&lt;b&gt;PFWH6_RS16975&lt;/b&gt;&lt;br&gt;TonB-dependent receptor&lt;br&gt;Location: 3766054 - 3763937&lt;br&gt;&lt;br&gt;&lt;b&gt;BlastP hit with JNAJGP_24230&lt;/b&gt;&lt;br&gt;Percentage identity: 96&lt;br&gt;Percentage coverage: 100&lt;br&gt;BLAST bit score: 1364&lt;br&gt;E-value: 0.0" locus_tag="PFWH6_RS16975" class="clusterblast-orf" id="dummy-9_h9_3_34"  />
</g>
<g id="a9_0035"  >
<polygon points="581,85 586,80 600,80 600,90 586,90 581,85 " style="fill:#d81580; stroke-width:1; stroke:black; " description="&lt;b&gt;PFWH6_RS16970&lt;/b&gt;&lt;br&gt;sigma-54-dependent Fis family transcriptional regulator&lt;br&gt;Location: 3763927 - 3762110&lt;br&gt;&lt;br&gt;&lt;b&gt;BlastP hit with JNAJGP_24235&lt;/b&gt;&lt;br&gt;Percentage identity: 100&lt;br&gt;Percentage coverage: 100&lt;br&gt;BLAST bit score: 1188&lt;br&gt;E-value: 0.0" locus_tag="PFWH6_RS16970" class="clusterblast-orf" id="dummy-9_h9_3_35"  />
</g>
<g id="a9_0036"  >
<polygon points="603,90 610,90 615,85 610,80 603,80 603,90 " style="fill:#c7d815; stroke-width:1; stroke:black; " description="&lt;b&gt;PFWH6_RS16965&lt;/b&gt;&lt;br&gt;ABC transporter ATP-binding protein&lt;br&gt;Location: 3761820 - 3760726&lt;br&gt;&lt;br&gt;&lt;b&gt;BlastP hit with JNAJGP_24240&lt;/b&gt;&lt;br&gt;Percentage identity: 100&lt;br&gt;Percentage coverage: 100&lt;br&gt;BLAST bit score: 711&lt;br&gt;E-value: 3.32e-260" locus_tag="PFWH6_RS16965" class="clusterblast-orf" id="dummy-9_h9_3_36"  />
</g>
<g id="a9_0037"  >
<polygon points="615,90 622,90 627,85 622,80 615,80 615,90 " style="fill:#15d8a3; stroke-width:1; stroke:black; " description="&lt;b&gt;PFWH6_RS16960&lt;/b&gt;&lt;br&gt;ABC transporter ATP-binding protein&lt;br&gt;Location: 3760726 - 3759629&lt;br&gt;&lt;br&gt;&lt;b&gt;BlastP hit with JNAJGP_24245&lt;/b&gt;&lt;br&gt;Percentage identity: 99&lt;br&gt;Percentage coverage: 100&lt;br&gt;BLAST bit score: 725&lt;br&gt;E-value: 1.66e-265" locus_tag="PFWH6_RS16960" class="clusterblast-orf" id="dummy-9_h9_3_37"  />
</g>
<g id="a9_0038"  >
<polygon points="627,90 631,90 636,85 631,80 627,80 627,90 " style="fill:#3915d8; stroke-width:1; stroke:black; " description="&lt;b&gt;PFWH6_RS16955&lt;/b&gt;&lt;br&gt;sugar ABC transporter permease&lt;br&gt;Location: 3759632 - 3758766&lt;br&gt;&lt;br&gt;&lt;b&gt;BlastP hit with JNAJGP_24250&lt;/b&gt;&lt;br&gt;Percentage identity: 100&lt;br&gt;Percentage coverage: 100&lt;br&gt;BLAST bit score: 572&lt;br&gt;E-value: 1.36e-207" locus_tag="PFWH6_RS16955" class="clusterblast-orf" id="dummy-9_h9_3_38"  />
</g>
<g id="a9_0039"  >
<polygon points="636,90 640,90 645,85 640,80 636,80 636,90 " style="fill:#d8155c; stroke-width:1; stroke:black; " description="&lt;b&gt;PFWH6_RS16950&lt;/b&gt;&lt;br&gt;carbohydrate ABC transporter permease&lt;br&gt;Location: 3758755 - 3757955&lt;br&gt;&lt;br&gt;&lt;b&gt;BlastP hit with JNAJGP_24255&lt;/b&gt;&lt;br&gt;Percentage identity: 100&lt;br&gt;Percentage coverage: 100&lt;br&gt;BLAST bit score: 525&lt;br&gt;E-value: 6.94e-190" locus_tag="PFWH6_RS16950" class="clusterblast-orf" id="dummy-9_h9_3_39"  />
</g>
<g id="a9_0040"  >
<polygon points="645,90 648,85 645,80 645,90 " style="fill:#a3d815; stroke-width:1; stroke:black; " description="&lt;b&gt;PFWH6_RS16945&lt;/b&gt;&lt;br&gt;DUF2160 domain-containing protein&lt;br&gt;Location: 3757944 - 3757672&lt;br&gt;&lt;br&gt;&lt;b&gt;BlastP hit with JNAJGP_24260&lt;/b&gt;&lt;br&gt;Percentage identity: 100&lt;br&gt;Percentage coverage: 100&lt;br&gt;BLAST bit score: 184&lt;br&gt;E-value: 2.12e-60" locus_tag="PFWH6_RS16945" class="clusterblast-orf" id="dummy-9_h9_3_40"  />
</g>
<g id="a9_0041"  >
<polygon points="648,90 662,90 667,85 662,80 648,80 648,90 " style="fill:#15d8c7; stroke-width:1; stroke:black; " description="&lt;b&gt;PFWH6_RS16940&lt;/b&gt;&lt;br&gt;ABC transporter substrate-binding protein&lt;br&gt;Location: 3757639 - 3755897&lt;br&gt;&lt;br&gt;&lt;b&gt;BlastP hit with JNAJGP_24265&lt;/b&gt;&lt;br&gt;Percentage identity: 100&lt;br&gt;Percentage coverage: 100&lt;br&gt;BLAST bit score: 1189&lt;br&gt;E-value: 0.0" locus_tag="PFWH6_RS16940" class="clusterblast-orf" id="dummy-9_h9_3_41"  />
</g>
<g id="a9_0042"  >
<polygon points="669,85 671,80 671,90 669,85 " style="fill:white; stroke-width:1; stroke:black; " description="&lt;b&gt;PFWH6_RS30500&lt;/b&gt;&lt;br&gt;hypothetical protein&lt;br&gt;Location: 3755694 - 3755503" locus_tag="PFWH6_RS30500" class="clusterblast-orf" id="dummy-9_h9_3_42"  />
</g>
<g id="a9_0043"  >
<polygon points="671,90 681,90 686,85 681,80 671,80 671,90 " style="fill:#5c15d8; stroke-width:1; stroke:black; " description="&lt;b&gt;PFWH6_RS16935&lt;/b&gt;&lt;br&gt;iron-containing redox enzyme family protein&lt;br&gt;Location: 3755459 - 3754080&lt;br&gt;&lt;br&gt;&lt;b&gt;BlastP hit with JNAJGP_24270&lt;/b&gt;&lt;br&gt;Percentage identity: 98&lt;br&gt;Percentage coverage: 100&lt;br&gt;BLAST bit score: 927&lt;br&gt;E-value: 0.0" locus_tag="PFWH6_RS16935" class="clusterblast-orf" id="dummy-9_h9_3_43"  />
</g>
</svg>
