<svg xmlns="http://www.w3.org/2000/svg" xmlns:xlink="http://www.w3.org/1999/xlink" version="1.1" x="0" y="0" height="230" width="800" viewBox="0 0 800 230" preserveAspectRatio="none"  >
<g label="Query sequence" class="clusterblast-cluster"  >
<text x="5" y="20" class="clusterblast-acc"  >
Query sequence</text>
<line x1="10" y1="35" x2="778.0" y2="35" style="stroke-width:1; stroke:grey; "  />
<polygon points="99,40 106,40 111,35 106,30 99,30 99,40 " style="fill:#d81515; stroke-width:1; stroke:black; " description="&lt;b&gt;PLIDEL_00625&lt;/b&gt;&lt;br&gt;Ion-translocating oxidoreductase complex subunit D&lt;br&gt;Location: 98491 - 99532" locus_tag="PLIDEL_00625" class="clusterblast-orf" id="dummy-1_q0_0_all"  />
<polygon points="111,40 114,40 119,35 114,30 111,30 111,40 " style="fill:#77d815; stroke-width:1; stroke:black; " description="&lt;b&gt;PLIDEL_00630&lt;/b&gt;&lt;br&gt;Ion-translocating oxidoreductase complex subunit G&lt;br&gt;Location: 99512 - 100172" locus_tag="PLIDEL_00630" class="clusterblast-orf" id="dummy-1_q1_0_all"  />
<polygon points="121,40 125,40 130,35 125,30 121,30 121,40 " style="fill:#15d8d8; stroke-width:1; stroke:black; " description="&lt;b&gt;PLIDEL_00635&lt;/b&gt;&lt;br&gt;Ion-translocating oxidoreductase complex subunit E&lt;br&gt;Location: 100369 - 101104" locus_tag="PLIDEL_00635" class="clusterblast-orf" id="dummy-1_q2_0_all"  />
<polygon points="130,40 133,40 138,35 133,30 130,30 130,40 " style="fill:#7715d8; stroke-width:1; stroke:black; " description="&lt;b&gt;PLIDEL_00640&lt;/b&gt;&lt;br&gt;Endonuclease III&lt;br&gt;Location: 101100 - 101790" locus_tag="PLIDEL_00640" class="clusterblast-orf" id="dummy-1_q3_0_all"  />
<polygon points="138,40 138,40 143,35 138,30 138,30 138,40 " style="fill:#d85e15; stroke-width:1; stroke:black; " description="&lt;b&gt;PLIDEL_00645&lt;/b&gt;&lt;br&gt;DUF1841 domain-containing protein&lt;br&gt;Location: 101837 - 102242" locus_tag="PLIDEL_00645" class="clusterblast-orf" id="dummy-1_q4_0_all"  />
<polygon points="144,40 149,40 154,35 149,30 144,30 144,40 " style="fill:#2ed815; stroke-width:1; stroke:black; " description="&lt;b&gt;PLIDEL_00650&lt;/b&gt;&lt;br&gt;UPF0276 protein ATCM 02265&lt;br&gt;Location: 102277 - 103168" locus_tag="PLIDEL_00650" class="clusterblast-orf" id="dummy-1_q5_0_all"  />
<polygon points="154,40 158,40 163,35 158,30 154,30 154,40 " style="fill:#158fd8; stroke-width:1; stroke:black; " description="&lt;b&gt;PLIDEL_00655&lt;/b&gt;&lt;br&gt;Putative DNA-binding domain-containing protein&lt;br&gt;Location: 103175 - 103955" locus_tag="PLIDEL_00655" class="clusterblast-orf" id="dummy-1_q6_0_all"  />
<polygon points="164,40 167,40 172,35 167,30 164,30 164,40 " style="fill:#c015d8; stroke-width:1; stroke:black; " description="&lt;b&gt;PLIDEL_00660&lt;/b&gt;&lt;br&gt;DoxX family protein&lt;br&gt;Location: 104049 - 104670" locus_tag="PLIDEL_00660" class="clusterblast-orf" id="dummy-1_q7_0_all"  />
<polygon points="172,35 177,30 182,30 182,40 177,40 172,35 " style="fill:white; stroke-width:1; stroke:black; " description="&lt;b&gt;PLIDEL_00665&lt;/b&gt;&lt;br&gt;Fructokinase&lt;br&gt;Location: 104666 - 105578" locus_tag="PLIDEL_00665" class="clusterblast-orf" id="dummy-1_q8_0_all"  />
<polygon points="183,35 188,30 192,30 192,40 188,40 183,35 " style="fill:white; stroke-width:1; stroke:black; " description="&lt;b&gt;PLIDEL_00670&lt;/b&gt;&lt;br&gt;Sulfotransferase&lt;br&gt;Location: 105644 - 106448" locus_tag="PLIDEL_00670" class="clusterblast-orf" id="dummy-1_q9_0_all"  />
<polygon points="193,35 197,30 197,40 193,35 " style="fill:#d8a715; stroke-width:1; stroke:black; " description="&lt;b&gt;PLIDEL_00675&lt;/b&gt;&lt;br&gt;Pyridine nucleotide-disulphide oxidoreductase dimerisation domain-containing protein&lt;br&gt;Location: 106511 - 106826" locus_tag="PLIDEL_00675" class="clusterblast-orf" id="dummy-1_q10_0_all"  />
<polygon points="197,35 202,30 216,30 216,40 202,40 197,35 " style="fill:#d8a715; stroke-width:1; stroke:black; " description="&lt;b&gt;PLIDEL_00680&lt;/b&gt;&lt;br&gt;Dihydrolipoyl dehydrogenase&lt;br&gt;Location: 106870 - 108460" locus_tag="PLIDEL_00680" class="clusterblast-orf" id="dummy-1_q11_0_all"  />
<polygon points="216,35 221,30 231,30 231,40 221,40 216,35 " style="fill:#d8a715; stroke-width:1; stroke:black; " description="&lt;b&gt;PLIDEL_00685&lt;/b&gt;&lt;br&gt;Acetyltransferase component of pyruvate dehydrogenase complex&lt;br&gt;Location: 108428 - 109748" locus_tag="PLIDEL_00685" class="clusterblast-orf" id="dummy-1_q12_0_all"  />
<polygon points="231,35 236,30 237,30 237,40 236,40 231,35 " style="fill:white; stroke-width:1; stroke:black; " description="&lt;b&gt;PLIDEL_00690&lt;/b&gt;&lt;br&gt;Pyruvate dehydrogenase E1 component middle domain-containing protein&lt;br&gt;Location: 109759 - 110287" locus_tag="PLIDEL_00690" class="clusterblast-orf" id="dummy-1_q13_0_all"  />
<polygon points="241,35 245,30 245,40 241,35 " style="fill:white; stroke-width:1; stroke:black; " description="&lt;b&gt;PLIDEL_00695&lt;/b&gt;&lt;br&gt;hypothetical protein&lt;br&gt;Location: 110574 - 110937" locus_tag="PLIDEL_00695" class="clusterblast-orf" id="dummy-1_q14_0_all"  />
<polygon points="246,35 251,30 263,30 263,40 251,40 246,35 " style="fill:white; stroke-width:1; stroke:black; " description="&lt;b&gt;PLIDEL_00700&lt;/b&gt;&lt;br&gt;pyruvate dehydrogenase (acetyl-transferring), homodimeric type&lt;br&gt;Location: 111005 - 112427" locus_tag="PLIDEL_00700" class="clusterblast-orf" id="dummy-1_q15_0_all"  />
<polygon points="264,40 269,40 274,35 269,30 264,30 264,40 " style="fill:white; stroke-width:1; stroke:black; " description="&lt;b&gt;PLIDEL_00705&lt;/b&gt;&lt;br&gt;hypothetical protein&lt;br&gt;Location: 112563 - 113373" locus_tag="PLIDEL_00705" class="clusterblast-orf" id="dummy-1_q16_0_all"  />
<polygon points="274,40 277,40 282,35 277,30 274,30 274,40 " style="fill:white; stroke-width:1; stroke:black; " description="&lt;b&gt;PLIDEL_00710&lt;/b&gt;&lt;br&gt;Leucyl aminopeptidase family protein&lt;br&gt;Location: 113416 - 114085" locus_tag="PLIDEL_00710" class="clusterblast-orf" id="dummy-1_q17_0_all"  />
<polygon points="282,40 289,40 294,35 289,30 282,30 282,40 " style="fill:white; stroke-width:1; stroke:black; " description="&lt;b&gt;PLIDEL_00715&lt;/b&gt;&lt;br&gt;Dihydroorotase&lt;br&gt;Location: 114081 - 115116" locus_tag="PLIDEL_00715" class="clusterblast-orf" id="dummy-1_q18_0_all"  />
<polygon points="294,40 297,40 302,35 297,30 294,30 294,40 " style="fill:#15d846; stroke-width:1; stroke:black; " description="&lt;b&gt;PLIDEL_00720&lt;/b&gt;&lt;br&gt;Ribonuclease T&lt;br&gt;Location: 115112 - 115781" locus_tag="PLIDEL_00720" class="clusterblast-orf" id="dummy-1_q19_0_all"  />
<polygon points="304,35 308,30 308,40 304,35 " style="fill:white; stroke-width:1; stroke:black; " description="&lt;b&gt;PLIDEL_00725&lt;/b&gt;&lt;br&gt;Glutaredoxin&lt;br&gt;Location: 115975 - 116296" locus_tag="PLIDEL_00725" class="clusterblast-orf" id="dummy-1_q20_0_all"  />
<polygon points="311,40 319,40 324,35 319,30 311,30 311,40 " style="fill:white; stroke-width:1; stroke:black; " description="&lt;b&gt;PLIDEL_00730&lt;/b&gt;&lt;br&gt;Nicotinate-nucleotide pyrophosphorylase [carboxylating]&lt;br&gt;Location: 116547 - 117654" locus_tag="PLIDEL_00730" class="clusterblast-orf" id="dummy-1_q21_0_all"  />
<polygon points="324,35 329,30 356,30 356,40 329,40 324,35 " style="fill:#1546d8; stroke-width:1; stroke:black; " description="&lt;b&gt;PLIDEL_00735&lt;/b&gt;&lt;br&gt;Diguanylate cyclase&lt;br&gt;Location: 117702 - 120384" locus_tag="PLIDEL_00735" class="clusterblast-orf" id="dummy-1_q22_0_all"  />
<polygon points="358,35 363,30 378,30 378,40 363,40 358,35 " style="fill:white; stroke-width:1; stroke:black; " description="&lt;b&gt;PLIDEL_00740&lt;/b&gt;&lt;br&gt;Glycosyltransferase RgtA/B/C/D-like domain-containing protein&lt;br&gt;Location: 120538 - 122284" locus_tag="PLIDEL_00740" class="clusterblast-orf" id="dummy-1_q23_0_all"  />
<polygon points="378,35 383,30 387,30 387,40 383,40 378,35 " style="fill:white; stroke-width:1; stroke:black; " description="&lt;b&gt;PLIDEL_00745&lt;/b&gt;&lt;br&gt;Putative GT2: distantly related to GDP-Man: Dol-P b-mannosyltransferase&lt;br&gt;Location: 122285 - 123044" locus_tag="PLIDEL_00745" class="clusterblast-orf" id="dummy-1_q24_0_all"  />
<polygon points="389,40 394,40 399,35 394,30 389,30 389,40 " style="fill:white; stroke-width:1; stroke:black; " description="&lt;b&gt;PLIDEL_00750&lt;/b&gt;&lt;br&gt;Zinc transporter ZitB&lt;br&gt;Location: 123188 - 124079" locus_tag="PLIDEL_00750" class="clusterblast-orf" id="dummy-1_q25_0_all"  />
<polygon points="399,40 403,40 408,35 403,30 399,30 399,40 " style="fill:white; stroke-width:1; stroke:black; " description="&lt;b&gt;PLIDEL_00755&lt;/b&gt;&lt;br&gt;Lysophospholipid acyltransferase family protein&lt;br&gt;Location: 124081 - 124840" locus_tag="PLIDEL_00755" class="clusterblast-orf" id="dummy-1_q26_0_all"  />
<polygon points="413,35 415,30 415,40 413,35 " style="fill:white; stroke-width:1; stroke:black; " description="&lt;b&gt;PLIDEL_00760&lt;/b&gt;&lt;br&gt;hypothetical protein&lt;br&gt;Location: 125295 - 125448" locus_tag="PLIDEL_00760" class="clusterblast-orf" id="dummy-1_q27_0_all"  />
<polygon points="417,40 426,40 431,35 426,30 417,30 417,40 " style="fill:white; stroke-width:1; stroke:black; " description="&lt;b&gt;PLIDEL_00765&lt;/b&gt;&lt;br&gt;Cytochrome P450&lt;br&gt;Location: 125621 - 126806" locus_tag="PLIDEL_00765" class="clusterblast-orf" id="dummy-1_q28_0_all"  />
<polygon points="431,40 449,40 454,35 449,30 431,30 431,40 " style="fill:#d815a7; stroke-width:1; stroke:black; " description="&lt;b&gt;PLIDEL_00770&lt;/b&gt;&lt;br&gt;Carrier domain-containing protein&lt;br&gt;Location: 126802 - 128776" locus_tag="PLIDEL_00770" class="clusterblast-orf" id="dummy-1_q29_0_all"  />
<polygon points="455,35 460,30 462,30 462,40 460,40 455,35 " style="fill:white; stroke-width:1; stroke:black; " description="&lt;b&gt;PLIDEL_00775&lt;/b&gt;&lt;br&gt;hypothetical protein&lt;br&gt;Location: 128820 - 129462" locus_tag="PLIDEL_00775" class="clusterblast-orf" id="dummy-1_q30_0_all"  />
<polygon points="471,35 476,30 476,30 476,40 476,40 471,35 " style="fill:white; stroke-width:1; stroke:black; " description="&lt;b&gt;PLIDEL_00785&lt;/b&gt;&lt;br&gt;Ferric uptake regulation protein&lt;br&gt;Location: 130245 - 130680" locus_tag="PLIDEL_00785" class="clusterblast-orf" id="dummy-1_q31_0_all"  />
<polygon points="478,40 479,40 484,35 479,30 478,30 478,40 " style="fill:white; stroke-width:1; stroke:black; " description="&lt;b&gt;PLIDEL_00790&lt;/b&gt;&lt;br&gt;Type II secretion system protein H&lt;br&gt;Location: 130811 - 131342" locus_tag="PLIDEL_00790" class="clusterblast-orf" id="dummy-1_q32_0_all"  />
<polygon points="487,40 487,40 492,35 487,30 487,30 487,40 " style="fill:white; stroke-width:1; stroke:black; " description="&lt;b&gt;PLIDEL_00795&lt;/b&gt;&lt;br&gt;hypothetical protein&lt;br&gt;Location: 131568 - 132009" locus_tag="PLIDEL_00795" class="clusterblast-orf" id="dummy-1_q33_0_all"  />
<polygon points="492,40 492,40 497,35 492,30 492,30 492,40 " style="fill:white; stroke-width:1; stroke:black; " description="&lt;b&gt;PLIDEL_00800&lt;/b&gt;&lt;br&gt;Type IV pilus modification protein PilV&lt;br&gt;Location: 132057 - 132450" locus_tag="PLIDEL_00800" class="clusterblast-orf" id="dummy-1_q34_0_all"  />
<polygon points="497,40 501,40 506,35 501,30 497,30 497,40 " style="fill:white; stroke-width:1; stroke:black; " description="&lt;b&gt;PLIDEL_00805&lt;/b&gt;&lt;br&gt;hypothetical protein&lt;br&gt;Location: 132452 - 133193" locus_tag="PLIDEL_00805" class="clusterblast-orf" id="dummy-1_q35_0_all"  />
<polygon points="509,40 510,40 515,35 510,30 509,30 509,40 " style="fill:white; stroke-width:1; stroke:black; " description="&lt;b&gt;PLIDEL_00810&lt;/b&gt;&lt;br&gt;Type 4 fimbrial biogenesis protein PilX N-terminal domain-containing protein&lt;br&gt;Location: 133472 - 133997" locus_tag="PLIDEL_00810" class="clusterblast-orf" id="dummy-1_q36_0_all"  />
<polygon points="516,40 520,35 516,30 516,40 " style="fill:white; stroke-width:1; stroke:black; " description="&lt;b&gt;PLIDEL_00815&lt;/b&gt;&lt;br&gt;hypothetical protein&lt;br&gt;Location: 134030 - 134411" locus_tag="PLIDEL_00815" class="clusterblast-orf" id="dummy-1_q37_0_all"  />
<polygon points="520,40 556,40 561,35 556,30 520,30 520,40 " style="fill:white; stroke-width:1; stroke:black; " description="&lt;b&gt;PLIDEL_00820&lt;/b&gt;&lt;br&gt;PQQ-binding-like beta-propeller repeat protein&lt;br&gt;Location: 134444 - 137951" locus_tag="PLIDEL_00820" class="clusterblast-orf" id="dummy-1_q38_0_all"  />
<polygon points="562,40 562,40 567,35 562,30 562,30 562,40 " style="fill:white; stroke-width:1; stroke:black; " description="&lt;b&gt;PLIDEL_00825&lt;/b&gt;&lt;br&gt;Pilus assembly protein PilE&lt;br&gt;Location: 138010 - 138424" locus_tag="PLIDEL_00825" class="clusterblast-orf" id="dummy-1_q39_0_all"  />
<polygon points="567,35 572,30 578,30 578,40 572,40 567,35 " style="fill:#c0d815; stroke-width:1; stroke:black; " description="&lt;b&gt;PLIDEL_00830&lt;/b&gt;&lt;br&gt;hypothetical protein&lt;br&gt;Location: 138420 - 139356" locus_tag="PLIDEL_00830" class="clusterblast-orf" id="dummy-1_q40_0_all"  />
<polygon points="578,35 583,30 585,30 585,40 583,40 578,35 " style="fill:#15d88f; stroke-width:1; stroke:black; " description="&lt;b&gt;PLIDEL_00835&lt;/b&gt;&lt;br&gt;Lipoprotein signal peptidase&lt;br&gt;Location: 139402 - 139957" locus_tag="PLIDEL_00835" class="clusterblast-orf" id="dummy-1_q41_0_all"  />
<polygon points="585,35 590,30 591,30 591,40 590,40 585,35 " style="fill:#2e15d8; stroke-width:1; stroke:black; " description="&lt;b&gt;PLIDEL_00840&lt;/b&gt;&lt;br&gt;Isoleucine--tRNA ligase&lt;br&gt;Location: 139956 - 140439" locus_tag="PLIDEL_00840" class="clusterblast-orf" id="dummy-1_q42_0_all"  />
<polygon points="597,35 599,30 599,40 597,35 " style="fill:#2e15d8; stroke-width:1; stroke:black; " description="&lt;b&gt;PLIDEL_00845&lt;/b&gt;&lt;br&gt;hypothetical protein&lt;br&gt;Location: 141022 - 141193" locus_tag="PLIDEL_00845" class="clusterblast-orf" id="dummy-1_q43_0_all"  />
<polygon points="600,35 605,30 611,30 611,40 605,40 600,35 " style="fill:#2e15d8; stroke-width:1; stroke:black; " description="&lt;b&gt;PLIDEL_00850&lt;/b&gt;&lt;br&gt;hypothetical protein&lt;br&gt;Location: 141280 - 142171" locus_tag="PLIDEL_00850" class="clusterblast-orf" id="dummy-1_q44_0_all"  />
<polygon points="611,35 616,30 620,30 620,40 616,40 611,35 " style="fill:#2e15d8; stroke-width:1; stroke:black; " description="&lt;b&gt;PLIDEL_00855&lt;/b&gt;&lt;br&gt;hypothetical protein&lt;br&gt;Location: 142180 - 142915" locus_tag="PLIDEL_00855" class="clusterblast-orf" id="dummy-1_q45_0_all"  />
<polygon points="620,35 625,30 629,30 629,40 625,40 620,35 " style="fill:#d8155e; stroke-width:1; stroke:black; " description="&lt;b&gt;PLIDEL_00860&lt;/b&gt;&lt;br&gt;Riboflavin biosynthesis protein&lt;br&gt;Location: 142930 - 143689" locus_tag="PLIDEL_00860" class="clusterblast-orf" id="dummy-1_q46_0_all"  />
<polygon points="630,35 635,30 650,30 650,40 635,40 630,35 " style="fill:white; stroke-width:1; stroke:black; " description="&lt;b&gt;PLIDEL_00865&lt;/b&gt;&lt;br&gt;putative lipid II flippase MurJ&lt;br&gt;Location: 143842 - 145483" locus_tag="PLIDEL_00865" class="clusterblast-orf" id="dummy-1_q47_0_all"  />
<polygon points="652,40 656,35 652,30 652,40 " style="fill:white; stroke-width:1; stroke:black; " description="&lt;b&gt;PLIDEL_00870&lt;/b&gt;&lt;br&gt;Small ribosomal subunit protein bS20&lt;br&gt;Location: 145706 - 145991" locus_tag="PLIDEL_00870" class="clusterblast-orf" id="dummy-1_q48_0_all"  />
<polygon points="660,35 665,30 680,30 680,40 665,40 660,35 " style="fill:white; stroke-width:1; stroke:black; " description="&lt;b&gt;PLIDEL_00875&lt;/b&gt;&lt;br&gt;hypothetical protein&lt;br&gt;Location: 146392 - 148066" locus_tag="PLIDEL_00875" class="clusterblast-orf" id="dummy-1_q49_0_all"  />
</g>
<g label="NZ_CP031968" description="NZ_CP031968 (3568521-3636669): Chromobacterium rhizoryzae strain JP2-74 chrom... (11% of genes show similarity), NRPS" class="clusterblast-cluster"  >
<text x="5" y="70" class="clusterblast-acc"  >
<a xlink:href="https://antismash-db.secondarymetabolites.org/area?record=NZ_CP031968&amp;start=3568521&amp;end=3636669" target="_blank">NZ_CP031968 (3568521-3636669)</a>: Chromobacterium rhizoryzae strain JP2-74 chrom... (11% of genes show similarity), NRPS</text>
<line x1="10" y1="85" x2="778.0" y2="85" style="stroke-width:1; stroke:grey; "  />
</g>
<g id="a1_000"  >
<polygon points="0,90 4,90 9,85 4,80 0,80 0,90 " style="fill:white; stroke-width:1; stroke:black; " description="&lt;b&gt;D1345_RS16225&lt;/b&gt;&lt;br&gt;SPOR domain-containing protein&lt;br&gt;Location: 3568773 - 3569567" locus_tag="D1345_RS16225" class="clusterblast-orf" id="dummy-1_h1_10_0"  />
</g>
<g id="a1_001"  >
<polygon points="14,85 19,80 26,80 26,90 19,90 14,85 " style="fill:white; stroke-width:1; stroke:black; " description="&lt;b&gt;D1345_RS16230&lt;/b&gt;&lt;br&gt;L-threonine 3-dehydrogenase&lt;br&gt;Location: 3569981 - 3571006" locus_tag="D1345_RS16230" class="clusterblast-orf" id="dummy-1_h1_10_1"  />
</g>
<g id="a1_002"  >
<polygon points="26,85 31,80 40,80 40,90 31,90 26,85 " style="fill:white; stroke-width:1; stroke:black; " description="&lt;b&gt;D1345_RS16235&lt;/b&gt;&lt;br&gt;glycine C-acetyltransferase&lt;br&gt;Location: 3571057 - 3572256" locus_tag="D1345_RS16235" class="clusterblast-orf" id="dummy-1_h1_10_2"  />
</g>
<g id="a1_003"  >
<polygon points="43,85 48,80 51,80 51,90 48,90 43,85 " style="fill:white; stroke-width:1; stroke:black; " description="&lt;b&gt;D1345_RS16240&lt;/b&gt;&lt;br&gt;transporter substrate-binding domain-containing protein&lt;br&gt;Location: 3572455 - 3573177" locus_tag="D1345_RS16240" class="clusterblast-orf" id="dummy-1_h1_10_3"  />
</g>
<g id="a1_004"  >
<polygon points="52,90 56,90 61,85 56,80 52,80 52,90 " style="fill:white; stroke-width:1; stroke:black; " description="&lt;b&gt;D1345_RS16245&lt;/b&gt;&lt;br&gt;peptidoglycan DD-metalloendopeptidase family protein&lt;br&gt;Location: 3573292 - 3573993" locus_tag="D1345_RS16245" class="clusterblast-orf" id="dummy-1_h1_10_4"  />
</g>
<g id="a1_005"  >
<polygon points="62,90 66,90 71,85 66,80 62,80 62,90 " style="fill:white; stroke-width:1; stroke:black; " description="&lt;b&gt;D1345_RS16250&lt;/b&gt;&lt;br&gt;transporter substrate-binding domain-containing protein&lt;br&gt;Location: 3574127 - 3574861" locus_tag="D1345_RS16250" class="clusterblast-orf" id="dummy-1_h1_10_5"  />
</g>
<g id="a1_006"  >
<polygon points="72,90 81,90 86,85 81,80 72,80 72,90 " style="fill:white; stroke-width:1; stroke:black; " description="&lt;b&gt;D1345_RS16255&lt;/b&gt;&lt;br&gt;DUF1615 domain-containing protein&lt;br&gt;Location: 3574929 - 3576140" locus_tag="D1345_RS16255" class="clusterblast-orf" id="dummy-1_h1_10_6"  />
</g>
<g id="a1_007"  >
<polygon points="87,90 94,90 99,85 94,80 87,80 87,90 " style="fill:white; stroke-width:1; stroke:black; " description="&lt;b&gt;D1345_RS16260&lt;/b&gt;&lt;br&gt;DUF475 domain-containing protein&lt;br&gt;Location: 3576266 - 3577300" locus_tag="D1345_RS16260" class="clusterblast-orf" id="dummy-1_h1_10_7"  />
</g>
<g id="a1_008"  >
<polygon points="102,85 107,80 109,80 109,90 107,90 102,85 " style="fill:white; stroke-width:1; stroke:black; " description="&lt;b&gt;D1345_RS16265&lt;/b&gt;&lt;br&gt;2-polyprenyl-3-methyl-6-methoxy-1,4-benzoquinone monooxygenase&lt;br&gt;Location: 3577536 - 3578156" locus_tag="D1345_RS16265" class="clusterblast-orf" id="dummy-1_h1_10_8"  />
</g>
<g id="a1_009"  >
<polygon points="111,90 112,90 117,85 112,80 111,80 111,90 " style="fill:white; stroke-width:1; stroke:black; " description="&lt;b&gt;D1345_RS16270&lt;/b&gt;&lt;br&gt;inorganic diphosphatase&lt;br&gt;Location: 3578288 - 3578815" locus_tag="D1345_RS16270" class="clusterblast-orf" id="dummy-1_h1_10_9"  />
</g>
<g id="a1_0010"  >
<polygon points="121,90 125,90 130,85 125,80 121,80 121,90 " style="fill:white; stroke-width:1; stroke:black; " description="&lt;b&gt;D1345_RS16275&lt;/b&gt;&lt;br&gt;hypothetical protein&lt;br&gt;Location: 3579153 - 3579881" locus_tag="D1345_RS16275" class="clusterblast-orf" id="dummy-1_h1_10_10"  />
</g>
<g id="a1_0011"  >
<polygon points="130,85 135,80 137,80 137,90 135,90 130,85 " style="fill:white; stroke-width:1; stroke:black; " description="&lt;b&gt;D1345_RS16280&lt;/b&gt;&lt;br&gt;phasin family protein&lt;br&gt;Location: 3579928 - 3580494" locus_tag="D1345_RS16280" class="clusterblast-orf" id="dummy-1_h1_10_11"  />
</g>
<g id="a1_0012"  >
<polygon points="141,90 145,90 150,85 145,80 141,80 141,90 " style="fill:white; stroke-width:1; stroke:black; " description="&lt;b&gt;D1345_RS16285&lt;/b&gt;&lt;br&gt;septum site-determining protein MinC&lt;br&gt;Location: 3580877 - 3581593" locus_tag="D1345_RS16285" class="clusterblast-orf" id="dummy-1_h1_10_12"  />
</g>
<g id="a1_0013"  >
<polygon points="150,90 154,90 159,85 154,80 150,80 150,90 " style="fill:white; stroke-width:1; stroke:black; " description="&lt;b&gt;D1345_RS16290&lt;/b&gt;&lt;br&gt;septum site-determining protein MinD&lt;br&gt;Location: 3581620 - 3582432" locus_tag="D1345_RS16290" class="clusterblast-orf" id="dummy-1_h1_10_13"  />
</g>
<g id="a1_0014"  >
<polygon points="160,90 163,85 160,80 160,90 " style="fill:white; stroke-width:1; stroke:black; " description="&lt;b&gt;D1345_RS16295&lt;/b&gt;&lt;br&gt;cell division topological specificity factor MinE&lt;br&gt;Location: 3582436 - 3582693" locus_tag="D1345_RS16295" class="clusterblast-orf" id="dummy-1_h1_10_14"  />
</g>
<g id="a1_0015"  >
<polygon points="163,90 169,90 174,85 169,80 163,80 163,90 " style="fill:white; stroke-width:1; stroke:black; " description="&lt;b&gt;D1345_RS16300&lt;/b&gt;&lt;br&gt;LysR substrate-binding domain-containing protein&lt;br&gt;Location: 3582697 - 3583635" locus_tag="D1345_RS16300" class="clusterblast-orf" id="dummy-1_h1_10_15"  />
</g>
<g id="a1_0016"  >
<polygon points="174,85 179,80 183,80 183,90 179,90 174,85 " style="fill:white; stroke-width:1; stroke:black; " description="&lt;b&gt;D1345_RS16305&lt;/b&gt;&lt;br&gt;thioesterase domain-containing protein&lt;br&gt;Location: 3583704 - 3584468" locus_tag="D1345_RS16305" class="clusterblast-orf" id="dummy-1_h1_10_16"  />
</g>
<g id="a1_0017"  >
<polygon points="183,85 188,80 194,80 194,90 188,90 183,85 " style="fill:white; stroke-width:1; stroke:black; " description="&lt;b&gt;D1345_RS16310&lt;/b&gt;&lt;br&gt;alpha/beta hydrolase&lt;br&gt;Location: 3584465 - 3585379" locus_tag="D1345_RS16310" class="clusterblast-orf" id="dummy-1_h1_10_17"  />
</g>
<g id="a1_0018"  >
<polygon points="195,85 200,80 205,80 205,90 200,90 195,85 " style="fill:white; stroke-width:1; stroke:black; " description="&lt;b&gt;D1345_RS16315&lt;/b&gt;&lt;br&gt;NAD(P)/FAD-dependent oxidoreductase&lt;br&gt;Location: 3585435 - 3586340" locus_tag="D1345_RS16315" class="clusterblast-orf" id="dummy-1_h1_10_18"  />
</g>
<g id="a1_0019"  >
<polygon points="206,85 211,80 217,80 217,90 211,90 206,85 " style="fill:white; stroke-width:1; stroke:black; " description="&lt;b&gt;D1345_RS16320&lt;/b&gt;&lt;br&gt;phosphotransferase family protein&lt;br&gt;Location: 3586391 - 3587356" locus_tag="D1345_RS16320" class="clusterblast-orf" id="dummy-1_h1_10_19"  />
</g>
<g id="a1_0020"  >
<polygon points="217,85 222,80 231,80 231,90 222,90 217,85 " style="fill:white; stroke-width:1; stroke:black; " description="&lt;b&gt;D1345_RS16325&lt;/b&gt;&lt;br&gt;acyl-CoA dehydrogenase&lt;br&gt;Location: 3587353 - 3588525" locus_tag="D1345_RS16325" class="clusterblast-orf" id="dummy-1_h1_10_20"  />
</g>
<g id="a1_0021"  >
<polygon points="231,85 236,80 297,80 297,90 236,90 231,85 " style="fill:white; stroke-width:1; stroke:black; " description="&lt;b&gt;D1345_RS16330&lt;/b&gt;&lt;br&gt;non-ribosomal peptide synthetase&lt;br&gt;Location: 3588522 - 3594200" locus_tag="D1345_RS16330" class="clusterblast-orf" id="dummy-1_h1_10_21"  />
</g>
<g id="a1_0022"  >
<polygon points="297,85 302,80 404,80 404,90 302,90 297,85 " style="fill:white; stroke-width:1; stroke:black; " description="&lt;b&gt;D1345_RS16335&lt;/b&gt;&lt;br&gt;non-ribosomal peptide synthetase&lt;br&gt;Location: 3594197 - 3603352" locus_tag="D1345_RS16335" class="clusterblast-orf" id="dummy-1_h1_10_22"  />
</g>
<g id="a1_0023"  >
<polygon points="405,85 410,80 446,80 446,90 410,90 405,85 " style="fill:white; stroke-width:1; stroke:black; " description="&lt;b&gt;D1345_RS16340&lt;/b&gt;&lt;br&gt;SDR family NAD(P)-dependent oxidoreductase&lt;br&gt;Location: 3603367 - 3606918" locus_tag="D1345_RS16340" class="clusterblast-orf" id="dummy-1_h1_10_23"  />
</g>
<g id="a1_0024"  >
<polygon points="446,85 451,80 501,80 501,90 451,90 446,85 " style="fill:white; stroke-width:1; stroke:black; " description="&lt;b&gt;D1345_RS16345&lt;/b&gt;&lt;br&gt;SDR family NAD(P)-dependent oxidoreductase&lt;br&gt;Location: 3606915 - 3611576" locus_tag="D1345_RS16345" class="clusterblast-orf" id="dummy-1_h1_10_24"  />
</g>
<g id="a1_0025"  >
<polygon points="501,85 506,80 560,80 560,90 506,90 501,85 " style="fill:#d815a7; stroke-width:1; stroke:black; " description="&lt;b&gt;D1345_RS16350&lt;/b&gt;&lt;br&gt;amino acid adenylation domain-containing protein&lt;br&gt;Location: 3611576 - 3616669&lt;br&gt;&lt;br&gt;&lt;b&gt;BlastP hit with PLIDEL_00770&lt;/b&gt;&lt;br&gt;Percentage identity: 31&lt;br&gt;Percentage coverage: 97&lt;br&gt;BLAST bit score: 223&lt;br&gt;E-value: 1.19e-59" locus_tag="D1345_RS16350" class="clusterblast-orf" id="dummy-1_h1_10_25"  />
</g>
<g id="a1_0026"  >
<polygon points="575,85 580,80 588,80 588,90 580,90 575,85 " style="fill:white; stroke-width:1; stroke:black; " description="&lt;b&gt;D1345_RS16355&lt;/b&gt;&lt;br&gt;PLP-dependent aminotransferase family protein&lt;br&gt;Location: 3617893 - 3619050" locus_tag="D1345_RS16355" class="clusterblast-orf" id="dummy-1_h1_10_26"  />
</g>
<g id="a1_0027"  >
<polygon points="589,90 590,90 595,85 590,80 589,80 589,90 " style="fill:white; stroke-width:1; stroke:black; " description="&lt;b&gt;D1345_RS16360&lt;/b&gt;&lt;br&gt;MarR family transcriptional regulator&lt;br&gt;Location: 3619137 - 3619604" locus_tag="D1345_RS16360" class="clusterblast-orf" id="dummy-1_h1_10_27"  />
</g>
<g id="a1_0028"  >
<polygon points="596,90 599,85 596,80 596,90 " style="fill:white; stroke-width:1; stroke:black; " description="&lt;b&gt;D1345_RS16365&lt;/b&gt;&lt;br&gt;zf-TFIIB domain-containing protein&lt;br&gt;Location: 3619702 - 3619941" locus_tag="D1345_RS16365" class="clusterblast-orf" id="dummy-1_h1_10_28"  />
</g>
<g id="a1_0029"  >
<polygon points="600,85 605,80 606,80 606,90 605,90 600,85 " style="fill:white; stroke-width:1; stroke:black; " description="&lt;b&gt;D1345_RS16370&lt;/b&gt;&lt;br&gt;transcription elongation factor GreB&lt;br&gt;Location: 3620013 - 3620567" locus_tag="D1345_RS16370" class="clusterblast-orf" id="dummy-1_h1_10_29"  />
</g>
<g id="a1_0030"  >
<polygon points="607,85 612,80 612,80 612,90 612,90 607,85 " style="fill:white; stroke-width:1; stroke:black; " description="&lt;b&gt;D1345_RS16375&lt;/b&gt;&lt;br&gt;NUDIX domain-containing protein&lt;br&gt;Location: 3620600 - 3621091" locus_tag="D1345_RS16375" class="clusterblast-orf" id="dummy-1_h1_10_30"  />
</g>
<g id="a1_0031"  >
<polygon points="612,85 617,80 624,80 624,90 617,90 612,85 " style="fill:white; stroke-width:1; stroke:black; " description="&lt;b&gt;D1345_RS16380&lt;/b&gt;&lt;br&gt;rRNA pseudouridine synthase&lt;br&gt;Location: 3621103 - 3622122" locus_tag="D1345_RS16380" class="clusterblast-orf" id="dummy-1_h1_10_31"  />
</g>
<g id="a1_0032"  >
<polygon points="629,85 634,80 637,80 637,90 634,90 629,85 " style="fill:white; stroke-width:1; stroke:black; " description="&lt;b&gt;D1345_RS16385&lt;/b&gt;&lt;br&gt;SMC-Scp complex subunit ScpB&lt;br&gt;Location: 3622546 - 3623178" locus_tag="D1345_RS16385" class="clusterblast-orf" id="dummy-1_h1_10_32"  />
</g>
<g id="a1_0033"  >
<polygon points="637,85 642,80 644,80 644,90 642,90 637,85 " style="fill:white; stroke-width:1; stroke:black; " description="&lt;b&gt;D1345_RS16390&lt;/b&gt;&lt;br&gt;GNAT family N-acetyltransferase&lt;br&gt;Location: 3623246 - 3623779" locus_tag="D1345_RS16390" class="clusterblast-orf" id="dummy-1_h1_10_33"  />
</g>
<g id="a1_0034"  >
<polygon points="645,85 650,80 655,80 655,90 650,90 645,85 " style="fill:white; stroke-width:1; stroke:black; " description="&lt;b&gt;D1345_RS16395&lt;/b&gt;&lt;br&gt;segregation/condensation protein A&lt;br&gt;Location: 3623858 - 3624706" locus_tag="D1345_RS16395" class="clusterblast-orf" id="dummy-1_h1_10_34"  />
</g>
<g id="a1_0035"  >
<polygon points="655,85 660,80 673,80 673,90 660,90 655,85 " style="fill:white; stroke-width:1; stroke:black; " description="&lt;b&gt;D1345_RS16400&lt;/b&gt;&lt;br&gt;hypothetical protein&lt;br&gt;Location: 3624771 - 3626276" locus_tag="D1345_RS16400" class="clusterblast-orf" id="dummy-1_h1_10_35"  />
</g>
<g id="a1_0036"  >
<polygon points="674,85 679,80 697,80 697,90 679,90 674,85 " style="fill:white; stroke-width:1; stroke:black; " description="&lt;b&gt;D1345_RS16405&lt;/b&gt;&lt;br&gt;molecular chaperone HtpG&lt;br&gt;Location: 3626405 - 3628306" locus_tag="D1345_RS16405" class="clusterblast-orf" id="dummy-1_h1_10_36"  />
</g>
<g id="a1_0037"  >
<polygon points="699,85 704,80 710,80 710,90 704,90 699,85 " style="fill:#c0d815; stroke-width:1; stroke:black; " description="&lt;b&gt;D1345_RS16410&lt;/b&gt;&lt;br&gt;4-hydroxy-3-methylbut-2-enyl diphosphate reductase&lt;br&gt;Location: 3628470 - 3629411&lt;br&gt;&lt;br&gt;&lt;b&gt;BlastP hit with PLIDEL_00830&lt;/b&gt;&lt;br&gt;Percentage identity: 62&lt;br&gt;Percentage coverage: 71&lt;br&gt;BLAST bit score: 281&lt;br&gt;E-value: 7.27e-92" locus_tag="D1345_RS16410" class="clusterblast-orf" id="dummy-1_h1_10_37"  />
</g>
<g id="a1_0038"  >
<polygon points="710,85 715,80 716,80 716,90 715,90 710,85 " style="fill:#15d88f; stroke-width:1; stroke:black; " description="&lt;b&gt;D1345_RS16415&lt;/b&gt;&lt;br&gt;signal peptidase II&lt;br&gt;Location: 3629439 - 3629921&lt;br&gt;&lt;br&gt;&lt;b&gt;BlastP hit with PLIDEL_00835&lt;/b&gt;&lt;br&gt;Percentage identity: 49&lt;br&gt;Percentage coverage: 80&lt;br&gt;BLAST bit score: 126&lt;br&gt;E-value: 2.91e-35" locus_tag="D1345_RS16415" class="clusterblast-orf" id="dummy-1_h1_10_38"  />
</g>
<g id="a1_0039"  >
<polygon points="717,85 722,80 750,80 750,90 722,90 717,85 " style="fill:#2e15d8; stroke-width:1; stroke:black; " description="&lt;b&gt;D1345_RS16420&lt;/b&gt;&lt;br&gt;isoleucine--tRNA ligase&lt;br&gt;Location: 3630060 - 3632837&lt;br&gt;&lt;br&gt;&lt;b&gt;BlastP hit with PLIDEL_00840&lt;/b&gt;&lt;br&gt;Percentage identity: 39&lt;br&gt;Percentage coverage: 98&lt;br&gt;BLAST bit score: 107&lt;br&gt;E-value: 2.44e-25&lt;br&gt;&lt;br&gt;&lt;b&gt;BlastP hit with PLIDEL_00845&lt;/b&gt;&lt;br&gt;Percentage identity: 56&lt;br&gt;Percentage coverage: 80&lt;br&gt;BLAST bit score: 48&lt;br&gt;E-value: 3.16e-06&lt;br&gt;&lt;br&gt;&lt;b&gt;BlastP hit with PLIDEL_00850&lt;/b&gt;&lt;br&gt;Percentage identity: 34&lt;br&gt;Percentage coverage: 71&lt;br&gt;BLAST bit score: 83&lt;br&gt;E-value: 2.08e-15&lt;br&gt;&lt;br&gt;&lt;b&gt;BlastP hit with PLIDEL_00855&lt;/b&gt;&lt;br&gt;Percentage identity: 60&lt;br&gt;Percentage coverage: 60&lt;br&gt;BLAST bit score: 191&lt;br&gt;E-value: 8.71e-54" locus_tag="D1345_RS16420" class="clusterblast-orf" id="dummy-1_h1_10_39"  />
</g>
<g id="a1_0040"  >
<polygon points="750,85 755,80 761,80 761,90 755,90 750,85 " style="fill:#d8155e; stroke-width:1; stroke:black; " description="&lt;b&gt;D1345_RS16425&lt;/b&gt;&lt;br&gt;bifunctional riboflavin kinase/FAD synthetase&lt;br&gt;Location: 3632834 - 3633769&lt;br&gt;&lt;br&gt;&lt;b&gt;BlastP hit with PLIDEL_00860&lt;/b&gt;&lt;br&gt;Percentage identity: 45&lt;br&gt;Percentage coverage: 95&lt;br&gt;BLAST bit score: 169&lt;br&gt;E-value: 3.96e-49" locus_tag="D1345_RS16425" class="clusterblast-orf" id="dummy-1_h1_10_40"  />
</g>
<g id="a1_0041"  >
<polygon points="763,85 768,80 771,80 771,90 768,90 763,85 " style="fill:white; stroke-width:1; stroke:black; " description="&lt;b&gt;D1345_RS16430&lt;/b&gt;&lt;br&gt;OmpA family protein&lt;br&gt;Location: 3633943 - 3634620" locus_tag="D1345_RS16430" class="clusterblast-orf" id="dummy-1_h1_10_41"  />
</g>
<g id="a1_0042"  >
<polygon points="774,85 779,80 780,80 780,90 779,90 774,85 " style="fill:white; stroke-width:1; stroke:black; " description="&lt;b&gt;D1345_RS16435&lt;/b&gt;&lt;br&gt;DUF934 domain-containing protein&lt;br&gt;Location: 3634859 - 3635371" locus_tag="D1345_RS16435" class="clusterblast-orf" id="dummy-1_h1_10_42"  />
</g>
</svg>
