<svg xmlns="http://www.w3.org/2000/svg" xmlns:xlink="http://www.w3.org/1999/xlink" version="1.1" x="0" y="0" height="230" width="800" viewBox="0 0 800 230" preserveAspectRatio="none"  >
<g label="Query sequence" class="clusterblast-cluster"  >
<text x="5" y="20" class="clusterblast-acc"  >
Query sequence</text>
<line x1="10" y1="35" x2="778.0" y2="35" style="stroke-width:1; stroke:grey; "  />
<polygon points="94,40 107,40 112,35 107,30 94,30 94,40 " style="fill:#d81515; stroke-width:1; stroke:black; " description="&lt;b&gt;PLIDEL_16745&lt;/b&gt;&lt;br&gt;hypothetical protein&lt;br&gt;Location: 104 - 542" locus_tag="PLIDEL_16745" class="clusterblast-orf" id="dummy-1_q0_0_all"  />
<polygon points="112,40 138,40 143,35 138,30 112,30 112,40 " style="fill:#33d815; stroke-width:1; stroke:black; " description="&lt;b&gt;PLIDEL_16750&lt;/b&gt;&lt;br&gt;Ubiquinone biosynthesis O-methyltransferase&lt;br&gt;Location: 528 - 1245" locus_tag="PLIDEL_16750" class="clusterblast-orf" id="dummy-1_q1_0_all"  />
<polygon points="141,35 146,30 162,30 162,40 146,40 141,35 " style="fill:white; stroke-width:1; stroke:black; " description="&lt;b&gt;PLIDEL_16755&lt;/b&gt;&lt;br&gt;hypothetical protein&lt;br&gt;Location: 1199 - 1697" locus_tag="PLIDEL_16755" class="clusterblast-orf" id="dummy-1_q2_0_all"  />
<polygon points="167,35 172,30 198,30 198,40 172,40 167,35 " style="fill:white; stroke-width:1; stroke:black; " description="&lt;b&gt;PLIDEL_16760&lt;/b&gt;&lt;br&gt;hypothetical protein&lt;br&gt;Location: 1817 - 2534" locus_tag="PLIDEL_16760" class="clusterblast-orf" id="dummy-1_q3_0_all"  />
<polygon points="198,40 257,40 262,35 257,30 198,30 198,40 " style="fill:#15abd8; stroke-width:1; stroke:black; " description="&lt;b&gt;PLIDEL_16765&lt;/b&gt;&lt;br&gt;hypothetical protein&lt;br&gt;Location: 2541 - 4041" locus_tag="PLIDEL_16765" class="clusterblast-orf" id="dummy-1_q4_0_all"  />
<polygon points="271,40 290,40 295,35 290,30 271,30 271,40 " style="fill:#8d15d8; stroke-width:1; stroke:black; " description="&lt;b&gt;PLIDEL_16770&lt;/b&gt;&lt;br&gt;Putative oxoacyl-reductase&lt;br&gt;Location: 4240 - 4819" locus_tag="PLIDEL_16770" class="clusterblast-orf" id="dummy-1_q5_0_all"  />
<polygon points="294,35 299,30 330,30 330,40 299,40 294,35 " style="fill:#d86f15; stroke-width:1; stroke:black; " description="&lt;b&gt;PLIDEL_16775&lt;/b&gt;&lt;br&gt;RNA-binding S4 domain-containing protein&lt;br&gt;Location: 4790 - 5627" locus_tag="PLIDEL_16775" class="clusterblast-orf" id="dummy-1_q6_0_all"  />
<polygon points="330,35 335,30 364,30 364,40 335,40 330,35 " style="fill:#15d851; stroke-width:1; stroke:black; " description="&lt;b&gt;PLIDEL_16780&lt;/b&gt;&lt;br&gt;Segregation and condensation protein B&lt;br&gt;Location: 5635 - 6427" locus_tag="PLIDEL_16780" class="clusterblast-orf" id="dummy-1_q7_0_all"  />
<polygon points="364,35 369,30 404,30 404,40 369,40 364,35 " style="fill:#1551d8; stroke-width:1; stroke:black; " description="&lt;b&gt;PLIDEL_16785&lt;/b&gt;&lt;br&gt;Segregation and condensation protein A&lt;br&gt;Location: 6423 - 7365" locus_tag="PLIDEL_16785" class="clusterblast-orf" id="dummy-1_q8_0_all"  />
<polygon points="405,35 410,30 456,30 456,40 410,40 405,35 " style="fill:#d815c9; stroke-width:1; stroke:black; " description="&lt;b&gt;PLIDEL_16790&lt;/b&gt;&lt;br&gt;Tryptophan--tRNA ligase&lt;br&gt;Location: 7374 - 8574" locus_tag="PLIDEL_16790" class="clusterblast-orf" id="dummy-1_q9_0_all"  />
<polygon points="463,35 468,30 489,30 489,40 468,40 463,35 " style="fill:#d8c915; stroke-width:1; stroke:black; " description="&lt;b&gt;PLIDEL_16795&lt;/b&gt;&lt;br&gt;Uncharacterized protein HI 1198&lt;br&gt;Location: 8730 - 9345" locus_tag="PLIDEL_16795" class="clusterblast-orf" id="dummy-1_q10_0_all"  />
<polygon points="493,40 512,40 517,35 512,30 493,30 493,40 " style="fill:#15d8ab; stroke-width:1; stroke:black; " description="&lt;b&gt;PLIDEL_16800&lt;/b&gt;&lt;br&gt;Inner membrane-spanning protein YciB&lt;br&gt;Location: 9442 - 9988" locus_tag="PLIDEL_16800" class="clusterblast-orf" id="dummy-1_q11_0_all"  />
<polygon points="517,40 524,40 529,35 524,30 517,30 517,40 " style="fill:#3315d8; stroke-width:1; stroke:black; " description="&lt;b&gt;PLIDEL_16805&lt;/b&gt;&lt;br&gt;YCII-related domain-containing protein&lt;br&gt;Location: 9989 - 10289" locus_tag="PLIDEL_16805" class="clusterblast-orf" id="dummy-1_q12_0_all"  />
<polygon points="529,40 536,40 541,35 536,30 529,30 529,40 " style="fill:#d8156f; stroke-width:1; stroke:black; " description="&lt;b&gt;PLIDEL_16810&lt;/b&gt;&lt;br&gt;BolA family transcriptional regulator&lt;br&gt;Location: 10285 - 10561" locus_tag="PLIDEL_16810" class="clusterblast-orf" id="dummy-1_q13_0_all"  />
<polygon points="543,40 574,40 579,35 574,30 543,30 543,40 " style="fill:#8dd815; stroke-width:1; stroke:black; " description="&lt;b&gt;PLIDEL_16815&lt;/b&gt;&lt;br&gt;Peptidylprolyl isomerase&lt;br&gt;Location: 10600 - 11437" locus_tag="PLIDEL_16815" class="clusterblast-orf" id="dummy-1_q14_0_all"  />
<polygon points="609,35 614,30 616,30 616,40 614,40 609,35 " style="fill:white; stroke-width:1; stroke:black; " description="&lt;b&gt;PLIDEL_16820&lt;/b&gt;&lt;br&gt;hypothetical protein&lt;br&gt;Location: 12138 - 12303" locus_tag="PLIDEL_16820" class="clusterblast-orf" id="dummy-1_q15_0_all"  />
<polygon points="617,35 622,30 686,30 686,40 622,40 617,35 " style="fill:white; stroke-width:1; stroke:black; " description="&lt;b&gt;PLIDEL_16825&lt;/b&gt;&lt;br&gt;hypothetical protein&lt;br&gt;Location: 12344 - 13952" locus_tag="PLIDEL_16825" class="clusterblast-orf" id="dummy-1_q16_0_all"  />
</g>
<g label="NZ_CP050695" description="NZ_CP050695 (1060843-1081704): Aquisalimonas sp. 2447 chromosome, complete ge... (42% of genes show similarity), terpene" class="clusterblast-cluster"  >
<text x="5" y="70" class="clusterblast-acc"  >
<a xlink:href="https://antismash-db.secondarymetabolites.org/area?record=NZ_CP050695&amp;start=1060843&amp;end=1081704" target="_blank">NZ_CP050695 (1060843-1081704)</a>: Aquisalimonas sp. 2447 chromosome, complete ge... (42% of genes show similarity), terpene</text>
<line x1="10" y1="85" x2="778.0" y2="85" style="stroke-width:1; stroke:grey; "  />
</g>
<g id="a1_000"  >
<polygon points="0,85 5,80 110,80 110,90 5,90 0,85 " style="fill:white; stroke-width:1; stroke:black; " description="&lt;b&gt;KU884_RS04990&lt;/b&gt;&lt;br&gt;DNA gyrase subunit A&lt;br&gt;Location: 1080736 - 1078142" locus_tag="KU884_RS04990" class="clusterblast-orf" id="dummy-1_h1_10_0"  />
</g>
<g id="a1_001"  >
<polygon points="122,85 127,80 142,80 142,90 127,90 122,85 " style="fill:white; stroke-width:1; stroke:black; " description="&lt;b&gt;KU884_RS04985&lt;/b&gt;&lt;br&gt;peptidylprolyl isomerase&lt;br&gt;Location: 1077877 - 1077401" locus_tag="KU884_RS04985" class="clusterblast-orf" id="dummy-1_h1_10_1"  />
</g>
<g id="a1_002"  >
<polygon points="147,85 152,80 162,80 162,90 152,90 147,85 " style="fill:white; stroke-width:1; stroke:black; " description="&lt;b&gt;KU884_RS04980&lt;/b&gt;&lt;br&gt;DUF3301 domain-containing protein&lt;br&gt;Location: 1077290 - 1076943" locus_tag="KU884_RS04980" class="clusterblast-orf" id="dummy-1_h1_10_2"  />
</g>
<g id="a1_003"  >
<polygon points="162,85 167,80 199,80 199,90 167,90 162,85 " style="fill:white; stroke-width:1; stroke:black; " description="&lt;b&gt;KU884_RS04975&lt;/b&gt;&lt;br&gt;NYN domain-containing protein&lt;br&gt;Location: 1076946 - 1076080" locus_tag="KU884_RS04975" class="clusterblast-orf" id="dummy-1_h1_10_3"  />
</g>
<g id="a1_004"  >
<polygon points="201,85 206,80 247,80 247,90 206,90 201,85 " style="fill:white; stroke-width:1; stroke:black; " description="&lt;b&gt;KU884_RS04970&lt;/b&gt;&lt;br&gt;S-methyl-5-thioribose-1-phosphate isomerase&lt;br&gt;Location: 1076030 - 1074960" locus_tag="KU884_RS04970" class="clusterblast-orf" id="dummy-1_h1_10_4"  />
</g>
<g id="a1_005"  >
<polygon points="258,90 309,90 314,85 309,80 258,80 258,90 " style="fill:white; stroke-width:1; stroke:black; " description="&lt;b&gt;KU884_RS04965&lt;/b&gt;&lt;br&gt;TRZ/ATZ family hydrolase&lt;br&gt;Location: 1074701 - 1073382" locus_tag="KU884_RS04965" class="clusterblast-orf" id="dummy-1_h1_10_5"  />
</g>
<g id="a1_006"  >
<polygon points="317,90 343,90 348,85 343,80 317,80 317,90 " style="fill:#33d815; stroke-width:1; stroke:black; " description="&lt;b&gt;KU884_RS04960&lt;/b&gt;&lt;br&gt;bifunctional 2-polyprenyl-6-hydroxyphenol methylase/3-demethylubiquinol 3-O-methyltransferase UbiG&lt;br&gt;Location: 1073319 - 1072600&lt;br&gt;&lt;br&gt;&lt;b&gt;BlastP hit with PLIDEL_16750&lt;/b&gt;&lt;br&gt;Percentage identity: 50&lt;br&gt;Percentage coverage: 98&lt;br&gt;BLAST bit score: 227&lt;br&gt;E-value: 7.54e-73" locus_tag="KU884_RS04960" class="clusterblast-orf" id="dummy-1_h1_10_6"  />
</g>
<g id="a1_007"  >
<polygon points="348,90 375,90 380,85 375,80 348,80 348,90 " style="fill:white; stroke-width:1; stroke:black; " description="&lt;b&gt;KU884_RS04955&lt;/b&gt;&lt;br&gt;phosphoglycolate phosphatase&lt;br&gt;Location: 1072600 - 1071830" locus_tag="KU884_RS04955" class="clusterblast-orf" id="dummy-1_h1_10_7"  />
</g>
<g id="a1_008"  >
<polygon points="386,90 418,90 423,85 418,80 386,80 386,90 " style="fill:white; stroke-width:1; stroke:black; " description="&lt;b&gt;KU884_RS04950&lt;/b&gt;&lt;br&gt;squalene/phytoene synthase family protein&lt;br&gt;Location: 1071704 - 1070844" locus_tag="KU884_RS04950" class="clusterblast-orf" id="dummy-1_h1_10_8"  />
</g>
<g id="a1_009"  >
<polygon points="423,90 452,90 457,85 452,80 423,80 423,90 " style="fill:#8d15d8; stroke-width:1; stroke:black; " description="&lt;b&gt;KU884_RS04945&lt;/b&gt;&lt;br&gt;SDR family NAD(P)-dependent oxidoreductase&lt;br&gt;Location: 1070847 - 1070041&lt;br&gt;&lt;br&gt;&lt;b&gt;BlastP hit with PLIDEL_16770&lt;/b&gt;&lt;br&gt;Percentage identity: 50&lt;br&gt;Percentage coverage: 79&lt;br&gt;BLAST bit score: 153&lt;br&gt;E-value: 2.29e-44" locus_tag="KU884_RS04945" class="clusterblast-orf" id="dummy-1_h1_10_9"  />
</g>
<g id="a1_0010"  >
<polygon points="457,90 461,90 466,85 461,80 457,80 457,90 " style="fill:white; stroke-width:1; stroke:black; " description="&lt;b&gt;KU884_RS04940&lt;/b&gt;&lt;br&gt;hypothetical protein&lt;br&gt;Location: 1070044 - 1069820" locus_tag="KU884_RS04940" class="clusterblast-orf" id="dummy-1_h1_10_10"  />
</g>
<g id="a1_0011"  >
<polygon points="467,85 472,80 486,80 486,90 472,90 467,85 " style="fill:white; stroke-width:1; stroke:black; " description="&lt;b&gt;KU884_RS04935&lt;/b&gt;&lt;br&gt;hypothetical protein&lt;br&gt;Location: 1069805 - 1069362" locus_tag="KU884_RS04935" class="clusterblast-orf" id="dummy-1_h1_10_11"  />
</g>
<g id="a1_0012"  >
<polygon points="490,85 495,80 518,80 518,90 495,90 490,85 " style="fill:white; stroke-width:1; stroke:black; " description="&lt;b&gt;KU884_RS04930&lt;/b&gt;&lt;br&gt;endonuclease&lt;br&gt;Location: 1069276 - 1068611" locus_tag="KU884_RS04930" class="clusterblast-orf" id="dummy-1_h1_10_12"  />
</g>
<g id="a1_0013"  >
<polygon points="519,85 524,80 554,80 554,90 524,90 519,85 " style="fill:#d86f15; stroke-width:1; stroke:black; " description="&lt;b&gt;KU884_RS04925&lt;/b&gt;&lt;br&gt;pseudouridine synthase&lt;br&gt;Location: 1068602 - 1067766&lt;br&gt;&lt;br&gt;&lt;b&gt;BlastP hit with PLIDEL_16775&lt;/b&gt;&lt;br&gt;Percentage identity: 37&lt;br&gt;Percentage coverage: 88&lt;br&gt;BLAST bit score: 160&lt;br&gt;E-value: 1.43e-45" locus_tag="KU884_RS04925" class="clusterblast-orf" id="dummy-1_h1_10_13"  />
</g>
<g id="a1_0014"  >
<polygon points="554,85 559,80 580,80 580,90 559,90 554,85 " style="fill:#15d851; stroke-width:1; stroke:black; " description="&lt;b&gt;KU884_RS04920&lt;/b&gt;&lt;br&gt;SMC-Scp complex subunit ScpB&lt;br&gt;Location: 1067773 - 1067159&lt;br&gt;&lt;br&gt;&lt;b&gt;BlastP hit with PLIDEL_16780&lt;/b&gt;&lt;br&gt;Percentage identity: 62&lt;br&gt;Percentage coverage: 71&lt;br&gt;BLAST bit score: 219&lt;br&gt;E-value: 6.34e-70" locus_tag="KU884_RS04920" class="clusterblast-orf" id="dummy-1_h1_10_14"  />
</g>
<g id="a1_0015"  >
<polygon points="581,85 586,80 616,80 616,90 586,90 581,85 " style="fill:#1551d8; stroke-width:1; stroke:black; " description="&lt;b&gt;KU884_RS04915&lt;/b&gt;&lt;br&gt;segregation/condensation protein A&lt;br&gt;Location: 1067153 - 1066335&lt;br&gt;&lt;br&gt;&lt;b&gt;BlastP hit with PLIDEL_16785&lt;/b&gt;&lt;br&gt;Percentage identity: 63&lt;br&gt;Percentage coverage: 82&lt;br&gt;BLAST bit score: 311&lt;br&gt;E-value: 2.17e-104" locus_tag="KU884_RS04915" class="clusterblast-orf" id="dummy-1_h1_10_15"  />
</g>
<g id="a1_0016"  >
<polygon points="617,85 622,80 669,80 669,90 622,90 617,85 " style="fill:#d815c9; stroke-width:1; stroke:black; " description="&lt;b&gt;KU884_RS04910&lt;/b&gt;&lt;br&gt;tryptophan--tRNA ligase&lt;br&gt;Location: 1066312 - 1065095&lt;br&gt;&lt;br&gt;&lt;b&gt;BlastP hit with PLIDEL_16790&lt;/b&gt;&lt;br&gt;Percentage identity: 67&lt;br&gt;Percentage coverage: 99&lt;br&gt;BLAST bit score: 558&lt;br&gt;E-value: 2.45e-198" locus_tag="KU884_RS04910" class="clusterblast-orf" id="dummy-1_h1_10_16"  />
</g>
<g id="a1_0017"  >
<polygon points="685,85 690,80 712,80 712,90 690,90 685,85 " style="fill:#d8c915; stroke-width:1; stroke:black; " description="&lt;b&gt;KU884_RS04905&lt;/b&gt;&lt;br&gt;L-threonylcarbamoyladenylate synthase&lt;br&gt;Location: 1064718 - 1064092&lt;br&gt;&lt;br&gt;&lt;b&gt;BlastP hit with PLIDEL_16795&lt;/b&gt;&lt;br&gt;Percentage identity: 58&lt;br&gt;Percentage coverage: 98&lt;br&gt;BLAST bit score: 247&lt;br&gt;E-value: 6.96e-82" locus_tag="KU884_RS04905" class="clusterblast-orf" id="dummy-1_h1_10_17"  />
</g>
<g id="a1_0018"  >
<polygon points="718,90 726,90 731,85 726,80 718,80 718,90 " style="fill:#3315d8; stroke-width:1; stroke:black; " description="&lt;b&gt;KU884_RS04900&lt;/b&gt;&lt;br&gt;YciI family protein&lt;br&gt;Location: 1063937 - 1063638&lt;br&gt;&lt;br&gt;&lt;b&gt;BlastP hit with PLIDEL_16805&lt;/b&gt;&lt;br&gt;Percentage identity: 65&lt;br&gt;Percentage coverage: 100&lt;br&gt;BLAST bit score: 127&lt;br&gt;E-value: 7.42e-38" locus_tag="KU884_RS04900" class="clusterblast-orf" id="dummy-1_h1_10_18"  />
</g>
<g id="a1_0019"  >
<polygon points="731,90 738,90 743,85 738,80 731,80 731,90 " style="fill:#d8156f; stroke-width:1; stroke:black; " description="&lt;b&gt;KU884_RS04895&lt;/b&gt;&lt;br&gt;BolA family transcriptional regulator&lt;br&gt;Location: 1063641 - 1063351&lt;br&gt;&lt;br&gt;&lt;b&gt;BlastP hit with PLIDEL_16810&lt;/b&gt;&lt;br&gt;Percentage identity: 56&lt;br&gt;Percentage coverage: 99&lt;br&gt;BLAST bit score: 94&lt;br&gt;E-value: 1.23e-24" locus_tag="KU884_RS04895" class="clusterblast-orf" id="dummy-1_h1_10_19"  />
</g>
<g id="a1_0020"  >
<polygon points="743,90 775,90 780,85 775,80 743,80 743,90 " style="fill:white; stroke-width:1; stroke:black; " description="&lt;b&gt;KU884_RS04890&lt;/b&gt;&lt;br&gt;peptidylprolyl isomerase&lt;br&gt;Location: 1063354 - 1062503" locus_tag="KU884_RS04890" class="clusterblast-orf" id="dummy-1_h1_10_20"  />
</g>
</svg>
