<svg xmlns="http://www.w3.org/2000/svg" xmlns:xlink="http://www.w3.org/1999/xlink" version="1.1" x="0" y="0" height="230" width="800" viewBox="0 0 800 230" preserveAspectRatio="none"  >
<g label="Query sequence" class="clusterblast-cluster"  >
<text x="5" y="20" class="clusterblast-acc"  >
Query sequence</text>
<line x1="10" y1="35" x2="778.0" y2="35" style="stroke-width:1; stroke:grey; "  />
<polygon points="0,40 11,40 16,35 11,30 0,30 0,40 " style="fill:#d81515; stroke-width:1; stroke:black; " description="&lt;b&gt;PLIDEL_00625&lt;/b&gt;&lt;br&gt;Ion-translocating oxidoreductase complex subunit D&lt;br&gt;Location: 98491 - 99532" locus_tag="PLIDEL_00625" class="clusterblast-orf" id="dummy-1_q0_0_all"  />
<polygon points="16,40 21,40 26,35 21,30 16,30 16,40 " style="fill:#77d815; stroke-width:1; stroke:black; " description="&lt;b&gt;PLIDEL_00630&lt;/b&gt;&lt;br&gt;Ion-translocating oxidoreductase complex subunit G&lt;br&gt;Location: 99512 - 100172" locus_tag="PLIDEL_00630" class="clusterblast-orf" id="dummy-1_q1_0_all"  />
<polygon points="29,40 36,40 41,35 36,30 29,30 29,40 " style="fill:#15d8d8; stroke-width:1; stroke:black; " description="&lt;b&gt;PLIDEL_00635&lt;/b&gt;&lt;br&gt;Ion-translocating oxidoreductase complex subunit E&lt;br&gt;Location: 100369 - 101104" locus_tag="PLIDEL_00635" class="clusterblast-orf" id="dummy-1_q2_0_all"  />
<polygon points="41,40 47,40 52,35 47,30 41,30 41,40 " style="fill:#7715d8; stroke-width:1; stroke:black; " description="&lt;b&gt;PLIDEL_00640&lt;/b&gt;&lt;br&gt;Endonuclease III&lt;br&gt;Location: 101100 - 101790" locus_tag="PLIDEL_00640" class="clusterblast-orf" id="dummy-1_q3_0_all"  />
<polygon points="52,40 54,40 59,35 54,30 52,30 52,40 " style="fill:#d85e15; stroke-width:1; stroke:black; " description="&lt;b&gt;PLIDEL_00645&lt;/b&gt;&lt;br&gt;DUF1841 domain-containing protein&lt;br&gt;Location: 101837 - 102242" locus_tag="PLIDEL_00645" class="clusterblast-orf" id="dummy-1_q4_0_all"  />
<polygon points="59,40 68,40 73,35 68,30 59,30 59,40 " style="fill:#2ed815; stroke-width:1; stroke:black; " description="&lt;b&gt;PLIDEL_00650&lt;/b&gt;&lt;br&gt;UPF0276 protein ATCM 02265&lt;br&gt;Location: 102277 - 103168" locus_tag="PLIDEL_00650" class="clusterblast-orf" id="dummy-1_q5_0_all"  />
<polygon points="73,40 81,40 86,35 81,30 73,30 73,40 " style="fill:#158fd8; stroke-width:1; stroke:black; " description="&lt;b&gt;PLIDEL_00655&lt;/b&gt;&lt;br&gt;Putative DNA-binding domain-containing protein&lt;br&gt;Location: 103175 - 103955" locus_tag="PLIDEL_00655" class="clusterblast-orf" id="dummy-1_q6_0_all"  />
<polygon points="87,40 92,40 97,35 92,30 87,30 87,40 " style="fill:#c015d8; stroke-width:1; stroke:black; " description="&lt;b&gt;PLIDEL_00660&lt;/b&gt;&lt;br&gt;DoxX family protein&lt;br&gt;Location: 104049 - 104670" locus_tag="PLIDEL_00660" class="clusterblast-orf" id="dummy-1_q7_0_all"  />
<polygon points="97,35 102,30 111,30 111,40 102,40 97,35 " style="fill:white; stroke-width:1; stroke:black; " description="&lt;b&gt;PLIDEL_00665&lt;/b&gt;&lt;br&gt;Fructokinase&lt;br&gt;Location: 104666 - 105578" locus_tag="PLIDEL_00665" class="clusterblast-orf" id="dummy-1_q8_0_all"  />
<polygon points="112,35 117,30 125,30 125,40 117,40 112,35 " style="fill:white; stroke-width:1; stroke:black; " description="&lt;b&gt;PLIDEL_00670&lt;/b&gt;&lt;br&gt;Sulfotransferase&lt;br&gt;Location: 105644 - 106448" locus_tag="PLIDEL_00670" class="clusterblast-orf" id="dummy-1_q9_0_all"  />
<polygon points="126,35 131,30 131,30 131,40 131,40 126,35 " style="fill:#d8a715; stroke-width:1; stroke:black; " description="&lt;b&gt;PLIDEL_00675&lt;/b&gt;&lt;br&gt;Pyridine nucleotide-disulphide oxidoreductase dimerisation domain-containing protein&lt;br&gt;Location: 106511 - 106826" locus_tag="PLIDEL_00675" class="clusterblast-orf" id="dummy-1_q10_0_all"  />
<polygon points="131,35 136,30 157,30 157,40 136,40 131,35 " style="fill:#d8a715; stroke-width:1; stroke:black; " description="&lt;b&gt;PLIDEL_00680&lt;/b&gt;&lt;br&gt;Dihydrolipoyl dehydrogenase&lt;br&gt;Location: 106870 - 108460" locus_tag="PLIDEL_00680" class="clusterblast-orf" id="dummy-1_q11_0_all"  />
<polygon points="156,35 161,30 177,30 177,40 161,40 156,35 " style="fill:#d8a715; stroke-width:1; stroke:black; " description="&lt;b&gt;PLIDEL_00685&lt;/b&gt;&lt;br&gt;Acetyltransferase component of pyruvate dehydrogenase complex&lt;br&gt;Location: 108428 - 109748" locus_tag="PLIDEL_00685" class="clusterblast-orf" id="dummy-1_q12_0_all"  />
<polygon points="177,35 182,30 185,30 185,40 182,40 177,35 " style="fill:white; stroke-width:1; stroke:black; " description="&lt;b&gt;PLIDEL_00690&lt;/b&gt;&lt;br&gt;Pyruvate dehydrogenase E1 component middle domain-containing protein&lt;br&gt;Location: 109759 - 110287" locus_tag="PLIDEL_00690" class="clusterblast-orf" id="dummy-1_q13_0_all"  />
<polygon points="190,35 195,30 195,30 195,40 195,40 190,35 " style="fill:white; stroke-width:1; stroke:black; " description="&lt;b&gt;PLIDEL_00695&lt;/b&gt;&lt;br&gt;hypothetical protein&lt;br&gt;Location: 110574 - 110937" locus_tag="PLIDEL_00695" class="clusterblast-orf" id="dummy-1_q14_0_all"  />
<polygon points="197,35 202,30 219,30 219,40 202,40 197,35 " style="fill:white; stroke-width:1; stroke:black; " description="&lt;b&gt;PLIDEL_00700&lt;/b&gt;&lt;br&gt;pyruvate dehydrogenase (acetyl-transferring), homodimeric type&lt;br&gt;Location: 111005 - 112427" locus_tag="PLIDEL_00700" class="clusterblast-orf" id="dummy-1_q15_0_all"  />
<polygon points="221,40 229,40 234,35 229,30 221,30 221,40 " style="fill:white; stroke-width:1; stroke:black; " description="&lt;b&gt;PLIDEL_00705&lt;/b&gt;&lt;br&gt;hypothetical protein&lt;br&gt;Location: 112563 - 113373" locus_tag="PLIDEL_00705" class="clusterblast-orf" id="dummy-1_q16_0_all"  />
<polygon points="234,40 240,40 245,35 240,30 234,30 234,40 " style="fill:white; stroke-width:1; stroke:black; " description="&lt;b&gt;PLIDEL_00710&lt;/b&gt;&lt;br&gt;Leucyl aminopeptidase family protein&lt;br&gt;Location: 113416 - 114085" locus_tag="PLIDEL_00710" class="clusterblast-orf" id="dummy-1_q17_0_all"  />
<polygon points="245,40 256,40 261,35 256,30 245,30 245,40 " style="fill:white; stroke-width:1; stroke:black; " description="&lt;b&gt;PLIDEL_00715&lt;/b&gt;&lt;br&gt;Dihydroorotase&lt;br&gt;Location: 114081 - 115116" locus_tag="PLIDEL_00715" class="clusterblast-orf" id="dummy-1_q18_0_all"  />
<polygon points="261,40 267,40 272,35 267,30 261,30 261,40 " style="fill:#15d846; stroke-width:1; stroke:black; " description="&lt;b&gt;PLIDEL_00720&lt;/b&gt;&lt;br&gt;Ribonuclease T&lt;br&gt;Location: 115112 - 115781" locus_tag="PLIDEL_00720" class="clusterblast-orf" id="dummy-1_q19_0_all"  />
<polygon points="275,35 280,30 280,30 280,40 280,40 275,35 " style="fill:white; stroke-width:1; stroke:black; " description="&lt;b&gt;PLIDEL_00725&lt;/b&gt;&lt;br&gt;Glutaredoxin&lt;br&gt;Location: 115975 - 116296" locus_tag="PLIDEL_00725" class="clusterblast-orf" id="dummy-1_q20_0_all"  />
<polygon points="284,40 296,40 301,35 296,30 284,30 284,40 " style="fill:white; stroke-width:1; stroke:black; " description="&lt;b&gt;PLIDEL_00730&lt;/b&gt;&lt;br&gt;Nicotinate-nucleotide pyrophosphorylase [carboxylating]&lt;br&gt;Location: 116547 - 117654" locus_tag="PLIDEL_00730" class="clusterblast-orf" id="dummy-1_q21_0_all"  />
<polygon points="302,35 307,30 344,30 344,40 307,40 302,35 " style="fill:#1546d8; stroke-width:1; stroke:black; " description="&lt;b&gt;PLIDEL_00735&lt;/b&gt;&lt;br&gt;Diguanylate cyclase&lt;br&gt;Location: 117702 - 120384" locus_tag="PLIDEL_00735" class="clusterblast-orf" id="dummy-1_q22_0_all"  />
<polygon points="347,35 352,30 374,30 374,40 352,40 347,35 " style="fill:white; stroke-width:1; stroke:black; " description="&lt;b&gt;PLIDEL_00740&lt;/b&gt;&lt;br&gt;Glycosyltransferase RgtA/B/C/D-like domain-containing protein&lt;br&gt;Location: 120538 - 122284" locus_tag="PLIDEL_00740" class="clusterblast-orf" id="dummy-1_q23_0_all"  />
<polygon points="374,35 379,30 386,30 386,40 379,40 374,35 " style="fill:white; stroke-width:1; stroke:black; " description="&lt;b&gt;PLIDEL_00745&lt;/b&gt;&lt;br&gt;Putative GT2: distantly related to GDP-Man: Dol-P b-mannosyltransferase&lt;br&gt;Location: 122285 - 123044" locus_tag="PLIDEL_00745" class="clusterblast-orf" id="dummy-1_q24_0_all"  />
<polygon points="388,40 397,40 402,35 397,30 388,30 388,40 " style="fill:white; stroke-width:1; stroke:black; " description="&lt;b&gt;PLIDEL_00750&lt;/b&gt;&lt;br&gt;Zinc transporter ZitB&lt;br&gt;Location: 123188 - 124079" locus_tag="PLIDEL_00750" class="clusterblast-orf" id="dummy-1_q25_0_all"  />
<polygon points="402,40 409,40 414,35 409,30 402,30 402,40 " style="fill:white; stroke-width:1; stroke:black; " description="&lt;b&gt;PLIDEL_00755&lt;/b&gt;&lt;br&gt;Lysophospholipid acyltransferase family protein&lt;br&gt;Location: 124081 - 124840" locus_tag="PLIDEL_00755" class="clusterblast-orf" id="dummy-1_q26_0_all"  />
<polygon points="421,35 424,30 424,40 421,35 " style="fill:white; stroke-width:1; stroke:black; " description="&lt;b&gt;PLIDEL_00760&lt;/b&gt;&lt;br&gt;hypothetical protein&lt;br&gt;Location: 125295 - 125448" locus_tag="PLIDEL_00760" class="clusterblast-orf" id="dummy-1_q27_0_all"  />
<polygon points="427,40 440,40 445,35 440,30 427,30 427,40 " style="fill:white; stroke-width:1; stroke:black; " description="&lt;b&gt;PLIDEL_00765&lt;/b&gt;&lt;br&gt;Cytochrome P450&lt;br&gt;Location: 125621 - 126806" locus_tag="PLIDEL_00765" class="clusterblast-orf" id="dummy-1_q28_0_all"  />
<polygon points="445,40 471,40 476,35 471,30 445,30 445,40 " style="fill:#d815a7; stroke-width:1; stroke:black; " description="&lt;b&gt;PLIDEL_00770&lt;/b&gt;&lt;br&gt;Carrier domain-containing protein&lt;br&gt;Location: 126802 - 128776" locus_tag="PLIDEL_00770" class="clusterblast-orf" id="dummy-1_q29_0_all"  />
<polygon points="477,35 482,30 487,30 487,40 482,40 477,35 " style="fill:white; stroke-width:1; stroke:black; " description="&lt;b&gt;PLIDEL_00775&lt;/b&gt;&lt;br&gt;hypothetical protein&lt;br&gt;Location: 128820 - 129462" locus_tag="PLIDEL_00775" class="clusterblast-orf" id="dummy-1_q30_0_all"  />
<polygon points="499,35 504,30 506,30 506,40 504,40 499,35 " style="fill:white; stroke-width:1; stroke:black; " description="&lt;b&gt;PLIDEL_00785&lt;/b&gt;&lt;br&gt;Ferric uptake regulation protein&lt;br&gt;Location: 130245 - 130680" locus_tag="PLIDEL_00785" class="clusterblast-orf" id="dummy-1_q31_0_all"  />
<polygon points="508,40 512,40 517,35 512,30 508,30 508,40 " style="fill:white; stroke-width:1; stroke:black; " description="&lt;b&gt;PLIDEL_00790&lt;/b&gt;&lt;br&gt;Type II secretion system protein H&lt;br&gt;Location: 130811 - 131342" locus_tag="PLIDEL_00790" class="clusterblast-orf" id="dummy-1_q32_0_all"  />
<polygon points="520,40 522,40 527,35 522,30 520,30 520,40 " style="fill:white; stroke-width:1; stroke:black; " description="&lt;b&gt;PLIDEL_00795&lt;/b&gt;&lt;br&gt;hypothetical protein&lt;br&gt;Location: 131568 - 132009" locus_tag="PLIDEL_00795" class="clusterblast-orf" id="dummy-1_q33_0_all"  />
<polygon points="528,40 529,40 534,35 529,30 528,30 528,40 " style="fill:white; stroke-width:1; stroke:black; " description="&lt;b&gt;PLIDEL_00800&lt;/b&gt;&lt;br&gt;Type IV pilus modification protein PilV&lt;br&gt;Location: 132057 - 132450" locus_tag="PLIDEL_00800" class="clusterblast-orf" id="dummy-1_q34_0_all"  />
<polygon points="534,40 541,40 546,35 541,30 534,30 534,40 " style="fill:white; stroke-width:1; stroke:black; " description="&lt;b&gt;PLIDEL_00805&lt;/b&gt;&lt;br&gt;hypothetical protein&lt;br&gt;Location: 132452 - 133193" locus_tag="PLIDEL_00805" class="clusterblast-orf" id="dummy-1_q35_0_all"  />
<polygon points="550,40 553,40 558,35 553,30 550,30 550,40 " style="fill:white; stroke-width:1; stroke:black; " description="&lt;b&gt;PLIDEL_00810&lt;/b&gt;&lt;br&gt;Type 4 fimbrial biogenesis protein PilX N-terminal domain-containing protein&lt;br&gt;Location: 133472 - 133997" locus_tag="PLIDEL_00810" class="clusterblast-orf" id="dummy-1_q36_0_all"  />
<polygon points="559,40 560,40 565,35 560,30 559,30 559,40 " style="fill:white; stroke-width:1; stroke:black; " description="&lt;b&gt;PLIDEL_00815&lt;/b&gt;&lt;br&gt;hypothetical protein&lt;br&gt;Location: 134030 - 134411" locus_tag="PLIDEL_00815" class="clusterblast-orf" id="dummy-1_q37_0_all"  />
<polygon points="565,40 616,40 621,35 616,30 565,30 565,40 " style="fill:white; stroke-width:1; stroke:black; " description="&lt;b&gt;PLIDEL_00820&lt;/b&gt;&lt;br&gt;PQQ-binding-like beta-propeller repeat protein&lt;br&gt;Location: 134444 - 137951" locus_tag="PLIDEL_00820" class="clusterblast-orf" id="dummy-1_q38_0_all"  />
<polygon points="621,40 623,40 628,35 623,30 621,30 621,40 " style="fill:white; stroke-width:1; stroke:black; " description="&lt;b&gt;PLIDEL_00825&lt;/b&gt;&lt;br&gt;Pilus assembly protein PilE&lt;br&gt;Location: 138010 - 138424" locus_tag="PLIDEL_00825" class="clusterblast-orf" id="dummy-1_q39_0_all"  />
<polygon points="628,35 633,30 643,30 643,40 633,40 628,35 " style="fill:#c0d815; stroke-width:1; stroke:black; " description="&lt;b&gt;PLIDEL_00830&lt;/b&gt;&lt;br&gt;hypothetical protein&lt;br&gt;Location: 138420 - 139356" locus_tag="PLIDEL_00830" class="clusterblast-orf" id="dummy-1_q40_0_all"  />
<polygon points="643,35 648,30 652,30 652,40 648,40 643,35 " style="fill:#15d88f; stroke-width:1; stroke:black; " description="&lt;b&gt;PLIDEL_00835&lt;/b&gt;&lt;br&gt;Lipoprotein signal peptidase&lt;br&gt;Location: 139402 - 139957" locus_tag="PLIDEL_00835" class="clusterblast-orf" id="dummy-1_q41_0_all"  />
<polygon points="652,35 657,30 660,30 660,40 657,40 652,35 " style="fill:#2e15d8; stroke-width:1; stroke:black; " description="&lt;b&gt;PLIDEL_00840&lt;/b&gt;&lt;br&gt;Isoleucine--tRNA ligase&lt;br&gt;Location: 139956 - 140439" locus_tag="PLIDEL_00840" class="clusterblast-orf" id="dummy-1_q42_0_all"  />
<polygon points="669,35 672,30 672,40 669,35 " style="fill:#2e15d8; stroke-width:1; stroke:black; " description="&lt;b&gt;PLIDEL_00845&lt;/b&gt;&lt;br&gt;hypothetical protein&lt;br&gt;Location: 141022 - 141193" locus_tag="PLIDEL_00845" class="clusterblast-orf" id="dummy-1_q43_0_all"  />
<polygon points="673,35 678,30 687,30 687,40 678,40 673,35 " style="fill:#2e15d8; stroke-width:1; stroke:black; " description="&lt;b&gt;PLIDEL_00850&lt;/b&gt;&lt;br&gt;hypothetical protein&lt;br&gt;Location: 141280 - 142171" locus_tag="PLIDEL_00850" class="clusterblast-orf" id="dummy-1_q44_0_all"  />
<polygon points="687,35 692,30 699,30 699,40 692,40 687,35 " style="fill:#2e15d8; stroke-width:1; stroke:black; " description="&lt;b&gt;PLIDEL_00855&lt;/b&gt;&lt;br&gt;hypothetical protein&lt;br&gt;Location: 142180 - 142915" locus_tag="PLIDEL_00855" class="clusterblast-orf" id="dummy-1_q45_0_all"  />
<polygon points="699,35 704,30 711,30 711,40 704,40 699,35 " style="fill:#d8155e; stroke-width:1; stroke:black; " description="&lt;b&gt;PLIDEL_00860&lt;/b&gt;&lt;br&gt;Riboflavin biosynthesis protein&lt;br&gt;Location: 142930 - 143689" locus_tag="PLIDEL_00860" class="clusterblast-orf" id="dummy-1_q46_0_all"  />
<polygon points="713,35 718,30 739,30 739,40 718,40 713,35 " style="fill:white; stroke-width:1; stroke:black; " description="&lt;b&gt;PLIDEL_00865&lt;/b&gt;&lt;br&gt;putative lipid II flippase MurJ&lt;br&gt;Location: 143842 - 145483" locus_tag="PLIDEL_00865" class="clusterblast-orf" id="dummy-1_q47_0_all"  />
<polygon points="743,40 747,35 743,30 743,40 " style="fill:white; stroke-width:1; stroke:black; " description="&lt;b&gt;PLIDEL_00870&lt;/b&gt;&lt;br&gt;Small ribosomal subunit protein bS20&lt;br&gt;Location: 145706 - 145991" locus_tag="PLIDEL_00870" class="clusterblast-orf" id="dummy-1_q48_0_all"  />
<polygon points="753,35 758,30 780,30 780,40 758,40 753,35 " style="fill:white; stroke-width:1; stroke:black; " description="&lt;b&gt;PLIDEL_00875&lt;/b&gt;&lt;br&gt;hypothetical protein&lt;br&gt;Location: 146392 - 148066" locus_tag="PLIDEL_00875" class="clusterblast-orf" id="dummy-1_q49_0_all"  />
</g>
<g label="NZ_CP016268" description="NZ_CP016268 (2472069-2482936): Woeseia oceani strain XK5 chromosome, complete... (100% of genes show similarity), RiPP-like" class="clusterblast-cluster"  >
<text x="5" y="70" class="clusterblast-acc"  >
<a xlink:href="https://antismash-db.secondarymetabolites.org/area?record=NZ_CP016268&amp;start=2472069&amp;end=2482936" target="_blank">NZ_CP016268 (2472069-2482936)</a>: Woeseia oceani strain XK5 chromosome, complete... (100% of genes show similarity), RiPP-like</text>
<line x1="10" y1="85" x2="778.0" y2="85" style="stroke-width:1; stroke:grey; "  />
</g>
<g id="a1_000"  >
<polygon points="316,90 328,90 333,85 328,80 316,80 316,90 " style="fill:#d81515; stroke-width:1; stroke:black; " description="&lt;b&gt;BA177_RS11165&lt;/b&gt;&lt;br&gt;RnfABCDGE type electron transport complex subunit D&lt;br&gt;Location: 2473513 - 2474574&lt;br&gt;&lt;br&gt;&lt;b&gt;BlastP hit with PLIDEL_00625&lt;/b&gt;&lt;br&gt;Percentage identity: 49&lt;br&gt;Percentage coverage: 101&lt;br&gt;BLAST bit score: 300&lt;br&gt;E-value: 2.51e-98" locus_tag="BA177_RS11165" class="clusterblast-orf" id="dummy-1_h1_1_0"  />
</g>
<g id="a1_001"  >
<polygon points="333,90 338,90 343,85 338,80 333,80 333,90 " style="fill:#77d815; stroke-width:1; stroke:black; " description="&lt;b&gt;BA177_RS11170&lt;/b&gt;&lt;br&gt;electron transport complex subunit RsxG&lt;br&gt;Location: 2474571 - 2475224&lt;br&gt;&lt;br&gt;&lt;b&gt;BlastP hit with PLIDEL_00630&lt;/b&gt;&lt;br&gt;Percentage identity: 41&lt;br&gt;Percentage coverage: 93&lt;br&gt;BLAST bit score: 149&lt;br&gt;E-value: 4.47e-43" locus_tag="BA177_RS11170" class="clusterblast-orf" id="dummy-1_h1_1_1"  />
</g>
<g id="a1_002"  >
<polygon points="343,90 349,90 354,85 349,80 343,80 343,90 " style="fill:#15d8d8; stroke-width:1; stroke:black; " description="&lt;b&gt;BA177_RS11175&lt;/b&gt;&lt;br&gt;electron transport complex subunit E&lt;br&gt;Location: 2475221 - 2475898&lt;br&gt;&lt;br&gt;&lt;b&gt;BlastP hit with PLIDEL_00635&lt;/b&gt;&lt;br&gt;Percentage identity: 57&lt;br&gt;Percentage coverage: 81&lt;br&gt;BLAST bit score: 192&lt;br&gt;E-value: 3.49e-59" locus_tag="BA177_RS11175" class="clusterblast-orf" id="dummy-1_h1_1_2"  />
</g>
<g id="a1_003"  >
<polygon points="354,90 359,90 364,85 359,80 354,80 354,90 " style="fill:#7715d8; stroke-width:1; stroke:black; " description="&lt;b&gt;BA177_RS11180&lt;/b&gt;&lt;br&gt;endonuclease III&lt;br&gt;Location: 2475909 - 2476553&lt;br&gt;&lt;br&gt;&lt;b&gt;BlastP hit with PLIDEL_00640&lt;/b&gt;&lt;br&gt;Percentage identity: 68&lt;br&gt;Percentage coverage: 91&lt;br&gt;BLAST bit score: 289&lt;br&gt;E-value: 8.42e-98" locus_tag="BA177_RS11180" class="clusterblast-orf" id="dummy-1_h1_1_3"  />
</g>
<g id="a1_004"  >
<polygon points="364,90 366,90 371,85 366,80 364,80 364,90 " style="fill:#d85e15; stroke-width:1; stroke:black; " description="&lt;b&gt;BA177_RS11185&lt;/b&gt;&lt;br&gt;DUF1841 family protein&lt;br&gt;Location: 2476553 - 2476978&lt;br&gt;&lt;br&gt;&lt;b&gt;BlastP hit with PLIDEL_00645&lt;/b&gt;&lt;br&gt;Percentage identity: 50&lt;br&gt;Percentage coverage: 96&lt;br&gt;BLAST bit score: 137&lt;br&gt;E-value: 1.61e-40" locus_tag="BA177_RS11185" class="clusterblast-orf" id="dummy-1_h1_1_4"  />
</g>
<g id="a1_005"  >
<polygon points="372,90 381,90 386,85 381,80 372,80 372,90 " style="fill:#2ed815; stroke-width:1; stroke:black; " description="&lt;b&gt;BA177_RS11190&lt;/b&gt;&lt;br&gt;DUF692 domain-containing protein&lt;br&gt;Location: 2477070 - 2477936&lt;br&gt;&lt;br&gt;&lt;b&gt;BlastP hit with PLIDEL_00650&lt;/b&gt;&lt;br&gt;Percentage identity: 62&lt;br&gt;Percentage coverage: 89&lt;br&gt;BLAST bit score: 328&lt;br&gt;E-value: 4.22e-111" locus_tag="BA177_RS11190" class="clusterblast-orf" id="dummy-1_h1_1_5"  />
</g>
<g id="a1_006"  >
<polygon points="386,90 393,90 398,85 393,80 386,80 386,90 " style="fill:#158fd8; stroke-width:1; stroke:black; " description="&lt;b&gt;BA177_RS11195&lt;/b&gt;&lt;br&gt;putative DNA-binding domain-containing protein&lt;br&gt;Location: 2477929 - 2478705&lt;br&gt;&lt;br&gt;&lt;b&gt;BlastP hit with PLIDEL_00655&lt;/b&gt;&lt;br&gt;Percentage identity: 49&lt;br&gt;Percentage coverage: 96&lt;br&gt;BLAST bit score: 234&lt;br&gt;E-value: 2.77e-75" locus_tag="BA177_RS11195" class="clusterblast-orf" id="dummy-1_h1_1_6"  />
</g>
<g id="a1_007"  >
<polygon points="399,90 403,90 408,85 403,80 399,80 399,90 " style="fill:#c015d8; stroke-width:1; stroke:black; " description="&lt;b&gt;BA177_RS11200&lt;/b&gt;&lt;br&gt;DoxX family protein&lt;br&gt;Location: 2478742 - 2479347&lt;br&gt;&lt;br&gt;&lt;b&gt;BlastP hit with PLIDEL_00660&lt;/b&gt;&lt;br&gt;Percentage identity: 62&lt;br&gt;Percentage coverage: 88&lt;br&gt;BLAST bit score: 219&lt;br&gt;E-value: 7.33e-71" locus_tag="BA177_RS11200" class="clusterblast-orf" id="dummy-1_h1_1_7"  />
</g>
<g id="a1_008"  >
<polygon points="409,85 414,80 436,80 436,90 414,90 409,85 " style="fill:#d8a715; stroke-width:1; stroke:black; " description="&lt;b&gt;BA177_RS11205&lt;/b&gt;&lt;br&gt;dihydrolipoyl dehydrogenase&lt;br&gt;Location: 2479388 - 2481145&lt;br&gt;&lt;br&gt;&lt;b&gt;BlastP hit with PLIDEL_00675&lt;/b&gt;&lt;br&gt;Percentage identity: 78&lt;br&gt;Percentage coverage: 90&lt;br&gt;BLAST bit score: 149&lt;br&gt;E-value: 8.3e-42&lt;br&gt;&lt;br&gt;&lt;b&gt;BlastP hit with PLIDEL_00680&lt;/b&gt;&lt;br&gt;Percentage identity: 57&lt;br&gt;Percentage coverage: 94&lt;br&gt;BLAST bit score: 522&lt;br&gt;E-value: 2.96e-179&lt;br&gt;&lt;br&gt;&lt;b&gt;BlastP hit with PLIDEL_00685&lt;/b&gt;&lt;br&gt;Percentage identity: 59&lt;br&gt;Percentage coverage: 15&lt;br&gt;BLAST bit score: 84&lt;br&gt;E-value: 4.19e-15" locus_tag="BA177_RS11205" class="clusterblast-orf" id="dummy-1_h1_1_8"  />
</g>
<g id="a1_009"  >
<polygon points="437,85 442,80 463,80 463,90 442,90 437,85 " style="fill:#d8a715; stroke-width:1; stroke:black; " description="&lt;b&gt;BA177_RS11210&lt;/b&gt;&lt;br&gt;dihydrolipoyllysine-residue acetyltransferase&lt;br&gt;Location: 2481168 - 2482814&lt;br&gt;&lt;br&gt;&lt;b&gt;BlastP hit with PLIDEL_00680&lt;/b&gt;&lt;br&gt;Percentage identity: 38&lt;br&gt;Percentage coverage: 20&lt;br&gt;BLAST bit score: 66&lt;br&gt;E-value: 3.8e-09&lt;br&gt;&lt;br&gt;&lt;b&gt;BlastP hit with PLIDEL_00685&lt;/b&gt;&lt;br&gt;Percentage identity: 55&lt;br&gt;Percentage coverage: 100&lt;br&gt;BLAST bit score: 425&lt;br&gt;E-value: 4.14e-143" locus_tag="BA177_RS11210" class="clusterblast-orf" id="dummy-1_h1_1_9"  />
</g>
</svg>
