<svg xmlns="http://www.w3.org/2000/svg" xmlns:xlink="http://www.w3.org/1999/xlink" version="1.1" x="0" y="0" height="230" width="800" viewBox="0 0 800 230" preserveAspectRatio="none"  >
<g label="Query sequence" class="clusterblast-cluster"  >
<text x="5" y="20" class="clusterblast-acc"  >
Query sequence</text>
<line x1="10" y1="35" x2="778.0" y2="35" style="stroke-width:1; stroke:grey; "  />
<polygon points="140,40 151,40 156,35 151,30 140,30 140,40 " style="fill:#d81515; stroke-width:1; stroke:black; " description="&lt;b&gt;PLIDEL_16745&lt;/b&gt;&lt;br&gt;hypothetical protein&lt;br&gt;Location: 104 - 542" locus_tag="PLIDEL_16745" class="clusterblast-orf" id="dummy-1_q0_0_all"  />
<polygon points="155,40 176,40 181,35 176,30 155,30 155,40 " style="fill:#33d815; stroke-width:1; stroke:black; " description="&lt;b&gt;PLIDEL_16750&lt;/b&gt;&lt;br&gt;Ubiquinone biosynthesis O-methyltransferase&lt;br&gt;Location: 528 - 1245" locus_tag="PLIDEL_16750" class="clusterblast-orf" id="dummy-1_q1_0_all"  />
<polygon points="179,35 184,30 197,30 197,40 184,40 179,35 " style="fill:white; stroke-width:1; stroke:black; " description="&lt;b&gt;PLIDEL_16755&lt;/b&gt;&lt;br&gt;hypothetical protein&lt;br&gt;Location: 1199 - 1697" locus_tag="PLIDEL_16755" class="clusterblast-orf" id="dummy-1_q2_0_all"  />
<polygon points="202,35 207,30 228,30 228,40 207,40 202,35 " style="fill:white; stroke-width:1; stroke:black; " description="&lt;b&gt;PLIDEL_16760&lt;/b&gt;&lt;br&gt;hypothetical protein&lt;br&gt;Location: 1817 - 2534" locus_tag="PLIDEL_16760" class="clusterblast-orf" id="dummy-1_q3_0_all"  />
<polygon points="228,40 277,40 282,35 277,30 228,30 228,40 " style="fill:#15abd8; stroke-width:1; stroke:black; " description="&lt;b&gt;PLIDEL_16765&lt;/b&gt;&lt;br&gt;hypothetical protein&lt;br&gt;Location: 2541 - 4041" locus_tag="PLIDEL_16765" class="clusterblast-orf" id="dummy-1_q4_0_all"  />
<polygon points="289,40 305,40 310,35 305,30 289,30 289,40 " style="fill:#8d15d8; stroke-width:1; stroke:black; " description="&lt;b&gt;PLIDEL_16770&lt;/b&gt;&lt;br&gt;Putative oxoacyl-reductase&lt;br&gt;Location: 4240 - 4819" locus_tag="PLIDEL_16770" class="clusterblast-orf" id="dummy-1_q5_0_all"  />
<polygon points="309,35 314,30 339,30 339,40 314,40 309,35 " style="fill:#d86f15; stroke-width:1; stroke:black; " description="&lt;b&gt;PLIDEL_16775&lt;/b&gt;&lt;br&gt;RNA-binding S4 domain-containing protein&lt;br&gt;Location: 4790 - 5627" locus_tag="PLIDEL_16775" class="clusterblast-orf" id="dummy-1_q6_0_all"  />
<polygon points="340,35 345,30 368,30 368,40 345,40 340,35 " style="fill:#15d851; stroke-width:1; stroke:black; " description="&lt;b&gt;PLIDEL_16780&lt;/b&gt;&lt;br&gt;Segregation and condensation protein B&lt;br&gt;Location: 5635 - 6427" locus_tag="PLIDEL_16780" class="clusterblast-orf" id="dummy-1_q7_0_all"  />
<polygon points="368,35 373,30 402,30 402,40 373,40 368,35 " style="fill:#1551d8; stroke-width:1; stroke:black; " description="&lt;b&gt;PLIDEL_16785&lt;/b&gt;&lt;br&gt;Segregation and condensation protein A&lt;br&gt;Location: 6423 - 7365" locus_tag="PLIDEL_16785" class="clusterblast-orf" id="dummy-1_q8_0_all"  />
<polygon points="402,35 407,30 446,30 446,40 407,40 402,35 " style="fill:#d815c9; stroke-width:1; stroke:black; " description="&lt;b&gt;PLIDEL_16790&lt;/b&gt;&lt;br&gt;Tryptophan--tRNA ligase&lt;br&gt;Location: 7374 - 8574" locus_tag="PLIDEL_16790" class="clusterblast-orf" id="dummy-1_q9_0_all"  />
<polygon points="451,35 456,30 474,30 474,40 456,40 451,35 " style="fill:#d8c915; stroke-width:1; stroke:black; " description="&lt;b&gt;PLIDEL_16795&lt;/b&gt;&lt;br&gt;Uncharacterized protein HI 1198&lt;br&gt;Location: 8730 - 9345" locus_tag="PLIDEL_16795" class="clusterblast-orf" id="dummy-1_q10_0_all"  />
<polygon points="477,40 492,40 497,35 492,30 477,30 477,40 " style="fill:#15d8ab; stroke-width:1; stroke:black; " description="&lt;b&gt;PLIDEL_16800&lt;/b&gt;&lt;br&gt;Inner membrane-spanning protein YciB&lt;br&gt;Location: 9442 - 9988" locus_tag="PLIDEL_16800" class="clusterblast-orf" id="dummy-1_q11_0_all"  />
<polygon points="497,40 503,40 508,35 503,30 497,30 497,40 " style="fill:#3315d8; stroke-width:1; stroke:black; " description="&lt;b&gt;PLIDEL_16805&lt;/b&gt;&lt;br&gt;YCII-related domain-containing protein&lt;br&gt;Location: 9989 - 10289" locus_tag="PLIDEL_16805" class="clusterblast-orf" id="dummy-1_q12_0_all"  />
<polygon points="507,40 512,40 517,35 512,30 507,30 507,40 " style="fill:#d8156f; stroke-width:1; stroke:black; " description="&lt;b&gt;PLIDEL_16810&lt;/b&gt;&lt;br&gt;BolA family transcriptional regulator&lt;br&gt;Location: 10285 - 10561" locus_tag="PLIDEL_16810" class="clusterblast-orf" id="dummy-1_q13_0_all"  />
<polygon points="519,40 544,40 549,35 544,30 519,30 519,40 " style="fill:#8dd815; stroke-width:1; stroke:black; " description="&lt;b&gt;PLIDEL_16815&lt;/b&gt;&lt;br&gt;Peptidylprolyl isomerase&lt;br&gt;Location: 10600 - 11437" locus_tag="PLIDEL_16815" class="clusterblast-orf" id="dummy-1_q14_0_all"  />
<polygon points="574,35 579,30 580,30 580,40 579,40 574,35 " style="fill:white; stroke-width:1; stroke:black; " description="&lt;b&gt;PLIDEL_16820&lt;/b&gt;&lt;br&gt;hypothetical protein&lt;br&gt;Location: 12138 - 12303" locus_tag="PLIDEL_16820" class="clusterblast-orf" id="dummy-1_q15_0_all"  />
<polygon points="582,35 587,30 640,30 640,40 587,40 582,35 " style="fill:white; stroke-width:1; stroke:black; " description="&lt;b&gt;PLIDEL_16825&lt;/b&gt;&lt;br&gt;hypothetical protein&lt;br&gt;Location: 12344 - 13952" locus_tag="PLIDEL_16825" class="clusterblast-orf" id="dummy-1_q16_0_all"  />
</g>
<g label="NZ_AP018725" description="NZ_AP018725 (1387741-1409528): Sulfuriflexus mobilis strain aks1 chromosome, ... (29% of genes show similarity), terpene" class="clusterblast-cluster"  >
<text x="5" y="70" class="clusterblast-acc"  >
<a xlink:href="https://antismash-db.secondarymetabolites.org/area?record=NZ_AP018725&amp;start=1387741&amp;end=1409528" target="_blank">NZ_AP018725 (1387741-1409528)</a>: Sulfuriflexus mobilis strain aks1 chromosome, ... (29% of genes show similarity), terpene</text>
<line x1="10" y1="85" x2="778.0" y2="85" style="stroke-width:1; stroke:grey; "  />
</g>
<g id="a1_000"  >
<polygon points="0,85 5,80 40,80 40,90 5,90 0,85 " style="fill:white; stroke-width:1; stroke:black; " description="&lt;b&gt;EL386_RS07040&lt;/b&gt;&lt;br&gt;DNA alkylation repair protein&lt;br&gt;Location: 1409457 - 1408327" locus_tag="EL386_RS07040" class="clusterblast-orf" id="dummy-1_h1_9_0"  />
</g>
<g id="a1_001"  >
<polygon points="41,85 46,80 49,80 49,90 46,90 41,85 " style="fill:white; stroke-width:1; stroke:black; " description="&lt;b&gt;EL386_RS07035&lt;/b&gt;&lt;br&gt;hypothetical protein&lt;br&gt;Location: 1408298 - 1408089" locus_tag="EL386_RS07035" class="clusterblast-orf" id="dummy-1_h1_9_1"  />
</g>
<g id="a1_002"  >
<polygon points="51,85 56,80 70,80 70,90 56,90 51,85 " style="fill:white; stroke-width:1; stroke:black; " description="&lt;b&gt;EL386_RS07030&lt;/b&gt;&lt;br&gt;hypothetical protein&lt;br&gt;Location: 1408020 - 1407511" locus_tag="EL386_RS07030" class="clusterblast-orf" id="dummy-1_h1_9_2"  />
</g>
<g id="a1_003"  >
<polygon points="76,85 81,80 89,80 89,90 81,90 76,85 " style="fill:white; stroke-width:1; stroke:black; " description="&lt;b&gt;EL386_RS07025&lt;/b&gt;&lt;br&gt;cupin domain-containing protein&lt;br&gt;Location: 1407343 - 1406978" locus_tag="EL386_RS07025" class="clusterblast-orf" id="dummy-1_h1_9_3"  />
</g>
<g id="a1_004"  >
<polygon points="93,85 98,80 106,80 106,90 98,90 93,85 " style="fill:white; stroke-width:1; stroke:black; " description="&lt;b&gt;EL386_RS07020&lt;/b&gt;&lt;br&gt;VOC family protein&lt;br&gt;Location: 1406875 - 1406507" locus_tag="EL386_RS07020" class="clusterblast-orf" id="dummy-1_h1_9_4"  />
</g>
<g id="a1_005"  >
<polygon points="107,85 112,80 130,80 130,90 112,90 107,85 " style="fill:white; stroke-width:1; stroke:black; " description="&lt;b&gt;EL386_RS07015&lt;/b&gt;&lt;br&gt;LysE family translocator&lt;br&gt;Location: 1406469 - 1405849" locus_tag="EL386_RS07015" class="clusterblast-orf" id="dummy-1_h1_9_5"  />
</g>
<g id="a1_006"  >
<polygon points="138,85 143,80 145,80 145,90 143,90 138,85 " style="fill:white; stroke-width:1; stroke:black; " description="&lt;b&gt;EL386_RS07010&lt;/b&gt;&lt;br&gt;hypothetical protein&lt;br&gt;Location: 1405630 - 1405439" locus_tag="EL386_RS07010" class="clusterblast-orf" id="dummy-1_h1_9_6"  />
</g>
<g id="a1_007"  >
<polygon points="148,85 153,80 167,80 167,90 153,90 148,85 " style="fill:white; stroke-width:1; stroke:black; " description="&lt;b&gt;EL386_RS07005&lt;/b&gt;&lt;br&gt;DsrE family protein&lt;br&gt;Location: 1405353 - 1404832" locus_tag="EL386_RS07005" class="clusterblast-orf" id="dummy-1_h1_9_7"  />
</g>
<g id="a1_008"  >
<polygon points="172,90 176,90 181,85 176,80 172,80 172,90 " style="fill:white; stroke-width:1; stroke:black; " description="&lt;b&gt;EL386_RS07000&lt;/b&gt;&lt;br&gt;cupin domain-containing protein&lt;br&gt;Location: 1404685 - 1404419" locus_tag="EL386_RS07000" class="clusterblast-orf" id="dummy-1_h1_9_8"  />
</g>
<g id="a1_009"  >
<polygon points="182,90 202,90 207,85 202,80 182,80 182,90 " style="fill:#33d815; stroke-width:1; stroke:black; " description="&lt;b&gt;EL386_RS06995&lt;/b&gt;&lt;br&gt;bifunctional 2-polyprenyl-6-hydroxyphenol methylase/3-demethylubiquinol 3-O-methyltransferase UbiG&lt;br&gt;Location: 1404414 - 1403710&lt;br&gt;&lt;br&gt;&lt;b&gt;BlastP hit with PLIDEL_16750&lt;/b&gt;&lt;br&gt;Percentage identity: 54&lt;br&gt;Percentage coverage: 96&lt;br&gt;BLAST bit score: 233&lt;br&gt;E-value: 2.42e-75" locus_tag="EL386_RS06995" class="clusterblast-orf" id="dummy-1_h1_9_9"  />
</g>
<g id="a1_0010"  >
<polygon points="208,90 226,90 231,85 226,80 208,80 208,90 " style="fill:white; stroke-width:1; stroke:black; " description="&lt;b&gt;EL386_RS06990&lt;/b&gt;&lt;br&gt;phosphoglycolate phosphatase&lt;br&gt;Location: 1403698 - 1403036" locus_tag="EL386_RS06990" class="clusterblast-orf" id="dummy-1_h1_9_10"  />
</g>
<g id="a1_0011"  >
<polygon points="234,90 299,90 304,85 299,80 234,80 234,90 " style="fill:white; stroke-width:1; stroke:black; " description="&lt;b&gt;EL386_RS06985&lt;/b&gt;&lt;br&gt;response regulator&lt;br&gt;Location: 1402952 - 1401033" locus_tag="EL386_RS06985" class="clusterblast-orf" id="dummy-1_h1_9_11"  />
</g>
<g id="a1_0012"  >
<polygon points="304,90 345,90 350,85 345,80 304,80 304,90 " style="fill:#15abd8; stroke-width:1; stroke:black; " description="&lt;b&gt;EL386_RS06980&lt;/b&gt;&lt;br&gt;DNA recombination protein RmuC&lt;br&gt;Location: 1401016 - 1399751&lt;br&gt;&lt;br&gt;&lt;b&gt;BlastP hit with PLIDEL_16765&lt;/b&gt;&lt;br&gt;Percentage identity: 59&lt;br&gt;Percentage coverage: 38&lt;br&gt;BLAST bit score: 231&lt;br&gt;E-value: 1.26e-68" locus_tag="EL386_RS06980" class="clusterblast-orf" id="dummy-1_h1_9_12"  />
</g>
<g id="a1_0013"  >
<polygon points="350,85 355,80 357,80 357,90 355,90 350,85 " style="fill:white; stroke-width:1; stroke:black; " description="&lt;b&gt;EL386_RS06975&lt;/b&gt;&lt;br&gt;hypothetical protein&lt;br&gt;Location: 1399750 - 1399550" locus_tag="EL386_RS06975" class="clusterblast-orf" id="dummy-1_h1_9_13"  />
</g>
<g id="a1_0014"  >
<polygon points="358,90 385,90 390,85 385,80 358,80 358,90 " style="fill:white; stroke-width:1; stroke:black; " description="&lt;b&gt;EL386_RS06970&lt;/b&gt;&lt;br&gt;squalene synthase HpnC&lt;br&gt;Location: 1399528 - 1398635" locus_tag="EL386_RS06970" class="clusterblast-orf" id="dummy-1_h1_9_14"  />
</g>
<g id="a1_0015"  >
<polygon points="391,90 418,90 423,85 418,80 391,80 391,90 " style="fill:white; stroke-width:1; stroke:black; " description="&lt;b&gt;EL386_RS06965&lt;/b&gt;&lt;br&gt;presqualene diphosphate synthase HpnD&lt;br&gt;Location: 1398608 - 1397742" locus_tag="EL386_RS06965" class="clusterblast-orf" id="dummy-1_h1_9_15"  />
</g>
<g id="a1_0016"  >
<polygon points="423,90 466,90 471,85 466,80 423,80 423,90 " style="fill:white; stroke-width:1; stroke:black; " description="&lt;b&gt;EL386_RS06960&lt;/b&gt;&lt;br&gt;hydroxysqualene dehydroxylase HpnE&lt;br&gt;Location: 1397733 - 1396399" locus_tag="EL386_RS06960" class="clusterblast-orf" id="dummy-1_h1_9_16"  />
</g>
<g id="a1_0017"  >
<polygon points="471,90 494,90 499,85 494,80 471,80 471,90 " style="fill:#8d15d8; stroke-width:1; stroke:black; " description="&lt;b&gt;EL386_RS06955&lt;/b&gt;&lt;br&gt;YciK family oxidoreductase&lt;br&gt;Location: 1396402 - 1395632&lt;br&gt;&lt;br&gt;&lt;b&gt;BlastP hit with PLIDEL_16770&lt;/b&gt;&lt;br&gt;Percentage identity: 50&lt;br&gt;Percentage coverage: 83&lt;br&gt;BLAST bit score: 166&lt;br&gt;E-value: 1.28e-49" locus_tag="EL386_RS06955" class="clusterblast-orf" id="dummy-1_h1_9_17"  />
</g>
<g id="a1_0018"  >
<polygon points="506,90 534,90 539,85 534,80 506,80 506,90 " style="fill:white; stroke-width:1; stroke:black; " description="&lt;b&gt;EL386_RS06950&lt;/b&gt;&lt;br&gt;GGDEF domain-containing protein&lt;br&gt;Location: 1395434 - 1394520" locus_tag="EL386_RS06950" class="clusterblast-orf" id="dummy-1_h1_9_18"  />
</g>
<g id="a1_0019"  >
<polygon points="543,90 555,90 560,85 555,80 543,80 543,90 " style="fill:white; stroke-width:1; stroke:black; " description="&lt;b&gt;EL386_RS06945&lt;/b&gt;&lt;br&gt;hypothetical protein&lt;br&gt;Location: 1394398 - 1393937" locus_tag="EL386_RS06945" class="clusterblast-orf" id="dummy-1_h1_9_19"  />
</g>
<g id="a1_0020"  >
<polygon points="560,85 565,80 583,80 583,90 565,90 560,85 " style="fill:white; stroke-width:1; stroke:black; " description="&lt;b&gt;EL386_RS06940&lt;/b&gt;&lt;br&gt;endonuclease&lt;br&gt;Location: 1393940 - 1393293" locus_tag="EL386_RS06940" class="clusterblast-orf" id="dummy-1_h1_9_20"  />
</g>
<g id="a1_0021"  >
<polygon points="584,85 589,80 613,80 613,90 589,90 584,85 " style="fill:#d86f15; stroke-width:1; stroke:black; " description="&lt;b&gt;EL386_RS06935&lt;/b&gt;&lt;br&gt;pseudouridine synthase&lt;br&gt;Location: 1393284 - 1392475&lt;br&gt;&lt;br&gt;&lt;b&gt;BlastP hit with PLIDEL_16775&lt;/b&gt;&lt;br&gt;Percentage identity: 35&lt;br&gt;Percentage coverage: 91&lt;br&gt;BLAST bit score: 155&lt;br&gt;E-value: 4.88e-44" locus_tag="EL386_RS06935" class="clusterblast-orf" id="dummy-1_h1_9_21"  />
</g>
<g id="a1_0022"  >
<polygon points="614,85 619,80 642,80 642,90 619,90 614,85 " style="fill:#15d851; stroke-width:1; stroke:black; " description="&lt;b&gt;EL386_RS06930&lt;/b&gt;&lt;br&gt;SMC-Scp complex subunit ScpB&lt;br&gt;Location: 1392437 - 1391679&lt;br&gt;&lt;br&gt;&lt;b&gt;BlastP hit with PLIDEL_16780&lt;/b&gt;&lt;br&gt;Percentage identity: 56&lt;br&gt;Percentage coverage: 68&lt;br&gt;BLAST bit score: 206&lt;br&gt;E-value: 5.69e-64" locus_tag="EL386_RS06930" class="clusterblast-orf" id="dummy-1_h1_9_22"  />
</g>
<g id="a1_0023"  >
<polygon points="642,85 647,80 671,80 671,90 647,90 642,85 " style="fill:#1551d8; stroke-width:1; stroke:black; " description="&lt;b&gt;EL386_RS06925&lt;/b&gt;&lt;br&gt;ScpA family protein&lt;br&gt;Location: 1391677 - 1390868&lt;br&gt;&lt;br&gt;&lt;b&gt;BlastP hit with PLIDEL_16785&lt;/b&gt;&lt;br&gt;Percentage identity: 63&lt;br&gt;Percentage coverage: 83&lt;br&gt;BLAST bit score: 317&lt;br&gt;E-value: 1.04e-106" locus_tag="EL386_RS06925" class="clusterblast-orf" id="dummy-1_h1_9_23"  />
</g>
<g id="a1_0024"  >
<polygon points="676,85 681,80 720,80 720,90 681,90 676,85 " style="fill:#d815c9; stroke-width:1; stroke:black; " description="&lt;b&gt;EL386_RS06920&lt;/b&gt;&lt;br&gt;tryptophan--tRNA ligase&lt;br&gt;Location: 1390736 - 1389519&lt;br&gt;&lt;br&gt;&lt;b&gt;BlastP hit with PLIDEL_16790&lt;/b&gt;&lt;br&gt;Percentage identity: 69&lt;br&gt;Percentage coverage: 99&lt;br&gt;BLAST bit score: 572&lt;br&gt;E-value: 8.19e-204" locus_tag="EL386_RS06920" class="clusterblast-orf" id="dummy-1_h1_9_24"  />
</g>
<g id="a1_0025"  >
<polygon points="726,85 731,80 749,80 749,90 731,90 726,85 " style="fill:#d8c915; stroke-width:1; stroke:black; " description="&lt;b&gt;EL386_RS06915&lt;/b&gt;&lt;br&gt;L-threonylcarbamoyladenylate synthase&lt;br&gt;Location: 1389335 - 1388715&lt;br&gt;&lt;br&gt;&lt;b&gt;BlastP hit with PLIDEL_16795&lt;/b&gt;&lt;br&gt;Percentage identity: 64&lt;br&gt;Percentage coverage: 96&lt;br&gt;BLAST bit score: 256&lt;br&gt;E-value: 2.07e-85" locus_tag="EL386_RS06915" class="clusterblast-orf" id="dummy-1_h1_9_25"  />
</g>
<g id="a1_0026"  >
<polygon points="749,85 754,80 780,80 780,90 754,90 749,85 " style="fill:white; stroke-width:1; stroke:black; " description="&lt;b&gt;EL386_RS06910&lt;/b&gt;&lt;br&gt;PHP domain-containing protein&lt;br&gt;Location: 1388718 - 1387861" locus_tag="EL386_RS06910" class="clusterblast-orf" id="dummy-1_h1_9_26"  />
</g>
</svg>
